G04 #@! TF.GenerationSoftware,KiCad,Pcbnew,9.0.5*
G04 #@! TF.CreationDate,2025-11-21T19:54:47+01:00*
G04 #@! TF.ProjectId,ShieldArduino_Semaforo,53686965-6c64-4417-9264-75696e6f5f53,rev?*
G04 #@! TF.SameCoordinates,Original*
G04 #@! TF.FileFunction,Copper,L2,Inr*
G04 #@! TF.FilePolarity,Positive*
%FSLAX46Y46*%
G04 Gerber Fmt 4.6, Leading zero omitted, Abs format (unit mm)*
G04 Created by KiCad (PCBNEW 9.0.5) date 2025-11-21 19:54:47*
%MOMM*%
%LPD*%
G01*
G04 APERTURE LIST*
G04 #@! TA.AperFunction,ComponentPad*
%ADD10O,1.727200X2.032000*%
G04 #@! TD*
G04 #@! TA.AperFunction,ComponentPad*
%ADD11C,4.064000*%
G04 #@! TD*
G04 #@! TA.AperFunction,ComponentPad*
%ADD12R,1.150000X1.150000*%
G04 #@! TD*
G04 #@! TA.AperFunction,ComponentPad*
%ADD13C,1.150000*%
G04 #@! TD*
G04 #@! TA.AperFunction,ComponentPad*
%ADD14C,3.750000*%
G04 #@! TD*
G04 #@! TA.AperFunction,ComponentPad*
%ADD15C,1.950000*%
G04 #@! TD*
G04 #@! TA.AperFunction,ComponentPad*
%ADD16R,1.950000X1.950000*%
G04 #@! TD*
G04 #@! TA.AperFunction,ViaPad*
%ADD17C,0.600000*%
G04 #@! TD*
G04 #@! TA.AperFunction,ViaPad*
%ADD18C,0.800000*%
G04 #@! TD*
G04 #@! TA.AperFunction,Conductor*
%ADD19C,0.250000*%
G04 #@! TD*
G04 #@! TA.AperFunction,Conductor*
%ADD20C,0.127000*%
G04 #@! TD*
G04 #@! TA.AperFunction,Conductor*
%ADD21C,0.400000*%
G04 #@! TD*
G04 APERTURE END LIST*
D10*
X138938000Y-123825000D03*
X141478000Y-123825000D03*
X144018000Y-123825000D03*
X146558000Y-123825000D03*
X149098000Y-123825000D03*
X151638000Y-123825000D03*
X154178000Y-123825000D03*
X156718000Y-123825000D03*
X161798000Y-123825000D03*
X164338000Y-123825000D03*
X166878000Y-123825000D03*
X169418000Y-123825000D03*
X171958000Y-123825000D03*
X174498000Y-123825000D03*
X129794000Y-75565000D03*
X132334000Y-75565000D03*
X134874000Y-75565000D03*
X137414000Y-75565000D03*
X139954000Y-75565000D03*
X142494000Y-75565000D03*
X145034000Y-75565000D03*
X147574000Y-75565000D03*
X150114000Y-75565000D03*
X152654000Y-75565000D03*
X156718000Y-75565000D03*
X159258000Y-75565000D03*
X161798000Y-75565000D03*
X164338000Y-75565000D03*
X166878000Y-75565000D03*
X169418000Y-75565000D03*
X171958000Y-75565000D03*
X174498000Y-75565000D03*
D11*
X124968000Y-123825000D03*
X177038000Y-118745000D03*
X126238000Y-75565000D03*
X177038000Y-90805000D03*
D12*
X116898000Y-118415000D03*
D13*
X116898000Y-116415000D03*
X116898000Y-114415000D03*
X116898000Y-112415000D03*
X116898000Y-110415000D03*
X116898000Y-108415000D03*
X116898000Y-106415000D03*
X116898000Y-104415000D03*
X114898000Y-118415000D03*
X114898000Y-116415000D03*
X114898000Y-114415000D03*
X114898000Y-112415000D03*
X114898000Y-110415000D03*
X114898000Y-108415000D03*
X114898000Y-106415000D03*
X114898000Y-104415000D03*
D14*
X115898000Y-121915000D03*
X115898000Y-100915000D03*
D15*
X174498000Y-112355000D03*
D16*
X174498000Y-94715000D03*
D15*
X174498000Y-102275000D03*
X166938000Y-112355000D03*
D17*
X114848000Y-77565000D03*
X167248000Y-119865000D03*
X126948000Y-113765000D03*
X135373000Y-116015000D03*
X115948000Y-74140000D03*
X135525000Y-110465000D03*
X159498000Y-119865000D03*
X162498000Y-84365000D03*
X170648000Y-88865000D03*
X175301217Y-81598496D03*
X149773403Y-120201020D03*
X152248000Y-115865000D03*
X142448000Y-101733595D03*
X120848000Y-96265000D03*
X173748000Y-118965000D03*
X161298000Y-105865000D03*
X113748000Y-113465000D03*
X120250000Y-102215000D03*
X157748000Y-93115000D03*
X120998000Y-109865000D03*
X158248000Y-87115000D03*
X120948000Y-117390000D03*
X127998000Y-109063000D03*
X145498000Y-80915000D03*
X155248000Y-93115000D03*
X173048000Y-87115000D03*
X167998000Y-115365000D03*
X159998000Y-105865000D03*
X175298000Y-77665000D03*
X131948000Y-87114000D03*
X155548000Y-77765000D03*
X128048000Y-106765000D03*
X120998000Y-115415000D03*
X120250000Y-100415000D03*
X120998000Y-111365000D03*
X156998000Y-120865000D03*
X154998000Y-120865000D03*
X160998000Y-93615000D03*
X163498000Y-114865000D03*
X173998000Y-80865000D03*
X159098000Y-109315000D03*
X124098000Y-98015000D03*
X121598000Y-102215000D03*
X121598000Y-100415000D03*
X131148000Y-85590000D03*
X141598000Y-101740000D03*
X120948000Y-104115000D03*
X113798000Y-119615000D03*
X136798000Y-116715000D03*
X130298000Y-87114000D03*
X140098000Y-96240000D03*
X143248000Y-120790000D03*
X168848000Y-86963000D03*
X117228000Y-93215000D03*
X140098000Y-97140000D03*
X170048000Y-121615000D03*
X156248000Y-80615000D03*
X153798000Y-77765000D03*
X167748000Y-86963000D03*
X153598000Y-115865000D03*
X135525000Y-108115000D03*
X119298000Y-120617000D03*
X155748000Y-87115000D03*
X127948000Y-111415000D03*
X115854652Y-89661516D03*
X172998000Y-121615000D03*
X159498000Y-92365000D03*
X128048000Y-104415000D03*
X118298000Y-93215000D03*
X161348000Y-102165000D03*
X148198000Y-120165000D03*
X120948000Y-119315000D03*
X136798000Y-115265000D03*
X148998000Y-80915000D03*
X116748000Y-97465000D03*
X159248000Y-86615000D03*
X163148000Y-119715000D03*
X158998000Y-80615000D03*
X120973000Y-113365000D03*
X115198000Y-97415000D03*
X131098000Y-89740000D03*
X163498000Y-111865000D03*
X133398000Y-116715000D03*
X133948000Y-123515000D03*
X126948000Y-115165000D03*
X161175823Y-118462177D03*
X157498000Y-106115000D03*
X159823000Y-109140000D03*
X113348000Y-89215000D03*
D18*
X163923000Y-106240000D03*
D17*
X162898000Y-86365000D03*
X175248000Y-78615000D03*
X131248000Y-79815000D03*
X170598000Y-90865000D03*
X134848000Y-92215000D03*
X149308000Y-116415000D03*
X175648000Y-115890000D03*
X150148000Y-94765000D03*
X174698000Y-86515000D03*
X161723000Y-116815000D03*
X136598000Y-79865000D03*
X124348000Y-78865000D03*
X113548000Y-78865000D03*
X163998000Y-117615000D03*
X136598000Y-78715000D03*
X130748000Y-110465000D03*
X127998000Y-110465000D03*
X119698000Y-90015000D03*
X154848000Y-83615000D03*
X127898000Y-108165000D03*
X130698000Y-108165000D03*
X123998000Y-106765000D03*
X168673000Y-100065000D03*
X166698000Y-81615000D03*
X157648000Y-114015000D03*
X123948000Y-109115000D03*
X126691750Y-85058750D03*
X164348000Y-121315000D03*
X161798000Y-121265000D03*
X125598000Y-93390000D03*
D18*
X169498000Y-92715000D03*
D17*
X123898000Y-113815000D03*
X154248000Y-95815000D03*
X150998000Y-97315000D03*
X154623000Y-89740000D03*
X124198000Y-111465000D03*
X150348000Y-96565000D03*
X162248000Y-78365000D03*
X161298000Y-80915000D03*
X143860500Y-105965000D03*
X141360500Y-92815000D03*
X144660500Y-107065000D03*
X144760500Y-98665000D03*
X143810500Y-107065000D03*
X144660500Y-106065000D03*
X141360500Y-93715000D03*
X143910500Y-98365000D03*
X144760500Y-97815000D03*
X162348000Y-115215000D03*
D19*
X117348000Y-120065000D02*
X116798000Y-119515000D01*
X128798000Y-120265000D02*
X120648000Y-120265000D01*
X170318000Y-125465000D02*
X133998000Y-125465000D01*
X133948000Y-123515000D02*
X133998000Y-123565000D01*
X129123000Y-120590000D02*
X128798000Y-120265000D01*
X120448000Y-120065000D02*
X117348000Y-120065000D01*
X171958000Y-123825000D02*
X170318000Y-125465000D01*
X133998000Y-123565000D02*
X133998000Y-125465000D01*
X129123000Y-120590000D02*
X128973000Y-120440000D01*
X133998000Y-125465000D02*
X129123000Y-120590000D01*
X116798000Y-119515000D02*
X115998000Y-119515000D01*
X115998000Y-119515000D02*
X114898000Y-118415000D01*
X120648000Y-120265000D02*
X120448000Y-120065000D01*
X159258000Y-76900000D02*
X159258000Y-75565000D01*
X173023000Y-103290000D02*
X173023000Y-90340000D01*
X173948000Y-82865000D02*
X165223000Y-82865000D01*
X173023000Y-90340000D02*
X176323000Y-87040000D01*
X165223000Y-82865000D02*
X159258000Y-76900000D01*
X176323000Y-87040000D02*
X176323000Y-85240000D01*
X176323000Y-85240000D02*
X173948000Y-82865000D01*
X164998000Y-111315000D02*
X173023000Y-103290000D01*
X164998000Y-117865000D02*
X164998000Y-111315000D01*
X164400823Y-118462177D02*
X164998000Y-117865000D01*
X161175823Y-118462177D02*
X164400823Y-118462177D01*
X157498000Y-106340000D02*
X159823000Y-108665000D01*
X157498000Y-106115000D02*
X157498000Y-106340000D01*
X159823000Y-108665000D02*
X159823000Y-109140000D01*
X170998000Y-87515000D02*
X171748000Y-88265000D01*
X161970000Y-109908428D02*
X161970000Y-111043000D01*
X171748000Y-100130428D02*
X161970000Y-109908428D01*
X162898000Y-86365000D02*
X164048000Y-87515000D01*
X146558000Y-122855000D02*
X146558000Y-123825000D01*
X151198000Y-121815000D02*
X147598000Y-121815000D01*
X170598000Y-90865000D02*
X171748000Y-90865000D01*
X164048000Y-87515000D02*
X170998000Y-87515000D01*
X171748000Y-88265000D02*
X171748000Y-90865000D01*
X147598000Y-121815000D02*
X146558000Y-122855000D01*
X171748000Y-90865000D02*
X171748000Y-100130428D01*
X161970000Y-111043000D02*
X151198000Y-121815000D01*
X131148000Y-88965000D02*
X119248000Y-88965000D01*
X174698000Y-86515000D02*
X173373000Y-85190000D01*
X134923000Y-85190000D02*
X131148000Y-88965000D01*
X112348000Y-103865000D02*
X114898000Y-106415000D01*
X119248000Y-88965000D02*
X112348000Y-95865000D01*
X112348000Y-95865000D02*
X112348000Y-103865000D01*
X173373000Y-85190000D02*
X134923000Y-85190000D01*
X120362969Y-110465000D02*
X117240969Y-113587000D01*
X115726000Y-113587000D02*
X114898000Y-114415000D01*
X130748000Y-110465000D02*
X130748000Y-109815000D01*
X127998000Y-110465000D02*
X120362969Y-110465000D01*
X117240969Y-113587000D02*
X115726000Y-113587000D01*
X123448000Y-107415000D02*
X119698000Y-103665000D01*
X130748000Y-109815000D02*
X128348000Y-107415000D01*
D20*
X130748000Y-110465000D02*
X130748000Y-110115000D01*
D19*
X119698000Y-103665000D02*
X119698000Y-90015000D01*
X128348000Y-107415000D02*
X123448000Y-107415000D01*
X127898000Y-108165000D02*
X120948000Y-108165000D01*
X115998000Y-111315000D02*
X114898000Y-112415000D01*
X120948000Y-108165000D02*
X117798000Y-111315000D01*
X117798000Y-111315000D02*
X115998000Y-111315000D01*
D21*
X123998000Y-103115000D02*
X127048000Y-100065000D01*
X127048000Y-100065000D02*
X157348000Y-100065000D01*
X123998000Y-106765000D02*
X123998000Y-103115000D01*
X157348000Y-100065000D02*
X168673000Y-100065000D01*
D19*
X127180061Y-109615000D02*
X128448000Y-109615000D01*
X132848000Y-114015000D02*
X157648000Y-114015000D01*
X126715939Y-109615000D02*
X126718939Y-109618000D01*
X127177061Y-109618000D02*
X127180061Y-109615000D01*
X126718939Y-109618000D02*
X127177061Y-109618000D01*
X123948000Y-109115000D02*
X124448000Y-109615000D01*
X124448000Y-109615000D02*
X126715939Y-109615000D01*
X128448000Y-109615000D02*
X132848000Y-114015000D01*
X175848000Y-85965000D02*
X173348000Y-83465000D01*
X175848000Y-86665000D02*
X175848000Y-85965000D01*
X162348000Y-115215000D02*
X162348000Y-110065000D01*
X173348000Y-83465000D02*
X165023000Y-83465000D01*
X165023000Y-83465000D02*
X157123000Y-75565000D01*
X172595000Y-99818000D02*
X172595000Y-89918000D01*
X157123000Y-75565000D02*
X156718000Y-75565000D01*
X162348000Y-110065000D02*
X172595000Y-99818000D01*
X172595000Y-89918000D02*
X175848000Y-86665000D01*
G04 #@! TA.AperFunction,Conductor*
G36*
X124957296Y-73539852D02*
G01*
X124971648Y-73574500D01*
X124957296Y-73609148D01*
X124947148Y-73616935D01*
X124939354Y-73621434D01*
X124939339Y-73621444D01*
X124696781Y-73807566D01*
X124696769Y-73807576D01*
X124480576Y-74023769D01*
X124480566Y-74023781D01*
X124294444Y-74266339D01*
X124294434Y-74266354D01*
X124141555Y-74531146D01*
X124024546Y-74813632D01*
X124024544Y-74813638D01*
X123945412Y-75108963D01*
X123945410Y-75108971D01*
X123945410Y-75108975D01*
X123911188Y-75368919D01*
X123905500Y-75412123D01*
X123905500Y-75717876D01*
X123905499Y-75717876D01*
X123917751Y-75810938D01*
X123945410Y-76021025D01*
X123945411Y-76021029D01*
X123945412Y-76021036D01*
X124024544Y-76316361D01*
X124024546Y-76316367D01*
X124141555Y-76598853D01*
X124294434Y-76863645D01*
X124294444Y-76863660D01*
X124480566Y-77106218D01*
X124480576Y-77106230D01*
X124696769Y-77322423D01*
X124696781Y-77322433D01*
X124939339Y-77508555D01*
X124939348Y-77508561D01*
X124939352Y-77508564D01*
X125204148Y-77661445D01*
X125486634Y-77778454D01*
X125486638Y-77778455D01*
X125781963Y-77857587D01*
X125781964Y-77857587D01*
X125781975Y-77857590D01*
X126085120Y-77897500D01*
X126085123Y-77897500D01*
X126390876Y-77897500D01*
X126390880Y-77897500D01*
X126694025Y-77857590D01*
X126989366Y-77778454D01*
X127271852Y-77661445D01*
X127536648Y-77508564D01*
X127566134Y-77485939D01*
X127598778Y-77460889D01*
X127779224Y-77322429D01*
X127995429Y-77106224D01*
X128181564Y-76863648D01*
X128334445Y-76598852D01*
X128451454Y-76316366D01*
X128477832Y-76217919D01*
X128530588Y-76021035D01*
X128530588Y-76021030D01*
X128530590Y-76021025D01*
X128546799Y-75897898D01*
X128565549Y-75865423D01*
X128601774Y-75855716D01*
X128634253Y-75874467D01*
X128643776Y-75896631D01*
X128658563Y-75989992D01*
X128658564Y-75989994D01*
X128715186Y-76164260D01*
X128798368Y-76327516D01*
X128798371Y-76327520D01*
X128798372Y-76327522D01*
X128906074Y-76475760D01*
X128906076Y-76475762D01*
X128906079Y-76475766D01*
X129035633Y-76605320D01*
X129035636Y-76605322D01*
X129035640Y-76605326D01*
X129183878Y-76713028D01*
X129183880Y-76713029D01*
X129183883Y-76713031D01*
X129338880Y-76792005D01*
X129347141Y-76796214D01*
X129521406Y-76852836D01*
X129702383Y-76881500D01*
X129702384Y-76881500D01*
X129885616Y-76881500D01*
X129885617Y-76881500D01*
X130066594Y-76852836D01*
X130240859Y-76796214D01*
X130404122Y-76713028D01*
X130552360Y-76605326D01*
X130681926Y-76475760D01*
X130789628Y-76327522D01*
X130872814Y-76164259D01*
X130929436Y-75989994D01*
X130958100Y-75809017D01*
X130958100Y-75320983D01*
X131169900Y-75320983D01*
X131169900Y-75809016D01*
X131198563Y-75989991D01*
X131198564Y-75989994D01*
X131255186Y-76164260D01*
X131338368Y-76327516D01*
X131338371Y-76327520D01*
X131338372Y-76327522D01*
X131446074Y-76475760D01*
X131446076Y-76475762D01*
X131446079Y-76475766D01*
X131575633Y-76605320D01*
X131575636Y-76605322D01*
X131575640Y-76605326D01*
X131723878Y-76713028D01*
X131723880Y-76713029D01*
X131723883Y-76713031D01*
X131878880Y-76792005D01*
X131887141Y-76796214D01*
X132061406Y-76852836D01*
X132242383Y-76881500D01*
X132242384Y-76881500D01*
X132425616Y-76881500D01*
X132425617Y-76881500D01*
X132606594Y-76852836D01*
X132780859Y-76796214D01*
X132944122Y-76713028D01*
X133092360Y-76605326D01*
X133221926Y-76475760D01*
X133329628Y-76327522D01*
X133412814Y-76164259D01*
X133469436Y-75989994D01*
X133498100Y-75809017D01*
X133498100Y-75320983D01*
X133709900Y-75320983D01*
X133709900Y-75809016D01*
X133738563Y-75989991D01*
X133738564Y-75989994D01*
X133795186Y-76164260D01*
X133878368Y-76327516D01*
X133878371Y-76327520D01*
X133878372Y-76327522D01*
X133986074Y-76475760D01*
X133986076Y-76475762D01*
X133986079Y-76475766D01*
X134115633Y-76605320D01*
X134115636Y-76605322D01*
X134115640Y-76605326D01*
X134263878Y-76713028D01*
X134263880Y-76713029D01*
X134263883Y-76713031D01*
X134418880Y-76792005D01*
X134427141Y-76796214D01*
X134601406Y-76852836D01*
X134782383Y-76881500D01*
X134782384Y-76881500D01*
X134965616Y-76881500D01*
X134965617Y-76881500D01*
X135146594Y-76852836D01*
X135320859Y-76796214D01*
X135484122Y-76713028D01*
X135632360Y-76605326D01*
X135761926Y-76475760D01*
X135869628Y-76327522D01*
X135952814Y-76164259D01*
X136009436Y-75989994D01*
X136038100Y-75809017D01*
X136038100Y-75320983D01*
X136036018Y-75307839D01*
X136350400Y-75307839D01*
X136350400Y-75465000D01*
X136914874Y-75465000D01*
X136906000Y-75498120D01*
X136906000Y-75631880D01*
X136914874Y-75665000D01*
X136350400Y-75665000D01*
X136350400Y-75822160D01*
X136391271Y-76027629D01*
X136391276Y-76027648D01*
X136471448Y-76221199D01*
X136587847Y-76395404D01*
X136735995Y-76543552D01*
X136910200Y-76659951D01*
X137103751Y-76740123D01*
X137103770Y-76740128D01*
X137309239Y-76780999D01*
X137309245Y-76781000D01*
X137314000Y-76781000D01*
X137314000Y-76064125D01*
X137347120Y-76073000D01*
X137480880Y-76073000D01*
X137514000Y-76064125D01*
X137514000Y-76781000D01*
X137518755Y-76781000D01*
X137518760Y-76780999D01*
X137724229Y-76740128D01*
X137724248Y-76740123D01*
X137917799Y-76659951D01*
X138092004Y-76543552D01*
X138240152Y-76395404D01*
X138356551Y-76221199D01*
X138436723Y-76027648D01*
X138436728Y-76027629D01*
X138477599Y-75822160D01*
X138477600Y-75822155D01*
X138477600Y-75665000D01*
X137913126Y-75665000D01*
X137922000Y-75631880D01*
X137922000Y-75498120D01*
X137913126Y-75465000D01*
X138477600Y-75465000D01*
X138477600Y-75320983D01*
X138789900Y-75320983D01*
X138789900Y-75809016D01*
X138818563Y-75989991D01*
X138818564Y-75989994D01*
X138875186Y-76164260D01*
X138958368Y-76327516D01*
X138958371Y-76327520D01*
X138958372Y-76327522D01*
X139066074Y-76475760D01*
X139066076Y-76475762D01*
X139066079Y-76475766D01*
X139195633Y-76605320D01*
X139195636Y-76605322D01*
X139195640Y-76605326D01*
X139343878Y-76713028D01*
X139343880Y-76713029D01*
X139343883Y-76713031D01*
X139498880Y-76792005D01*
X139507141Y-76796214D01*
X139681406Y-76852836D01*
X139862383Y-76881500D01*
X139862384Y-76881500D01*
X140045616Y-76881500D01*
X140045617Y-76881500D01*
X140226594Y-76852836D01*
X140400859Y-76796214D01*
X140564122Y-76713028D01*
X140712360Y-76605326D01*
X140841926Y-76475760D01*
X140949628Y-76327522D01*
X141032814Y-76164259D01*
X141089436Y-75989994D01*
X141118100Y-75809017D01*
X141118100Y-75320983D01*
X141329900Y-75320983D01*
X141329900Y-75809016D01*
X141358563Y-75989991D01*
X141358564Y-75989994D01*
X141415186Y-76164260D01*
X141498368Y-76327516D01*
X141498371Y-76327520D01*
X141498372Y-76327522D01*
X141606074Y-76475760D01*
X141606076Y-76475762D01*
X141606079Y-76475766D01*
X141735633Y-76605320D01*
X141735636Y-76605322D01*
X141735640Y-76605326D01*
X141883878Y-76713028D01*
X141883880Y-76713029D01*
X141883883Y-76713031D01*
X142038880Y-76792005D01*
X142047141Y-76796214D01*
X142221406Y-76852836D01*
X142402383Y-76881500D01*
X142402384Y-76881500D01*
X142585616Y-76881500D01*
X142585617Y-76881500D01*
X142766594Y-76852836D01*
X142940859Y-76796214D01*
X143104122Y-76713028D01*
X143252360Y-76605326D01*
X143381926Y-76475760D01*
X143489628Y-76327522D01*
X143572814Y-76164259D01*
X143629436Y-75989994D01*
X143658100Y-75809017D01*
X143658100Y-75320983D01*
X143869900Y-75320983D01*
X143869900Y-75809016D01*
X143898563Y-75989991D01*
X143898564Y-75989994D01*
X143955186Y-76164260D01*
X144038368Y-76327516D01*
X144038371Y-76327520D01*
X144038372Y-76327522D01*
X144146074Y-76475760D01*
X144146076Y-76475762D01*
X144146079Y-76475766D01*
X144275633Y-76605320D01*
X144275636Y-76605322D01*
X144275640Y-76605326D01*
X144423878Y-76713028D01*
X144423880Y-76713029D01*
X144423883Y-76713031D01*
X144578880Y-76792005D01*
X144587141Y-76796214D01*
X144761406Y-76852836D01*
X144942383Y-76881500D01*
X144942384Y-76881500D01*
X145125616Y-76881500D01*
X145125617Y-76881500D01*
X145306594Y-76852836D01*
X145480859Y-76796214D01*
X145644122Y-76713028D01*
X145792360Y-76605326D01*
X145921926Y-76475760D01*
X146029628Y-76327522D01*
X146112814Y-76164259D01*
X146169436Y-75989994D01*
X146198100Y-75809017D01*
X146198100Y-75320983D01*
X146409900Y-75320983D01*
X146409900Y-75809016D01*
X146438563Y-75989991D01*
X146438564Y-75989994D01*
X146495186Y-76164260D01*
X146578368Y-76327516D01*
X146578371Y-76327520D01*
X146578372Y-76327522D01*
X146686074Y-76475760D01*
X146686076Y-76475762D01*
X146686079Y-76475766D01*
X146815633Y-76605320D01*
X146815636Y-76605322D01*
X146815640Y-76605326D01*
X146963878Y-76713028D01*
X146963880Y-76713029D01*
X146963883Y-76713031D01*
X147118880Y-76792005D01*
X147127141Y-76796214D01*
X147301406Y-76852836D01*
X147482383Y-76881500D01*
X147482384Y-76881500D01*
X147665616Y-76881500D01*
X147665617Y-76881500D01*
X147846594Y-76852836D01*
X148020859Y-76796214D01*
X148184122Y-76713028D01*
X148332360Y-76605326D01*
X148461926Y-76475760D01*
X148569628Y-76327522D01*
X148652814Y-76164259D01*
X148709436Y-75989994D01*
X148738100Y-75809017D01*
X148738100Y-75320983D01*
X148949900Y-75320983D01*
X148949900Y-75809016D01*
X148978563Y-75989991D01*
X148978564Y-75989994D01*
X149035186Y-76164260D01*
X149118368Y-76327516D01*
X149118371Y-76327520D01*
X149118372Y-76327522D01*
X149226074Y-76475760D01*
X149226076Y-76475762D01*
X149226079Y-76475766D01*
X149355633Y-76605320D01*
X149355636Y-76605322D01*
X149355640Y-76605326D01*
X149503878Y-76713028D01*
X149503880Y-76713029D01*
X149503883Y-76713031D01*
X149658880Y-76792005D01*
X149667141Y-76796214D01*
X149841406Y-76852836D01*
X150022383Y-76881500D01*
X150022384Y-76881500D01*
X150205616Y-76881500D01*
X150205617Y-76881500D01*
X150386594Y-76852836D01*
X150560859Y-76796214D01*
X150724122Y-76713028D01*
X150872360Y-76605326D01*
X151001926Y-76475760D01*
X151109628Y-76327522D01*
X151192814Y-76164259D01*
X151249436Y-75989994D01*
X151278100Y-75809017D01*
X151278100Y-75320983D01*
X151489900Y-75320983D01*
X151489900Y-75809016D01*
X151518563Y-75989991D01*
X151518564Y-75989994D01*
X151575186Y-76164260D01*
X151658368Y-76327516D01*
X151658371Y-76327520D01*
X151658372Y-76327522D01*
X151766074Y-76475760D01*
X151766076Y-76475762D01*
X151766079Y-76475766D01*
X151895633Y-76605320D01*
X151895636Y-76605322D01*
X151895640Y-76605326D01*
X152043878Y-76713028D01*
X152043880Y-76713029D01*
X152043883Y-76713031D01*
X152198880Y-76792005D01*
X152207141Y-76796214D01*
X152381406Y-76852836D01*
X152562383Y-76881500D01*
X152562384Y-76881500D01*
X152745616Y-76881500D01*
X152745617Y-76881500D01*
X152926594Y-76852836D01*
X153100859Y-76796214D01*
X153264122Y-76713028D01*
X153412360Y-76605326D01*
X153541926Y-76475760D01*
X153649628Y-76327522D01*
X153732814Y-76164259D01*
X153789436Y-75989994D01*
X153818100Y-75809017D01*
X153818100Y-75320983D01*
X153789436Y-75140006D01*
X153732814Y-74965741D01*
X153732813Y-74965739D01*
X153649631Y-74802483D01*
X153649629Y-74802480D01*
X153649628Y-74802478D01*
X153541926Y-74654240D01*
X153541922Y-74654236D01*
X153541920Y-74654233D01*
X153412366Y-74524679D01*
X153412362Y-74524676D01*
X153412360Y-74524674D01*
X153264122Y-74416972D01*
X153264120Y-74416971D01*
X153264116Y-74416968D01*
X153100860Y-74333786D01*
X152926594Y-74277164D01*
X152926591Y-74277163D01*
X152787569Y-74255144D01*
X152745617Y-74248500D01*
X152562383Y-74248500D01*
X152528325Y-74253894D01*
X152381408Y-74277163D01*
X152381405Y-74277164D01*
X152207139Y-74333786D01*
X152043883Y-74416968D01*
X151895633Y-74524679D01*
X151766079Y-74654233D01*
X151658368Y-74802483D01*
X151575186Y-74965739D01*
X151518564Y-75140005D01*
X151518563Y-75140008D01*
X151489900Y-75320983D01*
X151278100Y-75320983D01*
X151249436Y-75140006D01*
X151192814Y-74965741D01*
X151192813Y-74965739D01*
X151109631Y-74802483D01*
X151109629Y-74802480D01*
X151109628Y-74802478D01*
X151001926Y-74654240D01*
X151001922Y-74654236D01*
X151001920Y-74654233D01*
X150872366Y-74524679D01*
X150872362Y-74524676D01*
X150872360Y-74524674D01*
X150724122Y-74416972D01*
X150724120Y-74416971D01*
X150724116Y-74416968D01*
X150560860Y-74333786D01*
X150386594Y-74277164D01*
X150386591Y-74277163D01*
X150247569Y-74255144D01*
X150205617Y-74248500D01*
X150022383Y-74248500D01*
X149988325Y-74253894D01*
X149841408Y-74277163D01*
X149841405Y-74277164D01*
X149667139Y-74333786D01*
X149503883Y-74416968D01*
X149355633Y-74524679D01*
X149226079Y-74654233D01*
X149118368Y-74802483D01*
X149035186Y-74965739D01*
X148978564Y-75140005D01*
X148978563Y-75140008D01*
X148949900Y-75320983D01*
X148738100Y-75320983D01*
X148709436Y-75140006D01*
X148652814Y-74965741D01*
X148652813Y-74965739D01*
X148569631Y-74802483D01*
X148569629Y-74802480D01*
X148569628Y-74802478D01*
X148461926Y-74654240D01*
X148461922Y-74654236D01*
X148461920Y-74654233D01*
X148332366Y-74524679D01*
X148332362Y-74524676D01*
X148332360Y-74524674D01*
X148184122Y-74416972D01*
X148184120Y-74416971D01*
X148184116Y-74416968D01*
X148020860Y-74333786D01*
X147846594Y-74277164D01*
X147846591Y-74277163D01*
X147707569Y-74255144D01*
X147665617Y-74248500D01*
X147482383Y-74248500D01*
X147448325Y-74253894D01*
X147301408Y-74277163D01*
X147301405Y-74277164D01*
X147127139Y-74333786D01*
X146963883Y-74416968D01*
X146815633Y-74524679D01*
X146686079Y-74654233D01*
X146578368Y-74802483D01*
X146495186Y-74965739D01*
X146438564Y-75140005D01*
X146438563Y-75140008D01*
X146409900Y-75320983D01*
X146198100Y-75320983D01*
X146169436Y-75140006D01*
X146112814Y-74965741D01*
X146112813Y-74965739D01*
X146029631Y-74802483D01*
X146029629Y-74802480D01*
X146029628Y-74802478D01*
X145921926Y-74654240D01*
X145921922Y-74654236D01*
X145921920Y-74654233D01*
X145792366Y-74524679D01*
X145792362Y-74524676D01*
X145792360Y-74524674D01*
X145644122Y-74416972D01*
X145644120Y-74416971D01*
X145644116Y-74416968D01*
X145480860Y-74333786D01*
X145306594Y-74277164D01*
X145306591Y-74277163D01*
X145167569Y-74255144D01*
X145125617Y-74248500D01*
X144942383Y-74248500D01*
X144908325Y-74253894D01*
X144761408Y-74277163D01*
X144761405Y-74277164D01*
X144587139Y-74333786D01*
X144423883Y-74416968D01*
X144275633Y-74524679D01*
X144146079Y-74654233D01*
X144038368Y-74802483D01*
X143955186Y-74965739D01*
X143898564Y-75140005D01*
X143898563Y-75140008D01*
X143869900Y-75320983D01*
X143658100Y-75320983D01*
X143629436Y-75140006D01*
X143572814Y-74965741D01*
X143572813Y-74965739D01*
X143489631Y-74802483D01*
X143489629Y-74802480D01*
X143489628Y-74802478D01*
X143381926Y-74654240D01*
X143381922Y-74654236D01*
X143381920Y-74654233D01*
X143252366Y-74524679D01*
X143252362Y-74524676D01*
X143252360Y-74524674D01*
X143104122Y-74416972D01*
X143104120Y-74416971D01*
X143104116Y-74416968D01*
X142940860Y-74333786D01*
X142766594Y-74277164D01*
X142766591Y-74277163D01*
X142627569Y-74255144D01*
X142585617Y-74248500D01*
X142402383Y-74248500D01*
X142368325Y-74253894D01*
X142221408Y-74277163D01*
X142221405Y-74277164D01*
X142047139Y-74333786D01*
X141883883Y-74416968D01*
X141735633Y-74524679D01*
X141606079Y-74654233D01*
X141498368Y-74802483D01*
X141415186Y-74965739D01*
X141358564Y-75140005D01*
X141358563Y-75140008D01*
X141329900Y-75320983D01*
X141118100Y-75320983D01*
X141089436Y-75140006D01*
X141032814Y-74965741D01*
X141032813Y-74965739D01*
X140949631Y-74802483D01*
X140949629Y-74802480D01*
X140949628Y-74802478D01*
X140841926Y-74654240D01*
X140841922Y-74654236D01*
X140841920Y-74654233D01*
X140712366Y-74524679D01*
X140712362Y-74524676D01*
X140712360Y-74524674D01*
X140564122Y-74416972D01*
X140564120Y-74416971D01*
X140564116Y-74416968D01*
X140400860Y-74333786D01*
X140226594Y-74277164D01*
X140226591Y-74277163D01*
X140087569Y-74255144D01*
X140045617Y-74248500D01*
X139862383Y-74248500D01*
X139828325Y-74253894D01*
X139681408Y-74277163D01*
X139681405Y-74277164D01*
X139507139Y-74333786D01*
X139343883Y-74416968D01*
X139195633Y-74524679D01*
X139066079Y-74654233D01*
X138958368Y-74802483D01*
X138875186Y-74965739D01*
X138818564Y-75140005D01*
X138818563Y-75140008D01*
X138789900Y-75320983D01*
X138477600Y-75320983D01*
X138477600Y-75307845D01*
X138477599Y-75307839D01*
X138436728Y-75102370D01*
X138436723Y-75102351D01*
X138356551Y-74908800D01*
X138240152Y-74734595D01*
X138092004Y-74586447D01*
X137917799Y-74470048D01*
X137724248Y-74389876D01*
X137724229Y-74389871D01*
X137518760Y-74349000D01*
X137514000Y-74349000D01*
X137514000Y-75065874D01*
X137480880Y-75057000D01*
X137347120Y-75057000D01*
X137314000Y-75065874D01*
X137314000Y-74349000D01*
X137309239Y-74349000D01*
X137103770Y-74389871D01*
X137103751Y-74389876D01*
X136910200Y-74470048D01*
X136735995Y-74586447D01*
X136587847Y-74734595D01*
X136471448Y-74908800D01*
X136391276Y-75102351D01*
X136391271Y-75102370D01*
X136350400Y-75307839D01*
X136036018Y-75307839D01*
X136009436Y-75140006D01*
X135952814Y-74965741D01*
X135952813Y-74965739D01*
X135869631Y-74802483D01*
X135869629Y-74802480D01*
X135869628Y-74802478D01*
X135761926Y-74654240D01*
X135761922Y-74654236D01*
X135761920Y-74654233D01*
X135632366Y-74524679D01*
X135632362Y-74524676D01*
X135632360Y-74524674D01*
X135484122Y-74416972D01*
X135484120Y-74416971D01*
X135484116Y-74416968D01*
X135320860Y-74333786D01*
X135146594Y-74277164D01*
X135146591Y-74277163D01*
X135007569Y-74255144D01*
X134965617Y-74248500D01*
X134782383Y-74248500D01*
X134748325Y-74253894D01*
X134601408Y-74277163D01*
X134601405Y-74277164D01*
X134427139Y-74333786D01*
X134263883Y-74416968D01*
X134115633Y-74524679D01*
X133986079Y-74654233D01*
X133878368Y-74802483D01*
X133795186Y-74965739D01*
X133738564Y-75140005D01*
X133738563Y-75140008D01*
X133709900Y-75320983D01*
X133498100Y-75320983D01*
X133469436Y-75140006D01*
X133412814Y-74965741D01*
X133412813Y-74965739D01*
X133329631Y-74802483D01*
X133329629Y-74802480D01*
X133329628Y-74802478D01*
X133221926Y-74654240D01*
X133221922Y-74654236D01*
X133221920Y-74654233D01*
X133092366Y-74524679D01*
X133092362Y-74524676D01*
X133092360Y-74524674D01*
X132944122Y-74416972D01*
X132944120Y-74416971D01*
X132944116Y-74416968D01*
X132780860Y-74333786D01*
X132606594Y-74277164D01*
X132606591Y-74277163D01*
X132467569Y-74255144D01*
X132425617Y-74248500D01*
X132242383Y-74248500D01*
X132208325Y-74253894D01*
X132061408Y-74277163D01*
X132061405Y-74277164D01*
X131887139Y-74333786D01*
X131723883Y-74416968D01*
X131575633Y-74524679D01*
X131446079Y-74654233D01*
X131338368Y-74802483D01*
X131255186Y-74965739D01*
X131198564Y-75140005D01*
X131198563Y-75140008D01*
X131169900Y-75320983D01*
X130958100Y-75320983D01*
X130929436Y-75140006D01*
X130872814Y-74965741D01*
X130872813Y-74965739D01*
X130789631Y-74802483D01*
X130789629Y-74802480D01*
X130789628Y-74802478D01*
X130681926Y-74654240D01*
X130681922Y-74654236D01*
X130681920Y-74654233D01*
X130552366Y-74524679D01*
X130552362Y-74524676D01*
X130552360Y-74524674D01*
X130404122Y-74416972D01*
X130404120Y-74416971D01*
X130404116Y-74416968D01*
X130240860Y-74333786D01*
X130066594Y-74277164D01*
X130066591Y-74277163D01*
X129927569Y-74255144D01*
X129885617Y-74248500D01*
X129702383Y-74248500D01*
X129668325Y-74253894D01*
X129521408Y-74277163D01*
X129521405Y-74277164D01*
X129347139Y-74333786D01*
X129183883Y-74416968D01*
X129035633Y-74524679D01*
X128906079Y-74654233D01*
X128798368Y-74802483D01*
X128715186Y-74965739D01*
X128658564Y-75140005D01*
X128658563Y-75140007D01*
X128643776Y-75233368D01*
X128624180Y-75265344D01*
X128587713Y-75274099D01*
X128555737Y-75254503D01*
X128546800Y-75232102D01*
X128530590Y-75108975D01*
X128530588Y-75108970D01*
X128530588Y-75108964D01*
X128451455Y-74813638D01*
X128451453Y-74813632D01*
X128421767Y-74741962D01*
X128334445Y-74531148D01*
X128181564Y-74266352D01*
X128181561Y-74266348D01*
X128181555Y-74266339D01*
X127995433Y-74023781D01*
X127995423Y-74023769D01*
X127779230Y-73807576D01*
X127779218Y-73807566D01*
X127536660Y-73621444D01*
X127536645Y-73621434D01*
X127528852Y-73616935D01*
X127506022Y-73587182D01*
X127510917Y-73550000D01*
X127540670Y-73527170D01*
X127553352Y-73525500D01*
X175286390Y-73525500D01*
X175321038Y-73539852D01*
X176523148Y-74741962D01*
X176537500Y-74776610D01*
X176537500Y-84734456D01*
X176523148Y-84769104D01*
X176488500Y-84783456D01*
X176453852Y-84769104D01*
X174209263Y-82524515D01*
X174112239Y-82468497D01*
X174112235Y-82468496D01*
X174004021Y-82439500D01*
X174004018Y-82439500D01*
X165419544Y-82439500D01*
X165384896Y-82425148D01*
X164495687Y-81535939D01*
X166097500Y-81535939D01*
X166097500Y-81694060D01*
X166138422Y-81846782D01*
X166138423Y-81846786D01*
X166217475Y-81983709D01*
X166217478Y-81983713D01*
X166217480Y-81983716D01*
X166329284Y-82095520D01*
X166329287Y-82095521D01*
X166329290Y-82095524D01*
X166466213Y-82174576D01*
X166466215Y-82174576D01*
X166466216Y-82174577D01*
X166586665Y-82206851D01*
X166618939Y-82215499D01*
X166618940Y-82215500D01*
X166618943Y-82215500D01*
X166777060Y-82215500D01*
X166777060Y-82215499D01*
X166929784Y-82174577D01*
X167066716Y-82095520D01*
X167178520Y-81983716D01*
X167257577Y-81846784D01*
X167298499Y-81694060D01*
X167298500Y-81694060D01*
X167298500Y-81535940D01*
X167298499Y-81535939D01*
X167257577Y-81383217D01*
X167257576Y-81383213D01*
X167178524Y-81246290D01*
X167178521Y-81246287D01*
X167178520Y-81246284D01*
X167066716Y-81134480D01*
X167066713Y-81134478D01*
X167066709Y-81134475D01*
X166929786Y-81055423D01*
X166929782Y-81055422D01*
X166777060Y-81014500D01*
X166777057Y-81014500D01*
X166618943Y-81014500D01*
X166618940Y-81014500D01*
X166466217Y-81055422D01*
X166466213Y-81055423D01*
X166329290Y-81134475D01*
X166329281Y-81134482D01*
X166217482Y-81246281D01*
X166217475Y-81246290D01*
X166138423Y-81383213D01*
X166138422Y-81383217D01*
X166097500Y-81535939D01*
X164495687Y-81535939D01*
X161965251Y-79005503D01*
X161950899Y-78970855D01*
X161965251Y-78936207D01*
X161999899Y-78921855D01*
X162012925Y-78924448D01*
X162013114Y-78923746D01*
X162168939Y-78965499D01*
X162168940Y-78965500D01*
X162168943Y-78965500D01*
X162327060Y-78965500D01*
X162327060Y-78965499D01*
X162479784Y-78924577D01*
X162480008Y-78924448D01*
X162616709Y-78845524D01*
X162616708Y-78845524D01*
X162616716Y-78845520D01*
X162728520Y-78733716D01*
X162784969Y-78635943D01*
X162807576Y-78596786D01*
X162807576Y-78596785D01*
X162807577Y-78596784D01*
X162819749Y-78551354D01*
X162823880Y-78535939D01*
X174647500Y-78535939D01*
X174647500Y-78694060D01*
X174688422Y-78846782D01*
X174688423Y-78846786D01*
X174767475Y-78983709D01*
X174767478Y-78983713D01*
X174767480Y-78983716D01*
X174879284Y-79095520D01*
X174879287Y-79095521D01*
X174879290Y-79095524D01*
X175016213Y-79174576D01*
X175016215Y-79174576D01*
X175016216Y-79174577D01*
X175136665Y-79206851D01*
X175168939Y-79215499D01*
X175168940Y-79215500D01*
X175168943Y-79215500D01*
X175327060Y-79215500D01*
X175327060Y-79215499D01*
X175479784Y-79174577D01*
X175616716Y-79095520D01*
X175728520Y-78983716D01*
X175807577Y-78846784D01*
X175848499Y-78694060D01*
X175848500Y-78694060D01*
X175848500Y-78535940D01*
X175848499Y-78535939D01*
X175807916Y-78384482D01*
X175807577Y-78383216D01*
X175807576Y-78383215D01*
X175807576Y-78383213D01*
X175728524Y-78246290D01*
X175728521Y-78246287D01*
X175728520Y-78246284D01*
X175616716Y-78134480D01*
X175616713Y-78134478D01*
X175616709Y-78134475D01*
X175479786Y-78055423D01*
X175479782Y-78055422D01*
X175327060Y-78014500D01*
X175327057Y-78014500D01*
X175168943Y-78014500D01*
X175168940Y-78014500D01*
X175016217Y-78055422D01*
X175016213Y-78055423D01*
X174879290Y-78134475D01*
X174879281Y-78134482D01*
X174767482Y-78246281D01*
X174767475Y-78246290D01*
X174688423Y-78383213D01*
X174688422Y-78383217D01*
X174647500Y-78535939D01*
X162823880Y-78535939D01*
X162828139Y-78520048D01*
X162828139Y-78520047D01*
X162848499Y-78444060D01*
X162848500Y-78444060D01*
X162848500Y-78285940D01*
X162848499Y-78285939D01*
X162807916Y-78134482D01*
X162807577Y-78133216D01*
X162807576Y-78133215D01*
X162807576Y-78133213D01*
X162728524Y-77996290D01*
X162728521Y-77996287D01*
X162728520Y-77996284D01*
X162616716Y-77884480D01*
X162616713Y-77884478D01*
X162616709Y-77884475D01*
X162479786Y-77805423D01*
X162479782Y-77805422D01*
X162327060Y-77764500D01*
X162327057Y-77764500D01*
X162168943Y-77764500D01*
X162168940Y-77764500D01*
X162016217Y-77805422D01*
X162016213Y-77805423D01*
X161879290Y-77884475D01*
X161879281Y-77884482D01*
X161767482Y-77996281D01*
X161767475Y-77996290D01*
X161688423Y-78133213D01*
X161688422Y-78133217D01*
X161647500Y-78285939D01*
X161647500Y-78444060D01*
X161689254Y-78599886D01*
X161687421Y-78600377D01*
X161687403Y-78631878D01*
X161660869Y-78658381D01*
X161623366Y-78658359D01*
X161607496Y-78647748D01*
X159786401Y-76826653D01*
X159772049Y-76792005D01*
X159786401Y-76757357D01*
X159798797Y-76748349D01*
X159868122Y-76713028D01*
X160016360Y-76605326D01*
X160145926Y-76475760D01*
X160253628Y-76327522D01*
X160336814Y-76164259D01*
X160393436Y-75989994D01*
X160422100Y-75809017D01*
X160422100Y-75320983D01*
X160633900Y-75320983D01*
X160633900Y-75809016D01*
X160662563Y-75989991D01*
X160662564Y-75989994D01*
X160719186Y-76164260D01*
X160802368Y-76327516D01*
X160802371Y-76327520D01*
X160802372Y-76327522D01*
X160910074Y-76475760D01*
X160910076Y-76475762D01*
X160910079Y-76475766D01*
X161039633Y-76605320D01*
X161039636Y-76605322D01*
X161039640Y-76605326D01*
X161187878Y-76713028D01*
X161187880Y-76713029D01*
X161187883Y-76713031D01*
X161342880Y-76792005D01*
X161351141Y-76796214D01*
X161525406Y-76852836D01*
X161706383Y-76881500D01*
X161706384Y-76881500D01*
X161889616Y-76881500D01*
X161889617Y-76881500D01*
X162070594Y-76852836D01*
X162244859Y-76796214D01*
X162408122Y-76713028D01*
X162556360Y-76605326D01*
X162685926Y-76475760D01*
X162793628Y-76327522D01*
X162876814Y-76164259D01*
X162933436Y-75989994D01*
X162962100Y-75809017D01*
X162962100Y-75320983D01*
X163173900Y-75320983D01*
X163173900Y-75809016D01*
X163202563Y-75989991D01*
X163202564Y-75989994D01*
X163259186Y-76164260D01*
X163342368Y-76327516D01*
X163342371Y-76327520D01*
X163342372Y-76327522D01*
X163450074Y-76475760D01*
X163450076Y-76475762D01*
X163450079Y-76475766D01*
X163579633Y-76605320D01*
X163579636Y-76605322D01*
X163579640Y-76605326D01*
X163727878Y-76713028D01*
X163727880Y-76713029D01*
X163727883Y-76713031D01*
X163882880Y-76792005D01*
X163891141Y-76796214D01*
X164065406Y-76852836D01*
X164246383Y-76881500D01*
X164246384Y-76881500D01*
X164429616Y-76881500D01*
X164429617Y-76881500D01*
X164610594Y-76852836D01*
X164784859Y-76796214D01*
X164948122Y-76713028D01*
X165096360Y-76605326D01*
X165225926Y-76475760D01*
X165333628Y-76327522D01*
X165416814Y-76164259D01*
X165473436Y-75989994D01*
X165502100Y-75809017D01*
X165502100Y-75320983D01*
X165713900Y-75320983D01*
X165713900Y-75809016D01*
X165742563Y-75989991D01*
X165742564Y-75989994D01*
X165799186Y-76164260D01*
X165882368Y-76327516D01*
X165882371Y-76327520D01*
X165882372Y-76327522D01*
X165990074Y-76475760D01*
X165990076Y-76475762D01*
X165990079Y-76475766D01*
X166119633Y-76605320D01*
X166119636Y-76605322D01*
X166119640Y-76605326D01*
X166267878Y-76713028D01*
X166267880Y-76713029D01*
X166267883Y-76713031D01*
X166422880Y-76792005D01*
X166431141Y-76796214D01*
X166605406Y-76852836D01*
X166786383Y-76881500D01*
X166786384Y-76881500D01*
X166969616Y-76881500D01*
X166969617Y-76881500D01*
X167150594Y-76852836D01*
X167324859Y-76796214D01*
X167488122Y-76713028D01*
X167636360Y-76605326D01*
X167765926Y-76475760D01*
X167873628Y-76327522D01*
X167956814Y-76164259D01*
X168013436Y-75989994D01*
X168042100Y-75809017D01*
X168042100Y-75320983D01*
X168253900Y-75320983D01*
X168253900Y-75809016D01*
X168282563Y-75989991D01*
X168282564Y-75989994D01*
X168339186Y-76164260D01*
X168422368Y-76327516D01*
X168422371Y-76327520D01*
X168422372Y-76327522D01*
X168530074Y-76475760D01*
X168530076Y-76475762D01*
X168530079Y-76475766D01*
X168659633Y-76605320D01*
X168659636Y-76605322D01*
X168659640Y-76605326D01*
X168807878Y-76713028D01*
X168807880Y-76713029D01*
X168807883Y-76713031D01*
X168962880Y-76792005D01*
X168971141Y-76796214D01*
X169145406Y-76852836D01*
X169326383Y-76881500D01*
X169326384Y-76881500D01*
X169509616Y-76881500D01*
X169509617Y-76881500D01*
X169690594Y-76852836D01*
X169864859Y-76796214D01*
X170028122Y-76713028D01*
X170176360Y-76605326D01*
X170305926Y-76475760D01*
X170413628Y-76327522D01*
X170496814Y-76164259D01*
X170553436Y-75989994D01*
X170582100Y-75809017D01*
X170582100Y-75320983D01*
X170793900Y-75320983D01*
X170793900Y-75809016D01*
X170822563Y-75989991D01*
X170822564Y-75989994D01*
X170879186Y-76164260D01*
X170962368Y-76327516D01*
X170962371Y-76327520D01*
X170962372Y-76327522D01*
X171070074Y-76475760D01*
X171070076Y-76475762D01*
X171070079Y-76475766D01*
X171199633Y-76605320D01*
X171199636Y-76605322D01*
X171199640Y-76605326D01*
X171347878Y-76713028D01*
X171347880Y-76713029D01*
X171347883Y-76713031D01*
X171502880Y-76792005D01*
X171511141Y-76796214D01*
X171685406Y-76852836D01*
X171866383Y-76881500D01*
X171866384Y-76881500D01*
X172049616Y-76881500D01*
X172049617Y-76881500D01*
X172230594Y-76852836D01*
X172404859Y-76796214D01*
X172568122Y-76713028D01*
X172716360Y-76605326D01*
X172845926Y-76475760D01*
X172953628Y-76327522D01*
X173036814Y-76164259D01*
X173093436Y-75989994D01*
X173122100Y-75809017D01*
X173122100Y-75320983D01*
X173333900Y-75320983D01*
X173333900Y-75809016D01*
X173362563Y-75989991D01*
X173362564Y-75989994D01*
X173419186Y-76164260D01*
X173502368Y-76327516D01*
X173502371Y-76327520D01*
X173502372Y-76327522D01*
X173610074Y-76475760D01*
X173610076Y-76475762D01*
X173610079Y-76475766D01*
X173739633Y-76605320D01*
X173739636Y-76605322D01*
X173739640Y-76605326D01*
X173887878Y-76713028D01*
X173887880Y-76713029D01*
X173887883Y-76713031D01*
X174042880Y-76792005D01*
X174051141Y-76796214D01*
X174225406Y-76852836D01*
X174406383Y-76881500D01*
X174406384Y-76881500D01*
X174589616Y-76881500D01*
X174589617Y-76881500D01*
X174770594Y-76852836D01*
X174944859Y-76796214D01*
X175108122Y-76713028D01*
X175256360Y-76605326D01*
X175385926Y-76475760D01*
X175493628Y-76327522D01*
X175576814Y-76164259D01*
X175633436Y-75989994D01*
X175662100Y-75809017D01*
X175662100Y-75320983D01*
X175633436Y-75140006D01*
X175576814Y-74965741D01*
X175576813Y-74965739D01*
X175493631Y-74802483D01*
X175493629Y-74802480D01*
X175493628Y-74802478D01*
X175385926Y-74654240D01*
X175385922Y-74654236D01*
X175385920Y-74654233D01*
X175256366Y-74524679D01*
X175256362Y-74524676D01*
X175256360Y-74524674D01*
X175108122Y-74416972D01*
X175108120Y-74416971D01*
X175108116Y-74416968D01*
X174944860Y-74333786D01*
X174770594Y-74277164D01*
X174770591Y-74277163D01*
X174631569Y-74255144D01*
X174589617Y-74248500D01*
X174406383Y-74248500D01*
X174372325Y-74253894D01*
X174225408Y-74277163D01*
X174225405Y-74277164D01*
X174051139Y-74333786D01*
X173887883Y-74416968D01*
X173739633Y-74524679D01*
X173610079Y-74654233D01*
X173502368Y-74802483D01*
X173419186Y-74965739D01*
X173362564Y-75140005D01*
X173362563Y-75140008D01*
X173333900Y-75320983D01*
X173122100Y-75320983D01*
X173093436Y-75140006D01*
X173036814Y-74965741D01*
X173036813Y-74965739D01*
X172953631Y-74802483D01*
X172953629Y-74802480D01*
X172953628Y-74802478D01*
X172845926Y-74654240D01*
X172845922Y-74654236D01*
X172845920Y-74654233D01*
X172716366Y-74524679D01*
X172716362Y-74524676D01*
X172716360Y-74524674D01*
X172568122Y-74416972D01*
X172568120Y-74416971D01*
X172568116Y-74416968D01*
X172404860Y-74333786D01*
X172230594Y-74277164D01*
X172230591Y-74277163D01*
X172091569Y-74255144D01*
X172049617Y-74248500D01*
X171866383Y-74248500D01*
X171832325Y-74253894D01*
X171685408Y-74277163D01*
X171685405Y-74277164D01*
X171511139Y-74333786D01*
X171347883Y-74416968D01*
X171199633Y-74524679D01*
X171070079Y-74654233D01*
X170962368Y-74802483D01*
X170879186Y-74965739D01*
X170822564Y-75140005D01*
X170822563Y-75140008D01*
X170793900Y-75320983D01*
X170582100Y-75320983D01*
X170553436Y-75140006D01*
X170496814Y-74965741D01*
X170496813Y-74965739D01*
X170413631Y-74802483D01*
X170413629Y-74802480D01*
X170413628Y-74802478D01*
X170305926Y-74654240D01*
X170305922Y-74654236D01*
X170305920Y-74654233D01*
X170176366Y-74524679D01*
X170176362Y-74524676D01*
X170176360Y-74524674D01*
X170028122Y-74416972D01*
X170028120Y-74416971D01*
X170028116Y-74416968D01*
X169864860Y-74333786D01*
X169690594Y-74277164D01*
X169690591Y-74277163D01*
X169551569Y-74255144D01*
X169509617Y-74248500D01*
X169326383Y-74248500D01*
X169292325Y-74253894D01*
X169145408Y-74277163D01*
X169145405Y-74277164D01*
X168971139Y-74333786D01*
X168807883Y-74416968D01*
X168659633Y-74524679D01*
X168530079Y-74654233D01*
X168422368Y-74802483D01*
X168339186Y-74965739D01*
X168282564Y-75140005D01*
X168282563Y-75140008D01*
X168253900Y-75320983D01*
X168042100Y-75320983D01*
X168013436Y-75140006D01*
X167956814Y-74965741D01*
X167956813Y-74965739D01*
X167873631Y-74802483D01*
X167873629Y-74802480D01*
X167873628Y-74802478D01*
X167765926Y-74654240D01*
X167765922Y-74654236D01*
X167765920Y-74654233D01*
X167636366Y-74524679D01*
X167636362Y-74524676D01*
X167636360Y-74524674D01*
X167488122Y-74416972D01*
X167488120Y-74416971D01*
X167488116Y-74416968D01*
X167324860Y-74333786D01*
X167150594Y-74277164D01*
X167150591Y-74277163D01*
X167011569Y-74255144D01*
X166969617Y-74248500D01*
X166786383Y-74248500D01*
X166752325Y-74253894D01*
X166605408Y-74277163D01*
X166605405Y-74277164D01*
X166431139Y-74333786D01*
X166267883Y-74416968D01*
X166119633Y-74524679D01*
X165990079Y-74654233D01*
X165882368Y-74802483D01*
X165799186Y-74965739D01*
X165742564Y-75140005D01*
X165742563Y-75140008D01*
X165713900Y-75320983D01*
X165502100Y-75320983D01*
X165473436Y-75140006D01*
X165416814Y-74965741D01*
X165416813Y-74965739D01*
X165333631Y-74802483D01*
X165333629Y-74802480D01*
X165333628Y-74802478D01*
X165225926Y-74654240D01*
X165225922Y-74654236D01*
X165225920Y-74654233D01*
X165096366Y-74524679D01*
X165096362Y-74524676D01*
X165096360Y-74524674D01*
X164948122Y-74416972D01*
X164948120Y-74416971D01*
X164948116Y-74416968D01*
X164784860Y-74333786D01*
X164610594Y-74277164D01*
X164610591Y-74277163D01*
X164471569Y-74255144D01*
X164429617Y-74248500D01*
X164246383Y-74248500D01*
X164212325Y-74253894D01*
X164065408Y-74277163D01*
X164065405Y-74277164D01*
X163891139Y-74333786D01*
X163727883Y-74416968D01*
X163579633Y-74524679D01*
X163450079Y-74654233D01*
X163342368Y-74802483D01*
X163259186Y-74965739D01*
X163202564Y-75140005D01*
X163202563Y-75140008D01*
X163173900Y-75320983D01*
X162962100Y-75320983D01*
X162933436Y-75140006D01*
X162876814Y-74965741D01*
X162876813Y-74965739D01*
X162793631Y-74802483D01*
X162793629Y-74802480D01*
X162793628Y-74802478D01*
X162685926Y-74654240D01*
X162685922Y-74654236D01*
X162685920Y-74654233D01*
X162556366Y-74524679D01*
X162556362Y-74524676D01*
X162556360Y-74524674D01*
X162408122Y-74416972D01*
X162408120Y-74416971D01*
X162408116Y-74416968D01*
X162244860Y-74333786D01*
X162070594Y-74277164D01*
X162070591Y-74277163D01*
X161931569Y-74255144D01*
X161889617Y-74248500D01*
X161706383Y-74248500D01*
X161672325Y-74253894D01*
X161525408Y-74277163D01*
X161525405Y-74277164D01*
X161351139Y-74333786D01*
X161187883Y-74416968D01*
X161039633Y-74524679D01*
X160910079Y-74654233D01*
X160802368Y-74802483D01*
X160719186Y-74965739D01*
X160662564Y-75140005D01*
X160662563Y-75140008D01*
X160633900Y-75320983D01*
X160422100Y-75320983D01*
X160393436Y-75140006D01*
X160336814Y-74965741D01*
X160336813Y-74965739D01*
X160253631Y-74802483D01*
X160253629Y-74802480D01*
X160253628Y-74802478D01*
X160145926Y-74654240D01*
X160145922Y-74654236D01*
X160145920Y-74654233D01*
X160016366Y-74524679D01*
X160016362Y-74524676D01*
X160016360Y-74524674D01*
X159868122Y-74416972D01*
X159868120Y-74416971D01*
X159868116Y-74416968D01*
X159704860Y-74333786D01*
X159530594Y-74277164D01*
X159530591Y-74277163D01*
X159391569Y-74255144D01*
X159349617Y-74248500D01*
X159166383Y-74248500D01*
X159132325Y-74253894D01*
X158985408Y-74277163D01*
X158985405Y-74277164D01*
X158811139Y-74333786D01*
X158647883Y-74416968D01*
X158499633Y-74524679D01*
X158370079Y-74654233D01*
X158262368Y-74802483D01*
X158179186Y-74965739D01*
X158122564Y-75140005D01*
X158122563Y-75140008D01*
X158093900Y-75320983D01*
X158093900Y-75809018D01*
X158094051Y-75810938D01*
X158093319Y-75810995D01*
X158085101Y-75845221D01*
X158053123Y-75864814D01*
X158016657Y-75856057D01*
X158010813Y-75851065D01*
X157896452Y-75736704D01*
X157882100Y-75702056D01*
X157882100Y-75320983D01*
X157873288Y-75265344D01*
X157853436Y-75140006D01*
X157796814Y-74965741D01*
X157796813Y-74965739D01*
X157713631Y-74802483D01*
X157713629Y-74802480D01*
X157713628Y-74802478D01*
X157605926Y-74654240D01*
X157605922Y-74654236D01*
X157605920Y-74654233D01*
X157476366Y-74524679D01*
X157476362Y-74524676D01*
X157476360Y-74524674D01*
X157328122Y-74416972D01*
X157328120Y-74416971D01*
X157328116Y-74416968D01*
X157164860Y-74333786D01*
X156990594Y-74277164D01*
X156990591Y-74277163D01*
X156851569Y-74255144D01*
X156809617Y-74248500D01*
X156626383Y-74248500D01*
X156592325Y-74253894D01*
X156445408Y-74277163D01*
X156445405Y-74277164D01*
X156271139Y-74333786D01*
X156107883Y-74416968D01*
X155959633Y-74524679D01*
X155830079Y-74654233D01*
X155722368Y-74802483D01*
X155639186Y-74965739D01*
X155582564Y-75140005D01*
X155582563Y-75140008D01*
X155553900Y-75320983D01*
X155553900Y-75809016D01*
X155582563Y-75989991D01*
X155582564Y-75989994D01*
X155639186Y-76164260D01*
X155722368Y-76327516D01*
X155722371Y-76327520D01*
X155722372Y-76327522D01*
X155830074Y-76475760D01*
X155830076Y-76475762D01*
X155830079Y-76475766D01*
X155959633Y-76605320D01*
X155959636Y-76605322D01*
X155959640Y-76605326D01*
X156107878Y-76713028D01*
X156107880Y-76713029D01*
X156107883Y-76713031D01*
X156262880Y-76792005D01*
X156271141Y-76796214D01*
X156445406Y-76852836D01*
X156626383Y-76881500D01*
X156626384Y-76881500D01*
X156809616Y-76881500D01*
X156809617Y-76881500D01*
X156990594Y-76852836D01*
X157164859Y-76796214D01*
X157328122Y-76713028D01*
X157476360Y-76605326D01*
X157484319Y-76597367D01*
X157518966Y-76583013D01*
X157553615Y-76597363D01*
X161199790Y-80243538D01*
X161214142Y-80278186D01*
X161199790Y-80312834D01*
X161177825Y-80325516D01*
X161066215Y-80355423D01*
X161066213Y-80355423D01*
X160929290Y-80434475D01*
X160929281Y-80434482D01*
X160817482Y-80546281D01*
X160817475Y-80546290D01*
X160738423Y-80683213D01*
X160738422Y-80683217D01*
X160697500Y-80835939D01*
X160697500Y-80994060D01*
X160738422Y-81146782D01*
X160738423Y-81146786D01*
X160817475Y-81283709D01*
X160817478Y-81283713D01*
X160817480Y-81283716D01*
X160929284Y-81395520D01*
X160929287Y-81395521D01*
X160929290Y-81395524D01*
X161066213Y-81474576D01*
X161066215Y-81474576D01*
X161066216Y-81474577D01*
X161186665Y-81506851D01*
X161218939Y-81515499D01*
X161218940Y-81515500D01*
X161218943Y-81515500D01*
X161377060Y-81515500D01*
X161377060Y-81515499D01*
X161529784Y-81474577D01*
X161666716Y-81395520D01*
X161778520Y-81283716D01*
X161857577Y-81146784D01*
X161882057Y-81055423D01*
X161887483Y-81035175D01*
X161910313Y-81005422D01*
X161947495Y-81000527D01*
X161969461Y-81013209D01*
X164761737Y-83805485D01*
X164797249Y-83825988D01*
X164858760Y-83861502D01*
X164858762Y-83861502D01*
X164858763Y-83861503D01*
X164885817Y-83868752D01*
X164966978Y-83890500D01*
X164966981Y-83890500D01*
X164966982Y-83890500D01*
X173151456Y-83890500D01*
X173186104Y-83904852D01*
X175408148Y-86126896D01*
X175422500Y-86161544D01*
X175422500Y-86468455D01*
X175408148Y-86503103D01*
X175382148Y-86529103D01*
X175347500Y-86543455D01*
X175312852Y-86529103D01*
X175298500Y-86494455D01*
X175298500Y-86435940D01*
X175298499Y-86435939D01*
X175283002Y-86378104D01*
X175257577Y-86283216D01*
X175257576Y-86283215D01*
X175257576Y-86283213D01*
X175178524Y-86146290D01*
X175178521Y-86146287D01*
X175178520Y-86146284D01*
X175066716Y-86034480D01*
X175066713Y-86034478D01*
X175066709Y-86034475D01*
X174929786Y-85955423D01*
X174929782Y-85955422D01*
X174777060Y-85914500D01*
X174777057Y-85914500D01*
X174719544Y-85914500D01*
X174684896Y-85900148D01*
X173634263Y-84849515D01*
X173537239Y-84793497D01*
X173537235Y-84793496D01*
X173429021Y-84764500D01*
X173429018Y-84764500D01*
X134979018Y-84764500D01*
X134866981Y-84764500D01*
X134866978Y-84764500D01*
X134758764Y-84793496D01*
X134758760Y-84793497D01*
X134661736Y-84849515D01*
X134661736Y-84849516D01*
X130986104Y-88525148D01*
X130951456Y-88539500D01*
X119191979Y-88539500D01*
X119083764Y-88568496D01*
X119083760Y-88568497D01*
X118986736Y-88624515D01*
X118986736Y-88624516D01*
X112007516Y-95603736D01*
X112007515Y-95603736D01*
X111951497Y-95700760D01*
X111951496Y-95700764D01*
X111922500Y-95808978D01*
X111922500Y-103921021D01*
X111951496Y-104029235D01*
X111951497Y-104029239D01*
X112007515Y-104126263D01*
X114035092Y-106153840D01*
X114049444Y-106188488D01*
X114048502Y-106198047D01*
X114022500Y-106328765D01*
X114022500Y-106501234D01*
X114056142Y-106670364D01*
X114056145Y-106670375D01*
X114103258Y-106784116D01*
X114122142Y-106829705D01*
X114217955Y-106973099D01*
X114339901Y-107095045D01*
X114483295Y-107190858D01*
X114642626Y-107256855D01*
X114642632Y-107256856D01*
X114642635Y-107256857D01*
X114811765Y-107290499D01*
X114811768Y-107290499D01*
X114811771Y-107290500D01*
X114811772Y-107290500D01*
X114984228Y-107290500D01*
X114984229Y-107290500D01*
X115153374Y-107256855D01*
X115312705Y-107190858D01*
X115456099Y-107095045D01*
X115578045Y-106973099D01*
X115673858Y-106829705D01*
X115739855Y-106670374D01*
X115773500Y-106501229D01*
X115773500Y-106328771D01*
X115767138Y-106296786D01*
X115739857Y-106159635D01*
X115739854Y-106159624D01*
X115733406Y-106144057D01*
X115673858Y-106000295D01*
X115578045Y-105856901D01*
X115456099Y-105734955D01*
X115453496Y-105733216D01*
X115339850Y-105657280D01*
X115312705Y-105639142D01*
X115312702Y-105639140D01*
X115312701Y-105639140D01*
X115153375Y-105573145D01*
X115153364Y-105573142D01*
X114984234Y-105539500D01*
X114984229Y-105539500D01*
X114811771Y-105539500D01*
X114811765Y-105539500D01*
X114681047Y-105565502D01*
X114644265Y-105558186D01*
X114636840Y-105552092D01*
X113413513Y-104328765D01*
X114022500Y-104328765D01*
X114022500Y-104501234D01*
X114056142Y-104670364D01*
X114056145Y-104670375D01*
X114122140Y-104829701D01*
X114122142Y-104829705D01*
X114217955Y-104973099D01*
X114339901Y-105095045D01*
X114483295Y-105190858D01*
X114642626Y-105256855D01*
X114642632Y-105256856D01*
X114642635Y-105256857D01*
X114811765Y-105290499D01*
X114811768Y-105290499D01*
X114811771Y-105290500D01*
X114811772Y-105290500D01*
X114984228Y-105290500D01*
X114984229Y-105290500D01*
X115153374Y-105256855D01*
X115312705Y-105190858D01*
X115456099Y-105095045D01*
X115578045Y-104973099D01*
X115673858Y-104829705D01*
X115739855Y-104670374D01*
X115773500Y-104501229D01*
X115773500Y-104328771D01*
X115771540Y-104318916D01*
X115922500Y-104318916D01*
X115922500Y-104511083D01*
X115959985Y-104699533D01*
X115959988Y-104699544D01*
X116033522Y-104877072D01*
X116140277Y-105036842D01*
X116276157Y-105172722D01*
X116402071Y-105256855D01*
X116435927Y-105279477D01*
X116613457Y-105353012D01*
X116613463Y-105353013D01*
X116613466Y-105353014D01*
X116683485Y-105366942D01*
X116714668Y-105387777D01*
X116721984Y-105424559D01*
X116701149Y-105455742D01*
X116683485Y-105463058D01*
X116613466Y-105476985D01*
X116613455Y-105476988D01*
X116435927Y-105550522D01*
X116276157Y-105657277D01*
X116140277Y-105793157D01*
X116033522Y-105952927D01*
X115959988Y-106130455D01*
X115959985Y-106130466D01*
X115922500Y-106318916D01*
X115922500Y-106511083D01*
X115959985Y-106699533D01*
X115959988Y-106699544D01*
X116033522Y-106877072D01*
X116140277Y-107036842D01*
X116276157Y-107172722D01*
X116402071Y-107256855D01*
X116435927Y-107279477D01*
X116613457Y-107353012D01*
X116613463Y-107353013D01*
X116613466Y-107353014D01*
X116801916Y-107390499D01*
X116801919Y-107390499D01*
X116801922Y-107390500D01*
X116801923Y-107390500D01*
X116994077Y-107390500D01*
X116994078Y-107390500D01*
X117182543Y-107353012D01*
X117360073Y-107279477D01*
X117519845Y-107172720D01*
X117655720Y-107036845D01*
X117762477Y-106877073D01*
X117836012Y-106699543D01*
X117873500Y-106511078D01*
X117873500Y-106318922D01*
X117869097Y-106296786D01*
X117836014Y-106130466D01*
X117836011Y-106130455D01*
X117796861Y-106035939D01*
X117762477Y-105952927D01*
X117732584Y-105908189D01*
X117655722Y-105793157D01*
X117519842Y-105657277D01*
X117360072Y-105550522D01*
X117182543Y-105476988D01*
X117182528Y-105476985D01*
X117112512Y-105463058D01*
X117081331Y-105442223D01*
X117074014Y-105405441D01*
X117094850Y-105374258D01*
X117112511Y-105366942D01*
X117182543Y-105353012D01*
X117360073Y-105279477D01*
X117519845Y-105172720D01*
X117655720Y-105036845D01*
X117762477Y-104877073D01*
X117836012Y-104699543D01*
X117873500Y-104511078D01*
X117873500Y-104318922D01*
X117836012Y-104130457D01*
X117762477Y-103952927D01*
X117679831Y-103829239D01*
X117655722Y-103793157D01*
X117519842Y-103657277D01*
X117360072Y-103550522D01*
X117182544Y-103476988D01*
X117182533Y-103476985D01*
X116994083Y-103439500D01*
X116994078Y-103439500D01*
X116801922Y-103439500D01*
X116801916Y-103439500D01*
X116613466Y-103476985D01*
X116613455Y-103476988D01*
X116435927Y-103550522D01*
X116276157Y-103657277D01*
X116140277Y-103793157D01*
X116033522Y-103952927D01*
X115959988Y-104130455D01*
X115959985Y-104130466D01*
X115922500Y-104318916D01*
X115771540Y-104318916D01*
X115739855Y-104159626D01*
X115673858Y-104000295D01*
X115578045Y-103856901D01*
X115456099Y-103734955D01*
X115435245Y-103721021D01*
X115339850Y-103657280D01*
X115312705Y-103639142D01*
X115312702Y-103639140D01*
X115312701Y-103639140D01*
X115153375Y-103573145D01*
X115153364Y-103573142D01*
X114984234Y-103539500D01*
X114984229Y-103539500D01*
X114811771Y-103539500D01*
X114811765Y-103539500D01*
X114642635Y-103573142D01*
X114642624Y-103573145D01*
X114483298Y-103639140D01*
X114339901Y-103734954D01*
X114217954Y-103856901D01*
X114122140Y-104000298D01*
X114056145Y-104159624D01*
X114056142Y-104159635D01*
X114022500Y-104328765D01*
X113413513Y-104328765D01*
X112787852Y-103703104D01*
X112773500Y-103668456D01*
X112773500Y-100772410D01*
X113722500Y-100772410D01*
X113722500Y-101057590D01*
X113759723Y-101340330D01*
X113759724Y-101340334D01*
X113759725Y-101340341D01*
X113833530Y-101615785D01*
X113833534Y-101615795D01*
X113942667Y-101879265D01*
X114085255Y-102126233D01*
X114085265Y-102126248D01*
X114258858Y-102352479D01*
X114258868Y-102352491D01*
X114460508Y-102554131D01*
X114460520Y-102554141D01*
X114686751Y-102727734D01*
X114686760Y-102727740D01*
X114686764Y-102727743D01*
X114933736Y-102870333D01*
X115197208Y-102979467D01*
X115197211Y-102979467D01*
X115197214Y-102979469D01*
X115472658Y-103053274D01*
X115472659Y-103053274D01*
X115472670Y-103053277D01*
X115755410Y-103090500D01*
X115755414Y-103090500D01*
X116040586Y-103090500D01*
X116040590Y-103090500D01*
X116323330Y-103053277D01*
X116598792Y-102979467D01*
X116862264Y-102870333D01*
X117109236Y-102727743D01*
X117335485Y-102554137D01*
X117537137Y-102352485D01*
X117710743Y-102126236D01*
X117853333Y-101879264D01*
X117962467Y-101615792D01*
X118036277Y-101340330D01*
X118073500Y-101057590D01*
X118073500Y-100772410D01*
X118036277Y-100489670D01*
X118021284Y-100433716D01*
X117962469Y-100214214D01*
X117962465Y-100214204D01*
X117933410Y-100144060D01*
X117853333Y-99950736D01*
X117710743Y-99703764D01*
X117710740Y-99703760D01*
X117710734Y-99703751D01*
X117537141Y-99477520D01*
X117537131Y-99477508D01*
X117335491Y-99275868D01*
X117335479Y-99275858D01*
X117109248Y-99102265D01*
X117109233Y-99102255D01*
X116862265Y-98959667D01*
X116598795Y-98850534D01*
X116598785Y-98850530D01*
X116323341Y-98776725D01*
X116323334Y-98776724D01*
X116323330Y-98776723D01*
X116040590Y-98739500D01*
X115755410Y-98739500D01*
X115472670Y-98776723D01*
X115472666Y-98776723D01*
X115472658Y-98776725D01*
X115197214Y-98850530D01*
X115197204Y-98850534D01*
X114933734Y-98959667D01*
X114686766Y-99102255D01*
X114686751Y-99102265D01*
X114460520Y-99275858D01*
X114460508Y-99275868D01*
X114258868Y-99477508D01*
X114258858Y-99477520D01*
X114085265Y-99703751D01*
X114085255Y-99703766D01*
X113942667Y-99950734D01*
X113833534Y-100214204D01*
X113833530Y-100214214D01*
X113759725Y-100489658D01*
X113759723Y-100489666D01*
X113759723Y-100489670D01*
X113722500Y-100772410D01*
X112773500Y-100772410D01*
X112773500Y-96061544D01*
X112787852Y-96026896D01*
X115913304Y-92901444D01*
X119048240Y-89766507D01*
X119082887Y-89752156D01*
X119117535Y-89766508D01*
X119131887Y-89801156D01*
X119130217Y-89813838D01*
X119097500Y-89935939D01*
X119097500Y-90094060D01*
X119138422Y-90246782D01*
X119138423Y-90246786D01*
X119217475Y-90383709D01*
X119217482Y-90383718D01*
X119258148Y-90424384D01*
X119272500Y-90459032D01*
X119272500Y-103721021D01*
X119301496Y-103829235D01*
X119301497Y-103829239D01*
X119357515Y-103926263D01*
X123087104Y-107655852D01*
X123101456Y-107690500D01*
X123087104Y-107725148D01*
X123052456Y-107739500D01*
X120891979Y-107739500D01*
X120783764Y-107768496D01*
X120783760Y-107768497D01*
X120686736Y-107824515D01*
X120686735Y-107824516D01*
X117828990Y-110682260D01*
X117794342Y-110696612D01*
X117759694Y-110682260D01*
X117745342Y-110647612D01*
X117746284Y-110638052D01*
X117773499Y-110501232D01*
X117773500Y-110501227D01*
X117773500Y-110328772D01*
X117773499Y-110328765D01*
X117739857Y-110159635D01*
X117739854Y-110159624D01*
X117725312Y-110124516D01*
X117673858Y-110000295D01*
X117578045Y-109856901D01*
X117456099Y-109734955D01*
X117312705Y-109639142D01*
X117312702Y-109639140D01*
X117312701Y-109639140D01*
X117153375Y-109573145D01*
X117153364Y-109573142D01*
X116984234Y-109539500D01*
X116984229Y-109539500D01*
X116811771Y-109539500D01*
X116811765Y-109539500D01*
X116642635Y-109573142D01*
X116642624Y-109573145D01*
X116483298Y-109639140D01*
X116339901Y-109734954D01*
X116217954Y-109856901D01*
X116122140Y-110000298D01*
X116056145Y-110159624D01*
X116056142Y-110159635D01*
X116022500Y-110328765D01*
X116022500Y-110501234D01*
X116056142Y-110670364D01*
X116056145Y-110670375D01*
X116118846Y-110821749D01*
X116118846Y-110859252D01*
X116092327Y-110885770D01*
X116073576Y-110889500D01*
X115941979Y-110889500D01*
X115833764Y-110918496D01*
X115833760Y-110918497D01*
X115736736Y-110974515D01*
X115736735Y-110974516D01*
X115159158Y-111552092D01*
X115124510Y-111566444D01*
X115114951Y-111565502D01*
X114984234Y-111539500D01*
X114984229Y-111539500D01*
X114811771Y-111539500D01*
X114811765Y-111539500D01*
X114642635Y-111573142D01*
X114642624Y-111573145D01*
X114483298Y-111639140D01*
X114339901Y-111734954D01*
X114217954Y-111856901D01*
X114122140Y-112000298D01*
X114056145Y-112159624D01*
X114056142Y-112159635D01*
X114022500Y-112328765D01*
X114022500Y-112501234D01*
X114056142Y-112670364D01*
X114056145Y-112670374D01*
X114122142Y-112829705D01*
X114217955Y-112973099D01*
X114339901Y-113095045D01*
X114483295Y-113190858D01*
X114642626Y-113256855D01*
X114642632Y-113256856D01*
X114642635Y-113256857D01*
X114811765Y-113290499D01*
X114811768Y-113290499D01*
X114811771Y-113290500D01*
X114811772Y-113290500D01*
X114984228Y-113290500D01*
X114984229Y-113290500D01*
X115153374Y-113256855D01*
X115312705Y-113190858D01*
X115456099Y-113095045D01*
X115578045Y-112973099D01*
X115673858Y-112829705D01*
X115739855Y-112670374D01*
X115773500Y-112501229D01*
X115773500Y-112328771D01*
X115747496Y-112198045D01*
X115754812Y-112161266D01*
X115760901Y-112153845D01*
X116159896Y-111754852D01*
X116194544Y-111740500D01*
X116216060Y-111740500D01*
X116250708Y-111754852D01*
X116265060Y-111789500D01*
X116250708Y-111824148D01*
X116217954Y-111856901D01*
X116122140Y-112000298D01*
X116056145Y-112159624D01*
X116056142Y-112159635D01*
X116022500Y-112328765D01*
X116022500Y-112501234D01*
X116056142Y-112670364D01*
X116056145Y-112670374D01*
X116122142Y-112829705D01*
X116186304Y-112925731D01*
X116217954Y-112973098D01*
X116322708Y-113077852D01*
X116337060Y-113112500D01*
X116322708Y-113147148D01*
X116288060Y-113161500D01*
X115669979Y-113161500D01*
X115561764Y-113190496D01*
X115561760Y-113190497D01*
X115464736Y-113246515D01*
X115464735Y-113246516D01*
X115159158Y-113552092D01*
X115124510Y-113566444D01*
X115114951Y-113565502D01*
X114984234Y-113539500D01*
X114984229Y-113539500D01*
X114811771Y-113539500D01*
X114811765Y-113539500D01*
X114642635Y-113573142D01*
X114642624Y-113573145D01*
X114483298Y-113639140D01*
X114339901Y-113734954D01*
X114217954Y-113856901D01*
X114122140Y-114000298D01*
X114056145Y-114159624D01*
X114056142Y-114159635D01*
X114022500Y-114328765D01*
X114022500Y-114501234D01*
X114056142Y-114670364D01*
X114056145Y-114670375D01*
X114108301Y-114796290D01*
X114122142Y-114829705D01*
X114217955Y-114973099D01*
X114339901Y-115095045D01*
X114483295Y-115190858D01*
X114642626Y-115256855D01*
X114642632Y-115256856D01*
X114642635Y-115256857D01*
X114811765Y-115290499D01*
X114811768Y-115290499D01*
X114811771Y-115290500D01*
X114811772Y-115290500D01*
X114984228Y-115290500D01*
X114984229Y-115290500D01*
X115153374Y-115256855D01*
X115312705Y-115190858D01*
X115456099Y-115095045D01*
X115578045Y-114973099D01*
X115673858Y-114829705D01*
X115739855Y-114670374D01*
X115773500Y-114501229D01*
X115773500Y-114328771D01*
X115747496Y-114198045D01*
X115754812Y-114161266D01*
X115760896Y-114153850D01*
X115887897Y-114026850D01*
X115922544Y-114012500D01*
X116043753Y-114012500D01*
X116078401Y-114026852D01*
X116092753Y-114061500D01*
X116089023Y-114080251D01*
X116056147Y-114159618D01*
X116056142Y-114159637D01*
X116022500Y-114328765D01*
X116022500Y-114501234D01*
X116056142Y-114670364D01*
X116056145Y-114670375D01*
X116108301Y-114796290D01*
X116122142Y-114829705D01*
X116217955Y-114973099D01*
X116339901Y-115095045D01*
X116483295Y-115190858D01*
X116642626Y-115256855D01*
X116642632Y-115256856D01*
X116642635Y-115256857D01*
X116811765Y-115290499D01*
X116811768Y-115290499D01*
X116811771Y-115290500D01*
X116811772Y-115290500D01*
X116984228Y-115290500D01*
X116984229Y-115290500D01*
X117153374Y-115256855D01*
X117312705Y-115190858D01*
X117456099Y-115095045D01*
X117465205Y-115085939D01*
X126347500Y-115085939D01*
X126347500Y-115244060D01*
X126388422Y-115396782D01*
X126388423Y-115396786D01*
X126467475Y-115533709D01*
X126467478Y-115533713D01*
X126467480Y-115533716D01*
X126579284Y-115645520D01*
X126579287Y-115645521D01*
X126579290Y-115645524D01*
X126716213Y-115724576D01*
X126716215Y-115724576D01*
X126716216Y-115724577D01*
X126836665Y-115756851D01*
X126868939Y-115765499D01*
X126868940Y-115765500D01*
X126868943Y-115765500D01*
X127027060Y-115765500D01*
X127027060Y-115765499D01*
X127179784Y-115724577D01*
X127316716Y-115645520D01*
X127428520Y-115533716D01*
X127507577Y-115396784D01*
X127548499Y-115244060D01*
X127548500Y-115244060D01*
X127548500Y-115085940D01*
X127548499Y-115085939D01*
X127520974Y-114983216D01*
X127507577Y-114933216D01*
X127507576Y-114933215D01*
X127507576Y-114933213D01*
X127428524Y-114796290D01*
X127428521Y-114796287D01*
X127428520Y-114796284D01*
X127316716Y-114684480D01*
X127316713Y-114684478D01*
X127316709Y-114684475D01*
X127179786Y-114605423D01*
X127179782Y-114605422D01*
X127027060Y-114564500D01*
X127027057Y-114564500D01*
X126868943Y-114564500D01*
X126868940Y-114564500D01*
X126716217Y-114605422D01*
X126716213Y-114605423D01*
X126579290Y-114684475D01*
X126579281Y-114684482D01*
X126467482Y-114796281D01*
X126467475Y-114796290D01*
X126388423Y-114933213D01*
X126388422Y-114933217D01*
X126347500Y-115085939D01*
X117465205Y-115085939D01*
X117578045Y-114973099D01*
X117673858Y-114829705D01*
X117739855Y-114670374D01*
X117773500Y-114501229D01*
X117773500Y-114328771D01*
X117766886Y-114295520D01*
X117739857Y-114159635D01*
X117739854Y-114159624D01*
X117693114Y-114046784D01*
X117673858Y-114000295D01*
X117598291Y-113887201D01*
X117590975Y-113850418D01*
X117604383Y-113825332D01*
X117693776Y-113735939D01*
X123297500Y-113735939D01*
X123297500Y-113894060D01*
X123338422Y-114046782D01*
X123338423Y-114046786D01*
X123417475Y-114183709D01*
X123417478Y-114183713D01*
X123417480Y-114183716D01*
X123529284Y-114295520D01*
X123529287Y-114295521D01*
X123529290Y-114295524D01*
X123666213Y-114374576D01*
X123666215Y-114374576D01*
X123666216Y-114374577D01*
X123786665Y-114406851D01*
X123818939Y-114415499D01*
X123818940Y-114415500D01*
X123818943Y-114415500D01*
X123977060Y-114415500D01*
X123977060Y-114415499D01*
X124129784Y-114374577D01*
X124162855Y-114355484D01*
X124266709Y-114295524D01*
X124266708Y-114295524D01*
X124266716Y-114295520D01*
X124378520Y-114183716D01*
X124457577Y-114046784D01*
X124498499Y-113894060D01*
X124498500Y-113894060D01*
X124498500Y-113735940D01*
X124498499Y-113735939D01*
X124488355Y-113698083D01*
X124457577Y-113583216D01*
X124457576Y-113583215D01*
X124457576Y-113583213D01*
X124378524Y-113446290D01*
X124378521Y-113446287D01*
X124378520Y-113446284D01*
X124266716Y-113334480D01*
X124266713Y-113334478D01*
X124266709Y-113334475D01*
X124129786Y-113255423D01*
X124129782Y-113255422D01*
X123977060Y-113214500D01*
X123977057Y-113214500D01*
X123818943Y-113214500D01*
X123818940Y-113214500D01*
X123666217Y-113255422D01*
X123666213Y-113255423D01*
X123529290Y-113334475D01*
X123529281Y-113334482D01*
X123417482Y-113446281D01*
X123417475Y-113446290D01*
X123338423Y-113583213D01*
X123338422Y-113583217D01*
X123297500Y-113735939D01*
X117693776Y-113735939D01*
X120524865Y-110904852D01*
X120559513Y-110890500D01*
X123809191Y-110890500D01*
X123843839Y-110904852D01*
X123858191Y-110939500D01*
X123843839Y-110974148D01*
X123833691Y-110981935D01*
X123829290Y-110984475D01*
X123829281Y-110984482D01*
X123717482Y-111096281D01*
X123717475Y-111096290D01*
X123638423Y-111233213D01*
X123638422Y-111233217D01*
X123597500Y-111385939D01*
X123597500Y-111544060D01*
X123638422Y-111696782D01*
X123638423Y-111696786D01*
X123717475Y-111833709D01*
X123717478Y-111833713D01*
X123717480Y-111833716D01*
X123829284Y-111945520D01*
X123829287Y-111945521D01*
X123829290Y-111945524D01*
X123966213Y-112024576D01*
X123966215Y-112024576D01*
X123966216Y-112024577D01*
X124084679Y-112056319D01*
X124118939Y-112065499D01*
X124118940Y-112065500D01*
X124118943Y-112065500D01*
X124277060Y-112065500D01*
X124277060Y-112065499D01*
X124429784Y-112024577D01*
X124566716Y-111945520D01*
X124678520Y-111833716D01*
X124757577Y-111696784D01*
X124798499Y-111544060D01*
X124798500Y-111544060D01*
X124798500Y-111385940D01*
X124798499Y-111385939D01*
X124764480Y-111258978D01*
X124757577Y-111233216D01*
X124757576Y-111233215D01*
X124757576Y-111233213D01*
X124678524Y-111096290D01*
X124678521Y-111096287D01*
X124678520Y-111096284D01*
X124566716Y-110984480D01*
X124566713Y-110984478D01*
X124566709Y-110984475D01*
X124562309Y-110981935D01*
X124539479Y-110952182D01*
X124544374Y-110915000D01*
X124574127Y-110892170D01*
X124586809Y-110890500D01*
X127553968Y-110890500D01*
X127588616Y-110904852D01*
X127629284Y-110945520D01*
X127629287Y-110945521D01*
X127629290Y-110945524D01*
X127766213Y-111024576D01*
X127766215Y-111024576D01*
X127766216Y-111024577D01*
X127858909Y-111049414D01*
X127918939Y-111065499D01*
X127918940Y-111065500D01*
X127918943Y-111065500D01*
X128077060Y-111065500D01*
X128077060Y-111065499D01*
X128229784Y-111024577D01*
X128366716Y-110945520D01*
X128478520Y-110833716D01*
X128557577Y-110696784D01*
X128598499Y-110544060D01*
X128598500Y-110544060D01*
X128598500Y-110485544D01*
X128612852Y-110450896D01*
X128647500Y-110436544D01*
X128682148Y-110450896D01*
X132586737Y-114355485D01*
X132619804Y-114374576D01*
X132683760Y-114411502D01*
X132683762Y-114411502D01*
X132683763Y-114411503D01*
X132769111Y-114434371D01*
X132791978Y-114440499D01*
X132791979Y-114440500D01*
X132791982Y-114440500D01*
X132904019Y-114440500D01*
X157203968Y-114440500D01*
X157238616Y-114454852D01*
X157279284Y-114495520D01*
X157279287Y-114495521D01*
X157279290Y-114495524D01*
X157416213Y-114574576D01*
X157416215Y-114574576D01*
X157416216Y-114574577D01*
X157531331Y-114605422D01*
X157568939Y-114615499D01*
X157568940Y-114615500D01*
X157677455Y-114615500D01*
X157712103Y-114629852D01*
X157726455Y-114664500D01*
X157712103Y-114699148D01*
X151036104Y-121375148D01*
X151001456Y-121389500D01*
X147541979Y-121389500D01*
X147433764Y-121418496D01*
X147433760Y-121418497D01*
X147336736Y-121474515D01*
X146296736Y-122514515D01*
X146276957Y-122534293D01*
X146257452Y-122546246D01*
X146111139Y-122593786D01*
X145947883Y-122676968D01*
X145799633Y-122784679D01*
X145670079Y-122914233D01*
X145562368Y-123062483D01*
X145479186Y-123225739D01*
X145422564Y-123400005D01*
X145422563Y-123400008D01*
X145393900Y-123580983D01*
X145393900Y-124069016D01*
X145422563Y-124249991D01*
X145422564Y-124249994D01*
X145479186Y-124424260D01*
X145562368Y-124587516D01*
X145562371Y-124587520D01*
X145562372Y-124587522D01*
X145670074Y-124735760D01*
X145670076Y-124735762D01*
X145670079Y-124735766D01*
X145799633Y-124865320D01*
X145799636Y-124865322D01*
X145799640Y-124865326D01*
X145917365Y-124950859D01*
X145936960Y-124982835D01*
X145928205Y-125019302D01*
X145896228Y-125038897D01*
X145888563Y-125039500D01*
X144687437Y-125039500D01*
X144652789Y-125025148D01*
X144638437Y-124990500D01*
X144652789Y-124955852D01*
X144658628Y-124950863D01*
X144776360Y-124865326D01*
X144905926Y-124735760D01*
X145013628Y-124587522D01*
X145096814Y-124424259D01*
X145153436Y-124249994D01*
X145182100Y-124069017D01*
X145182100Y-123580983D01*
X145153436Y-123400006D01*
X145096814Y-123225741D01*
X145096813Y-123225739D01*
X145013631Y-123062483D01*
X145013629Y-123062480D01*
X145013628Y-123062478D01*
X144905926Y-122914240D01*
X144905922Y-122914236D01*
X144905920Y-122914233D01*
X144776366Y-122784679D01*
X144776362Y-122784676D01*
X144776360Y-122784674D01*
X144628122Y-122676972D01*
X144628120Y-122676971D01*
X144628116Y-122676968D01*
X144464860Y-122593786D01*
X144290594Y-122537164D01*
X144290591Y-122537163D01*
X144147594Y-122514515D01*
X144109617Y-122508500D01*
X143926383Y-122508500D01*
X143892325Y-122513894D01*
X143745408Y-122537163D01*
X143745405Y-122537164D01*
X143571139Y-122593786D01*
X143407883Y-122676968D01*
X143259633Y-122784679D01*
X143130079Y-122914233D01*
X143022368Y-123062483D01*
X142939186Y-123225739D01*
X142882564Y-123400005D01*
X142882563Y-123400008D01*
X142853900Y-123580983D01*
X142853900Y-124069016D01*
X142882563Y-124249991D01*
X142882564Y-124249994D01*
X142939186Y-124424260D01*
X143022368Y-124587516D01*
X143022371Y-124587520D01*
X143022372Y-124587522D01*
X143130074Y-124735760D01*
X143130076Y-124735762D01*
X143130079Y-124735766D01*
X143259633Y-124865320D01*
X143259636Y-124865322D01*
X143259640Y-124865326D01*
X143377365Y-124950859D01*
X143396960Y-124982835D01*
X143388205Y-125019302D01*
X143356228Y-125038897D01*
X143348563Y-125039500D01*
X142147437Y-125039500D01*
X142112789Y-125025148D01*
X142098437Y-124990500D01*
X142112789Y-124955852D01*
X142118628Y-124950863D01*
X142236360Y-124865326D01*
X142365926Y-124735760D01*
X142473628Y-124587522D01*
X142556814Y-124424259D01*
X142613436Y-124249994D01*
X142642100Y-124069017D01*
X142642100Y-123580983D01*
X142613436Y-123400006D01*
X142556814Y-123225741D01*
X142556813Y-123225739D01*
X142473631Y-123062483D01*
X142473629Y-123062480D01*
X142473628Y-123062478D01*
X142365926Y-122914240D01*
X142365922Y-122914236D01*
X142365920Y-122914233D01*
X142236366Y-122784679D01*
X142236362Y-122784676D01*
X142236360Y-122784674D01*
X142088122Y-122676972D01*
X142088120Y-122676971D01*
X142088116Y-122676968D01*
X141924860Y-122593786D01*
X141750594Y-122537164D01*
X141750591Y-122537163D01*
X141607594Y-122514515D01*
X141569617Y-122508500D01*
X141386383Y-122508500D01*
X141352325Y-122513894D01*
X141205408Y-122537163D01*
X141205405Y-122537164D01*
X141031139Y-122593786D01*
X140867883Y-122676968D01*
X140719633Y-122784679D01*
X140590079Y-122914233D01*
X140482368Y-123062483D01*
X140399186Y-123225739D01*
X140342564Y-123400005D01*
X140342563Y-123400008D01*
X140313900Y-123580983D01*
X140313900Y-124069016D01*
X140342563Y-124249991D01*
X140342564Y-124249994D01*
X140399186Y-124424260D01*
X140482368Y-124587516D01*
X140482371Y-124587520D01*
X140482372Y-124587522D01*
X140590074Y-124735760D01*
X140590076Y-124735762D01*
X140590079Y-124735766D01*
X140719633Y-124865320D01*
X140719636Y-124865322D01*
X140719640Y-124865326D01*
X140837365Y-124950859D01*
X140856960Y-124982835D01*
X140848205Y-125019302D01*
X140816228Y-125038897D01*
X140808563Y-125039500D01*
X139607437Y-125039500D01*
X139572789Y-125025148D01*
X139558437Y-124990500D01*
X139572789Y-124955852D01*
X139578628Y-124950863D01*
X139696360Y-124865326D01*
X139825926Y-124735760D01*
X139933628Y-124587522D01*
X140016814Y-124424259D01*
X140073436Y-124249994D01*
X140102100Y-124069017D01*
X140102100Y-123580983D01*
X140073436Y-123400006D01*
X140016814Y-123225741D01*
X140016813Y-123225739D01*
X139933631Y-123062483D01*
X139933629Y-123062480D01*
X139933628Y-123062478D01*
X139825926Y-122914240D01*
X139825922Y-122914236D01*
X139825920Y-122914233D01*
X139696366Y-122784679D01*
X139696362Y-122784676D01*
X139696360Y-122784674D01*
X139548122Y-122676972D01*
X139548120Y-122676971D01*
X139548116Y-122676968D01*
X139384860Y-122593786D01*
X139210594Y-122537164D01*
X139210591Y-122537163D01*
X139067594Y-122514515D01*
X139029617Y-122508500D01*
X138846383Y-122508500D01*
X138812325Y-122513894D01*
X138665408Y-122537163D01*
X138665405Y-122537164D01*
X138491139Y-122593786D01*
X138327883Y-122676968D01*
X138179633Y-122784679D01*
X138050079Y-122914233D01*
X137942368Y-123062483D01*
X137859186Y-123225739D01*
X137802564Y-123400005D01*
X137802563Y-123400008D01*
X137773900Y-123580983D01*
X137773900Y-124069016D01*
X137802563Y-124249991D01*
X137802564Y-124249994D01*
X137859186Y-124424260D01*
X137942368Y-124587516D01*
X137942371Y-124587520D01*
X137942372Y-124587522D01*
X138050074Y-124735760D01*
X138050076Y-124735762D01*
X138050079Y-124735766D01*
X138179633Y-124865320D01*
X138179636Y-124865322D01*
X138179640Y-124865326D01*
X138297365Y-124950859D01*
X138316960Y-124982835D01*
X138308205Y-125019302D01*
X138276228Y-125038897D01*
X138268563Y-125039500D01*
X134472500Y-125039500D01*
X134437852Y-125025148D01*
X134423500Y-124990500D01*
X134423500Y-123905540D01*
X134430065Y-123881040D01*
X134507576Y-123746786D01*
X134507576Y-123746785D01*
X134507577Y-123746784D01*
X134548499Y-123594060D01*
X134548500Y-123594060D01*
X134548500Y-123435940D01*
X134548499Y-123435939D01*
X134526139Y-123352491D01*
X134507577Y-123283216D01*
X134507576Y-123283215D01*
X134507576Y-123283213D01*
X134428524Y-123146290D01*
X134428521Y-123146287D01*
X134428520Y-123146284D01*
X134316716Y-123034480D01*
X134316713Y-123034478D01*
X134316709Y-123034475D01*
X134179786Y-122955423D01*
X134179782Y-122955422D01*
X134027060Y-122914500D01*
X134027057Y-122914500D01*
X133868943Y-122914500D01*
X133868940Y-122914500D01*
X133716217Y-122955422D01*
X133716213Y-122955423D01*
X133579290Y-123034475D01*
X133579281Y-123034482D01*
X133467482Y-123146281D01*
X133467475Y-123146290D01*
X133388423Y-123283213D01*
X133388422Y-123283217D01*
X133347500Y-123435939D01*
X133347500Y-123594060D01*
X133388422Y-123746782D01*
X133388423Y-123746786D01*
X133467475Y-123883709D01*
X133467482Y-123883718D01*
X133558148Y-123974384D01*
X133572500Y-124009032D01*
X133572500Y-124319456D01*
X133558148Y-124354104D01*
X133523500Y-124368456D01*
X133488852Y-124354104D01*
X129059263Y-119924515D01*
X128962239Y-119868497D01*
X128962235Y-119868496D01*
X128854021Y-119839500D01*
X128854018Y-119839500D01*
X120844544Y-119839500D01*
X120809896Y-119825148D01*
X120709263Y-119724515D01*
X120612239Y-119668497D01*
X120612235Y-119668496D01*
X120504021Y-119639500D01*
X120504018Y-119639500D01*
X117544544Y-119639500D01*
X117509896Y-119625148D01*
X117258895Y-119374147D01*
X117244543Y-119339499D01*
X117258895Y-119304851D01*
X117293543Y-119290499D01*
X117517858Y-119290499D01*
X117517864Y-119290499D01*
X117542991Y-119287585D01*
X117645765Y-119242206D01*
X117725206Y-119162765D01*
X117770585Y-119059991D01*
X117773500Y-119034865D01*
X117773499Y-117795136D01*
X117770585Y-117770009D01*
X117725206Y-117667235D01*
X117725205Y-117667234D01*
X117725205Y-117667233D01*
X117645766Y-117587794D01*
X117645767Y-117587794D01*
X117542993Y-117542415D01*
X117530428Y-117540957D01*
X117517865Y-117539500D01*
X117517863Y-117539500D01*
X116278141Y-117539500D01*
X116278131Y-117539501D01*
X116253007Y-117542415D01*
X116150233Y-117587794D01*
X116070794Y-117667233D01*
X116025415Y-117770006D01*
X116022500Y-117795134D01*
X116022500Y-118819456D01*
X116008148Y-118854104D01*
X115973500Y-118868456D01*
X115938852Y-118854104D01*
X115760906Y-118676158D01*
X115746554Y-118641510D01*
X115747494Y-118631960D01*
X115773500Y-118501229D01*
X115773500Y-118328771D01*
X115753932Y-118230394D01*
X115739857Y-118159635D01*
X115739854Y-118159624D01*
X115726036Y-118126264D01*
X115673858Y-118000295D01*
X115578045Y-117856901D01*
X115456099Y-117734955D01*
X115420469Y-117711148D01*
X115394891Y-117694057D01*
X115312705Y-117639142D01*
X115312702Y-117639140D01*
X115312701Y-117639140D01*
X115153375Y-117573145D01*
X115153364Y-117573142D01*
X114984234Y-117539500D01*
X114984229Y-117539500D01*
X114811771Y-117539500D01*
X114811765Y-117539500D01*
X114642635Y-117573142D01*
X114642624Y-117573145D01*
X114483298Y-117639140D01*
X114339901Y-117734954D01*
X114217954Y-117856901D01*
X114122140Y-118000298D01*
X114056145Y-118159624D01*
X114056142Y-118159635D01*
X114022500Y-118328765D01*
X114022500Y-118501234D01*
X114056142Y-118670364D01*
X114056145Y-118670375D01*
X114122140Y-118829701D01*
X114122142Y-118829705D01*
X114217955Y-118973099D01*
X114339901Y-119095045D01*
X114483295Y-119190858D01*
X114642626Y-119256855D01*
X114642632Y-119256856D01*
X114642635Y-119256857D01*
X114811765Y-119290499D01*
X114811768Y-119290499D01*
X114811771Y-119290500D01*
X114811772Y-119290500D01*
X114984229Y-119290500D01*
X115114952Y-119264496D01*
X115151732Y-119271812D01*
X115159158Y-119277906D01*
X115566157Y-119684905D01*
X115580509Y-119719553D01*
X115566157Y-119754201D01*
X115537906Y-119768134D01*
X115500047Y-119773118D01*
X115472670Y-119776723D01*
X115472667Y-119776723D01*
X115472657Y-119776725D01*
X115197214Y-119850530D01*
X115197204Y-119850534D01*
X114933734Y-119959667D01*
X114686766Y-120102255D01*
X114686751Y-120102265D01*
X114460520Y-120275858D01*
X114460508Y-120275868D01*
X114258868Y-120477508D01*
X114258858Y-120477520D01*
X114085265Y-120703751D01*
X114085255Y-120703766D01*
X113942667Y-120950734D01*
X113833534Y-121214204D01*
X113833530Y-121214214D01*
X113759725Y-121489658D01*
X113759723Y-121489666D01*
X113759723Y-121489670D01*
X113722500Y-121772410D01*
X113722500Y-122057590D01*
X113759723Y-122340330D01*
X113759724Y-122340334D01*
X113759725Y-122340341D01*
X113833530Y-122615785D01*
X113833534Y-122615795D01*
X113942667Y-122879265D01*
X114085255Y-123126233D01*
X114085265Y-123126248D01*
X114258858Y-123352479D01*
X114258868Y-123352491D01*
X114460508Y-123554131D01*
X114460520Y-123554141D01*
X114686751Y-123727734D01*
X114686760Y-123727740D01*
X114686764Y-123727743D01*
X114933736Y-123870333D01*
X115197208Y-123979467D01*
X115197211Y-123979467D01*
X115197214Y-123979469D01*
X115472658Y-124053274D01*
X115472659Y-124053274D01*
X115472670Y-124053277D01*
X115755410Y-124090500D01*
X115755414Y-124090500D01*
X116040586Y-124090500D01*
X116040590Y-124090500D01*
X116323330Y-124053277D01*
X116598792Y-123979467D01*
X116862264Y-123870333D01*
X117109236Y-123727743D01*
X117335485Y-123554137D01*
X117537137Y-123352485D01*
X117710743Y-123126236D01*
X117853333Y-122879264D01*
X117962467Y-122615792D01*
X117986433Y-122526352D01*
X118036274Y-122340341D01*
X118036273Y-122340341D01*
X118036277Y-122340330D01*
X118073500Y-122057590D01*
X118073500Y-121772410D01*
X118036277Y-121489670D01*
X118032216Y-121474515D01*
X117962469Y-121214214D01*
X117962465Y-121214204D01*
X117950757Y-121185939D01*
X117853333Y-120950736D01*
X117821898Y-120896290D01*
X117710744Y-120703766D01*
X117710734Y-120703751D01*
X117607589Y-120569329D01*
X117597882Y-120533104D01*
X117616634Y-120500626D01*
X117646463Y-120490500D01*
X120251456Y-120490500D01*
X120286104Y-120504852D01*
X120386737Y-120605485D01*
X120422249Y-120625988D01*
X120483760Y-120661502D01*
X120483762Y-120661502D01*
X120483763Y-120661503D01*
X120569111Y-120684371D01*
X120591978Y-120690499D01*
X120591979Y-120690500D01*
X120591982Y-120690500D01*
X120704019Y-120690500D01*
X128601456Y-120690500D01*
X128636104Y-120704852D01*
X133712104Y-125780852D01*
X133726456Y-125815500D01*
X133712104Y-125850148D01*
X133677456Y-125864500D01*
X126283352Y-125864500D01*
X126248704Y-125850148D01*
X126234352Y-125815500D01*
X126248704Y-125780852D01*
X126258852Y-125773065D01*
X126266648Y-125768564D01*
X126509224Y-125582429D01*
X126725429Y-125366224D01*
X126911564Y-125123648D01*
X127064445Y-124858852D01*
X127181454Y-124576366D01*
X127260590Y-124281025D01*
X127300500Y-123977880D01*
X127300500Y-123672120D01*
X127260590Y-123368975D01*
X127255939Y-123351619D01*
X127181455Y-123073638D01*
X127181453Y-123073632D01*
X127132490Y-122955423D01*
X127064445Y-122791148D01*
X127039743Y-122748364D01*
X126963204Y-122615795D01*
X126911564Y-122526352D01*
X126911561Y-122526348D01*
X126911555Y-122526339D01*
X126725433Y-122283781D01*
X126725423Y-122283769D01*
X126509230Y-122067576D01*
X126509218Y-122067566D01*
X126266660Y-121881444D01*
X126266645Y-121881434D01*
X126001852Y-121728555D01*
X126001853Y-121728555D01*
X125719367Y-121611546D01*
X125719361Y-121611544D01*
X125424036Y-121532412D01*
X125424029Y-121532411D01*
X125424025Y-121532410D01*
X125120880Y-121492500D01*
X124815120Y-121492500D01*
X124511975Y-121532410D01*
X124511971Y-121532410D01*
X124511963Y-121532412D01*
X124216638Y-121611544D01*
X124216632Y-121611546D01*
X123934146Y-121728555D01*
X123669354Y-121881434D01*
X123669339Y-121881444D01*
X123426781Y-122067566D01*
X123426769Y-122067576D01*
X123210576Y-122283769D01*
X123210566Y-122283781D01*
X123024444Y-122526339D01*
X123024434Y-122526354D01*
X122871555Y-122791146D01*
X122754546Y-123073632D01*
X122754544Y-123073638D01*
X122675412Y-123368963D01*
X122675410Y-123368971D01*
X122675410Y-123368975D01*
X122635500Y-123672120D01*
X122635500Y-123672123D01*
X122635500Y-123977876D01*
X122635499Y-123977876D01*
X122642666Y-124032314D01*
X122675410Y-124281025D01*
X122675411Y-124281029D01*
X122675412Y-124281036D01*
X122754544Y-124576361D01*
X122754546Y-124576367D01*
X122871555Y-124858853D01*
X123024434Y-125123645D01*
X123024444Y-125123660D01*
X123210566Y-125366218D01*
X123210576Y-125366230D01*
X123426769Y-125582423D01*
X123426781Y-125582433D01*
X123669339Y-125768555D01*
X123669354Y-125768565D01*
X123677148Y-125773065D01*
X123699978Y-125802818D01*
X123695083Y-125840000D01*
X123665330Y-125862830D01*
X123652648Y-125864500D01*
X111547500Y-125864500D01*
X111512852Y-125850148D01*
X111498500Y-125815500D01*
X111498500Y-116338663D01*
X114123000Y-116338663D01*
X114123000Y-116491332D01*
X114152780Y-116641047D01*
X114152785Y-116641066D01*
X114211203Y-116782100D01*
X114282609Y-116888967D01*
X114282610Y-116888967D01*
X114590017Y-116581559D01*
X114617930Y-116629905D01*
X114683095Y-116695070D01*
X114731439Y-116722981D01*
X114424031Y-117030388D01*
X114530903Y-117101797D01*
X114530902Y-117101797D01*
X114671933Y-117160214D01*
X114671952Y-117160219D01*
X114821663Y-117189999D01*
X114821669Y-117190000D01*
X114974331Y-117190000D01*
X114974336Y-117189999D01*
X115124047Y-117160219D01*
X115124066Y-117160214D01*
X115265096Y-117101797D01*
X115371967Y-117030388D01*
X115371967Y-117030387D01*
X115064560Y-116722981D01*
X115112905Y-116695070D01*
X115178070Y-116629905D01*
X115205981Y-116581560D01*
X115513387Y-116888967D01*
X115513388Y-116888967D01*
X115584797Y-116782096D01*
X115643214Y-116641066D01*
X115643219Y-116641047D01*
X115673000Y-116491332D01*
X115673000Y-116338670D01*
X115672454Y-116335927D01*
X115672454Y-116335923D01*
X115671030Y-116328765D01*
X116022500Y-116328765D01*
X116022500Y-116501234D01*
X116056142Y-116670364D01*
X116056145Y-116670375D01*
X116110436Y-116801444D01*
X116122142Y-116829705D01*
X116161740Y-116888967D01*
X116200370Y-116946782D01*
X116217955Y-116973099D01*
X116339901Y-117095045D01*
X116483295Y-117190858D01*
X116642626Y-117256855D01*
X116642632Y-117256856D01*
X116642635Y-117256857D01*
X116811765Y-117290499D01*
X116811768Y-117290499D01*
X116811771Y-117290500D01*
X116811772Y-117290500D01*
X116984228Y-117290500D01*
X116984229Y-117290500D01*
X117153374Y-117256855D01*
X117312705Y-117190858D01*
X117456099Y-117095045D01*
X117578045Y-116973099D01*
X117673858Y-116829705D01*
X117739855Y-116670374D01*
X117746705Y-116635939D01*
X132797500Y-116635939D01*
X132797500Y-116794060D01*
X132838422Y-116946782D01*
X132838423Y-116946786D01*
X132917475Y-117083709D01*
X132917478Y-117083713D01*
X132917480Y-117083716D01*
X133029284Y-117195520D01*
X133029287Y-117195521D01*
X133029290Y-117195524D01*
X133166213Y-117274576D01*
X133166215Y-117274576D01*
X133166216Y-117274577D01*
X133286665Y-117306851D01*
X133318939Y-117315499D01*
X133318940Y-117315500D01*
X133318943Y-117315500D01*
X133477060Y-117315500D01*
X133477060Y-117315499D01*
X133629784Y-117274577D01*
X133660482Y-117256854D01*
X133766709Y-117195524D01*
X133766708Y-117195524D01*
X133766716Y-117195520D01*
X133878520Y-117083716D01*
X133941531Y-116974577D01*
X133957576Y-116946786D01*
X133957576Y-116946785D01*
X133957577Y-116946784D01*
X133998499Y-116794060D01*
X133998500Y-116794060D01*
X133998500Y-116635940D01*
X133998499Y-116635939D01*
X133962405Y-116501234D01*
X133957577Y-116483216D01*
X133957576Y-116483215D01*
X133957576Y-116483213D01*
X133884841Y-116357231D01*
X133878524Y-116346290D01*
X133878521Y-116346287D01*
X133878520Y-116346284D01*
X133868175Y-116335939D01*
X148707500Y-116335939D01*
X148707500Y-116494060D01*
X148748422Y-116646782D01*
X148748423Y-116646786D01*
X148827475Y-116783709D01*
X148827478Y-116783713D01*
X148827480Y-116783716D01*
X148939284Y-116895520D01*
X148939287Y-116895521D01*
X148939290Y-116895524D01*
X149076213Y-116974576D01*
X149076215Y-116974576D01*
X149076216Y-116974577D01*
X149196665Y-117006851D01*
X149228939Y-117015499D01*
X149228940Y-117015500D01*
X149228943Y-117015500D01*
X149387060Y-117015500D01*
X149387060Y-117015499D01*
X149539784Y-116974577D01*
X149676716Y-116895520D01*
X149788520Y-116783716D01*
X149853957Y-116670375D01*
X149867576Y-116646786D01*
X149867576Y-116646785D01*
X149867577Y-116646784D01*
X149908499Y-116494060D01*
X149908500Y-116494060D01*
X149908500Y-116335940D01*
X149908499Y-116335939D01*
X149886925Y-116255423D01*
X149867577Y-116183216D01*
X149867576Y-116183215D01*
X149867576Y-116183213D01*
X149788524Y-116046290D01*
X149788521Y-116046287D01*
X149788520Y-116046284D01*
X149676716Y-115934480D01*
X149676713Y-115934478D01*
X149676709Y-115934475D01*
X149539786Y-115855423D01*
X149539782Y-115855422D01*
X149387060Y-115814500D01*
X149387057Y-115814500D01*
X149228943Y-115814500D01*
X149228940Y-115814500D01*
X149076217Y-115855422D01*
X149076213Y-115855423D01*
X148939290Y-115934475D01*
X148939281Y-115934482D01*
X148827482Y-116046281D01*
X148827475Y-116046290D01*
X148748423Y-116183213D01*
X148748422Y-116183217D01*
X148707500Y-116335939D01*
X133868175Y-116335939D01*
X133766716Y-116234480D01*
X133766713Y-116234478D01*
X133766709Y-116234475D01*
X133629786Y-116155423D01*
X133629782Y-116155422D01*
X133477060Y-116114500D01*
X133477057Y-116114500D01*
X133318943Y-116114500D01*
X133318940Y-116114500D01*
X133166217Y-116155422D01*
X133166213Y-116155423D01*
X133029290Y-116234475D01*
X133029281Y-116234482D01*
X132917482Y-116346281D01*
X132917475Y-116346290D01*
X132838423Y-116483213D01*
X132838422Y-116483217D01*
X132797500Y-116635939D01*
X117746705Y-116635939D01*
X117773500Y-116501229D01*
X117773500Y-116328771D01*
X117763780Y-116279905D01*
X117739857Y-116159635D01*
X117739854Y-116159624D01*
X117738114Y-116155423D01*
X117673858Y-116000295D01*
X117578045Y-115856901D01*
X117456099Y-115734955D01*
X117440567Y-115724577D01*
X117358565Y-115669785D01*
X117312705Y-115639142D01*
X117312702Y-115639140D01*
X117312701Y-115639140D01*
X117153375Y-115573145D01*
X117153364Y-115573142D01*
X116984234Y-115539500D01*
X116984229Y-115539500D01*
X116811771Y-115539500D01*
X116811765Y-115539500D01*
X116642635Y-115573142D01*
X116642624Y-115573145D01*
X116483298Y-115639140D01*
X116339901Y-115734954D01*
X116217954Y-115856901D01*
X116122140Y-116000298D01*
X116056145Y-116159624D01*
X116056142Y-116159635D01*
X116022500Y-116328765D01*
X115671030Y-116328765D01*
X115643219Y-116188952D01*
X115643214Y-116188933D01*
X115584797Y-116047903D01*
X115513388Y-115941031D01*
X115205981Y-116248438D01*
X115178070Y-116200095D01*
X115112905Y-116134930D01*
X115064559Y-116107017D01*
X115371967Y-115799610D01*
X115371967Y-115799609D01*
X115265100Y-115728203D01*
X115124066Y-115669785D01*
X115124047Y-115669780D01*
X114974336Y-115640000D01*
X114821663Y-115640000D01*
X114671952Y-115669780D01*
X114671933Y-115669785D01*
X114530899Y-115728203D01*
X114424031Y-115799610D01*
X114731439Y-116107018D01*
X114683095Y-116134930D01*
X114617930Y-116200095D01*
X114590018Y-116248439D01*
X114282610Y-115941031D01*
X114211203Y-116047899D01*
X114152785Y-116188933D01*
X114152780Y-116188952D01*
X114123000Y-116338663D01*
X111498500Y-116338663D01*
X111498500Y-110328765D01*
X114022500Y-110328765D01*
X114022500Y-110501234D01*
X114056142Y-110670364D01*
X114056145Y-110670375D01*
X114122140Y-110829701D01*
X114122142Y-110829705D01*
X114141885Y-110859252D01*
X114203978Y-110952182D01*
X114217955Y-110973099D01*
X114339901Y-111095045D01*
X114483295Y-111190858D01*
X114642626Y-111256855D01*
X114642632Y-111256856D01*
X114642635Y-111256857D01*
X114811765Y-111290499D01*
X114811768Y-111290499D01*
X114811771Y-111290500D01*
X114811772Y-111290500D01*
X114984228Y-111290500D01*
X114984229Y-111290500D01*
X115153374Y-111256855D01*
X115312705Y-111190858D01*
X115456099Y-111095045D01*
X115578045Y-110973099D01*
X115673858Y-110829705D01*
X115739855Y-110670374D01*
X115773500Y-110501229D01*
X115773500Y-110328771D01*
X115760128Y-110261543D01*
X115739857Y-110159635D01*
X115739854Y-110159624D01*
X115725312Y-110124516D01*
X115673858Y-110000295D01*
X115578045Y-109856901D01*
X115456099Y-109734955D01*
X115312705Y-109639142D01*
X115312702Y-109639140D01*
X115312701Y-109639140D01*
X115153375Y-109573145D01*
X115153364Y-109573142D01*
X114984234Y-109539500D01*
X114984229Y-109539500D01*
X114811771Y-109539500D01*
X114811765Y-109539500D01*
X114642635Y-109573142D01*
X114642624Y-109573145D01*
X114483298Y-109639140D01*
X114339901Y-109734954D01*
X114217954Y-109856901D01*
X114122140Y-110000298D01*
X114056145Y-110159624D01*
X114056142Y-110159635D01*
X114022500Y-110328765D01*
X111498500Y-110328765D01*
X111498500Y-108328765D01*
X114022500Y-108328765D01*
X114022500Y-108501234D01*
X114056142Y-108670364D01*
X114056145Y-108670375D01*
X114105206Y-108788819D01*
X114122142Y-108829705D01*
X114217955Y-108973099D01*
X114339901Y-109095045D01*
X114483295Y-109190858D01*
X114642626Y-109256855D01*
X114642632Y-109256856D01*
X114642635Y-109256857D01*
X114811765Y-109290499D01*
X114811768Y-109290499D01*
X114811771Y-109290500D01*
X114811772Y-109290500D01*
X114984228Y-109290500D01*
X114984229Y-109290500D01*
X115153374Y-109256855D01*
X115312705Y-109190858D01*
X115456099Y-109095045D01*
X115578045Y-108973099D01*
X115673858Y-108829705D01*
X115739855Y-108670374D01*
X115773500Y-108501229D01*
X115773500Y-108328771D01*
X115773499Y-108328765D01*
X116022500Y-108328765D01*
X116022500Y-108501234D01*
X116056142Y-108670364D01*
X116056145Y-108670375D01*
X116105206Y-108788819D01*
X116122142Y-108829705D01*
X116217955Y-108973099D01*
X116339901Y-109095045D01*
X116483295Y-109190858D01*
X116642626Y-109256855D01*
X116642632Y-109256856D01*
X116642635Y-109256857D01*
X116811765Y-109290499D01*
X116811768Y-109290499D01*
X116811771Y-109290500D01*
X116811772Y-109290500D01*
X116984228Y-109290500D01*
X116984229Y-109290500D01*
X117153374Y-109256855D01*
X117312705Y-109190858D01*
X117456099Y-109095045D01*
X117578045Y-108973099D01*
X117673858Y-108829705D01*
X117739855Y-108670374D01*
X117773500Y-108501229D01*
X117773500Y-108328771D01*
X117773499Y-108328765D01*
X117739857Y-108159635D01*
X117739854Y-108159624D01*
X117673858Y-108000295D01*
X117578045Y-107856901D01*
X117456099Y-107734955D01*
X117312705Y-107639142D01*
X117312702Y-107639140D01*
X117312701Y-107639140D01*
X117153375Y-107573145D01*
X117153364Y-107573142D01*
X116984234Y-107539500D01*
X116984229Y-107539500D01*
X116811771Y-107539500D01*
X116811765Y-107539500D01*
X116642635Y-107573142D01*
X116642624Y-107573145D01*
X116483298Y-107639140D01*
X116339901Y-107734954D01*
X116217954Y-107856901D01*
X116122140Y-108000298D01*
X116056145Y-108159624D01*
X116056142Y-108159635D01*
X116022500Y-108328765D01*
X115773499Y-108328765D01*
X115739857Y-108159635D01*
X115739854Y-108159624D01*
X115673858Y-108000295D01*
X115578045Y-107856901D01*
X115456099Y-107734955D01*
X115312705Y-107639142D01*
X115312702Y-107639140D01*
X115312701Y-107639140D01*
X115153375Y-107573145D01*
X115153364Y-107573142D01*
X114984234Y-107539500D01*
X114984229Y-107539500D01*
X114811771Y-107539500D01*
X114811765Y-107539500D01*
X114642635Y-107573142D01*
X114642624Y-107573145D01*
X114483298Y-107639140D01*
X114339901Y-107734954D01*
X114217954Y-107856901D01*
X114122140Y-108000298D01*
X114056145Y-108159624D01*
X114056142Y-108159635D01*
X114022500Y-108328765D01*
X111498500Y-108328765D01*
X111498500Y-89135939D01*
X112747500Y-89135939D01*
X112747500Y-89294060D01*
X112788422Y-89446782D01*
X112788423Y-89446786D01*
X112867475Y-89583709D01*
X112867478Y-89583713D01*
X112867480Y-89583716D01*
X112979284Y-89695520D01*
X112979287Y-89695521D01*
X112979290Y-89695524D01*
X113116213Y-89774576D01*
X113116215Y-89774576D01*
X113116216Y-89774577D01*
X113236665Y-89806851D01*
X113268939Y-89815499D01*
X113268940Y-89815500D01*
X113268943Y-89815500D01*
X113427060Y-89815500D01*
X113427060Y-89815499D01*
X113579784Y-89774577D01*
X113585724Y-89771148D01*
X113716709Y-89695524D01*
X113716708Y-89695524D01*
X113716716Y-89695520D01*
X113828520Y-89583716D01*
X113902589Y-89455423D01*
X113907576Y-89446786D01*
X113907576Y-89446785D01*
X113907577Y-89446784D01*
X113948499Y-89294060D01*
X113948500Y-89294060D01*
X113948500Y-89135940D01*
X113948499Y-89135939D01*
X113907577Y-88983217D01*
X113907576Y-88983213D01*
X113828524Y-88846290D01*
X113828521Y-88846287D01*
X113828520Y-88846284D01*
X113716716Y-88734480D01*
X113716713Y-88734478D01*
X113716709Y-88734475D01*
X113579786Y-88655423D01*
X113579782Y-88655422D01*
X113427060Y-88614500D01*
X113427057Y-88614500D01*
X113268943Y-88614500D01*
X113268940Y-88614500D01*
X113116217Y-88655422D01*
X113116213Y-88655423D01*
X112979290Y-88734475D01*
X112979281Y-88734482D01*
X112867482Y-88846281D01*
X112867475Y-88846290D01*
X112788423Y-88983213D01*
X112788422Y-88983217D01*
X112747500Y-89135939D01*
X111498500Y-89135939D01*
X111498500Y-84979689D01*
X126091250Y-84979689D01*
X126091250Y-85137810D01*
X126132172Y-85290532D01*
X126132173Y-85290536D01*
X126211225Y-85427459D01*
X126211228Y-85427463D01*
X126211230Y-85427466D01*
X126323034Y-85539270D01*
X126323037Y-85539271D01*
X126323040Y-85539274D01*
X126459963Y-85618326D01*
X126459965Y-85618326D01*
X126459966Y-85618327D01*
X126580415Y-85650601D01*
X126612689Y-85659249D01*
X126612690Y-85659250D01*
X126612693Y-85659250D01*
X126770810Y-85659250D01*
X126770810Y-85659249D01*
X126923534Y-85618327D01*
X127060466Y-85539270D01*
X127172270Y-85427466D01*
X127251327Y-85290534D01*
X127292249Y-85137810D01*
X127292250Y-85137810D01*
X127292250Y-84979690D01*
X127292249Y-84979689D01*
X127251327Y-84826967D01*
X127251326Y-84826963D01*
X127172274Y-84690040D01*
X127172271Y-84690037D01*
X127172270Y-84690034D01*
X127060466Y-84578230D01*
X127060463Y-84578228D01*
X127060459Y-84578225D01*
X126923536Y-84499173D01*
X126923532Y-84499172D01*
X126770810Y-84458250D01*
X126770807Y-84458250D01*
X126612693Y-84458250D01*
X126612690Y-84458250D01*
X126459967Y-84499172D01*
X126459963Y-84499173D01*
X126323040Y-84578225D01*
X126323031Y-84578232D01*
X126211232Y-84690031D01*
X126211225Y-84690040D01*
X126132173Y-84826963D01*
X126132172Y-84826967D01*
X126091250Y-84979689D01*
X111498500Y-84979689D01*
X111498500Y-83535939D01*
X154247500Y-83535939D01*
X154247500Y-83694060D01*
X154288422Y-83846782D01*
X154288423Y-83846786D01*
X154367475Y-83983709D01*
X154367478Y-83983713D01*
X154367480Y-83983716D01*
X154479284Y-84095520D01*
X154479287Y-84095521D01*
X154479290Y-84095524D01*
X154616213Y-84174576D01*
X154616215Y-84174576D01*
X154616216Y-84174577D01*
X154736665Y-84206851D01*
X154768939Y-84215499D01*
X154768940Y-84215500D01*
X154768943Y-84215500D01*
X154927060Y-84215500D01*
X154927060Y-84215499D01*
X155079784Y-84174577D01*
X155216716Y-84095520D01*
X155328520Y-83983716D01*
X155407577Y-83846784D01*
X155448499Y-83694060D01*
X155448500Y-83694060D01*
X155448500Y-83535940D01*
X155448499Y-83535939D01*
X155407577Y-83383217D01*
X155407576Y-83383213D01*
X155328524Y-83246290D01*
X155328521Y-83246287D01*
X155328520Y-83246284D01*
X155216716Y-83134480D01*
X155216713Y-83134478D01*
X155216709Y-83134475D01*
X155079786Y-83055423D01*
X155079782Y-83055422D01*
X154927060Y-83014500D01*
X154927057Y-83014500D01*
X154768943Y-83014500D01*
X154768940Y-83014500D01*
X154616217Y-83055422D01*
X154616213Y-83055423D01*
X154479290Y-83134475D01*
X154479281Y-83134482D01*
X154367482Y-83246281D01*
X154367475Y-83246290D01*
X154288423Y-83383213D01*
X154288422Y-83383217D01*
X154247500Y-83535939D01*
X111498500Y-83535939D01*
X111498500Y-79735939D01*
X130647500Y-79735939D01*
X130647500Y-79894060D01*
X130688422Y-80046782D01*
X130688423Y-80046786D01*
X130767475Y-80183709D01*
X130767478Y-80183713D01*
X130767480Y-80183716D01*
X130879284Y-80295520D01*
X130879287Y-80295521D01*
X130879290Y-80295524D01*
X131016213Y-80374576D01*
X131016215Y-80374576D01*
X131016216Y-80374577D01*
X131136665Y-80406851D01*
X131168939Y-80415499D01*
X131168940Y-80415500D01*
X131168943Y-80415500D01*
X131327060Y-80415500D01*
X131327060Y-80415499D01*
X131479784Y-80374577D01*
X131616716Y-80295520D01*
X131728520Y-80183716D01*
X131807577Y-80046784D01*
X131848499Y-79894060D01*
X131848500Y-79894060D01*
X131848500Y-79735940D01*
X131848499Y-79735939D01*
X131820974Y-79633216D01*
X131807577Y-79583216D01*
X131807576Y-79583215D01*
X131807576Y-79583213D01*
X131728524Y-79446290D01*
X131728521Y-79446287D01*
X131728520Y-79446284D01*
X131616716Y-79334480D01*
X131616713Y-79334478D01*
X131616709Y-79334475D01*
X131479786Y-79255423D01*
X131479782Y-79255422D01*
X131327060Y-79214500D01*
X131327057Y-79214500D01*
X131168943Y-79214500D01*
X131168940Y-79214500D01*
X131016217Y-79255422D01*
X131016213Y-79255423D01*
X130879290Y-79334475D01*
X130879281Y-79334482D01*
X130767482Y-79446281D01*
X130767475Y-79446290D01*
X130688423Y-79583213D01*
X130688422Y-79583217D01*
X130647500Y-79735939D01*
X111498500Y-79735939D01*
X111498500Y-78785939D01*
X112947500Y-78785939D01*
X112947500Y-78944060D01*
X112988422Y-79096782D01*
X112988423Y-79096786D01*
X113067475Y-79233709D01*
X113067478Y-79233713D01*
X113067480Y-79233716D01*
X113179284Y-79345520D01*
X113179287Y-79345521D01*
X113179290Y-79345524D01*
X113316213Y-79424576D01*
X113316215Y-79424576D01*
X113316216Y-79424577D01*
X113397217Y-79446281D01*
X113468939Y-79465499D01*
X113468940Y-79465500D01*
X113468943Y-79465500D01*
X113627060Y-79465500D01*
X113627060Y-79465499D01*
X113779784Y-79424577D01*
X113916716Y-79345520D01*
X114028520Y-79233716D01*
X114107577Y-79096784D01*
X114148499Y-78944060D01*
X114148500Y-78944060D01*
X114148500Y-78785940D01*
X114148499Y-78785939D01*
X123747500Y-78785939D01*
X123747500Y-78944060D01*
X123788422Y-79096782D01*
X123788423Y-79096786D01*
X123867475Y-79233709D01*
X123867478Y-79233713D01*
X123867480Y-79233716D01*
X123979284Y-79345520D01*
X123979287Y-79345521D01*
X123979290Y-79345524D01*
X124116213Y-79424576D01*
X124116215Y-79424576D01*
X124116216Y-79424577D01*
X124197217Y-79446281D01*
X124268939Y-79465499D01*
X124268940Y-79465500D01*
X124268943Y-79465500D01*
X124427060Y-79465500D01*
X124427060Y-79465499D01*
X124579784Y-79424577D01*
X124716716Y-79345520D01*
X124828520Y-79233716D01*
X124907577Y-79096784D01*
X124948499Y-78944060D01*
X124948500Y-78944060D01*
X124948500Y-78785940D01*
X124910845Y-78645413D01*
X124908307Y-78635939D01*
X135997500Y-78635939D01*
X135997500Y-78794060D01*
X136038422Y-78946782D01*
X136038423Y-78946786D01*
X136117475Y-79083709D01*
X136117478Y-79083713D01*
X136117480Y-79083716D01*
X136229284Y-79195520D01*
X136229287Y-79195521D01*
X136229290Y-79195524D01*
X136319428Y-79247565D01*
X136342258Y-79277318D01*
X136337363Y-79314500D01*
X136319428Y-79332435D01*
X136229290Y-79384475D01*
X136229281Y-79384482D01*
X136117482Y-79496281D01*
X136117475Y-79496290D01*
X136038423Y-79633213D01*
X136038422Y-79633217D01*
X135997500Y-79785939D01*
X135997500Y-79944060D01*
X136038422Y-80096782D01*
X136038423Y-80096786D01*
X136117475Y-80233709D01*
X136117478Y-80233713D01*
X136117480Y-80233716D01*
X136229284Y-80345520D01*
X136229287Y-80345521D01*
X136229290Y-80345524D01*
X136366213Y-80424576D01*
X136366215Y-80424576D01*
X136366216Y-80424577D01*
X136486665Y-80456851D01*
X136518939Y-80465499D01*
X136518940Y-80465500D01*
X136518943Y-80465500D01*
X136677060Y-80465500D01*
X136677060Y-80465499D01*
X136829784Y-80424577D01*
X136966716Y-80345520D01*
X137078520Y-80233716D01*
X137157577Y-80096784D01*
X137198499Y-79944060D01*
X137198500Y-79944060D01*
X137198500Y-79785940D01*
X137198499Y-79785939D01*
X137157577Y-79633217D01*
X137157576Y-79633213D01*
X137078524Y-79496290D01*
X137078521Y-79496287D01*
X137078520Y-79496284D01*
X136966716Y-79384480D01*
X136876568Y-79332433D01*
X136853740Y-79302683D01*
X136858634Y-79265500D01*
X136876566Y-79247567D01*
X136966716Y-79195520D01*
X137078520Y-79083716D01*
X137136253Y-78983718D01*
X137157576Y-78946786D01*
X137157576Y-78946785D01*
X137157577Y-78946784D01*
X137198499Y-78794060D01*
X137198500Y-78794060D01*
X137198500Y-78635940D01*
X137198499Y-78635939D01*
X137161080Y-78496290D01*
X137157577Y-78483216D01*
X137157576Y-78483215D01*
X137157576Y-78483213D01*
X137078524Y-78346290D01*
X137078521Y-78346287D01*
X137078520Y-78346284D01*
X136966716Y-78234480D01*
X136966713Y-78234478D01*
X136966709Y-78234475D01*
X136829786Y-78155423D01*
X136829782Y-78155422D01*
X136677060Y-78114500D01*
X136677057Y-78114500D01*
X136518943Y-78114500D01*
X136518940Y-78114500D01*
X136366217Y-78155422D01*
X136366213Y-78155423D01*
X136229290Y-78234475D01*
X136229281Y-78234482D01*
X136117482Y-78346281D01*
X136117475Y-78346290D01*
X136038423Y-78483213D01*
X136038422Y-78483217D01*
X135997500Y-78635939D01*
X124908307Y-78635939D01*
X124907577Y-78633216D01*
X124888334Y-78599886D01*
X124828524Y-78496290D01*
X124828521Y-78496287D01*
X124828520Y-78496284D01*
X124716716Y-78384480D01*
X124716713Y-78384478D01*
X124716709Y-78384475D01*
X124579786Y-78305423D01*
X124579782Y-78305422D01*
X124427060Y-78264500D01*
X124427057Y-78264500D01*
X124268943Y-78264500D01*
X124268940Y-78264500D01*
X124116217Y-78305422D01*
X124116213Y-78305423D01*
X123979290Y-78384475D01*
X123979281Y-78384482D01*
X123867482Y-78496281D01*
X123867475Y-78496290D01*
X123788423Y-78633213D01*
X123788422Y-78633217D01*
X123747500Y-78785939D01*
X114148499Y-78785939D01*
X114110845Y-78645412D01*
X114107577Y-78633216D01*
X114107576Y-78633215D01*
X114107576Y-78633213D01*
X114028524Y-78496290D01*
X114028521Y-78496287D01*
X114028520Y-78496284D01*
X113916716Y-78384480D01*
X113916713Y-78384478D01*
X113916709Y-78384475D01*
X113779786Y-78305423D01*
X113779782Y-78305422D01*
X113627060Y-78264500D01*
X113627057Y-78264500D01*
X113468943Y-78264500D01*
X113468940Y-78264500D01*
X113316217Y-78305422D01*
X113316213Y-78305423D01*
X113179290Y-78384475D01*
X113179281Y-78384482D01*
X113067482Y-78496281D01*
X113067475Y-78496290D01*
X112988423Y-78633213D01*
X112988422Y-78633217D01*
X112947500Y-78785939D01*
X111498500Y-78785939D01*
X111498500Y-77485939D01*
X114247500Y-77485939D01*
X114247500Y-77644060D01*
X114288422Y-77796782D01*
X114288423Y-77796786D01*
X114367475Y-77933709D01*
X114367478Y-77933713D01*
X114367480Y-77933716D01*
X114479284Y-78045520D01*
X114479287Y-78045521D01*
X114479290Y-78045524D01*
X114616213Y-78124576D01*
X114616215Y-78124576D01*
X114616216Y-78124577D01*
X114731331Y-78155422D01*
X114768939Y-78165499D01*
X114768940Y-78165500D01*
X114768943Y-78165500D01*
X114927060Y-78165500D01*
X114927060Y-78165499D01*
X115079784Y-78124577D01*
X115216716Y-78045520D01*
X115328520Y-77933716D01*
X115407577Y-77796784D01*
X115448499Y-77644060D01*
X115448500Y-77644060D01*
X115448500Y-77485940D01*
X115448499Y-77485939D01*
X115407577Y-77333217D01*
X115407576Y-77333213D01*
X115328524Y-77196290D01*
X115328521Y-77196287D01*
X115328520Y-77196284D01*
X115216716Y-77084480D01*
X115216713Y-77084478D01*
X115216709Y-77084475D01*
X115079786Y-77005423D01*
X115079782Y-77005422D01*
X114927060Y-76964500D01*
X114927057Y-76964500D01*
X114768943Y-76964500D01*
X114768940Y-76964500D01*
X114616217Y-77005422D01*
X114616213Y-77005423D01*
X114479290Y-77084475D01*
X114479281Y-77084482D01*
X114367482Y-77196281D01*
X114367475Y-77196290D01*
X114288423Y-77333213D01*
X114288422Y-77333217D01*
X114247500Y-77485939D01*
X111498500Y-77485939D01*
X111498500Y-73574500D01*
X111512852Y-73539852D01*
X111547500Y-73525500D01*
X124922648Y-73525500D01*
X124957296Y-73539852D01*
G37*
G04 #@! TD.AperFunction*
G04 #@! TA.AperFunction,Conductor*
G36*
X176832148Y-86480962D02*
G01*
X179063148Y-88711962D01*
X179077500Y-88746610D01*
X179077500Y-89489647D01*
X179063148Y-89524295D01*
X179028500Y-89538647D01*
X178993852Y-89524295D01*
X178986066Y-89514149D01*
X178981565Y-89506354D01*
X178981555Y-89506339D01*
X178795433Y-89263781D01*
X178795423Y-89263769D01*
X178579230Y-89047576D01*
X178579218Y-89047566D01*
X178336660Y-88861444D01*
X178336645Y-88861434D01*
X178071852Y-88708555D01*
X178071853Y-88708555D01*
X177789367Y-88591546D01*
X177789361Y-88591544D01*
X177494036Y-88512412D01*
X177494029Y-88512411D01*
X177494025Y-88512410D01*
X177190880Y-88472500D01*
X176885120Y-88472500D01*
X176581975Y-88512410D01*
X176581971Y-88512410D01*
X176581963Y-88512412D01*
X176286638Y-88591544D01*
X176286632Y-88591546D01*
X176004146Y-88708555D01*
X175739354Y-88861434D01*
X175739339Y-88861444D01*
X175496781Y-89047566D01*
X175496769Y-89047576D01*
X175280576Y-89263769D01*
X175280566Y-89263781D01*
X175094444Y-89506339D01*
X175094434Y-89506354D01*
X174941555Y-89771146D01*
X174824546Y-90053632D01*
X174824544Y-90053638D01*
X174745412Y-90348963D01*
X174745410Y-90348971D01*
X174745410Y-90348975D01*
X174707989Y-90633216D01*
X174705500Y-90652123D01*
X174705500Y-90957876D01*
X174705499Y-90957876D01*
X174705500Y-90957880D01*
X174745410Y-91261025D01*
X174745411Y-91261029D01*
X174745412Y-91261036D01*
X174824544Y-91556361D01*
X174824546Y-91556367D01*
X174941555Y-91838853D01*
X175094434Y-92103645D01*
X175094444Y-92103660D01*
X175280566Y-92346218D01*
X175280576Y-92346230D01*
X175496769Y-92562423D01*
X175496781Y-92562433D01*
X175739339Y-92748555D01*
X175739348Y-92748561D01*
X175739352Y-92748564D01*
X176004148Y-92901445D01*
X176286634Y-93018454D01*
X176286638Y-93018455D01*
X176581963Y-93097587D01*
X176581964Y-93097587D01*
X176581975Y-93097590D01*
X176885120Y-93137500D01*
X176885123Y-93137500D01*
X177190876Y-93137500D01*
X177190880Y-93137500D01*
X177494025Y-93097590D01*
X177789366Y-93018454D01*
X178071852Y-92901445D01*
X178336648Y-92748564D01*
X178579224Y-92562429D01*
X178795429Y-92346224D01*
X178956783Y-92135943D01*
X178981555Y-92103660D01*
X178981556Y-92103657D01*
X178981564Y-92103648D01*
X178986064Y-92095852D01*
X179015816Y-92073021D01*
X179052998Y-92077915D01*
X179075830Y-92107667D01*
X179077500Y-92120351D01*
X179077500Y-117429647D01*
X179063148Y-117464295D01*
X179028500Y-117478647D01*
X178993852Y-117464295D01*
X178986066Y-117454149D01*
X178981565Y-117446354D01*
X178981555Y-117446339D01*
X178795433Y-117203781D01*
X178795423Y-117203769D01*
X178579230Y-116987576D01*
X178579218Y-116987566D01*
X178336660Y-116801444D01*
X178336645Y-116801434D01*
X178071852Y-116648555D01*
X178071853Y-116648555D01*
X177789367Y-116531546D01*
X177789361Y-116531544D01*
X177494036Y-116452412D01*
X177494029Y-116452411D01*
X177494025Y-116452410D01*
X177190880Y-116412500D01*
X176885120Y-116412500D01*
X176581975Y-116452410D01*
X176581971Y-116452410D01*
X176581963Y-116452412D01*
X176286638Y-116531544D01*
X176286632Y-116531546D01*
X176004146Y-116648555D01*
X175739354Y-116801434D01*
X175739339Y-116801444D01*
X175496781Y-116987566D01*
X175496769Y-116987576D01*
X175280576Y-117203769D01*
X175280566Y-117203781D01*
X175094444Y-117446339D01*
X175094434Y-117446354D01*
X174941555Y-117711146D01*
X174824546Y-117993632D01*
X174824544Y-117993638D01*
X174745412Y-118288963D01*
X174745410Y-118288971D01*
X174745410Y-118288975D01*
X174712199Y-118541237D01*
X174705500Y-118592123D01*
X174705500Y-118897876D01*
X174705499Y-118897876D01*
X174723928Y-119037860D01*
X174745410Y-119201025D01*
X174745411Y-119201029D01*
X174745412Y-119201036D01*
X174824544Y-119496361D01*
X174824546Y-119496367D01*
X174941555Y-119778853D01*
X175094434Y-120043645D01*
X175094444Y-120043660D01*
X175280566Y-120286218D01*
X175280576Y-120286230D01*
X175496769Y-120502423D01*
X175496781Y-120502433D01*
X175739339Y-120688555D01*
X175739348Y-120688561D01*
X175739352Y-120688564D01*
X176004148Y-120841445D01*
X176286634Y-120958454D01*
X176286638Y-120958455D01*
X176581963Y-121037587D01*
X176581964Y-121037587D01*
X176581975Y-121037590D01*
X176885120Y-121077500D01*
X176885123Y-121077500D01*
X177190876Y-121077500D01*
X177190880Y-121077500D01*
X177494025Y-121037590D01*
X177789366Y-120958454D01*
X178071852Y-120841445D01*
X178336648Y-120688564D01*
X178579224Y-120502429D01*
X178795429Y-120286224D01*
X178981564Y-120043648D01*
X178986064Y-120035852D01*
X179015816Y-120013021D01*
X179052998Y-120017915D01*
X179075830Y-120047667D01*
X179077500Y-120060351D01*
X179077500Y-121057390D01*
X179063148Y-121092038D01*
X176637501Y-123517685D01*
X176637500Y-123517685D01*
X176571608Y-123631811D01*
X176571607Y-123631815D01*
X176537500Y-123759104D01*
X176537500Y-125815500D01*
X176523148Y-125850148D01*
X176488500Y-125864500D01*
X170638544Y-125864500D01*
X170603896Y-125850148D01*
X170589544Y-125815500D01*
X170603896Y-125780852D01*
X170802324Y-125582423D01*
X171364997Y-125019748D01*
X171399644Y-125005397D01*
X171421889Y-125010737D01*
X171511141Y-125056214D01*
X171685406Y-125112836D01*
X171866383Y-125141500D01*
X171866384Y-125141500D01*
X172049616Y-125141500D01*
X172049617Y-125141500D01*
X172230594Y-125112836D01*
X172404859Y-125056214D01*
X172568122Y-124973028D01*
X172716360Y-124865326D01*
X172845926Y-124735760D01*
X172953628Y-124587522D01*
X173036814Y-124424259D01*
X173093436Y-124249994D01*
X173122100Y-124069017D01*
X173122100Y-123580983D01*
X173333900Y-123580983D01*
X173333900Y-124069016D01*
X173362563Y-124249991D01*
X173362564Y-124249994D01*
X173419186Y-124424260D01*
X173502368Y-124587516D01*
X173502371Y-124587520D01*
X173502372Y-124587522D01*
X173610074Y-124735760D01*
X173610076Y-124735762D01*
X173610079Y-124735766D01*
X173739633Y-124865320D01*
X173739636Y-124865322D01*
X173739640Y-124865326D01*
X173887878Y-124973028D01*
X173887880Y-124973029D01*
X173887883Y-124973031D01*
X174051139Y-125056213D01*
X174051141Y-125056214D01*
X174225406Y-125112836D01*
X174406383Y-125141500D01*
X174406384Y-125141500D01*
X174589616Y-125141500D01*
X174589617Y-125141500D01*
X174770594Y-125112836D01*
X174944859Y-125056214D01*
X175108122Y-124973028D01*
X175256360Y-124865326D01*
X175385926Y-124735760D01*
X175493628Y-124587522D01*
X175576814Y-124424259D01*
X175633436Y-124249994D01*
X175662100Y-124069017D01*
X175662100Y-123580983D01*
X175633436Y-123400006D01*
X175576814Y-123225741D01*
X175576813Y-123225739D01*
X175493631Y-123062483D01*
X175493629Y-123062480D01*
X175493628Y-123062478D01*
X175385926Y-122914240D01*
X175385922Y-122914236D01*
X175385920Y-122914233D01*
X175256366Y-122784679D01*
X175256362Y-122784676D01*
X175256360Y-122784674D01*
X175108122Y-122676972D01*
X175108120Y-122676971D01*
X175108116Y-122676968D01*
X174944860Y-122593786D01*
X174770594Y-122537164D01*
X174770591Y-122537163D01*
X174627594Y-122514515D01*
X174589617Y-122508500D01*
X174406383Y-122508500D01*
X174372325Y-122513894D01*
X174225408Y-122537163D01*
X174225405Y-122537164D01*
X174051139Y-122593786D01*
X173887883Y-122676968D01*
X173739633Y-122784679D01*
X173610079Y-122914233D01*
X173502368Y-123062483D01*
X173419186Y-123225739D01*
X173362564Y-123400005D01*
X173362563Y-123400008D01*
X173333900Y-123580983D01*
X173122100Y-123580983D01*
X173093436Y-123400006D01*
X173036814Y-123225741D01*
X173036813Y-123225739D01*
X172953631Y-123062483D01*
X172953629Y-123062480D01*
X172953628Y-123062478D01*
X172845926Y-122914240D01*
X172845922Y-122914236D01*
X172845920Y-122914233D01*
X172716366Y-122784679D01*
X172716362Y-122784676D01*
X172716360Y-122784674D01*
X172568122Y-122676972D01*
X172568120Y-122676971D01*
X172568116Y-122676968D01*
X172404860Y-122593786D01*
X172230594Y-122537164D01*
X172230591Y-122537163D01*
X172087594Y-122514515D01*
X172049617Y-122508500D01*
X171866383Y-122508500D01*
X171832325Y-122513894D01*
X171685408Y-122537163D01*
X171685405Y-122537164D01*
X171511139Y-122593786D01*
X171347883Y-122676968D01*
X171199633Y-122784679D01*
X171070079Y-122914233D01*
X170962368Y-123062483D01*
X170879186Y-123225739D01*
X170822564Y-123400005D01*
X170822563Y-123400008D01*
X170793900Y-123580983D01*
X170793900Y-124069016D01*
X170822563Y-124249991D01*
X170822565Y-124249998D01*
X170839940Y-124303475D01*
X170836997Y-124340862D01*
X170827986Y-124353264D01*
X170156104Y-125025148D01*
X170121456Y-125039500D01*
X170087437Y-125039500D01*
X170052789Y-125025148D01*
X170038437Y-124990500D01*
X170052789Y-124955852D01*
X170058628Y-124950863D01*
X170176360Y-124865326D01*
X170305926Y-124735760D01*
X170413628Y-124587522D01*
X170496814Y-124424259D01*
X170553436Y-124249994D01*
X170582100Y-124069017D01*
X170582100Y-123580983D01*
X170553436Y-123400006D01*
X170496814Y-123225741D01*
X170496813Y-123225739D01*
X170413631Y-123062483D01*
X170413629Y-123062480D01*
X170413628Y-123062478D01*
X170305926Y-122914240D01*
X170305922Y-122914236D01*
X170305920Y-122914233D01*
X170176366Y-122784679D01*
X170176362Y-122784676D01*
X170176360Y-122784674D01*
X170028122Y-122676972D01*
X170028120Y-122676971D01*
X170028116Y-122676968D01*
X169864860Y-122593786D01*
X169690594Y-122537164D01*
X169690591Y-122537163D01*
X169547594Y-122514515D01*
X169509617Y-122508500D01*
X169326383Y-122508500D01*
X169292325Y-122513894D01*
X169145408Y-122537163D01*
X169145405Y-122537164D01*
X168971139Y-122593786D01*
X168807883Y-122676968D01*
X168659633Y-122784679D01*
X168530079Y-122914233D01*
X168422368Y-123062483D01*
X168339186Y-123225739D01*
X168282564Y-123400005D01*
X168282563Y-123400008D01*
X168253900Y-123580983D01*
X168253900Y-124069016D01*
X168282563Y-124249991D01*
X168282564Y-124249994D01*
X168339186Y-124424260D01*
X168422368Y-124587516D01*
X168422371Y-124587520D01*
X168422372Y-124587522D01*
X168530074Y-124735760D01*
X168530076Y-124735762D01*
X168530079Y-124735766D01*
X168659633Y-124865320D01*
X168659636Y-124865322D01*
X168659640Y-124865326D01*
X168777365Y-124950859D01*
X168796960Y-124982835D01*
X168788205Y-125019302D01*
X168756228Y-125038897D01*
X168748563Y-125039500D01*
X167547437Y-125039500D01*
X167512789Y-125025148D01*
X167498437Y-124990500D01*
X167512789Y-124955852D01*
X167518628Y-124950863D01*
X167636360Y-124865326D01*
X167765926Y-124735760D01*
X167873628Y-124587522D01*
X167956814Y-124424259D01*
X168013436Y-124249994D01*
X168042100Y-124069017D01*
X168042100Y-123580983D01*
X168013436Y-123400006D01*
X167956814Y-123225741D01*
X167956813Y-123225739D01*
X167873631Y-123062483D01*
X167873629Y-123062480D01*
X167873628Y-123062478D01*
X167765926Y-122914240D01*
X167765922Y-122914236D01*
X167765920Y-122914233D01*
X167636366Y-122784679D01*
X167636362Y-122784676D01*
X167636360Y-122784674D01*
X167488122Y-122676972D01*
X167488120Y-122676971D01*
X167488116Y-122676968D01*
X167324860Y-122593786D01*
X167150594Y-122537164D01*
X167150591Y-122537163D01*
X167007594Y-122514515D01*
X166969617Y-122508500D01*
X166786383Y-122508500D01*
X166752325Y-122513894D01*
X166605408Y-122537163D01*
X166605405Y-122537164D01*
X166431139Y-122593786D01*
X166267883Y-122676968D01*
X166119633Y-122784679D01*
X165990079Y-122914233D01*
X165882368Y-123062483D01*
X165799186Y-123225739D01*
X165742564Y-123400005D01*
X165742563Y-123400008D01*
X165713900Y-123580983D01*
X165713900Y-124069016D01*
X165742563Y-124249991D01*
X165742564Y-124249994D01*
X165799186Y-124424260D01*
X165882368Y-124587516D01*
X165882371Y-124587520D01*
X165882372Y-124587522D01*
X165990074Y-124735760D01*
X165990076Y-124735762D01*
X165990079Y-124735766D01*
X166119633Y-124865320D01*
X166119636Y-124865322D01*
X166119640Y-124865326D01*
X166237365Y-124950859D01*
X166256960Y-124982835D01*
X166248205Y-125019302D01*
X166216228Y-125038897D01*
X166208563Y-125039500D01*
X165007437Y-125039500D01*
X164972789Y-125025148D01*
X164958437Y-124990500D01*
X164972789Y-124955852D01*
X164978628Y-124950863D01*
X165096360Y-124865326D01*
X165225926Y-124735760D01*
X165333628Y-124587522D01*
X165416814Y-124424259D01*
X165473436Y-124249994D01*
X165502100Y-124069017D01*
X165502100Y-123580983D01*
X165473436Y-123400006D01*
X165416814Y-123225741D01*
X165416813Y-123225739D01*
X165333631Y-123062483D01*
X165333629Y-123062480D01*
X165333628Y-123062478D01*
X165225926Y-122914240D01*
X165225922Y-122914236D01*
X165225920Y-122914233D01*
X165096366Y-122784679D01*
X165096362Y-122784676D01*
X165096360Y-122784674D01*
X164948122Y-122676972D01*
X164948120Y-122676971D01*
X164948116Y-122676968D01*
X164784860Y-122593786D01*
X164610594Y-122537164D01*
X164610591Y-122537163D01*
X164467594Y-122514515D01*
X164429617Y-122508500D01*
X164246383Y-122508500D01*
X164212325Y-122513894D01*
X164065408Y-122537163D01*
X164065405Y-122537164D01*
X163891139Y-122593786D01*
X163727883Y-122676968D01*
X163579633Y-122784679D01*
X163450079Y-122914233D01*
X163342368Y-123062483D01*
X163259186Y-123225739D01*
X163202564Y-123400005D01*
X163202563Y-123400008D01*
X163173900Y-123580983D01*
X163173900Y-124069016D01*
X163202563Y-124249991D01*
X163202564Y-124249994D01*
X163259186Y-124424260D01*
X163342368Y-124587516D01*
X163342371Y-124587520D01*
X163342372Y-124587522D01*
X163450074Y-124735760D01*
X163450076Y-124735762D01*
X163450079Y-124735766D01*
X163579633Y-124865320D01*
X163579636Y-124865322D01*
X163579640Y-124865326D01*
X163697365Y-124950859D01*
X163716960Y-124982835D01*
X163708205Y-125019302D01*
X163676228Y-125038897D01*
X163668563Y-125039500D01*
X162467437Y-125039500D01*
X162432789Y-125025148D01*
X162418437Y-124990500D01*
X162432789Y-124955852D01*
X162438628Y-124950863D01*
X162556360Y-124865326D01*
X162685926Y-124735760D01*
X162793628Y-124587522D01*
X162876814Y-124424259D01*
X162933436Y-124249994D01*
X162962100Y-124069017D01*
X162962100Y-123580983D01*
X162933436Y-123400006D01*
X162876814Y-123225741D01*
X162876813Y-123225739D01*
X162793631Y-123062483D01*
X162793629Y-123062480D01*
X162793628Y-123062478D01*
X162685926Y-122914240D01*
X162685922Y-122914236D01*
X162685920Y-122914233D01*
X162556366Y-122784679D01*
X162556362Y-122784676D01*
X162556360Y-122784674D01*
X162408122Y-122676972D01*
X162408120Y-122676971D01*
X162408116Y-122676968D01*
X162244860Y-122593786D01*
X162070594Y-122537164D01*
X162070591Y-122537163D01*
X161927594Y-122514515D01*
X161889617Y-122508500D01*
X161706383Y-122508500D01*
X161672325Y-122513894D01*
X161525408Y-122537163D01*
X161525405Y-122537164D01*
X161351139Y-122593786D01*
X161187883Y-122676968D01*
X161039633Y-122784679D01*
X160910079Y-122914233D01*
X160802368Y-123062483D01*
X160719186Y-123225739D01*
X160662564Y-123400005D01*
X160662563Y-123400008D01*
X160633900Y-123580983D01*
X160633900Y-124069016D01*
X160662563Y-124249991D01*
X160662564Y-124249994D01*
X160719186Y-124424260D01*
X160802368Y-124587516D01*
X160802371Y-124587520D01*
X160802372Y-124587522D01*
X160910074Y-124735760D01*
X160910076Y-124735762D01*
X160910079Y-124735766D01*
X161039633Y-124865320D01*
X161039636Y-124865322D01*
X161039640Y-124865326D01*
X161157365Y-124950859D01*
X161176960Y-124982835D01*
X161168205Y-125019302D01*
X161136228Y-125038897D01*
X161128563Y-125039500D01*
X157387437Y-125039500D01*
X157352789Y-125025148D01*
X157338437Y-124990500D01*
X157352789Y-124955852D01*
X157358628Y-124950863D01*
X157476360Y-124865326D01*
X157605926Y-124735760D01*
X157713628Y-124587522D01*
X157796814Y-124424259D01*
X157853436Y-124249994D01*
X157882100Y-124069017D01*
X157882100Y-123580983D01*
X157853436Y-123400006D01*
X157796814Y-123225741D01*
X157796813Y-123225739D01*
X157713631Y-123062483D01*
X157713629Y-123062480D01*
X157713628Y-123062478D01*
X157605926Y-122914240D01*
X157605922Y-122914236D01*
X157605920Y-122914233D01*
X157476366Y-122784679D01*
X157476362Y-122784676D01*
X157476360Y-122784674D01*
X157328122Y-122676972D01*
X157328120Y-122676971D01*
X157328116Y-122676968D01*
X157164860Y-122593786D01*
X156990594Y-122537164D01*
X156990591Y-122537163D01*
X156847594Y-122514515D01*
X156809617Y-122508500D01*
X156626383Y-122508500D01*
X156592325Y-122513894D01*
X156445408Y-122537163D01*
X156445405Y-122537164D01*
X156271139Y-122593786D01*
X156107883Y-122676968D01*
X155959633Y-122784679D01*
X155830079Y-122914233D01*
X155722368Y-123062483D01*
X155639186Y-123225739D01*
X155582564Y-123400005D01*
X155582563Y-123400008D01*
X155553900Y-123580983D01*
X155553900Y-124069016D01*
X155582563Y-124249991D01*
X155582564Y-124249994D01*
X155639186Y-124424260D01*
X155722368Y-124587516D01*
X155722371Y-124587520D01*
X155722372Y-124587522D01*
X155830074Y-124735760D01*
X155830076Y-124735762D01*
X155830079Y-124735766D01*
X155959633Y-124865320D01*
X155959636Y-124865322D01*
X155959640Y-124865326D01*
X156077365Y-124950859D01*
X156096960Y-124982835D01*
X156088205Y-125019302D01*
X156056228Y-125038897D01*
X156048563Y-125039500D01*
X154639523Y-125039500D01*
X154604875Y-125025148D01*
X154590523Y-124990500D01*
X154604875Y-124955852D01*
X154620772Y-124945230D01*
X154681799Y-124919951D01*
X154856004Y-124803552D01*
X155004152Y-124655404D01*
X155120551Y-124481199D01*
X155200723Y-124287648D01*
X155200728Y-124287629D01*
X155241599Y-124082160D01*
X155241600Y-124082155D01*
X155241600Y-123925000D01*
X154677126Y-123925000D01*
X154686000Y-123891880D01*
X154686000Y-123758120D01*
X154677126Y-123725000D01*
X155241600Y-123725000D01*
X155241600Y-123567845D01*
X155241599Y-123567839D01*
X155200728Y-123362370D01*
X155200723Y-123362351D01*
X155120551Y-123168800D01*
X155004152Y-122994595D01*
X154856004Y-122846447D01*
X154681799Y-122730048D01*
X154488248Y-122649876D01*
X154488229Y-122649871D01*
X154282760Y-122609000D01*
X154278000Y-122609000D01*
X154278000Y-123325874D01*
X154244880Y-123317000D01*
X154111120Y-123317000D01*
X154078000Y-123325874D01*
X154078000Y-122609000D01*
X154073239Y-122609000D01*
X153867770Y-122649871D01*
X153867751Y-122649876D01*
X153674200Y-122730048D01*
X153499995Y-122846447D01*
X153351847Y-122994595D01*
X153235448Y-123168800D01*
X153155276Y-123362351D01*
X153155271Y-123362370D01*
X153114400Y-123567839D01*
X153114400Y-123725000D01*
X153678874Y-123725000D01*
X153670000Y-123758120D01*
X153670000Y-123891880D01*
X153678874Y-123925000D01*
X153114400Y-123925000D01*
X153114400Y-124082160D01*
X153155271Y-124287629D01*
X153155276Y-124287648D01*
X153235448Y-124481199D01*
X153351847Y-124655404D01*
X153499995Y-124803552D01*
X153674200Y-124919951D01*
X153735228Y-124945230D01*
X153761747Y-124971748D01*
X153761747Y-125009251D01*
X153735229Y-125035770D01*
X153716477Y-125039500D01*
X152099523Y-125039500D01*
X152064875Y-125025148D01*
X152050523Y-124990500D01*
X152064875Y-124955852D01*
X152080772Y-124945230D01*
X152141799Y-124919951D01*
X152316004Y-124803552D01*
X152464152Y-124655404D01*
X152580551Y-124481199D01*
X152660723Y-124287648D01*
X152660728Y-124287629D01*
X152701599Y-124082160D01*
X152701600Y-124082155D01*
X152701600Y-123925000D01*
X152137126Y-123925000D01*
X152146000Y-123891880D01*
X152146000Y-123758120D01*
X152137126Y-123725000D01*
X152701600Y-123725000D01*
X152701600Y-123567845D01*
X152701599Y-123567839D01*
X152660728Y-123362370D01*
X152660723Y-123362351D01*
X152580551Y-123168800D01*
X152464152Y-122994595D01*
X152316004Y-122846447D01*
X152141799Y-122730048D01*
X151948248Y-122649876D01*
X151948229Y-122649871D01*
X151742760Y-122609000D01*
X151738000Y-122609000D01*
X151738000Y-123325874D01*
X151704880Y-123317000D01*
X151571120Y-123317000D01*
X151538000Y-123325874D01*
X151538000Y-122609000D01*
X151533239Y-122609000D01*
X151327770Y-122649871D01*
X151327751Y-122649876D01*
X151134200Y-122730048D01*
X150959995Y-122846447D01*
X150811847Y-122994595D01*
X150695448Y-123168800D01*
X150615276Y-123362351D01*
X150615271Y-123362370D01*
X150574400Y-123567839D01*
X150574400Y-123725000D01*
X151138874Y-123725000D01*
X151130000Y-123758120D01*
X151130000Y-123891880D01*
X151138874Y-123925000D01*
X150574400Y-123925000D01*
X150574400Y-124082160D01*
X150615271Y-124287629D01*
X150615276Y-124287648D01*
X150695448Y-124481199D01*
X150811847Y-124655404D01*
X150959995Y-124803552D01*
X151134200Y-124919951D01*
X151195228Y-124945230D01*
X151221747Y-124971748D01*
X151221747Y-125009251D01*
X151195229Y-125035770D01*
X151176477Y-125039500D01*
X149767437Y-125039500D01*
X149732789Y-125025148D01*
X149718437Y-124990500D01*
X149732789Y-124955852D01*
X149738628Y-124950863D01*
X149856360Y-124865326D01*
X149985926Y-124735760D01*
X150093628Y-124587522D01*
X150176814Y-124424259D01*
X150233436Y-124249994D01*
X150262100Y-124069017D01*
X150262100Y-123580983D01*
X150233436Y-123400006D01*
X150176814Y-123225741D01*
X150176813Y-123225739D01*
X150093631Y-123062483D01*
X150093629Y-123062480D01*
X150093628Y-123062478D01*
X149985926Y-122914240D01*
X149985922Y-122914236D01*
X149985920Y-122914233D01*
X149856366Y-122784679D01*
X149856362Y-122784676D01*
X149856360Y-122784674D01*
X149708122Y-122676972D01*
X149708120Y-122676971D01*
X149708116Y-122676968D01*
X149544860Y-122593786D01*
X149370594Y-122537164D01*
X149370591Y-122537163D01*
X149227594Y-122514515D01*
X149189617Y-122508500D01*
X149006383Y-122508500D01*
X148972325Y-122513894D01*
X148825408Y-122537163D01*
X148825405Y-122537164D01*
X148651139Y-122593786D01*
X148487883Y-122676968D01*
X148339633Y-122784679D01*
X148210079Y-122914233D01*
X148102368Y-123062483D01*
X148019186Y-123225739D01*
X147962564Y-123400005D01*
X147962563Y-123400008D01*
X147933900Y-123580983D01*
X147933900Y-124069016D01*
X147962563Y-124249991D01*
X147962564Y-124249994D01*
X148019186Y-124424260D01*
X148102368Y-124587516D01*
X148102371Y-124587520D01*
X148102372Y-124587522D01*
X148210074Y-124735760D01*
X148210076Y-124735762D01*
X148210079Y-124735766D01*
X148339633Y-124865320D01*
X148339636Y-124865322D01*
X148339640Y-124865326D01*
X148457365Y-124950859D01*
X148476960Y-124982835D01*
X148468205Y-125019302D01*
X148436228Y-125038897D01*
X148428563Y-125039500D01*
X147227437Y-125039500D01*
X147192789Y-125025148D01*
X147178437Y-124990500D01*
X147192789Y-124955852D01*
X147198628Y-124950863D01*
X147316360Y-124865326D01*
X147445926Y-124735760D01*
X147553628Y-124587522D01*
X147636814Y-124424259D01*
X147693436Y-124249994D01*
X147722100Y-124069017D01*
X147722100Y-123580983D01*
X147693436Y-123400006D01*
X147636814Y-123225741D01*
X147636813Y-123225739D01*
X147553631Y-123062483D01*
X147553629Y-123062480D01*
X147553628Y-123062478D01*
X147445926Y-122914240D01*
X147445922Y-122914236D01*
X147445920Y-122914233D01*
X147316366Y-122784679D01*
X147316361Y-122784675D01*
X147316360Y-122784674D01*
X147312799Y-122782087D01*
X147293202Y-122750113D01*
X147301954Y-122713646D01*
X147306943Y-122707803D01*
X147759896Y-122254852D01*
X147794544Y-122240500D01*
X151254021Y-122240500D01*
X151254021Y-122240499D01*
X151362237Y-122211503D01*
X151459263Y-122155485D01*
X152428809Y-121185939D01*
X161197500Y-121185939D01*
X161197500Y-121344060D01*
X161238422Y-121496782D01*
X161238423Y-121496786D01*
X161317475Y-121633709D01*
X161317478Y-121633713D01*
X161317480Y-121633716D01*
X161429284Y-121745520D01*
X161429287Y-121745521D01*
X161429290Y-121745524D01*
X161566213Y-121824576D01*
X161566215Y-121824576D01*
X161566216Y-121824577D01*
X161686665Y-121856851D01*
X161718939Y-121865499D01*
X161718940Y-121865500D01*
X161718943Y-121865500D01*
X161877060Y-121865500D01*
X161877060Y-121865499D01*
X162029784Y-121824577D01*
X162166716Y-121745520D01*
X162278520Y-121633716D01*
X162357577Y-121496784D01*
X162398499Y-121344060D01*
X162398500Y-121344060D01*
X162398500Y-121235939D01*
X163747500Y-121235939D01*
X163747500Y-121394060D01*
X163788422Y-121546782D01*
X163788423Y-121546786D01*
X163867475Y-121683709D01*
X163867478Y-121683713D01*
X163867480Y-121683716D01*
X163979284Y-121795520D01*
X163979287Y-121795521D01*
X163979290Y-121795524D01*
X164116213Y-121874576D01*
X164116215Y-121874576D01*
X164116216Y-121874577D01*
X164236665Y-121906851D01*
X164268939Y-121915499D01*
X164268940Y-121915500D01*
X164268943Y-121915500D01*
X164427060Y-121915500D01*
X164427060Y-121915499D01*
X164579784Y-121874577D01*
X164716716Y-121795520D01*
X164828520Y-121683716D01*
X164907577Y-121546784D01*
X164948499Y-121394060D01*
X164948500Y-121394060D01*
X164948500Y-121235940D01*
X164948499Y-121235939D01*
X164907577Y-121083217D01*
X164907576Y-121083213D01*
X164828524Y-120946290D01*
X164828521Y-120946287D01*
X164828520Y-120946284D01*
X164716716Y-120834480D01*
X164716713Y-120834478D01*
X164716709Y-120834475D01*
X164579786Y-120755423D01*
X164579782Y-120755422D01*
X164427060Y-120714500D01*
X164427057Y-120714500D01*
X164268943Y-120714500D01*
X164268940Y-120714500D01*
X164116217Y-120755422D01*
X164116213Y-120755423D01*
X163979290Y-120834475D01*
X163979281Y-120834482D01*
X163867482Y-120946281D01*
X163867475Y-120946290D01*
X163788423Y-121083213D01*
X163788422Y-121083217D01*
X163747500Y-121235939D01*
X162398500Y-121235939D01*
X162398500Y-121185940D01*
X162398499Y-121185939D01*
X162370974Y-121083216D01*
X162357577Y-121033216D01*
X162357576Y-121033215D01*
X162357576Y-121033213D01*
X162278524Y-120896290D01*
X162278521Y-120896287D01*
X162278520Y-120896284D01*
X162166716Y-120784480D01*
X162166713Y-120784478D01*
X162166709Y-120784475D01*
X162029786Y-120705423D01*
X162029782Y-120705422D01*
X161877060Y-120664500D01*
X161877057Y-120664500D01*
X161718943Y-120664500D01*
X161718940Y-120664500D01*
X161566217Y-120705422D01*
X161566213Y-120705423D01*
X161429290Y-120784475D01*
X161429281Y-120784482D01*
X161317482Y-120896281D01*
X161317475Y-120896290D01*
X161238423Y-121033213D01*
X161238422Y-121033217D01*
X161197500Y-121185939D01*
X152428809Y-121185939D01*
X156878809Y-116735939D01*
X161122500Y-116735939D01*
X161122500Y-116894060D01*
X161163422Y-117046782D01*
X161163423Y-117046786D01*
X161242475Y-117183709D01*
X161242478Y-117183713D01*
X161242480Y-117183716D01*
X161354284Y-117295520D01*
X161354287Y-117295521D01*
X161354290Y-117295524D01*
X161491213Y-117374576D01*
X161491215Y-117374576D01*
X161491216Y-117374577D01*
X161611665Y-117406851D01*
X161643939Y-117415499D01*
X161643940Y-117415500D01*
X161643943Y-117415500D01*
X161802060Y-117415500D01*
X161802060Y-117415499D01*
X161954784Y-117374577D01*
X162091716Y-117295520D01*
X162203520Y-117183716D01*
X162261253Y-117083718D01*
X162282576Y-117046786D01*
X162282576Y-117046785D01*
X162282577Y-117046784D01*
X162323499Y-116894060D01*
X162323500Y-116894060D01*
X162323500Y-116735940D01*
X162323499Y-116735939D01*
X162282577Y-116583217D01*
X162282576Y-116583213D01*
X162203524Y-116446290D01*
X162203521Y-116446287D01*
X162203520Y-116446284D01*
X162091716Y-116334480D01*
X162091713Y-116334478D01*
X162091709Y-116334475D01*
X161954786Y-116255423D01*
X161954782Y-116255422D01*
X161802060Y-116214500D01*
X161802057Y-116214500D01*
X161643943Y-116214500D01*
X161643940Y-116214500D01*
X161491217Y-116255422D01*
X161491213Y-116255423D01*
X161354290Y-116334475D01*
X161354281Y-116334482D01*
X161242482Y-116446281D01*
X161242475Y-116446290D01*
X161163423Y-116583213D01*
X161163422Y-116583217D01*
X161122500Y-116735939D01*
X156878809Y-116735939D01*
X161838852Y-111775896D01*
X161873500Y-111761544D01*
X161908148Y-111775896D01*
X161922500Y-111810544D01*
X161922500Y-114770968D01*
X161908148Y-114805616D01*
X161867482Y-114846281D01*
X161867475Y-114846290D01*
X161788423Y-114983213D01*
X161788422Y-114983217D01*
X161747500Y-115135939D01*
X161747500Y-115294060D01*
X161788422Y-115446782D01*
X161788423Y-115446786D01*
X161867475Y-115583709D01*
X161867478Y-115583713D01*
X161867480Y-115583716D01*
X161979284Y-115695520D01*
X161979287Y-115695521D01*
X161979290Y-115695524D01*
X162116213Y-115774576D01*
X162116215Y-115774576D01*
X162116216Y-115774577D01*
X162209637Y-115799609D01*
X162268939Y-115815499D01*
X162268940Y-115815500D01*
X162268943Y-115815500D01*
X162427060Y-115815500D01*
X162427060Y-115815499D01*
X162579784Y-115774577D01*
X162716716Y-115695520D01*
X162828520Y-115583716D01*
X162907577Y-115446784D01*
X162948499Y-115294060D01*
X162948500Y-115294060D01*
X162948500Y-115135940D01*
X162948499Y-115135939D01*
X162907577Y-114983217D01*
X162907576Y-114983213D01*
X162828524Y-114846290D01*
X162828521Y-114846287D01*
X162828520Y-114846284D01*
X162787852Y-114805616D01*
X162773500Y-114770968D01*
X162773500Y-110261543D01*
X162787852Y-110226895D01*
X172513852Y-100500895D01*
X172548500Y-100486543D01*
X172583148Y-100500895D01*
X172597500Y-100535543D01*
X172597500Y-103093456D01*
X172583148Y-103128104D01*
X164657516Y-111053736D01*
X164657515Y-111053736D01*
X164601497Y-111150760D01*
X164601496Y-111150764D01*
X164572500Y-111258978D01*
X164572500Y-117226191D01*
X164558148Y-117260839D01*
X164523500Y-117275191D01*
X164488852Y-117260839D01*
X164481065Y-117250691D01*
X164478524Y-117246290D01*
X164478521Y-117246287D01*
X164478520Y-117246284D01*
X164366716Y-117134480D01*
X164366713Y-117134478D01*
X164366709Y-117134475D01*
X164229786Y-117055423D01*
X164229782Y-117055422D01*
X164077060Y-117014500D01*
X164077057Y-117014500D01*
X163918943Y-117014500D01*
X163918940Y-117014500D01*
X163766217Y-117055422D01*
X163766213Y-117055423D01*
X163629290Y-117134475D01*
X163629281Y-117134482D01*
X163517482Y-117246281D01*
X163517475Y-117246290D01*
X163438423Y-117383213D01*
X163438422Y-117383217D01*
X163397500Y-117535939D01*
X163397500Y-117694060D01*
X163438422Y-117846782D01*
X163438423Y-117846786D01*
X163505621Y-117963177D01*
X163510516Y-118000359D01*
X163487686Y-118030112D01*
X163463186Y-118036677D01*
X161619855Y-118036677D01*
X161585207Y-118022325D01*
X161544541Y-117981659D01*
X161544539Y-117981657D01*
X161544536Y-117981655D01*
X161544532Y-117981652D01*
X161407609Y-117902600D01*
X161407605Y-117902599D01*
X161254883Y-117861677D01*
X161254880Y-117861677D01*
X161096766Y-117861677D01*
X161096763Y-117861677D01*
X160944040Y-117902599D01*
X160944036Y-117902600D01*
X160807113Y-117981652D01*
X160807104Y-117981659D01*
X160695305Y-118093458D01*
X160695298Y-118093467D01*
X160616246Y-118230390D01*
X160616245Y-118230394D01*
X160575323Y-118383116D01*
X160575323Y-118541237D01*
X160616245Y-118693959D01*
X160616246Y-118693963D01*
X160695298Y-118830886D01*
X160695301Y-118830890D01*
X160695303Y-118830893D01*
X160807107Y-118942697D01*
X160807110Y-118942698D01*
X160807113Y-118942701D01*
X160944036Y-119021753D01*
X160944038Y-119021753D01*
X160944039Y-119021754D01*
X161064488Y-119054028D01*
X161096762Y-119062676D01*
X161096763Y-119062677D01*
X161096766Y-119062677D01*
X161254883Y-119062677D01*
X161254883Y-119062676D01*
X161407607Y-119021754D01*
X161544539Y-118942697D01*
X161585207Y-118902029D01*
X161619855Y-118887677D01*
X164456844Y-118887677D01*
X164456844Y-118887676D01*
X164565060Y-118858680D01*
X164662086Y-118802662D01*
X165338485Y-118126263D01*
X165394503Y-118029237D01*
X165423499Y-117921021D01*
X165423500Y-117921021D01*
X165423500Y-115810939D01*
X175047500Y-115810939D01*
X175047500Y-115969060D01*
X175088422Y-116121782D01*
X175088423Y-116121786D01*
X175167475Y-116258709D01*
X175167478Y-116258713D01*
X175167480Y-116258716D01*
X175279284Y-116370520D01*
X175279287Y-116370521D01*
X175279290Y-116370524D01*
X175416213Y-116449576D01*
X175416215Y-116449576D01*
X175416216Y-116449577D01*
X175536665Y-116481851D01*
X175568939Y-116490499D01*
X175568940Y-116490500D01*
X175568943Y-116490500D01*
X175727060Y-116490500D01*
X175727060Y-116490499D01*
X175879784Y-116449577D01*
X175885478Y-116446290D01*
X176016709Y-116370524D01*
X176016708Y-116370524D01*
X176016716Y-116370520D01*
X176128520Y-116258716D01*
X176207577Y-116121784D01*
X176248499Y-115969060D01*
X176248500Y-115969060D01*
X176248500Y-115810940D01*
X176248499Y-115810939D01*
X176225358Y-115724576D01*
X176207577Y-115658216D01*
X176207576Y-115658215D01*
X176207576Y-115658213D01*
X176128524Y-115521290D01*
X176128521Y-115521287D01*
X176128520Y-115521284D01*
X176016716Y-115409480D01*
X176016713Y-115409478D01*
X176016709Y-115409475D01*
X175879786Y-115330423D01*
X175879782Y-115330422D01*
X175727060Y-115289500D01*
X175727057Y-115289500D01*
X175568943Y-115289500D01*
X175568940Y-115289500D01*
X175416217Y-115330422D01*
X175416213Y-115330423D01*
X175279290Y-115409475D01*
X175279281Y-115409482D01*
X175167482Y-115521281D01*
X175167475Y-115521290D01*
X175088423Y-115658213D01*
X175088422Y-115658217D01*
X175047500Y-115810939D01*
X165423500Y-115810939D01*
X165423500Y-112254616D01*
X165662500Y-112254616D01*
X165662500Y-112455383D01*
X165693906Y-112653677D01*
X165693907Y-112653680D01*
X165755948Y-112844622D01*
X165847095Y-113023508D01*
X165899070Y-113095045D01*
X165965104Y-113185933D01*
X165965108Y-113185938D01*
X166107062Y-113327892D01*
X166107066Y-113327895D01*
X166107068Y-113327897D01*
X166269492Y-113445905D01*
X166448378Y-113537052D01*
X166639320Y-113599093D01*
X166837616Y-113630500D01*
X166837617Y-113630500D01*
X167038383Y-113630500D01*
X167038384Y-113630500D01*
X167236680Y-113599093D01*
X167427622Y-113537052D01*
X167606508Y-113445905D01*
X167768932Y-113327897D01*
X167768935Y-113327893D01*
X167768938Y-113327892D01*
X167910892Y-113185938D01*
X167910893Y-113185935D01*
X167910897Y-113185932D01*
X168028905Y-113023508D01*
X168120052Y-112844622D01*
X168182093Y-112653680D01*
X168213500Y-112455384D01*
X168213500Y-112254616D01*
X173222500Y-112254616D01*
X173222500Y-112455383D01*
X173253906Y-112653677D01*
X173253907Y-112653680D01*
X173315948Y-112844622D01*
X173407095Y-113023508D01*
X173459070Y-113095045D01*
X173525104Y-113185933D01*
X173525108Y-113185938D01*
X173667062Y-113327892D01*
X173667066Y-113327895D01*
X173667068Y-113327897D01*
X173829492Y-113445905D01*
X174008378Y-113537052D01*
X174199320Y-113599093D01*
X174397616Y-113630500D01*
X174397617Y-113630500D01*
X174598383Y-113630500D01*
X174598384Y-113630500D01*
X174796680Y-113599093D01*
X174987622Y-113537052D01*
X175166508Y-113445905D01*
X175328932Y-113327897D01*
X175328935Y-113327893D01*
X175328938Y-113327892D01*
X175470892Y-113185938D01*
X175470893Y-113185935D01*
X175470897Y-113185932D01*
X175588905Y-113023508D01*
X175680052Y-112844622D01*
X175742093Y-112653680D01*
X175773500Y-112455384D01*
X175773500Y-112254616D01*
X175742093Y-112056320D01*
X175680052Y-111865378D01*
X175588905Y-111686492D01*
X175470897Y-111524068D01*
X175470895Y-111524066D01*
X175470892Y-111524062D01*
X175328938Y-111382108D01*
X175328933Y-111382104D01*
X175328932Y-111382103D01*
X175166508Y-111264095D01*
X174987622Y-111172948D01*
X174987621Y-111172947D01*
X174987620Y-111172947D01*
X174796680Y-111110907D01*
X174796677Y-111110906D01*
X174644350Y-111086780D01*
X174598384Y-111079500D01*
X174397616Y-111079500D01*
X174360299Y-111085410D01*
X174199322Y-111110906D01*
X174199319Y-111110907D01*
X174008379Y-111172947D01*
X173829492Y-111264095D01*
X173667066Y-111382104D01*
X173525104Y-111524066D01*
X173407095Y-111686492D01*
X173315947Y-111865379D01*
X173253907Y-112056319D01*
X173253906Y-112056322D01*
X173222500Y-112254616D01*
X168213500Y-112254616D01*
X168182093Y-112056320D01*
X168120052Y-111865378D01*
X168028905Y-111686492D01*
X167910897Y-111524068D01*
X167910895Y-111524066D01*
X167910892Y-111524062D01*
X167768938Y-111382108D01*
X167768933Y-111382104D01*
X167768932Y-111382103D01*
X167606508Y-111264095D01*
X167427622Y-111172948D01*
X167427621Y-111172947D01*
X167427620Y-111172947D01*
X167236680Y-111110907D01*
X167236677Y-111110906D01*
X167084350Y-111086780D01*
X167038384Y-111079500D01*
X166837616Y-111079500D01*
X166800299Y-111085410D01*
X166639322Y-111110906D01*
X166639319Y-111110907D01*
X166448379Y-111172947D01*
X166269492Y-111264095D01*
X166107066Y-111382104D01*
X165965104Y-111524066D01*
X165847095Y-111686492D01*
X165755947Y-111865379D01*
X165693907Y-112056319D01*
X165693906Y-112056322D01*
X165662500Y-112254616D01*
X165423500Y-112254616D01*
X165423500Y-111511544D01*
X165437852Y-111476896D01*
X173363484Y-103551264D01*
X173363485Y-103551263D01*
X173419503Y-103454237D01*
X173448499Y-103346021D01*
X173448500Y-103346021D01*
X173448500Y-103147626D01*
X173462852Y-103112978D01*
X173497500Y-103098626D01*
X173532148Y-103112978D01*
X173667062Y-103247892D01*
X173667066Y-103247895D01*
X173667068Y-103247897D01*
X173829492Y-103365905D01*
X174008378Y-103457052D01*
X174199320Y-103519093D01*
X174397616Y-103550500D01*
X174397617Y-103550500D01*
X174598383Y-103550500D01*
X174598384Y-103550500D01*
X174796680Y-103519093D01*
X174987622Y-103457052D01*
X175166508Y-103365905D01*
X175328932Y-103247897D01*
X175328935Y-103247893D01*
X175328938Y-103247892D01*
X175470892Y-103105938D01*
X175470893Y-103105935D01*
X175470897Y-103105932D01*
X175588905Y-102943508D01*
X175680052Y-102764622D01*
X175742093Y-102573680D01*
X175773500Y-102375384D01*
X175773500Y-102174616D01*
X175742093Y-101976320D01*
X175680052Y-101785378D01*
X175588905Y-101606492D01*
X175470897Y-101444068D01*
X175470895Y-101444066D01*
X175470892Y-101444062D01*
X175328938Y-101302108D01*
X175328933Y-101302104D01*
X175328932Y-101302103D01*
X175166508Y-101184095D01*
X174987622Y-101092948D01*
X174987621Y-101092947D01*
X174987620Y-101092947D01*
X174796680Y-101030907D01*
X174796677Y-101030906D01*
X174644350Y-101006780D01*
X174598384Y-100999500D01*
X174397616Y-100999500D01*
X174360299Y-101005410D01*
X174199322Y-101030906D01*
X174199319Y-101030907D01*
X174008379Y-101092947D01*
X173829492Y-101184095D01*
X173667066Y-101302104D01*
X173532148Y-101437022D01*
X173497500Y-101451374D01*
X173462852Y-101437022D01*
X173448500Y-101402374D01*
X173448500Y-96039499D01*
X173462852Y-96004851D01*
X173497497Y-95990499D01*
X175517864Y-95990499D01*
X175542991Y-95987585D01*
X175645765Y-95942206D01*
X175725206Y-95862765D01*
X175770585Y-95759991D01*
X175773500Y-95734865D01*
X175773499Y-93695136D01*
X175770585Y-93670009D01*
X175725206Y-93567235D01*
X175725205Y-93567234D01*
X175725205Y-93567233D01*
X175645766Y-93487794D01*
X175645767Y-93487794D01*
X175542993Y-93442415D01*
X175517865Y-93439500D01*
X173497500Y-93439500D01*
X173462852Y-93425148D01*
X173448500Y-93390500D01*
X173448500Y-90536544D01*
X173462852Y-90501896D01*
X176663484Y-87301264D01*
X176663485Y-87301263D01*
X176719503Y-87204237D01*
X176748499Y-87096021D01*
X176748500Y-87096021D01*
X176748500Y-86515610D01*
X176762852Y-86480962D01*
X176797500Y-86466610D01*
X176832148Y-86480962D01*
G37*
G04 #@! TD.AperFunction*
G04 #@! TA.AperFunction,Conductor*
G36*
X173211104Y-85629852D02*
G01*
X174083148Y-86501896D01*
X174097500Y-86536544D01*
X174097500Y-86594060D01*
X174138422Y-86746782D01*
X174138423Y-86746786D01*
X174217475Y-86883709D01*
X174217478Y-86883713D01*
X174217480Y-86883716D01*
X174329284Y-86995520D01*
X174329287Y-86995521D01*
X174329290Y-86995524D01*
X174466213Y-87074576D01*
X174466215Y-87074576D01*
X174466216Y-87074577D01*
X174586665Y-87106851D01*
X174618939Y-87115499D01*
X174618940Y-87115500D01*
X174677455Y-87115500D01*
X174712103Y-87129852D01*
X174726455Y-87164500D01*
X174712103Y-87199148D01*
X172333737Y-89577515D01*
X172257148Y-89654104D01*
X172222500Y-89668456D01*
X172187852Y-89654104D01*
X172173500Y-89619456D01*
X172173500Y-88208979D01*
X172173499Y-88208978D01*
X172167371Y-88186111D01*
X172144503Y-88100763D01*
X172144502Y-88100762D01*
X172144502Y-88100760D01*
X172088484Y-88003736D01*
X171259263Y-87174515D01*
X171162239Y-87118497D01*
X171162235Y-87118496D01*
X171054021Y-87089500D01*
X171054018Y-87089500D01*
X164244544Y-87089500D01*
X164209896Y-87075148D01*
X163512852Y-86378104D01*
X163498500Y-86343456D01*
X163498500Y-86285940D01*
X163498499Y-86285939D01*
X163461080Y-86146290D01*
X163457577Y-86133216D01*
X163457576Y-86133215D01*
X163457576Y-86133213D01*
X163378524Y-85996290D01*
X163378521Y-85996287D01*
X163378520Y-85996284D01*
X163266716Y-85884480D01*
X163266713Y-85884478D01*
X163266709Y-85884475D01*
X163129786Y-85805423D01*
X163129782Y-85805422D01*
X162977060Y-85764500D01*
X162977057Y-85764500D01*
X162818943Y-85764500D01*
X162818940Y-85764500D01*
X162666217Y-85805422D01*
X162666213Y-85805423D01*
X162529290Y-85884475D01*
X162529281Y-85884482D01*
X162417482Y-85996281D01*
X162417475Y-85996290D01*
X162338423Y-86133213D01*
X162338422Y-86133217D01*
X162297500Y-86285939D01*
X162297500Y-86444060D01*
X162338422Y-86596782D01*
X162338423Y-86596786D01*
X162417475Y-86733709D01*
X162417478Y-86733713D01*
X162417480Y-86733716D01*
X162529284Y-86845520D01*
X162529287Y-86845521D01*
X162529290Y-86845524D01*
X162666213Y-86924576D01*
X162666215Y-86924576D01*
X162666216Y-86924577D01*
X162786665Y-86956851D01*
X162818939Y-86965499D01*
X162818940Y-86965500D01*
X162818943Y-86965500D01*
X162876456Y-86965500D01*
X162911104Y-86979852D01*
X163707515Y-87776263D01*
X163786737Y-87855485D01*
X163822249Y-87875988D01*
X163883760Y-87911502D01*
X163883762Y-87911502D01*
X163883763Y-87911503D01*
X163932325Y-87924515D01*
X163991978Y-87940499D01*
X163991979Y-87940500D01*
X163991982Y-87940500D01*
X170801456Y-87940500D01*
X170836104Y-87954852D01*
X171308148Y-88426896D01*
X171322500Y-88461544D01*
X171322500Y-90390500D01*
X171308148Y-90425148D01*
X171273500Y-90439500D01*
X171042032Y-90439500D01*
X171007384Y-90425148D01*
X170966718Y-90384482D01*
X170966716Y-90384480D01*
X170966713Y-90384478D01*
X170966709Y-90384475D01*
X170829786Y-90305423D01*
X170829782Y-90305422D01*
X170677060Y-90264500D01*
X170677057Y-90264500D01*
X170518943Y-90264500D01*
X170518940Y-90264500D01*
X170366217Y-90305422D01*
X170366213Y-90305423D01*
X170229290Y-90384475D01*
X170229281Y-90384482D01*
X170117482Y-90496281D01*
X170117475Y-90496290D01*
X170038423Y-90633213D01*
X170038422Y-90633217D01*
X169997500Y-90785939D01*
X169997500Y-90944060D01*
X170038422Y-91096782D01*
X170038423Y-91096786D01*
X170117475Y-91233709D01*
X170117478Y-91233713D01*
X170117480Y-91233716D01*
X170229284Y-91345520D01*
X170229287Y-91345521D01*
X170229290Y-91345524D01*
X170366213Y-91424576D01*
X170366215Y-91424576D01*
X170366216Y-91424577D01*
X170486665Y-91456851D01*
X170518939Y-91465499D01*
X170518940Y-91465500D01*
X170518943Y-91465500D01*
X170677060Y-91465500D01*
X170677060Y-91465499D01*
X170829784Y-91424577D01*
X170966716Y-91345520D01*
X171007384Y-91304852D01*
X171042032Y-91290500D01*
X171273500Y-91290500D01*
X171308148Y-91304852D01*
X171322500Y-91339500D01*
X171322500Y-99933883D01*
X171308148Y-99968531D01*
X164571174Y-106705504D01*
X164536526Y-106719856D01*
X164501878Y-106705504D01*
X164487526Y-106670856D01*
X164495783Y-106643635D01*
X164543775Y-106571811D01*
X164596580Y-106444328D01*
X164623500Y-106308993D01*
X164623500Y-106171007D01*
X164615434Y-106130455D01*
X164596582Y-106035681D01*
X164596579Y-106035670D01*
X164543775Y-105908189D01*
X164493678Y-105833213D01*
X164467116Y-105793460D01*
X164369539Y-105695883D01*
X164301074Y-105650137D01*
X164254811Y-105619225D01*
X164254808Y-105619223D01*
X164254807Y-105619223D01*
X164127329Y-105566420D01*
X164127318Y-105566417D01*
X163991998Y-105539500D01*
X163991993Y-105539500D01*
X163854007Y-105539500D01*
X163854001Y-105539500D01*
X163718681Y-105566417D01*
X163718670Y-105566420D01*
X163591192Y-105619223D01*
X163476460Y-105695883D01*
X163378883Y-105793460D01*
X163302223Y-105908192D01*
X163249420Y-106035670D01*
X163249417Y-106035681D01*
X163222500Y-106171001D01*
X163222500Y-106308998D01*
X163249417Y-106444318D01*
X163249420Y-106444329D01*
X163302223Y-106571807D01*
X163302225Y-106571811D01*
X163320825Y-106599648D01*
X163378883Y-106686539D01*
X163476460Y-106784116D01*
X163508415Y-106805467D01*
X163591189Y-106860775D01*
X163718672Y-106913580D01*
X163718678Y-106913581D01*
X163718681Y-106913582D01*
X163854001Y-106940499D01*
X163854007Y-106940500D01*
X163991993Y-106940500D01*
X164127328Y-106913580D01*
X164254811Y-106860775D01*
X164326635Y-106812783D01*
X164363415Y-106805467D01*
X164394598Y-106826303D01*
X164401915Y-106863085D01*
X164388504Y-106888174D01*
X161701845Y-109574834D01*
X161629515Y-109647164D01*
X161573497Y-109744188D01*
X161573496Y-109744192D01*
X161544500Y-109852406D01*
X161544500Y-110846455D01*
X161530148Y-110881103D01*
X158332148Y-114079103D01*
X158297500Y-114093455D01*
X158262852Y-114079103D01*
X158248500Y-114044455D01*
X158248500Y-113935940D01*
X158248499Y-113935939D01*
X158239851Y-113903665D01*
X158207577Y-113783216D01*
X158207576Y-113783215D01*
X158207576Y-113783213D01*
X158128524Y-113646290D01*
X158128521Y-113646287D01*
X158128520Y-113646284D01*
X158016716Y-113534480D01*
X158016713Y-113534478D01*
X158016709Y-113534475D01*
X157879786Y-113455423D01*
X157879782Y-113455422D01*
X157727060Y-113414500D01*
X157727057Y-113414500D01*
X157568943Y-113414500D01*
X157568940Y-113414500D01*
X157416217Y-113455422D01*
X157416213Y-113455423D01*
X157279290Y-113534475D01*
X157279281Y-113534482D01*
X157238616Y-113575148D01*
X157203968Y-113589500D01*
X133044544Y-113589500D01*
X133009896Y-113575148D01*
X130567810Y-111133062D01*
X130553458Y-111098414D01*
X130567810Y-111063766D01*
X130602458Y-111049414D01*
X130615140Y-111051084D01*
X130668940Y-111065500D01*
X130668943Y-111065500D01*
X130827060Y-111065500D01*
X130827060Y-111065499D01*
X130979784Y-111024577D01*
X131116716Y-110945520D01*
X131228520Y-110833716D01*
X131307577Y-110696784D01*
X131348499Y-110544060D01*
X131348500Y-110544060D01*
X131348500Y-110385940D01*
X131348499Y-110385939D01*
X131307577Y-110233217D01*
X131307576Y-110233213D01*
X131228524Y-110096290D01*
X131228521Y-110096287D01*
X131228520Y-110096284D01*
X131187852Y-110055616D01*
X131173500Y-110020968D01*
X131173500Y-109758979D01*
X131173499Y-109758978D01*
X131161849Y-109715499D01*
X131144503Y-109650763D01*
X131144502Y-109650762D01*
X131144502Y-109650760D01*
X131088484Y-109553736D01*
X129620687Y-108085939D01*
X130097500Y-108085939D01*
X130097500Y-108244060D01*
X130138422Y-108396782D01*
X130138423Y-108396786D01*
X130217475Y-108533709D01*
X130217478Y-108533713D01*
X130217480Y-108533716D01*
X130329284Y-108645520D01*
X130329287Y-108645521D01*
X130329290Y-108645524D01*
X130466213Y-108724576D01*
X130466215Y-108724576D01*
X130466216Y-108724577D01*
X130547217Y-108746281D01*
X130618939Y-108765499D01*
X130618940Y-108765500D01*
X130618943Y-108765500D01*
X130777060Y-108765500D01*
X130777060Y-108765499D01*
X130929784Y-108724577D01*
X131023666Y-108670375D01*
X131066709Y-108645524D01*
X131066708Y-108645524D01*
X131066716Y-108645520D01*
X131178520Y-108533716D01*
X131257577Y-108396784D01*
X131298499Y-108244060D01*
X131298500Y-108244060D01*
X131298500Y-108085940D01*
X131298499Y-108085939D01*
X131289851Y-108053665D01*
X131257577Y-107933216D01*
X131257576Y-107933215D01*
X131257576Y-107933213D01*
X131178524Y-107796290D01*
X131178521Y-107796287D01*
X131178520Y-107796284D01*
X131066716Y-107684480D01*
X131066713Y-107684478D01*
X131066709Y-107684475D01*
X130929786Y-107605423D01*
X130929782Y-107605422D01*
X130777060Y-107564500D01*
X130777057Y-107564500D01*
X130618943Y-107564500D01*
X130618940Y-107564500D01*
X130466217Y-107605422D01*
X130466213Y-107605423D01*
X130329290Y-107684475D01*
X130329281Y-107684482D01*
X130217482Y-107796281D01*
X130217475Y-107796290D01*
X130138423Y-107933213D01*
X130138422Y-107933217D01*
X130097500Y-108085939D01*
X129620687Y-108085939D01*
X128609263Y-107074515D01*
X128523789Y-107025166D01*
X128512239Y-107018497D01*
X128512235Y-107018496D01*
X128404021Y-106989500D01*
X128404018Y-106989500D01*
X124623387Y-106989500D01*
X124614790Y-106985939D01*
X143210000Y-106985939D01*
X143210000Y-107144060D01*
X143250922Y-107296782D01*
X143250923Y-107296786D01*
X143329975Y-107433709D01*
X143329978Y-107433713D01*
X143329980Y-107433716D01*
X143441784Y-107545520D01*
X143441787Y-107545521D01*
X143441790Y-107545524D01*
X143578713Y-107624576D01*
X143578715Y-107624576D01*
X143578716Y-107624577D01*
X143695436Y-107655852D01*
X143731439Y-107665499D01*
X143731440Y-107665500D01*
X143731443Y-107665500D01*
X143889560Y-107665500D01*
X143889560Y-107665499D01*
X144042284Y-107624577D01*
X144179216Y-107545520D01*
X144200852Y-107523884D01*
X144235500Y-107509532D01*
X144270148Y-107523884D01*
X144291784Y-107545520D01*
X144291787Y-107545521D01*
X144291790Y-107545524D01*
X144428713Y-107624576D01*
X144428715Y-107624576D01*
X144428716Y-107624577D01*
X144545436Y-107655852D01*
X144581439Y-107665499D01*
X144581440Y-107665500D01*
X144581443Y-107665500D01*
X144739560Y-107665500D01*
X144739560Y-107665499D01*
X144892284Y-107624577D01*
X145029216Y-107545520D01*
X145141020Y-107433716D01*
X145220077Y-107296784D01*
X145260999Y-107144060D01*
X145261000Y-107144060D01*
X145261000Y-106985940D01*
X145260999Y-106985939D01*
X145228080Y-106863085D01*
X145220077Y-106833216D01*
X145220076Y-106833215D01*
X145220076Y-106833213D01*
X145141024Y-106696290D01*
X145141021Y-106696287D01*
X145141020Y-106696284D01*
X145044384Y-106599648D01*
X145030032Y-106565000D01*
X145044384Y-106530352D01*
X145091027Y-106483709D01*
X145141020Y-106433716D01*
X145198753Y-106333718D01*
X145220076Y-106296786D01*
X145220076Y-106296785D01*
X145220077Y-106296784D01*
X145260999Y-106144060D01*
X145261000Y-106144060D01*
X145261000Y-106035939D01*
X156897500Y-106035939D01*
X156897500Y-106194060D01*
X156938422Y-106346782D01*
X156938423Y-106346786D01*
X157017475Y-106483709D01*
X157017478Y-106483713D01*
X157017480Y-106483716D01*
X157129284Y-106595520D01*
X157176905Y-106623013D01*
X157187052Y-106630800D01*
X159310423Y-108754171D01*
X159324775Y-108788819D01*
X159318211Y-108813318D01*
X159263423Y-108908216D01*
X159263421Y-108908220D01*
X159222500Y-109060939D01*
X159222500Y-109219060D01*
X159263422Y-109371782D01*
X159263423Y-109371786D01*
X159342475Y-109508709D01*
X159342478Y-109508713D01*
X159342480Y-109508716D01*
X159454284Y-109620520D01*
X159454287Y-109620521D01*
X159454290Y-109620524D01*
X159591213Y-109699576D01*
X159591215Y-109699576D01*
X159591216Y-109699577D01*
X159650638Y-109715499D01*
X159743939Y-109740499D01*
X159743940Y-109740500D01*
X159743943Y-109740500D01*
X159902060Y-109740500D01*
X159902060Y-109740499D01*
X160054784Y-109699577D01*
X160098088Y-109674576D01*
X160191709Y-109620524D01*
X160191708Y-109620524D01*
X160191716Y-109620520D01*
X160303520Y-109508716D01*
X160382577Y-109371784D01*
X160423499Y-109219060D01*
X160423500Y-109219060D01*
X160423500Y-109060940D01*
X160423499Y-109060939D01*
X160382577Y-108908217D01*
X160382576Y-108908213D01*
X160303524Y-108771290D01*
X160303521Y-108771287D01*
X160303520Y-108771284D01*
X160262852Y-108730616D01*
X160248500Y-108695968D01*
X160248500Y-108608979D01*
X160248499Y-108608978D01*
X160219503Y-108500764D01*
X160219502Y-108500760D01*
X160163484Y-108403736D01*
X158087926Y-106328178D01*
X158073574Y-106293530D01*
X158075244Y-106280847D01*
X158098500Y-106194058D01*
X158098500Y-106035940D01*
X158098499Y-106035939D01*
X158064268Y-105908189D01*
X158057577Y-105883216D01*
X158057576Y-105883215D01*
X158057576Y-105883213D01*
X157978524Y-105746290D01*
X157978521Y-105746287D01*
X157978520Y-105746284D01*
X157866716Y-105634480D01*
X157866713Y-105634478D01*
X157866709Y-105634475D01*
X157729786Y-105555423D01*
X157729782Y-105555422D01*
X157577060Y-105514500D01*
X157577057Y-105514500D01*
X157418943Y-105514500D01*
X157418940Y-105514500D01*
X157266217Y-105555422D01*
X157266213Y-105555423D01*
X157129290Y-105634475D01*
X157129281Y-105634482D01*
X157017482Y-105746281D01*
X157017475Y-105746290D01*
X156938423Y-105883213D01*
X156938422Y-105883217D01*
X156897500Y-106035939D01*
X145261000Y-106035939D01*
X145261000Y-105985940D01*
X145260999Y-105985939D01*
X145233474Y-105883216D01*
X145220077Y-105833216D01*
X145220076Y-105833215D01*
X145220076Y-105833213D01*
X145141024Y-105696290D01*
X145141021Y-105696287D01*
X145141020Y-105696284D01*
X145029216Y-105584480D01*
X145029213Y-105584478D01*
X145029209Y-105584475D01*
X144892286Y-105505423D01*
X144892282Y-105505422D01*
X144739560Y-105464500D01*
X144739557Y-105464500D01*
X144581443Y-105464500D01*
X144581440Y-105464500D01*
X144428717Y-105505422D01*
X144428713Y-105505423D01*
X144348076Y-105551979D01*
X144310893Y-105556874D01*
X144288928Y-105544192D01*
X144229218Y-105484482D01*
X144229216Y-105484480D01*
X144229213Y-105484478D01*
X144229209Y-105484475D01*
X144092286Y-105405423D01*
X144092282Y-105405422D01*
X143939560Y-105364500D01*
X143939557Y-105364500D01*
X143781443Y-105364500D01*
X143781440Y-105364500D01*
X143628717Y-105405422D01*
X143628713Y-105405423D01*
X143491790Y-105484475D01*
X143491781Y-105484482D01*
X143379982Y-105596281D01*
X143379975Y-105596290D01*
X143300923Y-105733213D01*
X143300922Y-105733217D01*
X143260000Y-105885939D01*
X143260000Y-106044060D01*
X143300922Y-106196782D01*
X143300923Y-106196786D01*
X143379975Y-106333709D01*
X143379978Y-106333713D01*
X143379980Y-106333716D01*
X143491784Y-106445520D01*
X143513627Y-106458131D01*
X143536457Y-106487884D01*
X143531562Y-106525066D01*
X143513627Y-106543001D01*
X143441790Y-106584475D01*
X143441781Y-106584482D01*
X143329982Y-106696281D01*
X143329975Y-106696290D01*
X143250923Y-106833213D01*
X143250922Y-106833217D01*
X143210000Y-106985939D01*
X124614790Y-106985939D01*
X124588739Y-106975148D01*
X124574387Y-106940500D01*
X124576057Y-106927818D01*
X124592172Y-106867670D01*
X124598499Y-106844060D01*
X124598500Y-106844060D01*
X124598500Y-106685940D01*
X124598499Y-106685939D01*
X124557578Y-106533220D01*
X124557577Y-106533216D01*
X124508270Y-106447812D01*
X124505065Y-106442261D01*
X124498500Y-106417761D01*
X124498500Y-103342610D01*
X124512852Y-103307962D01*
X127240962Y-100579852D01*
X127275610Y-100565500D01*
X157282108Y-100565500D01*
X168325762Y-100565500D01*
X168350262Y-100572065D01*
X168441213Y-100624576D01*
X168441215Y-100624576D01*
X168441216Y-100624577D01*
X168561665Y-100656851D01*
X168593939Y-100665499D01*
X168593940Y-100665500D01*
X168593943Y-100665500D01*
X168752060Y-100665500D01*
X168752060Y-100665499D01*
X168904784Y-100624577D01*
X169041716Y-100545520D01*
X169153520Y-100433716D01*
X169232577Y-100296784D01*
X169273499Y-100144060D01*
X169273500Y-100144060D01*
X169273500Y-99985940D01*
X169273499Y-99985939D01*
X169232577Y-99833217D01*
X169232576Y-99833213D01*
X169153524Y-99696290D01*
X169153521Y-99696287D01*
X169153520Y-99696284D01*
X169041716Y-99584480D01*
X169041713Y-99584478D01*
X169041709Y-99584475D01*
X168904786Y-99505423D01*
X168904782Y-99505422D01*
X168752060Y-99464500D01*
X168752057Y-99464500D01*
X168593943Y-99464500D01*
X168593940Y-99464500D01*
X168441217Y-99505422D01*
X168441213Y-99505423D01*
X168350262Y-99557935D01*
X168325762Y-99564500D01*
X126982104Y-99564500D01*
X126854815Y-99598607D01*
X126854811Y-99598608D01*
X126740685Y-99664500D01*
X126740685Y-99664501D01*
X123597501Y-102807685D01*
X123597500Y-102807685D01*
X123531608Y-102921811D01*
X123531607Y-102921815D01*
X123497500Y-103049104D01*
X123497500Y-106417761D01*
X123490935Y-106442261D01*
X123438424Y-106533214D01*
X123438422Y-106533218D01*
X123403233Y-106664542D01*
X123380403Y-106694294D01*
X123343220Y-106699189D01*
X123321255Y-106686507D01*
X120137852Y-103503104D01*
X120123500Y-103468456D01*
X120123500Y-98285939D01*
X143310000Y-98285939D01*
X143310000Y-98444060D01*
X143350922Y-98596782D01*
X143350923Y-98596786D01*
X143429975Y-98733709D01*
X143429978Y-98733713D01*
X143429980Y-98733716D01*
X143541784Y-98845520D01*
X143541787Y-98845521D01*
X143541790Y-98845524D01*
X143678713Y-98924576D01*
X143678715Y-98924576D01*
X143678716Y-98924577D01*
X143799165Y-98956851D01*
X143831439Y-98965499D01*
X143831440Y-98965500D01*
X143831443Y-98965500D01*
X143989560Y-98965500D01*
X143989560Y-98965499D01*
X144142284Y-98924577D01*
X144155861Y-98916737D01*
X144193042Y-98911841D01*
X144222796Y-98934670D01*
X144222797Y-98934672D01*
X144279975Y-99033709D01*
X144279978Y-99033713D01*
X144279980Y-99033716D01*
X144391784Y-99145520D01*
X144391787Y-99145521D01*
X144391790Y-99145524D01*
X144528713Y-99224576D01*
X144528715Y-99224576D01*
X144528716Y-99224577D01*
X144649165Y-99256851D01*
X144681439Y-99265499D01*
X144681440Y-99265500D01*
X144681443Y-99265500D01*
X144839560Y-99265500D01*
X144839560Y-99265499D01*
X144992284Y-99224577D01*
X145129216Y-99145520D01*
X145241020Y-99033716D01*
X145304031Y-98924577D01*
X145320076Y-98896786D01*
X145320076Y-98896785D01*
X145320077Y-98896784D01*
X145360999Y-98744060D01*
X145361000Y-98744060D01*
X145361000Y-98585940D01*
X145360999Y-98585939D01*
X145352351Y-98553665D01*
X145320077Y-98433216D01*
X145320076Y-98433215D01*
X145320076Y-98433213D01*
X145241024Y-98296290D01*
X145241021Y-98296287D01*
X145241020Y-98296284D01*
X145219384Y-98274648D01*
X145205032Y-98240000D01*
X145219384Y-98205352D01*
X145241020Y-98183716D01*
X145320077Y-98046784D01*
X145360999Y-97894060D01*
X145361000Y-97894060D01*
X145361000Y-97735940D01*
X145360999Y-97735939D01*
X145320077Y-97583217D01*
X145320076Y-97583213D01*
X145241024Y-97446290D01*
X145241021Y-97446287D01*
X145241020Y-97446284D01*
X145129216Y-97334480D01*
X145129213Y-97334478D01*
X145129209Y-97334475D01*
X144992286Y-97255423D01*
X144992282Y-97255422D01*
X144839560Y-97214500D01*
X144839557Y-97214500D01*
X144681443Y-97214500D01*
X144681440Y-97214500D01*
X144528717Y-97255422D01*
X144528713Y-97255423D01*
X144391790Y-97334475D01*
X144391781Y-97334482D01*
X144279982Y-97446281D01*
X144279975Y-97446290D01*
X144200923Y-97583213D01*
X144200922Y-97583217D01*
X144160000Y-97735939D01*
X144160000Y-97746311D01*
X144145648Y-97780959D01*
X144111000Y-97795311D01*
X144098318Y-97793641D01*
X143989560Y-97764500D01*
X143989557Y-97764500D01*
X143831443Y-97764500D01*
X143831440Y-97764500D01*
X143678717Y-97805422D01*
X143678713Y-97805423D01*
X143541790Y-97884475D01*
X143541781Y-97884482D01*
X143429982Y-97996281D01*
X143429975Y-97996290D01*
X143350923Y-98133213D01*
X143350922Y-98133217D01*
X143310000Y-98285939D01*
X120123500Y-98285939D01*
X120123500Y-96485939D01*
X149747500Y-96485939D01*
X149747500Y-96644060D01*
X149788422Y-96796782D01*
X149788423Y-96796786D01*
X149867475Y-96933709D01*
X149867478Y-96933713D01*
X149867480Y-96933716D01*
X149979284Y-97045520D01*
X149979287Y-97045521D01*
X149979290Y-97045524D01*
X150116213Y-97124576D01*
X150116215Y-97124576D01*
X150116216Y-97124577D01*
X150236665Y-97156851D01*
X150268939Y-97165499D01*
X150268940Y-97165500D01*
X150268943Y-97165500D01*
X150352517Y-97165500D01*
X150387165Y-97179852D01*
X150401517Y-97214500D01*
X150399847Y-97227183D01*
X150397500Y-97235941D01*
X150397500Y-97394060D01*
X150438422Y-97546782D01*
X150438423Y-97546786D01*
X150517475Y-97683709D01*
X150517478Y-97683713D01*
X150517480Y-97683716D01*
X150629284Y-97795520D01*
X150629287Y-97795521D01*
X150629290Y-97795524D01*
X150766213Y-97874576D01*
X150766215Y-97874576D01*
X150766216Y-97874577D01*
X150838928Y-97894060D01*
X150918939Y-97915499D01*
X150918940Y-97915500D01*
X150918943Y-97915500D01*
X151077060Y-97915500D01*
X151077060Y-97915499D01*
X151229784Y-97874577D01*
X151366716Y-97795520D01*
X151478520Y-97683716D01*
X151557577Y-97546784D01*
X151598499Y-97394060D01*
X151598500Y-97394060D01*
X151598500Y-97235940D01*
X151598499Y-97235939D01*
X151579625Y-97165499D01*
X151557577Y-97083216D01*
X151557576Y-97083215D01*
X151557576Y-97083213D01*
X151478524Y-96946290D01*
X151478521Y-96946287D01*
X151478520Y-96946284D01*
X151366716Y-96834480D01*
X151366713Y-96834478D01*
X151366709Y-96834475D01*
X151229786Y-96755423D01*
X151229782Y-96755422D01*
X151077060Y-96714500D01*
X151077057Y-96714500D01*
X150993483Y-96714500D01*
X150958835Y-96700148D01*
X150944483Y-96665500D01*
X150946153Y-96652817D01*
X150948500Y-96644058D01*
X150948500Y-96485940D01*
X150948499Y-96485939D01*
X150929625Y-96415499D01*
X150907577Y-96333216D01*
X150907576Y-96333215D01*
X150907576Y-96333213D01*
X150828524Y-96196290D01*
X150828521Y-96196287D01*
X150828520Y-96196284D01*
X150716716Y-96084480D01*
X150716713Y-96084478D01*
X150716709Y-96084475D01*
X150579786Y-96005423D01*
X150579782Y-96005422D01*
X150427060Y-95964500D01*
X150427057Y-95964500D01*
X150268943Y-95964500D01*
X150268940Y-95964500D01*
X150116217Y-96005422D01*
X150116213Y-96005423D01*
X149979290Y-96084475D01*
X149979281Y-96084482D01*
X149867482Y-96196281D01*
X149867475Y-96196290D01*
X149788423Y-96333213D01*
X149788422Y-96333217D01*
X149747500Y-96485939D01*
X120123500Y-96485939D01*
X120123500Y-95735939D01*
X153647500Y-95735939D01*
X153647500Y-95894060D01*
X153688422Y-96046782D01*
X153688423Y-96046786D01*
X153767475Y-96183709D01*
X153767478Y-96183713D01*
X153767480Y-96183716D01*
X153879284Y-96295520D01*
X153879287Y-96295521D01*
X153879290Y-96295524D01*
X154016213Y-96374576D01*
X154016215Y-96374576D01*
X154016216Y-96374577D01*
X154136665Y-96406851D01*
X154168939Y-96415499D01*
X154168940Y-96415500D01*
X154168943Y-96415500D01*
X154327060Y-96415500D01*
X154327060Y-96415499D01*
X154479784Y-96374577D01*
X154616716Y-96295520D01*
X154728520Y-96183716D01*
X154785812Y-96084482D01*
X154807576Y-96046786D01*
X154807576Y-96046785D01*
X154807577Y-96046784D01*
X154848499Y-95894060D01*
X154848500Y-95894060D01*
X154848500Y-95735940D01*
X154848499Y-95735939D01*
X154839073Y-95700760D01*
X154807577Y-95583216D01*
X154807576Y-95583215D01*
X154807576Y-95583213D01*
X154728524Y-95446290D01*
X154728521Y-95446287D01*
X154728520Y-95446284D01*
X154616716Y-95334480D01*
X154616713Y-95334478D01*
X154616709Y-95334475D01*
X154479786Y-95255423D01*
X154479782Y-95255422D01*
X154327060Y-95214500D01*
X154327057Y-95214500D01*
X154168943Y-95214500D01*
X154168940Y-95214500D01*
X154016217Y-95255422D01*
X154016213Y-95255423D01*
X153879290Y-95334475D01*
X153879281Y-95334482D01*
X153767482Y-95446281D01*
X153767475Y-95446290D01*
X153688423Y-95583213D01*
X153688422Y-95583217D01*
X153647500Y-95735939D01*
X120123500Y-95735939D01*
X120123500Y-94685939D01*
X149547500Y-94685939D01*
X149547500Y-94844060D01*
X149588422Y-94996782D01*
X149588423Y-94996786D01*
X149667475Y-95133709D01*
X149667478Y-95133713D01*
X149667480Y-95133716D01*
X149779284Y-95245520D01*
X149779287Y-95245521D01*
X149779290Y-95245524D01*
X149916213Y-95324576D01*
X149916215Y-95324576D01*
X149916216Y-95324577D01*
X150036665Y-95356851D01*
X150068939Y-95365499D01*
X150068940Y-95365500D01*
X150068943Y-95365500D01*
X150227060Y-95365500D01*
X150227060Y-95365499D01*
X150379784Y-95324577D01*
X150516716Y-95245520D01*
X150628520Y-95133716D01*
X150707577Y-94996784D01*
X150748499Y-94844060D01*
X150748500Y-94844060D01*
X150748500Y-94685940D01*
X150748499Y-94685939D01*
X150707577Y-94533217D01*
X150707576Y-94533213D01*
X150628524Y-94396290D01*
X150628521Y-94396287D01*
X150628520Y-94396284D01*
X150516716Y-94284480D01*
X150516713Y-94284478D01*
X150516709Y-94284475D01*
X150379786Y-94205423D01*
X150379782Y-94205422D01*
X150227060Y-94164500D01*
X150227057Y-94164500D01*
X150068943Y-94164500D01*
X150068940Y-94164500D01*
X149916217Y-94205422D01*
X149916213Y-94205423D01*
X149779290Y-94284475D01*
X149779281Y-94284482D01*
X149667482Y-94396281D01*
X149667475Y-94396290D01*
X149588423Y-94533213D01*
X149588422Y-94533217D01*
X149547500Y-94685939D01*
X120123500Y-94685939D01*
X120123500Y-93310939D01*
X124997500Y-93310939D01*
X124997500Y-93469060D01*
X125038422Y-93621782D01*
X125038423Y-93621786D01*
X125117475Y-93758709D01*
X125117478Y-93758713D01*
X125117480Y-93758716D01*
X125229284Y-93870520D01*
X125229287Y-93870521D01*
X125229290Y-93870524D01*
X125366213Y-93949576D01*
X125366215Y-93949576D01*
X125366216Y-93949577D01*
X125486665Y-93981851D01*
X125518939Y-93990499D01*
X125518940Y-93990500D01*
X125518943Y-93990500D01*
X125677060Y-93990500D01*
X125677060Y-93990499D01*
X125829784Y-93949577D01*
X125966716Y-93870520D01*
X126078520Y-93758716D01*
X126115228Y-93695136D01*
X126157576Y-93621786D01*
X126157576Y-93621785D01*
X126157577Y-93621784D01*
X126198499Y-93469060D01*
X126198500Y-93469060D01*
X126198500Y-93310940D01*
X126198499Y-93310939D01*
X126164410Y-93183718D01*
X126157577Y-93158216D01*
X126157576Y-93158215D01*
X126157576Y-93158213D01*
X126078524Y-93021290D01*
X126078521Y-93021287D01*
X126078520Y-93021284D01*
X125966716Y-92909480D01*
X125966713Y-92909478D01*
X125966709Y-92909475D01*
X125829786Y-92830423D01*
X125829782Y-92830422D01*
X125677060Y-92789500D01*
X125677057Y-92789500D01*
X125518943Y-92789500D01*
X125518940Y-92789500D01*
X125366217Y-92830422D01*
X125366213Y-92830423D01*
X125229290Y-92909475D01*
X125229281Y-92909482D01*
X125117482Y-93021281D01*
X125117475Y-93021290D01*
X125038423Y-93158213D01*
X125038422Y-93158217D01*
X124997500Y-93310939D01*
X120123500Y-93310939D01*
X120123500Y-92135939D01*
X134247500Y-92135939D01*
X134247500Y-92294060D01*
X134288422Y-92446782D01*
X134288423Y-92446786D01*
X134367475Y-92583709D01*
X134367478Y-92583713D01*
X134367480Y-92583716D01*
X134479284Y-92695520D01*
X134479287Y-92695521D01*
X134479290Y-92695524D01*
X134616213Y-92774576D01*
X134616215Y-92774576D01*
X134616216Y-92774577D01*
X134736665Y-92806851D01*
X134768939Y-92815499D01*
X134768940Y-92815500D01*
X134768943Y-92815500D01*
X134927060Y-92815500D01*
X134927060Y-92815499D01*
X135079784Y-92774577D01*
X135146708Y-92735939D01*
X140760000Y-92735939D01*
X140760000Y-92894060D01*
X140800922Y-93046782D01*
X140800923Y-93046786D01*
X140879975Y-93183709D01*
X140879982Y-93183718D01*
X140926616Y-93230352D01*
X140940968Y-93265000D01*
X140926616Y-93299648D01*
X140879982Y-93346281D01*
X140879975Y-93346290D01*
X140800923Y-93483213D01*
X140800922Y-93483217D01*
X140760000Y-93635939D01*
X140760000Y-93794060D01*
X140800922Y-93946782D01*
X140800923Y-93946786D01*
X140879975Y-94083709D01*
X140879978Y-94083713D01*
X140879980Y-94083716D01*
X140991784Y-94195520D01*
X140991787Y-94195521D01*
X140991790Y-94195524D01*
X141128713Y-94274576D01*
X141128715Y-94274576D01*
X141128716Y-94274577D01*
X141249165Y-94306851D01*
X141281439Y-94315499D01*
X141281440Y-94315500D01*
X141281443Y-94315500D01*
X141439560Y-94315500D01*
X141439560Y-94315499D01*
X141592284Y-94274577D01*
X141729216Y-94195520D01*
X141841020Y-94083716D01*
X141894838Y-93990499D01*
X141920076Y-93946786D01*
X141920076Y-93946785D01*
X141920077Y-93946784D01*
X141960999Y-93794060D01*
X141961000Y-93794060D01*
X141961000Y-93635940D01*
X141960999Y-93635939D01*
X141942589Y-93567233D01*
X141920077Y-93483216D01*
X141920076Y-93483215D01*
X141920076Y-93483213D01*
X141841024Y-93346290D01*
X141841021Y-93346287D01*
X141841020Y-93346284D01*
X141794384Y-93299648D01*
X141780032Y-93265000D01*
X141794384Y-93230352D01*
X141841020Y-93183716D01*
X141890746Y-93097587D01*
X141920076Y-93046786D01*
X141920076Y-93046785D01*
X141920077Y-93046784D01*
X141960999Y-92894060D01*
X141961000Y-92894060D01*
X141961000Y-92735941D01*
X141939655Y-92656283D01*
X141939655Y-92656282D01*
X141936900Y-92646001D01*
X168797500Y-92646001D01*
X168797500Y-92783998D01*
X168824417Y-92919318D01*
X168824420Y-92919329D01*
X168877223Y-93046807D01*
X168877225Y-93046811D01*
X168908137Y-93093074D01*
X168953883Y-93161539D01*
X169051460Y-93259116D01*
X169097102Y-93289613D01*
X169166189Y-93335775D01*
X169293672Y-93388580D01*
X169293678Y-93388581D01*
X169293681Y-93388582D01*
X169429001Y-93415499D01*
X169429007Y-93415500D01*
X169566993Y-93415500D01*
X169702328Y-93388580D01*
X169829811Y-93335775D01*
X169944542Y-93259114D01*
X170042114Y-93161542D01*
X170118775Y-93046811D01*
X170171580Y-92919328D01*
X170198500Y-92783993D01*
X170198500Y-92646007D01*
X170186110Y-92583718D01*
X170171582Y-92510681D01*
X170171579Y-92510670D01*
X170118775Y-92383189D01*
X170059219Y-92294057D01*
X170042116Y-92268460D01*
X169944539Y-92170883D01*
X169843913Y-92103648D01*
X169829811Y-92094225D01*
X169829808Y-92094223D01*
X169829807Y-92094223D01*
X169702329Y-92041420D01*
X169702318Y-92041417D01*
X169566998Y-92014500D01*
X169566993Y-92014500D01*
X169429007Y-92014500D01*
X169429001Y-92014500D01*
X169293681Y-92041417D01*
X169293670Y-92041420D01*
X169166192Y-92094223D01*
X169051460Y-92170883D01*
X168953883Y-92268460D01*
X168877223Y-92383192D01*
X168824420Y-92510670D01*
X168824417Y-92510681D01*
X168797500Y-92646001D01*
X141936900Y-92646001D01*
X141920077Y-92583216D01*
X141920076Y-92583213D01*
X141841024Y-92446290D01*
X141841021Y-92446287D01*
X141841020Y-92446284D01*
X141729216Y-92334480D01*
X141729213Y-92334478D01*
X141729209Y-92334475D01*
X141592286Y-92255423D01*
X141592282Y-92255422D01*
X141439560Y-92214500D01*
X141439557Y-92214500D01*
X141281443Y-92214500D01*
X141281440Y-92214500D01*
X141128717Y-92255422D01*
X141128713Y-92255423D01*
X140991790Y-92334475D01*
X140991781Y-92334482D01*
X140879982Y-92446281D01*
X140879975Y-92446290D01*
X140800923Y-92583213D01*
X140800922Y-92583217D01*
X140760000Y-92735939D01*
X135146708Y-92735939D01*
X135216716Y-92695520D01*
X135328520Y-92583716D01*
X135407577Y-92446784D01*
X135448499Y-92294060D01*
X135448500Y-92294060D01*
X135448500Y-92135940D01*
X135448499Y-92135939D01*
X135423172Y-92041417D01*
X135407577Y-91983216D01*
X135407576Y-91983215D01*
X135407576Y-91983213D01*
X135328524Y-91846290D01*
X135328521Y-91846287D01*
X135328520Y-91846284D01*
X135216716Y-91734480D01*
X135216713Y-91734478D01*
X135216709Y-91734475D01*
X135079786Y-91655423D01*
X135079782Y-91655422D01*
X134927060Y-91614500D01*
X134927057Y-91614500D01*
X134768943Y-91614500D01*
X134768940Y-91614500D01*
X134616217Y-91655422D01*
X134616213Y-91655423D01*
X134479290Y-91734475D01*
X134479281Y-91734482D01*
X134367482Y-91846281D01*
X134367475Y-91846290D01*
X134288423Y-91983213D01*
X134288422Y-91983217D01*
X134247500Y-92135939D01*
X120123500Y-92135939D01*
X120123500Y-90459032D01*
X120137852Y-90424384D01*
X120178520Y-90383716D01*
X120257577Y-90246784D01*
X120298499Y-90094060D01*
X120298500Y-90094060D01*
X120298500Y-89935940D01*
X120298499Y-89935939D01*
X120267181Y-89819060D01*
X120257577Y-89783216D01*
X120257576Y-89783215D01*
X120257576Y-89783213D01*
X120199274Y-89682231D01*
X120199273Y-89682230D01*
X120186981Y-89660939D01*
X154022500Y-89660939D01*
X154022500Y-89819060D01*
X154063422Y-89971782D01*
X154063423Y-89971786D01*
X154142475Y-90108709D01*
X154142478Y-90108713D01*
X154142480Y-90108716D01*
X154254284Y-90220520D01*
X154254287Y-90220521D01*
X154254290Y-90220524D01*
X154391213Y-90299576D01*
X154391215Y-90299576D01*
X154391216Y-90299577D01*
X154413034Y-90305423D01*
X154543939Y-90340499D01*
X154543940Y-90340500D01*
X154543943Y-90340500D01*
X154702060Y-90340500D01*
X154702060Y-90340499D01*
X154854784Y-90299577D01*
X154946229Y-90246782D01*
X154991709Y-90220524D01*
X154991708Y-90220524D01*
X154991716Y-90220520D01*
X155103520Y-90108716D01*
X155135321Y-90053634D01*
X155182576Y-89971786D01*
X155182576Y-89971785D01*
X155182577Y-89971784D01*
X155223499Y-89819060D01*
X155223500Y-89819060D01*
X155223500Y-89660940D01*
X155223499Y-89660939D01*
X155202805Y-89583709D01*
X155182577Y-89508216D01*
X155182576Y-89508215D01*
X155182576Y-89508213D01*
X155103524Y-89371290D01*
X155103521Y-89371287D01*
X155103520Y-89371284D01*
X154991716Y-89259480D01*
X154991713Y-89259478D01*
X154991709Y-89259475D01*
X154854786Y-89180423D01*
X154854782Y-89180422D01*
X154702060Y-89139500D01*
X154702057Y-89139500D01*
X154543943Y-89139500D01*
X154543940Y-89139500D01*
X154391217Y-89180422D01*
X154391213Y-89180423D01*
X154254290Y-89259475D01*
X154254281Y-89259482D01*
X154142482Y-89371281D01*
X154142475Y-89371290D01*
X154063423Y-89508213D01*
X154063422Y-89508217D01*
X154022500Y-89660939D01*
X120186981Y-89660939D01*
X120178522Y-89646287D01*
X120178517Y-89646281D01*
X120066718Y-89534482D01*
X120066716Y-89534480D01*
X120066713Y-89534478D01*
X120066709Y-89534475D01*
X119975705Y-89481935D01*
X119952875Y-89452182D01*
X119957770Y-89415000D01*
X119987523Y-89392170D01*
X120000205Y-89390500D01*
X131204021Y-89390500D01*
X131204021Y-89390499D01*
X131312237Y-89361503D01*
X131409263Y-89305485D01*
X135084896Y-85629852D01*
X135119544Y-85615500D01*
X173176456Y-85615500D01*
X173211104Y-85629852D01*
G37*
G04 #@! TD.AperFunction*
G04 #@! TA.AperFunction,Conductor*
G36*
X123539616Y-108604852D02*
G01*
X123553968Y-108639500D01*
X123539616Y-108674148D01*
X123467482Y-108746281D01*
X123467475Y-108746290D01*
X123388423Y-108883213D01*
X123388422Y-108883217D01*
X123347500Y-109035939D01*
X123347500Y-109194060D01*
X123388422Y-109346782D01*
X123388423Y-109346786D01*
X123467475Y-109483709D01*
X123467478Y-109483713D01*
X123467480Y-109483716D01*
X123579284Y-109595520D01*
X123579287Y-109595521D01*
X123579290Y-109595524D01*
X123716213Y-109674576D01*
X123716215Y-109674576D01*
X123716216Y-109674577D01*
X123836665Y-109706851D01*
X123868939Y-109715499D01*
X123868940Y-109715500D01*
X123868943Y-109715500D01*
X123926456Y-109715500D01*
X123961104Y-109729852D01*
X124187104Y-109955852D01*
X124201456Y-109990500D01*
X124187104Y-110025148D01*
X124152456Y-110039500D01*
X120306948Y-110039500D01*
X120198733Y-110068496D01*
X120198729Y-110068497D01*
X120101705Y-110124515D01*
X120101705Y-110124516D01*
X117857148Y-112369073D01*
X117822500Y-112383425D01*
X117787852Y-112369073D01*
X117773500Y-112334425D01*
X117773500Y-112328772D01*
X117773499Y-112328765D01*
X117739857Y-112159635D01*
X117739854Y-112159624D01*
X117683916Y-112024577D01*
X117673858Y-112000295D01*
X117578045Y-111856901D01*
X117545292Y-111824148D01*
X117530940Y-111789500D01*
X117545292Y-111754852D01*
X117579940Y-111740500D01*
X117854021Y-111740500D01*
X117854021Y-111740499D01*
X117962237Y-111711503D01*
X118059263Y-111655485D01*
X121109896Y-108604852D01*
X121144544Y-108590500D01*
X123504968Y-108590500D01*
X123539616Y-108604852D01*
G37*
G04 #@! TD.AperFunction*
G04 #@! TA.AperFunction,Conductor*
G36*
X128574744Y-108243492D02*
G01*
X130308148Y-109976896D01*
X130322500Y-110011544D01*
X130322500Y-110020968D01*
X130308148Y-110055616D01*
X130267482Y-110096281D01*
X130267475Y-110096290D01*
X130188423Y-110233213D01*
X130188422Y-110233217D01*
X130147500Y-110385939D01*
X130147500Y-110544060D01*
X130161915Y-110597859D01*
X130157020Y-110635041D01*
X130127267Y-110657871D01*
X130090085Y-110652976D01*
X130079937Y-110645189D01*
X128709263Y-109274515D01*
X128612239Y-109218497D01*
X128612235Y-109218496D01*
X128504021Y-109189500D01*
X128504018Y-109189500D01*
X127236080Y-109189500D01*
X127124043Y-109189500D01*
X127119077Y-109190830D01*
X127106396Y-109192500D01*
X126789604Y-109192500D01*
X126776922Y-109190830D01*
X126771957Y-109189500D01*
X126771956Y-109189500D01*
X124644544Y-109189500D01*
X124609896Y-109175148D01*
X124562852Y-109128104D01*
X124548500Y-109093456D01*
X124548500Y-109035940D01*
X124548499Y-109035939D01*
X124507577Y-108883217D01*
X124507576Y-108883213D01*
X124428524Y-108746290D01*
X124428521Y-108746287D01*
X124428520Y-108746284D01*
X124356384Y-108674148D01*
X124342032Y-108639500D01*
X124356384Y-108604852D01*
X124391032Y-108590500D01*
X127453968Y-108590500D01*
X127488616Y-108604852D01*
X127529284Y-108645520D01*
X127529287Y-108645521D01*
X127529290Y-108645524D01*
X127666213Y-108724576D01*
X127666215Y-108724576D01*
X127666216Y-108724577D01*
X127747217Y-108746281D01*
X127818939Y-108765499D01*
X127818940Y-108765500D01*
X127818943Y-108765500D01*
X127977060Y-108765500D01*
X127977060Y-108765499D01*
X128129784Y-108724577D01*
X128223666Y-108670375D01*
X128266709Y-108645524D01*
X128266708Y-108645524D01*
X128266716Y-108645520D01*
X128378520Y-108533716D01*
X128457577Y-108396784D01*
X128492766Y-108265458D01*
X128515596Y-108235705D01*
X128552778Y-108230810D01*
X128574744Y-108243492D01*
G37*
G04 #@! TD.AperFunction*
M02*
