G04 #@! TF.GenerationSoftware,KiCad,Pcbnew,9.0.5*
G04 #@! TF.CreationDate,2025-11-21T19:54:47+01:00*
G04 #@! TF.ProjectId,ShieldArduino_Semaforo,53686965-6c64-4417-9264-75696e6f5f53,rev?*
G04 #@! TF.SameCoordinates,Original*
G04 #@! TF.FileFunction,Legend,Bot*
G04 #@! TF.FilePolarity,Positive*
%FSLAX46Y46*%
G04 Gerber Fmt 4.6, Leading zero omitted, Abs format (unit mm)*
G04 Created by KiCad (PCBNEW 9.0.5) date 2025-11-21 19:54:47*
%MOMM*%
%LPD*%
G01*
G04 APERTURE LIST*
%ADD10C,0.125000*%
%ADD11C,0.000000*%
%ADD12C,0.120000*%
G04 APERTURE END LIST*
D10*
X150117046Y-117464809D02*
X149831332Y-117464809D01*
X149974189Y-117964809D02*
X149974189Y-117464809D01*
X149664666Y-117964809D02*
X149664666Y-117464809D01*
X149664666Y-117464809D02*
X149474190Y-117464809D01*
X149474190Y-117464809D02*
X149426571Y-117488619D01*
X149426571Y-117488619D02*
X149402761Y-117512428D01*
X149402761Y-117512428D02*
X149378952Y-117560047D01*
X149378952Y-117560047D02*
X149378952Y-117631476D01*
X149378952Y-117631476D02*
X149402761Y-117679095D01*
X149402761Y-117679095D02*
X149426571Y-117702904D01*
X149426571Y-117702904D02*
X149474190Y-117726714D01*
X149474190Y-117726714D02*
X149664666Y-117726714D01*
X148902761Y-117964809D02*
X149188475Y-117964809D01*
X149045618Y-117964809D02*
X149045618Y-117464809D01*
X149045618Y-117464809D02*
X149093237Y-117536238D01*
X149093237Y-117536238D02*
X149140856Y-117583857D01*
X149140856Y-117583857D02*
X149188475Y-117607666D01*
X148664666Y-117964809D02*
X148569428Y-117964809D01*
X148569428Y-117964809D02*
X148521809Y-117941000D01*
X148521809Y-117941000D02*
X148498000Y-117917190D01*
X148498000Y-117917190D02*
X148450381Y-117845761D01*
X148450381Y-117845761D02*
X148426571Y-117750523D01*
X148426571Y-117750523D02*
X148426571Y-117560047D01*
X148426571Y-117560047D02*
X148450381Y-117512428D01*
X148450381Y-117512428D02*
X148474190Y-117488619D01*
X148474190Y-117488619D02*
X148521809Y-117464809D01*
X148521809Y-117464809D02*
X148617047Y-117464809D01*
X148617047Y-117464809D02*
X148664666Y-117488619D01*
X148664666Y-117488619D02*
X148688476Y-117512428D01*
X148688476Y-117512428D02*
X148712285Y-117560047D01*
X148712285Y-117560047D02*
X148712285Y-117679095D01*
X148712285Y-117679095D02*
X148688476Y-117726714D01*
X148688476Y-117726714D02*
X148664666Y-117750523D01*
X148664666Y-117750523D02*
X148617047Y-117774333D01*
X148617047Y-117774333D02*
X148521809Y-117774333D01*
X148521809Y-117774333D02*
X148474190Y-117750523D01*
X148474190Y-117750523D02*
X148450381Y-117726714D01*
X148450381Y-117726714D02*
X148426571Y-117679095D01*
X166842046Y-117339809D02*
X166556332Y-117339809D01*
X166699189Y-117839809D02*
X166699189Y-117339809D01*
X166389666Y-117839809D02*
X166389666Y-117339809D01*
X166389666Y-117339809D02*
X166199190Y-117339809D01*
X166199190Y-117339809D02*
X166151571Y-117363619D01*
X166151571Y-117363619D02*
X166127761Y-117387428D01*
X166127761Y-117387428D02*
X166103952Y-117435047D01*
X166103952Y-117435047D02*
X166103952Y-117506476D01*
X166103952Y-117506476D02*
X166127761Y-117554095D01*
X166127761Y-117554095D02*
X166151571Y-117577904D01*
X166151571Y-117577904D02*
X166199190Y-117601714D01*
X166199190Y-117601714D02*
X166389666Y-117601714D01*
X165627761Y-117839809D02*
X165913475Y-117839809D01*
X165770618Y-117839809D02*
X165770618Y-117339809D01*
X165770618Y-117339809D02*
X165818237Y-117411238D01*
X165818237Y-117411238D02*
X165865856Y-117458857D01*
X165865856Y-117458857D02*
X165913475Y-117482666D01*
X165318238Y-117339809D02*
X165270619Y-117339809D01*
X165270619Y-117339809D02*
X165223000Y-117363619D01*
X165223000Y-117363619D02*
X165199190Y-117387428D01*
X165199190Y-117387428D02*
X165175381Y-117435047D01*
X165175381Y-117435047D02*
X165151571Y-117530285D01*
X165151571Y-117530285D02*
X165151571Y-117649333D01*
X165151571Y-117649333D02*
X165175381Y-117744571D01*
X165175381Y-117744571D02*
X165199190Y-117792190D01*
X165199190Y-117792190D02*
X165223000Y-117816000D01*
X165223000Y-117816000D02*
X165270619Y-117839809D01*
X165270619Y-117839809D02*
X165318238Y-117839809D01*
X165318238Y-117839809D02*
X165365857Y-117816000D01*
X165365857Y-117816000D02*
X165389666Y-117792190D01*
X165389666Y-117792190D02*
X165413476Y-117744571D01*
X165413476Y-117744571D02*
X165437285Y-117649333D01*
X165437285Y-117649333D02*
X165437285Y-117530285D01*
X165437285Y-117530285D02*
X165413476Y-117435047D01*
X165413476Y-117435047D02*
X165389666Y-117387428D01*
X165389666Y-117387428D02*
X165365857Y-117363619D01*
X165365857Y-117363619D02*
X165318238Y-117339809D01*
X116878951Y-77239809D02*
X116593237Y-77239809D01*
X116736094Y-77739809D02*
X116736094Y-77239809D01*
X116426571Y-77739809D02*
X116426571Y-77239809D01*
X116426571Y-77239809D02*
X116236095Y-77239809D01*
X116236095Y-77239809D02*
X116188476Y-77263619D01*
X116188476Y-77263619D02*
X116164666Y-77287428D01*
X116164666Y-77287428D02*
X116140857Y-77335047D01*
X116140857Y-77335047D02*
X116140857Y-77406476D01*
X116140857Y-77406476D02*
X116164666Y-77454095D01*
X116164666Y-77454095D02*
X116188476Y-77477904D01*
X116188476Y-77477904D02*
X116236095Y-77501714D01*
X116236095Y-77501714D02*
X116426571Y-77501714D01*
X115974190Y-77239809D02*
X115664666Y-77239809D01*
X115664666Y-77239809D02*
X115831333Y-77430285D01*
X115831333Y-77430285D02*
X115759904Y-77430285D01*
X115759904Y-77430285D02*
X115712285Y-77454095D01*
X115712285Y-77454095D02*
X115688476Y-77477904D01*
X115688476Y-77477904D02*
X115664666Y-77525523D01*
X115664666Y-77525523D02*
X115664666Y-77644571D01*
X115664666Y-77644571D02*
X115688476Y-77692190D01*
X115688476Y-77692190D02*
X115712285Y-77716000D01*
X115712285Y-77716000D02*
X115759904Y-77739809D01*
X115759904Y-77739809D02*
X115902761Y-77739809D01*
X115902761Y-77739809D02*
X115950380Y-77716000D01*
X115950380Y-77716000D02*
X115974190Y-77692190D01*
X161878951Y-82014809D02*
X161593237Y-82014809D01*
X161736094Y-82514809D02*
X161736094Y-82014809D01*
X161426571Y-82514809D02*
X161426571Y-82014809D01*
X161426571Y-82014809D02*
X161236095Y-82014809D01*
X161236095Y-82014809D02*
X161188476Y-82038619D01*
X161188476Y-82038619D02*
X161164666Y-82062428D01*
X161164666Y-82062428D02*
X161140857Y-82110047D01*
X161140857Y-82110047D02*
X161140857Y-82181476D01*
X161140857Y-82181476D02*
X161164666Y-82229095D01*
X161164666Y-82229095D02*
X161188476Y-82252904D01*
X161188476Y-82252904D02*
X161236095Y-82276714D01*
X161236095Y-82276714D02*
X161426571Y-82276714D01*
X160902761Y-82514809D02*
X160807523Y-82514809D01*
X160807523Y-82514809D02*
X160759904Y-82491000D01*
X160759904Y-82491000D02*
X160736095Y-82467190D01*
X160736095Y-82467190D02*
X160688476Y-82395761D01*
X160688476Y-82395761D02*
X160664666Y-82300523D01*
X160664666Y-82300523D02*
X160664666Y-82110047D01*
X160664666Y-82110047D02*
X160688476Y-82062428D01*
X160688476Y-82062428D02*
X160712285Y-82038619D01*
X160712285Y-82038619D02*
X160759904Y-82014809D01*
X160759904Y-82014809D02*
X160855142Y-82014809D01*
X160855142Y-82014809D02*
X160902761Y-82038619D01*
X160902761Y-82038619D02*
X160926571Y-82062428D01*
X160926571Y-82062428D02*
X160950380Y-82110047D01*
X160950380Y-82110047D02*
X160950380Y-82229095D01*
X160950380Y-82229095D02*
X160926571Y-82276714D01*
X160926571Y-82276714D02*
X160902761Y-82300523D01*
X160902761Y-82300523D02*
X160855142Y-82324333D01*
X160855142Y-82324333D02*
X160759904Y-82324333D01*
X160759904Y-82324333D02*
X160712285Y-82300523D01*
X160712285Y-82300523D02*
X160688476Y-82276714D01*
X160688476Y-82276714D02*
X160664666Y-82229095D01*
X127617046Y-83489809D02*
X127331332Y-83489809D01*
X127474189Y-83989809D02*
X127474189Y-83489809D01*
X127164666Y-83989809D02*
X127164666Y-83489809D01*
X127164666Y-83489809D02*
X126974190Y-83489809D01*
X126974190Y-83489809D02*
X126926571Y-83513619D01*
X126926571Y-83513619D02*
X126902761Y-83537428D01*
X126902761Y-83537428D02*
X126878952Y-83585047D01*
X126878952Y-83585047D02*
X126878952Y-83656476D01*
X126878952Y-83656476D02*
X126902761Y-83704095D01*
X126902761Y-83704095D02*
X126926571Y-83727904D01*
X126926571Y-83727904D02*
X126974190Y-83751714D01*
X126974190Y-83751714D02*
X127164666Y-83751714D01*
X126402761Y-83989809D02*
X126688475Y-83989809D01*
X126545618Y-83989809D02*
X126545618Y-83489809D01*
X126545618Y-83489809D02*
X126593237Y-83561238D01*
X126593237Y-83561238D02*
X126640856Y-83608857D01*
X126640856Y-83608857D02*
X126688475Y-83632666D01*
X125974190Y-83656476D02*
X125974190Y-83989809D01*
X126093238Y-83466000D02*
X126212285Y-83823142D01*
X126212285Y-83823142D02*
X125902762Y-83823142D01*
X169878951Y-79239809D02*
X169593237Y-79239809D01*
X169736094Y-79739809D02*
X169736094Y-79239809D01*
X169426571Y-79739809D02*
X169426571Y-79239809D01*
X169426571Y-79239809D02*
X169236095Y-79239809D01*
X169236095Y-79239809D02*
X169188476Y-79263619D01*
X169188476Y-79263619D02*
X169164666Y-79287428D01*
X169164666Y-79287428D02*
X169140857Y-79335047D01*
X169140857Y-79335047D02*
X169140857Y-79406476D01*
X169140857Y-79406476D02*
X169164666Y-79454095D01*
X169164666Y-79454095D02*
X169188476Y-79477904D01*
X169188476Y-79477904D02*
X169236095Y-79501714D01*
X169236095Y-79501714D02*
X169426571Y-79501714D01*
X168688476Y-79239809D02*
X168926571Y-79239809D01*
X168926571Y-79239809D02*
X168950380Y-79477904D01*
X168950380Y-79477904D02*
X168926571Y-79454095D01*
X168926571Y-79454095D02*
X168878952Y-79430285D01*
X168878952Y-79430285D02*
X168759904Y-79430285D01*
X168759904Y-79430285D02*
X168712285Y-79454095D01*
X168712285Y-79454095D02*
X168688476Y-79477904D01*
X168688476Y-79477904D02*
X168664666Y-79525523D01*
X168664666Y-79525523D02*
X168664666Y-79644571D01*
X168664666Y-79644571D02*
X168688476Y-79692190D01*
X168688476Y-79692190D02*
X168712285Y-79716000D01*
X168712285Y-79716000D02*
X168759904Y-79739809D01*
X168759904Y-79739809D02*
X168878952Y-79739809D01*
X168878952Y-79739809D02*
X168926571Y-79716000D01*
X168926571Y-79716000D02*
X168950380Y-79692190D01*
X151617046Y-119714809D02*
X151331332Y-119714809D01*
X151474189Y-120214809D02*
X151474189Y-119714809D01*
X151164666Y-120214809D02*
X151164666Y-119714809D01*
X151164666Y-119714809D02*
X150974190Y-119714809D01*
X150974190Y-119714809D02*
X150926571Y-119738619D01*
X150926571Y-119738619D02*
X150902761Y-119762428D01*
X150902761Y-119762428D02*
X150878952Y-119810047D01*
X150878952Y-119810047D02*
X150878952Y-119881476D01*
X150878952Y-119881476D02*
X150902761Y-119929095D01*
X150902761Y-119929095D02*
X150926571Y-119952904D01*
X150926571Y-119952904D02*
X150974190Y-119976714D01*
X150974190Y-119976714D02*
X151164666Y-119976714D01*
X150402761Y-120214809D02*
X150688475Y-120214809D01*
X150545618Y-120214809D02*
X150545618Y-119714809D01*
X150545618Y-119714809D02*
X150593237Y-119786238D01*
X150593237Y-119786238D02*
X150640856Y-119833857D01*
X150640856Y-119833857D02*
X150688475Y-119857666D01*
X150117047Y-119929095D02*
X150164666Y-119905285D01*
X150164666Y-119905285D02*
X150188476Y-119881476D01*
X150188476Y-119881476D02*
X150212285Y-119833857D01*
X150212285Y-119833857D02*
X150212285Y-119810047D01*
X150212285Y-119810047D02*
X150188476Y-119762428D01*
X150188476Y-119762428D02*
X150164666Y-119738619D01*
X150164666Y-119738619D02*
X150117047Y-119714809D01*
X150117047Y-119714809D02*
X150021809Y-119714809D01*
X150021809Y-119714809D02*
X149974190Y-119738619D01*
X149974190Y-119738619D02*
X149950381Y-119762428D01*
X149950381Y-119762428D02*
X149926571Y-119810047D01*
X149926571Y-119810047D02*
X149926571Y-119833857D01*
X149926571Y-119833857D02*
X149950381Y-119881476D01*
X149950381Y-119881476D02*
X149974190Y-119905285D01*
X149974190Y-119905285D02*
X150021809Y-119929095D01*
X150021809Y-119929095D02*
X150117047Y-119929095D01*
X150117047Y-119929095D02*
X150164666Y-119952904D01*
X150164666Y-119952904D02*
X150188476Y-119976714D01*
X150188476Y-119976714D02*
X150212285Y-120024333D01*
X150212285Y-120024333D02*
X150212285Y-120119571D01*
X150212285Y-120119571D02*
X150188476Y-120167190D01*
X150188476Y-120167190D02*
X150164666Y-120191000D01*
X150164666Y-120191000D02*
X150117047Y-120214809D01*
X150117047Y-120214809D02*
X150021809Y-120214809D01*
X150021809Y-120214809D02*
X149974190Y-120191000D01*
X149974190Y-120191000D02*
X149950381Y-120167190D01*
X149950381Y-120167190D02*
X149926571Y-120119571D01*
X149926571Y-120119571D02*
X149926571Y-120024333D01*
X149926571Y-120024333D02*
X149950381Y-119976714D01*
X149950381Y-119976714D02*
X149974190Y-119952904D01*
X149974190Y-119952904D02*
X150021809Y-119929095D01*
X160417046Y-116289809D02*
X160131332Y-116289809D01*
X160274189Y-116789809D02*
X160274189Y-116289809D01*
X159964666Y-116789809D02*
X159964666Y-116289809D01*
X159964666Y-116289809D02*
X159774190Y-116289809D01*
X159774190Y-116289809D02*
X159726571Y-116313619D01*
X159726571Y-116313619D02*
X159702761Y-116337428D01*
X159702761Y-116337428D02*
X159678952Y-116385047D01*
X159678952Y-116385047D02*
X159678952Y-116456476D01*
X159678952Y-116456476D02*
X159702761Y-116504095D01*
X159702761Y-116504095D02*
X159726571Y-116527904D01*
X159726571Y-116527904D02*
X159774190Y-116551714D01*
X159774190Y-116551714D02*
X159964666Y-116551714D01*
X159202761Y-116789809D02*
X159488475Y-116789809D01*
X159345618Y-116789809D02*
X159345618Y-116289809D01*
X159345618Y-116289809D02*
X159393237Y-116361238D01*
X159393237Y-116361238D02*
X159440856Y-116408857D01*
X159440856Y-116408857D02*
X159488475Y-116432666D01*
X158726571Y-116789809D02*
X159012285Y-116789809D01*
X158869428Y-116789809D02*
X158869428Y-116289809D01*
X158869428Y-116289809D02*
X158917047Y-116361238D01*
X158917047Y-116361238D02*
X158964666Y-116408857D01*
X158964666Y-116408857D02*
X159012285Y-116432666D01*
X166128951Y-79764809D02*
X165843237Y-79764809D01*
X165986094Y-80264809D02*
X165986094Y-79764809D01*
X165676571Y-80264809D02*
X165676571Y-79764809D01*
X165676571Y-79764809D02*
X165486095Y-79764809D01*
X165486095Y-79764809D02*
X165438476Y-79788619D01*
X165438476Y-79788619D02*
X165414666Y-79812428D01*
X165414666Y-79812428D02*
X165390857Y-79860047D01*
X165390857Y-79860047D02*
X165390857Y-79931476D01*
X165390857Y-79931476D02*
X165414666Y-79979095D01*
X165414666Y-79979095D02*
X165438476Y-80002904D01*
X165438476Y-80002904D02*
X165486095Y-80026714D01*
X165486095Y-80026714D02*
X165676571Y-80026714D01*
X164962285Y-79931476D02*
X164962285Y-80264809D01*
X165081333Y-79741000D02*
X165200380Y-80098142D01*
X165200380Y-80098142D02*
X164890857Y-80098142D01*
X124867046Y-110214809D02*
X124581332Y-110214809D01*
X124724189Y-110714809D02*
X124724189Y-110214809D01*
X124414666Y-110714809D02*
X124414666Y-110214809D01*
X124414666Y-110214809D02*
X124224190Y-110214809D01*
X124224190Y-110214809D02*
X124176571Y-110238619D01*
X124176571Y-110238619D02*
X124152761Y-110262428D01*
X124152761Y-110262428D02*
X124128952Y-110310047D01*
X124128952Y-110310047D02*
X124128952Y-110381476D01*
X124128952Y-110381476D02*
X124152761Y-110429095D01*
X124152761Y-110429095D02*
X124176571Y-110452904D01*
X124176571Y-110452904D02*
X124224190Y-110476714D01*
X124224190Y-110476714D02*
X124414666Y-110476714D01*
X123652761Y-110714809D02*
X123938475Y-110714809D01*
X123795618Y-110714809D02*
X123795618Y-110214809D01*
X123795618Y-110214809D02*
X123843237Y-110286238D01*
X123843237Y-110286238D02*
X123890856Y-110333857D01*
X123890856Y-110333857D02*
X123938475Y-110357666D01*
X123486095Y-110214809D02*
X123176571Y-110214809D01*
X123176571Y-110214809D02*
X123343238Y-110405285D01*
X123343238Y-110405285D02*
X123271809Y-110405285D01*
X123271809Y-110405285D02*
X123224190Y-110429095D01*
X123224190Y-110429095D02*
X123200381Y-110452904D01*
X123200381Y-110452904D02*
X123176571Y-110500523D01*
X123176571Y-110500523D02*
X123176571Y-110619571D01*
X123176571Y-110619571D02*
X123200381Y-110667190D01*
X123200381Y-110667190D02*
X123224190Y-110691000D01*
X123224190Y-110691000D02*
X123271809Y-110714809D01*
X123271809Y-110714809D02*
X123414666Y-110714809D01*
X123414666Y-110714809D02*
X123462285Y-110691000D01*
X123462285Y-110691000D02*
X123486095Y-110667190D01*
X158367046Y-104489809D02*
X158081332Y-104489809D01*
X158224189Y-104989809D02*
X158224189Y-104489809D01*
X157914666Y-104989809D02*
X157914666Y-104489809D01*
X157914666Y-104489809D02*
X157724190Y-104489809D01*
X157724190Y-104489809D02*
X157676571Y-104513619D01*
X157676571Y-104513619D02*
X157652761Y-104537428D01*
X157652761Y-104537428D02*
X157628952Y-104585047D01*
X157628952Y-104585047D02*
X157628952Y-104656476D01*
X157628952Y-104656476D02*
X157652761Y-104704095D01*
X157652761Y-104704095D02*
X157676571Y-104727904D01*
X157676571Y-104727904D02*
X157724190Y-104751714D01*
X157724190Y-104751714D02*
X157914666Y-104751714D01*
X157152761Y-104989809D02*
X157438475Y-104989809D01*
X157295618Y-104989809D02*
X157295618Y-104489809D01*
X157295618Y-104489809D02*
X157343237Y-104561238D01*
X157343237Y-104561238D02*
X157390856Y-104608857D01*
X157390856Y-104608857D02*
X157438475Y-104632666D01*
X156962285Y-104537428D02*
X156938476Y-104513619D01*
X156938476Y-104513619D02*
X156890857Y-104489809D01*
X156890857Y-104489809D02*
X156771809Y-104489809D01*
X156771809Y-104489809D02*
X156724190Y-104513619D01*
X156724190Y-104513619D02*
X156700381Y-104537428D01*
X156700381Y-104537428D02*
X156676571Y-104585047D01*
X156676571Y-104585047D02*
X156676571Y-104632666D01*
X156676571Y-104632666D02*
X156700381Y-104704095D01*
X156700381Y-104704095D02*
X156986095Y-104989809D01*
X156986095Y-104989809D02*
X156676571Y-104989809D01*
X150867046Y-95739809D02*
X150581332Y-95739809D01*
X150724189Y-96239809D02*
X150724189Y-95739809D01*
X150414666Y-96239809D02*
X150414666Y-95739809D01*
X150414666Y-95739809D02*
X150224190Y-95739809D01*
X150224190Y-95739809D02*
X150176571Y-95763619D01*
X150176571Y-95763619D02*
X150152761Y-95787428D01*
X150152761Y-95787428D02*
X150128952Y-95835047D01*
X150128952Y-95835047D02*
X150128952Y-95906476D01*
X150128952Y-95906476D02*
X150152761Y-95954095D01*
X150152761Y-95954095D02*
X150176571Y-95977904D01*
X150176571Y-95977904D02*
X150224190Y-96001714D01*
X150224190Y-96001714D02*
X150414666Y-96001714D01*
X149938475Y-95787428D02*
X149914666Y-95763619D01*
X149914666Y-95763619D02*
X149867047Y-95739809D01*
X149867047Y-95739809D02*
X149747999Y-95739809D01*
X149747999Y-95739809D02*
X149700380Y-95763619D01*
X149700380Y-95763619D02*
X149676571Y-95787428D01*
X149676571Y-95787428D02*
X149652761Y-95835047D01*
X149652761Y-95835047D02*
X149652761Y-95882666D01*
X149652761Y-95882666D02*
X149676571Y-95954095D01*
X149676571Y-95954095D02*
X149962285Y-96239809D01*
X149962285Y-96239809D02*
X149652761Y-96239809D01*
X149343238Y-95739809D02*
X149295619Y-95739809D01*
X149295619Y-95739809D02*
X149248000Y-95763619D01*
X149248000Y-95763619D02*
X149224190Y-95787428D01*
X149224190Y-95787428D02*
X149200381Y-95835047D01*
X149200381Y-95835047D02*
X149176571Y-95930285D01*
X149176571Y-95930285D02*
X149176571Y-96049333D01*
X149176571Y-96049333D02*
X149200381Y-96144571D01*
X149200381Y-96144571D02*
X149224190Y-96192190D01*
X149224190Y-96192190D02*
X149248000Y-96216000D01*
X149248000Y-96216000D02*
X149295619Y-96239809D01*
X149295619Y-96239809D02*
X149343238Y-96239809D01*
X149343238Y-96239809D02*
X149390857Y-96216000D01*
X149390857Y-96216000D02*
X149414666Y-96192190D01*
X149414666Y-96192190D02*
X149438476Y-96144571D01*
X149438476Y-96144571D02*
X149462285Y-96049333D01*
X149462285Y-96049333D02*
X149462285Y-95930285D01*
X149462285Y-95930285D02*
X149438476Y-95835047D01*
X149438476Y-95835047D02*
X149414666Y-95787428D01*
X149414666Y-95787428D02*
X149390857Y-95763619D01*
X149390857Y-95763619D02*
X149343238Y-95739809D01*
X164867046Y-104739809D02*
X164581332Y-104739809D01*
X164724189Y-105239809D02*
X164724189Y-104739809D01*
X164414666Y-105239809D02*
X164414666Y-104739809D01*
X164414666Y-104739809D02*
X164224190Y-104739809D01*
X164224190Y-104739809D02*
X164176571Y-104763619D01*
X164176571Y-104763619D02*
X164152761Y-104787428D01*
X164152761Y-104787428D02*
X164128952Y-104835047D01*
X164128952Y-104835047D02*
X164128952Y-104906476D01*
X164128952Y-104906476D02*
X164152761Y-104954095D01*
X164152761Y-104954095D02*
X164176571Y-104977904D01*
X164176571Y-104977904D02*
X164224190Y-105001714D01*
X164224190Y-105001714D02*
X164414666Y-105001714D01*
X163652761Y-105239809D02*
X163938475Y-105239809D01*
X163795618Y-105239809D02*
X163795618Y-104739809D01*
X163795618Y-104739809D02*
X163843237Y-104811238D01*
X163843237Y-104811238D02*
X163890856Y-104858857D01*
X163890856Y-104858857D02*
X163938475Y-104882666D01*
X163486095Y-104739809D02*
X163152762Y-104739809D01*
X163152762Y-104739809D02*
X163367047Y-105239809D01*
X167378951Y-82739809D02*
X167093237Y-82739809D01*
X167236094Y-83239809D02*
X167236094Y-82739809D01*
X166926571Y-83239809D02*
X166926571Y-82739809D01*
X166926571Y-82739809D02*
X166736095Y-82739809D01*
X166736095Y-82739809D02*
X166688476Y-82763619D01*
X166688476Y-82763619D02*
X166664666Y-82787428D01*
X166664666Y-82787428D02*
X166640857Y-82835047D01*
X166640857Y-82835047D02*
X166640857Y-82906476D01*
X166640857Y-82906476D02*
X166664666Y-82954095D01*
X166664666Y-82954095D02*
X166688476Y-82977904D01*
X166688476Y-82977904D02*
X166736095Y-83001714D01*
X166736095Y-83001714D02*
X166926571Y-83001714D01*
X166474190Y-82739809D02*
X166140857Y-82739809D01*
X166140857Y-82739809D02*
X166355142Y-83239809D01*
X127867046Y-90214809D02*
X127581332Y-90214809D01*
X127724189Y-90714809D02*
X127724189Y-90214809D01*
X127414666Y-90714809D02*
X127414666Y-90214809D01*
X127414666Y-90214809D02*
X127224190Y-90214809D01*
X127224190Y-90214809D02*
X127176571Y-90238619D01*
X127176571Y-90238619D02*
X127152761Y-90262428D01*
X127152761Y-90262428D02*
X127128952Y-90310047D01*
X127128952Y-90310047D02*
X127128952Y-90381476D01*
X127128952Y-90381476D02*
X127152761Y-90429095D01*
X127152761Y-90429095D02*
X127176571Y-90452904D01*
X127176571Y-90452904D02*
X127224190Y-90476714D01*
X127224190Y-90476714D02*
X127414666Y-90476714D01*
X126652761Y-90714809D02*
X126938475Y-90714809D01*
X126795618Y-90714809D02*
X126795618Y-90214809D01*
X126795618Y-90214809D02*
X126843237Y-90286238D01*
X126843237Y-90286238D02*
X126890856Y-90333857D01*
X126890856Y-90333857D02*
X126938475Y-90357666D01*
X126200381Y-90214809D02*
X126438476Y-90214809D01*
X126438476Y-90214809D02*
X126462285Y-90452904D01*
X126462285Y-90452904D02*
X126438476Y-90429095D01*
X126438476Y-90429095D02*
X126390857Y-90405285D01*
X126390857Y-90405285D02*
X126271809Y-90405285D01*
X126271809Y-90405285D02*
X126224190Y-90429095D01*
X126224190Y-90429095D02*
X126200381Y-90452904D01*
X126200381Y-90452904D02*
X126176571Y-90500523D01*
X126176571Y-90500523D02*
X126176571Y-90619571D01*
X126176571Y-90619571D02*
X126200381Y-90667190D01*
X126200381Y-90667190D02*
X126224190Y-90691000D01*
X126224190Y-90691000D02*
X126271809Y-90714809D01*
X126271809Y-90714809D02*
X126390857Y-90714809D01*
X126390857Y-90714809D02*
X126438476Y-90691000D01*
X126438476Y-90691000D02*
X126462285Y-90667190D01*
X158128951Y-81014809D02*
X157843237Y-81014809D01*
X157986094Y-81514809D02*
X157986094Y-81014809D01*
X157676571Y-81514809D02*
X157676571Y-81014809D01*
X157676571Y-81014809D02*
X157486095Y-81014809D01*
X157486095Y-81014809D02*
X157438476Y-81038619D01*
X157438476Y-81038619D02*
X157414666Y-81062428D01*
X157414666Y-81062428D02*
X157390857Y-81110047D01*
X157390857Y-81110047D02*
X157390857Y-81181476D01*
X157390857Y-81181476D02*
X157414666Y-81229095D01*
X157414666Y-81229095D02*
X157438476Y-81252904D01*
X157438476Y-81252904D02*
X157486095Y-81276714D01*
X157486095Y-81276714D02*
X157676571Y-81276714D01*
X156962285Y-81014809D02*
X157057523Y-81014809D01*
X157057523Y-81014809D02*
X157105142Y-81038619D01*
X157105142Y-81038619D02*
X157128952Y-81062428D01*
X157128952Y-81062428D02*
X157176571Y-81133857D01*
X157176571Y-81133857D02*
X157200380Y-81229095D01*
X157200380Y-81229095D02*
X157200380Y-81419571D01*
X157200380Y-81419571D02*
X157176571Y-81467190D01*
X157176571Y-81467190D02*
X157152761Y-81491000D01*
X157152761Y-81491000D02*
X157105142Y-81514809D01*
X157105142Y-81514809D02*
X157009904Y-81514809D01*
X157009904Y-81514809D02*
X156962285Y-81491000D01*
X156962285Y-81491000D02*
X156938476Y-81467190D01*
X156938476Y-81467190D02*
X156914666Y-81419571D01*
X156914666Y-81419571D02*
X156914666Y-81300523D01*
X156914666Y-81300523D02*
X156938476Y-81252904D01*
X156938476Y-81252904D02*
X156962285Y-81229095D01*
X156962285Y-81229095D02*
X157009904Y-81205285D01*
X157009904Y-81205285D02*
X157105142Y-81205285D01*
X157105142Y-81205285D02*
X157152761Y-81229095D01*
X157152761Y-81229095D02*
X157176571Y-81252904D01*
X157176571Y-81252904D02*
X157200380Y-81300523D01*
D11*
G36*
X127380333Y-118741333D02*
G01*
X127338000Y-118783666D01*
X127295666Y-118741333D01*
X127338000Y-118699000D01*
X127380333Y-118741333D01*
G37*
G36*
X127465000Y-118572000D02*
G01*
X127422666Y-118614333D01*
X127380333Y-118572000D01*
X127422666Y-118529666D01*
X127465000Y-118572000D01*
G37*
G36*
X127549666Y-118402666D02*
G01*
X127507333Y-118445000D01*
X127465000Y-118402666D01*
X127507333Y-118360333D01*
X127549666Y-118402666D01*
G37*
G36*
X135142836Y-120122458D02*
G01*
X135152930Y-120254782D01*
X135136152Y-120284736D01*
X135097670Y-120259485D01*
X135091684Y-120173611D01*
X135112361Y-120083268D01*
X135142836Y-120122458D01*
G37*
G36*
X135082407Y-120434666D02*
G01*
X135040250Y-120573805D01*
X135000333Y-120646333D01*
X134933245Y-120714102D01*
X134918259Y-120688666D01*
X134960415Y-120549527D01*
X135000333Y-120477000D01*
X135067420Y-120409230D01*
X135082407Y-120434666D01*
G37*
G36*
X132141827Y-111090295D02*
G01*
X132153190Y-111256705D01*
X132094981Y-111466574D01*
X132055161Y-111545498D01*
X131981733Y-111652019D01*
X131956590Y-111611861D01*
X131954907Y-111572888D01*
X131896882Y-111423073D01*
X131846500Y-111383170D01*
X131832269Y-111363467D01*
X131938433Y-111384126D01*
X132076068Y-111404563D01*
X132081679Y-111337471D01*
X132044266Y-111261911D01*
X131965530Y-111097533D01*
X131976918Y-111032942D01*
X132060344Y-111022555D01*
X132141827Y-111090295D01*
G37*
G36*
X131130899Y-112945492D02*
G01*
X131344030Y-113098990D01*
X131435610Y-113238629D01*
X131508455Y-113437289D01*
X131483050Y-113599219D01*
X131432950Y-113698823D01*
X131272522Y-113852788D01*
X131040104Y-113940226D01*
X130802460Y-113948224D01*
X130626354Y-113863870D01*
X130619631Y-113856114D01*
X130503130Y-113593436D01*
X130504140Y-113576666D01*
X130597666Y-113576666D01*
X130640000Y-113619000D01*
X130682333Y-113576666D01*
X130655825Y-113550158D01*
X130876435Y-113550158D01*
X130896729Y-113623415D01*
X130983686Y-113663345D01*
X131090889Y-113585396D01*
X131174258Y-113444958D01*
X131136549Y-113362016D01*
X131026945Y-113339045D01*
X130922620Y-113420966D01*
X130876435Y-113550158D01*
X130655825Y-113550158D01*
X130640000Y-113534333D01*
X130597666Y-113576666D01*
X130504140Y-113576666D01*
X130520830Y-113299640D01*
X130668173Y-113040669D01*
X130676556Y-113032110D01*
X130892156Y-112918777D01*
X131130899Y-112945492D01*
G37*
G36*
X131552749Y-107788026D02*
G01*
X131749243Y-107816562D01*
X131815918Y-107846432D01*
X131890879Y-108083499D01*
X131897192Y-108382142D01*
X131848566Y-108605607D01*
X131791050Y-108930064D01*
X131875536Y-109190242D01*
X132093031Y-109361618D01*
X132131181Y-109376296D01*
X132325893Y-109423150D01*
X132479736Y-109381628D01*
X132646188Y-109257757D01*
X132873819Y-109096687D01*
X133068715Y-109056813D01*
X133303088Y-109126439D01*
X133344162Y-109144715D01*
X133612131Y-109347322D01*
X133787866Y-109675369D01*
X133873113Y-110087961D01*
X133920984Y-110365437D01*
X133988473Y-110584347D01*
X134028143Y-110655666D01*
X134215621Y-110947029D01*
X134400162Y-111348771D01*
X134557185Y-111803330D01*
X134619693Y-112040991D01*
X134665725Y-112292148D01*
X134698426Y-112604503D01*
X134718880Y-113002740D01*
X134728168Y-113511544D01*
X134727375Y-114155598D01*
X134724726Y-114434630D01*
X134704000Y-116286000D01*
X134005500Y-116451675D01*
X133618212Y-116556575D01*
X133392776Y-116652335D01*
X133322424Y-116745311D01*
X133400385Y-116841862D01*
X133521042Y-116906677D01*
X133697994Y-117023058D01*
X133784101Y-117131934D01*
X133882092Y-117244757D01*
X133935818Y-117259666D01*
X134101060Y-117325537D01*
X134320594Y-117498996D01*
X134559328Y-117743812D01*
X134782168Y-118023751D01*
X134954022Y-118302583D01*
X134962552Y-118319725D01*
X135139300Y-118794893D01*
X135215057Y-119322469D01*
X135216743Y-119354711D01*
X135244393Y-119926666D01*
X135177283Y-119418666D01*
X135073717Y-118887917D01*
X134900793Y-118448600D01*
X134628709Y-118040179D01*
X134338119Y-117714070D01*
X134129105Y-117607798D01*
X133882534Y-117644845D01*
X133815978Y-117680603D01*
X133756355Y-117750003D01*
X133793948Y-117852897D01*
X133943467Y-118027311D01*
X133954666Y-118039140D01*
X134254852Y-118403693D01*
X134446749Y-118768434D01*
X134534206Y-119163854D01*
X134521071Y-119620444D01*
X134411192Y-120168692D01*
X134280225Y-120618753D01*
X134270612Y-120764138D01*
X134376423Y-120877219D01*
X134479929Y-120936252D01*
X134660015Y-121018376D01*
X134757870Y-121012185D01*
X134833186Y-120921498D01*
X134899762Y-120826556D01*
X134891696Y-120881609D01*
X134871720Y-120942666D01*
X134811565Y-121128795D01*
X134730044Y-121388554D01*
X134703131Y-121475650D01*
X134576780Y-121782919D01*
X134407550Y-122077582D01*
X134372470Y-122126168D01*
X134235758Y-122330521D01*
X134159428Y-122493372D01*
X134153666Y-122526845D01*
X134078736Y-122756779D01*
X133892584Y-122938563D01*
X133653166Y-123016799D01*
X133640865Y-123017000D01*
X133473361Y-122999985D01*
X133404662Y-122914781D01*
X133395107Y-122772058D01*
X133476333Y-122772058D01*
X133511666Y-122901067D01*
X133610258Y-122899058D01*
X133769612Y-122853433D01*
X133818945Y-122847666D01*
X133933755Y-122776713D01*
X134010456Y-122618338D01*
X134018863Y-122454267D01*
X133986477Y-122394076D01*
X133883516Y-122354840D01*
X133765284Y-122460992D01*
X133760990Y-122466666D01*
X133636442Y-122587997D01*
X133555024Y-122614833D01*
X133492739Y-122667765D01*
X133476333Y-122772058D01*
X133395107Y-122772058D01*
X133391666Y-122720666D01*
X133367039Y-122506925D01*
X133284103Y-122426925D01*
X133255608Y-122424333D01*
X133159064Y-122477005D01*
X133164325Y-122541016D01*
X133149822Y-122698862D01*
X133014948Y-122816288D01*
X132866733Y-122847666D01*
X132778060Y-122874869D01*
X132727899Y-122981445D01*
X132703241Y-123204846D01*
X132697633Y-123334500D01*
X132691824Y-123897898D01*
X132720225Y-124320715D01*
X132785475Y-124628734D01*
X132844853Y-124771946D01*
X132947219Y-125067345D01*
X132955242Y-125342925D01*
X132867239Y-125539559D01*
X132866733Y-125540066D01*
X132721776Y-125597984D01*
X132462219Y-125632037D01*
X132141043Y-125642658D01*
X131811228Y-125630283D01*
X131525753Y-125595349D01*
X131337601Y-125538289D01*
X131320377Y-125527362D01*
X131220974Y-125360355D01*
X131209751Y-125111173D01*
X131213148Y-125097937D01*
X131422348Y-125097937D01*
X131427478Y-125284504D01*
X131536834Y-125373104D01*
X131725730Y-125409418D01*
X131998091Y-125426699D01*
X132290708Y-125425232D01*
X132540370Y-125405303D01*
X132682766Y-125367931D01*
X132738611Y-125236953D01*
X132720166Y-125029264D01*
X132650393Y-124831328D01*
X132532074Y-124761381D01*
X132476566Y-124759389D01*
X132330508Y-124737647D01*
X132291000Y-124695889D01*
X132226140Y-124633715D01*
X132080056Y-124635721D01*
X131925486Y-124695599D01*
X131880366Y-124731500D01*
X131746677Y-124829315D01*
X131694100Y-124847916D01*
X131540452Y-124868859D01*
X131538870Y-124869083D01*
X131469122Y-124950150D01*
X131422348Y-125097937D01*
X131213148Y-125097937D01*
X131279907Y-124837829D01*
X131424642Y-124598335D01*
X131429994Y-124592359D01*
X131520624Y-124444616D01*
X131584524Y-124213300D01*
X131601237Y-124084557D01*
X131787568Y-124084557D01*
X131829994Y-124271408D01*
X131948827Y-124342996D01*
X132142763Y-124326119D01*
X132351483Y-124274406D01*
X132481073Y-124229778D01*
X132484360Y-124227945D01*
X132516259Y-124128981D01*
X132530516Y-123913058D01*
X132526694Y-123695918D01*
X132499766Y-123417790D01*
X132455512Y-123268609D01*
X132418000Y-123253269D01*
X132394616Y-123240868D01*
X132449533Y-123160252D01*
X132520783Y-123050440D01*
X132466324Y-123018021D01*
X132428366Y-123017000D01*
X132307871Y-123070315D01*
X132288307Y-123122833D01*
X132248120Y-123154086D01*
X132169435Y-123075433D01*
X132058005Y-122986610D01*
X131965368Y-123046104D01*
X131888137Y-123260315D01*
X131822927Y-123635638D01*
X131807689Y-123758983D01*
X131787568Y-124084557D01*
X131601237Y-124084557D01*
X131630000Y-123862987D01*
X131645507Y-123673166D01*
X131699321Y-122932333D01*
X131063827Y-122932333D01*
X130428333Y-122932333D01*
X130428333Y-123649953D01*
X130437928Y-124049270D01*
X130472220Y-124328666D01*
X130539468Y-124536754D01*
X130597350Y-124644786D01*
X130713597Y-124921224D01*
X130762152Y-125221596D01*
X130738712Y-125483972D01*
X130665400Y-125624733D01*
X130524186Y-125679541D01*
X130270356Y-125710846D01*
X129958994Y-125718598D01*
X129645185Y-125702748D01*
X129384013Y-125663247D01*
X129270845Y-125625978D01*
X129104797Y-125478319D01*
X129038918Y-125345411D01*
X129034842Y-125203524D01*
X129238834Y-125203524D01*
X129267398Y-125374204D01*
X129293263Y-125409707D01*
X129404108Y-125436529D01*
X129623588Y-125445223D01*
X129892262Y-125438281D01*
X130150692Y-125418194D01*
X130339439Y-125387453D01*
X130396062Y-125363492D01*
X130391888Y-125307962D01*
X130357777Y-125303000D01*
X130281092Y-125231264D01*
X130259000Y-125109895D01*
X130185525Y-124943258D01*
X130009461Y-124819179D01*
X129797349Y-124771926D01*
X129662956Y-124802960D01*
X129470302Y-124886003D01*
X129391166Y-124913233D01*
X129285900Y-125020402D01*
X129238834Y-125203524D01*
X129034842Y-125203524D01*
X129032374Y-125117595D01*
X129094182Y-124868147D01*
X129200760Y-124667399D01*
X129291249Y-124592778D01*
X129349441Y-124530911D01*
X129386605Y-124381108D01*
X129406361Y-124116586D01*
X129412329Y-123710560D01*
X129412333Y-123696990D01*
X129411658Y-123580321D01*
X129546607Y-123580321D01*
X129553044Y-123905882D01*
X129571686Y-124223500D01*
X129644464Y-124349897D01*
X129829916Y-124358780D01*
X129955741Y-124320274D01*
X130072577Y-124212409D01*
X130089666Y-124145944D01*
X130046201Y-124065511D01*
X130005000Y-124075333D01*
X129926981Y-124068620D01*
X129920333Y-124037996D01*
X129981793Y-123951778D01*
X130005000Y-123948333D01*
X130057404Y-123873679D01*
X130081350Y-123688525D01*
X130081227Y-123630833D01*
X130072015Y-123439271D01*
X130052032Y-123402664D01*
X130010924Y-123506634D01*
X130005000Y-123525000D01*
X129937212Y-123736666D01*
X129919006Y-123525000D01*
X129895232Y-123274601D01*
X129879599Y-123186333D01*
X130005000Y-123186333D01*
X130035978Y-123256023D01*
X130061444Y-123242777D01*
X130071577Y-123142298D01*
X130061444Y-123129888D01*
X130011110Y-123141511D01*
X130005000Y-123186333D01*
X129879599Y-123186333D01*
X129873111Y-123149700D01*
X129841908Y-123106914D01*
X129814500Y-123102612D01*
X129675452Y-123101684D01*
X129655966Y-123101666D01*
X129617691Y-123149915D01*
X129677133Y-123244919D01*
X129731318Y-123333144D01*
X129696371Y-123330072D01*
X129615504Y-123312234D01*
X129566505Y-123389044D01*
X129546607Y-123580321D01*
X129411658Y-123580321D01*
X129410101Y-123311104D01*
X129399266Y-123063889D01*
X129373624Y-122924696D01*
X129326968Y-122862880D01*
X129253093Y-122847794D01*
X129240342Y-122847666D01*
X129077537Y-122792495D01*
X129019617Y-122720666D01*
X128909601Y-122598799D01*
X128755864Y-122597505D01*
X128604320Y-122693688D01*
X128500878Y-122864255D01*
X128481000Y-122991600D01*
X128431100Y-123151428D01*
X128324788Y-123186333D01*
X128163321Y-123133062D01*
X128011059Y-123008415D01*
X127919595Y-122865136D01*
X127921634Y-122810462D01*
X127993495Y-122810462D01*
X128006449Y-122920610D01*
X128074600Y-123000066D01*
X128216993Y-123095271D01*
X128295519Y-123033694D01*
X128311666Y-122897926D01*
X128283452Y-122750635D01*
X128173523Y-122731198D01*
X128142333Y-122738467D01*
X127993495Y-122810462D01*
X127921634Y-122810462D01*
X127922938Y-122775504D01*
X127907611Y-122662801D01*
X127804433Y-122490378D01*
X127774478Y-122452668D01*
X127707360Y-122361125D01*
X128610070Y-122361125D01*
X128652575Y-122399642D01*
X128763094Y-122403166D01*
X128911595Y-122373798D01*
X128917583Y-122339666D01*
X129488520Y-122339666D01*
X129497424Y-122393770D01*
X129574514Y-122431537D01*
X129744627Y-122456469D01*
X130032597Y-122472069D01*
X130463260Y-122481841D01*
X130500525Y-122482414D01*
X130904455Y-122492098D01*
X131243936Y-122507031D01*
X131484727Y-122525225D01*
X131592583Y-122544693D01*
X131594137Y-122545914D01*
X131702788Y-122577341D01*
X131908793Y-122593203D01*
X131952442Y-122593666D01*
X132262996Y-122593666D01*
X132246444Y-122280336D01*
X132757081Y-122280336D01*
X132809762Y-122314139D01*
X132948386Y-122286729D01*
X133117964Y-122243708D01*
X133187055Y-122221922D01*
X133139943Y-122164841D01*
X133048225Y-122073836D01*
X132935223Y-121987371D01*
X132863199Y-122031931D01*
X132809556Y-122138643D01*
X132757081Y-122280336D01*
X132246444Y-122280336D01*
X132226098Y-121895166D01*
X132219394Y-121817555D01*
X133307000Y-121817555D01*
X133351870Y-122068409D01*
X133469389Y-122174484D01*
X133633915Y-122126922D01*
X133776646Y-121979833D01*
X133895487Y-121861684D01*
X133957836Y-121895166D01*
X134058418Y-122003579D01*
X134201666Y-121971518D01*
X134360845Y-121812968D01*
X134471088Y-121626737D01*
X134576872Y-121371367D01*
X134575872Y-121212733D01*
X134454847Y-121106420D01*
X134296470Y-121041075D01*
X134066464Y-121039218D01*
X133806119Y-121151897D01*
X133561833Y-121342702D01*
X133380003Y-121575222D01*
X133307030Y-121813045D01*
X133307000Y-121817555D01*
X132219394Y-121817555D01*
X132193652Y-121519547D01*
X132173440Y-121408333D01*
X133137666Y-121408333D01*
X133151530Y-121606249D01*
X133196465Y-121642388D01*
X133277493Y-121516046D01*
X133337937Y-121380215D01*
X133480088Y-121143660D01*
X133680793Y-120926088D01*
X133890383Y-120774086D01*
X134030125Y-120731000D01*
X134130258Y-120653368D01*
X134230070Y-120447805D01*
X134317548Y-120155310D01*
X134380679Y-119816880D01*
X134407450Y-119473513D01*
X134407666Y-119442544D01*
X134356186Y-118945857D01*
X134244521Y-118626463D01*
X134070583Y-118334646D01*
X133918834Y-118175444D01*
X133802293Y-118160679D01*
X133769868Y-118195527D01*
X133655565Y-118292253D01*
X133457073Y-118398226D01*
X133433588Y-118408294D01*
X133157515Y-118523645D01*
X133168757Y-119620306D01*
X133177628Y-120036078D01*
X133193852Y-120389687D01*
X133215241Y-120647159D01*
X133239606Y-120774525D01*
X133243500Y-120780427D01*
X133299612Y-120907501D01*
X133297311Y-121058923D01*
X133241361Y-121150554D01*
X133222333Y-121154333D01*
X133162886Y-121227905D01*
X133137673Y-121405173D01*
X133137666Y-121408333D01*
X132173440Y-121408333D01*
X132144296Y-121247967D01*
X132083931Y-121112523D01*
X132081877Y-121110790D01*
X131989579Y-120972177D01*
X131915681Y-120756780D01*
X131914383Y-120750956D01*
X131890333Y-120682205D01*
X132043307Y-120682205D01*
X132053781Y-120765170D01*
X132179597Y-120858250D01*
X132269833Y-120893649D01*
X132288604Y-120831088D01*
X132291000Y-120773333D01*
X132223227Y-120661084D01*
X132164000Y-120646333D01*
X132043307Y-120682205D01*
X131890333Y-120682205D01*
X131846950Y-120558189D01*
X131726844Y-120484704D01*
X131618680Y-120477000D01*
X131452934Y-120496807D01*
X131410834Y-120590648D01*
X131426141Y-120701901D01*
X131410109Y-120930099D01*
X131321504Y-121034753D01*
X131140040Y-121102833D01*
X130991888Y-121057411D01*
X130936333Y-120928611D01*
X130897371Y-120845025D01*
X130861225Y-120852092D01*
X130805556Y-120836265D01*
X130801877Y-120730870D01*
X130808730Y-120709833D01*
X130957500Y-120709833D01*
X130996795Y-120794808D01*
X131105666Y-120815666D01*
X131239953Y-120776654D01*
X131253833Y-120709833D01*
X131149843Y-120611514D01*
X131105666Y-120604000D01*
X130978538Y-120670766D01*
X130957500Y-120709833D01*
X130808730Y-120709833D01*
X130842894Y-120604954D01*
X130894000Y-120541796D01*
X130875709Y-120502719D01*
X130727490Y-120480278D01*
X130655107Y-120478296D01*
X130445544Y-120488923D01*
X130360718Y-120542485D01*
X130356602Y-120668058D01*
X130357474Y-120674846D01*
X130325873Y-120893871D01*
X130199370Y-121051422D01*
X130024998Y-121119948D01*
X129849787Y-121071896D01*
X129786512Y-121009337D01*
X129694911Y-120923949D01*
X129660481Y-120942666D01*
X129645988Y-121075941D01*
X129624032Y-121301147D01*
X129617986Y-121366000D01*
X129567411Y-121850397D01*
X129518305Y-122197416D01*
X129488520Y-122339666D01*
X128917583Y-122339666D01*
X128930825Y-122264190D01*
X128926097Y-122244416D01*
X128883446Y-122113538D01*
X128865247Y-122085666D01*
X128801233Y-122140304D01*
X128702244Y-122244416D01*
X128610070Y-122361125D01*
X127707360Y-122361125D01*
X127551355Y-122148348D01*
X127421846Y-121856185D01*
X127367986Y-121596635D01*
X127578720Y-121596635D01*
X127636275Y-121832339D01*
X127682354Y-121929858D01*
X127852040Y-122184645D01*
X128022450Y-122317448D01*
X128167867Y-122321916D01*
X128262575Y-122191700D01*
X128282581Y-122078076D01*
X128247272Y-121770446D01*
X128106152Y-121544652D01*
X127883914Y-121438310D01*
X127861028Y-121435903D01*
X127653385Y-121465190D01*
X127578720Y-121596635D01*
X127367986Y-121596635D01*
X127346480Y-121493000D01*
X127280852Y-121162114D01*
X127189531Y-120830655D01*
X127170041Y-120773333D01*
X127103127Y-120492816D01*
X127062779Y-120141134D01*
X127056879Y-119926666D01*
X127064658Y-119418666D01*
X127129459Y-120011333D01*
X127176568Y-120351294D01*
X127236024Y-120657659D01*
X127290776Y-120851496D01*
X127367185Y-121012902D01*
X127438130Y-121034710D01*
X127513280Y-120973005D01*
X127582890Y-120869139D01*
X127596951Y-120719216D01*
X127558239Y-120470811D01*
X127543590Y-120400880D01*
X127502607Y-120055359D01*
X127502977Y-120001735D01*
X127813956Y-120001735D01*
X127818852Y-120152601D01*
X127841198Y-120465021D01*
X127882833Y-120667487D01*
X127971282Y-120819178D01*
X128134067Y-120979275D01*
X128249739Y-121079091D01*
X128495244Y-121319996D01*
X128704559Y-121578827D01*
X128797076Y-121731203D01*
X128946666Y-122043333D01*
X128972245Y-121599199D01*
X128971693Y-121315857D01*
X128941919Y-121085640D01*
X128914730Y-121006585D01*
X128885667Y-120832842D01*
X128949712Y-120729618D01*
X129201520Y-120729618D01*
X129219915Y-120803248D01*
X129280336Y-120815666D01*
X129396450Y-120796032D01*
X129412333Y-120778330D01*
X129350291Y-120699301D01*
X129238656Y-120697539D01*
X129201520Y-120729618D01*
X128949712Y-120729618D01*
X128953628Y-120723306D01*
X129004873Y-120646333D01*
X129666333Y-120646333D01*
X129695220Y-120728798D01*
X129703669Y-120731000D01*
X129920333Y-120731000D01*
X129988547Y-120806939D01*
X130042336Y-120815666D01*
X130186485Y-120764066D01*
X130216666Y-120731000D01*
X130190743Y-120664359D01*
X130094663Y-120646333D01*
X129954392Y-120680876D01*
X129920333Y-120731000D01*
X129703669Y-120731000D01*
X129775955Y-120671671D01*
X129793333Y-120646333D01*
X129786620Y-120568314D01*
X129755996Y-120561666D01*
X129669778Y-120623127D01*
X129666333Y-120646333D01*
X129004873Y-120646333D01*
X129018320Y-120626134D01*
X129062367Y-120483876D01*
X129088312Y-120268941D01*
X129094206Y-120090111D01*
X129835666Y-120090111D01*
X129853039Y-120156613D01*
X129921018Y-120205160D01*
X130063395Y-120239345D01*
X130303961Y-120262763D01*
X130666507Y-120279008D01*
X131169166Y-120291557D01*
X131605680Y-120295745D01*
X131895005Y-120285708D01*
X132058845Y-120259438D01*
X132118903Y-120214927D01*
X132120370Y-120203565D01*
X132047176Y-119988777D01*
X131858995Y-119882469D01*
X131772893Y-119877459D01*
X131331523Y-119894229D01*
X130990860Y-119895680D01*
X130767000Y-119887467D01*
X130346570Y-119895676D01*
X129918953Y-119951710D01*
X129899166Y-119955747D01*
X129841647Y-120037699D01*
X129835666Y-120090111D01*
X129094206Y-120090111D01*
X129098700Y-119953739D01*
X129096482Y-119579346D01*
X129666333Y-119579346D01*
X129745592Y-119598884D01*
X129961783Y-119618849D01*
X130282525Y-119636980D01*
X130675439Y-119651016D01*
X130703500Y-119651753D01*
X131132999Y-119663702D01*
X131524750Y-119676264D01*
X131834128Y-119687903D01*
X132010836Y-119696693D01*
X132213631Y-119685275D01*
X132331871Y-119632457D01*
X132333734Y-119629683D01*
X132332146Y-119499894D01*
X132186323Y-119375298D01*
X131921103Y-119270515D01*
X131616228Y-119207362D01*
X131334502Y-119161942D01*
X131120973Y-119117251D01*
X131036530Y-119089598D01*
X130920140Y-119095371D01*
X130722473Y-119166830D01*
X130657169Y-119198246D01*
X130459216Y-119290739D01*
X130358038Y-119301684D01*
X130303443Y-119233643D01*
X130296122Y-119216670D01*
X130237215Y-119136325D01*
X130199753Y-119185833D01*
X130091511Y-119281583D01*
X130034230Y-119291666D01*
X129888639Y-119343089D01*
X129740329Y-119457011D01*
X129666691Y-119572916D01*
X129666333Y-119579346D01*
X129096482Y-119579346D01*
X129096075Y-119510679D01*
X129090755Y-119236093D01*
X129080017Y-118871557D01*
X129074649Y-118802385D01*
X129614033Y-118802385D01*
X129644675Y-118846196D01*
X129827476Y-118879747D01*
X130166923Y-118903582D01*
X130667505Y-118918250D01*
X131174801Y-118923690D01*
X131609566Y-118922221D01*
X131957729Y-118913737D01*
X132196782Y-118899410D01*
X132304218Y-118880414D01*
X132291000Y-118865545D01*
X132177599Y-118816882D01*
X132203309Y-118792106D01*
X132263228Y-118749518D01*
X132211715Y-118662101D01*
X132087047Y-118564157D01*
X131927501Y-118489985D01*
X131846702Y-118472542D01*
X131645006Y-118447556D01*
X131368181Y-118410406D01*
X131267863Y-118396386D01*
X130926112Y-118383595D01*
X130639111Y-118467040D01*
X130590530Y-118490987D01*
X130408453Y-118582093D01*
X130352082Y-118593444D01*
X130397401Y-118524383D01*
X130428333Y-118486555D01*
X130507718Y-118381121D01*
X130465533Y-118382427D01*
X130368263Y-118432281D01*
X130200371Y-118504805D01*
X130114263Y-118520783D01*
X129941300Y-118519827D01*
X129865287Y-118573479D01*
X129874232Y-118608237D01*
X129843889Y-118689216D01*
X129731062Y-118747765D01*
X129614033Y-118802385D01*
X129074649Y-118802385D01*
X129062543Y-118646378D01*
X129031065Y-118530583D01*
X128978315Y-118494194D01*
X128912989Y-118502871D01*
X128713873Y-118497519D01*
X128567279Y-118445862D01*
X128398684Y-118393341D01*
X128248992Y-118468419D01*
X128217989Y-118495487D01*
X128054158Y-118732550D01*
X127925018Y-119092468D01*
X127841355Y-119530457D01*
X127813956Y-120001735D01*
X127502977Y-120001735D01*
X127505308Y-119663975D01*
X127547278Y-119295101D01*
X127624103Y-119017109D01*
X127634333Y-118995333D01*
X127681843Y-118846110D01*
X127708416Y-118710642D01*
X127763557Y-118606135D01*
X127891542Y-118423625D01*
X127973000Y-118317999D01*
X128089056Y-118148666D01*
X129581666Y-118148666D01*
X129624000Y-118191000D01*
X129666333Y-118148666D01*
X129652222Y-118134555D01*
X129779222Y-118134555D01*
X129790844Y-118184889D01*
X129835666Y-118191000D01*
X129905356Y-118160021D01*
X129892111Y-118134555D01*
X129791631Y-118124422D01*
X129779222Y-118134555D01*
X129652222Y-118134555D01*
X129624000Y-118106333D01*
X129581666Y-118148666D01*
X128089056Y-118148666D01*
X128147084Y-118064000D01*
X128904333Y-118064000D01*
X128946666Y-118106333D01*
X128989000Y-118064000D01*
X128946666Y-118021666D01*
X128904333Y-118064000D01*
X128147084Y-118064000D01*
X128154989Y-118052466D01*
X128211428Y-117888084D01*
X128152497Y-117836379D01*
X127988381Y-117908872D01*
X127765966Y-118083721D01*
X127708568Y-118127496D01*
X127757175Y-118063541D01*
X127900008Y-117905789D01*
X128046277Y-117750784D01*
X128659311Y-117750784D01*
X128661635Y-117877735D01*
X128725941Y-117937000D01*
X129243000Y-117937000D01*
X129307429Y-118019206D01*
X129327666Y-118021666D01*
X129409873Y-117957237D01*
X129412333Y-117937000D01*
X130005000Y-117937000D01*
X130065767Y-118019243D01*
X130084669Y-118021666D01*
X130199337Y-117960122D01*
X130216666Y-117937000D01*
X130197472Y-117864516D01*
X130136996Y-117852333D01*
X130021154Y-117896537D01*
X130005000Y-117937000D01*
X129412333Y-117937000D01*
X129347904Y-117854793D01*
X129327666Y-117852333D01*
X129245460Y-117916762D01*
X129243000Y-117937000D01*
X128725941Y-117937000D01*
X128819661Y-117869998D01*
X128847107Y-117818277D01*
X128852742Y-117725333D01*
X130259000Y-117725333D01*
X130301333Y-117767666D01*
X130343666Y-117725333D01*
X130301333Y-117683000D01*
X130259000Y-117725333D01*
X128852742Y-117725333D01*
X128855672Y-117677003D01*
X128796422Y-117640666D01*
X129751000Y-117640666D01*
X129793333Y-117683000D01*
X129835666Y-117640666D01*
X129793333Y-117598333D01*
X129751000Y-117640666D01*
X128796422Y-117640666D01*
X128775618Y-117627907D01*
X128723190Y-117647965D01*
X128659311Y-117750784D01*
X128046277Y-117750784D01*
X128057666Y-117738715D01*
X128329427Y-117467598D01*
X128588032Y-117232874D01*
X128607653Y-117217333D01*
X129581666Y-117217333D01*
X129624000Y-117259666D01*
X129666333Y-117217333D01*
X129624000Y-117175000D01*
X129581666Y-117217333D01*
X128607653Y-117217333D01*
X128750751Y-117103990D01*
X129799088Y-117103990D01*
X129824362Y-117143734D01*
X129955276Y-117166143D01*
X130216666Y-117183819D01*
X130392869Y-117223672D01*
X130407811Y-117314907D01*
X130301333Y-117429000D01*
X130199485Y-117480802D01*
X130174333Y-117453478D01*
X130105964Y-117381079D01*
X130051057Y-117372555D01*
X129966263Y-117405025D01*
X130010547Y-117482446D01*
X130161138Y-117574833D01*
X130224891Y-117601460D01*
X130353694Y-117700614D01*
X130426565Y-117843407D01*
X130426655Y-117970240D01*
X130343666Y-118021666D01*
X130261460Y-118086095D01*
X130259000Y-118106333D01*
X130331204Y-118159063D01*
X130500682Y-118187047D01*
X130696725Y-118186914D01*
X130848627Y-118155293D01*
X130878572Y-118135871D01*
X130865552Y-118049732D01*
X130786850Y-117969230D01*
X130751795Y-117930650D01*
X131037227Y-117930650D01*
X131078098Y-118007852D01*
X131148000Y-118021666D01*
X131253373Y-117978706D01*
X131258772Y-117930650D01*
X131171363Y-117843175D01*
X131148000Y-117839633D01*
X131048725Y-117905548D01*
X131037227Y-117930650D01*
X130751795Y-117930650D01*
X130706410Y-117880701D01*
X130745833Y-117855026D01*
X130830994Y-117781723D01*
X130851666Y-117678003D01*
X130881429Y-117558865D01*
X130928514Y-117551167D01*
X131056817Y-117556552D01*
X131203680Y-117511442D01*
X131339301Y-117449281D01*
X131321796Y-117440830D01*
X131211500Y-117461018D01*
X131058468Y-117452433D01*
X131019703Y-117357573D01*
X131002368Y-117269655D01*
X130946819Y-117330265D01*
X130877274Y-117393838D01*
X130823773Y-117309098D01*
X130821580Y-117261362D01*
X131509278Y-117261362D01*
X131526451Y-117483173D01*
X131540406Y-117767081D01*
X131542540Y-117831166D01*
X131558665Y-118057352D01*
X131611119Y-118161283D01*
X131732921Y-118190006D01*
X131795095Y-118191000D01*
X131968138Y-118165350D01*
X132037000Y-118106333D01*
X131972570Y-118024126D01*
X131952333Y-118021666D01*
X131872484Y-117970165D01*
X131881740Y-117937000D01*
X132121666Y-117937000D01*
X132186095Y-118019206D01*
X132206333Y-118021666D01*
X132288539Y-117957237D01*
X132291000Y-117937000D01*
X132226570Y-117854793D01*
X132206333Y-117852333D01*
X132124126Y-117916762D01*
X132121666Y-117937000D01*
X131881740Y-117937000D01*
X131908798Y-117840045D01*
X132022888Y-117697111D01*
X132102955Y-117588000D01*
X132498169Y-117588000D01*
X132510243Y-117594617D01*
X132610330Y-117666297D01*
X132696403Y-117804460D01*
X132819316Y-117960591D01*
X133025646Y-118003641D01*
X133048995Y-118003233D01*
X133261685Y-117965643D01*
X133395198Y-117890410D01*
X133485000Y-117719856D01*
X133515957Y-117612401D01*
X133477551Y-117465988D01*
X133314300Y-117390075D01*
X133057945Y-117390703D01*
X132756666Y-117467850D01*
X132572647Y-117542144D01*
X132498169Y-117588000D01*
X132102955Y-117588000D01*
X132128311Y-117553447D01*
X132178897Y-117414821D01*
X132168976Y-117326931D01*
X132092874Y-117335475D01*
X132065222Y-117356044D01*
X131972422Y-117400968D01*
X131955026Y-117375866D01*
X132020186Y-117220948D01*
X132159260Y-117069485D01*
X132300333Y-116998389D01*
X132314401Y-116974059D01*
X132193284Y-116924180D01*
X132169174Y-116916767D01*
X131888778Y-116888647D01*
X131660617Y-116964654D01*
X131526336Y-117123041D01*
X131509278Y-117261362D01*
X130821580Y-117261362D01*
X130818569Y-117195803D01*
X130854323Y-117175000D01*
X130860887Y-117169487D01*
X131041758Y-117169487D01*
X131053339Y-117175000D01*
X131130605Y-117115396D01*
X131148000Y-117090333D01*
X131169574Y-117011179D01*
X131157993Y-117005666D01*
X131080728Y-117065270D01*
X131063333Y-117090333D01*
X131041758Y-117169487D01*
X130860887Y-117169487D01*
X130932518Y-117109329D01*
X130936333Y-117081070D01*
X130861045Y-117022687D01*
X130658822Y-117019604D01*
X130645939Y-117021042D01*
X130465871Y-117026774D01*
X130394004Y-116997463D01*
X130396935Y-116987972D01*
X130368256Y-116929664D01*
X130311326Y-116921000D01*
X130165044Y-116970678D01*
X130132000Y-117005666D01*
X130019840Y-117087172D01*
X129995006Y-117090333D01*
X129949103Y-117038167D01*
X129962666Y-117005666D01*
X129989423Y-116926319D01*
X129928499Y-116951374D01*
X129847377Y-117033888D01*
X129799088Y-117103990D01*
X128750751Y-117103990D01*
X128792163Y-117071189D01*
X128853162Y-117033110D01*
X129004889Y-116922203D01*
X128998007Y-116878666D01*
X130513000Y-116878666D01*
X130555333Y-116921000D01*
X130597666Y-116878666D01*
X130555333Y-116836333D01*
X130513000Y-116878666D01*
X128998007Y-116878666D01*
X128991590Y-116838068D01*
X128815642Y-116781971D01*
X128479419Y-116755177D01*
X128327267Y-116752963D01*
X127910430Y-116729867D01*
X127639973Y-116657807D01*
X127579776Y-116603187D01*
X128397629Y-116603187D01*
X128477301Y-116627360D01*
X128700915Y-116640110D01*
X129043516Y-116642158D01*
X129480152Y-116634227D01*
X129985866Y-116617041D01*
X130535705Y-116591321D01*
X131104714Y-116557790D01*
X131667937Y-116517171D01*
X131831741Y-116503737D01*
X132564730Y-116431561D01*
X133131135Y-116352824D01*
X133533599Y-116266959D01*
X133774767Y-116173397D01*
X133857280Y-116071571D01*
X133857333Y-116068800D01*
X133829571Y-116012218D01*
X133734194Y-115975913D01*
X133553062Y-115959849D01*
X133268037Y-115963995D01*
X132860978Y-115988316D01*
X132313748Y-116032778D01*
X131952333Y-116065265D01*
X131430198Y-116110263D01*
X130819759Y-116158266D01*
X130201797Y-116203134D01*
X129720177Y-116234887D01*
X129214098Y-116270651D01*
X128853742Y-116309969D01*
X128615526Y-116359409D01*
X128475865Y-116425537D01*
X128411177Y-116514922D01*
X128397629Y-116603187D01*
X127579776Y-116603187D01*
X127498031Y-116529015D01*
X127465000Y-116378054D01*
X127523661Y-116155324D01*
X127710411Y-116022924D01*
X127930666Y-115975991D01*
X128117649Y-115922794D01*
X128145711Y-115839706D01*
X128016325Y-115751132D01*
X127915106Y-115718091D01*
X127705562Y-115627891D01*
X127599888Y-115474936D01*
X127586575Y-115301741D01*
X128568440Y-115301741D01*
X129688886Y-115265235D01*
X130157366Y-115251590D01*
X130610943Y-115241222D01*
X130998656Y-115235124D01*
X131269549Y-115234288D01*
X131275000Y-115234351D01*
X131539936Y-115239511D01*
X131924080Y-115249500D01*
X132377422Y-115262914D01*
X132849949Y-115278349D01*
X132883666Y-115279511D01*
X133354438Y-115290785D01*
X133690050Y-115287903D01*
X133879363Y-115271288D01*
X133911238Y-115241362D01*
X133909986Y-115240490D01*
X133840499Y-115118541D01*
X133859421Y-115054955D01*
X133853777Y-114922935D01*
X133769419Y-114833822D01*
X133666494Y-114747831D01*
X133701710Y-114721150D01*
X133756484Y-114719666D01*
X133883375Y-114669407D01*
X133875623Y-114562539D01*
X133813618Y-114507146D01*
X133763783Y-114407234D01*
X133774748Y-114377631D01*
X133750006Y-114309394D01*
X133578317Y-114248977D01*
X133249332Y-114193010D01*
X133180000Y-114184068D01*
X133085099Y-114163843D01*
X133157748Y-114148251D01*
X133328166Y-114139685D01*
X133597397Y-114116688D01*
X133713442Y-114060964D01*
X133691327Y-113959220D01*
X133638217Y-113894283D01*
X133763604Y-113894283D01*
X133769813Y-113961177D01*
X133779786Y-113988024D01*
X133855932Y-114092062D01*
X133946107Y-114136151D01*
X133984333Y-114095033D01*
X133928165Y-114022067D01*
X133855395Y-113956058D01*
X133763604Y-113894283D01*
X133638217Y-113894283D01*
X133624500Y-113877512D01*
X133575687Y-113806192D01*
X133614874Y-113817293D01*
X133702644Y-113799348D01*
X133718856Y-113765727D01*
X133940405Y-113765727D01*
X133953715Y-113830666D01*
X134013810Y-113942068D01*
X134035725Y-113957666D01*
X134065322Y-113888529D01*
X134069000Y-113830666D01*
X134024691Y-113717973D01*
X133986990Y-113703666D01*
X133940405Y-113765727D01*
X133718856Y-113765727D01*
X133758793Y-113682906D01*
X133766084Y-113538192D01*
X133708435Y-113436132D01*
X133656497Y-113342981D01*
X133676207Y-113306236D01*
X133771090Y-113309557D01*
X133852422Y-113386299D01*
X133972658Y-113516972D01*
X134026087Y-113500197D01*
X134008865Y-113365000D01*
X133930074Y-113227505D01*
X133862122Y-113195666D01*
X133794428Y-113121130D01*
X133796545Y-113026333D01*
X133899666Y-113026333D01*
X133930644Y-113096023D01*
X133956111Y-113082777D01*
X133966244Y-112982298D01*
X133956111Y-112969888D01*
X133905776Y-112981511D01*
X133899666Y-113026333D01*
X133796545Y-113026333D01*
X133798705Y-112929639D01*
X133806933Y-112748562D01*
X133753804Y-112716400D01*
X133741708Y-112722970D01*
X133656042Y-112721242D01*
X133645666Y-112682788D01*
X133712434Y-112619272D01*
X133815000Y-112627532D01*
X133955463Y-112629217D01*
X133965876Y-112536381D01*
X133845934Y-112363315D01*
X133821221Y-112336172D01*
X133802514Y-112306666D01*
X133984333Y-112306666D01*
X134026666Y-112349000D01*
X134069000Y-112306666D01*
X134026666Y-112264333D01*
X133984333Y-112306666D01*
X133802514Y-112306666D01*
X133716229Y-112170570D01*
X133712754Y-112137333D01*
X133815000Y-112137333D01*
X133857333Y-112179666D01*
X133899666Y-112137333D01*
X133857333Y-112095000D01*
X133815000Y-112137333D01*
X133712754Y-112137333D01*
X133703005Y-112044093D01*
X133691201Y-111902432D01*
X133606785Y-111692412D01*
X133569638Y-111624960D01*
X133483005Y-111456045D01*
X133471221Y-111380310D01*
X133492838Y-111385534D01*
X133514448Y-111366861D01*
X133447954Y-111245344D01*
X133402552Y-111178954D01*
X133279298Y-111023216D01*
X133179924Y-110923736D01*
X133132037Y-110901304D01*
X133163247Y-110976710D01*
X133190799Y-111019498D01*
X133194751Y-111041180D01*
X133109436Y-110953256D01*
X133084835Y-110925654D01*
X132943461Y-110804870D01*
X132853922Y-110805004D01*
X132851474Y-110808591D01*
X132863869Y-110911245D01*
X132904305Y-110938084D01*
X132918304Y-110972179D01*
X132815169Y-110987649D01*
X132679050Y-111024409D01*
X132680084Y-111092081D01*
X132690352Y-111149775D01*
X132639039Y-111127126D01*
X132499513Y-111123442D01*
X132400429Y-111177544D01*
X132309753Y-111243148D01*
X132317751Y-111191863D01*
X132364783Y-111100166D01*
X132425176Y-110954954D01*
X132420978Y-110899083D01*
X132303226Y-110878631D01*
X132298055Y-110877916D01*
X132168895Y-110813857D01*
X132149888Y-110796777D01*
X132149114Y-110750107D01*
X132202903Y-110754444D01*
X132308368Y-110709189D01*
X132312364Y-110694174D01*
X132431183Y-110694174D01*
X132435311Y-110779654D01*
X132506978Y-110769296D01*
X132615607Y-110712437D01*
X132629666Y-110693938D01*
X132574178Y-110622847D01*
X132472818Y-110641491D01*
X132431183Y-110694174D01*
X132312364Y-110694174D01*
X132339509Y-110592166D01*
X132322295Y-110443837D01*
X132279439Y-110401666D01*
X132216775Y-110471732D01*
X132205036Y-110549833D01*
X132190459Y-110646831D01*
X132131461Y-110583637D01*
X132125213Y-110573839D01*
X132100824Y-110403607D01*
X132136876Y-110341006D01*
X132171559Y-110252705D01*
X132068533Y-110226041D01*
X131850852Y-110204875D01*
X131722539Y-110184703D01*
X131587482Y-110184322D01*
X131576451Y-110277135D01*
X131582359Y-110296828D01*
X131595255Y-110381839D01*
X131558153Y-110349578D01*
X131424596Y-110250199D01*
X131296699Y-110195875D01*
X131162069Y-110172694D01*
X131148444Y-110242468D01*
X131158919Y-110272592D01*
X131168954Y-110380418D01*
X131137220Y-110395102D01*
X130988184Y-110391368D01*
X130970180Y-110443224D01*
X131021000Y-110486333D01*
X131089708Y-110548865D01*
X131006377Y-110568939D01*
X130966558Y-110569703D01*
X130798878Y-110625160D01*
X130734694Y-110702397D01*
X130726068Y-110791461D01*
X130758376Y-110787996D01*
X130866202Y-110804395D01*
X130931578Y-110861604D01*
X130980207Y-110945450D01*
X130894066Y-110944773D01*
X130856505Y-110935464D01*
X130709529Y-110919394D01*
X130697749Y-110965413D01*
X130813598Y-111044552D01*
X130894000Y-111079000D01*
X131065662Y-111173923D01*
X131092632Y-111251184D01*
X130977063Y-111278653D01*
X130881416Y-111266650D01*
X130728769Y-111259098D01*
X130709370Y-111308251D01*
X130705633Y-111434256D01*
X130643092Y-111553360D01*
X130560289Y-111653026D01*
X130538470Y-111614242D01*
X130549495Y-111481166D01*
X130544815Y-111312965D01*
X130501357Y-111248333D01*
X130437222Y-111317406D01*
X130428333Y-111380330D01*
X130386013Y-111467063D01*
X130340781Y-111458216D01*
X130289755Y-111479743D01*
X130291472Y-111610199D01*
X130338430Y-111800260D01*
X130423126Y-112000604D01*
X130423339Y-112001001D01*
X130475719Y-112124722D01*
X130422022Y-112137715D01*
X130374069Y-112121039D01*
X130276823Y-112108826D01*
X130288825Y-112159428D01*
X130283764Y-112279217D01*
X130247299Y-112313898D01*
X130188373Y-112325733D01*
X130213096Y-112270109D01*
X130215092Y-112196405D01*
X130074249Y-112191775D01*
X130067909Y-112192589D01*
X129844310Y-112175015D01*
X129620742Y-112089302D01*
X129457982Y-111965909D01*
X129428789Y-111900755D01*
X129760874Y-111900755D01*
X129801153Y-111992971D01*
X129899166Y-112030874D01*
X130056646Y-112044537D01*
X130085669Y-111967134D01*
X130060997Y-111888412D01*
X129953978Y-111800259D01*
X129881204Y-111809152D01*
X129760874Y-111900755D01*
X129428789Y-111900755D01*
X129412333Y-111864029D01*
X129369844Y-111786203D01*
X129332870Y-111795450D01*
X129231823Y-111776347D01*
X129180744Y-111714719D01*
X129121106Y-111670743D01*
X129037278Y-111743685D01*
X128910129Y-111951812D01*
X128885905Y-111996249D01*
X128663729Y-112407621D01*
X128826280Y-112653477D01*
X128925505Y-112848266D01*
X128951424Y-112996618D01*
X128948488Y-113007125D01*
X128950188Y-113072442D01*
X129060911Y-113033064D01*
X129075572Y-113025313D01*
X129211263Y-112996018D01*
X129248234Y-113057936D01*
X129162031Y-113151048D01*
X129114840Y-113262464D01*
X129126609Y-113346544D01*
X129150386Y-113444721D01*
X129101724Y-113406277D01*
X129057258Y-113353653D01*
X128989273Y-113292246D01*
X128955128Y-113338250D01*
X128944182Y-113517497D01*
X128943902Y-113628820D01*
X128945443Y-114042333D01*
X129327055Y-114035649D01*
X129529074Y-114023748D01*
X129616142Y-114000936D01*
X129605398Y-113989088D01*
X129869702Y-113989088D01*
X129962666Y-114042333D01*
X130142171Y-114105825D01*
X130234786Y-114113841D01*
X130208578Y-114066382D01*
X130174333Y-114042333D01*
X129993591Y-113972132D01*
X129920333Y-113964913D01*
X129869702Y-113989088D01*
X129605398Y-113989088D01*
X129602833Y-113986260D01*
X129514098Y-113876718D01*
X129488560Y-113760111D01*
X129477869Y-113646766D01*
X130188742Y-113646766D01*
X130241227Y-113829897D01*
X130374511Y-114000699D01*
X130417419Y-114044444D01*
X130619415Y-114215566D01*
X130811862Y-114283265D01*
X131050091Y-114254685D01*
X131325561Y-114161691D01*
X131651042Y-113967131D01*
X131834874Y-113706333D01*
X131873630Y-113410877D01*
X131763884Y-113112344D01*
X131502208Y-112842314D01*
X131471092Y-112820491D01*
X131237966Y-112691568D01*
X131028756Y-112665911D01*
X130882905Y-112690168D01*
X130636529Y-112773762D01*
X130444376Y-112885073D01*
X130436438Y-112891997D01*
X130309305Y-112982559D01*
X130251981Y-112991092D01*
X130227188Y-113045615D01*
X130202668Y-113224033D01*
X130190950Y-113374019D01*
X130188742Y-113646766D01*
X129477869Y-113646766D01*
X129477683Y-113644798D01*
X129451701Y-113682729D01*
X129420279Y-113788333D01*
X129373863Y-113934054D01*
X129342684Y-113923122D01*
X129310459Y-113812612D01*
X129317880Y-113614323D01*
X129372981Y-113534333D01*
X129666333Y-113534333D01*
X129730762Y-113616539D01*
X129751000Y-113619000D01*
X129833206Y-113554570D01*
X129835666Y-113534333D01*
X129771237Y-113452126D01*
X129751000Y-113449666D01*
X129668793Y-113514095D01*
X129666333Y-113534333D01*
X129372981Y-113534333D01*
X129376961Y-113528555D01*
X129448388Y-113394365D01*
X129410554Y-113277009D01*
X129335435Y-113104603D01*
X129361973Y-113034092D01*
X129417330Y-113026333D01*
X129469669Y-113077359D01*
X129458282Y-113105149D01*
X129468899Y-113213889D01*
X129495618Y-113237146D01*
X129570031Y-113219710D01*
X129581666Y-113163326D01*
X129639572Y-113011633D01*
X129679415Y-112975915D01*
X129738072Y-112965911D01*
X129722234Y-113004379D01*
X129738689Y-113104004D01*
X129800744Y-113144461D01*
X129983651Y-113194599D01*
X130045401Y-113168851D01*
X129967492Y-113076177D01*
X129957682Y-113068458D01*
X129844538Y-112976671D01*
X129867233Y-112966661D01*
X129962666Y-112996253D01*
X130075461Y-113020839D01*
X130049146Y-112962698D01*
X130026166Y-112937194D01*
X129935106Y-112797769D01*
X129920333Y-112739217D01*
X129959757Y-112728595D01*
X130029045Y-112803974D01*
X130110000Y-112890382D01*
X130196466Y-112880981D01*
X130340355Y-112764665D01*
X130378942Y-112729125D01*
X130592674Y-112560666D01*
X130682333Y-112560666D01*
X130724666Y-112603000D01*
X130767000Y-112560666D01*
X130724666Y-112518333D01*
X130682333Y-112560666D01*
X130592674Y-112560666D01*
X130596605Y-112557568D01*
X130809107Y-112434355D01*
X130830336Y-112425681D01*
X131043239Y-112386781D01*
X131316309Y-112389534D01*
X131592467Y-112426290D01*
X131814639Y-112489403D01*
X131925748Y-112571225D01*
X131926268Y-112572530D01*
X132034578Y-112677381D01*
X132086217Y-112687666D01*
X132223776Y-112765230D01*
X132345829Y-112969523D01*
X132435648Y-113257942D01*
X132476504Y-113587888D01*
X132476876Y-113682500D01*
X132475762Y-113941263D01*
X132503229Y-114073978D01*
X132580235Y-114123757D01*
X132695873Y-114132950D01*
X132844742Y-114143210D01*
X132837268Y-114172915D01*
X132756666Y-114209573D01*
X132534692Y-114248884D01*
X132396833Y-114236777D01*
X132240565Y-114240209D01*
X132206333Y-114313565D01*
X132135158Y-114458507D01*
X131961949Y-114609399D01*
X131747180Y-114724601D01*
X131554093Y-114762697D01*
X131428865Y-114781781D01*
X131419090Y-114831986D01*
X131386121Y-114878798D01*
X131210598Y-114872776D01*
X131171152Y-114866824D01*
X130920226Y-114859802D01*
X130758069Y-114917110D01*
X130724085Y-114932975D01*
X130790590Y-114841480D01*
X130806832Y-114821856D01*
X130912252Y-114689212D01*
X130908140Y-114656228D01*
X130811863Y-114688077D01*
X130703337Y-114708095D01*
X130715174Y-114650357D01*
X130718770Y-114585903D01*
X130654394Y-114598858D01*
X130518678Y-114576336D01*
X130336952Y-114461606D01*
X130296546Y-114426312D01*
X130125598Y-114291530D01*
X130024327Y-114280593D01*
X129991512Y-114315256D01*
X129932003Y-114368171D01*
X129921629Y-114328083D01*
X129847092Y-114248096D01*
X129667696Y-114182492D01*
X129650778Y-114178922D01*
X129413085Y-114177557D01*
X129282946Y-114274194D01*
X129285252Y-114448897D01*
X129275906Y-114517324D01*
X129236258Y-114503833D01*
X129180181Y-114388416D01*
X129190011Y-114335904D01*
X129165422Y-114251950D01*
X128993348Y-114230090D01*
X128992589Y-114230111D01*
X128834521Y-114250288D01*
X128822506Y-114308688D01*
X128849306Y-114341940D01*
X128952202Y-114400817D01*
X129008870Y-114350463D01*
X129064098Y-114304197D01*
X129072370Y-114345722D01*
X129022542Y-114485283D01*
X128900659Y-114490534D01*
X128856928Y-114461457D01*
X128786069Y-114438923D01*
X128762445Y-114549432D01*
X128764471Y-114652692D01*
X128750114Y-114836224D01*
X128697995Y-114916310D01*
X128689470Y-114916156D01*
X128616507Y-114975854D01*
X128585024Y-115101360D01*
X128568440Y-115301741D01*
X127586575Y-115301741D01*
X127580381Y-115221169D01*
X127598358Y-115037166D01*
X127620989Y-114791220D01*
X127601136Y-114677333D01*
X128650333Y-114677333D01*
X128692666Y-114719666D01*
X128735000Y-114677333D01*
X128692666Y-114635000D01*
X128650333Y-114677333D01*
X127601136Y-114677333D01*
X127599984Y-114670724D01*
X127526607Y-114635433D01*
X127511073Y-114635000D01*
X127304425Y-114593887D01*
X127099320Y-114493311D01*
X126948506Y-114367415D01*
X126937756Y-114338666D01*
X127126333Y-114338666D01*
X127168666Y-114381000D01*
X127189833Y-114359833D01*
X127296021Y-114359833D01*
X127348317Y-114386382D01*
X127462197Y-114332839D01*
X127549666Y-114254000D01*
X127693814Y-114146409D01*
X127771700Y-114127000D01*
X127815238Y-114106757D01*
X128602388Y-114106757D01*
X128685611Y-114120315D01*
X128795425Y-114104749D01*
X128796736Y-114075847D01*
X128683419Y-114055635D01*
X128634458Y-114069163D01*
X128602388Y-114106757D01*
X127815238Y-114106757D01*
X127877551Y-114077784D01*
X127888333Y-114042333D01*
X127956527Y-113966349D01*
X128010071Y-113957666D01*
X128013672Y-113955009D01*
X128227000Y-113955009D01*
X128289061Y-114001594D01*
X128354000Y-113988284D01*
X128465401Y-113928189D01*
X128474552Y-113915333D01*
X128565666Y-113915333D01*
X128608000Y-113957666D01*
X128650333Y-113915333D01*
X128608000Y-113873000D01*
X128565666Y-113915333D01*
X128474552Y-113915333D01*
X128481000Y-113906274D01*
X128411862Y-113876677D01*
X128354000Y-113873000D01*
X128241307Y-113917308D01*
X128227000Y-113955009D01*
X128013672Y-113955009D01*
X128104692Y-113887841D01*
X128119053Y-113788333D01*
X128073492Y-113650496D01*
X128022715Y-113619000D01*
X127999701Y-113573006D01*
X128044258Y-113513874D01*
X128149615Y-113456240D01*
X128229229Y-113535041D01*
X128293189Y-113611684D01*
X128310153Y-113529182D01*
X128310370Y-113513166D01*
X128252181Y-113387973D01*
X128184666Y-113365000D01*
X128071994Y-113319282D01*
X128057666Y-113280333D01*
X128000245Y-113214274D01*
X127978975Y-113216833D01*
X127872124Y-113174758D01*
X127761030Y-113068666D01*
X127677884Y-112979763D01*
X127675384Y-113005166D01*
X127675710Y-113099014D01*
X127641425Y-113111000D01*
X127595823Y-113177006D01*
X127632116Y-113316835D01*
X127660468Y-113490352D01*
X127607500Y-113703702D01*
X127503375Y-113930669D01*
X127388590Y-114160364D01*
X127313268Y-114317713D01*
X127296021Y-114359833D01*
X127189833Y-114359833D01*
X127211000Y-114338666D01*
X127168666Y-114296333D01*
X127126333Y-114338666D01*
X126937756Y-114338666D01*
X126904730Y-114250340D01*
X126906834Y-114243879D01*
X126912780Y-114159108D01*
X126880647Y-114164195D01*
X126817544Y-114128640D01*
X126765265Y-113974828D01*
X126732305Y-113753817D01*
X126730299Y-113661333D01*
X126796381Y-113661333D01*
X126805329Y-113779314D01*
X126833611Y-113758912D01*
X126851686Y-113703666D01*
X127380333Y-113703666D01*
X127411311Y-113773356D01*
X127436777Y-113760111D01*
X127446910Y-113659631D01*
X127436777Y-113647222D01*
X127386443Y-113658844D01*
X127380333Y-113703666D01*
X126851686Y-113703666D01*
X126889263Y-113588813D01*
X126916644Y-113492000D01*
X126983396Y-113244568D01*
X127026332Y-113071924D01*
X127034929Y-113026333D01*
X127000066Y-113058386D01*
X126915156Y-113194810D01*
X126914666Y-113195666D01*
X126824108Y-113443987D01*
X126796381Y-113661333D01*
X126730299Y-113661333D01*
X126727161Y-113516666D01*
X126746665Y-113358933D01*
X126883526Y-113084644D01*
X126999850Y-112984000D01*
X127380333Y-112984000D01*
X127422666Y-113026333D01*
X127465000Y-112984000D01*
X127422666Y-112941666D01*
X127380333Y-112984000D01*
X126999850Y-112984000D01*
X127127233Y-112873788D01*
X127418503Y-112774615D01*
X127467371Y-112772333D01*
X127597955Y-112760102D01*
X127678985Y-112697569D01*
X127734864Y-112545972D01*
X127789996Y-112266553D01*
X127791624Y-112257318D01*
X127848559Y-112052666D01*
X128650333Y-112052666D01*
X128692666Y-112095000D01*
X128735000Y-112052666D01*
X128692666Y-112010333D01*
X128650333Y-112052666D01*
X127848559Y-112052666D01*
X127966331Y-111629333D01*
X129243000Y-111629333D01*
X129285333Y-111671666D01*
X129327666Y-111629333D01*
X129285333Y-111587000D01*
X129243000Y-111629333D01*
X127966331Y-111629333D01*
X127993370Y-111532140D01*
X128072605Y-111375333D01*
X130005000Y-111375333D01*
X130047333Y-111417666D01*
X130089666Y-111375333D01*
X130047333Y-111333000D01*
X130005000Y-111375333D01*
X128072605Y-111375333D01*
X128200951Y-111121333D01*
X130513000Y-111121333D01*
X130555333Y-111163666D01*
X130597666Y-111121333D01*
X130555333Y-111079000D01*
X130513000Y-111121333D01*
X128200951Y-111121333D01*
X128322739Y-110880312D01*
X128332720Y-110867333D01*
X130513000Y-110867333D01*
X130555333Y-110909666D01*
X130597666Y-110867333D01*
X130555333Y-110825000D01*
X130513000Y-110867333D01*
X128332720Y-110867333D01*
X128652740Y-110451195D01*
X128708910Y-110401666D01*
X130216666Y-110401666D01*
X130235860Y-110474149D01*
X130296336Y-110486333D01*
X130412178Y-110442128D01*
X130428333Y-110401666D01*
X130367565Y-110319423D01*
X130348663Y-110317000D01*
X130233996Y-110378544D01*
X130216666Y-110401666D01*
X128708910Y-110401666D01*
X128963602Y-110177087D01*
X129030069Y-110132379D01*
X133610303Y-110132379D01*
X133653594Y-110271112D01*
X133727650Y-110317000D01*
X133760998Y-110246164D01*
X133749567Y-110097548D01*
X133701060Y-109958249D01*
X133642141Y-109984036D01*
X133610303Y-110132379D01*
X129030069Y-110132379D01*
X129372802Y-109901847D01*
X129820614Y-109659193D01*
X130153229Y-109521725D01*
X132714333Y-109521725D01*
X132757878Y-109628829D01*
X132849238Y-109609117D01*
X132916941Y-109505741D01*
X132962784Y-109358400D01*
X132920604Y-109329226D01*
X132841333Y-109355048D01*
X132728809Y-109461651D01*
X132714333Y-109521725D01*
X130153229Y-109521725D01*
X130247307Y-109482843D01*
X130477386Y-109421153D01*
X130723287Y-109308639D01*
X130838004Y-109097040D01*
X130821067Y-108871520D01*
X131046070Y-108871520D01*
X131051020Y-109043589D01*
X131127342Y-109093629D01*
X131236570Y-109081362D01*
X131399685Y-109085971D01*
X131444333Y-109144121D01*
X131464384Y-109216094D01*
X131510243Y-109159453D01*
X131560469Y-109008191D01*
X131575730Y-108935801D01*
X131568098Y-108732106D01*
X131469809Y-108651091D01*
X131308157Y-108713700D01*
X131297372Y-108722211D01*
X131204689Y-108784435D01*
X131221410Y-108729500D01*
X131224282Y-108637178D01*
X131174163Y-108623834D01*
X131089256Y-108698095D01*
X131046070Y-108871520D01*
X130821067Y-108871520D01*
X130815774Y-108801039D01*
X130771346Y-108672235D01*
X130641018Y-108294823D01*
X130634004Y-108211403D01*
X130813206Y-108211403D01*
X130845188Y-108348500D01*
X130925601Y-108360050D01*
X131126414Y-108367738D01*
X131322957Y-108369666D01*
X131590666Y-108365611D01*
X131728061Y-108339819D01*
X131774157Y-108271857D01*
X131767968Y-108141286D01*
X131767457Y-108136833D01*
X131714874Y-107964773D01*
X131574256Y-107891615D01*
X131481903Y-107878692D01*
X131212737Y-107888314D01*
X131001874Y-107937509D01*
X130843222Y-108041914D01*
X130813206Y-108211403D01*
X130634004Y-108211403D01*
X130619277Y-108036264D01*
X130717301Y-107876902D01*
X130946264Y-107797082D01*
X131280370Y-107777000D01*
X131552749Y-107788026D01*
G37*
D12*
X150198000Y-116365000D02*
G75*
G02*
X148298000Y-116365000I-950000J0D01*
G01*
X148298000Y-116365000D02*
G75*
G02*
X150198000Y-116365000I950000J0D01*
G01*
X164948000Y-117615000D02*
G75*
G02*
X163048000Y-117615000I-950000J0D01*
G01*
X163048000Y-117615000D02*
G75*
G02*
X164948000Y-117615000I950000J0D01*
G01*
X117198000Y-78865000D02*
G75*
G02*
X115298000Y-78865000I-950000J0D01*
G01*
X115298000Y-78865000D02*
G75*
G02*
X117198000Y-78865000I950000J0D01*
G01*
X162198000Y-80865000D02*
G75*
G02*
X160298000Y-80865000I-950000J0D01*
G01*
X160298000Y-80865000D02*
G75*
G02*
X162198000Y-80865000I950000J0D01*
G01*
X127698000Y-85115000D02*
G75*
G02*
X125798000Y-85115000I-950000J0D01*
G01*
X125798000Y-85115000D02*
G75*
G02*
X127698000Y-85115000I950000J0D01*
G01*
X170198000Y-78115000D02*
G75*
G02*
X168298000Y-78115000I-950000J0D01*
G01*
X168298000Y-78115000D02*
G75*
G02*
X170198000Y-78115000I950000J0D01*
G01*
X151698000Y-121365000D02*
G75*
G02*
X149798000Y-121365000I-950000J0D01*
G01*
X149798000Y-121365000D02*
G75*
G02*
X151698000Y-121365000I950000J0D01*
G01*
X162448000Y-116615000D02*
G75*
G02*
X160548000Y-116615000I-950000J0D01*
G01*
X160548000Y-116615000D02*
G75*
G02*
X162448000Y-116615000I950000J0D01*
G01*
X166448000Y-78615000D02*
G75*
G02*
X164548000Y-78615000I-950000J0D01*
G01*
X164548000Y-78615000D02*
G75*
G02*
X166448000Y-78615000I950000J0D01*
G01*
X124948000Y-109115000D02*
G75*
G02*
X123048000Y-109115000I-950000J0D01*
G01*
X123048000Y-109115000D02*
G75*
G02*
X124948000Y-109115000I950000J0D01*
G01*
X158448000Y-106115000D02*
G75*
G02*
X156548000Y-106115000I-950000J0D01*
G01*
X156548000Y-106115000D02*
G75*
G02*
X158448000Y-106115000I950000J0D01*
G01*
X150948000Y-94615000D02*
G75*
G02*
X149048000Y-94615000I-950000J0D01*
G01*
X149048000Y-94615000D02*
G75*
G02*
X150948000Y-94615000I950000J0D01*
G01*
X164948000Y-106365000D02*
G75*
G02*
X163048000Y-106365000I-950000J0D01*
G01*
X163048000Y-106365000D02*
G75*
G02*
X164948000Y-106365000I950000J0D01*
G01*
X167698000Y-81615000D02*
G75*
G02*
X165798000Y-81615000I-950000J0D01*
G01*
X165798000Y-81615000D02*
G75*
G02*
X167698000Y-81615000I950000J0D01*
G01*
X127948000Y-91865000D02*
G75*
G02*
X126048000Y-91865000I-950000J0D01*
G01*
X126048000Y-91865000D02*
G75*
G02*
X127948000Y-91865000I950000J0D01*
G01*
X158448000Y-79865000D02*
G75*
G02*
X156548000Y-79865000I-950000J0D01*
G01*
X156548000Y-79865000D02*
G75*
G02*
X158448000Y-79865000I950000J0D01*
G01*
M02*
