G04 #@! TF.GenerationSoftware,KiCad,Pcbnew,9.0.5*
G04 #@! TF.CreationDate,2025-11-21T19:54:48+01:00*
G04 #@! TF.ProjectId,ShieldArduino_Semaforo,53686965-6c64-4417-9264-75696e6f5f53,rev?*
G04 #@! TF.SameCoordinates,Original*
G04 #@! TF.FileFunction,Soldermask,Bot*
G04 #@! TF.FilePolarity,Negative*
%FSLAX46Y46*%
G04 Gerber Fmt 4.6, Leading zero omitted, Abs format (unit mm)*
G04 Created by KiCad (PCBNEW 9.0.5) date 2025-11-21 19:54:48*
%MOMM*%
%LPD*%
G01*
G04 APERTURE LIST*
G04 APERTURE END LIST*
G36*
X125364424Y-121832044D02*
G01*
X125621165Y-121900838D01*
X125866731Y-122002555D01*
X126096919Y-122135454D01*
X126307791Y-122297262D01*
X126495738Y-122485209D01*
X126657546Y-122696081D01*
X126790445Y-122926269D01*
X126892162Y-123171835D01*
X126960956Y-123428576D01*
X126995649Y-123692101D01*
X126995649Y-123957899D01*
X126960956Y-124221424D01*
X126892162Y-124478165D01*
X126790445Y-124723731D01*
X126657546Y-124953919D01*
X126495738Y-125164791D01*
X126307791Y-125352738D01*
X126096919Y-125514546D01*
X125866731Y-125647445D01*
X125621165Y-125749162D01*
X125364424Y-125817956D01*
X125100899Y-125852649D01*
X124835101Y-125852649D01*
X124571576Y-125817956D01*
X124314835Y-125749162D01*
X124069269Y-125647445D01*
X123839081Y-125514546D01*
X123628209Y-125352738D01*
X123440262Y-125164791D01*
X123278454Y-124953919D01*
X123145555Y-124723731D01*
X123043838Y-124478165D01*
X122975044Y-124221424D01*
X122940351Y-123957899D01*
X122940351Y-123692101D01*
X122975044Y-123428576D01*
X123043838Y-123171835D01*
X123145555Y-122926269D01*
X123278454Y-122696081D01*
X123440262Y-122485209D01*
X123628209Y-122297262D01*
X123839081Y-122135454D01*
X124069269Y-122002555D01*
X124314835Y-121900838D01*
X124571576Y-121832044D01*
X124835101Y-121797351D01*
X125100899Y-121797351D01*
X125364424Y-121832044D01*
G37*
G36*
X139188690Y-122846186D02*
G01*
X139345098Y-122910973D01*
X139485862Y-123005028D01*
X139605572Y-123124738D01*
X139699627Y-123265502D01*
X139764414Y-123421910D01*
X139797442Y-123587952D01*
X139801600Y-123672600D01*
X139801600Y-123977400D01*
X139797442Y-124062048D01*
X139764414Y-124228090D01*
X139699627Y-124384498D01*
X139605572Y-124525262D01*
X139485862Y-124644972D01*
X139345098Y-124739027D01*
X139188690Y-124803814D01*
X139022648Y-124836842D01*
X138853352Y-124836842D01*
X138687310Y-124803814D01*
X138530902Y-124739027D01*
X138390138Y-124644972D01*
X138270428Y-124525262D01*
X138176373Y-124384498D01*
X138111586Y-124228090D01*
X138078558Y-124062048D01*
X138074400Y-123977400D01*
X138074400Y-123672600D01*
X138078558Y-123587952D01*
X138111586Y-123421910D01*
X138176373Y-123265502D01*
X138270428Y-123124738D01*
X138390138Y-123005028D01*
X138530902Y-122910973D01*
X138687310Y-122846186D01*
X138853352Y-122813158D01*
X139022648Y-122813158D01*
X139188690Y-122846186D01*
G37*
G36*
X141728690Y-122846186D02*
G01*
X141885098Y-122910973D01*
X142025862Y-123005028D01*
X142145572Y-123124738D01*
X142239627Y-123265502D01*
X142304414Y-123421910D01*
X142337442Y-123587952D01*
X142341600Y-123672600D01*
X142341600Y-123977400D01*
X142337442Y-124062048D01*
X142304414Y-124228090D01*
X142239627Y-124384498D01*
X142145572Y-124525262D01*
X142025862Y-124644972D01*
X141885098Y-124739027D01*
X141728690Y-124803814D01*
X141562648Y-124836842D01*
X141393352Y-124836842D01*
X141227310Y-124803814D01*
X141070902Y-124739027D01*
X140930138Y-124644972D01*
X140810428Y-124525262D01*
X140716373Y-124384498D01*
X140651586Y-124228090D01*
X140618558Y-124062048D01*
X140614400Y-123977400D01*
X140614400Y-123672600D01*
X140618558Y-123587952D01*
X140651586Y-123421910D01*
X140716373Y-123265502D01*
X140810428Y-123124738D01*
X140930138Y-123005028D01*
X141070902Y-122910973D01*
X141227310Y-122846186D01*
X141393352Y-122813158D01*
X141562648Y-122813158D01*
X141728690Y-122846186D01*
G37*
G36*
X144268690Y-122846186D02*
G01*
X144425098Y-122910973D01*
X144565862Y-123005028D01*
X144685572Y-123124738D01*
X144779627Y-123265502D01*
X144844414Y-123421910D01*
X144877442Y-123587952D01*
X144881600Y-123672600D01*
X144881600Y-123977400D01*
X144877442Y-124062048D01*
X144844414Y-124228090D01*
X144779627Y-124384498D01*
X144685572Y-124525262D01*
X144565862Y-124644972D01*
X144425098Y-124739027D01*
X144268690Y-124803814D01*
X144102648Y-124836842D01*
X143933352Y-124836842D01*
X143767310Y-124803814D01*
X143610902Y-124739027D01*
X143470138Y-124644972D01*
X143350428Y-124525262D01*
X143256373Y-124384498D01*
X143191586Y-124228090D01*
X143158558Y-124062048D01*
X143154400Y-123977400D01*
X143154400Y-123672600D01*
X143158558Y-123587952D01*
X143191586Y-123421910D01*
X143256373Y-123265502D01*
X143350428Y-123124738D01*
X143470138Y-123005028D01*
X143610902Y-122910973D01*
X143767310Y-122846186D01*
X143933352Y-122813158D01*
X144102648Y-122813158D01*
X144268690Y-122846186D01*
G37*
G36*
X146808690Y-122846186D02*
G01*
X146965098Y-122910973D01*
X147105862Y-123005028D01*
X147225572Y-123124738D01*
X147319627Y-123265502D01*
X147384414Y-123421910D01*
X147417442Y-123587952D01*
X147421600Y-123672600D01*
X147421600Y-123977400D01*
X147417442Y-124062048D01*
X147384414Y-124228090D01*
X147319627Y-124384498D01*
X147225572Y-124525262D01*
X147105862Y-124644972D01*
X146965098Y-124739027D01*
X146808690Y-124803814D01*
X146642648Y-124836842D01*
X146473352Y-124836842D01*
X146307310Y-124803814D01*
X146150902Y-124739027D01*
X146010138Y-124644972D01*
X145890428Y-124525262D01*
X145796373Y-124384498D01*
X145731586Y-124228090D01*
X145698558Y-124062048D01*
X145694400Y-123977400D01*
X145694400Y-123672600D01*
X145698558Y-123587952D01*
X145731586Y-123421910D01*
X145796373Y-123265502D01*
X145890428Y-123124738D01*
X146010138Y-123005028D01*
X146150902Y-122910973D01*
X146307310Y-122846186D01*
X146473352Y-122813158D01*
X146642648Y-122813158D01*
X146808690Y-122846186D01*
G37*
G36*
X149348690Y-122846186D02*
G01*
X149505098Y-122910973D01*
X149645862Y-123005028D01*
X149765572Y-123124738D01*
X149859627Y-123265502D01*
X149924414Y-123421910D01*
X149957442Y-123587952D01*
X149961600Y-123672600D01*
X149961600Y-123977400D01*
X149957442Y-124062048D01*
X149924414Y-124228090D01*
X149859627Y-124384498D01*
X149765572Y-124525262D01*
X149645862Y-124644972D01*
X149505098Y-124739027D01*
X149348690Y-124803814D01*
X149182648Y-124836842D01*
X149013352Y-124836842D01*
X148847310Y-124803814D01*
X148690902Y-124739027D01*
X148550138Y-124644972D01*
X148430428Y-124525262D01*
X148336373Y-124384498D01*
X148271586Y-124228090D01*
X148238558Y-124062048D01*
X148234400Y-123977400D01*
X148234400Y-123672600D01*
X148238558Y-123587952D01*
X148271586Y-123421910D01*
X148336373Y-123265502D01*
X148430428Y-123124738D01*
X148550138Y-123005028D01*
X148690902Y-122910973D01*
X148847310Y-122846186D01*
X149013352Y-122813158D01*
X149182648Y-122813158D01*
X149348690Y-122846186D01*
G37*
G36*
X151888690Y-122846186D02*
G01*
X152045098Y-122910973D01*
X152185862Y-123005028D01*
X152305572Y-123124738D01*
X152399627Y-123265502D01*
X152464414Y-123421910D01*
X152497442Y-123587952D01*
X152501600Y-123672600D01*
X152501600Y-123977400D01*
X152497442Y-124062048D01*
X152464414Y-124228090D01*
X152399627Y-124384498D01*
X152305572Y-124525262D01*
X152185862Y-124644972D01*
X152045098Y-124739027D01*
X151888690Y-124803814D01*
X151722648Y-124836842D01*
X151553352Y-124836842D01*
X151387310Y-124803814D01*
X151230902Y-124739027D01*
X151090138Y-124644972D01*
X150970428Y-124525262D01*
X150876373Y-124384498D01*
X150811586Y-124228090D01*
X150778558Y-124062048D01*
X150774400Y-123977400D01*
X150774400Y-123672600D01*
X150778558Y-123587952D01*
X150811586Y-123421910D01*
X150876373Y-123265502D01*
X150970428Y-123124738D01*
X151090138Y-123005028D01*
X151230902Y-122910973D01*
X151387310Y-122846186D01*
X151553352Y-122813158D01*
X151722648Y-122813158D01*
X151888690Y-122846186D01*
G37*
G36*
X154428690Y-122846186D02*
G01*
X154585098Y-122910973D01*
X154725862Y-123005028D01*
X154845572Y-123124738D01*
X154939627Y-123265502D01*
X155004414Y-123421910D01*
X155037442Y-123587952D01*
X155041600Y-123672600D01*
X155041600Y-123977400D01*
X155037442Y-124062048D01*
X155004414Y-124228090D01*
X154939627Y-124384498D01*
X154845572Y-124525262D01*
X154725862Y-124644972D01*
X154585098Y-124739027D01*
X154428690Y-124803814D01*
X154262648Y-124836842D01*
X154093352Y-124836842D01*
X153927310Y-124803814D01*
X153770902Y-124739027D01*
X153630138Y-124644972D01*
X153510428Y-124525262D01*
X153416373Y-124384498D01*
X153351586Y-124228090D01*
X153318558Y-124062048D01*
X153314400Y-123977400D01*
X153314400Y-123672600D01*
X153318558Y-123587952D01*
X153351586Y-123421910D01*
X153416373Y-123265502D01*
X153510428Y-123124738D01*
X153630138Y-123005028D01*
X153770902Y-122910973D01*
X153927310Y-122846186D01*
X154093352Y-122813158D01*
X154262648Y-122813158D01*
X154428690Y-122846186D01*
G37*
G36*
X156968690Y-122846186D02*
G01*
X157125098Y-122910973D01*
X157265862Y-123005028D01*
X157385572Y-123124738D01*
X157479627Y-123265502D01*
X157544414Y-123421910D01*
X157577442Y-123587952D01*
X157581600Y-123672600D01*
X157581600Y-123977400D01*
X157577442Y-124062048D01*
X157544414Y-124228090D01*
X157479627Y-124384498D01*
X157385572Y-124525262D01*
X157265862Y-124644972D01*
X157125098Y-124739027D01*
X156968690Y-124803814D01*
X156802648Y-124836842D01*
X156633352Y-124836842D01*
X156467310Y-124803814D01*
X156310902Y-124739027D01*
X156170138Y-124644972D01*
X156050428Y-124525262D01*
X155956373Y-124384498D01*
X155891586Y-124228090D01*
X155858558Y-124062048D01*
X155854400Y-123977400D01*
X155854400Y-123672600D01*
X155858558Y-123587952D01*
X155891586Y-123421910D01*
X155956373Y-123265502D01*
X156050428Y-123124738D01*
X156170138Y-123005028D01*
X156310902Y-122910973D01*
X156467310Y-122846186D01*
X156633352Y-122813158D01*
X156802648Y-122813158D01*
X156968690Y-122846186D01*
G37*
G36*
X162048690Y-122846186D02*
G01*
X162205098Y-122910973D01*
X162345862Y-123005028D01*
X162465572Y-123124738D01*
X162559627Y-123265502D01*
X162624414Y-123421910D01*
X162657442Y-123587952D01*
X162661600Y-123672600D01*
X162661600Y-123977400D01*
X162657442Y-124062048D01*
X162624414Y-124228090D01*
X162559627Y-124384498D01*
X162465572Y-124525262D01*
X162345862Y-124644972D01*
X162205098Y-124739027D01*
X162048690Y-124803814D01*
X161882648Y-124836842D01*
X161713352Y-124836842D01*
X161547310Y-124803814D01*
X161390902Y-124739027D01*
X161250138Y-124644972D01*
X161130428Y-124525262D01*
X161036373Y-124384498D01*
X160971586Y-124228090D01*
X160938558Y-124062048D01*
X160934400Y-123977400D01*
X160934400Y-123672600D01*
X160938558Y-123587952D01*
X160971586Y-123421910D01*
X161036373Y-123265502D01*
X161130428Y-123124738D01*
X161250138Y-123005028D01*
X161390902Y-122910973D01*
X161547310Y-122846186D01*
X161713352Y-122813158D01*
X161882648Y-122813158D01*
X162048690Y-122846186D01*
G37*
G36*
X164588690Y-122846186D02*
G01*
X164745098Y-122910973D01*
X164885862Y-123005028D01*
X165005572Y-123124738D01*
X165099627Y-123265502D01*
X165164414Y-123421910D01*
X165197442Y-123587952D01*
X165201600Y-123672600D01*
X165201600Y-123977400D01*
X165197442Y-124062048D01*
X165164414Y-124228090D01*
X165099627Y-124384498D01*
X165005572Y-124525262D01*
X164885862Y-124644972D01*
X164745098Y-124739027D01*
X164588690Y-124803814D01*
X164422648Y-124836842D01*
X164253352Y-124836842D01*
X164087310Y-124803814D01*
X163930902Y-124739027D01*
X163790138Y-124644972D01*
X163670428Y-124525262D01*
X163576373Y-124384498D01*
X163511586Y-124228090D01*
X163478558Y-124062048D01*
X163474400Y-123977400D01*
X163474400Y-123672600D01*
X163478558Y-123587952D01*
X163511586Y-123421910D01*
X163576373Y-123265502D01*
X163670428Y-123124738D01*
X163790138Y-123005028D01*
X163930902Y-122910973D01*
X164087310Y-122846186D01*
X164253352Y-122813158D01*
X164422648Y-122813158D01*
X164588690Y-122846186D01*
G37*
G36*
X167128690Y-122846186D02*
G01*
X167285098Y-122910973D01*
X167425862Y-123005028D01*
X167545572Y-123124738D01*
X167639627Y-123265502D01*
X167704414Y-123421910D01*
X167737442Y-123587952D01*
X167741600Y-123672600D01*
X167741600Y-123977400D01*
X167737442Y-124062048D01*
X167704414Y-124228090D01*
X167639627Y-124384498D01*
X167545572Y-124525262D01*
X167425862Y-124644972D01*
X167285098Y-124739027D01*
X167128690Y-124803814D01*
X166962648Y-124836842D01*
X166793352Y-124836842D01*
X166627310Y-124803814D01*
X166470902Y-124739027D01*
X166330138Y-124644972D01*
X166210428Y-124525262D01*
X166116373Y-124384498D01*
X166051586Y-124228090D01*
X166018558Y-124062048D01*
X166014400Y-123977400D01*
X166014400Y-123672600D01*
X166018558Y-123587952D01*
X166051586Y-123421910D01*
X166116373Y-123265502D01*
X166210428Y-123124738D01*
X166330138Y-123005028D01*
X166470902Y-122910973D01*
X166627310Y-122846186D01*
X166793352Y-122813158D01*
X166962648Y-122813158D01*
X167128690Y-122846186D01*
G37*
G36*
X169668690Y-122846186D02*
G01*
X169825098Y-122910973D01*
X169965862Y-123005028D01*
X170085572Y-123124738D01*
X170179627Y-123265502D01*
X170244414Y-123421910D01*
X170277442Y-123587952D01*
X170281600Y-123672600D01*
X170281600Y-123977400D01*
X170277442Y-124062048D01*
X170244414Y-124228090D01*
X170179627Y-124384498D01*
X170085572Y-124525262D01*
X169965862Y-124644972D01*
X169825098Y-124739027D01*
X169668690Y-124803814D01*
X169502648Y-124836842D01*
X169333352Y-124836842D01*
X169167310Y-124803814D01*
X169010902Y-124739027D01*
X168870138Y-124644972D01*
X168750428Y-124525262D01*
X168656373Y-124384498D01*
X168591586Y-124228090D01*
X168558558Y-124062048D01*
X168554400Y-123977400D01*
X168554400Y-123672600D01*
X168558558Y-123587952D01*
X168591586Y-123421910D01*
X168656373Y-123265502D01*
X168750428Y-123124738D01*
X168870138Y-123005028D01*
X169010902Y-122910973D01*
X169167310Y-122846186D01*
X169333352Y-122813158D01*
X169502648Y-122813158D01*
X169668690Y-122846186D01*
G37*
G36*
X172208690Y-122846186D02*
G01*
X172365098Y-122910973D01*
X172505862Y-123005028D01*
X172625572Y-123124738D01*
X172719627Y-123265502D01*
X172784414Y-123421910D01*
X172817442Y-123587952D01*
X172821600Y-123672600D01*
X172821600Y-123977400D01*
X172817442Y-124062048D01*
X172784414Y-124228090D01*
X172719627Y-124384498D01*
X172625572Y-124525262D01*
X172505862Y-124644972D01*
X172365098Y-124739027D01*
X172208690Y-124803814D01*
X172042648Y-124836842D01*
X171873352Y-124836842D01*
X171707310Y-124803814D01*
X171550902Y-124739027D01*
X171410138Y-124644972D01*
X171290428Y-124525262D01*
X171196373Y-124384498D01*
X171131586Y-124228090D01*
X171098558Y-124062048D01*
X171094400Y-123977400D01*
X171094400Y-123672600D01*
X171098558Y-123587952D01*
X171131586Y-123421910D01*
X171196373Y-123265502D01*
X171290428Y-123124738D01*
X171410138Y-123005028D01*
X171550902Y-122910973D01*
X171707310Y-122846186D01*
X171873352Y-122813158D01*
X172042648Y-122813158D01*
X172208690Y-122846186D01*
G37*
G36*
X174748690Y-122846186D02*
G01*
X174905098Y-122910973D01*
X175045862Y-123005028D01*
X175165572Y-123124738D01*
X175259627Y-123265502D01*
X175324414Y-123421910D01*
X175357442Y-123587952D01*
X175361600Y-123672600D01*
X175361600Y-123977400D01*
X175357442Y-124062048D01*
X175324414Y-124228090D01*
X175259627Y-124384498D01*
X175165572Y-124525262D01*
X175045862Y-124644972D01*
X174905098Y-124739027D01*
X174748690Y-124803814D01*
X174582648Y-124836842D01*
X174413352Y-124836842D01*
X174247310Y-124803814D01*
X174090902Y-124739027D01*
X173950138Y-124644972D01*
X173830428Y-124525262D01*
X173736373Y-124384498D01*
X173671586Y-124228090D01*
X173638558Y-124062048D01*
X173634400Y-123977400D01*
X173634400Y-123672600D01*
X173638558Y-123587952D01*
X173671586Y-123421910D01*
X173736373Y-123265502D01*
X173830428Y-123124738D01*
X173950138Y-123005028D01*
X174090902Y-122910973D01*
X174247310Y-122846186D01*
X174413352Y-122813158D01*
X174582648Y-122813158D01*
X174748690Y-122846186D01*
G37*
G36*
X116263794Y-120076028D02*
G01*
X116500699Y-120139506D01*
X116727291Y-120233364D01*
X116939694Y-120355994D01*
X117134273Y-120505300D01*
X117307700Y-120678727D01*
X117457006Y-120873306D01*
X117579636Y-121085709D01*
X117673494Y-121312301D01*
X117736972Y-121549206D01*
X117768985Y-121792369D01*
X117768985Y-122037631D01*
X117736972Y-122280794D01*
X117673494Y-122517699D01*
X117579636Y-122744291D01*
X117457006Y-122956694D01*
X117307700Y-123151273D01*
X117134273Y-123324700D01*
X116939694Y-123474006D01*
X116727291Y-123596636D01*
X116500699Y-123690494D01*
X116263794Y-123753972D01*
X116020631Y-123785985D01*
X115775369Y-123785985D01*
X115532206Y-123753972D01*
X115295301Y-123690494D01*
X115068709Y-123596636D01*
X114856306Y-123474006D01*
X114661727Y-123324700D01*
X114488300Y-123151273D01*
X114338994Y-122956694D01*
X114216364Y-122744291D01*
X114122506Y-122517699D01*
X114059028Y-122280794D01*
X114027015Y-122037631D01*
X114027015Y-121792369D01*
X114059028Y-121549206D01*
X114122506Y-121312301D01*
X114216364Y-121085709D01*
X114338994Y-120873306D01*
X114488300Y-120678727D01*
X114661727Y-120505300D01*
X114856306Y-120355994D01*
X115068709Y-120233364D01*
X115295301Y-120139506D01*
X115532206Y-120076028D01*
X115775369Y-120044015D01*
X116020631Y-120044015D01*
X116263794Y-120076028D01*
G37*
G36*
X150965714Y-120647295D02*
G01*
X151101548Y-120703559D01*
X151223795Y-120785242D01*
X151327758Y-120889205D01*
X151409441Y-121011452D01*
X151465705Y-121147286D01*
X151494389Y-121291487D01*
X151494389Y-121438513D01*
X151465705Y-121582714D01*
X151409441Y-121718548D01*
X151327758Y-121840795D01*
X151223795Y-121944758D01*
X151101548Y-122026441D01*
X150965714Y-122082705D01*
X150821513Y-122111389D01*
X150674487Y-122111389D01*
X150530286Y-122082705D01*
X150394452Y-122026441D01*
X150272205Y-121944758D01*
X150168242Y-121840795D01*
X150086559Y-121718548D01*
X150030295Y-121582714D01*
X150001611Y-121438513D01*
X150001611Y-121291487D01*
X150030295Y-121147286D01*
X150086559Y-121011452D01*
X150168242Y-120889205D01*
X150272205Y-120785242D01*
X150394452Y-120703559D01*
X150530286Y-120647295D01*
X150674487Y-120618611D01*
X150821513Y-120618611D01*
X150965714Y-120647295D01*
G37*
G36*
X177434424Y-116752044D02*
G01*
X177691165Y-116820838D01*
X177936731Y-116922555D01*
X178166919Y-117055454D01*
X178377791Y-117217262D01*
X178565738Y-117405209D01*
X178727546Y-117616081D01*
X178860445Y-117846269D01*
X178962162Y-118091835D01*
X179030956Y-118348576D01*
X179065649Y-118612101D01*
X179065649Y-118877899D01*
X179030956Y-119141424D01*
X178962162Y-119398165D01*
X178860445Y-119643731D01*
X178727546Y-119873919D01*
X178565738Y-120084791D01*
X178377791Y-120272738D01*
X178166919Y-120434546D01*
X177936731Y-120567445D01*
X177691165Y-120669162D01*
X177434424Y-120737956D01*
X177170899Y-120772649D01*
X176905101Y-120772649D01*
X176641576Y-120737956D01*
X176384835Y-120669162D01*
X176139269Y-120567445D01*
X175909081Y-120434546D01*
X175698209Y-120272738D01*
X175510262Y-120084791D01*
X175348454Y-119873919D01*
X175215555Y-119643731D01*
X175113838Y-119398165D01*
X175045044Y-119141424D01*
X175010351Y-118877899D01*
X175010351Y-118612101D01*
X175045044Y-118348576D01*
X175113838Y-118091835D01*
X175215555Y-117846269D01*
X175348454Y-117616081D01*
X175510262Y-117405209D01*
X175698209Y-117217262D01*
X175909081Y-117055454D01*
X176139269Y-116922555D01*
X176384835Y-116820838D01*
X176641576Y-116752044D01*
X176905101Y-116717351D01*
X177170899Y-116717351D01*
X177434424Y-116752044D01*
G37*
G36*
X117473000Y-118990000D02*
G01*
X116323000Y-118990000D01*
X116323000Y-117840000D01*
X117473000Y-117840000D01*
X117473000Y-118990000D01*
G37*
G36*
X114963689Y-117844919D02*
G01*
X114973053Y-117844919D01*
X115000030Y-117852147D01*
X115064826Y-117865036D01*
X115095411Y-117877704D01*
X115118043Y-117883769D01*
X115138333Y-117895483D01*
X115168920Y-117908153D01*
X115223862Y-117944863D01*
X115248038Y-117958822D01*
X115254655Y-117965439D01*
X115262587Y-117970739D01*
X115342260Y-118050412D01*
X115347559Y-118058343D01*
X115354178Y-118064962D01*
X115368138Y-118089141D01*
X115404846Y-118144079D01*
X115417514Y-118174663D01*
X115429231Y-118194957D01*
X115435296Y-118217592D01*
X115447963Y-118248173D01*
X115460851Y-118312964D01*
X115468081Y-118339947D01*
X115468081Y-118349311D01*
X115469942Y-118358667D01*
X115469942Y-118471332D01*
X115468081Y-118480687D01*
X115468081Y-118490053D01*
X115460850Y-118517038D01*
X115447963Y-118581826D01*
X115435296Y-118612404D01*
X115429231Y-118635043D01*
X115417512Y-118655339D01*
X115404846Y-118685920D01*
X115368142Y-118740851D01*
X115354178Y-118765038D01*
X115347557Y-118771658D01*
X115342260Y-118779587D01*
X115262587Y-118859260D01*
X115254658Y-118864557D01*
X115248038Y-118871178D01*
X115223851Y-118885142D01*
X115168920Y-118921846D01*
X115138339Y-118934512D01*
X115118043Y-118946231D01*
X115095404Y-118952296D01*
X115064826Y-118964963D01*
X115000036Y-118977850D01*
X114973053Y-118985081D01*
X114963689Y-118985081D01*
X114954333Y-118986942D01*
X114841667Y-118986942D01*
X114832311Y-118985081D01*
X114822947Y-118985081D01*
X114795964Y-118977851D01*
X114731173Y-118964963D01*
X114700592Y-118952296D01*
X114677957Y-118946231D01*
X114657663Y-118934514D01*
X114627079Y-118921846D01*
X114572141Y-118885138D01*
X114547962Y-118871178D01*
X114541343Y-118864559D01*
X114533412Y-118859260D01*
X114453739Y-118779587D01*
X114448439Y-118771655D01*
X114441822Y-118765038D01*
X114427863Y-118740862D01*
X114391153Y-118685920D01*
X114378483Y-118655333D01*
X114366769Y-118635043D01*
X114360704Y-118612411D01*
X114348036Y-118581826D01*
X114335148Y-118517032D01*
X114327919Y-118490053D01*
X114327919Y-118480688D01*
X114326058Y-118471332D01*
X114326058Y-118358667D01*
X114327919Y-118349310D01*
X114327919Y-118339947D01*
X114335147Y-118312970D01*
X114348036Y-118248173D01*
X114360705Y-118217585D01*
X114366769Y-118194957D01*
X114378482Y-118174669D01*
X114391153Y-118144079D01*
X114427868Y-118089130D01*
X114441822Y-118064962D01*
X114448437Y-118058346D01*
X114453739Y-118050412D01*
X114533412Y-117970739D01*
X114541346Y-117965437D01*
X114547962Y-117958822D01*
X114572130Y-117944868D01*
X114627079Y-117908153D01*
X114657669Y-117895482D01*
X114677957Y-117883769D01*
X114700585Y-117877705D01*
X114731173Y-117865036D01*
X114795970Y-117852147D01*
X114822947Y-117844919D01*
X114832311Y-117844919D01*
X114841667Y-117843058D01*
X114954333Y-117843058D01*
X114963689Y-117844919D01*
G37*
G36*
X164215714Y-116897295D02*
G01*
X164351548Y-116953559D01*
X164473795Y-117035242D01*
X164577758Y-117139205D01*
X164659441Y-117261452D01*
X164715705Y-117397286D01*
X164744389Y-117541487D01*
X164744389Y-117688513D01*
X164715705Y-117832714D01*
X164659441Y-117968548D01*
X164577758Y-118090795D01*
X164473795Y-118194758D01*
X164351548Y-118276441D01*
X164215714Y-118332705D01*
X164071513Y-118361389D01*
X163924487Y-118361389D01*
X163780286Y-118332705D01*
X163644452Y-118276441D01*
X163522205Y-118194758D01*
X163418242Y-118090795D01*
X163336559Y-117968548D01*
X163280295Y-117832714D01*
X163251611Y-117688513D01*
X163251611Y-117541487D01*
X163280295Y-117397286D01*
X163336559Y-117261452D01*
X163418242Y-117139205D01*
X163522205Y-117035242D01*
X163644452Y-116953559D01*
X163780286Y-116897295D01*
X163924487Y-116868611D01*
X164071513Y-116868611D01*
X164215714Y-116897295D01*
G37*
G36*
X161715714Y-115897295D02*
G01*
X161851548Y-115953559D01*
X161973795Y-116035242D01*
X162077758Y-116139205D01*
X162159441Y-116261452D01*
X162215705Y-116397286D01*
X162244389Y-116541487D01*
X162244389Y-116688513D01*
X162215705Y-116832714D01*
X162159441Y-116968548D01*
X162077758Y-117090795D01*
X161973795Y-117194758D01*
X161851548Y-117276441D01*
X161715714Y-117332705D01*
X161571513Y-117361389D01*
X161424487Y-117361389D01*
X161280286Y-117332705D01*
X161144452Y-117276441D01*
X161022205Y-117194758D01*
X160918242Y-117090795D01*
X160836559Y-116968548D01*
X160780295Y-116832714D01*
X160751611Y-116688513D01*
X160751611Y-116541487D01*
X160780295Y-116397286D01*
X160836559Y-116261452D01*
X160918242Y-116139205D01*
X161022205Y-116035242D01*
X161144452Y-115953559D01*
X161280286Y-115897295D01*
X161424487Y-115868611D01*
X161571513Y-115868611D01*
X161715714Y-115897295D01*
G37*
G36*
X149465714Y-115647295D02*
G01*
X149601548Y-115703559D01*
X149723795Y-115785242D01*
X149827758Y-115889205D01*
X149909441Y-116011452D01*
X149965705Y-116147286D01*
X149994389Y-116291487D01*
X149994389Y-116438513D01*
X149965705Y-116582714D01*
X149909441Y-116718548D01*
X149827758Y-116840795D01*
X149723795Y-116944758D01*
X149601548Y-117026441D01*
X149465714Y-117082705D01*
X149321513Y-117111389D01*
X149174487Y-117111389D01*
X149030286Y-117082705D01*
X148894452Y-117026441D01*
X148772205Y-116944758D01*
X148668242Y-116840795D01*
X148586559Y-116718548D01*
X148530295Y-116582714D01*
X148501611Y-116438513D01*
X148501611Y-116291487D01*
X148530295Y-116147286D01*
X148586559Y-116011452D01*
X148668242Y-115889205D01*
X148772205Y-115785242D01*
X148894452Y-115703559D01*
X149030286Y-115647295D01*
X149174487Y-115618611D01*
X149321513Y-115618611D01*
X149465714Y-115647295D01*
G37*
G36*
X114963689Y-115844919D02*
G01*
X114973053Y-115844919D01*
X115000030Y-115852147D01*
X115064826Y-115865036D01*
X115095411Y-115877704D01*
X115118043Y-115883769D01*
X115138333Y-115895483D01*
X115168920Y-115908153D01*
X115223862Y-115944863D01*
X115248038Y-115958822D01*
X115254655Y-115965439D01*
X115262587Y-115970739D01*
X115342260Y-116050412D01*
X115347559Y-116058343D01*
X115354178Y-116064962D01*
X115368138Y-116089141D01*
X115404846Y-116144079D01*
X115417514Y-116174663D01*
X115429231Y-116194957D01*
X115435296Y-116217592D01*
X115447963Y-116248173D01*
X115460851Y-116312964D01*
X115468081Y-116339947D01*
X115468081Y-116349311D01*
X115469942Y-116358667D01*
X115469942Y-116471332D01*
X115468081Y-116480687D01*
X115468081Y-116490053D01*
X115460850Y-116517038D01*
X115447963Y-116581826D01*
X115435296Y-116612404D01*
X115429231Y-116635043D01*
X115417512Y-116655339D01*
X115404846Y-116685920D01*
X115368142Y-116740851D01*
X115354178Y-116765038D01*
X115347557Y-116771658D01*
X115342260Y-116779587D01*
X115262587Y-116859260D01*
X115254658Y-116864557D01*
X115248038Y-116871178D01*
X115223851Y-116885142D01*
X115168920Y-116921846D01*
X115138339Y-116934512D01*
X115118043Y-116946231D01*
X115095404Y-116952296D01*
X115064826Y-116964963D01*
X115000036Y-116977850D01*
X114973053Y-116985081D01*
X114963689Y-116985081D01*
X114954333Y-116986942D01*
X114841667Y-116986942D01*
X114832311Y-116985081D01*
X114822947Y-116985081D01*
X114795964Y-116977851D01*
X114731173Y-116964963D01*
X114700592Y-116952296D01*
X114677957Y-116946231D01*
X114657663Y-116934514D01*
X114627079Y-116921846D01*
X114572141Y-116885138D01*
X114547962Y-116871178D01*
X114541343Y-116864559D01*
X114533412Y-116859260D01*
X114453739Y-116779587D01*
X114448439Y-116771655D01*
X114441822Y-116765038D01*
X114427863Y-116740862D01*
X114391153Y-116685920D01*
X114378483Y-116655333D01*
X114366769Y-116635043D01*
X114360704Y-116612411D01*
X114348036Y-116581826D01*
X114335148Y-116517032D01*
X114327919Y-116490053D01*
X114327919Y-116480688D01*
X114326058Y-116471332D01*
X114326058Y-116358667D01*
X114327919Y-116349310D01*
X114327919Y-116339947D01*
X114335147Y-116312970D01*
X114348036Y-116248173D01*
X114360705Y-116217585D01*
X114366769Y-116194957D01*
X114378482Y-116174669D01*
X114391153Y-116144079D01*
X114427868Y-116089130D01*
X114441822Y-116064962D01*
X114448437Y-116058346D01*
X114453739Y-116050412D01*
X114533412Y-115970739D01*
X114541346Y-115965437D01*
X114547962Y-115958822D01*
X114572130Y-115944868D01*
X114627079Y-115908153D01*
X114657669Y-115895482D01*
X114677957Y-115883769D01*
X114700585Y-115877705D01*
X114731173Y-115865036D01*
X114795970Y-115852147D01*
X114822947Y-115844919D01*
X114832311Y-115844919D01*
X114841667Y-115843058D01*
X114954333Y-115843058D01*
X114963689Y-115844919D01*
G37*
G36*
X116963689Y-115844919D02*
G01*
X116973053Y-115844919D01*
X117000030Y-115852147D01*
X117064826Y-115865036D01*
X117095411Y-115877704D01*
X117118043Y-115883769D01*
X117138333Y-115895483D01*
X117168920Y-115908153D01*
X117223862Y-115944863D01*
X117248038Y-115958822D01*
X117254655Y-115965439D01*
X117262587Y-115970739D01*
X117342260Y-116050412D01*
X117347559Y-116058343D01*
X117354178Y-116064962D01*
X117368138Y-116089141D01*
X117404846Y-116144079D01*
X117417514Y-116174663D01*
X117429231Y-116194957D01*
X117435296Y-116217592D01*
X117447963Y-116248173D01*
X117460851Y-116312964D01*
X117468081Y-116339947D01*
X117468081Y-116349311D01*
X117469942Y-116358667D01*
X117469942Y-116471332D01*
X117468081Y-116480687D01*
X117468081Y-116490053D01*
X117460850Y-116517038D01*
X117447963Y-116581826D01*
X117435296Y-116612404D01*
X117429231Y-116635043D01*
X117417512Y-116655339D01*
X117404846Y-116685920D01*
X117368142Y-116740851D01*
X117354178Y-116765038D01*
X117347557Y-116771658D01*
X117342260Y-116779587D01*
X117262587Y-116859260D01*
X117254658Y-116864557D01*
X117248038Y-116871178D01*
X117223851Y-116885142D01*
X117168920Y-116921846D01*
X117138339Y-116934512D01*
X117118043Y-116946231D01*
X117095404Y-116952296D01*
X117064826Y-116964963D01*
X117000036Y-116977850D01*
X116973053Y-116985081D01*
X116963689Y-116985081D01*
X116954333Y-116986942D01*
X116841667Y-116986942D01*
X116832311Y-116985081D01*
X116822947Y-116985081D01*
X116795964Y-116977851D01*
X116731173Y-116964963D01*
X116700592Y-116952296D01*
X116677957Y-116946231D01*
X116657663Y-116934514D01*
X116627079Y-116921846D01*
X116572141Y-116885138D01*
X116547962Y-116871178D01*
X116541343Y-116864559D01*
X116533412Y-116859260D01*
X116453739Y-116779587D01*
X116448439Y-116771655D01*
X116441822Y-116765038D01*
X116427863Y-116740862D01*
X116391153Y-116685920D01*
X116378483Y-116655333D01*
X116366769Y-116635043D01*
X116360704Y-116612411D01*
X116348036Y-116581826D01*
X116335148Y-116517032D01*
X116327919Y-116490053D01*
X116327919Y-116480688D01*
X116326058Y-116471332D01*
X116326058Y-116358667D01*
X116327919Y-116349310D01*
X116327919Y-116339947D01*
X116335147Y-116312970D01*
X116348036Y-116248173D01*
X116360705Y-116217585D01*
X116366769Y-116194957D01*
X116378482Y-116174669D01*
X116391153Y-116144079D01*
X116427868Y-116089130D01*
X116441822Y-116064962D01*
X116448437Y-116058346D01*
X116453739Y-116050412D01*
X116533412Y-115970739D01*
X116541346Y-115965437D01*
X116547962Y-115958822D01*
X116572130Y-115944868D01*
X116627079Y-115908153D01*
X116657669Y-115895482D01*
X116677957Y-115883769D01*
X116700585Y-115877705D01*
X116731173Y-115865036D01*
X116795970Y-115852147D01*
X116822947Y-115844919D01*
X116832311Y-115844919D01*
X116841667Y-115843058D01*
X116954333Y-115843058D01*
X116963689Y-115844919D01*
G37*
G36*
X114963689Y-113844919D02*
G01*
X114973053Y-113844919D01*
X115000030Y-113852147D01*
X115064826Y-113865036D01*
X115095411Y-113877704D01*
X115118043Y-113883769D01*
X115138333Y-113895483D01*
X115168920Y-113908153D01*
X115223862Y-113944863D01*
X115248038Y-113958822D01*
X115254655Y-113965439D01*
X115262587Y-113970739D01*
X115342260Y-114050412D01*
X115347559Y-114058343D01*
X115354178Y-114064962D01*
X115368138Y-114089141D01*
X115404846Y-114144079D01*
X115417514Y-114174663D01*
X115429231Y-114194957D01*
X115435296Y-114217592D01*
X115447963Y-114248173D01*
X115460851Y-114312964D01*
X115468081Y-114339947D01*
X115468081Y-114349311D01*
X115469942Y-114358667D01*
X115469942Y-114471332D01*
X115468081Y-114480687D01*
X115468081Y-114490053D01*
X115460850Y-114517038D01*
X115447963Y-114581826D01*
X115435296Y-114612404D01*
X115429231Y-114635043D01*
X115417512Y-114655339D01*
X115404846Y-114685920D01*
X115368142Y-114740851D01*
X115354178Y-114765038D01*
X115347557Y-114771658D01*
X115342260Y-114779587D01*
X115262587Y-114859260D01*
X115254658Y-114864557D01*
X115248038Y-114871178D01*
X115223851Y-114885142D01*
X115168920Y-114921846D01*
X115138339Y-114934512D01*
X115118043Y-114946231D01*
X115095404Y-114952296D01*
X115064826Y-114964963D01*
X115000036Y-114977850D01*
X114973053Y-114985081D01*
X114963689Y-114985081D01*
X114954333Y-114986942D01*
X114841667Y-114986942D01*
X114832311Y-114985081D01*
X114822947Y-114985081D01*
X114795964Y-114977851D01*
X114731173Y-114964963D01*
X114700592Y-114952296D01*
X114677957Y-114946231D01*
X114657663Y-114934514D01*
X114627079Y-114921846D01*
X114572141Y-114885138D01*
X114547962Y-114871178D01*
X114541343Y-114864559D01*
X114533412Y-114859260D01*
X114453739Y-114779587D01*
X114448439Y-114771655D01*
X114441822Y-114765038D01*
X114427863Y-114740862D01*
X114391153Y-114685920D01*
X114378483Y-114655333D01*
X114366769Y-114635043D01*
X114360704Y-114612411D01*
X114348036Y-114581826D01*
X114335148Y-114517032D01*
X114327919Y-114490053D01*
X114327919Y-114480688D01*
X114326058Y-114471332D01*
X114326058Y-114358667D01*
X114327919Y-114349310D01*
X114327919Y-114339947D01*
X114335147Y-114312970D01*
X114348036Y-114248173D01*
X114360705Y-114217585D01*
X114366769Y-114194957D01*
X114378482Y-114174669D01*
X114391153Y-114144079D01*
X114427868Y-114089130D01*
X114441822Y-114064962D01*
X114448437Y-114058346D01*
X114453739Y-114050412D01*
X114533412Y-113970739D01*
X114541346Y-113965437D01*
X114547962Y-113958822D01*
X114572130Y-113944868D01*
X114627079Y-113908153D01*
X114657669Y-113895482D01*
X114677957Y-113883769D01*
X114700585Y-113877705D01*
X114731173Y-113865036D01*
X114795970Y-113852147D01*
X114822947Y-113844919D01*
X114832311Y-113844919D01*
X114841667Y-113843058D01*
X114954333Y-113843058D01*
X114963689Y-113844919D01*
G37*
G36*
X116963689Y-113844919D02*
G01*
X116973053Y-113844919D01*
X117000030Y-113852147D01*
X117064826Y-113865036D01*
X117095411Y-113877704D01*
X117118043Y-113883769D01*
X117138333Y-113895483D01*
X117168920Y-113908153D01*
X117223862Y-113944863D01*
X117248038Y-113958822D01*
X117254655Y-113965439D01*
X117262587Y-113970739D01*
X117342260Y-114050412D01*
X117347559Y-114058343D01*
X117354178Y-114064962D01*
X117368138Y-114089141D01*
X117404846Y-114144079D01*
X117417514Y-114174663D01*
X117429231Y-114194957D01*
X117435296Y-114217592D01*
X117447963Y-114248173D01*
X117460851Y-114312964D01*
X117468081Y-114339947D01*
X117468081Y-114349311D01*
X117469942Y-114358667D01*
X117469942Y-114471332D01*
X117468081Y-114480687D01*
X117468081Y-114490053D01*
X117460850Y-114517038D01*
X117447963Y-114581826D01*
X117435296Y-114612404D01*
X117429231Y-114635043D01*
X117417512Y-114655339D01*
X117404846Y-114685920D01*
X117368142Y-114740851D01*
X117354178Y-114765038D01*
X117347557Y-114771658D01*
X117342260Y-114779587D01*
X117262587Y-114859260D01*
X117254658Y-114864557D01*
X117248038Y-114871178D01*
X117223851Y-114885142D01*
X117168920Y-114921846D01*
X117138339Y-114934512D01*
X117118043Y-114946231D01*
X117095404Y-114952296D01*
X117064826Y-114964963D01*
X117000036Y-114977850D01*
X116973053Y-114985081D01*
X116963689Y-114985081D01*
X116954333Y-114986942D01*
X116841667Y-114986942D01*
X116832311Y-114985081D01*
X116822947Y-114985081D01*
X116795964Y-114977851D01*
X116731173Y-114964963D01*
X116700592Y-114952296D01*
X116677957Y-114946231D01*
X116657663Y-114934514D01*
X116627079Y-114921846D01*
X116572141Y-114885138D01*
X116547962Y-114871178D01*
X116541343Y-114864559D01*
X116533412Y-114859260D01*
X116453739Y-114779587D01*
X116448439Y-114771655D01*
X116441822Y-114765038D01*
X116427863Y-114740862D01*
X116391153Y-114685920D01*
X116378483Y-114655333D01*
X116366769Y-114635043D01*
X116360704Y-114612411D01*
X116348036Y-114581826D01*
X116335148Y-114517032D01*
X116327919Y-114490053D01*
X116327919Y-114480688D01*
X116326058Y-114471332D01*
X116326058Y-114358667D01*
X116327919Y-114349310D01*
X116327919Y-114339947D01*
X116335147Y-114312970D01*
X116348036Y-114248173D01*
X116360705Y-114217585D01*
X116366769Y-114194957D01*
X116378482Y-114174669D01*
X116391153Y-114144079D01*
X116427868Y-114089130D01*
X116441822Y-114064962D01*
X116448437Y-114058346D01*
X116453739Y-114050412D01*
X116533412Y-113970739D01*
X116541346Y-113965437D01*
X116547962Y-113958822D01*
X116572130Y-113944868D01*
X116627079Y-113908153D01*
X116657669Y-113895482D01*
X116677957Y-113883769D01*
X116700585Y-113877705D01*
X116731173Y-113865036D01*
X116795970Y-113852147D01*
X116822947Y-113844919D01*
X116832311Y-113844919D01*
X116841667Y-113843058D01*
X116954333Y-113843058D01*
X116963689Y-113844919D01*
G37*
G36*
X167221028Y-111421983D02*
G01*
X167397612Y-111495127D01*
X167556533Y-111601315D01*
X167691685Y-111736467D01*
X167797873Y-111895388D01*
X167871017Y-112071972D01*
X167908305Y-112259433D01*
X167908305Y-112450567D01*
X167871017Y-112638028D01*
X167797873Y-112814612D01*
X167691685Y-112973533D01*
X167556533Y-113108685D01*
X167397612Y-113214873D01*
X167221028Y-113288017D01*
X167033567Y-113325305D01*
X166842433Y-113325305D01*
X166654972Y-113288017D01*
X166478388Y-113214873D01*
X166319467Y-113108685D01*
X166184315Y-112973533D01*
X166078127Y-112814612D01*
X166004983Y-112638028D01*
X165967695Y-112450567D01*
X165967695Y-112259433D01*
X166004983Y-112071972D01*
X166078127Y-111895388D01*
X166184315Y-111736467D01*
X166319467Y-111601315D01*
X166478388Y-111495127D01*
X166654972Y-111421983D01*
X166842433Y-111384695D01*
X167033567Y-111384695D01*
X167221028Y-111421983D01*
G37*
G36*
X174781028Y-111421983D02*
G01*
X174957612Y-111495127D01*
X175116533Y-111601315D01*
X175251685Y-111736467D01*
X175357873Y-111895388D01*
X175431017Y-112071972D01*
X175468305Y-112259433D01*
X175468305Y-112450567D01*
X175431017Y-112638028D01*
X175357873Y-112814612D01*
X175251685Y-112973533D01*
X175116533Y-113108685D01*
X174957612Y-113214873D01*
X174781028Y-113288017D01*
X174593567Y-113325305D01*
X174402433Y-113325305D01*
X174214972Y-113288017D01*
X174038388Y-113214873D01*
X173879467Y-113108685D01*
X173744315Y-112973533D01*
X173638127Y-112814612D01*
X173564983Y-112638028D01*
X173527695Y-112450567D01*
X173527695Y-112259433D01*
X173564983Y-112071972D01*
X173638127Y-111895388D01*
X173744315Y-111736467D01*
X173879467Y-111601315D01*
X174038388Y-111495127D01*
X174214972Y-111421983D01*
X174402433Y-111384695D01*
X174593567Y-111384695D01*
X174781028Y-111421983D01*
G37*
G36*
X114963689Y-111844919D02*
G01*
X114973053Y-111844919D01*
X115000030Y-111852147D01*
X115064826Y-111865036D01*
X115095411Y-111877704D01*
X115118043Y-111883769D01*
X115138333Y-111895483D01*
X115168920Y-111908153D01*
X115223862Y-111944863D01*
X115248038Y-111958822D01*
X115254655Y-111965439D01*
X115262587Y-111970739D01*
X115342260Y-112050412D01*
X115347559Y-112058343D01*
X115354178Y-112064962D01*
X115368138Y-112089141D01*
X115404846Y-112144079D01*
X115417514Y-112174663D01*
X115429231Y-112194957D01*
X115435296Y-112217592D01*
X115447963Y-112248173D01*
X115460851Y-112312964D01*
X115468081Y-112339947D01*
X115468081Y-112349311D01*
X115469942Y-112358667D01*
X115469942Y-112471332D01*
X115468081Y-112480687D01*
X115468081Y-112490053D01*
X115460850Y-112517038D01*
X115447963Y-112581826D01*
X115435296Y-112612404D01*
X115429231Y-112635043D01*
X115417512Y-112655339D01*
X115404846Y-112685920D01*
X115368142Y-112740851D01*
X115354178Y-112765038D01*
X115347557Y-112771658D01*
X115342260Y-112779587D01*
X115262587Y-112859260D01*
X115254658Y-112864557D01*
X115248038Y-112871178D01*
X115223851Y-112885142D01*
X115168920Y-112921846D01*
X115138339Y-112934512D01*
X115118043Y-112946231D01*
X115095404Y-112952296D01*
X115064826Y-112964963D01*
X115000036Y-112977850D01*
X114973053Y-112985081D01*
X114963689Y-112985081D01*
X114954333Y-112986942D01*
X114841667Y-112986942D01*
X114832311Y-112985081D01*
X114822947Y-112985081D01*
X114795964Y-112977851D01*
X114731173Y-112964963D01*
X114700592Y-112952296D01*
X114677957Y-112946231D01*
X114657663Y-112934514D01*
X114627079Y-112921846D01*
X114572141Y-112885138D01*
X114547962Y-112871178D01*
X114541343Y-112864559D01*
X114533412Y-112859260D01*
X114453739Y-112779587D01*
X114448439Y-112771655D01*
X114441822Y-112765038D01*
X114427863Y-112740862D01*
X114391153Y-112685920D01*
X114378483Y-112655333D01*
X114366769Y-112635043D01*
X114360704Y-112612411D01*
X114348036Y-112581826D01*
X114335148Y-112517032D01*
X114327919Y-112490053D01*
X114327919Y-112480688D01*
X114326058Y-112471332D01*
X114326058Y-112358667D01*
X114327919Y-112349310D01*
X114327919Y-112339947D01*
X114335147Y-112312970D01*
X114348036Y-112248173D01*
X114360705Y-112217585D01*
X114366769Y-112194957D01*
X114378482Y-112174669D01*
X114391153Y-112144079D01*
X114427868Y-112089130D01*
X114441822Y-112064962D01*
X114448437Y-112058346D01*
X114453739Y-112050412D01*
X114533412Y-111970739D01*
X114541346Y-111965437D01*
X114547962Y-111958822D01*
X114572130Y-111944868D01*
X114627079Y-111908153D01*
X114657669Y-111895482D01*
X114677957Y-111883769D01*
X114700585Y-111877705D01*
X114731173Y-111865036D01*
X114795970Y-111852147D01*
X114822947Y-111844919D01*
X114832311Y-111844919D01*
X114841667Y-111843058D01*
X114954333Y-111843058D01*
X114963689Y-111844919D01*
G37*
G36*
X116963689Y-111844919D02*
G01*
X116973053Y-111844919D01*
X117000030Y-111852147D01*
X117064826Y-111865036D01*
X117095411Y-111877704D01*
X117118043Y-111883769D01*
X117138333Y-111895483D01*
X117168920Y-111908153D01*
X117223862Y-111944863D01*
X117248038Y-111958822D01*
X117254655Y-111965439D01*
X117262587Y-111970739D01*
X117342260Y-112050412D01*
X117347559Y-112058343D01*
X117354178Y-112064962D01*
X117368138Y-112089141D01*
X117404846Y-112144079D01*
X117417514Y-112174663D01*
X117429231Y-112194957D01*
X117435296Y-112217592D01*
X117447963Y-112248173D01*
X117460851Y-112312964D01*
X117468081Y-112339947D01*
X117468081Y-112349311D01*
X117469942Y-112358667D01*
X117469942Y-112471332D01*
X117468081Y-112480687D01*
X117468081Y-112490053D01*
X117460850Y-112517038D01*
X117447963Y-112581826D01*
X117435296Y-112612404D01*
X117429231Y-112635043D01*
X117417512Y-112655339D01*
X117404846Y-112685920D01*
X117368142Y-112740851D01*
X117354178Y-112765038D01*
X117347557Y-112771658D01*
X117342260Y-112779587D01*
X117262587Y-112859260D01*
X117254658Y-112864557D01*
X117248038Y-112871178D01*
X117223851Y-112885142D01*
X117168920Y-112921846D01*
X117138339Y-112934512D01*
X117118043Y-112946231D01*
X117095404Y-112952296D01*
X117064826Y-112964963D01*
X117000036Y-112977850D01*
X116973053Y-112985081D01*
X116963689Y-112985081D01*
X116954333Y-112986942D01*
X116841667Y-112986942D01*
X116832311Y-112985081D01*
X116822947Y-112985081D01*
X116795964Y-112977851D01*
X116731173Y-112964963D01*
X116700592Y-112952296D01*
X116677957Y-112946231D01*
X116657663Y-112934514D01*
X116627079Y-112921846D01*
X116572141Y-112885138D01*
X116547962Y-112871178D01*
X116541343Y-112864559D01*
X116533412Y-112859260D01*
X116453739Y-112779587D01*
X116448439Y-112771655D01*
X116441822Y-112765038D01*
X116427863Y-112740862D01*
X116391153Y-112685920D01*
X116378483Y-112655333D01*
X116366769Y-112635043D01*
X116360704Y-112612411D01*
X116348036Y-112581826D01*
X116335148Y-112517032D01*
X116327919Y-112490053D01*
X116327919Y-112480688D01*
X116326058Y-112471332D01*
X116326058Y-112358667D01*
X116327919Y-112349310D01*
X116327919Y-112339947D01*
X116335147Y-112312970D01*
X116348036Y-112248173D01*
X116360705Y-112217585D01*
X116366769Y-112194957D01*
X116378482Y-112174669D01*
X116391153Y-112144079D01*
X116427868Y-112089130D01*
X116441822Y-112064962D01*
X116448437Y-112058346D01*
X116453739Y-112050412D01*
X116533412Y-111970739D01*
X116541346Y-111965437D01*
X116547962Y-111958822D01*
X116572130Y-111944868D01*
X116627079Y-111908153D01*
X116657669Y-111895482D01*
X116677957Y-111883769D01*
X116700585Y-111877705D01*
X116731173Y-111865036D01*
X116795970Y-111852147D01*
X116822947Y-111844919D01*
X116832311Y-111844919D01*
X116841667Y-111843058D01*
X116954333Y-111843058D01*
X116963689Y-111844919D01*
G37*
G36*
X114963689Y-109844919D02*
G01*
X114973053Y-109844919D01*
X115000030Y-109852147D01*
X115064826Y-109865036D01*
X115095411Y-109877704D01*
X115118043Y-109883769D01*
X115138333Y-109895483D01*
X115168920Y-109908153D01*
X115223862Y-109944863D01*
X115248038Y-109958822D01*
X115254655Y-109965439D01*
X115262587Y-109970739D01*
X115342260Y-110050412D01*
X115347559Y-110058343D01*
X115354178Y-110064962D01*
X115368138Y-110089141D01*
X115404846Y-110144079D01*
X115417514Y-110174663D01*
X115429231Y-110194957D01*
X115435296Y-110217592D01*
X115447963Y-110248173D01*
X115460851Y-110312964D01*
X115468081Y-110339947D01*
X115468081Y-110349311D01*
X115469942Y-110358667D01*
X115469942Y-110471332D01*
X115468081Y-110480687D01*
X115468081Y-110490053D01*
X115460850Y-110517038D01*
X115447963Y-110581826D01*
X115435296Y-110612404D01*
X115429231Y-110635043D01*
X115417512Y-110655339D01*
X115404846Y-110685920D01*
X115368142Y-110740851D01*
X115354178Y-110765038D01*
X115347557Y-110771658D01*
X115342260Y-110779587D01*
X115262587Y-110859260D01*
X115254658Y-110864557D01*
X115248038Y-110871178D01*
X115223851Y-110885142D01*
X115168920Y-110921846D01*
X115138339Y-110934512D01*
X115118043Y-110946231D01*
X115095404Y-110952296D01*
X115064826Y-110964963D01*
X115000036Y-110977850D01*
X114973053Y-110985081D01*
X114963689Y-110985081D01*
X114954333Y-110986942D01*
X114841667Y-110986942D01*
X114832311Y-110985081D01*
X114822947Y-110985081D01*
X114795964Y-110977851D01*
X114731173Y-110964963D01*
X114700592Y-110952296D01*
X114677957Y-110946231D01*
X114657663Y-110934514D01*
X114627079Y-110921846D01*
X114572141Y-110885138D01*
X114547962Y-110871178D01*
X114541343Y-110864559D01*
X114533412Y-110859260D01*
X114453739Y-110779587D01*
X114448439Y-110771655D01*
X114441822Y-110765038D01*
X114427863Y-110740862D01*
X114391153Y-110685920D01*
X114378483Y-110655333D01*
X114366769Y-110635043D01*
X114360704Y-110612411D01*
X114348036Y-110581826D01*
X114335148Y-110517032D01*
X114327919Y-110490053D01*
X114327919Y-110480688D01*
X114326058Y-110471332D01*
X114326058Y-110358667D01*
X114327919Y-110349310D01*
X114327919Y-110339947D01*
X114335147Y-110312970D01*
X114348036Y-110248173D01*
X114360705Y-110217585D01*
X114366769Y-110194957D01*
X114378482Y-110174669D01*
X114391153Y-110144079D01*
X114427868Y-110089130D01*
X114441822Y-110064962D01*
X114448437Y-110058346D01*
X114453739Y-110050412D01*
X114533412Y-109970739D01*
X114541346Y-109965437D01*
X114547962Y-109958822D01*
X114572130Y-109944868D01*
X114627079Y-109908153D01*
X114657669Y-109895482D01*
X114677957Y-109883769D01*
X114700585Y-109877705D01*
X114731173Y-109865036D01*
X114795970Y-109852147D01*
X114822947Y-109844919D01*
X114832311Y-109844919D01*
X114841667Y-109843058D01*
X114954333Y-109843058D01*
X114963689Y-109844919D01*
G37*
G36*
X116963689Y-109844919D02*
G01*
X116973053Y-109844919D01*
X117000030Y-109852147D01*
X117064826Y-109865036D01*
X117095411Y-109877704D01*
X117118043Y-109883769D01*
X117138333Y-109895483D01*
X117168920Y-109908153D01*
X117223862Y-109944863D01*
X117248038Y-109958822D01*
X117254655Y-109965439D01*
X117262587Y-109970739D01*
X117342260Y-110050412D01*
X117347559Y-110058343D01*
X117354178Y-110064962D01*
X117368138Y-110089141D01*
X117404846Y-110144079D01*
X117417514Y-110174663D01*
X117429231Y-110194957D01*
X117435296Y-110217592D01*
X117447963Y-110248173D01*
X117460851Y-110312964D01*
X117468081Y-110339947D01*
X117468081Y-110349311D01*
X117469942Y-110358667D01*
X117469942Y-110471332D01*
X117468081Y-110480687D01*
X117468081Y-110490053D01*
X117460850Y-110517038D01*
X117447963Y-110581826D01*
X117435296Y-110612404D01*
X117429231Y-110635043D01*
X117417512Y-110655339D01*
X117404846Y-110685920D01*
X117368142Y-110740851D01*
X117354178Y-110765038D01*
X117347557Y-110771658D01*
X117342260Y-110779587D01*
X117262587Y-110859260D01*
X117254658Y-110864557D01*
X117248038Y-110871178D01*
X117223851Y-110885142D01*
X117168920Y-110921846D01*
X117138339Y-110934512D01*
X117118043Y-110946231D01*
X117095404Y-110952296D01*
X117064826Y-110964963D01*
X117000036Y-110977850D01*
X116973053Y-110985081D01*
X116963689Y-110985081D01*
X116954333Y-110986942D01*
X116841667Y-110986942D01*
X116832311Y-110985081D01*
X116822947Y-110985081D01*
X116795964Y-110977851D01*
X116731173Y-110964963D01*
X116700592Y-110952296D01*
X116677957Y-110946231D01*
X116657663Y-110934514D01*
X116627079Y-110921846D01*
X116572141Y-110885138D01*
X116547962Y-110871178D01*
X116541343Y-110864559D01*
X116533412Y-110859260D01*
X116453739Y-110779587D01*
X116448439Y-110771655D01*
X116441822Y-110765038D01*
X116427863Y-110740862D01*
X116391153Y-110685920D01*
X116378483Y-110655333D01*
X116366769Y-110635043D01*
X116360704Y-110612411D01*
X116348036Y-110581826D01*
X116335148Y-110517032D01*
X116327919Y-110490053D01*
X116327919Y-110480688D01*
X116326058Y-110471332D01*
X116326058Y-110358667D01*
X116327919Y-110349310D01*
X116327919Y-110339947D01*
X116335147Y-110312970D01*
X116348036Y-110248173D01*
X116360705Y-110217585D01*
X116366769Y-110194957D01*
X116378482Y-110174669D01*
X116391153Y-110144079D01*
X116427868Y-110089130D01*
X116441822Y-110064962D01*
X116448437Y-110058346D01*
X116453739Y-110050412D01*
X116533412Y-109970739D01*
X116541346Y-109965437D01*
X116547962Y-109958822D01*
X116572130Y-109944868D01*
X116627079Y-109908153D01*
X116657669Y-109895482D01*
X116677957Y-109883769D01*
X116700585Y-109877705D01*
X116731173Y-109865036D01*
X116795970Y-109852147D01*
X116822947Y-109844919D01*
X116832311Y-109844919D01*
X116841667Y-109843058D01*
X116954333Y-109843058D01*
X116963689Y-109844919D01*
G37*
G36*
X124215714Y-108397295D02*
G01*
X124351548Y-108453559D01*
X124473795Y-108535242D01*
X124577758Y-108639205D01*
X124659441Y-108761452D01*
X124715705Y-108897286D01*
X124744389Y-109041487D01*
X124744389Y-109188513D01*
X124715705Y-109332714D01*
X124659441Y-109468548D01*
X124577758Y-109590795D01*
X124473795Y-109694758D01*
X124351548Y-109776441D01*
X124215714Y-109832705D01*
X124071513Y-109861389D01*
X123924487Y-109861389D01*
X123780286Y-109832705D01*
X123644452Y-109776441D01*
X123522205Y-109694758D01*
X123418242Y-109590795D01*
X123336559Y-109468548D01*
X123280295Y-109332714D01*
X123251611Y-109188513D01*
X123251611Y-109041487D01*
X123280295Y-108897286D01*
X123336559Y-108761452D01*
X123418242Y-108639205D01*
X123522205Y-108535242D01*
X123644452Y-108453559D01*
X123780286Y-108397295D01*
X123924487Y-108368611D01*
X124071513Y-108368611D01*
X124215714Y-108397295D01*
G37*
G36*
X114963689Y-107844919D02*
G01*
X114973053Y-107844919D01*
X115000030Y-107852147D01*
X115064826Y-107865036D01*
X115095411Y-107877704D01*
X115118043Y-107883769D01*
X115138333Y-107895483D01*
X115168920Y-107908153D01*
X115223862Y-107944863D01*
X115248038Y-107958822D01*
X115254655Y-107965439D01*
X115262587Y-107970739D01*
X115342260Y-108050412D01*
X115347559Y-108058343D01*
X115354178Y-108064962D01*
X115368138Y-108089141D01*
X115404846Y-108144079D01*
X115417514Y-108174663D01*
X115429231Y-108194957D01*
X115435296Y-108217592D01*
X115447963Y-108248173D01*
X115460851Y-108312964D01*
X115468081Y-108339947D01*
X115468081Y-108349311D01*
X115469942Y-108358667D01*
X115469942Y-108471332D01*
X115468081Y-108480687D01*
X115468081Y-108490053D01*
X115460850Y-108517038D01*
X115447963Y-108581826D01*
X115435296Y-108612404D01*
X115429231Y-108635043D01*
X115417512Y-108655339D01*
X115404846Y-108685920D01*
X115368142Y-108740851D01*
X115354178Y-108765038D01*
X115347557Y-108771658D01*
X115342260Y-108779587D01*
X115262587Y-108859260D01*
X115254658Y-108864557D01*
X115248038Y-108871178D01*
X115223851Y-108885142D01*
X115168920Y-108921846D01*
X115138339Y-108934512D01*
X115118043Y-108946231D01*
X115095404Y-108952296D01*
X115064826Y-108964963D01*
X115000036Y-108977850D01*
X114973053Y-108985081D01*
X114963689Y-108985081D01*
X114954333Y-108986942D01*
X114841667Y-108986942D01*
X114832311Y-108985081D01*
X114822947Y-108985081D01*
X114795964Y-108977851D01*
X114731173Y-108964963D01*
X114700592Y-108952296D01*
X114677957Y-108946231D01*
X114657663Y-108934514D01*
X114627079Y-108921846D01*
X114572141Y-108885138D01*
X114547962Y-108871178D01*
X114541343Y-108864559D01*
X114533412Y-108859260D01*
X114453739Y-108779587D01*
X114448439Y-108771655D01*
X114441822Y-108765038D01*
X114427863Y-108740862D01*
X114391153Y-108685920D01*
X114378483Y-108655333D01*
X114366769Y-108635043D01*
X114360704Y-108612411D01*
X114348036Y-108581826D01*
X114335148Y-108517032D01*
X114327919Y-108490053D01*
X114327919Y-108480688D01*
X114326058Y-108471332D01*
X114326058Y-108358667D01*
X114327919Y-108349310D01*
X114327919Y-108339947D01*
X114335147Y-108312970D01*
X114348036Y-108248173D01*
X114360705Y-108217585D01*
X114366769Y-108194957D01*
X114378482Y-108174669D01*
X114391153Y-108144079D01*
X114427868Y-108089130D01*
X114441822Y-108064962D01*
X114448437Y-108058346D01*
X114453739Y-108050412D01*
X114533412Y-107970739D01*
X114541346Y-107965437D01*
X114547962Y-107958822D01*
X114572130Y-107944868D01*
X114627079Y-107908153D01*
X114657669Y-107895482D01*
X114677957Y-107883769D01*
X114700585Y-107877705D01*
X114731173Y-107865036D01*
X114795970Y-107852147D01*
X114822947Y-107844919D01*
X114832311Y-107844919D01*
X114841667Y-107843058D01*
X114954333Y-107843058D01*
X114963689Y-107844919D01*
G37*
G36*
X116963689Y-107844919D02*
G01*
X116973053Y-107844919D01*
X117000030Y-107852147D01*
X117064826Y-107865036D01*
X117095411Y-107877704D01*
X117118043Y-107883769D01*
X117138333Y-107895483D01*
X117168920Y-107908153D01*
X117223862Y-107944863D01*
X117248038Y-107958822D01*
X117254655Y-107965439D01*
X117262587Y-107970739D01*
X117342260Y-108050412D01*
X117347559Y-108058343D01*
X117354178Y-108064962D01*
X117368138Y-108089141D01*
X117404846Y-108144079D01*
X117417514Y-108174663D01*
X117429231Y-108194957D01*
X117435296Y-108217592D01*
X117447963Y-108248173D01*
X117460851Y-108312964D01*
X117468081Y-108339947D01*
X117468081Y-108349311D01*
X117469942Y-108358667D01*
X117469942Y-108471332D01*
X117468081Y-108480687D01*
X117468081Y-108490053D01*
X117460850Y-108517038D01*
X117447963Y-108581826D01*
X117435296Y-108612404D01*
X117429231Y-108635043D01*
X117417512Y-108655339D01*
X117404846Y-108685920D01*
X117368142Y-108740851D01*
X117354178Y-108765038D01*
X117347557Y-108771658D01*
X117342260Y-108779587D01*
X117262587Y-108859260D01*
X117254658Y-108864557D01*
X117248038Y-108871178D01*
X117223851Y-108885142D01*
X117168920Y-108921846D01*
X117138339Y-108934512D01*
X117118043Y-108946231D01*
X117095404Y-108952296D01*
X117064826Y-108964963D01*
X117000036Y-108977850D01*
X116973053Y-108985081D01*
X116963689Y-108985081D01*
X116954333Y-108986942D01*
X116841667Y-108986942D01*
X116832311Y-108985081D01*
X116822947Y-108985081D01*
X116795964Y-108977851D01*
X116731173Y-108964963D01*
X116700592Y-108952296D01*
X116677957Y-108946231D01*
X116657663Y-108934514D01*
X116627079Y-108921846D01*
X116572141Y-108885138D01*
X116547962Y-108871178D01*
X116541343Y-108864559D01*
X116533412Y-108859260D01*
X116453739Y-108779587D01*
X116448439Y-108771655D01*
X116441822Y-108765038D01*
X116427863Y-108740862D01*
X116391153Y-108685920D01*
X116378483Y-108655333D01*
X116366769Y-108635043D01*
X116360704Y-108612411D01*
X116348036Y-108581826D01*
X116335148Y-108517032D01*
X116327919Y-108490053D01*
X116327919Y-108480688D01*
X116326058Y-108471332D01*
X116326058Y-108358667D01*
X116327919Y-108349310D01*
X116327919Y-108339947D01*
X116335147Y-108312970D01*
X116348036Y-108248173D01*
X116360705Y-108217585D01*
X116366769Y-108194957D01*
X116378482Y-108174669D01*
X116391153Y-108144079D01*
X116427868Y-108089130D01*
X116441822Y-108064962D01*
X116448437Y-108058346D01*
X116453739Y-108050412D01*
X116533412Y-107970739D01*
X116541346Y-107965437D01*
X116547962Y-107958822D01*
X116572130Y-107944868D01*
X116627079Y-107908153D01*
X116657669Y-107895482D01*
X116677957Y-107883769D01*
X116700585Y-107877705D01*
X116731173Y-107865036D01*
X116795970Y-107852147D01*
X116822947Y-107844919D01*
X116832311Y-107844919D01*
X116841667Y-107843058D01*
X116954333Y-107843058D01*
X116963689Y-107844919D01*
G37*
G36*
X164215714Y-105647295D02*
G01*
X164351548Y-105703559D01*
X164473795Y-105785242D01*
X164577758Y-105889205D01*
X164659441Y-106011452D01*
X164715705Y-106147286D01*
X164744389Y-106291487D01*
X164744389Y-106438513D01*
X164715705Y-106582714D01*
X164659441Y-106718548D01*
X164577758Y-106840795D01*
X164473795Y-106944758D01*
X164351548Y-107026441D01*
X164215714Y-107082705D01*
X164071513Y-107111389D01*
X163924487Y-107111389D01*
X163780286Y-107082705D01*
X163644452Y-107026441D01*
X163522205Y-106944758D01*
X163418242Y-106840795D01*
X163336559Y-106718548D01*
X163280295Y-106582714D01*
X163251611Y-106438513D01*
X163251611Y-106291487D01*
X163280295Y-106147286D01*
X163336559Y-106011452D01*
X163418242Y-105889205D01*
X163522205Y-105785242D01*
X163644452Y-105703559D01*
X163780286Y-105647295D01*
X163924487Y-105618611D01*
X164071513Y-105618611D01*
X164215714Y-105647295D01*
G37*
G36*
X114963689Y-105844919D02*
G01*
X114973053Y-105844919D01*
X115000030Y-105852147D01*
X115064826Y-105865036D01*
X115095411Y-105877704D01*
X115118043Y-105883769D01*
X115138333Y-105895483D01*
X115168920Y-105908153D01*
X115223862Y-105944863D01*
X115248038Y-105958822D01*
X115254655Y-105965439D01*
X115262587Y-105970739D01*
X115342260Y-106050412D01*
X115347559Y-106058343D01*
X115354178Y-106064962D01*
X115368138Y-106089141D01*
X115404846Y-106144079D01*
X115417514Y-106174663D01*
X115429231Y-106194957D01*
X115435296Y-106217592D01*
X115447963Y-106248173D01*
X115460851Y-106312964D01*
X115468081Y-106339947D01*
X115468081Y-106349311D01*
X115469942Y-106358667D01*
X115469942Y-106471332D01*
X115468081Y-106480687D01*
X115468081Y-106490053D01*
X115460850Y-106517038D01*
X115447963Y-106581826D01*
X115435296Y-106612404D01*
X115429231Y-106635043D01*
X115417512Y-106655339D01*
X115404846Y-106685920D01*
X115368142Y-106740851D01*
X115354178Y-106765038D01*
X115347557Y-106771658D01*
X115342260Y-106779587D01*
X115262587Y-106859260D01*
X115254658Y-106864557D01*
X115248038Y-106871178D01*
X115223851Y-106885142D01*
X115168920Y-106921846D01*
X115138339Y-106934512D01*
X115118043Y-106946231D01*
X115095404Y-106952296D01*
X115064826Y-106964963D01*
X115000036Y-106977850D01*
X114973053Y-106985081D01*
X114963689Y-106985081D01*
X114954333Y-106986942D01*
X114841667Y-106986942D01*
X114832311Y-106985081D01*
X114822947Y-106985081D01*
X114795964Y-106977851D01*
X114731173Y-106964963D01*
X114700592Y-106952296D01*
X114677957Y-106946231D01*
X114657663Y-106934514D01*
X114627079Y-106921846D01*
X114572141Y-106885138D01*
X114547962Y-106871178D01*
X114541343Y-106864559D01*
X114533412Y-106859260D01*
X114453739Y-106779587D01*
X114448439Y-106771655D01*
X114441822Y-106765038D01*
X114427863Y-106740862D01*
X114391153Y-106685920D01*
X114378483Y-106655333D01*
X114366769Y-106635043D01*
X114360704Y-106612411D01*
X114348036Y-106581826D01*
X114335148Y-106517032D01*
X114327919Y-106490053D01*
X114327919Y-106480688D01*
X114326058Y-106471332D01*
X114326058Y-106358667D01*
X114327919Y-106349310D01*
X114327919Y-106339947D01*
X114335147Y-106312970D01*
X114348036Y-106248173D01*
X114360705Y-106217585D01*
X114366769Y-106194957D01*
X114378482Y-106174669D01*
X114391153Y-106144079D01*
X114427868Y-106089130D01*
X114441822Y-106064962D01*
X114448437Y-106058346D01*
X114453739Y-106050412D01*
X114533412Y-105970739D01*
X114541346Y-105965437D01*
X114547962Y-105958822D01*
X114572130Y-105944868D01*
X114627079Y-105908153D01*
X114657669Y-105895482D01*
X114677957Y-105883769D01*
X114700585Y-105877705D01*
X114731173Y-105865036D01*
X114795970Y-105852147D01*
X114822947Y-105844919D01*
X114832311Y-105844919D01*
X114841667Y-105843058D01*
X114954333Y-105843058D01*
X114963689Y-105844919D01*
G37*
G36*
X116963689Y-105844919D02*
G01*
X116973053Y-105844919D01*
X117000030Y-105852147D01*
X117064826Y-105865036D01*
X117095411Y-105877704D01*
X117118043Y-105883769D01*
X117138333Y-105895483D01*
X117168920Y-105908153D01*
X117223862Y-105944863D01*
X117248038Y-105958822D01*
X117254655Y-105965439D01*
X117262587Y-105970739D01*
X117342260Y-106050412D01*
X117347559Y-106058343D01*
X117354178Y-106064962D01*
X117368138Y-106089141D01*
X117404846Y-106144079D01*
X117417514Y-106174663D01*
X117429231Y-106194957D01*
X117435296Y-106217592D01*
X117447963Y-106248173D01*
X117460851Y-106312964D01*
X117468081Y-106339947D01*
X117468081Y-106349311D01*
X117469942Y-106358667D01*
X117469942Y-106471332D01*
X117468081Y-106480687D01*
X117468081Y-106490053D01*
X117460850Y-106517038D01*
X117447963Y-106581826D01*
X117435296Y-106612404D01*
X117429231Y-106635043D01*
X117417512Y-106655339D01*
X117404846Y-106685920D01*
X117368142Y-106740851D01*
X117354178Y-106765038D01*
X117347557Y-106771658D01*
X117342260Y-106779587D01*
X117262587Y-106859260D01*
X117254658Y-106864557D01*
X117248038Y-106871178D01*
X117223851Y-106885142D01*
X117168920Y-106921846D01*
X117138339Y-106934512D01*
X117118043Y-106946231D01*
X117095404Y-106952296D01*
X117064826Y-106964963D01*
X117000036Y-106977850D01*
X116973053Y-106985081D01*
X116963689Y-106985081D01*
X116954333Y-106986942D01*
X116841667Y-106986942D01*
X116832311Y-106985081D01*
X116822947Y-106985081D01*
X116795964Y-106977851D01*
X116731173Y-106964963D01*
X116700592Y-106952296D01*
X116677957Y-106946231D01*
X116657663Y-106934514D01*
X116627079Y-106921846D01*
X116572141Y-106885138D01*
X116547962Y-106871178D01*
X116541343Y-106864559D01*
X116533412Y-106859260D01*
X116453739Y-106779587D01*
X116448439Y-106771655D01*
X116441822Y-106765038D01*
X116427863Y-106740862D01*
X116391153Y-106685920D01*
X116378483Y-106655333D01*
X116366769Y-106635043D01*
X116360704Y-106612411D01*
X116348036Y-106581826D01*
X116335148Y-106517032D01*
X116327919Y-106490053D01*
X116327919Y-106480688D01*
X116326058Y-106471332D01*
X116326058Y-106358667D01*
X116327919Y-106349310D01*
X116327919Y-106339947D01*
X116335147Y-106312970D01*
X116348036Y-106248173D01*
X116360705Y-106217585D01*
X116366769Y-106194957D01*
X116378482Y-106174669D01*
X116391153Y-106144079D01*
X116427868Y-106089130D01*
X116441822Y-106064962D01*
X116448437Y-106058346D01*
X116453739Y-106050412D01*
X116533412Y-105970739D01*
X116541346Y-105965437D01*
X116547962Y-105958822D01*
X116572130Y-105944868D01*
X116627079Y-105908153D01*
X116657669Y-105895482D01*
X116677957Y-105883769D01*
X116700585Y-105877705D01*
X116731173Y-105865036D01*
X116795970Y-105852147D01*
X116822947Y-105844919D01*
X116832311Y-105844919D01*
X116841667Y-105843058D01*
X116954333Y-105843058D01*
X116963689Y-105844919D01*
G37*
G36*
X157715714Y-105397295D02*
G01*
X157851548Y-105453559D01*
X157973795Y-105535242D01*
X158077758Y-105639205D01*
X158159441Y-105761452D01*
X158215705Y-105897286D01*
X158244389Y-106041487D01*
X158244389Y-106188513D01*
X158215705Y-106332714D01*
X158159441Y-106468548D01*
X158077758Y-106590795D01*
X157973795Y-106694758D01*
X157851548Y-106776441D01*
X157715714Y-106832705D01*
X157571513Y-106861389D01*
X157424487Y-106861389D01*
X157280286Y-106832705D01*
X157144452Y-106776441D01*
X157022205Y-106694758D01*
X156918242Y-106590795D01*
X156836559Y-106468548D01*
X156780295Y-106332714D01*
X156751611Y-106188513D01*
X156751611Y-106041487D01*
X156780295Y-105897286D01*
X156836559Y-105761452D01*
X156918242Y-105639205D01*
X157022205Y-105535242D01*
X157144452Y-105453559D01*
X157280286Y-105397295D01*
X157424487Y-105368611D01*
X157571513Y-105368611D01*
X157715714Y-105397295D01*
G37*
G36*
X114963689Y-103844919D02*
G01*
X114973053Y-103844919D01*
X115000030Y-103852147D01*
X115064826Y-103865036D01*
X115095411Y-103877704D01*
X115118043Y-103883769D01*
X115138333Y-103895483D01*
X115168920Y-103908153D01*
X115223862Y-103944863D01*
X115248038Y-103958822D01*
X115254655Y-103965439D01*
X115262587Y-103970739D01*
X115342260Y-104050412D01*
X115347559Y-104058343D01*
X115354178Y-104064962D01*
X115368138Y-104089141D01*
X115404846Y-104144079D01*
X115417514Y-104174663D01*
X115429231Y-104194957D01*
X115435296Y-104217592D01*
X115447963Y-104248173D01*
X115460851Y-104312964D01*
X115468081Y-104339947D01*
X115468081Y-104349311D01*
X115469942Y-104358667D01*
X115469942Y-104471332D01*
X115468081Y-104480687D01*
X115468081Y-104490053D01*
X115460850Y-104517038D01*
X115447963Y-104581826D01*
X115435296Y-104612404D01*
X115429231Y-104635043D01*
X115417512Y-104655339D01*
X115404846Y-104685920D01*
X115368142Y-104740851D01*
X115354178Y-104765038D01*
X115347557Y-104771658D01*
X115342260Y-104779587D01*
X115262587Y-104859260D01*
X115254658Y-104864557D01*
X115248038Y-104871178D01*
X115223851Y-104885142D01*
X115168920Y-104921846D01*
X115138339Y-104934512D01*
X115118043Y-104946231D01*
X115095404Y-104952296D01*
X115064826Y-104964963D01*
X115000036Y-104977850D01*
X114973053Y-104985081D01*
X114963689Y-104985081D01*
X114954333Y-104986942D01*
X114841667Y-104986942D01*
X114832311Y-104985081D01*
X114822947Y-104985081D01*
X114795964Y-104977851D01*
X114731173Y-104964963D01*
X114700592Y-104952296D01*
X114677957Y-104946231D01*
X114657663Y-104934514D01*
X114627079Y-104921846D01*
X114572141Y-104885138D01*
X114547962Y-104871178D01*
X114541343Y-104864559D01*
X114533412Y-104859260D01*
X114453739Y-104779587D01*
X114448439Y-104771655D01*
X114441822Y-104765038D01*
X114427863Y-104740862D01*
X114391153Y-104685920D01*
X114378483Y-104655333D01*
X114366769Y-104635043D01*
X114360704Y-104612411D01*
X114348036Y-104581826D01*
X114335148Y-104517032D01*
X114327919Y-104490053D01*
X114327919Y-104480688D01*
X114326058Y-104471332D01*
X114326058Y-104358667D01*
X114327919Y-104349310D01*
X114327919Y-104339947D01*
X114335147Y-104312970D01*
X114348036Y-104248173D01*
X114360705Y-104217585D01*
X114366769Y-104194957D01*
X114378482Y-104174669D01*
X114391153Y-104144079D01*
X114427868Y-104089130D01*
X114441822Y-104064962D01*
X114448437Y-104058346D01*
X114453739Y-104050412D01*
X114533412Y-103970739D01*
X114541346Y-103965437D01*
X114547962Y-103958822D01*
X114572130Y-103944868D01*
X114627079Y-103908153D01*
X114657669Y-103895482D01*
X114677957Y-103883769D01*
X114700585Y-103877705D01*
X114731173Y-103865036D01*
X114795970Y-103852147D01*
X114822947Y-103844919D01*
X114832311Y-103844919D01*
X114841667Y-103843058D01*
X114954333Y-103843058D01*
X114963689Y-103844919D01*
G37*
G36*
X116963689Y-103844919D02*
G01*
X116973053Y-103844919D01*
X117000030Y-103852147D01*
X117064826Y-103865036D01*
X117095411Y-103877704D01*
X117118043Y-103883769D01*
X117138333Y-103895483D01*
X117168920Y-103908153D01*
X117223862Y-103944863D01*
X117248038Y-103958822D01*
X117254655Y-103965439D01*
X117262587Y-103970739D01*
X117342260Y-104050412D01*
X117347559Y-104058343D01*
X117354178Y-104064962D01*
X117368138Y-104089141D01*
X117404846Y-104144079D01*
X117417514Y-104174663D01*
X117429231Y-104194957D01*
X117435296Y-104217592D01*
X117447963Y-104248173D01*
X117460851Y-104312964D01*
X117468081Y-104339947D01*
X117468081Y-104349311D01*
X117469942Y-104358667D01*
X117469942Y-104471332D01*
X117468081Y-104480687D01*
X117468081Y-104490053D01*
X117460850Y-104517038D01*
X117447963Y-104581826D01*
X117435296Y-104612404D01*
X117429231Y-104635043D01*
X117417512Y-104655339D01*
X117404846Y-104685920D01*
X117368142Y-104740851D01*
X117354178Y-104765038D01*
X117347557Y-104771658D01*
X117342260Y-104779587D01*
X117262587Y-104859260D01*
X117254658Y-104864557D01*
X117248038Y-104871178D01*
X117223851Y-104885142D01*
X117168920Y-104921846D01*
X117138339Y-104934512D01*
X117118043Y-104946231D01*
X117095404Y-104952296D01*
X117064826Y-104964963D01*
X117000036Y-104977850D01*
X116973053Y-104985081D01*
X116963689Y-104985081D01*
X116954333Y-104986942D01*
X116841667Y-104986942D01*
X116832311Y-104985081D01*
X116822947Y-104985081D01*
X116795964Y-104977851D01*
X116731173Y-104964963D01*
X116700592Y-104952296D01*
X116677957Y-104946231D01*
X116657663Y-104934514D01*
X116627079Y-104921846D01*
X116572141Y-104885138D01*
X116547962Y-104871178D01*
X116541343Y-104864559D01*
X116533412Y-104859260D01*
X116453739Y-104779587D01*
X116448439Y-104771655D01*
X116441822Y-104765038D01*
X116427863Y-104740862D01*
X116391153Y-104685920D01*
X116378483Y-104655333D01*
X116366769Y-104635043D01*
X116360704Y-104612411D01*
X116348036Y-104581826D01*
X116335148Y-104517032D01*
X116327919Y-104490053D01*
X116327919Y-104480688D01*
X116326058Y-104471332D01*
X116326058Y-104358667D01*
X116327919Y-104349310D01*
X116327919Y-104339947D01*
X116335147Y-104312970D01*
X116348036Y-104248173D01*
X116360705Y-104217585D01*
X116366769Y-104194957D01*
X116378482Y-104174669D01*
X116391153Y-104144079D01*
X116427868Y-104089130D01*
X116441822Y-104064962D01*
X116448437Y-104058346D01*
X116453739Y-104050412D01*
X116533412Y-103970739D01*
X116541346Y-103965437D01*
X116547962Y-103958822D01*
X116572130Y-103944868D01*
X116627079Y-103908153D01*
X116657669Y-103895482D01*
X116677957Y-103883769D01*
X116700585Y-103877705D01*
X116731173Y-103865036D01*
X116795970Y-103852147D01*
X116822947Y-103844919D01*
X116832311Y-103844919D01*
X116841667Y-103843058D01*
X116954333Y-103843058D01*
X116963689Y-103844919D01*
G37*
G36*
X174781028Y-101341983D02*
G01*
X174957612Y-101415127D01*
X175116533Y-101521315D01*
X175251685Y-101656467D01*
X175357873Y-101815388D01*
X175431017Y-101991972D01*
X175468305Y-102179433D01*
X175468305Y-102370567D01*
X175431017Y-102558028D01*
X175357873Y-102734612D01*
X175251685Y-102893533D01*
X175116533Y-103028685D01*
X174957612Y-103134873D01*
X174781028Y-103208017D01*
X174593567Y-103245305D01*
X174402433Y-103245305D01*
X174214972Y-103208017D01*
X174038388Y-103134873D01*
X173879467Y-103028685D01*
X173744315Y-102893533D01*
X173638127Y-102734612D01*
X173564983Y-102558028D01*
X173527695Y-102370567D01*
X173527695Y-102179433D01*
X173564983Y-101991972D01*
X173638127Y-101815388D01*
X173744315Y-101656467D01*
X173879467Y-101521315D01*
X174038388Y-101415127D01*
X174214972Y-101341983D01*
X174402433Y-101304695D01*
X174593567Y-101304695D01*
X174781028Y-101341983D01*
G37*
G36*
X116263794Y-99076028D02*
G01*
X116500699Y-99139506D01*
X116727291Y-99233364D01*
X116939694Y-99355994D01*
X117134273Y-99505300D01*
X117307700Y-99678727D01*
X117457006Y-99873306D01*
X117579636Y-100085709D01*
X117673494Y-100312301D01*
X117736972Y-100549206D01*
X117768985Y-100792369D01*
X117768985Y-101037631D01*
X117736972Y-101280794D01*
X117673494Y-101517699D01*
X117579636Y-101744291D01*
X117457006Y-101956694D01*
X117307700Y-102151273D01*
X117134273Y-102324700D01*
X116939694Y-102474006D01*
X116727291Y-102596636D01*
X116500699Y-102690494D01*
X116263794Y-102753972D01*
X116020631Y-102785985D01*
X115775369Y-102785985D01*
X115532206Y-102753972D01*
X115295301Y-102690494D01*
X115068709Y-102596636D01*
X114856306Y-102474006D01*
X114661727Y-102324700D01*
X114488300Y-102151273D01*
X114338994Y-101956694D01*
X114216364Y-101744291D01*
X114122506Y-101517699D01*
X114059028Y-101280794D01*
X114027015Y-101037631D01*
X114027015Y-100792369D01*
X114059028Y-100549206D01*
X114122506Y-100312301D01*
X114216364Y-100085709D01*
X114338994Y-99873306D01*
X114488300Y-99678727D01*
X114661727Y-99505300D01*
X114856306Y-99355994D01*
X115068709Y-99233364D01*
X115295301Y-99139506D01*
X115532206Y-99076028D01*
X115775369Y-99044015D01*
X116020631Y-99044015D01*
X116263794Y-99076028D01*
G37*
G36*
X175473000Y-95690000D02*
G01*
X173523000Y-95690000D01*
X173523000Y-93740000D01*
X175473000Y-93740000D01*
X175473000Y-95690000D01*
G37*
G36*
X150215714Y-93897295D02*
G01*
X150351548Y-93953559D01*
X150473795Y-94035242D01*
X150577758Y-94139205D01*
X150659441Y-94261452D01*
X150715705Y-94397286D01*
X150744389Y-94541487D01*
X150744389Y-94688513D01*
X150715705Y-94832714D01*
X150659441Y-94968548D01*
X150577758Y-95090795D01*
X150473795Y-95194758D01*
X150351548Y-95276441D01*
X150215714Y-95332705D01*
X150071513Y-95361389D01*
X149924487Y-95361389D01*
X149780286Y-95332705D01*
X149644452Y-95276441D01*
X149522205Y-95194758D01*
X149418242Y-95090795D01*
X149336559Y-94968548D01*
X149280295Y-94832714D01*
X149251611Y-94688513D01*
X149251611Y-94541487D01*
X149280295Y-94397286D01*
X149336559Y-94261452D01*
X149418242Y-94139205D01*
X149522205Y-94035242D01*
X149644452Y-93953559D01*
X149780286Y-93897295D01*
X149924487Y-93868611D01*
X150071513Y-93868611D01*
X150215714Y-93897295D01*
G37*
G36*
X177434424Y-88812044D02*
G01*
X177691165Y-88880838D01*
X177936731Y-88982555D01*
X178166919Y-89115454D01*
X178377791Y-89277262D01*
X178565738Y-89465209D01*
X178727546Y-89676081D01*
X178860445Y-89906269D01*
X178962162Y-90151835D01*
X179030956Y-90408576D01*
X179065649Y-90672101D01*
X179065649Y-90937899D01*
X179030956Y-91201424D01*
X178962162Y-91458165D01*
X178860445Y-91703731D01*
X178727546Y-91933919D01*
X178565738Y-92144791D01*
X178377791Y-92332738D01*
X178166919Y-92494546D01*
X177936731Y-92627445D01*
X177691165Y-92729162D01*
X177434424Y-92797956D01*
X177170899Y-92832649D01*
X176905101Y-92832649D01*
X176641576Y-92797956D01*
X176384835Y-92729162D01*
X176139269Y-92627445D01*
X175909081Y-92494546D01*
X175698209Y-92332738D01*
X175510262Y-92144791D01*
X175348454Y-91933919D01*
X175215555Y-91703731D01*
X175113838Y-91458165D01*
X175045044Y-91201424D01*
X175010351Y-90937899D01*
X175010351Y-90672101D01*
X175045044Y-90408576D01*
X175113838Y-90151835D01*
X175215555Y-89906269D01*
X175348454Y-89676081D01*
X175510262Y-89465209D01*
X175698209Y-89277262D01*
X175909081Y-89115454D01*
X176139269Y-88982555D01*
X176384835Y-88880838D01*
X176641576Y-88812044D01*
X176905101Y-88777351D01*
X177170899Y-88777351D01*
X177434424Y-88812044D01*
G37*
G36*
X127215714Y-91147295D02*
G01*
X127351548Y-91203559D01*
X127473795Y-91285242D01*
X127577758Y-91389205D01*
X127659441Y-91511452D01*
X127715705Y-91647286D01*
X127744389Y-91791487D01*
X127744389Y-91938513D01*
X127715705Y-92082714D01*
X127659441Y-92218548D01*
X127577758Y-92340795D01*
X127473795Y-92444758D01*
X127351548Y-92526441D01*
X127215714Y-92582705D01*
X127071513Y-92611389D01*
X126924487Y-92611389D01*
X126780286Y-92582705D01*
X126644452Y-92526441D01*
X126522205Y-92444758D01*
X126418242Y-92340795D01*
X126336559Y-92218548D01*
X126280295Y-92082714D01*
X126251611Y-91938513D01*
X126251611Y-91791487D01*
X126280295Y-91647286D01*
X126336559Y-91511452D01*
X126418242Y-91389205D01*
X126522205Y-91285242D01*
X126644452Y-91203559D01*
X126780286Y-91147295D01*
X126924487Y-91118611D01*
X127071513Y-91118611D01*
X127215714Y-91147295D01*
G37*
G36*
X126965714Y-84397295D02*
G01*
X127101548Y-84453559D01*
X127223795Y-84535242D01*
X127327758Y-84639205D01*
X127409441Y-84761452D01*
X127465705Y-84897286D01*
X127494389Y-85041487D01*
X127494389Y-85188513D01*
X127465705Y-85332714D01*
X127409441Y-85468548D01*
X127327758Y-85590795D01*
X127223795Y-85694758D01*
X127101548Y-85776441D01*
X126965714Y-85832705D01*
X126821513Y-85861389D01*
X126674487Y-85861389D01*
X126530286Y-85832705D01*
X126394452Y-85776441D01*
X126272205Y-85694758D01*
X126168242Y-85590795D01*
X126086559Y-85468548D01*
X126030295Y-85332714D01*
X126001611Y-85188513D01*
X126001611Y-85041487D01*
X126030295Y-84897286D01*
X126086559Y-84761452D01*
X126168242Y-84639205D01*
X126272205Y-84535242D01*
X126394452Y-84453559D01*
X126530286Y-84397295D01*
X126674487Y-84368611D01*
X126821513Y-84368611D01*
X126965714Y-84397295D01*
G37*
G36*
X166965714Y-80897295D02*
G01*
X167101548Y-80953559D01*
X167223795Y-81035242D01*
X167327758Y-81139205D01*
X167409441Y-81261452D01*
X167465705Y-81397286D01*
X167494389Y-81541487D01*
X167494389Y-81688513D01*
X167465705Y-81832714D01*
X167409441Y-81968548D01*
X167327758Y-82090795D01*
X167223795Y-82194758D01*
X167101548Y-82276441D01*
X166965714Y-82332705D01*
X166821513Y-82361389D01*
X166674487Y-82361389D01*
X166530286Y-82332705D01*
X166394452Y-82276441D01*
X166272205Y-82194758D01*
X166168242Y-82090795D01*
X166086559Y-81968548D01*
X166030295Y-81832714D01*
X166001611Y-81688513D01*
X166001611Y-81541487D01*
X166030295Y-81397286D01*
X166086559Y-81261452D01*
X166168242Y-81139205D01*
X166272205Y-81035242D01*
X166394452Y-80953559D01*
X166530286Y-80897295D01*
X166674487Y-80868611D01*
X166821513Y-80868611D01*
X166965714Y-80897295D01*
G37*
G36*
X161465714Y-80147295D02*
G01*
X161601548Y-80203559D01*
X161723795Y-80285242D01*
X161827758Y-80389205D01*
X161909441Y-80511452D01*
X161965705Y-80647286D01*
X161994389Y-80791487D01*
X161994389Y-80938513D01*
X161965705Y-81082714D01*
X161909441Y-81218548D01*
X161827758Y-81340795D01*
X161723795Y-81444758D01*
X161601548Y-81526441D01*
X161465714Y-81582705D01*
X161321513Y-81611389D01*
X161174487Y-81611389D01*
X161030286Y-81582705D01*
X160894452Y-81526441D01*
X160772205Y-81444758D01*
X160668242Y-81340795D01*
X160586559Y-81218548D01*
X160530295Y-81082714D01*
X160501611Y-80938513D01*
X160501611Y-80791487D01*
X160530295Y-80647286D01*
X160586559Y-80511452D01*
X160668242Y-80389205D01*
X160772205Y-80285242D01*
X160894452Y-80203559D01*
X161030286Y-80147295D01*
X161174487Y-80118611D01*
X161321513Y-80118611D01*
X161465714Y-80147295D01*
G37*
G36*
X157715714Y-79147295D02*
G01*
X157851548Y-79203559D01*
X157973795Y-79285242D01*
X158077758Y-79389205D01*
X158159441Y-79511452D01*
X158215705Y-79647286D01*
X158244389Y-79791487D01*
X158244389Y-79938513D01*
X158215705Y-80082714D01*
X158159441Y-80218548D01*
X158077758Y-80340795D01*
X157973795Y-80444758D01*
X157851548Y-80526441D01*
X157715714Y-80582705D01*
X157571513Y-80611389D01*
X157424487Y-80611389D01*
X157280286Y-80582705D01*
X157144452Y-80526441D01*
X157022205Y-80444758D01*
X156918242Y-80340795D01*
X156836559Y-80218548D01*
X156780295Y-80082714D01*
X156751611Y-79938513D01*
X156751611Y-79791487D01*
X156780295Y-79647286D01*
X156836559Y-79511452D01*
X156918242Y-79389205D01*
X157022205Y-79285242D01*
X157144452Y-79203559D01*
X157280286Y-79147295D01*
X157424487Y-79118611D01*
X157571513Y-79118611D01*
X157715714Y-79147295D01*
G37*
G36*
X116465714Y-78147295D02*
G01*
X116601548Y-78203559D01*
X116723795Y-78285242D01*
X116827758Y-78389205D01*
X116909441Y-78511452D01*
X116965705Y-78647286D01*
X116994389Y-78791487D01*
X116994389Y-78938513D01*
X116965705Y-79082714D01*
X116909441Y-79218548D01*
X116827758Y-79340795D01*
X116723795Y-79444758D01*
X116601548Y-79526441D01*
X116465714Y-79582705D01*
X116321513Y-79611389D01*
X116174487Y-79611389D01*
X116030286Y-79582705D01*
X115894452Y-79526441D01*
X115772205Y-79444758D01*
X115668242Y-79340795D01*
X115586559Y-79218548D01*
X115530295Y-79082714D01*
X115501611Y-78938513D01*
X115501611Y-78791487D01*
X115530295Y-78647286D01*
X115586559Y-78511452D01*
X115668242Y-78389205D01*
X115772205Y-78285242D01*
X115894452Y-78203559D01*
X116030286Y-78147295D01*
X116174487Y-78118611D01*
X116321513Y-78118611D01*
X116465714Y-78147295D01*
G37*
G36*
X165715714Y-77897295D02*
G01*
X165851548Y-77953559D01*
X165973795Y-78035242D01*
X166077758Y-78139205D01*
X166159441Y-78261452D01*
X166215705Y-78397286D01*
X166244389Y-78541487D01*
X166244389Y-78688513D01*
X166215705Y-78832714D01*
X166159441Y-78968548D01*
X166077758Y-79090795D01*
X165973795Y-79194758D01*
X165851548Y-79276441D01*
X165715714Y-79332705D01*
X165571513Y-79361389D01*
X165424487Y-79361389D01*
X165280286Y-79332705D01*
X165144452Y-79276441D01*
X165022205Y-79194758D01*
X164918242Y-79090795D01*
X164836559Y-78968548D01*
X164780295Y-78832714D01*
X164751611Y-78688513D01*
X164751611Y-78541487D01*
X164780295Y-78397286D01*
X164836559Y-78261452D01*
X164918242Y-78139205D01*
X165022205Y-78035242D01*
X165144452Y-77953559D01*
X165280286Y-77897295D01*
X165424487Y-77868611D01*
X165571513Y-77868611D01*
X165715714Y-77897295D01*
G37*
G36*
X169465714Y-77397295D02*
G01*
X169601548Y-77453559D01*
X169723795Y-77535242D01*
X169827758Y-77639205D01*
X169909441Y-77761452D01*
X169965705Y-77897286D01*
X169994389Y-78041487D01*
X169994389Y-78188513D01*
X169965705Y-78332714D01*
X169909441Y-78468548D01*
X169827758Y-78590795D01*
X169723795Y-78694758D01*
X169601548Y-78776441D01*
X169465714Y-78832705D01*
X169321513Y-78861389D01*
X169174487Y-78861389D01*
X169030286Y-78832705D01*
X168894452Y-78776441D01*
X168772205Y-78694758D01*
X168668242Y-78590795D01*
X168586559Y-78468548D01*
X168530295Y-78332714D01*
X168501611Y-78188513D01*
X168501611Y-78041487D01*
X168530295Y-77897286D01*
X168586559Y-77761452D01*
X168668242Y-77639205D01*
X168772205Y-77535242D01*
X168894452Y-77453559D01*
X169030286Y-77397295D01*
X169174487Y-77368611D01*
X169321513Y-77368611D01*
X169465714Y-77397295D01*
G37*
G36*
X126634424Y-73572044D02*
G01*
X126891165Y-73640838D01*
X127136731Y-73742555D01*
X127366919Y-73875454D01*
X127577791Y-74037262D01*
X127765738Y-74225209D01*
X127927546Y-74436081D01*
X128060445Y-74666269D01*
X128162162Y-74911835D01*
X128230956Y-75168576D01*
X128265649Y-75432101D01*
X128265649Y-75697899D01*
X128230956Y-75961424D01*
X128162162Y-76218165D01*
X128060445Y-76463731D01*
X127927546Y-76693919D01*
X127765738Y-76904791D01*
X127577791Y-77092738D01*
X127366919Y-77254546D01*
X127136731Y-77387445D01*
X126891165Y-77489162D01*
X126634424Y-77557956D01*
X126370899Y-77592649D01*
X126105101Y-77592649D01*
X125841576Y-77557956D01*
X125584835Y-77489162D01*
X125339269Y-77387445D01*
X125109081Y-77254546D01*
X124898209Y-77092738D01*
X124710262Y-76904791D01*
X124548454Y-76693919D01*
X124415555Y-76463731D01*
X124313838Y-76218165D01*
X124245044Y-75961424D01*
X124210351Y-75697899D01*
X124210351Y-75432101D01*
X124245044Y-75168576D01*
X124313838Y-74911835D01*
X124415555Y-74666269D01*
X124548454Y-74436081D01*
X124710262Y-74225209D01*
X124898209Y-74037262D01*
X125109081Y-73875454D01*
X125339269Y-73742555D01*
X125584835Y-73640838D01*
X125841576Y-73572044D01*
X126105101Y-73537351D01*
X126370899Y-73537351D01*
X126634424Y-73572044D01*
G37*
G36*
X130044690Y-74586186D02*
G01*
X130201098Y-74650973D01*
X130341862Y-74745028D01*
X130461572Y-74864738D01*
X130555627Y-75005502D01*
X130620414Y-75161910D01*
X130653442Y-75327952D01*
X130657600Y-75412600D01*
X130657600Y-75717400D01*
X130653442Y-75802048D01*
X130620414Y-75968090D01*
X130555627Y-76124498D01*
X130461572Y-76265262D01*
X130341862Y-76384972D01*
X130201098Y-76479027D01*
X130044690Y-76543814D01*
X129878648Y-76576842D01*
X129709352Y-76576842D01*
X129543310Y-76543814D01*
X129386902Y-76479027D01*
X129246138Y-76384972D01*
X129126428Y-76265262D01*
X129032373Y-76124498D01*
X128967586Y-75968090D01*
X128934558Y-75802048D01*
X128930400Y-75717400D01*
X128930400Y-75412600D01*
X128934558Y-75327952D01*
X128967586Y-75161910D01*
X129032373Y-75005502D01*
X129126428Y-74864738D01*
X129246138Y-74745028D01*
X129386902Y-74650973D01*
X129543310Y-74586186D01*
X129709352Y-74553158D01*
X129878648Y-74553158D01*
X130044690Y-74586186D01*
G37*
G36*
X132584690Y-74586186D02*
G01*
X132741098Y-74650973D01*
X132881862Y-74745028D01*
X133001572Y-74864738D01*
X133095627Y-75005502D01*
X133160414Y-75161910D01*
X133193442Y-75327952D01*
X133197600Y-75412600D01*
X133197600Y-75717400D01*
X133193442Y-75802048D01*
X133160414Y-75968090D01*
X133095627Y-76124498D01*
X133001572Y-76265262D01*
X132881862Y-76384972D01*
X132741098Y-76479027D01*
X132584690Y-76543814D01*
X132418648Y-76576842D01*
X132249352Y-76576842D01*
X132083310Y-76543814D01*
X131926902Y-76479027D01*
X131786138Y-76384972D01*
X131666428Y-76265262D01*
X131572373Y-76124498D01*
X131507586Y-75968090D01*
X131474558Y-75802048D01*
X131470400Y-75717400D01*
X131470400Y-75412600D01*
X131474558Y-75327952D01*
X131507586Y-75161910D01*
X131572373Y-75005502D01*
X131666428Y-74864738D01*
X131786138Y-74745028D01*
X131926902Y-74650973D01*
X132083310Y-74586186D01*
X132249352Y-74553158D01*
X132418648Y-74553158D01*
X132584690Y-74586186D01*
G37*
G36*
X135124690Y-74586186D02*
G01*
X135281098Y-74650973D01*
X135421862Y-74745028D01*
X135541572Y-74864738D01*
X135635627Y-75005502D01*
X135700414Y-75161910D01*
X135733442Y-75327952D01*
X135737600Y-75412600D01*
X135737600Y-75717400D01*
X135733442Y-75802048D01*
X135700414Y-75968090D01*
X135635627Y-76124498D01*
X135541572Y-76265262D01*
X135421862Y-76384972D01*
X135281098Y-76479027D01*
X135124690Y-76543814D01*
X134958648Y-76576842D01*
X134789352Y-76576842D01*
X134623310Y-76543814D01*
X134466902Y-76479027D01*
X134326138Y-76384972D01*
X134206428Y-76265262D01*
X134112373Y-76124498D01*
X134047586Y-75968090D01*
X134014558Y-75802048D01*
X134010400Y-75717400D01*
X134010400Y-75412600D01*
X134014558Y-75327952D01*
X134047586Y-75161910D01*
X134112373Y-75005502D01*
X134206428Y-74864738D01*
X134326138Y-74745028D01*
X134466902Y-74650973D01*
X134623310Y-74586186D01*
X134789352Y-74553158D01*
X134958648Y-74553158D01*
X135124690Y-74586186D01*
G37*
G36*
X137664690Y-74586186D02*
G01*
X137821098Y-74650973D01*
X137961862Y-74745028D01*
X138081572Y-74864738D01*
X138175627Y-75005502D01*
X138240414Y-75161910D01*
X138273442Y-75327952D01*
X138277600Y-75412600D01*
X138277600Y-75717400D01*
X138273442Y-75802048D01*
X138240414Y-75968090D01*
X138175627Y-76124498D01*
X138081572Y-76265262D01*
X137961862Y-76384972D01*
X137821098Y-76479027D01*
X137664690Y-76543814D01*
X137498648Y-76576842D01*
X137329352Y-76576842D01*
X137163310Y-76543814D01*
X137006902Y-76479027D01*
X136866138Y-76384972D01*
X136746428Y-76265262D01*
X136652373Y-76124498D01*
X136587586Y-75968090D01*
X136554558Y-75802048D01*
X136550400Y-75717400D01*
X136550400Y-75412600D01*
X136554558Y-75327952D01*
X136587586Y-75161910D01*
X136652373Y-75005502D01*
X136746428Y-74864738D01*
X136866138Y-74745028D01*
X137006902Y-74650973D01*
X137163310Y-74586186D01*
X137329352Y-74553158D01*
X137498648Y-74553158D01*
X137664690Y-74586186D01*
G37*
G36*
X140204690Y-74586186D02*
G01*
X140361098Y-74650973D01*
X140501862Y-74745028D01*
X140621572Y-74864738D01*
X140715627Y-75005502D01*
X140780414Y-75161910D01*
X140813442Y-75327952D01*
X140817600Y-75412600D01*
X140817600Y-75717400D01*
X140813442Y-75802048D01*
X140780414Y-75968090D01*
X140715627Y-76124498D01*
X140621572Y-76265262D01*
X140501862Y-76384972D01*
X140361098Y-76479027D01*
X140204690Y-76543814D01*
X140038648Y-76576842D01*
X139869352Y-76576842D01*
X139703310Y-76543814D01*
X139546902Y-76479027D01*
X139406138Y-76384972D01*
X139286428Y-76265262D01*
X139192373Y-76124498D01*
X139127586Y-75968090D01*
X139094558Y-75802048D01*
X139090400Y-75717400D01*
X139090400Y-75412600D01*
X139094558Y-75327952D01*
X139127586Y-75161910D01*
X139192373Y-75005502D01*
X139286428Y-74864738D01*
X139406138Y-74745028D01*
X139546902Y-74650973D01*
X139703310Y-74586186D01*
X139869352Y-74553158D01*
X140038648Y-74553158D01*
X140204690Y-74586186D01*
G37*
G36*
X142744690Y-74586186D02*
G01*
X142901098Y-74650973D01*
X143041862Y-74745028D01*
X143161572Y-74864738D01*
X143255627Y-75005502D01*
X143320414Y-75161910D01*
X143353442Y-75327952D01*
X143357600Y-75412600D01*
X143357600Y-75717400D01*
X143353442Y-75802048D01*
X143320414Y-75968090D01*
X143255627Y-76124498D01*
X143161572Y-76265262D01*
X143041862Y-76384972D01*
X142901098Y-76479027D01*
X142744690Y-76543814D01*
X142578648Y-76576842D01*
X142409352Y-76576842D01*
X142243310Y-76543814D01*
X142086902Y-76479027D01*
X141946138Y-76384972D01*
X141826428Y-76265262D01*
X141732373Y-76124498D01*
X141667586Y-75968090D01*
X141634558Y-75802048D01*
X141630400Y-75717400D01*
X141630400Y-75412600D01*
X141634558Y-75327952D01*
X141667586Y-75161910D01*
X141732373Y-75005502D01*
X141826428Y-74864738D01*
X141946138Y-74745028D01*
X142086902Y-74650973D01*
X142243310Y-74586186D01*
X142409352Y-74553158D01*
X142578648Y-74553158D01*
X142744690Y-74586186D01*
G37*
G36*
X145284690Y-74586186D02*
G01*
X145441098Y-74650973D01*
X145581862Y-74745028D01*
X145701572Y-74864738D01*
X145795627Y-75005502D01*
X145860414Y-75161910D01*
X145893442Y-75327952D01*
X145897600Y-75412600D01*
X145897600Y-75717400D01*
X145893442Y-75802048D01*
X145860414Y-75968090D01*
X145795627Y-76124498D01*
X145701572Y-76265262D01*
X145581862Y-76384972D01*
X145441098Y-76479027D01*
X145284690Y-76543814D01*
X145118648Y-76576842D01*
X144949352Y-76576842D01*
X144783310Y-76543814D01*
X144626902Y-76479027D01*
X144486138Y-76384972D01*
X144366428Y-76265262D01*
X144272373Y-76124498D01*
X144207586Y-75968090D01*
X144174558Y-75802048D01*
X144170400Y-75717400D01*
X144170400Y-75412600D01*
X144174558Y-75327952D01*
X144207586Y-75161910D01*
X144272373Y-75005502D01*
X144366428Y-74864738D01*
X144486138Y-74745028D01*
X144626902Y-74650973D01*
X144783310Y-74586186D01*
X144949352Y-74553158D01*
X145118648Y-74553158D01*
X145284690Y-74586186D01*
G37*
G36*
X147824690Y-74586186D02*
G01*
X147981098Y-74650973D01*
X148121862Y-74745028D01*
X148241572Y-74864738D01*
X148335627Y-75005502D01*
X148400414Y-75161910D01*
X148433442Y-75327952D01*
X148437600Y-75412600D01*
X148437600Y-75717400D01*
X148433442Y-75802048D01*
X148400414Y-75968090D01*
X148335627Y-76124498D01*
X148241572Y-76265262D01*
X148121862Y-76384972D01*
X147981098Y-76479027D01*
X147824690Y-76543814D01*
X147658648Y-76576842D01*
X147489352Y-76576842D01*
X147323310Y-76543814D01*
X147166902Y-76479027D01*
X147026138Y-76384972D01*
X146906428Y-76265262D01*
X146812373Y-76124498D01*
X146747586Y-75968090D01*
X146714558Y-75802048D01*
X146710400Y-75717400D01*
X146710400Y-75412600D01*
X146714558Y-75327952D01*
X146747586Y-75161910D01*
X146812373Y-75005502D01*
X146906428Y-74864738D01*
X147026138Y-74745028D01*
X147166902Y-74650973D01*
X147323310Y-74586186D01*
X147489352Y-74553158D01*
X147658648Y-74553158D01*
X147824690Y-74586186D01*
G37*
G36*
X150364690Y-74586186D02*
G01*
X150521098Y-74650973D01*
X150661862Y-74745028D01*
X150781572Y-74864738D01*
X150875627Y-75005502D01*
X150940414Y-75161910D01*
X150973442Y-75327952D01*
X150977600Y-75412600D01*
X150977600Y-75717400D01*
X150973442Y-75802048D01*
X150940414Y-75968090D01*
X150875627Y-76124498D01*
X150781572Y-76265262D01*
X150661862Y-76384972D01*
X150521098Y-76479027D01*
X150364690Y-76543814D01*
X150198648Y-76576842D01*
X150029352Y-76576842D01*
X149863310Y-76543814D01*
X149706902Y-76479027D01*
X149566138Y-76384972D01*
X149446428Y-76265262D01*
X149352373Y-76124498D01*
X149287586Y-75968090D01*
X149254558Y-75802048D01*
X149250400Y-75717400D01*
X149250400Y-75412600D01*
X149254558Y-75327952D01*
X149287586Y-75161910D01*
X149352373Y-75005502D01*
X149446428Y-74864738D01*
X149566138Y-74745028D01*
X149706902Y-74650973D01*
X149863310Y-74586186D01*
X150029352Y-74553158D01*
X150198648Y-74553158D01*
X150364690Y-74586186D01*
G37*
G36*
X152904690Y-74586186D02*
G01*
X153061098Y-74650973D01*
X153201862Y-74745028D01*
X153321572Y-74864738D01*
X153415627Y-75005502D01*
X153480414Y-75161910D01*
X153513442Y-75327952D01*
X153517600Y-75412600D01*
X153517600Y-75717400D01*
X153513442Y-75802048D01*
X153480414Y-75968090D01*
X153415627Y-76124498D01*
X153321572Y-76265262D01*
X153201862Y-76384972D01*
X153061098Y-76479027D01*
X152904690Y-76543814D01*
X152738648Y-76576842D01*
X152569352Y-76576842D01*
X152403310Y-76543814D01*
X152246902Y-76479027D01*
X152106138Y-76384972D01*
X151986428Y-76265262D01*
X151892373Y-76124498D01*
X151827586Y-75968090D01*
X151794558Y-75802048D01*
X151790400Y-75717400D01*
X151790400Y-75412600D01*
X151794558Y-75327952D01*
X151827586Y-75161910D01*
X151892373Y-75005502D01*
X151986428Y-74864738D01*
X152106138Y-74745028D01*
X152246902Y-74650973D01*
X152403310Y-74586186D01*
X152569352Y-74553158D01*
X152738648Y-74553158D01*
X152904690Y-74586186D01*
G37*
G36*
X156968690Y-74586186D02*
G01*
X157125098Y-74650973D01*
X157265862Y-74745028D01*
X157385572Y-74864738D01*
X157479627Y-75005502D01*
X157544414Y-75161910D01*
X157577442Y-75327952D01*
X157581600Y-75412600D01*
X157581600Y-75717400D01*
X157577442Y-75802048D01*
X157544414Y-75968090D01*
X157479627Y-76124498D01*
X157385572Y-76265262D01*
X157265862Y-76384972D01*
X157125098Y-76479027D01*
X156968690Y-76543814D01*
X156802648Y-76576842D01*
X156633352Y-76576842D01*
X156467310Y-76543814D01*
X156310902Y-76479027D01*
X156170138Y-76384972D01*
X156050428Y-76265262D01*
X155956373Y-76124498D01*
X155891586Y-75968090D01*
X155858558Y-75802048D01*
X155854400Y-75717400D01*
X155854400Y-75412600D01*
X155858558Y-75327952D01*
X155891586Y-75161910D01*
X155956373Y-75005502D01*
X156050428Y-74864738D01*
X156170138Y-74745028D01*
X156310902Y-74650973D01*
X156467310Y-74586186D01*
X156633352Y-74553158D01*
X156802648Y-74553158D01*
X156968690Y-74586186D01*
G37*
G36*
X159508690Y-74586186D02*
G01*
X159665098Y-74650973D01*
X159805862Y-74745028D01*
X159925572Y-74864738D01*
X160019627Y-75005502D01*
X160084414Y-75161910D01*
X160117442Y-75327952D01*
X160121600Y-75412600D01*
X160121600Y-75717400D01*
X160117442Y-75802048D01*
X160084414Y-75968090D01*
X160019627Y-76124498D01*
X159925572Y-76265262D01*
X159805862Y-76384972D01*
X159665098Y-76479027D01*
X159508690Y-76543814D01*
X159342648Y-76576842D01*
X159173352Y-76576842D01*
X159007310Y-76543814D01*
X158850902Y-76479027D01*
X158710138Y-76384972D01*
X158590428Y-76265262D01*
X158496373Y-76124498D01*
X158431586Y-75968090D01*
X158398558Y-75802048D01*
X158394400Y-75717400D01*
X158394400Y-75412600D01*
X158398558Y-75327952D01*
X158431586Y-75161910D01*
X158496373Y-75005502D01*
X158590428Y-74864738D01*
X158710138Y-74745028D01*
X158850902Y-74650973D01*
X159007310Y-74586186D01*
X159173352Y-74553158D01*
X159342648Y-74553158D01*
X159508690Y-74586186D01*
G37*
G36*
X162048690Y-74586186D02*
G01*
X162205098Y-74650973D01*
X162345862Y-74745028D01*
X162465572Y-74864738D01*
X162559627Y-75005502D01*
X162624414Y-75161910D01*
X162657442Y-75327952D01*
X162661600Y-75412600D01*
X162661600Y-75717400D01*
X162657442Y-75802048D01*
X162624414Y-75968090D01*
X162559627Y-76124498D01*
X162465572Y-76265262D01*
X162345862Y-76384972D01*
X162205098Y-76479027D01*
X162048690Y-76543814D01*
X161882648Y-76576842D01*
X161713352Y-76576842D01*
X161547310Y-76543814D01*
X161390902Y-76479027D01*
X161250138Y-76384972D01*
X161130428Y-76265262D01*
X161036373Y-76124498D01*
X160971586Y-75968090D01*
X160938558Y-75802048D01*
X160934400Y-75717400D01*
X160934400Y-75412600D01*
X160938558Y-75327952D01*
X160971586Y-75161910D01*
X161036373Y-75005502D01*
X161130428Y-74864738D01*
X161250138Y-74745028D01*
X161390902Y-74650973D01*
X161547310Y-74586186D01*
X161713352Y-74553158D01*
X161882648Y-74553158D01*
X162048690Y-74586186D01*
G37*
G36*
X164588690Y-74586186D02*
G01*
X164745098Y-74650973D01*
X164885862Y-74745028D01*
X165005572Y-74864738D01*
X165099627Y-75005502D01*
X165164414Y-75161910D01*
X165197442Y-75327952D01*
X165201600Y-75412600D01*
X165201600Y-75717400D01*
X165197442Y-75802048D01*
X165164414Y-75968090D01*
X165099627Y-76124498D01*
X165005572Y-76265262D01*
X164885862Y-76384972D01*
X164745098Y-76479027D01*
X164588690Y-76543814D01*
X164422648Y-76576842D01*
X164253352Y-76576842D01*
X164087310Y-76543814D01*
X163930902Y-76479027D01*
X163790138Y-76384972D01*
X163670428Y-76265262D01*
X163576373Y-76124498D01*
X163511586Y-75968090D01*
X163478558Y-75802048D01*
X163474400Y-75717400D01*
X163474400Y-75412600D01*
X163478558Y-75327952D01*
X163511586Y-75161910D01*
X163576373Y-75005502D01*
X163670428Y-74864738D01*
X163790138Y-74745028D01*
X163930902Y-74650973D01*
X164087310Y-74586186D01*
X164253352Y-74553158D01*
X164422648Y-74553158D01*
X164588690Y-74586186D01*
G37*
G36*
X167128690Y-74586186D02*
G01*
X167285098Y-74650973D01*
X167425862Y-74745028D01*
X167545572Y-74864738D01*
X167639627Y-75005502D01*
X167704414Y-75161910D01*
X167737442Y-75327952D01*
X167741600Y-75412600D01*
X167741600Y-75717400D01*
X167737442Y-75802048D01*
X167704414Y-75968090D01*
X167639627Y-76124498D01*
X167545572Y-76265262D01*
X167425862Y-76384972D01*
X167285098Y-76479027D01*
X167128690Y-76543814D01*
X166962648Y-76576842D01*
X166793352Y-76576842D01*
X166627310Y-76543814D01*
X166470902Y-76479027D01*
X166330138Y-76384972D01*
X166210428Y-76265262D01*
X166116373Y-76124498D01*
X166051586Y-75968090D01*
X166018558Y-75802048D01*
X166014400Y-75717400D01*
X166014400Y-75412600D01*
X166018558Y-75327952D01*
X166051586Y-75161910D01*
X166116373Y-75005502D01*
X166210428Y-74864738D01*
X166330138Y-74745028D01*
X166470902Y-74650973D01*
X166627310Y-74586186D01*
X166793352Y-74553158D01*
X166962648Y-74553158D01*
X167128690Y-74586186D01*
G37*
G36*
X169668690Y-74586186D02*
G01*
X169825098Y-74650973D01*
X169965862Y-74745028D01*
X170085572Y-74864738D01*
X170179627Y-75005502D01*
X170244414Y-75161910D01*
X170277442Y-75327952D01*
X170281600Y-75412600D01*
X170281600Y-75717400D01*
X170277442Y-75802048D01*
X170244414Y-75968090D01*
X170179627Y-76124498D01*
X170085572Y-76265262D01*
X169965862Y-76384972D01*
X169825098Y-76479027D01*
X169668690Y-76543814D01*
X169502648Y-76576842D01*
X169333352Y-76576842D01*
X169167310Y-76543814D01*
X169010902Y-76479027D01*
X168870138Y-76384972D01*
X168750428Y-76265262D01*
X168656373Y-76124498D01*
X168591586Y-75968090D01*
X168558558Y-75802048D01*
X168554400Y-75717400D01*
X168554400Y-75412600D01*
X168558558Y-75327952D01*
X168591586Y-75161910D01*
X168656373Y-75005502D01*
X168750428Y-74864738D01*
X168870138Y-74745028D01*
X169010902Y-74650973D01*
X169167310Y-74586186D01*
X169333352Y-74553158D01*
X169502648Y-74553158D01*
X169668690Y-74586186D01*
G37*
G36*
X172208690Y-74586186D02*
G01*
X172365098Y-74650973D01*
X172505862Y-74745028D01*
X172625572Y-74864738D01*
X172719627Y-75005502D01*
X172784414Y-75161910D01*
X172817442Y-75327952D01*
X172821600Y-75412600D01*
X172821600Y-75717400D01*
X172817442Y-75802048D01*
X172784414Y-75968090D01*
X172719627Y-76124498D01*
X172625572Y-76265262D01*
X172505862Y-76384972D01*
X172365098Y-76479027D01*
X172208690Y-76543814D01*
X172042648Y-76576842D01*
X171873352Y-76576842D01*
X171707310Y-76543814D01*
X171550902Y-76479027D01*
X171410138Y-76384972D01*
X171290428Y-76265262D01*
X171196373Y-76124498D01*
X171131586Y-75968090D01*
X171098558Y-75802048D01*
X171094400Y-75717400D01*
X171094400Y-75412600D01*
X171098558Y-75327952D01*
X171131586Y-75161910D01*
X171196373Y-75005502D01*
X171290428Y-74864738D01*
X171410138Y-74745028D01*
X171550902Y-74650973D01*
X171707310Y-74586186D01*
X171873352Y-74553158D01*
X172042648Y-74553158D01*
X172208690Y-74586186D01*
G37*
G36*
X174748690Y-74586186D02*
G01*
X174905098Y-74650973D01*
X175045862Y-74745028D01*
X175165572Y-74864738D01*
X175259627Y-75005502D01*
X175324414Y-75161910D01*
X175357442Y-75327952D01*
X175361600Y-75412600D01*
X175361600Y-75717400D01*
X175357442Y-75802048D01*
X175324414Y-75968090D01*
X175259627Y-76124498D01*
X175165572Y-76265262D01*
X175045862Y-76384972D01*
X174905098Y-76479027D01*
X174748690Y-76543814D01*
X174582648Y-76576842D01*
X174413352Y-76576842D01*
X174247310Y-76543814D01*
X174090902Y-76479027D01*
X173950138Y-76384972D01*
X173830428Y-76265262D01*
X173736373Y-76124498D01*
X173671586Y-75968090D01*
X173638558Y-75802048D01*
X173634400Y-75717400D01*
X173634400Y-75412600D01*
X173638558Y-75327952D01*
X173671586Y-75161910D01*
X173736373Y-75005502D01*
X173830428Y-74864738D01*
X173950138Y-74745028D01*
X174090902Y-74650973D01*
X174247310Y-74586186D01*
X174413352Y-74553158D01*
X174582648Y-74553158D01*
X174748690Y-74586186D01*
G37*
M02*
