G04 #@! TF.GenerationSoftware,KiCad,Pcbnew,9.0.5*
G04 #@! TF.CreationDate,2025-11-21T19:54:47+01:00*
G04 #@! TF.ProjectId,ShieldArduino_Semaforo,53686965-6c64-4417-9264-75696e6f5f53,rev?*
G04 #@! TF.SameCoordinates,Original*
G04 #@! TF.FileFunction,Copper,L4,Bot*
G04 #@! TF.FilePolarity,Positive*
%FSLAX46Y46*%
G04 Gerber Fmt 4.6, Leading zero omitted, Abs format (unit mm)*
G04 Created by KiCad (PCBNEW 9.0.5) date 2025-11-21 19:54:47*
%MOMM*%
%LPD*%
G01*
G04 APERTURE LIST*
G04 #@! TA.AperFunction,ComponentPad*
%ADD10O,1.727200X2.032000*%
G04 #@! TD*
G04 #@! TA.AperFunction,ComponentPad*
%ADD11C,4.064000*%
G04 #@! TD*
G04 #@! TA.AperFunction,ComponentPad*
%ADD12R,1.150000X1.150000*%
G04 #@! TD*
G04 #@! TA.AperFunction,ComponentPad*
%ADD13C,1.150000*%
G04 #@! TD*
G04 #@! TA.AperFunction,ComponentPad*
%ADD14C,3.750000*%
G04 #@! TD*
G04 #@! TA.AperFunction,ComponentPad*
%ADD15C,1.950000*%
G04 #@! TD*
G04 #@! TA.AperFunction,ComponentPad*
%ADD16R,1.950000X1.950000*%
G04 #@! TD*
G04 #@! TA.AperFunction,SMDPad,CuDef*
%ADD17C,1.500000*%
G04 #@! TD*
G04 #@! TA.AperFunction,ViaPad*
%ADD18C,0.600000*%
G04 #@! TD*
G04 #@! TA.AperFunction,ViaPad*
%ADD19C,0.800000*%
G04 #@! TD*
G04 #@! TA.AperFunction,Conductor*
%ADD20C,0.250000*%
G04 #@! TD*
G04 #@! TA.AperFunction,Conductor*
%ADD21C,0.600000*%
G04 #@! TD*
G04 #@! TA.AperFunction,Conductor*
%ADD22C,0.700000*%
G04 #@! TD*
G04 #@! TA.AperFunction,Conductor*
%ADD23C,0.400000*%
G04 #@! TD*
G04 #@! TA.AperFunction,Conductor*
%ADD24C,0.500000*%
G04 #@! TD*
G04 #@! TA.AperFunction,Conductor*
%ADD25C,0.200000*%
G04 #@! TD*
G04 APERTURE END LIST*
D10*
X138938000Y-123825000D03*
X141478000Y-123825000D03*
X144018000Y-123825000D03*
X146558000Y-123825000D03*
X149098000Y-123825000D03*
X151638000Y-123825000D03*
X154178000Y-123825000D03*
X156718000Y-123825000D03*
X161798000Y-123825000D03*
X164338000Y-123825000D03*
X166878000Y-123825000D03*
X169418000Y-123825000D03*
X171958000Y-123825000D03*
X174498000Y-123825000D03*
X129794000Y-75565000D03*
X132334000Y-75565000D03*
X134874000Y-75565000D03*
X137414000Y-75565000D03*
X139954000Y-75565000D03*
X142494000Y-75565000D03*
X145034000Y-75565000D03*
X147574000Y-75565000D03*
X150114000Y-75565000D03*
X152654000Y-75565000D03*
X156718000Y-75565000D03*
X159258000Y-75565000D03*
X161798000Y-75565000D03*
X164338000Y-75565000D03*
X166878000Y-75565000D03*
X169418000Y-75565000D03*
X171958000Y-75565000D03*
X174498000Y-75565000D03*
D11*
X124968000Y-123825000D03*
X177038000Y-118745000D03*
X126238000Y-75565000D03*
X177038000Y-90805000D03*
D12*
X116898000Y-118415000D03*
D13*
X116898000Y-116415000D03*
X116898000Y-114415000D03*
X116898000Y-112415000D03*
X116898000Y-110415000D03*
X116898000Y-108415000D03*
X116898000Y-106415000D03*
X116898000Y-104415000D03*
X114898000Y-118415000D03*
X114898000Y-116415000D03*
X114898000Y-114415000D03*
X114898000Y-112415000D03*
X114898000Y-110415000D03*
X114898000Y-108415000D03*
X114898000Y-106415000D03*
X114898000Y-104415000D03*
D14*
X115898000Y-121915000D03*
X115898000Y-100915000D03*
D15*
X174498000Y-112355000D03*
D16*
X174498000Y-94715000D03*
D15*
X174498000Y-102275000D03*
X166938000Y-112355000D03*
D17*
X149248000Y-116365000D03*
X163998000Y-117615000D03*
X116248000Y-78865000D03*
X161248000Y-80865000D03*
X126748000Y-85115000D03*
X169248000Y-78115000D03*
X150748000Y-121365000D03*
X161498000Y-116615000D03*
X165498000Y-78615000D03*
X123998000Y-109115000D03*
X157498000Y-106115000D03*
X149998000Y-94615000D03*
X163998000Y-106365000D03*
X166748000Y-81615000D03*
X126998000Y-91865000D03*
X157498000Y-79865000D03*
D18*
X114848000Y-77565000D03*
X167248000Y-119865000D03*
X126948000Y-113765000D03*
X135373000Y-116015000D03*
X115948000Y-74140000D03*
X135525000Y-110465000D03*
X159498000Y-119865000D03*
X162498000Y-84365000D03*
X170648000Y-88865000D03*
X175301217Y-81598496D03*
X149773403Y-120201020D03*
X152248000Y-115865000D03*
X142448000Y-101733595D03*
X120848000Y-96265000D03*
X173748000Y-118965000D03*
X161298000Y-105865000D03*
X113748000Y-113465000D03*
X120250000Y-102215000D03*
X157748000Y-93115000D03*
X120998000Y-109865000D03*
X158248000Y-87115000D03*
X120948000Y-117390000D03*
X127998000Y-109063000D03*
X145498000Y-80915000D03*
X155248000Y-93115000D03*
X173048000Y-87115000D03*
X167998000Y-115365000D03*
X159998000Y-105865000D03*
X175298000Y-77665000D03*
X131948000Y-87114000D03*
X155548000Y-77765000D03*
X128048000Y-106765000D03*
X120998000Y-115415000D03*
X120250000Y-100415000D03*
X120998000Y-111365000D03*
X156998000Y-120865000D03*
X154998000Y-120865000D03*
X160998000Y-93615000D03*
X163498000Y-114865000D03*
X173998000Y-80865000D03*
X159098000Y-109315000D03*
X124098000Y-98015000D03*
X121598000Y-102215000D03*
X121598000Y-100415000D03*
X131148000Y-85590000D03*
X141598000Y-101740000D03*
X120948000Y-104115000D03*
X113798000Y-119615000D03*
X136798000Y-116715000D03*
X130298000Y-87114000D03*
X140098000Y-96240000D03*
X143248000Y-120790000D03*
X168848000Y-86963000D03*
X117228000Y-93215000D03*
X140098000Y-97140000D03*
X170048000Y-121615000D03*
X156248000Y-80615000D03*
X153798000Y-77765000D03*
X167748000Y-86963000D03*
X153598000Y-115865000D03*
X135525000Y-108115000D03*
X119298000Y-120617000D03*
X155748000Y-87115000D03*
X127948000Y-111415000D03*
X115854652Y-89661516D03*
X172998000Y-121615000D03*
X159498000Y-92365000D03*
X128048000Y-104415000D03*
X118298000Y-93215000D03*
X161348000Y-102165000D03*
X148198000Y-120165000D03*
X120948000Y-119315000D03*
X136798000Y-115265000D03*
X148998000Y-80915000D03*
X116748000Y-97465000D03*
X159248000Y-86615000D03*
X163148000Y-119715000D03*
X158998000Y-80615000D03*
X120973000Y-113365000D03*
X115198000Y-97415000D03*
X131098000Y-89740000D03*
X163498000Y-111865000D03*
X133398000Y-116715000D03*
X133948000Y-123515000D03*
X126948000Y-115165000D03*
X161175823Y-118462177D03*
X157498000Y-106115000D03*
X159823000Y-109140000D03*
X113348000Y-89215000D03*
D19*
X163923000Y-106240000D03*
D18*
X162898000Y-86365000D03*
X175248000Y-78615000D03*
X131248000Y-79815000D03*
X170598000Y-90865000D03*
X134848000Y-92215000D03*
X149308000Y-116415000D03*
X175648000Y-115890000D03*
X150148000Y-94765000D03*
X174698000Y-86515000D03*
X161723000Y-116815000D03*
X136598000Y-79865000D03*
X124348000Y-78865000D03*
X113548000Y-78865000D03*
X163998000Y-117615000D03*
X136598000Y-78715000D03*
X130748000Y-110465000D03*
X127998000Y-110465000D03*
X119698000Y-90015000D03*
X154848000Y-83615000D03*
X127898000Y-108165000D03*
X130698000Y-108165000D03*
X123998000Y-106765000D03*
X168673000Y-100065000D03*
X166698000Y-81615000D03*
X157648000Y-114015000D03*
X123948000Y-109115000D03*
X126691750Y-85058750D03*
X164348000Y-121315000D03*
X161798000Y-121265000D03*
X125598000Y-93390000D03*
D19*
X169498000Y-92715000D03*
D18*
X123898000Y-113815000D03*
X154248000Y-95815000D03*
X150998000Y-97315000D03*
X154623000Y-89740000D03*
X124198000Y-111465000D03*
X150348000Y-96565000D03*
X162248000Y-78365000D03*
X161298000Y-80915000D03*
X143860500Y-105965000D03*
X141360500Y-92815000D03*
X144660500Y-107065000D03*
X144760500Y-98665000D03*
X143810500Y-107065000D03*
X144660500Y-106065000D03*
X141360500Y-93715000D03*
X143910500Y-98365000D03*
X144760500Y-97815000D03*
X162348000Y-115215000D03*
D20*
X149098000Y-123825000D02*
X149098000Y-123515000D01*
D21*
X112648000Y-98415000D02*
X112648000Y-102165000D01*
X112198000Y-78215000D02*
X112198000Y-97965000D01*
X114848000Y-77565000D02*
X112848000Y-77565000D01*
D20*
X149098000Y-123515000D02*
X151498000Y-121115000D01*
D21*
X112198000Y-97965000D02*
X112648000Y-98415000D01*
X112648000Y-102165000D02*
X114898000Y-104415000D01*
X112848000Y-77565000D02*
X112198000Y-78215000D01*
D22*
X171958000Y-123825000D02*
X171958000Y-123672600D01*
D21*
X163923000Y-106240000D02*
X162523000Y-107640000D01*
D23*
X116076000Y-86487000D02*
X158487873Y-86487000D01*
X170226000Y-100137000D02*
X163998000Y-106365000D01*
X170226000Y-92413452D02*
X170226000Y-100137000D01*
X158487873Y-86487000D02*
X158987873Y-85987000D01*
X169570000Y-91987000D02*
X169799548Y-91987000D01*
D21*
X162523000Y-107640000D02*
X156198000Y-107640000D01*
X156198000Y-107640000D02*
X146558000Y-117280000D01*
D20*
X113348000Y-89215000D02*
X122748000Y-79815000D01*
D23*
X169799548Y-91987000D02*
X170226000Y-92413452D01*
X163570000Y-85987000D02*
X169570000Y-91987000D01*
X158987873Y-85987000D02*
X163570000Y-85987000D01*
D21*
X146558000Y-117280000D02*
X146558000Y-123825000D01*
D23*
X113348000Y-89215000D02*
X116076000Y-86487000D01*
D20*
X122748000Y-79815000D02*
X131248000Y-79815000D01*
D24*
X129198000Y-118415000D02*
X116898000Y-118415000D01*
X134848000Y-92215000D02*
X134848000Y-112765000D01*
X134848000Y-112765000D02*
X129198000Y-118415000D01*
X149308000Y-116415000D02*
X156718000Y-123825000D01*
D25*
X161723000Y-116815000D02*
X161698000Y-116815000D01*
D22*
X129823000Y-75594000D02*
X129794000Y-75565000D01*
D25*
X124348000Y-78865000D02*
X113548000Y-78865000D01*
X174498000Y-75565000D02*
X168448000Y-81615000D01*
X168448000Y-81615000D02*
X166698000Y-81615000D01*
X126691750Y-85058750D02*
X126635500Y-85115000D01*
X125598000Y-93265000D02*
X126998000Y-91865000D01*
X125598000Y-93390000D02*
X125598000Y-93265000D01*
D24*
X131998000Y-112515000D02*
X128098000Y-116415000D01*
X169498000Y-92715000D02*
X169298000Y-92715000D01*
X164498000Y-87915000D02*
X135273000Y-87915000D01*
X128098000Y-116415000D02*
X116898000Y-116415000D01*
X169298000Y-92715000D02*
X164498000Y-87915000D01*
X135273000Y-87915000D02*
X131998000Y-91190000D01*
X131998000Y-91190000D02*
X131998000Y-112515000D01*
D20*
X152748000Y-97315000D02*
X154248000Y-95815000D01*
X150998000Y-97315000D02*
X152748000Y-97315000D01*
X152648000Y-96015000D02*
X152648000Y-91715000D01*
X150348000Y-96565000D02*
X152098000Y-96565000D01*
X152648000Y-91715000D02*
X154623000Y-89740000D01*
X152098000Y-96565000D02*
X152648000Y-96015000D01*
D25*
X169418000Y-75565000D02*
X169418000Y-77695000D01*
D20*
X161348000Y-79265000D02*
X161348000Y-80815000D01*
X162248000Y-78365000D02*
X161348000Y-79265000D01*
X161348000Y-80815000D02*
X161298000Y-80865000D01*
X161298000Y-80865000D02*
X161298000Y-80915000D01*
D25*
X166878000Y-75565000D02*
X166878000Y-77485000D01*
X166878000Y-77485000D02*
X165748000Y-78615000D01*
X164338000Y-75565000D02*
X164298000Y-75565000D01*
X164298000Y-75565000D02*
X162748000Y-77115000D01*
X160248000Y-77115000D02*
X160748000Y-77115000D01*
X157498000Y-79865000D02*
X160248000Y-77115000D01*
X162748000Y-77115000D02*
X160748000Y-77115000D01*
G04 #@! TA.AperFunction,Conductor*
G36*
X124957296Y-73539852D02*
G01*
X124971648Y-73574500D01*
X124957296Y-73609148D01*
X124947148Y-73616935D01*
X124939354Y-73621434D01*
X124939339Y-73621444D01*
X124696781Y-73807566D01*
X124696769Y-73807576D01*
X124480576Y-74023769D01*
X124480566Y-74023781D01*
X124294444Y-74266339D01*
X124294434Y-74266354D01*
X124141555Y-74531146D01*
X124024546Y-74813632D01*
X124024544Y-74813638D01*
X123945412Y-75108963D01*
X123945410Y-75108971D01*
X123945410Y-75108975D01*
X123911188Y-75368919D01*
X123905500Y-75412123D01*
X123905500Y-75717876D01*
X123905499Y-75717876D01*
X123917498Y-75809016D01*
X123945410Y-76021025D01*
X123945411Y-76021029D01*
X123945412Y-76021036D01*
X124024544Y-76316361D01*
X124024546Y-76316367D01*
X124141555Y-76598853D01*
X124294434Y-76863645D01*
X124294444Y-76863660D01*
X124480566Y-77106218D01*
X124480576Y-77106230D01*
X124696769Y-77322423D01*
X124696781Y-77322433D01*
X124939339Y-77508555D01*
X124939348Y-77508561D01*
X124939352Y-77508564D01*
X125204148Y-77661445D01*
X125486634Y-77778454D01*
X125486638Y-77778455D01*
X125781963Y-77857587D01*
X125781964Y-77857587D01*
X125781975Y-77857590D01*
X126085120Y-77897500D01*
X126085123Y-77897500D01*
X126390876Y-77897500D01*
X126390880Y-77897500D01*
X126694025Y-77857590D01*
X126989366Y-77778454D01*
X127271852Y-77661445D01*
X127536648Y-77508564D01*
X127566134Y-77485939D01*
X127631894Y-77435479D01*
X127779224Y-77322429D01*
X127995429Y-77106224D01*
X128181564Y-76863648D01*
X128334445Y-76598852D01*
X128451454Y-76316366D01*
X128477832Y-76217919D01*
X128530588Y-76021035D01*
X128530588Y-76021030D01*
X128530590Y-76021025D01*
X128546799Y-75897898D01*
X128565549Y-75865423D01*
X128601774Y-75855716D01*
X128634253Y-75874467D01*
X128643776Y-75896631D01*
X128658563Y-75989992D01*
X128658564Y-75989994D01*
X128715186Y-76164260D01*
X128798368Y-76327516D01*
X128798371Y-76327520D01*
X128798372Y-76327522D01*
X128906074Y-76475760D01*
X128906076Y-76475762D01*
X128906079Y-76475766D01*
X129035633Y-76605320D01*
X129035636Y-76605322D01*
X129035640Y-76605326D01*
X129183878Y-76713028D01*
X129183880Y-76713029D01*
X129183883Y-76713031D01*
X129343816Y-76794520D01*
X129347141Y-76796214D01*
X129521406Y-76852836D01*
X129702383Y-76881500D01*
X129702384Y-76881500D01*
X129885616Y-76881500D01*
X129885617Y-76881500D01*
X130066594Y-76852836D01*
X130240859Y-76796214D01*
X130404122Y-76713028D01*
X130552360Y-76605326D01*
X130681926Y-76475760D01*
X130789628Y-76327522D01*
X130872814Y-76164259D01*
X130929436Y-75989994D01*
X130958100Y-75809017D01*
X130958100Y-75320983D01*
X131169900Y-75320983D01*
X131169900Y-75809016D01*
X131198563Y-75989991D01*
X131198564Y-75989994D01*
X131255186Y-76164260D01*
X131338368Y-76327516D01*
X131338371Y-76327520D01*
X131338372Y-76327522D01*
X131446074Y-76475760D01*
X131446076Y-76475762D01*
X131446079Y-76475766D01*
X131575633Y-76605320D01*
X131575636Y-76605322D01*
X131575640Y-76605326D01*
X131723878Y-76713028D01*
X131723880Y-76713029D01*
X131723883Y-76713031D01*
X131883816Y-76794520D01*
X131887141Y-76796214D01*
X132061406Y-76852836D01*
X132242383Y-76881500D01*
X132242384Y-76881500D01*
X132425616Y-76881500D01*
X132425617Y-76881500D01*
X132606594Y-76852836D01*
X132780859Y-76796214D01*
X132944122Y-76713028D01*
X133092360Y-76605326D01*
X133221926Y-76475760D01*
X133329628Y-76327522D01*
X133412814Y-76164259D01*
X133469436Y-75989994D01*
X133498100Y-75809017D01*
X133498100Y-75320983D01*
X133709900Y-75320983D01*
X133709900Y-75809016D01*
X133738563Y-75989991D01*
X133738564Y-75989994D01*
X133795186Y-76164260D01*
X133878368Y-76327516D01*
X133878371Y-76327520D01*
X133878372Y-76327522D01*
X133986074Y-76475760D01*
X133986076Y-76475762D01*
X133986079Y-76475766D01*
X134115633Y-76605320D01*
X134115636Y-76605322D01*
X134115640Y-76605326D01*
X134263878Y-76713028D01*
X134263880Y-76713029D01*
X134263883Y-76713031D01*
X134423816Y-76794520D01*
X134427141Y-76796214D01*
X134601406Y-76852836D01*
X134782383Y-76881500D01*
X134782384Y-76881500D01*
X134965616Y-76881500D01*
X134965617Y-76881500D01*
X135146594Y-76852836D01*
X135320859Y-76796214D01*
X135484122Y-76713028D01*
X135632360Y-76605326D01*
X135761926Y-76475760D01*
X135869628Y-76327522D01*
X135952814Y-76164259D01*
X136009436Y-75989994D01*
X136038100Y-75809017D01*
X136038100Y-75320983D01*
X136036018Y-75307839D01*
X136350400Y-75307839D01*
X136350400Y-75465000D01*
X136914874Y-75465000D01*
X136906000Y-75498120D01*
X136906000Y-75631880D01*
X136914874Y-75665000D01*
X136350400Y-75665000D01*
X136350400Y-75822160D01*
X136391271Y-76027629D01*
X136391276Y-76027648D01*
X136471448Y-76221199D01*
X136587847Y-76395404D01*
X136735995Y-76543552D01*
X136910200Y-76659951D01*
X137103751Y-76740123D01*
X137103770Y-76740128D01*
X137309239Y-76780999D01*
X137309245Y-76781000D01*
X137314000Y-76781000D01*
X137314000Y-76064125D01*
X137347120Y-76073000D01*
X137480880Y-76073000D01*
X137514000Y-76064125D01*
X137514000Y-76781000D01*
X137518755Y-76781000D01*
X137518760Y-76780999D01*
X137724229Y-76740128D01*
X137724248Y-76740123D01*
X137917799Y-76659951D01*
X138092004Y-76543552D01*
X138240152Y-76395404D01*
X138356551Y-76221199D01*
X138436723Y-76027648D01*
X138436728Y-76027629D01*
X138477599Y-75822160D01*
X138477600Y-75822155D01*
X138477600Y-75665000D01*
X137913126Y-75665000D01*
X137922000Y-75631880D01*
X137922000Y-75498120D01*
X137913126Y-75465000D01*
X138477600Y-75465000D01*
X138477600Y-75320983D01*
X138789900Y-75320983D01*
X138789900Y-75809016D01*
X138818563Y-75989991D01*
X138818564Y-75989994D01*
X138875186Y-76164260D01*
X138958368Y-76327516D01*
X138958371Y-76327520D01*
X138958372Y-76327522D01*
X139066074Y-76475760D01*
X139066076Y-76475762D01*
X139066079Y-76475766D01*
X139195633Y-76605320D01*
X139195636Y-76605322D01*
X139195640Y-76605326D01*
X139343878Y-76713028D01*
X139343880Y-76713029D01*
X139343883Y-76713031D01*
X139503816Y-76794520D01*
X139507141Y-76796214D01*
X139681406Y-76852836D01*
X139862383Y-76881500D01*
X139862384Y-76881500D01*
X140045616Y-76881500D01*
X140045617Y-76881500D01*
X140226594Y-76852836D01*
X140400859Y-76796214D01*
X140564122Y-76713028D01*
X140712360Y-76605326D01*
X140841926Y-76475760D01*
X140949628Y-76327522D01*
X141032814Y-76164259D01*
X141089436Y-75989994D01*
X141118100Y-75809017D01*
X141118100Y-75320983D01*
X141329900Y-75320983D01*
X141329900Y-75809016D01*
X141358563Y-75989991D01*
X141358564Y-75989994D01*
X141415186Y-76164260D01*
X141498368Y-76327516D01*
X141498371Y-76327520D01*
X141498372Y-76327522D01*
X141606074Y-76475760D01*
X141606076Y-76475762D01*
X141606079Y-76475766D01*
X141735633Y-76605320D01*
X141735636Y-76605322D01*
X141735640Y-76605326D01*
X141883878Y-76713028D01*
X141883880Y-76713029D01*
X141883883Y-76713031D01*
X142043816Y-76794520D01*
X142047141Y-76796214D01*
X142221406Y-76852836D01*
X142402383Y-76881500D01*
X142402384Y-76881500D01*
X142585616Y-76881500D01*
X142585617Y-76881500D01*
X142766594Y-76852836D01*
X142940859Y-76796214D01*
X143104122Y-76713028D01*
X143252360Y-76605326D01*
X143381926Y-76475760D01*
X143489628Y-76327522D01*
X143572814Y-76164259D01*
X143629436Y-75989994D01*
X143658100Y-75809017D01*
X143658100Y-75320983D01*
X143869900Y-75320983D01*
X143869900Y-75809016D01*
X143898563Y-75989991D01*
X143898564Y-75989994D01*
X143955186Y-76164260D01*
X144038368Y-76327516D01*
X144038371Y-76327520D01*
X144038372Y-76327522D01*
X144146074Y-76475760D01*
X144146076Y-76475762D01*
X144146079Y-76475766D01*
X144275633Y-76605320D01*
X144275636Y-76605322D01*
X144275640Y-76605326D01*
X144423878Y-76713028D01*
X144423880Y-76713029D01*
X144423883Y-76713031D01*
X144583816Y-76794520D01*
X144587141Y-76796214D01*
X144761406Y-76852836D01*
X144942383Y-76881500D01*
X144942384Y-76881500D01*
X145125616Y-76881500D01*
X145125617Y-76881500D01*
X145306594Y-76852836D01*
X145480859Y-76796214D01*
X145644122Y-76713028D01*
X145792360Y-76605326D01*
X145921926Y-76475760D01*
X146029628Y-76327522D01*
X146112814Y-76164259D01*
X146169436Y-75989994D01*
X146198100Y-75809017D01*
X146198100Y-75320983D01*
X146409900Y-75320983D01*
X146409900Y-75809016D01*
X146438563Y-75989991D01*
X146438564Y-75989994D01*
X146495186Y-76164260D01*
X146578368Y-76327516D01*
X146578371Y-76327520D01*
X146578372Y-76327522D01*
X146686074Y-76475760D01*
X146686076Y-76475762D01*
X146686079Y-76475766D01*
X146815633Y-76605320D01*
X146815636Y-76605322D01*
X146815640Y-76605326D01*
X146963878Y-76713028D01*
X146963880Y-76713029D01*
X146963883Y-76713031D01*
X147123816Y-76794520D01*
X147127141Y-76796214D01*
X147301406Y-76852836D01*
X147482383Y-76881500D01*
X147482384Y-76881500D01*
X147665616Y-76881500D01*
X147665617Y-76881500D01*
X147846594Y-76852836D01*
X148020859Y-76796214D01*
X148184122Y-76713028D01*
X148332360Y-76605326D01*
X148461926Y-76475760D01*
X148569628Y-76327522D01*
X148652814Y-76164259D01*
X148709436Y-75989994D01*
X148738100Y-75809017D01*
X148738100Y-75320983D01*
X148949900Y-75320983D01*
X148949900Y-75809016D01*
X148978563Y-75989991D01*
X148978564Y-75989994D01*
X149035186Y-76164260D01*
X149118368Y-76327516D01*
X149118371Y-76327520D01*
X149118372Y-76327522D01*
X149226074Y-76475760D01*
X149226076Y-76475762D01*
X149226079Y-76475766D01*
X149355633Y-76605320D01*
X149355636Y-76605322D01*
X149355640Y-76605326D01*
X149503878Y-76713028D01*
X149503880Y-76713029D01*
X149503883Y-76713031D01*
X149663816Y-76794520D01*
X149667141Y-76796214D01*
X149841406Y-76852836D01*
X150022383Y-76881500D01*
X150022384Y-76881500D01*
X150205616Y-76881500D01*
X150205617Y-76881500D01*
X150386594Y-76852836D01*
X150560859Y-76796214D01*
X150724122Y-76713028D01*
X150872360Y-76605326D01*
X151001926Y-76475760D01*
X151109628Y-76327522D01*
X151192814Y-76164259D01*
X151249436Y-75989994D01*
X151278100Y-75809017D01*
X151278100Y-75320983D01*
X151489900Y-75320983D01*
X151489900Y-75809016D01*
X151518563Y-75989991D01*
X151518564Y-75989994D01*
X151575186Y-76164260D01*
X151658368Y-76327516D01*
X151658371Y-76327520D01*
X151658372Y-76327522D01*
X151766074Y-76475760D01*
X151766076Y-76475762D01*
X151766079Y-76475766D01*
X151895633Y-76605320D01*
X151895636Y-76605322D01*
X151895640Y-76605326D01*
X152043878Y-76713028D01*
X152043880Y-76713029D01*
X152043883Y-76713031D01*
X152203816Y-76794520D01*
X152207141Y-76796214D01*
X152381406Y-76852836D01*
X152562383Y-76881500D01*
X152562384Y-76881500D01*
X152745616Y-76881500D01*
X152745617Y-76881500D01*
X152926594Y-76852836D01*
X153100859Y-76796214D01*
X153264122Y-76713028D01*
X153412360Y-76605326D01*
X153541926Y-76475760D01*
X153649628Y-76327522D01*
X153732814Y-76164259D01*
X153789436Y-75989994D01*
X153818100Y-75809017D01*
X153818100Y-75320983D01*
X155553900Y-75320983D01*
X155553900Y-75809016D01*
X155582563Y-75989991D01*
X155582564Y-75989994D01*
X155639186Y-76164260D01*
X155722368Y-76327516D01*
X155722371Y-76327520D01*
X155722372Y-76327522D01*
X155830074Y-76475760D01*
X155830076Y-76475762D01*
X155830079Y-76475766D01*
X155959633Y-76605320D01*
X155959636Y-76605322D01*
X155959640Y-76605326D01*
X156107878Y-76713028D01*
X156107880Y-76713029D01*
X156107883Y-76713031D01*
X156267816Y-76794520D01*
X156271141Y-76796214D01*
X156445406Y-76852836D01*
X156626383Y-76881500D01*
X156626384Y-76881500D01*
X156809616Y-76881500D01*
X156809617Y-76881500D01*
X156990594Y-76852836D01*
X157164859Y-76796214D01*
X157328122Y-76713028D01*
X157476360Y-76605326D01*
X157605926Y-76475760D01*
X157713628Y-76327522D01*
X157796814Y-76164259D01*
X157853436Y-75989994D01*
X157882100Y-75809017D01*
X157882100Y-75320983D01*
X158093900Y-75320983D01*
X158093900Y-75809016D01*
X158122563Y-75989991D01*
X158122564Y-75989994D01*
X158179186Y-76164260D01*
X158262368Y-76327516D01*
X158262371Y-76327520D01*
X158262372Y-76327522D01*
X158370074Y-76475760D01*
X158370076Y-76475762D01*
X158370079Y-76475766D01*
X158499633Y-76605320D01*
X158499636Y-76605322D01*
X158499640Y-76605326D01*
X158647878Y-76713028D01*
X158647880Y-76713029D01*
X158647883Y-76713031D01*
X158807816Y-76794520D01*
X158811141Y-76796214D01*
X158985406Y-76852836D01*
X159166383Y-76881500D01*
X159166384Y-76881500D01*
X159349616Y-76881500D01*
X159349617Y-76881500D01*
X159530594Y-76852836D01*
X159704859Y-76796214D01*
X159868122Y-76713028D01*
X160016360Y-76605326D01*
X160145926Y-76475760D01*
X160253628Y-76327522D01*
X160336814Y-76164259D01*
X160393436Y-75989994D01*
X160422100Y-75809017D01*
X160422100Y-75320983D01*
X160393436Y-75140006D01*
X160336814Y-74965741D01*
X160336813Y-74965739D01*
X160253631Y-74802483D01*
X160253629Y-74802480D01*
X160253628Y-74802478D01*
X160145926Y-74654240D01*
X160145922Y-74654236D01*
X160145920Y-74654233D01*
X160016366Y-74524679D01*
X160016362Y-74524676D01*
X160016360Y-74524674D01*
X159868122Y-74416972D01*
X159868120Y-74416971D01*
X159868116Y-74416968D01*
X159704860Y-74333786D01*
X159530594Y-74277164D01*
X159530591Y-74277163D01*
X159391569Y-74255144D01*
X159349617Y-74248500D01*
X159166383Y-74248500D01*
X159132325Y-74253894D01*
X158985408Y-74277163D01*
X158985405Y-74277164D01*
X158811139Y-74333786D01*
X158647883Y-74416968D01*
X158499633Y-74524679D01*
X158370079Y-74654233D01*
X158262368Y-74802483D01*
X158179186Y-74965739D01*
X158122564Y-75140005D01*
X158122563Y-75140008D01*
X158093900Y-75320983D01*
X157882100Y-75320983D01*
X157853436Y-75140006D01*
X157796814Y-74965741D01*
X157796813Y-74965739D01*
X157713631Y-74802483D01*
X157713629Y-74802480D01*
X157713628Y-74802478D01*
X157605926Y-74654240D01*
X157605922Y-74654236D01*
X157605920Y-74654233D01*
X157476366Y-74524679D01*
X157476362Y-74524676D01*
X157476360Y-74524674D01*
X157328122Y-74416972D01*
X157328120Y-74416971D01*
X157328116Y-74416968D01*
X157164860Y-74333786D01*
X156990594Y-74277164D01*
X156990591Y-74277163D01*
X156851569Y-74255144D01*
X156809617Y-74248500D01*
X156626383Y-74248500D01*
X156592325Y-74253894D01*
X156445408Y-74277163D01*
X156445405Y-74277164D01*
X156271139Y-74333786D01*
X156107883Y-74416968D01*
X155959633Y-74524679D01*
X155830079Y-74654233D01*
X155722368Y-74802483D01*
X155639186Y-74965739D01*
X155582564Y-75140005D01*
X155582563Y-75140008D01*
X155553900Y-75320983D01*
X153818100Y-75320983D01*
X153789436Y-75140006D01*
X153732814Y-74965741D01*
X153732813Y-74965739D01*
X153649631Y-74802483D01*
X153649629Y-74802480D01*
X153649628Y-74802478D01*
X153541926Y-74654240D01*
X153541922Y-74654236D01*
X153541920Y-74654233D01*
X153412366Y-74524679D01*
X153412362Y-74524676D01*
X153412360Y-74524674D01*
X153264122Y-74416972D01*
X153264120Y-74416971D01*
X153264116Y-74416968D01*
X153100860Y-74333786D01*
X152926594Y-74277164D01*
X152926591Y-74277163D01*
X152787569Y-74255144D01*
X152745617Y-74248500D01*
X152562383Y-74248500D01*
X152528325Y-74253894D01*
X152381408Y-74277163D01*
X152381405Y-74277164D01*
X152207139Y-74333786D01*
X152043883Y-74416968D01*
X151895633Y-74524679D01*
X151766079Y-74654233D01*
X151658368Y-74802483D01*
X151575186Y-74965739D01*
X151518564Y-75140005D01*
X151518563Y-75140008D01*
X151489900Y-75320983D01*
X151278100Y-75320983D01*
X151249436Y-75140006D01*
X151192814Y-74965741D01*
X151192813Y-74965739D01*
X151109631Y-74802483D01*
X151109629Y-74802480D01*
X151109628Y-74802478D01*
X151001926Y-74654240D01*
X151001922Y-74654236D01*
X151001920Y-74654233D01*
X150872366Y-74524679D01*
X150872362Y-74524676D01*
X150872360Y-74524674D01*
X150724122Y-74416972D01*
X150724120Y-74416971D01*
X150724116Y-74416968D01*
X150560860Y-74333786D01*
X150386594Y-74277164D01*
X150386591Y-74277163D01*
X150247569Y-74255144D01*
X150205617Y-74248500D01*
X150022383Y-74248500D01*
X149988325Y-74253894D01*
X149841408Y-74277163D01*
X149841405Y-74277164D01*
X149667139Y-74333786D01*
X149503883Y-74416968D01*
X149355633Y-74524679D01*
X149226079Y-74654233D01*
X149118368Y-74802483D01*
X149035186Y-74965739D01*
X148978564Y-75140005D01*
X148978563Y-75140008D01*
X148949900Y-75320983D01*
X148738100Y-75320983D01*
X148709436Y-75140006D01*
X148652814Y-74965741D01*
X148652813Y-74965739D01*
X148569631Y-74802483D01*
X148569629Y-74802480D01*
X148569628Y-74802478D01*
X148461926Y-74654240D01*
X148461922Y-74654236D01*
X148461920Y-74654233D01*
X148332366Y-74524679D01*
X148332362Y-74524676D01*
X148332360Y-74524674D01*
X148184122Y-74416972D01*
X148184120Y-74416971D01*
X148184116Y-74416968D01*
X148020860Y-74333786D01*
X147846594Y-74277164D01*
X147846591Y-74277163D01*
X147707569Y-74255144D01*
X147665617Y-74248500D01*
X147482383Y-74248500D01*
X147448325Y-74253894D01*
X147301408Y-74277163D01*
X147301405Y-74277164D01*
X147127139Y-74333786D01*
X146963883Y-74416968D01*
X146815633Y-74524679D01*
X146686079Y-74654233D01*
X146578368Y-74802483D01*
X146495186Y-74965739D01*
X146438564Y-75140005D01*
X146438563Y-75140008D01*
X146409900Y-75320983D01*
X146198100Y-75320983D01*
X146169436Y-75140006D01*
X146112814Y-74965741D01*
X146112813Y-74965739D01*
X146029631Y-74802483D01*
X146029629Y-74802480D01*
X146029628Y-74802478D01*
X145921926Y-74654240D01*
X145921922Y-74654236D01*
X145921920Y-74654233D01*
X145792366Y-74524679D01*
X145792362Y-74524676D01*
X145792360Y-74524674D01*
X145644122Y-74416972D01*
X145644120Y-74416971D01*
X145644116Y-74416968D01*
X145480860Y-74333786D01*
X145306594Y-74277164D01*
X145306591Y-74277163D01*
X145167569Y-74255144D01*
X145125617Y-74248500D01*
X144942383Y-74248500D01*
X144908325Y-74253894D01*
X144761408Y-74277163D01*
X144761405Y-74277164D01*
X144587139Y-74333786D01*
X144423883Y-74416968D01*
X144275633Y-74524679D01*
X144146079Y-74654233D01*
X144038368Y-74802483D01*
X143955186Y-74965739D01*
X143898564Y-75140005D01*
X143898563Y-75140008D01*
X143869900Y-75320983D01*
X143658100Y-75320983D01*
X143629436Y-75140006D01*
X143572814Y-74965741D01*
X143572813Y-74965739D01*
X143489631Y-74802483D01*
X143489629Y-74802480D01*
X143489628Y-74802478D01*
X143381926Y-74654240D01*
X143381922Y-74654236D01*
X143381920Y-74654233D01*
X143252366Y-74524679D01*
X143252362Y-74524676D01*
X143252360Y-74524674D01*
X143104122Y-74416972D01*
X143104120Y-74416971D01*
X143104116Y-74416968D01*
X142940860Y-74333786D01*
X142766594Y-74277164D01*
X142766591Y-74277163D01*
X142627569Y-74255144D01*
X142585617Y-74248500D01*
X142402383Y-74248500D01*
X142368325Y-74253894D01*
X142221408Y-74277163D01*
X142221405Y-74277164D01*
X142047139Y-74333786D01*
X141883883Y-74416968D01*
X141735633Y-74524679D01*
X141606079Y-74654233D01*
X141498368Y-74802483D01*
X141415186Y-74965739D01*
X141358564Y-75140005D01*
X141358563Y-75140008D01*
X141329900Y-75320983D01*
X141118100Y-75320983D01*
X141089436Y-75140006D01*
X141032814Y-74965741D01*
X141032813Y-74965739D01*
X140949631Y-74802483D01*
X140949629Y-74802480D01*
X140949628Y-74802478D01*
X140841926Y-74654240D01*
X140841922Y-74654236D01*
X140841920Y-74654233D01*
X140712366Y-74524679D01*
X140712362Y-74524676D01*
X140712360Y-74524674D01*
X140564122Y-74416972D01*
X140564120Y-74416971D01*
X140564116Y-74416968D01*
X140400860Y-74333786D01*
X140226594Y-74277164D01*
X140226591Y-74277163D01*
X140087569Y-74255144D01*
X140045617Y-74248500D01*
X139862383Y-74248500D01*
X139828325Y-74253894D01*
X139681408Y-74277163D01*
X139681405Y-74277164D01*
X139507139Y-74333786D01*
X139343883Y-74416968D01*
X139195633Y-74524679D01*
X139066079Y-74654233D01*
X138958368Y-74802483D01*
X138875186Y-74965739D01*
X138818564Y-75140005D01*
X138818563Y-75140008D01*
X138789900Y-75320983D01*
X138477600Y-75320983D01*
X138477600Y-75307845D01*
X138477599Y-75307839D01*
X138436728Y-75102370D01*
X138436723Y-75102351D01*
X138356551Y-74908800D01*
X138240152Y-74734595D01*
X138092004Y-74586447D01*
X137917799Y-74470048D01*
X137724248Y-74389876D01*
X137724229Y-74389871D01*
X137518760Y-74349000D01*
X137514000Y-74349000D01*
X137514000Y-75065874D01*
X137480880Y-75057000D01*
X137347120Y-75057000D01*
X137314000Y-75065874D01*
X137314000Y-74349000D01*
X137309239Y-74349000D01*
X137103770Y-74389871D01*
X137103751Y-74389876D01*
X136910200Y-74470048D01*
X136735995Y-74586447D01*
X136587847Y-74734595D01*
X136471448Y-74908800D01*
X136391276Y-75102351D01*
X136391271Y-75102370D01*
X136350400Y-75307839D01*
X136036018Y-75307839D01*
X136009436Y-75140006D01*
X135952814Y-74965741D01*
X135952813Y-74965739D01*
X135869631Y-74802483D01*
X135869629Y-74802480D01*
X135869628Y-74802478D01*
X135761926Y-74654240D01*
X135761922Y-74654236D01*
X135761920Y-74654233D01*
X135632366Y-74524679D01*
X135632362Y-74524676D01*
X135632360Y-74524674D01*
X135484122Y-74416972D01*
X135484120Y-74416971D01*
X135484116Y-74416968D01*
X135320860Y-74333786D01*
X135146594Y-74277164D01*
X135146591Y-74277163D01*
X135007569Y-74255144D01*
X134965617Y-74248500D01*
X134782383Y-74248500D01*
X134748325Y-74253894D01*
X134601408Y-74277163D01*
X134601405Y-74277164D01*
X134427139Y-74333786D01*
X134263883Y-74416968D01*
X134115633Y-74524679D01*
X133986079Y-74654233D01*
X133878368Y-74802483D01*
X133795186Y-74965739D01*
X133738564Y-75140005D01*
X133738563Y-75140008D01*
X133709900Y-75320983D01*
X133498100Y-75320983D01*
X133469436Y-75140006D01*
X133412814Y-74965741D01*
X133412813Y-74965739D01*
X133329631Y-74802483D01*
X133329629Y-74802480D01*
X133329628Y-74802478D01*
X133221926Y-74654240D01*
X133221922Y-74654236D01*
X133221920Y-74654233D01*
X133092366Y-74524679D01*
X133092362Y-74524676D01*
X133092360Y-74524674D01*
X132944122Y-74416972D01*
X132944120Y-74416971D01*
X132944116Y-74416968D01*
X132780860Y-74333786D01*
X132606594Y-74277164D01*
X132606591Y-74277163D01*
X132467569Y-74255144D01*
X132425617Y-74248500D01*
X132242383Y-74248500D01*
X132208325Y-74253894D01*
X132061408Y-74277163D01*
X132061405Y-74277164D01*
X131887139Y-74333786D01*
X131723883Y-74416968D01*
X131575633Y-74524679D01*
X131446079Y-74654233D01*
X131338368Y-74802483D01*
X131255186Y-74965739D01*
X131198564Y-75140005D01*
X131198563Y-75140008D01*
X131169900Y-75320983D01*
X130958100Y-75320983D01*
X130929436Y-75140006D01*
X130872814Y-74965741D01*
X130872813Y-74965739D01*
X130789631Y-74802483D01*
X130789629Y-74802480D01*
X130789628Y-74802478D01*
X130681926Y-74654240D01*
X130681922Y-74654236D01*
X130681920Y-74654233D01*
X130552366Y-74524679D01*
X130552362Y-74524676D01*
X130552360Y-74524674D01*
X130404122Y-74416972D01*
X130404120Y-74416971D01*
X130404116Y-74416968D01*
X130240860Y-74333786D01*
X130066594Y-74277164D01*
X130066591Y-74277163D01*
X129927569Y-74255144D01*
X129885617Y-74248500D01*
X129702383Y-74248500D01*
X129668325Y-74253894D01*
X129521408Y-74277163D01*
X129521405Y-74277164D01*
X129347139Y-74333786D01*
X129183883Y-74416968D01*
X129035633Y-74524679D01*
X128906079Y-74654233D01*
X128798368Y-74802483D01*
X128715186Y-74965739D01*
X128658564Y-75140005D01*
X128658563Y-75140007D01*
X128643776Y-75233368D01*
X128624180Y-75265344D01*
X128587713Y-75274099D01*
X128555737Y-75254503D01*
X128546800Y-75232102D01*
X128530590Y-75108975D01*
X128530588Y-75108970D01*
X128530588Y-75108964D01*
X128451455Y-74813638D01*
X128451453Y-74813632D01*
X128421767Y-74741962D01*
X128334445Y-74531148D01*
X128181564Y-74266352D01*
X128181561Y-74266348D01*
X128181555Y-74266339D01*
X127995433Y-74023781D01*
X127995423Y-74023769D01*
X127779230Y-73807576D01*
X127779218Y-73807566D01*
X127536660Y-73621444D01*
X127536645Y-73621434D01*
X127528852Y-73616935D01*
X127506022Y-73587182D01*
X127510917Y-73550000D01*
X127540670Y-73527170D01*
X127553352Y-73525500D01*
X175286390Y-73525500D01*
X175321038Y-73539852D01*
X176523148Y-74741962D01*
X176537500Y-74776610D01*
X176537500Y-86044895D01*
X176571607Y-86172184D01*
X176571608Y-86172188D01*
X176637500Y-86286314D01*
X179063148Y-88711962D01*
X179077500Y-88746610D01*
X179077500Y-89489647D01*
X179063148Y-89524295D01*
X179028500Y-89538647D01*
X178993852Y-89524295D01*
X178986066Y-89514149D01*
X178981565Y-89506354D01*
X178981555Y-89506339D01*
X178795433Y-89263781D01*
X178795423Y-89263769D01*
X178579230Y-89047576D01*
X178579218Y-89047566D01*
X178336660Y-88861444D01*
X178336645Y-88861434D01*
X178071852Y-88708555D01*
X178071853Y-88708555D01*
X177789367Y-88591546D01*
X177789361Y-88591544D01*
X177494036Y-88512412D01*
X177494029Y-88512411D01*
X177494025Y-88512410D01*
X177190880Y-88472500D01*
X176885120Y-88472500D01*
X176581975Y-88512410D01*
X176581971Y-88512410D01*
X176581963Y-88512412D01*
X176286638Y-88591544D01*
X176286632Y-88591546D01*
X176004146Y-88708555D01*
X175739354Y-88861434D01*
X175739339Y-88861444D01*
X175496781Y-89047566D01*
X175496769Y-89047576D01*
X175280576Y-89263769D01*
X175280566Y-89263781D01*
X175094444Y-89506339D01*
X175094434Y-89506354D01*
X174941555Y-89771146D01*
X174824546Y-90053632D01*
X174824544Y-90053638D01*
X174745412Y-90348963D01*
X174745410Y-90348971D01*
X174745410Y-90348975D01*
X174707989Y-90633216D01*
X174705500Y-90652123D01*
X174705500Y-90957876D01*
X174705499Y-90957876D01*
X174717499Y-91049022D01*
X174745410Y-91261025D01*
X174745411Y-91261029D01*
X174745412Y-91261036D01*
X174824544Y-91556361D01*
X174824546Y-91556367D01*
X174941555Y-91838853D01*
X175094434Y-92103645D01*
X175094444Y-92103660D01*
X175280566Y-92346218D01*
X175280576Y-92346230D01*
X175496769Y-92562423D01*
X175496781Y-92562433D01*
X175739339Y-92748555D01*
X175739348Y-92748561D01*
X175739352Y-92748564D01*
X176004148Y-92901445D01*
X176286634Y-93018454D01*
X176286638Y-93018455D01*
X176581963Y-93097587D01*
X176581964Y-93097587D01*
X176581975Y-93097590D01*
X176885120Y-93137500D01*
X176885123Y-93137500D01*
X177190876Y-93137500D01*
X177190880Y-93137500D01*
X177494025Y-93097590D01*
X177789366Y-93018454D01*
X178071852Y-92901445D01*
X178336648Y-92748564D01*
X178579224Y-92562429D01*
X178795429Y-92346224D01*
X178951093Y-92143359D01*
X178981555Y-92103660D01*
X178981556Y-92103657D01*
X178981564Y-92103648D01*
X178986064Y-92095852D01*
X179015816Y-92073021D01*
X179052998Y-92077915D01*
X179075830Y-92107667D01*
X179077500Y-92120351D01*
X179077500Y-117429647D01*
X179063148Y-117464295D01*
X179028500Y-117478647D01*
X178993852Y-117464295D01*
X178986066Y-117454149D01*
X178981565Y-117446354D01*
X178981555Y-117446339D01*
X178795433Y-117203781D01*
X178795423Y-117203769D01*
X178579230Y-116987576D01*
X178579218Y-116987566D01*
X178336660Y-116801444D01*
X178336645Y-116801434D01*
X178071852Y-116648555D01*
X178071853Y-116648555D01*
X177789367Y-116531546D01*
X177789361Y-116531544D01*
X177494036Y-116452412D01*
X177494029Y-116452411D01*
X177494025Y-116452410D01*
X177190880Y-116412500D01*
X176885120Y-116412500D01*
X176581975Y-116452410D01*
X176581971Y-116452410D01*
X176581963Y-116452412D01*
X176286638Y-116531544D01*
X176286632Y-116531546D01*
X176004146Y-116648555D01*
X175739354Y-116801434D01*
X175739339Y-116801444D01*
X175496781Y-116987566D01*
X175496769Y-116987576D01*
X175280576Y-117203769D01*
X175280566Y-117203781D01*
X175094444Y-117446339D01*
X175094434Y-117446354D01*
X174941555Y-117711146D01*
X174824546Y-117993632D01*
X174824544Y-117993638D01*
X174745412Y-118288963D01*
X174745410Y-118288971D01*
X174745410Y-118288975D01*
X174712199Y-118541237D01*
X174705500Y-118592123D01*
X174705500Y-118897876D01*
X174705499Y-118897876D01*
X174723535Y-119034868D01*
X174745410Y-119201025D01*
X174745411Y-119201029D01*
X174745412Y-119201036D01*
X174824544Y-119496361D01*
X174824546Y-119496367D01*
X174941555Y-119778853D01*
X175094434Y-120043645D01*
X175094444Y-120043660D01*
X175280566Y-120286218D01*
X175280576Y-120286230D01*
X175496769Y-120502423D01*
X175496781Y-120502433D01*
X175739339Y-120688555D01*
X175739348Y-120688561D01*
X175739352Y-120688564D01*
X176004148Y-120841445D01*
X176286634Y-120958454D01*
X176286638Y-120958455D01*
X176581963Y-121037587D01*
X176581964Y-121037587D01*
X176581975Y-121037590D01*
X176885120Y-121077500D01*
X176885123Y-121077500D01*
X177190876Y-121077500D01*
X177190880Y-121077500D01*
X177494025Y-121037590D01*
X177789366Y-120958454D01*
X178071852Y-120841445D01*
X178336648Y-120688564D01*
X178579224Y-120502429D01*
X178795429Y-120286224D01*
X178981564Y-120043648D01*
X178986064Y-120035852D01*
X179015816Y-120013021D01*
X179052998Y-120017915D01*
X179075830Y-120047667D01*
X179077500Y-120060351D01*
X179077500Y-121057390D01*
X179063148Y-121092038D01*
X176637501Y-123517685D01*
X176637500Y-123517685D01*
X176571608Y-123631811D01*
X176571607Y-123631815D01*
X176537500Y-123759104D01*
X176537500Y-125815500D01*
X176523148Y-125850148D01*
X176488500Y-125864500D01*
X126283352Y-125864500D01*
X126248704Y-125850148D01*
X126234352Y-125815500D01*
X126248704Y-125780852D01*
X126258852Y-125773065D01*
X126266648Y-125768564D01*
X126509224Y-125582429D01*
X126725429Y-125366224D01*
X126911564Y-125123648D01*
X127064445Y-124858852D01*
X127181454Y-124576366D01*
X127260590Y-124281025D01*
X127300500Y-123977880D01*
X127300500Y-123672120D01*
X127269406Y-123435939D01*
X133347500Y-123435939D01*
X133347500Y-123594060D01*
X133388422Y-123746782D01*
X133388423Y-123746786D01*
X133467475Y-123883709D01*
X133467478Y-123883713D01*
X133467480Y-123883716D01*
X133579284Y-123995520D01*
X133579287Y-123995521D01*
X133579290Y-123995524D01*
X133716213Y-124074576D01*
X133716215Y-124074576D01*
X133716216Y-124074577D01*
X133775638Y-124090499D01*
X133868939Y-124115499D01*
X133868940Y-124115500D01*
X133868943Y-124115500D01*
X134027060Y-124115500D01*
X134027060Y-124115499D01*
X134179784Y-124074577D01*
X134189415Y-124069017D01*
X134316709Y-123995524D01*
X134316708Y-123995524D01*
X134316716Y-123995520D01*
X134428520Y-123883716D01*
X134507577Y-123746784D01*
X134548499Y-123594060D01*
X134548500Y-123594060D01*
X134548500Y-123580983D01*
X137773900Y-123580983D01*
X137773900Y-124069017D01*
X137774781Y-124074577D01*
X137802563Y-124249991D01*
X137802564Y-124249994D01*
X137859186Y-124424260D01*
X137942368Y-124587516D01*
X137942371Y-124587520D01*
X137942372Y-124587522D01*
X138050074Y-124735760D01*
X138050076Y-124735762D01*
X138050079Y-124735766D01*
X138179633Y-124865320D01*
X138179636Y-124865322D01*
X138179640Y-124865326D01*
X138327878Y-124973028D01*
X138327880Y-124973029D01*
X138327883Y-124973031D01*
X138491139Y-125056213D01*
X138491141Y-125056214D01*
X138665406Y-125112836D01*
X138846383Y-125141500D01*
X138846384Y-125141500D01*
X139029616Y-125141500D01*
X139029617Y-125141500D01*
X139210594Y-125112836D01*
X139384859Y-125056214D01*
X139548122Y-124973028D01*
X139696360Y-124865326D01*
X139825926Y-124735760D01*
X139933628Y-124587522D01*
X140016814Y-124424259D01*
X140073436Y-124249994D01*
X140102100Y-124069017D01*
X140102100Y-123580983D01*
X140313900Y-123580983D01*
X140313900Y-124069017D01*
X140314781Y-124074577D01*
X140342563Y-124249991D01*
X140342564Y-124249994D01*
X140399186Y-124424260D01*
X140482368Y-124587516D01*
X140482371Y-124587520D01*
X140482372Y-124587522D01*
X140590074Y-124735760D01*
X140590076Y-124735762D01*
X140590079Y-124735766D01*
X140719633Y-124865320D01*
X140719636Y-124865322D01*
X140719640Y-124865326D01*
X140867878Y-124973028D01*
X140867880Y-124973029D01*
X140867883Y-124973031D01*
X141031139Y-125056213D01*
X141031141Y-125056214D01*
X141205406Y-125112836D01*
X141386383Y-125141500D01*
X141386384Y-125141500D01*
X141569616Y-125141500D01*
X141569617Y-125141500D01*
X141750594Y-125112836D01*
X141924859Y-125056214D01*
X142088122Y-124973028D01*
X142236360Y-124865326D01*
X142365926Y-124735760D01*
X142473628Y-124587522D01*
X142556814Y-124424259D01*
X142613436Y-124249994D01*
X142642100Y-124069017D01*
X142642100Y-123580983D01*
X142853900Y-123580983D01*
X142853900Y-124069017D01*
X142854781Y-124074577D01*
X142882563Y-124249991D01*
X142882564Y-124249994D01*
X142939186Y-124424260D01*
X143022368Y-124587516D01*
X143022371Y-124587520D01*
X143022372Y-124587522D01*
X143130074Y-124735760D01*
X143130076Y-124735762D01*
X143130079Y-124735766D01*
X143259633Y-124865320D01*
X143259636Y-124865322D01*
X143259640Y-124865326D01*
X143407878Y-124973028D01*
X143407880Y-124973029D01*
X143407883Y-124973031D01*
X143571139Y-125056213D01*
X143571141Y-125056214D01*
X143745406Y-125112836D01*
X143926383Y-125141500D01*
X143926384Y-125141500D01*
X144109616Y-125141500D01*
X144109617Y-125141500D01*
X144290594Y-125112836D01*
X144464859Y-125056214D01*
X144628122Y-124973028D01*
X144776360Y-124865326D01*
X144905926Y-124735760D01*
X145013628Y-124587522D01*
X145096814Y-124424259D01*
X145153436Y-124249994D01*
X145182100Y-124069017D01*
X145182100Y-123580983D01*
X145153436Y-123400006D01*
X145096814Y-123225741D01*
X145096813Y-123225739D01*
X145013631Y-123062483D01*
X145013629Y-123062480D01*
X145013628Y-123062478D01*
X144905926Y-122914240D01*
X144905922Y-122914236D01*
X144905920Y-122914233D01*
X144776366Y-122784679D01*
X144776362Y-122784676D01*
X144776360Y-122784674D01*
X144628122Y-122676972D01*
X144628120Y-122676971D01*
X144628116Y-122676968D01*
X144464860Y-122593786D01*
X144290594Y-122537164D01*
X144290591Y-122537163D01*
X144151569Y-122515144D01*
X144109617Y-122508500D01*
X143926383Y-122508500D01*
X143892325Y-122513894D01*
X143745408Y-122537163D01*
X143745405Y-122537164D01*
X143571139Y-122593786D01*
X143407883Y-122676968D01*
X143259633Y-122784679D01*
X143130079Y-122914233D01*
X143022368Y-123062483D01*
X142939186Y-123225739D01*
X142882564Y-123400005D01*
X142882563Y-123400008D01*
X142864655Y-123513080D01*
X142853900Y-123580983D01*
X142642100Y-123580983D01*
X142613436Y-123400006D01*
X142556814Y-123225741D01*
X142556813Y-123225739D01*
X142473631Y-123062483D01*
X142473629Y-123062480D01*
X142473628Y-123062478D01*
X142365926Y-122914240D01*
X142365922Y-122914236D01*
X142365920Y-122914233D01*
X142236366Y-122784679D01*
X142236362Y-122784676D01*
X142236360Y-122784674D01*
X142088122Y-122676972D01*
X142088120Y-122676971D01*
X142088116Y-122676968D01*
X141924860Y-122593786D01*
X141750594Y-122537164D01*
X141750591Y-122537163D01*
X141611569Y-122515144D01*
X141569617Y-122508500D01*
X141386383Y-122508500D01*
X141352325Y-122513894D01*
X141205408Y-122537163D01*
X141205405Y-122537164D01*
X141031139Y-122593786D01*
X140867883Y-122676968D01*
X140719633Y-122784679D01*
X140590079Y-122914233D01*
X140482368Y-123062483D01*
X140399186Y-123225739D01*
X140342564Y-123400005D01*
X140342563Y-123400008D01*
X140324655Y-123513080D01*
X140313900Y-123580983D01*
X140102100Y-123580983D01*
X140073436Y-123400006D01*
X140016814Y-123225741D01*
X140016813Y-123225739D01*
X139933631Y-123062483D01*
X139933629Y-123062480D01*
X139933628Y-123062478D01*
X139825926Y-122914240D01*
X139825922Y-122914236D01*
X139825920Y-122914233D01*
X139696366Y-122784679D01*
X139696362Y-122784676D01*
X139696360Y-122784674D01*
X139548122Y-122676972D01*
X139548120Y-122676971D01*
X139548116Y-122676968D01*
X139384860Y-122593786D01*
X139210594Y-122537164D01*
X139210591Y-122537163D01*
X139071569Y-122515144D01*
X139029617Y-122508500D01*
X138846383Y-122508500D01*
X138812325Y-122513894D01*
X138665408Y-122537163D01*
X138665405Y-122537164D01*
X138491139Y-122593786D01*
X138327883Y-122676968D01*
X138179633Y-122784679D01*
X138050079Y-122914233D01*
X137942368Y-123062483D01*
X137859186Y-123225739D01*
X137802564Y-123400005D01*
X137802563Y-123400008D01*
X137784655Y-123513080D01*
X137773900Y-123580983D01*
X134548500Y-123580983D01*
X134548500Y-123435940D01*
X134548499Y-123435939D01*
X134526139Y-123352491D01*
X134507577Y-123283216D01*
X134507576Y-123283215D01*
X134507576Y-123283213D01*
X134428524Y-123146290D01*
X134428521Y-123146287D01*
X134428520Y-123146284D01*
X134316716Y-123034480D01*
X134316713Y-123034478D01*
X134316709Y-123034475D01*
X134179786Y-122955423D01*
X134179782Y-122955422D01*
X134027060Y-122914500D01*
X134027057Y-122914500D01*
X133868943Y-122914500D01*
X133868940Y-122914500D01*
X133716217Y-122955422D01*
X133716213Y-122955423D01*
X133579290Y-123034475D01*
X133579281Y-123034482D01*
X133467482Y-123146281D01*
X133467475Y-123146290D01*
X133388423Y-123283213D01*
X133388422Y-123283217D01*
X133347500Y-123435939D01*
X127269406Y-123435939D01*
X127260590Y-123368975D01*
X127255939Y-123351619D01*
X127181455Y-123073638D01*
X127181453Y-123073632D01*
X127132490Y-122955423D01*
X127064445Y-122791148D01*
X126911564Y-122526352D01*
X126911561Y-122526348D01*
X126911555Y-122526339D01*
X126725433Y-122283781D01*
X126725423Y-122283769D01*
X126509230Y-122067576D01*
X126509218Y-122067566D01*
X126266660Y-121881444D01*
X126266645Y-121881434D01*
X126001852Y-121728555D01*
X126001853Y-121728555D01*
X125719367Y-121611546D01*
X125719361Y-121611544D01*
X125424036Y-121532412D01*
X125424029Y-121532411D01*
X125424025Y-121532410D01*
X125120880Y-121492500D01*
X124815120Y-121492500D01*
X124511975Y-121532410D01*
X124511971Y-121532410D01*
X124511963Y-121532412D01*
X124216638Y-121611544D01*
X124216632Y-121611546D01*
X123934146Y-121728555D01*
X123669354Y-121881434D01*
X123669339Y-121881444D01*
X123426781Y-122067566D01*
X123426769Y-122067576D01*
X123210576Y-122283769D01*
X123210566Y-122283781D01*
X123024444Y-122526339D01*
X123024434Y-122526354D01*
X122871555Y-122791146D01*
X122754546Y-123073632D01*
X122754544Y-123073638D01*
X122675412Y-123368963D01*
X122675410Y-123368971D01*
X122675410Y-123368975D01*
X122635500Y-123672120D01*
X122635500Y-123672123D01*
X122635500Y-123977876D01*
X122635499Y-123977876D01*
X122642666Y-124032314D01*
X122675410Y-124281025D01*
X122675411Y-124281029D01*
X122675412Y-124281036D01*
X122754544Y-124576361D01*
X122754546Y-124576367D01*
X122871555Y-124858853D01*
X123024434Y-125123645D01*
X123024444Y-125123660D01*
X123210566Y-125366218D01*
X123210576Y-125366230D01*
X123426769Y-125582423D01*
X123426781Y-125582433D01*
X123669339Y-125768555D01*
X123669354Y-125768565D01*
X123677148Y-125773065D01*
X123699978Y-125802818D01*
X123695083Y-125840000D01*
X123665330Y-125862830D01*
X123652648Y-125864500D01*
X111547500Y-125864500D01*
X111512852Y-125850148D01*
X111498500Y-125815500D01*
X111498500Y-121772410D01*
X113722500Y-121772410D01*
X113722500Y-122057590D01*
X113759723Y-122340330D01*
X113759724Y-122340334D01*
X113759725Y-122340341D01*
X113833530Y-122615785D01*
X113833534Y-122615795D01*
X113942667Y-122879265D01*
X114085255Y-123126233D01*
X114085265Y-123126248D01*
X114258858Y-123352479D01*
X114258868Y-123352491D01*
X114460508Y-123554131D01*
X114460520Y-123554141D01*
X114686751Y-123727734D01*
X114686760Y-123727740D01*
X114686764Y-123727743D01*
X114933736Y-123870333D01*
X115197208Y-123979467D01*
X115197211Y-123979467D01*
X115197214Y-123979469D01*
X115472658Y-124053274D01*
X115472659Y-124053274D01*
X115472670Y-124053277D01*
X115755410Y-124090500D01*
X115755414Y-124090500D01*
X116040586Y-124090500D01*
X116040590Y-124090500D01*
X116323330Y-124053277D01*
X116598792Y-123979467D01*
X116862264Y-123870333D01*
X117109236Y-123727743D01*
X117335485Y-123554137D01*
X117537137Y-123352485D01*
X117710743Y-123126236D01*
X117853333Y-122879264D01*
X117962467Y-122615792D01*
X117986433Y-122526352D01*
X118036274Y-122340341D01*
X118036273Y-122340341D01*
X118036277Y-122340330D01*
X118073500Y-122057590D01*
X118073500Y-121772410D01*
X118036277Y-121489670D01*
X118012758Y-121401896D01*
X117962469Y-121214214D01*
X117962465Y-121214204D01*
X117950757Y-121185939D01*
X117853333Y-120950736D01*
X117821898Y-120896290D01*
X117719249Y-120718497D01*
X117710743Y-120703764D01*
X117710740Y-120703760D01*
X117710734Y-120703751D01*
X117537141Y-120477520D01*
X117537131Y-120477508D01*
X117335491Y-120275868D01*
X117335479Y-120275858D01*
X117109248Y-120102265D01*
X117109233Y-120102255D01*
X116862265Y-119959667D01*
X116598795Y-119850534D01*
X116598785Y-119850530D01*
X116323341Y-119776725D01*
X116323334Y-119776724D01*
X116323330Y-119776723D01*
X116040590Y-119739500D01*
X115755410Y-119739500D01*
X115472670Y-119776723D01*
X115472666Y-119776723D01*
X115472658Y-119776725D01*
X115197214Y-119850530D01*
X115197204Y-119850534D01*
X114933734Y-119959667D01*
X114686766Y-120102255D01*
X114686751Y-120102265D01*
X114460520Y-120275858D01*
X114460508Y-120275868D01*
X114258868Y-120477508D01*
X114258858Y-120477520D01*
X114085265Y-120703751D01*
X114085255Y-120703766D01*
X113942667Y-120950734D01*
X113833534Y-121214204D01*
X113833530Y-121214214D01*
X113759725Y-121489658D01*
X113759723Y-121489666D01*
X113759723Y-121489670D01*
X113722500Y-121772410D01*
X111498500Y-121772410D01*
X111498500Y-118328765D01*
X114022500Y-118328765D01*
X114022500Y-118501234D01*
X114056142Y-118670364D01*
X114056145Y-118670375D01*
X114122140Y-118829701D01*
X114122142Y-118829705D01*
X114167695Y-118897880D01*
X114212877Y-118965500D01*
X114217955Y-118973099D01*
X114339901Y-119095045D01*
X114483295Y-119190858D01*
X114642626Y-119256855D01*
X114642632Y-119256856D01*
X114642635Y-119256857D01*
X114811765Y-119290499D01*
X114811768Y-119290499D01*
X114811771Y-119290500D01*
X114811772Y-119290500D01*
X114984228Y-119290500D01*
X114984229Y-119290500D01*
X115153374Y-119256855D01*
X115312705Y-119190858D01*
X115456099Y-119095045D01*
X115578045Y-118973099D01*
X115673858Y-118829705D01*
X115739855Y-118670374D01*
X115740825Y-118665500D01*
X115773499Y-118501234D01*
X115773500Y-118501227D01*
X115773500Y-118328772D01*
X115773499Y-118328765D01*
X115739857Y-118159635D01*
X115739854Y-118159624D01*
X115720375Y-118112598D01*
X115673858Y-118000295D01*
X115578045Y-117856901D01*
X115516278Y-117795134D01*
X116022500Y-117795134D01*
X116022500Y-119034858D01*
X116022501Y-119034868D01*
X116025415Y-119059992D01*
X116070794Y-119162766D01*
X116150233Y-119242205D01*
X116253006Y-119287584D01*
X116253009Y-119287585D01*
X116278135Y-119290500D01*
X117517864Y-119290499D01*
X117542991Y-119287585D01*
X117645765Y-119242206D01*
X117725206Y-119162765D01*
X117770585Y-119059991D01*
X117773500Y-119034865D01*
X117773500Y-119014500D01*
X117787852Y-118979852D01*
X117822500Y-118965500D01*
X129270477Y-118965500D01*
X129356158Y-118942540D01*
X129410485Y-118927984D01*
X129423836Y-118920276D01*
X129536015Y-118855510D01*
X131755586Y-116635939D01*
X132797500Y-116635939D01*
X132797500Y-116794060D01*
X132838422Y-116946782D01*
X132838423Y-116946786D01*
X132917475Y-117083709D01*
X132917478Y-117083713D01*
X132917480Y-117083716D01*
X133029284Y-117195520D01*
X133029287Y-117195521D01*
X133029290Y-117195524D01*
X133166213Y-117274576D01*
X133166215Y-117274576D01*
X133166216Y-117274577D01*
X133203828Y-117284655D01*
X133318939Y-117315499D01*
X133318940Y-117315500D01*
X133318943Y-117315500D01*
X133477060Y-117315500D01*
X133477060Y-117315499D01*
X133629784Y-117274577D01*
X133660482Y-117256854D01*
X133766709Y-117195524D01*
X133766708Y-117195524D01*
X133766716Y-117195520D01*
X133878520Y-117083716D01*
X133942385Y-116973098D01*
X133957576Y-116946786D01*
X133957576Y-116946785D01*
X133957577Y-116946784D01*
X133998499Y-116794060D01*
X133998500Y-116794060D01*
X133998500Y-116635940D01*
X133998499Y-116635939D01*
X133988267Y-116597752D01*
X133957577Y-116483216D01*
X133957576Y-116483215D01*
X133957576Y-116483213D01*
X133878524Y-116346290D01*
X133878521Y-116346287D01*
X133878520Y-116346284D01*
X133766716Y-116234480D01*
X133766713Y-116234478D01*
X133766709Y-116234475D01*
X133629786Y-116155423D01*
X133629782Y-116155422D01*
X133477060Y-116114500D01*
X133477057Y-116114500D01*
X133318943Y-116114500D01*
X133318940Y-116114500D01*
X133166217Y-116155422D01*
X133166213Y-116155423D01*
X133029290Y-116234475D01*
X133029281Y-116234482D01*
X132917482Y-116346281D01*
X132917475Y-116346290D01*
X132838423Y-116483213D01*
X132838422Y-116483217D01*
X132797500Y-116635939D01*
X131755586Y-116635939D01*
X132422465Y-115969060D01*
X134391229Y-114000295D01*
X135288510Y-113103014D01*
X135360984Y-112977485D01*
X135365426Y-112960908D01*
X135398500Y-112837477D01*
X135398500Y-92514000D01*
X140655000Y-92514000D01*
X140655000Y-98815997D01*
X140658760Y-98863776D01*
X140658762Y-98863792D01*
X140663609Y-98894399D01*
X140663611Y-98894407D01*
X140670012Y-98924752D01*
X140718190Y-99026161D01*
X140754150Y-99075656D01*
X140754159Y-99075666D01*
X140808322Y-99132918D01*
X140808324Y-99132920D01*
X140869744Y-99166390D01*
X140906906Y-99186641D01*
X140965097Y-99205548D01*
X141059500Y-99220500D01*
X142992345Y-99220500D01*
X143026993Y-99234852D01*
X143041345Y-99269500D01*
X143041345Y-99269715D01*
X143005439Y-107464238D01*
X143009090Y-107512678D01*
X143009093Y-107512701D01*
X143013934Y-107543706D01*
X143020447Y-107574753D01*
X143020448Y-107574755D01*
X143068625Y-107676161D01*
X143104585Y-107725656D01*
X143104594Y-107725666D01*
X143158757Y-107782918D01*
X143158759Y-107782920D01*
X143205194Y-107808224D01*
X143257341Y-107836641D01*
X143315532Y-107855548D01*
X143409935Y-107870500D01*
X143409936Y-107870500D01*
X145011932Y-107870500D01*
X145011933Y-107870500D01*
X145011936Y-107870499D01*
X145011949Y-107870499D01*
X145059051Y-107866844D01*
X145059054Y-107866843D01*
X145059060Y-107866843D01*
X145089240Y-107862131D01*
X145118980Y-107855960D01*
X145118981Y-107855959D01*
X145118983Y-107855959D01*
X145166291Y-107833735D01*
X145220598Y-107808226D01*
X145270255Y-107772479D01*
X145327747Y-107718565D01*
X145381901Y-107620218D01*
X145401063Y-107562111D01*
X145416429Y-107467773D01*
X145453783Y-98942579D01*
X145454385Y-98935145D01*
X145466000Y-98861821D01*
X145466000Y-97514000D01*
X145462239Y-97466214D01*
X145457394Y-97435621D01*
X145450987Y-97405246D01*
X145402809Y-97303838D01*
X145366845Y-97254338D01*
X145312677Y-97197081D01*
X145312675Y-97197079D01*
X145214098Y-97143361D01*
X145214096Y-97143360D01*
X145214094Y-97143359D01*
X145155903Y-97124452D01*
X145155900Y-97124451D01*
X145083382Y-97112965D01*
X145061500Y-97109500D01*
X145061499Y-97109500D01*
X142065000Y-97109500D01*
X142030352Y-97095148D01*
X142016000Y-97060500D01*
X142016000Y-96485939D01*
X149747500Y-96485939D01*
X149747500Y-96644060D01*
X149788422Y-96796782D01*
X149788423Y-96796786D01*
X149867475Y-96933709D01*
X149867478Y-96933713D01*
X149867480Y-96933716D01*
X149979284Y-97045520D01*
X149979287Y-97045521D01*
X149979290Y-97045524D01*
X150116213Y-97124576D01*
X150116215Y-97124576D01*
X150116216Y-97124577D01*
X150186308Y-97143358D01*
X150268939Y-97165499D01*
X150268940Y-97165500D01*
X150268943Y-97165500D01*
X150352517Y-97165500D01*
X150387165Y-97179852D01*
X150401517Y-97214500D01*
X150399847Y-97227183D01*
X150397500Y-97235941D01*
X150397500Y-97394060D01*
X150438422Y-97546782D01*
X150438423Y-97546786D01*
X150517475Y-97683709D01*
X150517478Y-97683713D01*
X150517480Y-97683716D01*
X150629284Y-97795520D01*
X150629287Y-97795521D01*
X150629290Y-97795524D01*
X150766213Y-97874576D01*
X150766215Y-97874576D01*
X150766216Y-97874577D01*
X150808620Y-97885939D01*
X150918939Y-97915499D01*
X150918940Y-97915500D01*
X150918943Y-97915500D01*
X151077060Y-97915500D01*
X151077060Y-97915499D01*
X151229784Y-97874577D01*
X151366716Y-97795520D01*
X151407384Y-97754852D01*
X151442032Y-97740500D01*
X152804021Y-97740500D01*
X152804021Y-97740499D01*
X152912237Y-97711503D01*
X153009263Y-97655485D01*
X154234895Y-96429851D01*
X154269543Y-96415500D01*
X154327060Y-96415500D01*
X154327060Y-96415499D01*
X154479784Y-96374577D01*
X154616716Y-96295520D01*
X154728520Y-96183716D01*
X154785812Y-96084482D01*
X154807576Y-96046786D01*
X154807576Y-96046785D01*
X154807577Y-96046784D01*
X154848499Y-95894060D01*
X154848500Y-95894060D01*
X154848500Y-95735940D01*
X154848499Y-95735939D01*
X154807577Y-95583217D01*
X154807576Y-95583213D01*
X154728524Y-95446290D01*
X154728521Y-95446287D01*
X154728520Y-95446284D01*
X154616716Y-95334480D01*
X154616713Y-95334478D01*
X154616709Y-95334475D01*
X154479786Y-95255423D01*
X154479782Y-95255422D01*
X154327060Y-95214500D01*
X154327057Y-95214500D01*
X154168943Y-95214500D01*
X154168940Y-95214500D01*
X154016217Y-95255422D01*
X154016213Y-95255423D01*
X153879290Y-95334475D01*
X153879281Y-95334482D01*
X153767482Y-95446281D01*
X153767475Y-95446290D01*
X153688423Y-95583213D01*
X153688422Y-95583217D01*
X153647500Y-95735939D01*
X153647500Y-95793456D01*
X153633148Y-95828104D01*
X152586104Y-96875148D01*
X152551456Y-96889500D01*
X152493544Y-96889500D01*
X152458896Y-96875148D01*
X152444544Y-96840500D01*
X152458896Y-96805852D01*
X152620691Y-96644057D01*
X152988484Y-96276264D01*
X153023567Y-96215500D01*
X153044503Y-96179237D01*
X153048452Y-96164500D01*
X153073500Y-96071021D01*
X153073500Y-91911544D01*
X153087852Y-91876896D01*
X154609896Y-90354852D01*
X154644544Y-90340500D01*
X154702060Y-90340500D01*
X154702060Y-90340499D01*
X154854784Y-90299577D01*
X154946229Y-90246782D01*
X154991709Y-90220524D01*
X154991708Y-90220524D01*
X154991716Y-90220520D01*
X155103520Y-90108716D01*
X155135321Y-90053634D01*
X155182576Y-89971786D01*
X155182576Y-89971785D01*
X155182577Y-89971784D01*
X155223499Y-89819060D01*
X155223500Y-89819060D01*
X155223500Y-89660940D01*
X155223499Y-89660939D01*
X155186885Y-89524295D01*
X155182577Y-89508216D01*
X155182576Y-89508215D01*
X155182576Y-89508213D01*
X155103524Y-89371290D01*
X155103521Y-89371287D01*
X155103520Y-89371284D01*
X154991716Y-89259480D01*
X154991713Y-89259478D01*
X154991709Y-89259475D01*
X154854786Y-89180423D01*
X154854782Y-89180422D01*
X154702060Y-89139500D01*
X154702057Y-89139500D01*
X154543943Y-89139500D01*
X154543940Y-89139500D01*
X154391217Y-89180422D01*
X154391213Y-89180423D01*
X154254290Y-89259475D01*
X154254281Y-89259482D01*
X154142482Y-89371281D01*
X154142475Y-89371290D01*
X154063423Y-89508213D01*
X154063422Y-89508217D01*
X154022500Y-89660939D01*
X154022500Y-89718456D01*
X154008148Y-89753104D01*
X152307516Y-91453736D01*
X152307515Y-91453736D01*
X152251497Y-91550760D01*
X152251496Y-91550764D01*
X152222500Y-91658978D01*
X152222500Y-95818456D01*
X152208148Y-95853104D01*
X151936104Y-96125148D01*
X151901456Y-96139500D01*
X150792032Y-96139500D01*
X150757384Y-96125148D01*
X150716718Y-96084482D01*
X150716716Y-96084480D01*
X150716713Y-96084478D01*
X150716709Y-96084475D01*
X150579786Y-96005423D01*
X150579782Y-96005422D01*
X150427060Y-95964500D01*
X150427057Y-95964500D01*
X150268943Y-95964500D01*
X150268940Y-95964500D01*
X150116217Y-96005422D01*
X150116213Y-96005423D01*
X149979290Y-96084475D01*
X149979281Y-96084482D01*
X149867482Y-96196281D01*
X149867475Y-96196290D01*
X149788423Y-96333213D01*
X149788422Y-96333217D01*
X149747500Y-96485939D01*
X142016000Y-96485939D01*
X142016000Y-94511535D01*
X148947500Y-94511535D01*
X148947500Y-94718465D01*
X148987870Y-94921420D01*
X149067059Y-95112598D01*
X149182023Y-95284655D01*
X149328345Y-95430977D01*
X149500402Y-95545941D01*
X149691580Y-95625130D01*
X149894535Y-95665500D01*
X149894538Y-95665500D01*
X150101462Y-95665500D01*
X150101465Y-95665500D01*
X150304420Y-95625130D01*
X150495598Y-95545941D01*
X150667655Y-95430977D01*
X150813977Y-95284655D01*
X150928941Y-95112598D01*
X151008130Y-94921420D01*
X151048500Y-94718465D01*
X151048500Y-94511535D01*
X151008130Y-94308580D01*
X150928941Y-94117402D01*
X150813977Y-93945345D01*
X150667655Y-93799023D01*
X150607320Y-93758709D01*
X150582207Y-93741929D01*
X150495598Y-93684059D01*
X150461674Y-93670007D01*
X150304423Y-93604871D01*
X150304417Y-93604869D01*
X150222572Y-93588589D01*
X150101465Y-93564500D01*
X149894535Y-93564500D01*
X149793520Y-93584592D01*
X149691582Y-93604869D01*
X149691576Y-93604871D01*
X149500403Y-93684058D01*
X149328345Y-93799022D01*
X149182022Y-93945345D01*
X149067058Y-94117403D01*
X148987871Y-94308576D01*
X148987869Y-94308582D01*
X148967592Y-94410520D01*
X148947500Y-94511535D01*
X142016000Y-94511535D01*
X142016000Y-92514011D01*
X142016000Y-92514000D01*
X142012239Y-92466214D01*
X142007394Y-92435621D01*
X142000987Y-92405246D01*
X141952809Y-92303838D01*
X141927147Y-92268517D01*
X141916849Y-92254343D01*
X141916840Y-92254333D01*
X141862677Y-92197081D01*
X141862675Y-92197079D01*
X141764098Y-92143361D01*
X141764096Y-92143360D01*
X141764094Y-92143359D01*
X141705903Y-92124452D01*
X141705900Y-92124451D01*
X141633382Y-92112965D01*
X141611500Y-92109500D01*
X141059500Y-92109500D01*
X141042754Y-92110817D01*
X141011723Y-92113260D01*
X141011716Y-92113260D01*
X141011714Y-92113261D01*
X141011710Y-92113261D01*
X141011707Y-92113262D01*
X140981100Y-92118109D01*
X140981092Y-92118111D01*
X140950747Y-92124512D01*
X140849338Y-92172690D01*
X140799843Y-92208650D01*
X140799833Y-92208659D01*
X140742581Y-92262822D01*
X140742579Y-92262824D01*
X140688861Y-92361401D01*
X140688858Y-92361408D01*
X140669952Y-92419596D01*
X140669951Y-92419599D01*
X140655000Y-92514000D01*
X135398500Y-92514000D01*
X135398500Y-92475635D01*
X135405066Y-92451133D01*
X135405134Y-92451014D01*
X135407577Y-92446784D01*
X135448499Y-92294060D01*
X135448500Y-92294060D01*
X135448500Y-92135940D01*
X135448499Y-92135939D01*
X135407577Y-91983217D01*
X135407576Y-91983213D01*
X135328524Y-91846290D01*
X135328521Y-91846287D01*
X135328520Y-91846284D01*
X135216716Y-91734480D01*
X135216713Y-91734478D01*
X135216709Y-91734475D01*
X135079786Y-91655423D01*
X135079782Y-91655422D01*
X134927060Y-91614500D01*
X134927057Y-91614500D01*
X134768943Y-91614500D01*
X134768940Y-91614500D01*
X134616217Y-91655422D01*
X134616213Y-91655423D01*
X134479290Y-91734475D01*
X134479281Y-91734482D01*
X134367482Y-91846281D01*
X134367475Y-91846290D01*
X134288423Y-91983213D01*
X134288422Y-91983217D01*
X134247500Y-92135939D01*
X134247500Y-92294060D01*
X134288421Y-92446780D01*
X134288423Y-92446784D01*
X134290934Y-92451133D01*
X134297500Y-92475635D01*
X134297500Y-112516679D01*
X134283148Y-112551327D01*
X128984327Y-117850148D01*
X128949679Y-117864500D01*
X117822499Y-117864500D01*
X117787851Y-117850148D01*
X117773499Y-117815500D01*
X117773499Y-117795141D01*
X117773498Y-117795135D01*
X117770585Y-117770009D01*
X117725206Y-117667235D01*
X117725205Y-117667234D01*
X117725205Y-117667233D01*
X117645766Y-117587794D01*
X117645767Y-117587794D01*
X117542993Y-117542415D01*
X117530428Y-117540957D01*
X117517865Y-117539500D01*
X117517863Y-117539500D01*
X116278141Y-117539500D01*
X116278131Y-117539501D01*
X116253007Y-117542415D01*
X116150233Y-117587794D01*
X116070794Y-117667233D01*
X116025415Y-117770006D01*
X116022500Y-117795134D01*
X115516278Y-117795134D01*
X115456099Y-117734955D01*
X115420469Y-117711148D01*
X115408731Y-117703304D01*
X115312705Y-117639142D01*
X115312702Y-117639140D01*
X115312701Y-117639140D01*
X115153375Y-117573145D01*
X115153364Y-117573142D01*
X114984234Y-117539500D01*
X114984229Y-117539500D01*
X114811771Y-117539500D01*
X114811765Y-117539500D01*
X114642635Y-117573142D01*
X114642624Y-117573145D01*
X114483298Y-117639140D01*
X114339901Y-117734954D01*
X114217954Y-117856901D01*
X114122140Y-118000298D01*
X114056145Y-118159624D01*
X114056142Y-118159635D01*
X114022500Y-118328765D01*
X111498500Y-118328765D01*
X111498500Y-116338663D01*
X114123000Y-116338663D01*
X114123000Y-116491332D01*
X114152780Y-116641047D01*
X114152785Y-116641066D01*
X114211203Y-116782100D01*
X114282609Y-116888967D01*
X114282610Y-116888967D01*
X114590017Y-116581559D01*
X114617930Y-116629905D01*
X114683095Y-116695070D01*
X114731439Y-116722981D01*
X114424031Y-117030388D01*
X114530903Y-117101797D01*
X114530902Y-117101797D01*
X114671933Y-117160214D01*
X114671952Y-117160219D01*
X114821663Y-117189999D01*
X114821669Y-117190000D01*
X114974331Y-117190000D01*
X114974336Y-117189999D01*
X115124047Y-117160219D01*
X115124066Y-117160214D01*
X115265096Y-117101797D01*
X115371967Y-117030388D01*
X115371967Y-117030387D01*
X115064560Y-116722981D01*
X115112905Y-116695070D01*
X115178070Y-116629905D01*
X115205981Y-116581560D01*
X115513387Y-116888967D01*
X115513388Y-116888967D01*
X115584797Y-116782096D01*
X115643214Y-116641066D01*
X115643219Y-116641047D01*
X115673000Y-116491332D01*
X115673000Y-116338669D01*
X115672999Y-116338663D01*
X115643219Y-116188952D01*
X115643214Y-116188933D01*
X115584797Y-116047903D01*
X115513388Y-115941031D01*
X115205981Y-116248438D01*
X115178070Y-116200095D01*
X115112905Y-116134930D01*
X115064559Y-116107017D01*
X115371967Y-115799610D01*
X115371967Y-115799609D01*
X115265100Y-115728203D01*
X115124066Y-115669785D01*
X115124047Y-115669780D01*
X114974336Y-115640000D01*
X114821663Y-115640000D01*
X114671952Y-115669780D01*
X114671933Y-115669785D01*
X114530899Y-115728203D01*
X114424031Y-115799610D01*
X114731439Y-116107018D01*
X114683095Y-116134930D01*
X114617930Y-116200095D01*
X114590018Y-116248439D01*
X114282610Y-115941031D01*
X114211203Y-116047899D01*
X114152785Y-116188933D01*
X114152780Y-116188952D01*
X114123000Y-116338663D01*
X111498500Y-116338663D01*
X111498500Y-114328765D01*
X114022500Y-114328765D01*
X114022500Y-114501234D01*
X114056142Y-114670364D01*
X114056145Y-114670375D01*
X114108301Y-114796290D01*
X114122142Y-114829705D01*
X114217955Y-114973099D01*
X114339901Y-115095045D01*
X114483295Y-115190858D01*
X114642626Y-115256855D01*
X114642632Y-115256856D01*
X114642635Y-115256857D01*
X114811765Y-115290499D01*
X114811768Y-115290499D01*
X114811771Y-115290500D01*
X114811772Y-115290500D01*
X114984228Y-115290500D01*
X114984229Y-115290500D01*
X115153374Y-115256855D01*
X115312705Y-115190858D01*
X115456099Y-115095045D01*
X115578045Y-114973099D01*
X115673858Y-114829705D01*
X115739855Y-114670374D01*
X115773500Y-114501229D01*
X115773500Y-114328771D01*
X115773499Y-114328765D01*
X116022500Y-114328765D01*
X116022500Y-114501234D01*
X116056142Y-114670364D01*
X116056145Y-114670375D01*
X116108301Y-114796290D01*
X116122142Y-114829705D01*
X116217955Y-114973099D01*
X116339901Y-115095045D01*
X116483295Y-115190858D01*
X116642626Y-115256855D01*
X116642632Y-115256856D01*
X116642635Y-115256857D01*
X116811765Y-115290499D01*
X116811768Y-115290499D01*
X116811771Y-115290500D01*
X116811772Y-115290500D01*
X116984228Y-115290500D01*
X116984229Y-115290500D01*
X117153374Y-115256855D01*
X117312705Y-115190858D01*
X117456099Y-115095045D01*
X117465205Y-115085939D01*
X126347500Y-115085939D01*
X126347500Y-115244060D01*
X126388422Y-115396782D01*
X126388423Y-115396786D01*
X126467475Y-115533709D01*
X126467478Y-115533713D01*
X126467480Y-115533716D01*
X126579284Y-115645520D01*
X126579287Y-115645521D01*
X126579290Y-115645524D01*
X126716213Y-115724576D01*
X126716215Y-115724576D01*
X126716216Y-115724577D01*
X126836665Y-115756851D01*
X126868939Y-115765499D01*
X126868940Y-115765500D01*
X126868943Y-115765500D01*
X127027060Y-115765500D01*
X127027060Y-115765499D01*
X127179784Y-115724577D01*
X127316716Y-115645520D01*
X127428520Y-115533716D01*
X127478711Y-115446782D01*
X127507576Y-115396786D01*
X127507576Y-115396785D01*
X127507577Y-115396784D01*
X127548499Y-115244060D01*
X127548500Y-115244060D01*
X127548500Y-115085940D01*
X127548499Y-115085939D01*
X127520974Y-114983216D01*
X127507577Y-114933216D01*
X127507576Y-114933215D01*
X127507576Y-114933213D01*
X127428524Y-114796290D01*
X127428521Y-114796287D01*
X127428520Y-114796284D01*
X127316716Y-114684480D01*
X127316713Y-114684478D01*
X127316709Y-114684475D01*
X127179786Y-114605423D01*
X127179782Y-114605422D01*
X127027060Y-114564500D01*
X127027057Y-114564500D01*
X126868943Y-114564500D01*
X126868940Y-114564500D01*
X126716217Y-114605422D01*
X126716213Y-114605423D01*
X126579290Y-114684475D01*
X126579281Y-114684482D01*
X126467482Y-114796281D01*
X126467475Y-114796290D01*
X126388423Y-114933213D01*
X126388422Y-114933217D01*
X126347500Y-115085939D01*
X117465205Y-115085939D01*
X117578045Y-114973099D01*
X117673858Y-114829705D01*
X117739855Y-114670374D01*
X117773500Y-114501229D01*
X117773500Y-114328771D01*
X117766886Y-114295520D01*
X117739857Y-114159635D01*
X117739854Y-114159624D01*
X117673858Y-114000295D01*
X117578045Y-113856901D01*
X117457083Y-113735939D01*
X123297500Y-113735939D01*
X123297500Y-113894060D01*
X123338422Y-114046782D01*
X123338423Y-114046786D01*
X123417475Y-114183709D01*
X123417478Y-114183713D01*
X123417480Y-114183716D01*
X123529284Y-114295520D01*
X123529287Y-114295521D01*
X123529290Y-114295524D01*
X123666213Y-114374576D01*
X123666215Y-114374576D01*
X123666216Y-114374577D01*
X123700331Y-114383718D01*
X123818939Y-114415499D01*
X123818940Y-114415500D01*
X123818943Y-114415500D01*
X123977060Y-114415500D01*
X123977060Y-114415499D01*
X124129784Y-114374577D01*
X124209134Y-114328765D01*
X124266709Y-114295524D01*
X124266708Y-114295524D01*
X124266716Y-114295520D01*
X124378520Y-114183716D01*
X124395218Y-114154792D01*
X124457576Y-114046786D01*
X124457576Y-114046785D01*
X124457577Y-114046784D01*
X124498499Y-113894060D01*
X124498500Y-113894060D01*
X124498500Y-113735940D01*
X124498499Y-113735939D01*
X124489851Y-113703665D01*
X124457577Y-113583216D01*
X124457576Y-113583215D01*
X124457576Y-113583213D01*
X124378524Y-113446290D01*
X124378521Y-113446287D01*
X124378520Y-113446284D01*
X124266716Y-113334480D01*
X124266713Y-113334478D01*
X124266709Y-113334475D01*
X124129786Y-113255423D01*
X124129782Y-113255422D01*
X123977060Y-113214500D01*
X123977057Y-113214500D01*
X123818943Y-113214500D01*
X123818940Y-113214500D01*
X123666217Y-113255422D01*
X123666213Y-113255423D01*
X123529290Y-113334475D01*
X123529281Y-113334482D01*
X123417482Y-113446281D01*
X123417475Y-113446290D01*
X123338423Y-113583213D01*
X123338422Y-113583217D01*
X123297500Y-113735939D01*
X117457083Y-113735939D01*
X117456099Y-113734955D01*
X117312705Y-113639142D01*
X117312702Y-113639140D01*
X117312701Y-113639140D01*
X117153375Y-113573145D01*
X117153364Y-113573142D01*
X116984234Y-113539500D01*
X116984229Y-113539500D01*
X116811771Y-113539500D01*
X116811765Y-113539500D01*
X116642635Y-113573142D01*
X116642624Y-113573145D01*
X116483298Y-113639140D01*
X116339901Y-113734954D01*
X116217954Y-113856901D01*
X116122140Y-114000298D01*
X116056145Y-114159624D01*
X116056142Y-114159635D01*
X116022500Y-114328765D01*
X115773499Y-114328765D01*
X115766886Y-114295520D01*
X115739857Y-114159635D01*
X115739854Y-114159624D01*
X115673858Y-114000295D01*
X115578045Y-113856901D01*
X115456099Y-113734955D01*
X115312705Y-113639142D01*
X115312702Y-113639140D01*
X115312701Y-113639140D01*
X115153375Y-113573145D01*
X115153364Y-113573142D01*
X114984234Y-113539500D01*
X114984229Y-113539500D01*
X114811771Y-113539500D01*
X114811765Y-113539500D01*
X114642635Y-113573142D01*
X114642624Y-113573145D01*
X114483298Y-113639140D01*
X114339901Y-113734954D01*
X114217954Y-113856901D01*
X114122140Y-114000298D01*
X114056145Y-114159624D01*
X114056142Y-114159635D01*
X114022500Y-114328765D01*
X111498500Y-114328765D01*
X111498500Y-112328765D01*
X114022500Y-112328765D01*
X114022500Y-112501234D01*
X114056142Y-112670364D01*
X114056145Y-112670375D01*
X114079801Y-112727485D01*
X114122142Y-112829705D01*
X114217955Y-112973099D01*
X114339901Y-113095045D01*
X114483295Y-113190858D01*
X114642626Y-113256855D01*
X114642632Y-113256856D01*
X114642635Y-113256857D01*
X114811765Y-113290499D01*
X114811768Y-113290499D01*
X114811771Y-113290500D01*
X114811772Y-113290500D01*
X114984228Y-113290500D01*
X114984229Y-113290500D01*
X115153374Y-113256855D01*
X115312705Y-113190858D01*
X115456099Y-113095045D01*
X115578045Y-112973099D01*
X115673858Y-112829705D01*
X115739855Y-112670374D01*
X115773500Y-112501229D01*
X115773500Y-112328771D01*
X115773499Y-112328765D01*
X116022500Y-112328765D01*
X116022500Y-112501234D01*
X116056142Y-112670364D01*
X116056145Y-112670375D01*
X116079801Y-112727485D01*
X116122142Y-112829705D01*
X116217955Y-112973099D01*
X116339901Y-113095045D01*
X116483295Y-113190858D01*
X116642626Y-113256855D01*
X116642632Y-113256856D01*
X116642635Y-113256857D01*
X116811765Y-113290499D01*
X116811768Y-113290499D01*
X116811771Y-113290500D01*
X116811772Y-113290500D01*
X116984228Y-113290500D01*
X116984229Y-113290500D01*
X117153374Y-113256855D01*
X117312705Y-113190858D01*
X117456099Y-113095045D01*
X117578045Y-112973099D01*
X117673858Y-112829705D01*
X117739855Y-112670374D01*
X117773500Y-112501229D01*
X117773500Y-112328771D01*
X117739855Y-112159626D01*
X117673858Y-112000295D01*
X117578045Y-111856901D01*
X117456099Y-111734955D01*
X117312705Y-111639142D01*
X117312702Y-111639140D01*
X117312701Y-111639140D01*
X117153375Y-111573145D01*
X117153364Y-111573142D01*
X116984234Y-111539500D01*
X116984229Y-111539500D01*
X116811771Y-111539500D01*
X116811765Y-111539500D01*
X116642635Y-111573142D01*
X116642624Y-111573145D01*
X116483298Y-111639140D01*
X116339901Y-111734954D01*
X116217954Y-111856901D01*
X116122140Y-112000298D01*
X116056145Y-112159624D01*
X116056142Y-112159635D01*
X116022500Y-112328765D01*
X115773499Y-112328765D01*
X115739855Y-112159626D01*
X115673858Y-112000295D01*
X115578045Y-111856901D01*
X115456099Y-111734955D01*
X115312705Y-111639142D01*
X115312702Y-111639140D01*
X115312701Y-111639140D01*
X115153375Y-111573145D01*
X115153364Y-111573142D01*
X114984234Y-111539500D01*
X114984229Y-111539500D01*
X114811771Y-111539500D01*
X114811765Y-111539500D01*
X114642635Y-111573142D01*
X114642624Y-111573145D01*
X114483298Y-111639140D01*
X114339901Y-111734954D01*
X114217954Y-111856901D01*
X114122140Y-112000298D01*
X114056145Y-112159624D01*
X114056142Y-112159635D01*
X114022500Y-112328765D01*
X111498500Y-112328765D01*
X111498500Y-111385939D01*
X123597500Y-111385939D01*
X123597500Y-111544060D01*
X123638422Y-111696782D01*
X123638423Y-111696786D01*
X123717475Y-111833709D01*
X123717478Y-111833713D01*
X123717480Y-111833716D01*
X123829284Y-111945520D01*
X123829287Y-111945521D01*
X123829290Y-111945524D01*
X123966213Y-112024576D01*
X123966215Y-112024576D01*
X123966216Y-112024577D01*
X124084679Y-112056319D01*
X124118939Y-112065499D01*
X124118940Y-112065500D01*
X124118943Y-112065500D01*
X124277060Y-112065500D01*
X124277060Y-112065499D01*
X124429784Y-112024577D01*
X124566716Y-111945520D01*
X124678520Y-111833716D01*
X124757577Y-111696784D01*
X124798499Y-111544060D01*
X124798500Y-111544060D01*
X124798500Y-111385940D01*
X124798499Y-111385939D01*
X124765851Y-111264095D01*
X124757577Y-111233216D01*
X124757576Y-111233215D01*
X124757576Y-111233213D01*
X124678524Y-111096290D01*
X124678521Y-111096287D01*
X124678520Y-111096284D01*
X124566716Y-110984480D01*
X124566713Y-110984478D01*
X124566709Y-110984475D01*
X124429786Y-110905423D01*
X124429782Y-110905422D01*
X124277060Y-110864500D01*
X124277057Y-110864500D01*
X124118943Y-110864500D01*
X124118940Y-110864500D01*
X123966217Y-110905422D01*
X123966213Y-110905423D01*
X123829290Y-110984475D01*
X123829281Y-110984482D01*
X123717482Y-111096281D01*
X123717475Y-111096290D01*
X123638423Y-111233213D01*
X123638422Y-111233217D01*
X123597500Y-111385939D01*
X111498500Y-111385939D01*
X111498500Y-110328765D01*
X114022500Y-110328765D01*
X114022500Y-110501234D01*
X114056142Y-110670364D01*
X114056145Y-110670375D01*
X114067084Y-110696784D01*
X114122142Y-110829705D01*
X114217955Y-110973099D01*
X114339901Y-111095045D01*
X114483295Y-111190858D01*
X114642626Y-111256855D01*
X114642632Y-111256856D01*
X114642635Y-111256857D01*
X114811765Y-111290499D01*
X114811768Y-111290499D01*
X114811771Y-111290500D01*
X114811772Y-111290500D01*
X114984228Y-111290500D01*
X114984229Y-111290500D01*
X115153374Y-111256855D01*
X115312705Y-111190858D01*
X115456099Y-111095045D01*
X115578045Y-110973099D01*
X115673858Y-110829705D01*
X115739855Y-110670374D01*
X115773500Y-110501229D01*
X115773500Y-110328771D01*
X115773499Y-110328765D01*
X116022500Y-110328765D01*
X116022500Y-110501234D01*
X116056142Y-110670364D01*
X116056145Y-110670375D01*
X116067084Y-110696784D01*
X116122142Y-110829705D01*
X116217955Y-110973099D01*
X116339901Y-111095045D01*
X116483295Y-111190858D01*
X116642626Y-111256855D01*
X116642632Y-111256856D01*
X116642635Y-111256857D01*
X116811765Y-111290499D01*
X116811768Y-111290499D01*
X116811771Y-111290500D01*
X116811772Y-111290500D01*
X116984228Y-111290500D01*
X116984229Y-111290500D01*
X117153374Y-111256855D01*
X117312705Y-111190858D01*
X117456099Y-111095045D01*
X117578045Y-110973099D01*
X117673858Y-110829705D01*
X117739855Y-110670374D01*
X117773500Y-110501229D01*
X117773500Y-110385939D01*
X127397500Y-110385939D01*
X127397500Y-110544060D01*
X127438422Y-110696782D01*
X127438423Y-110696786D01*
X127517475Y-110833709D01*
X127517478Y-110833713D01*
X127517480Y-110833716D01*
X127629284Y-110945520D01*
X127629287Y-110945521D01*
X127629290Y-110945524D01*
X127766213Y-111024576D01*
X127766215Y-111024576D01*
X127766216Y-111024577D01*
X127886665Y-111056851D01*
X127918939Y-111065499D01*
X127918940Y-111065500D01*
X127918943Y-111065500D01*
X128077060Y-111065500D01*
X128077060Y-111065499D01*
X128229784Y-111024577D01*
X128366716Y-110945520D01*
X128478520Y-110833716D01*
X128557577Y-110696784D01*
X128598499Y-110544060D01*
X128598500Y-110544060D01*
X128598500Y-110385940D01*
X128598499Y-110385939D01*
X130147500Y-110385939D01*
X130147500Y-110544060D01*
X130188422Y-110696782D01*
X130188423Y-110696786D01*
X130267475Y-110833709D01*
X130267478Y-110833713D01*
X130267480Y-110833716D01*
X130379284Y-110945520D01*
X130379287Y-110945521D01*
X130379290Y-110945524D01*
X130516213Y-111024576D01*
X130516215Y-111024576D01*
X130516216Y-111024577D01*
X130636665Y-111056851D01*
X130668939Y-111065499D01*
X130668940Y-111065500D01*
X130668943Y-111065500D01*
X130827060Y-111065500D01*
X130827060Y-111065499D01*
X130979784Y-111024577D01*
X131116716Y-110945520D01*
X131228520Y-110833716D01*
X131307577Y-110696784D01*
X131348499Y-110544060D01*
X131348500Y-110544060D01*
X131348500Y-110385940D01*
X131348499Y-110385939D01*
X131307577Y-110233217D01*
X131307576Y-110233213D01*
X131228524Y-110096290D01*
X131228521Y-110096287D01*
X131228520Y-110096284D01*
X131116716Y-109984480D01*
X131116713Y-109984478D01*
X131116709Y-109984475D01*
X130979786Y-109905423D01*
X130979782Y-109905422D01*
X130827060Y-109864500D01*
X130827057Y-109864500D01*
X130668943Y-109864500D01*
X130668940Y-109864500D01*
X130516217Y-109905422D01*
X130516213Y-109905423D01*
X130379290Y-109984475D01*
X130379281Y-109984482D01*
X130267482Y-110096281D01*
X130267475Y-110096290D01*
X130188423Y-110233213D01*
X130188422Y-110233217D01*
X130147500Y-110385939D01*
X128598499Y-110385939D01*
X128557577Y-110233217D01*
X128557576Y-110233213D01*
X128478524Y-110096290D01*
X128478521Y-110096287D01*
X128478520Y-110096284D01*
X128366716Y-109984480D01*
X128366713Y-109984478D01*
X128366709Y-109984475D01*
X128229786Y-109905423D01*
X128229782Y-109905422D01*
X128077060Y-109864500D01*
X128077057Y-109864500D01*
X127918943Y-109864500D01*
X127918940Y-109864500D01*
X127766217Y-109905422D01*
X127766213Y-109905423D01*
X127629290Y-109984475D01*
X127629281Y-109984482D01*
X127517482Y-110096281D01*
X127517475Y-110096290D01*
X127438423Y-110233213D01*
X127438422Y-110233217D01*
X127397500Y-110385939D01*
X117773500Y-110385939D01*
X117773500Y-110328771D01*
X117754493Y-110233216D01*
X117739857Y-110159635D01*
X117739854Y-110159624D01*
X117713618Y-110096284D01*
X117673858Y-110000295D01*
X117578045Y-109856901D01*
X117456099Y-109734955D01*
X117312705Y-109639142D01*
X117312702Y-109639140D01*
X117312701Y-109639140D01*
X117153375Y-109573145D01*
X117153364Y-109573142D01*
X116984234Y-109539500D01*
X116984229Y-109539500D01*
X116811771Y-109539500D01*
X116811765Y-109539500D01*
X116642635Y-109573142D01*
X116642624Y-109573145D01*
X116483298Y-109639140D01*
X116339901Y-109734954D01*
X116217954Y-109856901D01*
X116122140Y-110000298D01*
X116056145Y-110159624D01*
X116056142Y-110159635D01*
X116022500Y-110328765D01*
X115773499Y-110328765D01*
X115754493Y-110233216D01*
X115739857Y-110159635D01*
X115739854Y-110159624D01*
X115713618Y-110096284D01*
X115673858Y-110000295D01*
X115578045Y-109856901D01*
X115456099Y-109734955D01*
X115312705Y-109639142D01*
X115312702Y-109639140D01*
X115312701Y-109639140D01*
X115153375Y-109573145D01*
X115153364Y-109573142D01*
X114984234Y-109539500D01*
X114984229Y-109539500D01*
X114811771Y-109539500D01*
X114811765Y-109539500D01*
X114642635Y-109573142D01*
X114642624Y-109573145D01*
X114483298Y-109639140D01*
X114339901Y-109734954D01*
X114217954Y-109856901D01*
X114122140Y-110000298D01*
X114056145Y-110159624D01*
X114056142Y-110159635D01*
X114022500Y-110328765D01*
X111498500Y-110328765D01*
X111498500Y-108328765D01*
X114022500Y-108328765D01*
X114022500Y-108501234D01*
X114056142Y-108670364D01*
X114056145Y-108670375D01*
X114122140Y-108829701D01*
X114122142Y-108829705D01*
X114217955Y-108973099D01*
X114339901Y-109095045D01*
X114483295Y-109190858D01*
X114642626Y-109256855D01*
X114642632Y-109256856D01*
X114642635Y-109256857D01*
X114811765Y-109290499D01*
X114811768Y-109290499D01*
X114811771Y-109290500D01*
X114811772Y-109290500D01*
X114984228Y-109290500D01*
X114984229Y-109290500D01*
X115153374Y-109256855D01*
X115312705Y-109190858D01*
X115456099Y-109095045D01*
X115578045Y-108973099D01*
X115673858Y-108829705D01*
X115739855Y-108670374D01*
X115773500Y-108501229D01*
X115773500Y-108328771D01*
X115773499Y-108328765D01*
X116022500Y-108328765D01*
X116022500Y-108501234D01*
X116056142Y-108670364D01*
X116056145Y-108670375D01*
X116122140Y-108829701D01*
X116122142Y-108829705D01*
X116217955Y-108973099D01*
X116339901Y-109095045D01*
X116483295Y-109190858D01*
X116642626Y-109256855D01*
X116642632Y-109256856D01*
X116642635Y-109256857D01*
X116811765Y-109290499D01*
X116811768Y-109290499D01*
X116811771Y-109290500D01*
X116811772Y-109290500D01*
X116984228Y-109290500D01*
X116984229Y-109290500D01*
X117153374Y-109256855D01*
X117312705Y-109190858D01*
X117456099Y-109095045D01*
X117539609Y-109011535D01*
X122947500Y-109011535D01*
X122947500Y-109218465D01*
X122961829Y-109290500D01*
X122987869Y-109421417D01*
X122987871Y-109421423D01*
X123050716Y-109573142D01*
X123067059Y-109612598D01*
X123182023Y-109784655D01*
X123328345Y-109930977D01*
X123500402Y-110045941D01*
X123691580Y-110125130D01*
X123894535Y-110165500D01*
X123894538Y-110165500D01*
X124101462Y-110165500D01*
X124101465Y-110165500D01*
X124304420Y-110125130D01*
X124495598Y-110045941D01*
X124667655Y-109930977D01*
X124813977Y-109784655D01*
X124928941Y-109612598D01*
X125008130Y-109421420D01*
X125048500Y-109218465D01*
X125048500Y-109011535D01*
X125008130Y-108808580D01*
X124928941Y-108617402D01*
X124813977Y-108445345D01*
X124667655Y-108299023D01*
X124495598Y-108184059D01*
X124463199Y-108170639D01*
X124450749Y-108165481D01*
X124327433Y-108114402D01*
X124304423Y-108104871D01*
X124304417Y-108104869D01*
X124209252Y-108085940D01*
X124209247Y-108085939D01*
X127297500Y-108085939D01*
X127297500Y-108244060D01*
X127338422Y-108396782D01*
X127338423Y-108396786D01*
X127417475Y-108533709D01*
X127417478Y-108533713D01*
X127417480Y-108533716D01*
X127529284Y-108645520D01*
X127529287Y-108645521D01*
X127529290Y-108645524D01*
X127666213Y-108724576D01*
X127666215Y-108724576D01*
X127666216Y-108724577D01*
X127786665Y-108756851D01*
X127818939Y-108765499D01*
X127818940Y-108765500D01*
X127818943Y-108765500D01*
X127977060Y-108765500D01*
X127977060Y-108765499D01*
X128129784Y-108724577D01*
X128223666Y-108670375D01*
X128266709Y-108645524D01*
X128266708Y-108645524D01*
X128266716Y-108645520D01*
X128378520Y-108533716D01*
X128457577Y-108396784D01*
X128498499Y-108244060D01*
X128498500Y-108244060D01*
X128498500Y-108085940D01*
X128498499Y-108085939D01*
X130097500Y-108085939D01*
X130097500Y-108244060D01*
X130138422Y-108396782D01*
X130138423Y-108396786D01*
X130217475Y-108533709D01*
X130217478Y-108533713D01*
X130217480Y-108533716D01*
X130329284Y-108645520D01*
X130329287Y-108645521D01*
X130329290Y-108645524D01*
X130466213Y-108724576D01*
X130466215Y-108724576D01*
X130466216Y-108724577D01*
X130586665Y-108756851D01*
X130618939Y-108765499D01*
X130618940Y-108765500D01*
X130618943Y-108765500D01*
X130777060Y-108765500D01*
X130777060Y-108765499D01*
X130929784Y-108724577D01*
X131023666Y-108670375D01*
X131066709Y-108645524D01*
X131066708Y-108645524D01*
X131066716Y-108645520D01*
X131178520Y-108533716D01*
X131257577Y-108396784D01*
X131298499Y-108244060D01*
X131298500Y-108244060D01*
X131298500Y-108085940D01*
X131298499Y-108085939D01*
X131276725Y-108004676D01*
X131257577Y-107933216D01*
X131257576Y-107933215D01*
X131257576Y-107933213D01*
X131178524Y-107796290D01*
X131178521Y-107796287D01*
X131178520Y-107796284D01*
X131066716Y-107684480D01*
X131066713Y-107684478D01*
X131066709Y-107684475D01*
X130929786Y-107605423D01*
X130929782Y-107605422D01*
X130777060Y-107564500D01*
X130777057Y-107564500D01*
X130618943Y-107564500D01*
X130618940Y-107564500D01*
X130466217Y-107605422D01*
X130466213Y-107605423D01*
X130329290Y-107684475D01*
X130329281Y-107684482D01*
X130217482Y-107796281D01*
X130217475Y-107796290D01*
X130138423Y-107933213D01*
X130138422Y-107933217D01*
X130097500Y-108085939D01*
X128498499Y-108085939D01*
X128476725Y-108004676D01*
X128457577Y-107933216D01*
X128457576Y-107933215D01*
X128457576Y-107933213D01*
X128378524Y-107796290D01*
X128378521Y-107796287D01*
X128378520Y-107796284D01*
X128266716Y-107684480D01*
X128266713Y-107684478D01*
X128266709Y-107684475D01*
X128129786Y-107605423D01*
X128129782Y-107605422D01*
X127977060Y-107564500D01*
X127977057Y-107564500D01*
X127818943Y-107564500D01*
X127818940Y-107564500D01*
X127666217Y-107605422D01*
X127666213Y-107605423D01*
X127529290Y-107684475D01*
X127529281Y-107684482D01*
X127417482Y-107796281D01*
X127417475Y-107796290D01*
X127338423Y-107933213D01*
X127338422Y-107933217D01*
X127297500Y-108085939D01*
X124209247Y-108085939D01*
X124101465Y-108064500D01*
X123894535Y-108064500D01*
X123793520Y-108084592D01*
X123691582Y-108104869D01*
X123691576Y-108104871D01*
X123500403Y-108184058D01*
X123328345Y-108299022D01*
X123182022Y-108445345D01*
X123067058Y-108617403D01*
X122987871Y-108808576D01*
X122987869Y-108808582D01*
X122983668Y-108829705D01*
X122947500Y-109011535D01*
X117539609Y-109011535D01*
X117578045Y-108973099D01*
X117673858Y-108829705D01*
X117739855Y-108670374D01*
X117773500Y-108501229D01*
X117773500Y-108328771D01*
X117756650Y-108244060D01*
X117739857Y-108159635D01*
X117739854Y-108159624D01*
X117673858Y-108000295D01*
X117578045Y-107856901D01*
X117456099Y-107734955D01*
X117312705Y-107639142D01*
X117312702Y-107639140D01*
X117312701Y-107639140D01*
X117153375Y-107573145D01*
X117153364Y-107573142D01*
X116984234Y-107539500D01*
X116984229Y-107539500D01*
X116811771Y-107539500D01*
X116811765Y-107539500D01*
X116642635Y-107573142D01*
X116642624Y-107573145D01*
X116483298Y-107639140D01*
X116339901Y-107734954D01*
X116217954Y-107856901D01*
X116122140Y-108000298D01*
X116056145Y-108159624D01*
X116056142Y-108159635D01*
X116022500Y-108328765D01*
X115773499Y-108328765D01*
X115756650Y-108244060D01*
X115739857Y-108159635D01*
X115739854Y-108159624D01*
X115673858Y-108000295D01*
X115578045Y-107856901D01*
X115456099Y-107734955D01*
X115312705Y-107639142D01*
X115312702Y-107639140D01*
X115312701Y-107639140D01*
X115153375Y-107573145D01*
X115153364Y-107573142D01*
X114984234Y-107539500D01*
X114984229Y-107539500D01*
X114811771Y-107539500D01*
X114811765Y-107539500D01*
X114642635Y-107573142D01*
X114642624Y-107573145D01*
X114483298Y-107639140D01*
X114339901Y-107734954D01*
X114217954Y-107856901D01*
X114122140Y-108000298D01*
X114056145Y-108159624D01*
X114056142Y-108159635D01*
X114022500Y-108328765D01*
X111498500Y-108328765D01*
X111498500Y-106328765D01*
X114022500Y-106328765D01*
X114022500Y-106501234D01*
X114056142Y-106670364D01*
X114056145Y-106670375D01*
X114122140Y-106829701D01*
X114122142Y-106829705D01*
X114217955Y-106973099D01*
X114339901Y-107095045D01*
X114483295Y-107190858D01*
X114642626Y-107256855D01*
X114642632Y-107256856D01*
X114642635Y-107256857D01*
X114811765Y-107290499D01*
X114811768Y-107290499D01*
X114811771Y-107290500D01*
X114811772Y-107290500D01*
X114984228Y-107290500D01*
X114984229Y-107290500D01*
X115153374Y-107256855D01*
X115312705Y-107190858D01*
X115456099Y-107095045D01*
X115578045Y-106973099D01*
X115673858Y-106829705D01*
X115739855Y-106670374D01*
X115773500Y-106501229D01*
X115773500Y-106328771D01*
X115771540Y-106318916D01*
X115739857Y-106159635D01*
X115739854Y-106159624D01*
X115673858Y-106000295D01*
X115578045Y-105856901D01*
X115456099Y-105734955D01*
X115312705Y-105639142D01*
X115312702Y-105639140D01*
X115312701Y-105639140D01*
X115153375Y-105573145D01*
X115153364Y-105573142D01*
X114984234Y-105539500D01*
X114984229Y-105539500D01*
X114811771Y-105539500D01*
X114811765Y-105539500D01*
X114642635Y-105573142D01*
X114642624Y-105573145D01*
X114483298Y-105639140D01*
X114339901Y-105734954D01*
X114217954Y-105856901D01*
X114122140Y-106000298D01*
X114056145Y-106159624D01*
X114056142Y-106159635D01*
X114022500Y-106328765D01*
X111498500Y-106328765D01*
X111498500Y-78135940D01*
X111597499Y-78135940D01*
X111597499Y-78298000D01*
X111597500Y-78298013D01*
X111597500Y-97882929D01*
X111597499Y-97882947D01*
X111597499Y-98044059D01*
X111638421Y-98196781D01*
X111638422Y-98196783D01*
X111638423Y-98196785D01*
X111648651Y-98214500D01*
X111717480Y-98333716D01*
X111832074Y-98448310D01*
X111832080Y-98448315D01*
X112033148Y-98649383D01*
X112047500Y-98684031D01*
X112047500Y-102082929D01*
X112047499Y-102082947D01*
X112047499Y-102244059D01*
X112088421Y-102396781D01*
X112088422Y-102396783D01*
X112088423Y-102396785D01*
X112117360Y-102446904D01*
X112117361Y-102446905D01*
X112167477Y-102533712D01*
X112167482Y-102533718D01*
X112282074Y-102648310D01*
X112282080Y-102648315D01*
X114008148Y-104374383D01*
X114022500Y-104409031D01*
X114022500Y-104501234D01*
X114056142Y-104670364D01*
X114056145Y-104670375D01*
X114122140Y-104829701D01*
X114122142Y-104829705D01*
X114217955Y-104973099D01*
X114339901Y-105095045D01*
X114483295Y-105190858D01*
X114642626Y-105256855D01*
X114642632Y-105256856D01*
X114642635Y-105256857D01*
X114811765Y-105290499D01*
X114811768Y-105290499D01*
X114811771Y-105290500D01*
X114811772Y-105290500D01*
X114984228Y-105290500D01*
X114984229Y-105290500D01*
X115153374Y-105256855D01*
X115312705Y-105190858D01*
X115456099Y-105095045D01*
X115578045Y-104973099D01*
X115673858Y-104829705D01*
X115739855Y-104670374D01*
X115773500Y-104501229D01*
X115773500Y-104328771D01*
X115771540Y-104318916D01*
X115922500Y-104318916D01*
X115922500Y-104511083D01*
X115959985Y-104699533D01*
X115959988Y-104699544D01*
X116033522Y-104877072D01*
X116140277Y-105036842D01*
X116276157Y-105172722D01*
X116402071Y-105256855D01*
X116435927Y-105279477D01*
X116613457Y-105353012D01*
X116613463Y-105353013D01*
X116613466Y-105353014D01*
X116683485Y-105366942D01*
X116714668Y-105387777D01*
X116721984Y-105424559D01*
X116701149Y-105455742D01*
X116683485Y-105463058D01*
X116613466Y-105476985D01*
X116613455Y-105476988D01*
X116435927Y-105550522D01*
X116276157Y-105657277D01*
X116140277Y-105793157D01*
X116033522Y-105952927D01*
X115959988Y-106130455D01*
X115959985Y-106130466D01*
X115922500Y-106318916D01*
X115922500Y-106511083D01*
X115959985Y-106699533D01*
X115959988Y-106699544D01*
X116033522Y-106877072D01*
X116140277Y-107036842D01*
X116276157Y-107172722D01*
X116402071Y-107256855D01*
X116435927Y-107279477D01*
X116613457Y-107353012D01*
X116613463Y-107353013D01*
X116613466Y-107353014D01*
X116801916Y-107390499D01*
X116801919Y-107390499D01*
X116801922Y-107390500D01*
X116801923Y-107390500D01*
X116994077Y-107390500D01*
X116994078Y-107390500D01*
X117182543Y-107353012D01*
X117360073Y-107279477D01*
X117519845Y-107172720D01*
X117655720Y-107036845D01*
X117762477Y-106877073D01*
X117836012Y-106699543D01*
X117838718Y-106685939D01*
X123397500Y-106685939D01*
X123397500Y-106844060D01*
X123438422Y-106996782D01*
X123438423Y-106996786D01*
X123517475Y-107133709D01*
X123517478Y-107133713D01*
X123517480Y-107133716D01*
X123629284Y-107245520D01*
X123629287Y-107245521D01*
X123629290Y-107245524D01*
X123766213Y-107324576D01*
X123766215Y-107324576D01*
X123766216Y-107324577D01*
X123872333Y-107353011D01*
X123918939Y-107365499D01*
X123918940Y-107365500D01*
X123918943Y-107365500D01*
X124077060Y-107365500D01*
X124077060Y-107365499D01*
X124229784Y-107324577D01*
X124279384Y-107295941D01*
X124366709Y-107245524D01*
X124366708Y-107245524D01*
X124366716Y-107245520D01*
X124478520Y-107133716D01*
X124557577Y-106996784D01*
X124598499Y-106844060D01*
X124598500Y-106844060D01*
X124598500Y-106685940D01*
X124598499Y-106685939D01*
X124557577Y-106533217D01*
X124557576Y-106533213D01*
X124478524Y-106396290D01*
X124478521Y-106396287D01*
X124478520Y-106396284D01*
X124366716Y-106284480D01*
X124366713Y-106284478D01*
X124366709Y-106284475D01*
X124229786Y-106205423D01*
X124229782Y-106205422D01*
X124077060Y-106164500D01*
X124077057Y-106164500D01*
X123918943Y-106164500D01*
X123918940Y-106164500D01*
X123766217Y-106205422D01*
X123766213Y-106205423D01*
X123629290Y-106284475D01*
X123629281Y-106284482D01*
X123517482Y-106396281D01*
X123517475Y-106396290D01*
X123438423Y-106533213D01*
X123438422Y-106533217D01*
X123397500Y-106685939D01*
X117838718Y-106685939D01*
X117873500Y-106511078D01*
X117873500Y-106318922D01*
X117873499Y-106318916D01*
X117836014Y-106130466D01*
X117836011Y-106130455D01*
X117807657Y-106062003D01*
X117762477Y-105952927D01*
X117655722Y-105793157D01*
X117519842Y-105657277D01*
X117360072Y-105550522D01*
X117182543Y-105476988D01*
X117182528Y-105476985D01*
X117112512Y-105463058D01*
X117081331Y-105442223D01*
X117074014Y-105405441D01*
X117094850Y-105374258D01*
X117112511Y-105366942D01*
X117182543Y-105353012D01*
X117360073Y-105279477D01*
X117519845Y-105172720D01*
X117655720Y-105036845D01*
X117762477Y-104877073D01*
X117836012Y-104699543D01*
X117873500Y-104511078D01*
X117873500Y-104318922D01*
X117836012Y-104130457D01*
X117762477Y-103952927D01*
X117698314Y-103856901D01*
X117655722Y-103793157D01*
X117519842Y-103657277D01*
X117360072Y-103550522D01*
X117182544Y-103476988D01*
X117182533Y-103476985D01*
X116994083Y-103439500D01*
X116994078Y-103439500D01*
X116801922Y-103439500D01*
X116801916Y-103439500D01*
X116613466Y-103476985D01*
X116613455Y-103476988D01*
X116435927Y-103550522D01*
X116276157Y-103657277D01*
X116140277Y-103793157D01*
X116033522Y-103952927D01*
X115959988Y-104130455D01*
X115959985Y-104130466D01*
X115922500Y-104318916D01*
X115771540Y-104318916D01*
X115739855Y-104159626D01*
X115673858Y-104000295D01*
X115578045Y-103856901D01*
X115456099Y-103734955D01*
X115312705Y-103639142D01*
X115312702Y-103639140D01*
X115312701Y-103639140D01*
X115153375Y-103573145D01*
X115153364Y-103573142D01*
X114984234Y-103539500D01*
X114984229Y-103539500D01*
X114892032Y-103539500D01*
X114857384Y-103525148D01*
X113262852Y-101930616D01*
X113248500Y-101895968D01*
X113248500Y-100772410D01*
X113722500Y-100772410D01*
X113722500Y-101057590D01*
X113759723Y-101340330D01*
X113759724Y-101340334D01*
X113759725Y-101340341D01*
X113833530Y-101615785D01*
X113833534Y-101615795D01*
X113942667Y-101879265D01*
X114085255Y-102126233D01*
X114085265Y-102126248D01*
X114258858Y-102352479D01*
X114258868Y-102352491D01*
X114460508Y-102554131D01*
X114460520Y-102554141D01*
X114686751Y-102727734D01*
X114686760Y-102727740D01*
X114686764Y-102727743D01*
X114933736Y-102870333D01*
X115197208Y-102979467D01*
X115197211Y-102979467D01*
X115197214Y-102979469D01*
X115472658Y-103053274D01*
X115472659Y-103053274D01*
X115472670Y-103053277D01*
X115755410Y-103090500D01*
X115755414Y-103090500D01*
X116040586Y-103090500D01*
X116040590Y-103090500D01*
X116323330Y-103053277D01*
X116598792Y-102979467D01*
X116862264Y-102870333D01*
X117109236Y-102727743D01*
X117335485Y-102554137D01*
X117537137Y-102352485D01*
X117710743Y-102126236D01*
X117853333Y-101879264D01*
X117962467Y-101615792D01*
X118036277Y-101340330D01*
X118073500Y-101057590D01*
X118073500Y-100772410D01*
X118036277Y-100489670D01*
X118021284Y-100433716D01*
X117962469Y-100214214D01*
X117962465Y-100214204D01*
X117957779Y-100202892D01*
X117853333Y-99950736D01*
X117710743Y-99703764D01*
X117710740Y-99703760D01*
X117710734Y-99703751D01*
X117537141Y-99477520D01*
X117537131Y-99477508D01*
X117335491Y-99275868D01*
X117335479Y-99275858D01*
X117109248Y-99102265D01*
X117109233Y-99102255D01*
X116862265Y-98959667D01*
X116598795Y-98850534D01*
X116598785Y-98850530D01*
X116323341Y-98776725D01*
X116323334Y-98776724D01*
X116323330Y-98776723D01*
X116040590Y-98739500D01*
X115755410Y-98739500D01*
X115472670Y-98776723D01*
X115472666Y-98776723D01*
X115472658Y-98776725D01*
X115197214Y-98850530D01*
X115197204Y-98850534D01*
X114933734Y-98959667D01*
X114686766Y-99102255D01*
X114686751Y-99102265D01*
X114460520Y-99275858D01*
X114460508Y-99275868D01*
X114258868Y-99477508D01*
X114258858Y-99477520D01*
X114085265Y-99703751D01*
X114085255Y-99703766D01*
X113942667Y-99950734D01*
X113833534Y-100214204D01*
X113833530Y-100214214D01*
X113759725Y-100489658D01*
X113759723Y-100489666D01*
X113759723Y-100489670D01*
X113722500Y-100772410D01*
X113248500Y-100772410D01*
X113248500Y-98335940D01*
X113248499Y-98335939D01*
X113244021Y-98319227D01*
X113211213Y-98196784D01*
X113207577Y-98183215D01*
X113178639Y-98133095D01*
X113128520Y-98046284D01*
X113016716Y-97934480D01*
X113015010Y-97932774D01*
X113014999Y-97932764D01*
X112812852Y-97730617D01*
X112798500Y-97695969D01*
X112798500Y-93310939D01*
X124997500Y-93310939D01*
X124997500Y-93469060D01*
X125038422Y-93621782D01*
X125038423Y-93621786D01*
X125117475Y-93758709D01*
X125117478Y-93758713D01*
X125117480Y-93758716D01*
X125229284Y-93870520D01*
X125229287Y-93870521D01*
X125229290Y-93870524D01*
X125366213Y-93949576D01*
X125366215Y-93949576D01*
X125366216Y-93949577D01*
X125486665Y-93981851D01*
X125518939Y-93990499D01*
X125518940Y-93990500D01*
X125518943Y-93990500D01*
X125677060Y-93990500D01*
X125677060Y-93990499D01*
X125829784Y-93949577D01*
X125966716Y-93870520D01*
X126078520Y-93758716D01*
X126115229Y-93695134D01*
X126157576Y-93621786D01*
X126157576Y-93621785D01*
X126157577Y-93621784D01*
X126198499Y-93469060D01*
X126198500Y-93469060D01*
X126198500Y-93310941D01*
X126188905Y-93275135D01*
X126193799Y-93237953D01*
X126201583Y-93227808D01*
X126571331Y-92858060D01*
X126605978Y-92843709D01*
X126624728Y-92847438D01*
X126691580Y-92875130D01*
X126894535Y-92915500D01*
X126894538Y-92915500D01*
X127101462Y-92915500D01*
X127101465Y-92915500D01*
X127304420Y-92875130D01*
X127495598Y-92795941D01*
X127667655Y-92680977D01*
X127813977Y-92534655D01*
X127928941Y-92362598D01*
X128008130Y-92171420D01*
X128048500Y-91968465D01*
X128048500Y-91761535D01*
X128008130Y-91558580D01*
X127928941Y-91367402D01*
X127813977Y-91195345D01*
X127667655Y-91049023D01*
X127495598Y-90934059D01*
X127495596Y-90934058D01*
X127304423Y-90854871D01*
X127304417Y-90854869D01*
X127222572Y-90838589D01*
X127101465Y-90814500D01*
X126894535Y-90814500D01*
X126793520Y-90834592D01*
X126691582Y-90854869D01*
X126691576Y-90854871D01*
X126500403Y-90934058D01*
X126328345Y-91049022D01*
X126182022Y-91195345D01*
X126067058Y-91367403D01*
X125987871Y-91558576D01*
X125987869Y-91558582D01*
X125982316Y-91586500D01*
X125947500Y-91761535D01*
X125947500Y-91968465D01*
X125969271Y-92077915D01*
X125987869Y-92171417D01*
X125987872Y-92171427D01*
X126015559Y-92238269D01*
X126015559Y-92275772D01*
X126004937Y-92291668D01*
X125512057Y-92784548D01*
X125490091Y-92797230D01*
X125366217Y-92830422D01*
X125366213Y-92830423D01*
X125229290Y-92909475D01*
X125229281Y-92909482D01*
X125117482Y-93021281D01*
X125117475Y-93021290D01*
X125038423Y-93158213D01*
X125038422Y-93158217D01*
X124997500Y-93310939D01*
X112798500Y-93310939D01*
X112798500Y-89935939D01*
X119097500Y-89935939D01*
X119097500Y-90094060D01*
X119138422Y-90246782D01*
X119138423Y-90246786D01*
X119217475Y-90383709D01*
X119217478Y-90383713D01*
X119217480Y-90383716D01*
X119329284Y-90495520D01*
X119329287Y-90495521D01*
X119329290Y-90495524D01*
X119466213Y-90574576D01*
X119466215Y-90574576D01*
X119466216Y-90574577D01*
X119586665Y-90606851D01*
X119618939Y-90615499D01*
X119618940Y-90615500D01*
X119618943Y-90615500D01*
X119777060Y-90615500D01*
X119777060Y-90615499D01*
X119929784Y-90574577D01*
X120066716Y-90495520D01*
X120178520Y-90383716D01*
X120257577Y-90246784D01*
X120298499Y-90094060D01*
X120298500Y-90094060D01*
X120298500Y-89935940D01*
X120298499Y-89935939D01*
X120267181Y-89819060D01*
X120257577Y-89783216D01*
X120257576Y-89783215D01*
X120257576Y-89783213D01*
X120178524Y-89646290D01*
X120178521Y-89646287D01*
X120178520Y-89646284D01*
X120066716Y-89534480D01*
X120066713Y-89534478D01*
X120066709Y-89534475D01*
X119929786Y-89455423D01*
X119929782Y-89455422D01*
X119777060Y-89414500D01*
X119777057Y-89414500D01*
X119618943Y-89414500D01*
X119618940Y-89414500D01*
X119466217Y-89455422D01*
X119466213Y-89455423D01*
X119329290Y-89534475D01*
X119329281Y-89534482D01*
X119217482Y-89646281D01*
X119217475Y-89646290D01*
X119138423Y-89783213D01*
X119138422Y-89783217D01*
X119097500Y-89935939D01*
X112798500Y-89935939D01*
X112798500Y-89633032D01*
X112812852Y-89598384D01*
X112847500Y-89584032D01*
X112882148Y-89598384D01*
X112979284Y-89695520D01*
X112979287Y-89695521D01*
X112979290Y-89695524D01*
X113116213Y-89774576D01*
X113116215Y-89774576D01*
X113116216Y-89774577D01*
X113236665Y-89806851D01*
X113268939Y-89815499D01*
X113268940Y-89815500D01*
X113268943Y-89815500D01*
X113427060Y-89815500D01*
X113427060Y-89815499D01*
X113579784Y-89774577D01*
X113585724Y-89771148D01*
X113716709Y-89695524D01*
X113716708Y-89695524D01*
X113716716Y-89695520D01*
X113828520Y-89583716D01*
X113907577Y-89446784D01*
X113934760Y-89345333D01*
X113947438Y-89323374D01*
X116268962Y-87001852D01*
X116303610Y-86987500D01*
X158553768Y-86987500D01*
X158553768Y-86987499D01*
X158681059Y-86953392D01*
X158795187Y-86887500D01*
X159180835Y-86501852D01*
X159215483Y-86487500D01*
X162271541Y-86487500D01*
X162306189Y-86501852D01*
X162318871Y-86523817D01*
X162338423Y-86596784D01*
X162338423Y-86596786D01*
X162417475Y-86733709D01*
X162417478Y-86733713D01*
X162417480Y-86733716D01*
X162529284Y-86845520D01*
X162529287Y-86845521D01*
X162529290Y-86845524D01*
X162666213Y-86924576D01*
X162666215Y-86924576D01*
X162666216Y-86924577D01*
X162773752Y-86953391D01*
X162818939Y-86965499D01*
X162818940Y-86965500D01*
X162818943Y-86965500D01*
X162977060Y-86965500D01*
X162977060Y-86965499D01*
X163129784Y-86924577D01*
X163266716Y-86845520D01*
X163378520Y-86733716D01*
X163381729Y-86728157D01*
X163430917Y-86642962D01*
X163460670Y-86620132D01*
X163497852Y-86625027D01*
X163508000Y-86632814D01*
X164156038Y-87280852D01*
X164170390Y-87315500D01*
X164156038Y-87350148D01*
X164121390Y-87364500D01*
X135200522Y-87364500D01*
X135060516Y-87402015D01*
X135060512Y-87402016D01*
X134934991Y-87474485D01*
X134934982Y-87474492D01*
X131557492Y-90851982D01*
X131557485Y-90851991D01*
X131510105Y-90934059D01*
X131485017Y-90977513D01*
X131485014Y-90977519D01*
X131447500Y-91117522D01*
X131447500Y-112266679D01*
X131433148Y-112301327D01*
X127884327Y-115850148D01*
X127849679Y-115864500D01*
X117605941Y-115864500D01*
X117571293Y-115850148D01*
X117456098Y-115734954D01*
X117397076Y-115695517D01*
X117312705Y-115639142D01*
X117312702Y-115639140D01*
X117312701Y-115639140D01*
X117153375Y-115573145D01*
X117153364Y-115573142D01*
X116984234Y-115539500D01*
X116984229Y-115539500D01*
X116811771Y-115539500D01*
X116811765Y-115539500D01*
X116642635Y-115573142D01*
X116642624Y-115573145D01*
X116483298Y-115639140D01*
X116339901Y-115734954D01*
X116217954Y-115856901D01*
X116122140Y-116000298D01*
X116056145Y-116159624D01*
X116056142Y-116159635D01*
X116022500Y-116328765D01*
X116022500Y-116501234D01*
X116056142Y-116670364D01*
X116056145Y-116670375D01*
X116110436Y-116801444D01*
X116122142Y-116829705D01*
X116182659Y-116920275D01*
X116212877Y-116965500D01*
X116217955Y-116973099D01*
X116339901Y-117095045D01*
X116483295Y-117190858D01*
X116642626Y-117256855D01*
X116642632Y-117256856D01*
X116642635Y-117256857D01*
X116811765Y-117290499D01*
X116811768Y-117290499D01*
X116811771Y-117290500D01*
X116811772Y-117290500D01*
X116984228Y-117290500D01*
X116984229Y-117290500D01*
X117153374Y-117256855D01*
X117312705Y-117190858D01*
X117456099Y-117095045D01*
X117520757Y-117030387D01*
X117571293Y-116979852D01*
X117605941Y-116965500D01*
X128170477Y-116965500D01*
X128256158Y-116942540D01*
X128310485Y-116927984D01*
X128323836Y-116920276D01*
X128436015Y-116855510D01*
X132438510Y-112853015D01*
X132510984Y-112727485D01*
X132536502Y-112632251D01*
X132548500Y-112587475D01*
X132548500Y-91438321D01*
X132562852Y-91403673D01*
X135486673Y-88479852D01*
X135521321Y-88465500D01*
X164249679Y-88465500D01*
X164284327Y-88479852D01*
X168926043Y-93121568D01*
X168932133Y-93128988D01*
X168953886Y-93161542D01*
X168953888Y-93161544D01*
X169051460Y-93259116D01*
X169075435Y-93275135D01*
X169166189Y-93335775D01*
X169293672Y-93388580D01*
X169293678Y-93388581D01*
X169293681Y-93388582D01*
X169429001Y-93415499D01*
X169429007Y-93415500D01*
X169566993Y-93415500D01*
X169666940Y-93395619D01*
X169703723Y-93402935D01*
X169724558Y-93434117D01*
X169725500Y-93443677D01*
X169725500Y-99909389D01*
X169711148Y-99944037D01*
X169315830Y-100339355D01*
X169281182Y-100353707D01*
X169246534Y-100339355D01*
X169232182Y-100304707D01*
X169233852Y-100292025D01*
X169273500Y-100144059D01*
X169273500Y-99985940D01*
X169273499Y-99985939D01*
X169232577Y-99833217D01*
X169232576Y-99833213D01*
X169153524Y-99696290D01*
X169153521Y-99696287D01*
X169153520Y-99696284D01*
X169041716Y-99584480D01*
X169041713Y-99584478D01*
X169041709Y-99584475D01*
X168904786Y-99505423D01*
X168904782Y-99505422D01*
X168752060Y-99464500D01*
X168752057Y-99464500D01*
X168593943Y-99464500D01*
X168593940Y-99464500D01*
X168441217Y-99505422D01*
X168441213Y-99505423D01*
X168304290Y-99584475D01*
X168304281Y-99584482D01*
X168192482Y-99696281D01*
X168192475Y-99696290D01*
X168113423Y-99833213D01*
X168113422Y-99833217D01*
X168072500Y-99985939D01*
X168072500Y-100144060D01*
X168113422Y-100296782D01*
X168113423Y-100296786D01*
X168192475Y-100433709D01*
X168192478Y-100433713D01*
X168192480Y-100433716D01*
X168304284Y-100545520D01*
X168304287Y-100545521D01*
X168304290Y-100545524D01*
X168441213Y-100624576D01*
X168441215Y-100624576D01*
X168441216Y-100624577D01*
X168561665Y-100656851D01*
X168593939Y-100665499D01*
X168593940Y-100665500D01*
X168593943Y-100665500D01*
X168752059Y-100665500D01*
X168881757Y-100630747D01*
X168900025Y-100625852D01*
X168937207Y-100630747D01*
X168960037Y-100660500D01*
X168955142Y-100697682D01*
X168947355Y-100707830D01*
X164319515Y-105335669D01*
X164284867Y-105350021D01*
X164275308Y-105349079D01*
X164101470Y-105314500D01*
X164101465Y-105314500D01*
X163894535Y-105314500D01*
X163793520Y-105334592D01*
X163691582Y-105354869D01*
X163691576Y-105354871D01*
X163500403Y-105434058D01*
X163328345Y-105549022D01*
X163182022Y-105695345D01*
X163067058Y-105867403D01*
X162987871Y-106058576D01*
X162987869Y-106058582D01*
X162987189Y-106062003D01*
X162947500Y-106261535D01*
X162947500Y-106261538D01*
X162947500Y-106345969D01*
X162933148Y-106380617D01*
X162288617Y-107025148D01*
X162253969Y-107039500D01*
X158166770Y-107039500D01*
X158132122Y-107025148D01*
X158117770Y-106990500D01*
X158132122Y-106955852D01*
X158139547Y-106949758D01*
X158167655Y-106930977D01*
X158313977Y-106784655D01*
X158428941Y-106612598D01*
X158508130Y-106421420D01*
X158548500Y-106218465D01*
X158548500Y-106011535D01*
X158508130Y-105808580D01*
X158428941Y-105617402D01*
X158313977Y-105445345D01*
X158167655Y-105299023D01*
X158154899Y-105290500D01*
X158005773Y-105190858D01*
X157995598Y-105184059D01*
X157995596Y-105184058D01*
X157804423Y-105104871D01*
X157804417Y-105104869D01*
X157722572Y-105088589D01*
X157601465Y-105064500D01*
X157394535Y-105064500D01*
X157293520Y-105084592D01*
X157191582Y-105104869D01*
X157191576Y-105104871D01*
X157000403Y-105184058D01*
X156828345Y-105299022D01*
X156682022Y-105445345D01*
X156567058Y-105617403D01*
X156487871Y-105808576D01*
X156487869Y-105808582D01*
X156476169Y-105867403D01*
X156447500Y-106011535D01*
X156447500Y-106218465D01*
X156460632Y-106284482D01*
X156487869Y-106421417D01*
X156487871Y-106421423D01*
X156534178Y-106533217D01*
X156567059Y-106612598D01*
X156605664Y-106670375D01*
X156682022Y-106784654D01*
X156828345Y-106930977D01*
X156856453Y-106949758D01*
X156877288Y-106980940D01*
X156869972Y-107017723D01*
X156838790Y-107038558D01*
X156829230Y-107039500D01*
X156280071Y-107039500D01*
X156280055Y-107039499D01*
X156277058Y-107039499D01*
X156118943Y-107039499D01*
X156118941Y-107039499D01*
X155966215Y-107080423D01*
X155966213Y-107080423D01*
X155829290Y-107159475D01*
X155829281Y-107159482D01*
X146077481Y-116911283D01*
X146077480Y-116911283D01*
X146027360Y-116998095D01*
X145998423Y-117048212D01*
X145998421Y-117048218D01*
X145957499Y-117200940D01*
X145957499Y-117363000D01*
X145957500Y-117363013D01*
X145957500Y-122645014D01*
X145943148Y-122679662D01*
X145937302Y-122684656D01*
X145799633Y-122784679D01*
X145670079Y-122914233D01*
X145562368Y-123062483D01*
X145479186Y-123225739D01*
X145422564Y-123400005D01*
X145422563Y-123400008D01*
X145404655Y-123513080D01*
X145393900Y-123580983D01*
X145393900Y-124069017D01*
X145394781Y-124074577D01*
X145422563Y-124249991D01*
X145422564Y-124249994D01*
X145479186Y-124424260D01*
X145562368Y-124587516D01*
X145562371Y-124587520D01*
X145562372Y-124587522D01*
X145670074Y-124735760D01*
X145670076Y-124735762D01*
X145670079Y-124735766D01*
X145799633Y-124865320D01*
X145799636Y-124865322D01*
X145799640Y-124865326D01*
X145947878Y-124973028D01*
X145947880Y-124973029D01*
X145947883Y-124973031D01*
X146111139Y-125056213D01*
X146111141Y-125056214D01*
X146285406Y-125112836D01*
X146466383Y-125141500D01*
X146466384Y-125141500D01*
X146649616Y-125141500D01*
X146649617Y-125141500D01*
X146830594Y-125112836D01*
X147004859Y-125056214D01*
X147168122Y-124973028D01*
X147316360Y-124865326D01*
X147445926Y-124735760D01*
X147553628Y-124587522D01*
X147636814Y-124424259D01*
X147693436Y-124249994D01*
X147722100Y-124069017D01*
X147722100Y-123580983D01*
X147933900Y-123580983D01*
X147933900Y-124069017D01*
X147934781Y-124074577D01*
X147962563Y-124249991D01*
X147962564Y-124249994D01*
X148019186Y-124424260D01*
X148102368Y-124587516D01*
X148102371Y-124587520D01*
X148102372Y-124587522D01*
X148210074Y-124735760D01*
X148210076Y-124735762D01*
X148210079Y-124735766D01*
X148339633Y-124865320D01*
X148339636Y-124865322D01*
X148339640Y-124865326D01*
X148487878Y-124973028D01*
X148487880Y-124973029D01*
X148487883Y-124973031D01*
X148651139Y-125056213D01*
X148651141Y-125056214D01*
X148825406Y-125112836D01*
X149006383Y-125141500D01*
X149006384Y-125141500D01*
X149189616Y-125141500D01*
X149189617Y-125141500D01*
X149370594Y-125112836D01*
X149544859Y-125056214D01*
X149708122Y-124973028D01*
X149856360Y-124865326D01*
X149985926Y-124735760D01*
X150093628Y-124587522D01*
X150176814Y-124424259D01*
X150233436Y-124249994D01*
X150262100Y-124069017D01*
X150262100Y-123580983D01*
X150260018Y-123567839D01*
X150574400Y-123567839D01*
X150574400Y-123725000D01*
X151138874Y-123725000D01*
X151130000Y-123758120D01*
X151130000Y-123891880D01*
X151138874Y-123925000D01*
X150574400Y-123925000D01*
X150574400Y-124082160D01*
X150615271Y-124287629D01*
X150615276Y-124287648D01*
X150695448Y-124481199D01*
X150811847Y-124655404D01*
X150959995Y-124803552D01*
X151134200Y-124919951D01*
X151327751Y-125000123D01*
X151327770Y-125000128D01*
X151533239Y-125040999D01*
X151533245Y-125041000D01*
X151538000Y-125041000D01*
X151538000Y-124324125D01*
X151571120Y-124333000D01*
X151704880Y-124333000D01*
X151738000Y-124324125D01*
X151738000Y-125041000D01*
X151742755Y-125041000D01*
X151742760Y-125040999D01*
X151948229Y-125000128D01*
X151948248Y-125000123D01*
X152141799Y-124919951D01*
X152316004Y-124803552D01*
X152464152Y-124655404D01*
X152580551Y-124481199D01*
X152660723Y-124287648D01*
X152660728Y-124287629D01*
X152701599Y-124082160D01*
X152701600Y-124082155D01*
X152701600Y-123925000D01*
X152137126Y-123925000D01*
X152146000Y-123891880D01*
X152146000Y-123758120D01*
X152137126Y-123725000D01*
X152701600Y-123725000D01*
X152701600Y-123567845D01*
X152701599Y-123567839D01*
X152660728Y-123362370D01*
X152660723Y-123362351D01*
X152580551Y-123168800D01*
X152464152Y-122994595D01*
X152316004Y-122846447D01*
X152141799Y-122730048D01*
X151948248Y-122649876D01*
X151948229Y-122649871D01*
X151742760Y-122609000D01*
X151738000Y-122609000D01*
X151738000Y-123325874D01*
X151704880Y-123317000D01*
X151571120Y-123317000D01*
X151538000Y-123325874D01*
X151538000Y-122609000D01*
X151533239Y-122609000D01*
X151327770Y-122649871D01*
X151327751Y-122649876D01*
X151134200Y-122730048D01*
X150959995Y-122846447D01*
X150811847Y-122994595D01*
X150695448Y-123168800D01*
X150615276Y-123362351D01*
X150615271Y-123362370D01*
X150574400Y-123567839D01*
X150260018Y-123567839D01*
X150233436Y-123400006D01*
X150176814Y-123225741D01*
X150129582Y-123133045D01*
X150126640Y-123095658D01*
X150138592Y-123076154D01*
X150784896Y-122429852D01*
X150819544Y-122415500D01*
X150851462Y-122415500D01*
X150851465Y-122415500D01*
X151054420Y-122375130D01*
X151245598Y-122295941D01*
X151417655Y-122180977D01*
X151563977Y-122034655D01*
X151678941Y-121862598D01*
X151758130Y-121671420D01*
X151798500Y-121468465D01*
X151798500Y-121436544D01*
X151812852Y-121401896D01*
X151838484Y-121376264D01*
X151838485Y-121376263D01*
X151894503Y-121279237D01*
X151923499Y-121171021D01*
X151923500Y-121171021D01*
X151923500Y-121058978D01*
X151896564Y-120958454D01*
X151894503Y-120950763D01*
X151894502Y-120950762D01*
X151894502Y-120950760D01*
X151838489Y-120853742D01*
X151838486Y-120853739D01*
X151838485Y-120853736D01*
X151759264Y-120774515D01*
X151759261Y-120774513D01*
X151759257Y-120774510D01*
X151662239Y-120718497D01*
X151662235Y-120718496D01*
X151572319Y-120694403D01*
X151550353Y-120681721D01*
X151417654Y-120549022D01*
X151310624Y-120477508D01*
X151245598Y-120434059D01*
X151245596Y-120434058D01*
X151054423Y-120354871D01*
X151054417Y-120354869D01*
X150972572Y-120338589D01*
X150851465Y-120314500D01*
X150644535Y-120314500D01*
X150543520Y-120334592D01*
X150441582Y-120354869D01*
X150441576Y-120354871D01*
X150250403Y-120434058D01*
X150078345Y-120549022D01*
X149932022Y-120695345D01*
X149817058Y-120867403D01*
X149737871Y-121058576D01*
X149737869Y-121058582D01*
X149717592Y-121160520D01*
X149697500Y-121261535D01*
X149697500Y-121468465D01*
X149710220Y-121532412D01*
X149737869Y-121671417D01*
X149737871Y-121671423D01*
X149801310Y-121824577D01*
X149817059Y-121862598D01*
X149852406Y-121915499D01*
X149927535Y-122027939D01*
X149934851Y-122064722D01*
X149921441Y-122089810D01*
X149469939Y-122541311D01*
X149435291Y-122555663D01*
X149420149Y-122553265D01*
X149370594Y-122537164D01*
X149370591Y-122537163D01*
X149231569Y-122515144D01*
X149189617Y-122508500D01*
X149006383Y-122508500D01*
X148972325Y-122513894D01*
X148825408Y-122537163D01*
X148825405Y-122537164D01*
X148651139Y-122593786D01*
X148487883Y-122676968D01*
X148339633Y-122784679D01*
X148210079Y-122914233D01*
X148102368Y-123062483D01*
X148019186Y-123225739D01*
X147962564Y-123400005D01*
X147962563Y-123400008D01*
X147944655Y-123513080D01*
X147933900Y-123580983D01*
X147722100Y-123580983D01*
X147693436Y-123400006D01*
X147636814Y-123225741D01*
X147636813Y-123225739D01*
X147553631Y-123062483D01*
X147553629Y-123062480D01*
X147553628Y-123062478D01*
X147445926Y-122914240D01*
X147445922Y-122914236D01*
X147445920Y-122914233D01*
X147316366Y-122784679D01*
X147316362Y-122784676D01*
X147316360Y-122784674D01*
X147178697Y-122684655D01*
X147159103Y-122652679D01*
X147158500Y-122645014D01*
X147158500Y-117549030D01*
X147172851Y-117514383D01*
X148136207Y-116551026D01*
X148170854Y-116536675D01*
X148205502Y-116551027D01*
X148218912Y-116576116D01*
X148237867Y-116671411D01*
X148237869Y-116671418D01*
X148317058Y-116862596D01*
X148407594Y-116998095D01*
X148432023Y-117034655D01*
X148578345Y-117180977D01*
X148750402Y-117295941D01*
X148941580Y-117375130D01*
X149144535Y-117415500D01*
X149144538Y-117415500D01*
X149351465Y-117415500D01*
X149474671Y-117390992D01*
X149511451Y-117398308D01*
X149518877Y-117404402D01*
X152469346Y-120354871D01*
X154820408Y-122705932D01*
X154834760Y-122740580D01*
X154820408Y-122775228D01*
X154785760Y-122789580D01*
X154758537Y-122781322D01*
X154681799Y-122730048D01*
X154488248Y-122649876D01*
X154488229Y-122649871D01*
X154282760Y-122609000D01*
X154278000Y-122609000D01*
X154278000Y-123325874D01*
X154244880Y-123317000D01*
X154111120Y-123317000D01*
X154078000Y-123325874D01*
X154078000Y-122609000D01*
X154073239Y-122609000D01*
X153867770Y-122649871D01*
X153867751Y-122649876D01*
X153674200Y-122730048D01*
X153499995Y-122846447D01*
X153351847Y-122994595D01*
X153235448Y-123168800D01*
X153155276Y-123362351D01*
X153155271Y-123362370D01*
X153114400Y-123567839D01*
X153114400Y-123725000D01*
X153678874Y-123725000D01*
X153670000Y-123758120D01*
X153670000Y-123891880D01*
X153678874Y-123925000D01*
X153114400Y-123925000D01*
X153114400Y-124082160D01*
X153155271Y-124287629D01*
X153155276Y-124287648D01*
X153235448Y-124481199D01*
X153351847Y-124655404D01*
X153499995Y-124803552D01*
X153674200Y-124919951D01*
X153867751Y-125000123D01*
X153867770Y-125000128D01*
X154073239Y-125040999D01*
X154073245Y-125041000D01*
X154078000Y-125041000D01*
X154078000Y-124324125D01*
X154111120Y-124333000D01*
X154244880Y-124333000D01*
X154278000Y-124324125D01*
X154278000Y-125041000D01*
X154282755Y-125041000D01*
X154282760Y-125040999D01*
X154488229Y-125000128D01*
X154488248Y-125000123D01*
X154681799Y-124919951D01*
X154856004Y-124803552D01*
X155004152Y-124655404D01*
X155120551Y-124481199D01*
X155200723Y-124287648D01*
X155200728Y-124287629D01*
X155241599Y-124082160D01*
X155241600Y-124082155D01*
X155241600Y-123925000D01*
X154677126Y-123925000D01*
X154686000Y-123891880D01*
X154686000Y-123758120D01*
X154677126Y-123725000D01*
X155241600Y-123725000D01*
X155241600Y-123567845D01*
X155241599Y-123567839D01*
X155200728Y-123362370D01*
X155200723Y-123362351D01*
X155120551Y-123168800D01*
X155069277Y-123092062D01*
X155061961Y-123055279D01*
X155082796Y-123024097D01*
X155119579Y-123016781D01*
X155144667Y-123030191D01*
X155555600Y-123441124D01*
X155569952Y-123475772D01*
X155569349Y-123483437D01*
X155563925Y-123517685D01*
X155553900Y-123580983D01*
X155553900Y-124069017D01*
X155554781Y-124074577D01*
X155582563Y-124249991D01*
X155582564Y-124249994D01*
X155639186Y-124424260D01*
X155722368Y-124587516D01*
X155722371Y-124587520D01*
X155722372Y-124587522D01*
X155830074Y-124735760D01*
X155830076Y-124735762D01*
X155830079Y-124735766D01*
X155959633Y-124865320D01*
X155959636Y-124865322D01*
X155959640Y-124865326D01*
X156107878Y-124973028D01*
X156107880Y-124973029D01*
X156107883Y-124973031D01*
X156271139Y-125056213D01*
X156271141Y-125056214D01*
X156445406Y-125112836D01*
X156626383Y-125141500D01*
X156626384Y-125141500D01*
X156809616Y-125141500D01*
X156809617Y-125141500D01*
X156990594Y-125112836D01*
X157164859Y-125056214D01*
X157328122Y-124973028D01*
X157476360Y-124865326D01*
X157605926Y-124735760D01*
X157713628Y-124587522D01*
X157796814Y-124424259D01*
X157853436Y-124249994D01*
X157882100Y-124069017D01*
X157882100Y-123580983D01*
X160633900Y-123580983D01*
X160633900Y-124069017D01*
X160634781Y-124074577D01*
X160662563Y-124249991D01*
X160662564Y-124249994D01*
X160719186Y-124424260D01*
X160802368Y-124587516D01*
X160802371Y-124587520D01*
X160802372Y-124587522D01*
X160910074Y-124735760D01*
X160910076Y-124735762D01*
X160910079Y-124735766D01*
X161039633Y-124865320D01*
X161039636Y-124865322D01*
X161039640Y-124865326D01*
X161187878Y-124973028D01*
X161187880Y-124973029D01*
X161187883Y-124973031D01*
X161351139Y-125056213D01*
X161351141Y-125056214D01*
X161525406Y-125112836D01*
X161706383Y-125141500D01*
X161706384Y-125141500D01*
X161889616Y-125141500D01*
X161889617Y-125141500D01*
X162070594Y-125112836D01*
X162244859Y-125056214D01*
X162408122Y-124973028D01*
X162556360Y-124865326D01*
X162685926Y-124735760D01*
X162793628Y-124587522D01*
X162876814Y-124424259D01*
X162933436Y-124249994D01*
X162962100Y-124069017D01*
X162962100Y-123580983D01*
X163173900Y-123580983D01*
X163173900Y-124069017D01*
X163174781Y-124074577D01*
X163202563Y-124249991D01*
X163202564Y-124249994D01*
X163259186Y-124424260D01*
X163342368Y-124587516D01*
X163342371Y-124587520D01*
X163342372Y-124587522D01*
X163450074Y-124735760D01*
X163450076Y-124735762D01*
X163450079Y-124735766D01*
X163579633Y-124865320D01*
X163579636Y-124865322D01*
X163579640Y-124865326D01*
X163727878Y-124973028D01*
X163727880Y-124973029D01*
X163727883Y-124973031D01*
X163891139Y-125056213D01*
X163891141Y-125056214D01*
X164065406Y-125112836D01*
X164246383Y-125141500D01*
X164246384Y-125141500D01*
X164429616Y-125141500D01*
X164429617Y-125141500D01*
X164610594Y-125112836D01*
X164784859Y-125056214D01*
X164948122Y-124973028D01*
X165096360Y-124865326D01*
X165225926Y-124735760D01*
X165333628Y-124587522D01*
X165416814Y-124424259D01*
X165473436Y-124249994D01*
X165502100Y-124069017D01*
X165502100Y-123580983D01*
X165713900Y-123580983D01*
X165713900Y-124069017D01*
X165714781Y-124074577D01*
X165742563Y-124249991D01*
X165742564Y-124249994D01*
X165799186Y-124424260D01*
X165882368Y-124587516D01*
X165882371Y-124587520D01*
X165882372Y-124587522D01*
X165990074Y-124735760D01*
X165990076Y-124735762D01*
X165990079Y-124735766D01*
X166119633Y-124865320D01*
X166119636Y-124865322D01*
X166119640Y-124865326D01*
X166267878Y-124973028D01*
X166267880Y-124973029D01*
X166267883Y-124973031D01*
X166431139Y-125056213D01*
X166431141Y-125056214D01*
X166605406Y-125112836D01*
X166786383Y-125141500D01*
X166786384Y-125141500D01*
X166969616Y-125141500D01*
X166969617Y-125141500D01*
X167150594Y-125112836D01*
X167324859Y-125056214D01*
X167488122Y-124973028D01*
X167636360Y-124865326D01*
X167765926Y-124735760D01*
X167873628Y-124587522D01*
X167956814Y-124424259D01*
X168013436Y-124249994D01*
X168042100Y-124069017D01*
X168042100Y-123580983D01*
X168253900Y-123580983D01*
X168253900Y-124069017D01*
X168254781Y-124074577D01*
X168282563Y-124249991D01*
X168282564Y-124249994D01*
X168339186Y-124424260D01*
X168422368Y-124587516D01*
X168422371Y-124587520D01*
X168422372Y-124587522D01*
X168530074Y-124735760D01*
X168530076Y-124735762D01*
X168530079Y-124735766D01*
X168659633Y-124865320D01*
X168659636Y-124865322D01*
X168659640Y-124865326D01*
X168807878Y-124973028D01*
X168807880Y-124973029D01*
X168807883Y-124973031D01*
X168971139Y-125056213D01*
X168971141Y-125056214D01*
X169145406Y-125112836D01*
X169326383Y-125141500D01*
X169326384Y-125141500D01*
X169509616Y-125141500D01*
X169509617Y-125141500D01*
X169690594Y-125112836D01*
X169864859Y-125056214D01*
X170028122Y-124973028D01*
X170176360Y-124865326D01*
X170305926Y-124735760D01*
X170413628Y-124587522D01*
X170496814Y-124424259D01*
X170553436Y-124249994D01*
X170582100Y-124069017D01*
X170582100Y-123580983D01*
X170793900Y-123580983D01*
X170793900Y-124069017D01*
X170794781Y-124074577D01*
X170822563Y-124249991D01*
X170822564Y-124249994D01*
X170879186Y-124424260D01*
X170962368Y-124587516D01*
X170962371Y-124587520D01*
X170962372Y-124587522D01*
X171070074Y-124735760D01*
X171070076Y-124735762D01*
X171070079Y-124735766D01*
X171199633Y-124865320D01*
X171199636Y-124865322D01*
X171199640Y-124865326D01*
X171347878Y-124973028D01*
X171347880Y-124973029D01*
X171347883Y-124973031D01*
X171511139Y-125056213D01*
X171511141Y-125056214D01*
X171685406Y-125112836D01*
X171866383Y-125141500D01*
X171866384Y-125141500D01*
X172049616Y-125141500D01*
X172049617Y-125141500D01*
X172230594Y-125112836D01*
X172404859Y-125056214D01*
X172568122Y-124973028D01*
X172716360Y-124865326D01*
X172845926Y-124735760D01*
X172953628Y-124587522D01*
X173036814Y-124424259D01*
X173093436Y-124249994D01*
X173122100Y-124069017D01*
X173122100Y-123580983D01*
X173333900Y-123580983D01*
X173333900Y-124069017D01*
X173334781Y-124074577D01*
X173362563Y-124249991D01*
X173362564Y-124249994D01*
X173419186Y-124424260D01*
X173502368Y-124587516D01*
X173502371Y-124587520D01*
X173502372Y-124587522D01*
X173610074Y-124735760D01*
X173610076Y-124735762D01*
X173610079Y-124735766D01*
X173739633Y-124865320D01*
X173739636Y-124865322D01*
X173739640Y-124865326D01*
X173887878Y-124973028D01*
X173887880Y-124973029D01*
X173887883Y-124973031D01*
X174051139Y-125056213D01*
X174051141Y-125056214D01*
X174225406Y-125112836D01*
X174406383Y-125141500D01*
X174406384Y-125141500D01*
X174589616Y-125141500D01*
X174589617Y-125141500D01*
X174770594Y-125112836D01*
X174944859Y-125056214D01*
X175108122Y-124973028D01*
X175256360Y-124865326D01*
X175385926Y-124735760D01*
X175493628Y-124587522D01*
X175576814Y-124424259D01*
X175633436Y-124249994D01*
X175662100Y-124069017D01*
X175662100Y-123580983D01*
X175633436Y-123400006D01*
X175576814Y-123225741D01*
X175576813Y-123225739D01*
X175493631Y-123062483D01*
X175493629Y-123062480D01*
X175493628Y-123062478D01*
X175385926Y-122914240D01*
X175385922Y-122914236D01*
X175385920Y-122914233D01*
X175256366Y-122784679D01*
X175256362Y-122784676D01*
X175256360Y-122784674D01*
X175108122Y-122676972D01*
X175108120Y-122676971D01*
X175108116Y-122676968D01*
X174944860Y-122593786D01*
X174770594Y-122537164D01*
X174770591Y-122537163D01*
X174631569Y-122515144D01*
X174589617Y-122508500D01*
X174406383Y-122508500D01*
X174372325Y-122513894D01*
X174225408Y-122537163D01*
X174225405Y-122537164D01*
X174051139Y-122593786D01*
X173887883Y-122676968D01*
X173739633Y-122784679D01*
X173610079Y-122914233D01*
X173502368Y-123062483D01*
X173419186Y-123225739D01*
X173362564Y-123400005D01*
X173362563Y-123400008D01*
X173344655Y-123513080D01*
X173333900Y-123580983D01*
X173122100Y-123580983D01*
X173093436Y-123400006D01*
X173036814Y-123225741D01*
X173036813Y-123225739D01*
X172953631Y-123062483D01*
X172953629Y-123062480D01*
X172953628Y-123062478D01*
X172845926Y-122914240D01*
X172845922Y-122914236D01*
X172845920Y-122914233D01*
X172716366Y-122784679D01*
X172716362Y-122784676D01*
X172716360Y-122784674D01*
X172568122Y-122676972D01*
X172568120Y-122676971D01*
X172568116Y-122676968D01*
X172404860Y-122593786D01*
X172230594Y-122537164D01*
X172230591Y-122537163D01*
X172091569Y-122515144D01*
X172049617Y-122508500D01*
X171866383Y-122508500D01*
X171832325Y-122513894D01*
X171685408Y-122537163D01*
X171685405Y-122537164D01*
X171511139Y-122593786D01*
X171347883Y-122676968D01*
X171199633Y-122784679D01*
X171070079Y-122914233D01*
X170962368Y-123062483D01*
X170879186Y-123225739D01*
X170822564Y-123400005D01*
X170822563Y-123400008D01*
X170804655Y-123513080D01*
X170793900Y-123580983D01*
X170582100Y-123580983D01*
X170553436Y-123400006D01*
X170496814Y-123225741D01*
X170496813Y-123225739D01*
X170413631Y-123062483D01*
X170413629Y-123062480D01*
X170413628Y-123062478D01*
X170305926Y-122914240D01*
X170305922Y-122914236D01*
X170305920Y-122914233D01*
X170176366Y-122784679D01*
X170176362Y-122784676D01*
X170176360Y-122784674D01*
X170028122Y-122676972D01*
X170028120Y-122676971D01*
X170028116Y-122676968D01*
X169864860Y-122593786D01*
X169690594Y-122537164D01*
X169690591Y-122537163D01*
X169551569Y-122515144D01*
X169509617Y-122508500D01*
X169326383Y-122508500D01*
X169292325Y-122513894D01*
X169145408Y-122537163D01*
X169145405Y-122537164D01*
X168971139Y-122593786D01*
X168807883Y-122676968D01*
X168659633Y-122784679D01*
X168530079Y-122914233D01*
X168422368Y-123062483D01*
X168339186Y-123225739D01*
X168282564Y-123400005D01*
X168282563Y-123400008D01*
X168264655Y-123513080D01*
X168253900Y-123580983D01*
X168042100Y-123580983D01*
X168013436Y-123400006D01*
X167956814Y-123225741D01*
X167956813Y-123225739D01*
X167873631Y-123062483D01*
X167873629Y-123062480D01*
X167873628Y-123062478D01*
X167765926Y-122914240D01*
X167765922Y-122914236D01*
X167765920Y-122914233D01*
X167636366Y-122784679D01*
X167636362Y-122784676D01*
X167636360Y-122784674D01*
X167488122Y-122676972D01*
X167488120Y-122676971D01*
X167488116Y-122676968D01*
X167324860Y-122593786D01*
X167150594Y-122537164D01*
X167150591Y-122537163D01*
X167011569Y-122515144D01*
X166969617Y-122508500D01*
X166786383Y-122508500D01*
X166752325Y-122513894D01*
X166605408Y-122537163D01*
X166605405Y-122537164D01*
X166431139Y-122593786D01*
X166267883Y-122676968D01*
X166119633Y-122784679D01*
X165990079Y-122914233D01*
X165882368Y-123062483D01*
X165799186Y-123225739D01*
X165742564Y-123400005D01*
X165742563Y-123400008D01*
X165724655Y-123513080D01*
X165713900Y-123580983D01*
X165502100Y-123580983D01*
X165473436Y-123400006D01*
X165416814Y-123225741D01*
X165416813Y-123225739D01*
X165333631Y-123062483D01*
X165333629Y-123062480D01*
X165333628Y-123062478D01*
X165225926Y-122914240D01*
X165225922Y-122914236D01*
X165225920Y-122914233D01*
X165096366Y-122784679D01*
X165096362Y-122784676D01*
X165096360Y-122784674D01*
X164948122Y-122676972D01*
X164948120Y-122676971D01*
X164948116Y-122676968D01*
X164784860Y-122593786D01*
X164610594Y-122537164D01*
X164610591Y-122537163D01*
X164471569Y-122515144D01*
X164429617Y-122508500D01*
X164246383Y-122508500D01*
X164212325Y-122513894D01*
X164065408Y-122537163D01*
X164065405Y-122537164D01*
X163891139Y-122593786D01*
X163727883Y-122676968D01*
X163579633Y-122784679D01*
X163450079Y-122914233D01*
X163342368Y-123062483D01*
X163259186Y-123225739D01*
X163202564Y-123400005D01*
X163202563Y-123400008D01*
X163184655Y-123513080D01*
X163173900Y-123580983D01*
X162962100Y-123580983D01*
X162933436Y-123400006D01*
X162876814Y-123225741D01*
X162876813Y-123225739D01*
X162793631Y-123062483D01*
X162793629Y-123062480D01*
X162793628Y-123062478D01*
X162685926Y-122914240D01*
X162685922Y-122914236D01*
X162685920Y-122914233D01*
X162556366Y-122784679D01*
X162556362Y-122784676D01*
X162556360Y-122784674D01*
X162408122Y-122676972D01*
X162408120Y-122676971D01*
X162408116Y-122676968D01*
X162244860Y-122593786D01*
X162070594Y-122537164D01*
X162070591Y-122537163D01*
X161931569Y-122515144D01*
X161889617Y-122508500D01*
X161706383Y-122508500D01*
X161672325Y-122513894D01*
X161525408Y-122537163D01*
X161525405Y-122537164D01*
X161351139Y-122593786D01*
X161187883Y-122676968D01*
X161039633Y-122784679D01*
X160910079Y-122914233D01*
X160802368Y-123062483D01*
X160719186Y-123225739D01*
X160662564Y-123400005D01*
X160662563Y-123400008D01*
X160644655Y-123513080D01*
X160633900Y-123580983D01*
X157882100Y-123580983D01*
X157853436Y-123400006D01*
X157796814Y-123225741D01*
X157796813Y-123225739D01*
X157713631Y-123062483D01*
X157713629Y-123062480D01*
X157713628Y-123062478D01*
X157605926Y-122914240D01*
X157605922Y-122914236D01*
X157605920Y-122914233D01*
X157476366Y-122784679D01*
X157476362Y-122784676D01*
X157476360Y-122784674D01*
X157328122Y-122676972D01*
X157328120Y-122676971D01*
X157328116Y-122676968D01*
X157164860Y-122593786D01*
X156990594Y-122537164D01*
X156990591Y-122537163D01*
X156851569Y-122515144D01*
X156809617Y-122508500D01*
X156626383Y-122508500D01*
X156592325Y-122513894D01*
X156445408Y-122537163D01*
X156445405Y-122537164D01*
X156295297Y-122585937D01*
X156257909Y-122582994D01*
X156245507Y-122573983D01*
X154888903Y-121217379D01*
X154857463Y-121185939D01*
X161197500Y-121185939D01*
X161197500Y-121344060D01*
X161238422Y-121496782D01*
X161238423Y-121496786D01*
X161317475Y-121633709D01*
X161317478Y-121633713D01*
X161317480Y-121633716D01*
X161429284Y-121745520D01*
X161429287Y-121745521D01*
X161429290Y-121745524D01*
X161566213Y-121824576D01*
X161566215Y-121824576D01*
X161566216Y-121824577D01*
X161686665Y-121856851D01*
X161718939Y-121865499D01*
X161718940Y-121865500D01*
X161718943Y-121865500D01*
X161877060Y-121865500D01*
X161877060Y-121865499D01*
X162029784Y-121824577D01*
X162166716Y-121745520D01*
X162278520Y-121633716D01*
X162357577Y-121496784D01*
X162398499Y-121344060D01*
X162398500Y-121344060D01*
X162398500Y-121235939D01*
X163747500Y-121235939D01*
X163747500Y-121394060D01*
X163788422Y-121546782D01*
X163788423Y-121546786D01*
X163867475Y-121683709D01*
X163867478Y-121683713D01*
X163867480Y-121683716D01*
X163979284Y-121795520D01*
X163979287Y-121795521D01*
X163979290Y-121795524D01*
X164116213Y-121874576D01*
X164116215Y-121874576D01*
X164116216Y-121874577D01*
X164236665Y-121906851D01*
X164268939Y-121915499D01*
X164268940Y-121915500D01*
X164268943Y-121915500D01*
X164427060Y-121915500D01*
X164427060Y-121915499D01*
X164579784Y-121874577D01*
X164600533Y-121862598D01*
X164716709Y-121795524D01*
X164716708Y-121795524D01*
X164716716Y-121795520D01*
X164828520Y-121683716D01*
X164907577Y-121546784D01*
X164948499Y-121394060D01*
X164948500Y-121394060D01*
X164948500Y-121235940D01*
X164948499Y-121235939D01*
X164907577Y-121083217D01*
X164907576Y-121083213D01*
X164828524Y-120946290D01*
X164828521Y-120946287D01*
X164828520Y-120946284D01*
X164716716Y-120834480D01*
X164716713Y-120834478D01*
X164716709Y-120834475D01*
X164579786Y-120755423D01*
X164579782Y-120755422D01*
X164427060Y-120714500D01*
X164427057Y-120714500D01*
X164268943Y-120714500D01*
X164268940Y-120714500D01*
X164116217Y-120755422D01*
X164116213Y-120755423D01*
X163979290Y-120834475D01*
X163979281Y-120834482D01*
X163867482Y-120946281D01*
X163867475Y-120946290D01*
X163788423Y-121083213D01*
X163788422Y-121083217D01*
X163747500Y-121235939D01*
X162398500Y-121235939D01*
X162398500Y-121185940D01*
X162398499Y-121185939D01*
X162370974Y-121083216D01*
X162357577Y-121033216D01*
X162357576Y-121033215D01*
X162357576Y-121033213D01*
X162278524Y-120896290D01*
X162278521Y-120896287D01*
X162278520Y-120896284D01*
X162166716Y-120784480D01*
X162166713Y-120784478D01*
X162166709Y-120784475D01*
X162029786Y-120705423D01*
X162029782Y-120705422D01*
X161877060Y-120664500D01*
X161877057Y-120664500D01*
X161718943Y-120664500D01*
X161718940Y-120664500D01*
X161566217Y-120705422D01*
X161566213Y-120705423D01*
X161429290Y-120784475D01*
X161429281Y-120784482D01*
X161317482Y-120896281D01*
X161317475Y-120896290D01*
X161238423Y-121033213D01*
X161238422Y-121033217D01*
X161197500Y-121185939D01*
X154857463Y-121185939D01*
X152086081Y-118414556D01*
X152054641Y-118383116D01*
X160575323Y-118383116D01*
X160575323Y-118541237D01*
X160616245Y-118693959D01*
X160616246Y-118693963D01*
X160695298Y-118830886D01*
X160695301Y-118830890D01*
X160695303Y-118830893D01*
X160807107Y-118942697D01*
X160807110Y-118942698D01*
X160807113Y-118942701D01*
X160944036Y-119021753D01*
X160944038Y-119021753D01*
X160944039Y-119021754D01*
X161064488Y-119054028D01*
X161096762Y-119062676D01*
X161096763Y-119062677D01*
X161096766Y-119062677D01*
X161254883Y-119062677D01*
X161254883Y-119062676D01*
X161407607Y-119021754D01*
X161420172Y-119014500D01*
X161544532Y-118942701D01*
X161544531Y-118942701D01*
X161544539Y-118942697D01*
X161656343Y-118830893D01*
X161735400Y-118693961D01*
X161776322Y-118541237D01*
X161776323Y-118541237D01*
X161776323Y-118383117D01*
X161776322Y-118383116D01*
X161767674Y-118350842D01*
X161735400Y-118230393D01*
X161735399Y-118230392D01*
X161735399Y-118230390D01*
X161656347Y-118093467D01*
X161656344Y-118093464D01*
X161656343Y-118093461D01*
X161544539Y-117981657D01*
X161544536Y-117981655D01*
X161544532Y-117981652D01*
X161407609Y-117902600D01*
X161407605Y-117902599D01*
X161254883Y-117861677D01*
X161254880Y-117861677D01*
X161096766Y-117861677D01*
X161096763Y-117861677D01*
X160944040Y-117902599D01*
X160944036Y-117902600D01*
X160807113Y-117981652D01*
X160807104Y-117981659D01*
X160695305Y-118093458D01*
X160695298Y-118093467D01*
X160616246Y-118230390D01*
X160616245Y-118230394D01*
X160575323Y-118383116D01*
X152054641Y-118383116D01*
X150290720Y-116619195D01*
X150288799Y-116614557D01*
X150284626Y-116611769D01*
X150281838Y-116597752D01*
X150276368Y-116584547D01*
X150277309Y-116574996D01*
X150289933Y-116511535D01*
X160447500Y-116511535D01*
X160447500Y-116718465D01*
X160469626Y-116829701D01*
X160487869Y-116921417D01*
X160487871Y-116921423D01*
X160555096Y-117083718D01*
X160567059Y-117112598D01*
X160682023Y-117284655D01*
X160828345Y-117430977D01*
X161000402Y-117545941D01*
X161191580Y-117625130D01*
X161394535Y-117665500D01*
X161394538Y-117665500D01*
X161601462Y-117665500D01*
X161601465Y-117665500D01*
X161804420Y-117625130D01*
X161995598Y-117545941D01*
X162047091Y-117511535D01*
X162947500Y-117511535D01*
X162947500Y-117718465D01*
X162973693Y-117850148D01*
X162987869Y-117921417D01*
X162987871Y-117921423D01*
X163067058Y-118112596D01*
X163145766Y-118230393D01*
X163182023Y-118284655D01*
X163328345Y-118430977D01*
X163500402Y-118545941D01*
X163691580Y-118625130D01*
X163894535Y-118665500D01*
X163894538Y-118665500D01*
X164101462Y-118665500D01*
X164101465Y-118665500D01*
X164304420Y-118625130D01*
X164495598Y-118545941D01*
X164667655Y-118430977D01*
X164813977Y-118284655D01*
X164928941Y-118112598D01*
X165008130Y-117921420D01*
X165048500Y-117718465D01*
X165048500Y-117511535D01*
X165008130Y-117308580D01*
X164928941Y-117117402D01*
X164813977Y-116945345D01*
X164667655Y-116799023D01*
X164660227Y-116794060D01*
X164581038Y-116741148D01*
X164495598Y-116684059D01*
X164465085Y-116671420D01*
X164304423Y-116604871D01*
X164304417Y-116604869D01*
X164222572Y-116588589D01*
X164101465Y-116564500D01*
X163894535Y-116564500D01*
X163793751Y-116584547D01*
X163691582Y-116604869D01*
X163691576Y-116604871D01*
X163500403Y-116684058D01*
X163328345Y-116799022D01*
X163182022Y-116945345D01*
X163067058Y-117117403D01*
X162987871Y-117308576D01*
X162987869Y-117308582D01*
X162971477Y-117390992D01*
X162947500Y-117511535D01*
X162047091Y-117511535D01*
X162167655Y-117430977D01*
X162313977Y-117284655D01*
X162428941Y-117112598D01*
X162508130Y-116921420D01*
X162548500Y-116718465D01*
X162548500Y-116511535D01*
X162508130Y-116308580D01*
X162428941Y-116117402D01*
X162313977Y-115945345D01*
X162267780Y-115899148D01*
X162253428Y-115864500D01*
X162267780Y-115829852D01*
X162302428Y-115815500D01*
X162427060Y-115815500D01*
X162427060Y-115815499D01*
X162444078Y-115810939D01*
X175047500Y-115810939D01*
X175047500Y-115969060D01*
X175088422Y-116121782D01*
X175088423Y-116121786D01*
X175167475Y-116258709D01*
X175167478Y-116258713D01*
X175167480Y-116258716D01*
X175279284Y-116370520D01*
X175279287Y-116370521D01*
X175279290Y-116370524D01*
X175416213Y-116449576D01*
X175416215Y-116449576D01*
X175416216Y-116449577D01*
X175536665Y-116481851D01*
X175568939Y-116490499D01*
X175568940Y-116490500D01*
X175568943Y-116490500D01*
X175727060Y-116490500D01*
X175727060Y-116490499D01*
X175879784Y-116449577D01*
X175939676Y-116414999D01*
X176016709Y-116370524D01*
X176016708Y-116370524D01*
X176016716Y-116370520D01*
X176128520Y-116258716D01*
X176207577Y-116121784D01*
X176248499Y-115969060D01*
X176248500Y-115969060D01*
X176248500Y-115810940D01*
X176248499Y-115810939D01*
X176225358Y-115724576D01*
X176207577Y-115658216D01*
X176207576Y-115658215D01*
X176207576Y-115658213D01*
X176128524Y-115521290D01*
X176128521Y-115521287D01*
X176128520Y-115521284D01*
X176016716Y-115409480D01*
X176016713Y-115409478D01*
X176016709Y-115409475D01*
X175879786Y-115330423D01*
X175879782Y-115330422D01*
X175727060Y-115289500D01*
X175727057Y-115289500D01*
X175568943Y-115289500D01*
X175568940Y-115289500D01*
X175416217Y-115330422D01*
X175416213Y-115330423D01*
X175279290Y-115409475D01*
X175279281Y-115409482D01*
X175167482Y-115521281D01*
X175167475Y-115521290D01*
X175088423Y-115658213D01*
X175088422Y-115658217D01*
X175047500Y-115810939D01*
X162444078Y-115810939D01*
X162579784Y-115774577D01*
X162579786Y-115774576D01*
X162595860Y-115765296D01*
X162716709Y-115695524D01*
X162716708Y-115695524D01*
X162716716Y-115695520D01*
X162828520Y-115583716D01*
X162907577Y-115446784D01*
X162948499Y-115294060D01*
X162948500Y-115294060D01*
X162948500Y-115135940D01*
X162948499Y-115135939D01*
X162907577Y-114983217D01*
X162907576Y-114983213D01*
X162828524Y-114846290D01*
X162828521Y-114846287D01*
X162828520Y-114846284D01*
X162716716Y-114734480D01*
X162716713Y-114734478D01*
X162716709Y-114734475D01*
X162579786Y-114655423D01*
X162579782Y-114655422D01*
X162427060Y-114614500D01*
X162427057Y-114614500D01*
X162268943Y-114614500D01*
X162268940Y-114614500D01*
X162116217Y-114655422D01*
X162116213Y-114655423D01*
X161979290Y-114734475D01*
X161979281Y-114734482D01*
X161867482Y-114846281D01*
X161867475Y-114846290D01*
X161788423Y-114983213D01*
X161788422Y-114983217D01*
X161747500Y-115135939D01*
X161747500Y-115294060D01*
X161788422Y-115446782D01*
X161788423Y-115446786D01*
X161835386Y-115528128D01*
X161840281Y-115565310D01*
X161817451Y-115595063D01*
X161783392Y-115600687D01*
X161722848Y-115588644D01*
X161601465Y-115564500D01*
X161394535Y-115564500D01*
X161297964Y-115583709D01*
X161191582Y-115604869D01*
X161191576Y-115604871D01*
X161000403Y-115684058D01*
X160828345Y-115799022D01*
X160682022Y-115945345D01*
X160567058Y-116117403D01*
X160487871Y-116308576D01*
X160487869Y-116308582D01*
X160467592Y-116410520D01*
X160447500Y-116511535D01*
X150289933Y-116511535D01*
X150298500Y-116468465D01*
X150298500Y-116261535D01*
X150258130Y-116058580D01*
X150178941Y-115867402D01*
X150063977Y-115695345D01*
X149917655Y-115549023D01*
X149894749Y-115533718D01*
X149764639Y-115446782D01*
X149745598Y-115434059D01*
X149686265Y-115409482D01*
X149554418Y-115354869D01*
X149554411Y-115354867D01*
X149459116Y-115335912D01*
X149427933Y-115315077D01*
X149420617Y-115278295D01*
X149434025Y-115253208D01*
X150751295Y-113935939D01*
X157047500Y-113935939D01*
X157047500Y-114094060D01*
X157088422Y-114246782D01*
X157088423Y-114246786D01*
X157167475Y-114383709D01*
X157167478Y-114383713D01*
X157167480Y-114383716D01*
X157279284Y-114495520D01*
X157279287Y-114495521D01*
X157279290Y-114495524D01*
X157416213Y-114574576D01*
X157416215Y-114574576D01*
X157416216Y-114574577D01*
X157531331Y-114605422D01*
X157568939Y-114615499D01*
X157568940Y-114615500D01*
X157568943Y-114615500D01*
X157727060Y-114615500D01*
X157727060Y-114615499D01*
X157879784Y-114574577D01*
X158016716Y-114495520D01*
X158128520Y-114383716D01*
X158207577Y-114246784D01*
X158248499Y-114094060D01*
X158248500Y-114094060D01*
X158248500Y-113935940D01*
X158248499Y-113935939D01*
X158238355Y-113898083D01*
X158207577Y-113783216D01*
X158207576Y-113783215D01*
X158207576Y-113783213D01*
X158128524Y-113646290D01*
X158128521Y-113646287D01*
X158128520Y-113646284D01*
X158016716Y-113534480D01*
X158016713Y-113534478D01*
X158016709Y-113534475D01*
X157879786Y-113455423D01*
X157879782Y-113455422D01*
X157727060Y-113414500D01*
X157727057Y-113414500D01*
X157568943Y-113414500D01*
X157568940Y-113414500D01*
X157416217Y-113455422D01*
X157416213Y-113455423D01*
X157279290Y-113534475D01*
X157279281Y-113534482D01*
X157167482Y-113646281D01*
X157167475Y-113646290D01*
X157088423Y-113783213D01*
X157088422Y-113783217D01*
X157047500Y-113935939D01*
X150751295Y-113935939D01*
X152432619Y-112254616D01*
X165662500Y-112254616D01*
X165662500Y-112455383D01*
X165693906Y-112653677D01*
X165693907Y-112653680D01*
X165753625Y-112837475D01*
X165755948Y-112844622D01*
X165847095Y-113023508D01*
X165965103Y-113185932D01*
X165965104Y-113185933D01*
X165965108Y-113185938D01*
X166107062Y-113327892D01*
X166107066Y-113327895D01*
X166107068Y-113327897D01*
X166269492Y-113445905D01*
X166448378Y-113537052D01*
X166639320Y-113599093D01*
X166837616Y-113630500D01*
X166837617Y-113630500D01*
X167038383Y-113630500D01*
X167038384Y-113630500D01*
X167236680Y-113599093D01*
X167427622Y-113537052D01*
X167606508Y-113445905D01*
X167768932Y-113327897D01*
X167768935Y-113327893D01*
X167768938Y-113327892D01*
X167910892Y-113185938D01*
X167910893Y-113185935D01*
X167910897Y-113185932D01*
X168028905Y-113023508D01*
X168120052Y-112844622D01*
X168182093Y-112653680D01*
X168213500Y-112455384D01*
X168213500Y-112254616D01*
X173222500Y-112254616D01*
X173222500Y-112455383D01*
X173253906Y-112653677D01*
X173253907Y-112653680D01*
X173313625Y-112837475D01*
X173315948Y-112844622D01*
X173407095Y-113023508D01*
X173525103Y-113185932D01*
X173525104Y-113185933D01*
X173525108Y-113185938D01*
X173667062Y-113327892D01*
X173667066Y-113327895D01*
X173667068Y-113327897D01*
X173829492Y-113445905D01*
X174008378Y-113537052D01*
X174199320Y-113599093D01*
X174397616Y-113630500D01*
X174397617Y-113630500D01*
X174598383Y-113630500D01*
X174598384Y-113630500D01*
X174796680Y-113599093D01*
X174987622Y-113537052D01*
X175166508Y-113445905D01*
X175328932Y-113327897D01*
X175328935Y-113327893D01*
X175328938Y-113327892D01*
X175470892Y-113185938D01*
X175470893Y-113185935D01*
X175470897Y-113185932D01*
X175588905Y-113023508D01*
X175680052Y-112844622D01*
X175742093Y-112653680D01*
X175773500Y-112455384D01*
X175773500Y-112254616D01*
X175742093Y-112056320D01*
X175680052Y-111865378D01*
X175588905Y-111686492D01*
X175470897Y-111524068D01*
X175470895Y-111524066D01*
X175470892Y-111524062D01*
X175328938Y-111382108D01*
X175328933Y-111382104D01*
X175328932Y-111382103D01*
X175166508Y-111264095D01*
X174987622Y-111172948D01*
X174987621Y-111172947D01*
X174987620Y-111172947D01*
X174796680Y-111110907D01*
X174796677Y-111110906D01*
X174644350Y-111086780D01*
X174598384Y-111079500D01*
X174397616Y-111079500D01*
X174360299Y-111085410D01*
X174199322Y-111110906D01*
X174199319Y-111110907D01*
X174008379Y-111172947D01*
X173829492Y-111264095D01*
X173667066Y-111382104D01*
X173525104Y-111524066D01*
X173407095Y-111686492D01*
X173315947Y-111865379D01*
X173253907Y-112056319D01*
X173253906Y-112056322D01*
X173222500Y-112254616D01*
X168213500Y-112254616D01*
X168182093Y-112056320D01*
X168120052Y-111865378D01*
X168028905Y-111686492D01*
X167910897Y-111524068D01*
X167910895Y-111524066D01*
X167910892Y-111524062D01*
X167768938Y-111382108D01*
X167768933Y-111382104D01*
X167768932Y-111382103D01*
X167606508Y-111264095D01*
X167427622Y-111172948D01*
X167427621Y-111172947D01*
X167427620Y-111172947D01*
X167236680Y-111110907D01*
X167236677Y-111110906D01*
X167084350Y-111086780D01*
X167038384Y-111079500D01*
X166837616Y-111079500D01*
X166800299Y-111085410D01*
X166639322Y-111110906D01*
X166639319Y-111110907D01*
X166448379Y-111172947D01*
X166269492Y-111264095D01*
X166107066Y-111382104D01*
X165965104Y-111524066D01*
X165847095Y-111686492D01*
X165755947Y-111865379D01*
X165693907Y-112056319D01*
X165693906Y-112056322D01*
X165662500Y-112254616D01*
X152432619Y-112254616D01*
X154016871Y-110670364D01*
X155626297Y-109060939D01*
X159222500Y-109060939D01*
X159222500Y-109219060D01*
X159263422Y-109371782D01*
X159263423Y-109371786D01*
X159342475Y-109508709D01*
X159342478Y-109508713D01*
X159342480Y-109508716D01*
X159454284Y-109620520D01*
X159454287Y-109620521D01*
X159454290Y-109620524D01*
X159591213Y-109699576D01*
X159591215Y-109699576D01*
X159591216Y-109699577D01*
X159711665Y-109731851D01*
X159743939Y-109740499D01*
X159743940Y-109740500D01*
X159743943Y-109740500D01*
X159902060Y-109740500D01*
X159902060Y-109740499D01*
X160054784Y-109699577D01*
X160191716Y-109620520D01*
X160303520Y-109508716D01*
X160382577Y-109371784D01*
X160423499Y-109219060D01*
X160423500Y-109219060D01*
X160423500Y-109060940D01*
X160423499Y-109060939D01*
X160382577Y-108908217D01*
X160382576Y-108908213D01*
X160303524Y-108771290D01*
X160303521Y-108771287D01*
X160303520Y-108771284D01*
X160191716Y-108659480D01*
X160191713Y-108659478D01*
X160191709Y-108659475D01*
X160054786Y-108580423D01*
X160054782Y-108580422D01*
X159902060Y-108539500D01*
X159902057Y-108539500D01*
X159743943Y-108539500D01*
X159743940Y-108539500D01*
X159591217Y-108580422D01*
X159591213Y-108580423D01*
X159454290Y-108659475D01*
X159454281Y-108659482D01*
X159342482Y-108771281D01*
X159342475Y-108771290D01*
X159263423Y-108908213D01*
X159263422Y-108908217D01*
X159222500Y-109060939D01*
X155626297Y-109060939D01*
X155664153Y-109023083D01*
X156432384Y-108254852D01*
X156467032Y-108240500D01*
X162440930Y-108240500D01*
X162440946Y-108240501D01*
X162443943Y-108240501D01*
X162602059Y-108240501D01*
X162703875Y-108213218D01*
X162754785Y-108199577D01*
X162754786Y-108199576D01*
X162754790Y-108199575D01*
X162804892Y-108170646D01*
X162804892Y-108170645D01*
X162804904Y-108170639D01*
X162891716Y-108120520D01*
X163003520Y-108008716D01*
X163003520Y-108008714D01*
X163007549Y-108004686D01*
X163007553Y-108004681D01*
X163629909Y-107382324D01*
X163664556Y-107367973D01*
X163683309Y-107371704D01*
X163691580Y-107375130D01*
X163894535Y-107415500D01*
X163894538Y-107415500D01*
X164101462Y-107415500D01*
X164101465Y-107415500D01*
X164304420Y-107375130D01*
X164495598Y-107295941D01*
X164667655Y-107180977D01*
X164813977Y-107034655D01*
X164928941Y-106862598D01*
X165008130Y-106671420D01*
X165048500Y-106468465D01*
X165048500Y-106261535D01*
X165013919Y-106087689D01*
X165021235Y-106050908D01*
X165027324Y-106043488D01*
X168896197Y-102174616D01*
X173222500Y-102174616D01*
X173222500Y-102375383D01*
X173253906Y-102573677D01*
X173253907Y-102573680D01*
X173303965Y-102727744D01*
X173315948Y-102764622D01*
X173407095Y-102943508D01*
X173513891Y-103090500D01*
X173525104Y-103105933D01*
X173525108Y-103105938D01*
X173667062Y-103247892D01*
X173667066Y-103247895D01*
X173667068Y-103247897D01*
X173829492Y-103365905D01*
X174008378Y-103457052D01*
X174199320Y-103519093D01*
X174397616Y-103550500D01*
X174397617Y-103550500D01*
X174598383Y-103550500D01*
X174598384Y-103550500D01*
X174796680Y-103519093D01*
X174987622Y-103457052D01*
X175166508Y-103365905D01*
X175328932Y-103247897D01*
X175328935Y-103247893D01*
X175328938Y-103247892D01*
X175470892Y-103105938D01*
X175470893Y-103105935D01*
X175470897Y-103105932D01*
X175588905Y-102943508D01*
X175680052Y-102764622D01*
X175742093Y-102573680D01*
X175773500Y-102375384D01*
X175773500Y-102174616D01*
X175742093Y-101976320D01*
X175680052Y-101785378D01*
X175588905Y-101606492D01*
X175470897Y-101444068D01*
X175470895Y-101444066D01*
X175470892Y-101444062D01*
X175328938Y-101302108D01*
X175328933Y-101302104D01*
X175328932Y-101302103D01*
X175166508Y-101184095D01*
X174987622Y-101092948D01*
X174987621Y-101092947D01*
X174987620Y-101092947D01*
X174796680Y-101030907D01*
X174796677Y-101030906D01*
X174644350Y-101006780D01*
X174598384Y-100999500D01*
X174397616Y-100999500D01*
X174360299Y-101005410D01*
X174199322Y-101030906D01*
X174199319Y-101030907D01*
X174008379Y-101092947D01*
X173829492Y-101184095D01*
X173667066Y-101302104D01*
X173525104Y-101444066D01*
X173407095Y-101606492D01*
X173315947Y-101785379D01*
X173253907Y-101976319D01*
X173253906Y-101976322D01*
X173222500Y-102174616D01*
X168896197Y-102174616D01*
X170626500Y-100444314D01*
X170692392Y-100330186D01*
X170726499Y-100202895D01*
X170726500Y-100202895D01*
X170726500Y-93695134D01*
X173222500Y-93695134D01*
X173222500Y-95734858D01*
X173222501Y-95734868D01*
X173225415Y-95759992D01*
X173270794Y-95862766D01*
X173350233Y-95942205D01*
X173453006Y-95987584D01*
X173453009Y-95987585D01*
X173478135Y-95990500D01*
X175517864Y-95990499D01*
X175542991Y-95987585D01*
X175645765Y-95942206D01*
X175725206Y-95862765D01*
X175770585Y-95759991D01*
X175773500Y-95734865D01*
X175773499Y-93695136D01*
X175770585Y-93670009D01*
X175725206Y-93567235D01*
X175725205Y-93567234D01*
X175725205Y-93567233D01*
X175645766Y-93487794D01*
X175645767Y-93487794D01*
X175542993Y-93442415D01*
X175530428Y-93440957D01*
X175517865Y-93439500D01*
X175517863Y-93439500D01*
X173478141Y-93439500D01*
X173478131Y-93439501D01*
X173453007Y-93442415D01*
X173350233Y-93487794D01*
X173270794Y-93567233D01*
X173225415Y-93670006D01*
X173222500Y-93695134D01*
X170726500Y-93695134D01*
X170726500Y-92347558D01*
X170707495Y-92276634D01*
X170706921Y-92274491D01*
X170692392Y-92220266D01*
X170679006Y-92197081D01*
X170626500Y-92106138D01*
X170533314Y-92012952D01*
X170533312Y-92012950D01*
X170106862Y-91586500D01*
X169992736Y-91520608D01*
X169992732Y-91520607D01*
X169865443Y-91486500D01*
X169865440Y-91486500D01*
X169797610Y-91486500D01*
X169762962Y-91472148D01*
X169076753Y-90785939D01*
X169997500Y-90785939D01*
X169997500Y-90944060D01*
X170038422Y-91096782D01*
X170038423Y-91096786D01*
X170117475Y-91233709D01*
X170117478Y-91233713D01*
X170117480Y-91233716D01*
X170229284Y-91345520D01*
X170229287Y-91345521D01*
X170229290Y-91345524D01*
X170366213Y-91424576D01*
X170366215Y-91424576D01*
X170366216Y-91424577D01*
X170475039Y-91453736D01*
X170518939Y-91465499D01*
X170518940Y-91465500D01*
X170518943Y-91465500D01*
X170677060Y-91465500D01*
X170677060Y-91465499D01*
X170829784Y-91424577D01*
X170966716Y-91345520D01*
X171078520Y-91233716D01*
X171157577Y-91096784D01*
X171198499Y-90944060D01*
X171198500Y-90944060D01*
X171198500Y-90785940D01*
X171198499Y-90785939D01*
X171157577Y-90633217D01*
X171157576Y-90633213D01*
X171078524Y-90496290D01*
X171078521Y-90496287D01*
X171078520Y-90496284D01*
X170966716Y-90384480D01*
X170966713Y-90384478D01*
X170966709Y-90384475D01*
X170829786Y-90305423D01*
X170829782Y-90305422D01*
X170677060Y-90264500D01*
X170677057Y-90264500D01*
X170518943Y-90264500D01*
X170518940Y-90264500D01*
X170366217Y-90305422D01*
X170366213Y-90305423D01*
X170229290Y-90384475D01*
X170229281Y-90384482D01*
X170117482Y-90496281D01*
X170117475Y-90496290D01*
X170038423Y-90633213D01*
X170038422Y-90633217D01*
X169997500Y-90785939D01*
X169076753Y-90785939D01*
X164726753Y-86435939D01*
X174097500Y-86435939D01*
X174097500Y-86594060D01*
X174138422Y-86746782D01*
X174138423Y-86746786D01*
X174217475Y-86883709D01*
X174217478Y-86883713D01*
X174217480Y-86883716D01*
X174329284Y-86995520D01*
X174329287Y-86995521D01*
X174329290Y-86995524D01*
X174466213Y-87074576D01*
X174466215Y-87074576D01*
X174466216Y-87074577D01*
X174586665Y-87106851D01*
X174618939Y-87115499D01*
X174618940Y-87115500D01*
X174618943Y-87115500D01*
X174777060Y-87115500D01*
X174777060Y-87115499D01*
X174929784Y-87074577D01*
X175066716Y-86995520D01*
X175178520Y-86883716D01*
X175257577Y-86746784D01*
X175298499Y-86594060D01*
X175298500Y-86594060D01*
X175298500Y-86435940D01*
X175298499Y-86435939D01*
X175257577Y-86283217D01*
X175257576Y-86283213D01*
X175178524Y-86146290D01*
X175178521Y-86146287D01*
X175178520Y-86146284D01*
X175066716Y-86034480D01*
X175066713Y-86034478D01*
X175066709Y-86034475D01*
X174929786Y-85955423D01*
X174929782Y-85955422D01*
X174777060Y-85914500D01*
X174777057Y-85914500D01*
X174618943Y-85914500D01*
X174618940Y-85914500D01*
X174466217Y-85955422D01*
X174466213Y-85955423D01*
X174329290Y-86034475D01*
X174329281Y-86034482D01*
X174217482Y-86146281D01*
X174217475Y-86146290D01*
X174138423Y-86283213D01*
X174138422Y-86283217D01*
X174097500Y-86435939D01*
X164726753Y-86435939D01*
X163877314Y-85586500D01*
X163763188Y-85520608D01*
X163763184Y-85520607D01*
X163635895Y-85486500D01*
X163635892Y-85486500D01*
X159053766Y-85486500D01*
X158921981Y-85486500D01*
X158921978Y-85486500D01*
X158794688Y-85520607D01*
X158794684Y-85520608D01*
X158680558Y-85586500D01*
X158680558Y-85586501D01*
X158294911Y-85972148D01*
X158260263Y-85986500D01*
X127480428Y-85986500D01*
X127445780Y-85972148D01*
X127431428Y-85937500D01*
X127445780Y-85902852D01*
X127563977Y-85784655D01*
X127678941Y-85612598D01*
X127758130Y-85421420D01*
X127798500Y-85218465D01*
X127798500Y-85011535D01*
X127758130Y-84808580D01*
X127678941Y-84617402D01*
X127563977Y-84445345D01*
X127417655Y-84299023D01*
X127245598Y-84184059D01*
X127222707Y-84174577D01*
X127054423Y-84104871D01*
X127054417Y-84104869D01*
X126972572Y-84088589D01*
X126851465Y-84064500D01*
X126644535Y-84064500D01*
X126543520Y-84084592D01*
X126441582Y-84104869D01*
X126441576Y-84104871D01*
X126250403Y-84184058D01*
X126078345Y-84299022D01*
X125932022Y-84445345D01*
X125817058Y-84617403D01*
X125737871Y-84808576D01*
X125737869Y-84808582D01*
X125717592Y-84910520D01*
X125697500Y-85011535D01*
X125697500Y-85218465D01*
X125724290Y-85353150D01*
X125737869Y-85421417D01*
X125737871Y-85421423D01*
X125817058Y-85612596D01*
X125932022Y-85784654D01*
X126050220Y-85902852D01*
X126064572Y-85937500D01*
X126050220Y-85972148D01*
X126015572Y-85986500D01*
X117296544Y-85986500D01*
X117261896Y-85972148D01*
X117247544Y-85937500D01*
X117261896Y-85902852D01*
X119628809Y-83535939D01*
X154247500Y-83535939D01*
X154247500Y-83694060D01*
X154288422Y-83846782D01*
X154288423Y-83846786D01*
X154367475Y-83983709D01*
X154367478Y-83983713D01*
X154367480Y-83983716D01*
X154479284Y-84095520D01*
X154479287Y-84095521D01*
X154479290Y-84095524D01*
X154616213Y-84174576D01*
X154616215Y-84174576D01*
X154616216Y-84174577D01*
X154736665Y-84206851D01*
X154768939Y-84215499D01*
X154768940Y-84215500D01*
X154768943Y-84215500D01*
X154927060Y-84215500D01*
X154927060Y-84215499D01*
X155079784Y-84174577D01*
X155216716Y-84095520D01*
X155328520Y-83983716D01*
X155407577Y-83846784D01*
X155448499Y-83694060D01*
X155448500Y-83694060D01*
X155448500Y-83535940D01*
X155448499Y-83535939D01*
X155407577Y-83383217D01*
X155407576Y-83383213D01*
X155328524Y-83246290D01*
X155328521Y-83246287D01*
X155328520Y-83246284D01*
X155216716Y-83134480D01*
X155216713Y-83134478D01*
X155216709Y-83134475D01*
X155079786Y-83055423D01*
X155079782Y-83055422D01*
X154927060Y-83014500D01*
X154927057Y-83014500D01*
X154768943Y-83014500D01*
X154768940Y-83014500D01*
X154616217Y-83055422D01*
X154616213Y-83055423D01*
X154479290Y-83134475D01*
X154479281Y-83134482D01*
X154367482Y-83246281D01*
X154367475Y-83246290D01*
X154288423Y-83383213D01*
X154288422Y-83383217D01*
X154247500Y-83535939D01*
X119628809Y-83535939D01*
X122909896Y-80254852D01*
X122944544Y-80240500D01*
X130803968Y-80240500D01*
X130838616Y-80254852D01*
X130879284Y-80295520D01*
X130879287Y-80295521D01*
X130879290Y-80295524D01*
X131016213Y-80374576D01*
X131016215Y-80374576D01*
X131016216Y-80374577D01*
X131136665Y-80406851D01*
X131168939Y-80415499D01*
X131168940Y-80415500D01*
X131168943Y-80415500D01*
X131327060Y-80415500D01*
X131327060Y-80415499D01*
X131479784Y-80374577D01*
X131500533Y-80362598D01*
X131616709Y-80295524D01*
X131616708Y-80295524D01*
X131616716Y-80295520D01*
X131728520Y-80183716D01*
X131807577Y-80046784D01*
X131848499Y-79894060D01*
X131848500Y-79894060D01*
X131848500Y-79735940D01*
X131848499Y-79735939D01*
X131820974Y-79633216D01*
X131807577Y-79583216D01*
X131807576Y-79583215D01*
X131807576Y-79583213D01*
X131728524Y-79446290D01*
X131728521Y-79446287D01*
X131728520Y-79446284D01*
X131616716Y-79334480D01*
X131616713Y-79334478D01*
X131616709Y-79334475D01*
X131479786Y-79255423D01*
X131479782Y-79255422D01*
X131327060Y-79214500D01*
X131327057Y-79214500D01*
X131168943Y-79214500D01*
X131168940Y-79214500D01*
X131016217Y-79255422D01*
X131016213Y-79255423D01*
X130879290Y-79334475D01*
X130879281Y-79334482D01*
X130838616Y-79375148D01*
X130803968Y-79389500D01*
X124791032Y-79389500D01*
X124756384Y-79375148D01*
X124742032Y-79340500D01*
X124756384Y-79305852D01*
X124787659Y-79274577D01*
X124828520Y-79233716D01*
X124905280Y-79100763D01*
X124907576Y-79096786D01*
X124907576Y-79096785D01*
X124907577Y-79096784D01*
X124948499Y-78944060D01*
X124948500Y-78944060D01*
X124948500Y-78785940D01*
X124910845Y-78645413D01*
X124908307Y-78635939D01*
X135997500Y-78635939D01*
X135997500Y-78794060D01*
X136038422Y-78946782D01*
X136038423Y-78946786D01*
X136117475Y-79083709D01*
X136117478Y-79083713D01*
X136117480Y-79083716D01*
X136229284Y-79195520D01*
X136229287Y-79195521D01*
X136229290Y-79195524D01*
X136319428Y-79247565D01*
X136342258Y-79277318D01*
X136337363Y-79314500D01*
X136319428Y-79332435D01*
X136229290Y-79384475D01*
X136229281Y-79384482D01*
X136117482Y-79496281D01*
X136117475Y-79496290D01*
X136038423Y-79633213D01*
X136038422Y-79633217D01*
X135997500Y-79785939D01*
X135997500Y-79944060D01*
X136038422Y-80096782D01*
X136038423Y-80096786D01*
X136117475Y-80233709D01*
X136117478Y-80233713D01*
X136117480Y-80233716D01*
X136229284Y-80345520D01*
X136229287Y-80345521D01*
X136229290Y-80345524D01*
X136366213Y-80424576D01*
X136366215Y-80424576D01*
X136366216Y-80424577D01*
X136486665Y-80456851D01*
X136518939Y-80465499D01*
X136518940Y-80465500D01*
X136518943Y-80465500D01*
X136677060Y-80465500D01*
X136677060Y-80465499D01*
X136829784Y-80424577D01*
X136966716Y-80345520D01*
X137078520Y-80233716D01*
X137157577Y-80096784D01*
X137198499Y-79944060D01*
X137198500Y-79944060D01*
X137198500Y-79785940D01*
X137198499Y-79785939D01*
X137194714Y-79771810D01*
X137191961Y-79761535D01*
X156447500Y-79761535D01*
X156447500Y-79968465D01*
X156474290Y-80103150D01*
X156487869Y-80171417D01*
X156487871Y-80171423D01*
X156567058Y-80362596D01*
X156567059Y-80362598D01*
X156682023Y-80534655D01*
X156828345Y-80680977D01*
X157000402Y-80795941D01*
X157191580Y-80875130D01*
X157394535Y-80915500D01*
X157394538Y-80915500D01*
X157601462Y-80915500D01*
X157601465Y-80915500D01*
X157804420Y-80875130D01*
X157995598Y-80795941D01*
X158047091Y-80761535D01*
X160197500Y-80761535D01*
X160197500Y-80968465D01*
X160224290Y-81103150D01*
X160237869Y-81171417D01*
X160237871Y-81171423D01*
X160255714Y-81214500D01*
X160317059Y-81362598D01*
X160432023Y-81534655D01*
X160578345Y-81680977D01*
X160750402Y-81795941D01*
X160941580Y-81875130D01*
X161144535Y-81915500D01*
X161144538Y-81915500D01*
X161351462Y-81915500D01*
X161351465Y-81915500D01*
X161554420Y-81875130D01*
X161745598Y-81795941D01*
X161917655Y-81680977D01*
X162063977Y-81534655D01*
X162079425Y-81511535D01*
X165697500Y-81511535D01*
X165697500Y-81718465D01*
X165712911Y-81795941D01*
X165737869Y-81921417D01*
X165737871Y-81921423D01*
X165817057Y-82112594D01*
X165817059Y-82112598D01*
X165932023Y-82284655D01*
X166078345Y-82430977D01*
X166250402Y-82545941D01*
X166441580Y-82625130D01*
X166644535Y-82665500D01*
X166644538Y-82665500D01*
X166851462Y-82665500D01*
X166851465Y-82665500D01*
X167054420Y-82625130D01*
X167245598Y-82545941D01*
X167417655Y-82430977D01*
X167563977Y-82284655D01*
X167678941Y-82112598D01*
X167706632Y-82045748D01*
X167733151Y-82019230D01*
X167751902Y-82015500D01*
X168500730Y-82015500D01*
X168500730Y-82015499D01*
X168602588Y-81988207D01*
X168693913Y-81935480D01*
X172093453Y-78535939D01*
X174647500Y-78535939D01*
X174647500Y-78694060D01*
X174688422Y-78846782D01*
X174688423Y-78846786D01*
X174767475Y-78983709D01*
X174767478Y-78983713D01*
X174767480Y-78983716D01*
X174879284Y-79095520D01*
X174879287Y-79095521D01*
X174879290Y-79095524D01*
X175016213Y-79174576D01*
X175016215Y-79174576D01*
X175016216Y-79174577D01*
X175136665Y-79206851D01*
X175168939Y-79215499D01*
X175168940Y-79215500D01*
X175168943Y-79215500D01*
X175327060Y-79215500D01*
X175327060Y-79215499D01*
X175479784Y-79174577D01*
X175616716Y-79095520D01*
X175728520Y-78983716D01*
X175784769Y-78886289D01*
X175807576Y-78846786D01*
X175807576Y-78846785D01*
X175807577Y-78846784D01*
X175848499Y-78694060D01*
X175848500Y-78694060D01*
X175848500Y-78535940D01*
X175848499Y-78535939D01*
X175819645Y-78428255D01*
X175807577Y-78383216D01*
X175807576Y-78383215D01*
X175807576Y-78383213D01*
X175728524Y-78246290D01*
X175728521Y-78246287D01*
X175728520Y-78246284D01*
X175616716Y-78134480D01*
X175616713Y-78134478D01*
X175616709Y-78134475D01*
X175479786Y-78055423D01*
X175479782Y-78055422D01*
X175327060Y-78014500D01*
X175327057Y-78014500D01*
X175168943Y-78014500D01*
X175168940Y-78014500D01*
X175016217Y-78055422D01*
X175016213Y-78055423D01*
X174879290Y-78134475D01*
X174879281Y-78134482D01*
X174767482Y-78246281D01*
X174767475Y-78246290D01*
X174688423Y-78383213D01*
X174688422Y-78383217D01*
X174647500Y-78535939D01*
X172093453Y-78535939D01*
X173881576Y-76747815D01*
X173916223Y-76733464D01*
X173938468Y-76738805D01*
X174047816Y-76794520D01*
X174051141Y-76796214D01*
X174225406Y-76852836D01*
X174406383Y-76881500D01*
X174406384Y-76881500D01*
X174589616Y-76881500D01*
X174589617Y-76881500D01*
X174770594Y-76852836D01*
X174944859Y-76796214D01*
X175108122Y-76713028D01*
X175256360Y-76605326D01*
X175385926Y-76475760D01*
X175493628Y-76327522D01*
X175576814Y-76164259D01*
X175633436Y-75989994D01*
X175662100Y-75809017D01*
X175662100Y-75320983D01*
X175633436Y-75140006D01*
X175576814Y-74965741D01*
X175576813Y-74965739D01*
X175493631Y-74802483D01*
X175493629Y-74802480D01*
X175493628Y-74802478D01*
X175385926Y-74654240D01*
X175385922Y-74654236D01*
X175385920Y-74654233D01*
X175256366Y-74524679D01*
X175256362Y-74524676D01*
X175256360Y-74524674D01*
X175108122Y-74416972D01*
X175108120Y-74416971D01*
X175108116Y-74416968D01*
X174944860Y-74333786D01*
X174770594Y-74277164D01*
X174770591Y-74277163D01*
X174631569Y-74255144D01*
X174589617Y-74248500D01*
X174406383Y-74248500D01*
X174372325Y-74253894D01*
X174225408Y-74277163D01*
X174225405Y-74277164D01*
X174051139Y-74333786D01*
X173887883Y-74416968D01*
X173739633Y-74524679D01*
X173610079Y-74654233D01*
X173502368Y-74802483D01*
X173419186Y-74965739D01*
X173362564Y-75140005D01*
X173362563Y-75140008D01*
X173333900Y-75320983D01*
X173333900Y-75809016D01*
X173362563Y-75989991D01*
X173362564Y-75989994D01*
X173388611Y-76070158D01*
X173385668Y-76107545D01*
X173376657Y-76119948D01*
X168296459Y-81200148D01*
X168261811Y-81214500D01*
X167751902Y-81214500D01*
X167717254Y-81200148D01*
X167706632Y-81184252D01*
X167678942Y-81117405D01*
X167678941Y-81117403D01*
X167678941Y-81117402D01*
X167563977Y-80945345D01*
X167417655Y-80799023D01*
X167413042Y-80795941D01*
X167296972Y-80718386D01*
X167245598Y-80684059D01*
X167245596Y-80684058D01*
X167054423Y-80604871D01*
X167054417Y-80604869D01*
X166972572Y-80588589D01*
X166851465Y-80564500D01*
X166644535Y-80564500D01*
X166543520Y-80584592D01*
X166441582Y-80604869D01*
X166441576Y-80604871D01*
X166250403Y-80684058D01*
X166078345Y-80799022D01*
X165932022Y-80945345D01*
X165817058Y-81117403D01*
X165737871Y-81308576D01*
X165737869Y-81308582D01*
X165727125Y-81362598D01*
X165697500Y-81511535D01*
X162079425Y-81511535D01*
X162178941Y-81362598D01*
X162258130Y-81171420D01*
X162298500Y-80968465D01*
X162298500Y-80761535D01*
X162258130Y-80558580D01*
X162178941Y-80367402D01*
X162063977Y-80195345D01*
X161917655Y-80049023D01*
X161917654Y-80049022D01*
X161917655Y-80049022D01*
X161795277Y-79967252D01*
X161774441Y-79936069D01*
X161773500Y-79926510D01*
X161773500Y-79461543D01*
X161787852Y-79426895D01*
X162234895Y-78979852D01*
X162269543Y-78965500D01*
X162327060Y-78965500D01*
X162327060Y-78965499D01*
X162479784Y-78924577D01*
X162479892Y-78924515D01*
X162616709Y-78845524D01*
X162616708Y-78845524D01*
X162616716Y-78845520D01*
X162728520Y-78733716D01*
X162784969Y-78635943D01*
X162807576Y-78596786D01*
X162807576Y-78596785D01*
X162807577Y-78596784D01*
X162830419Y-78511536D01*
X162830419Y-78511535D01*
X164447500Y-78511535D01*
X164447500Y-78718465D01*
X164474290Y-78853150D01*
X164487869Y-78921417D01*
X164487871Y-78921423D01*
X164562157Y-79100763D01*
X164567059Y-79112598D01*
X164575433Y-79125130D01*
X164678813Y-79279852D01*
X164682023Y-79284655D01*
X164828345Y-79430977D01*
X165000402Y-79545941D01*
X165191580Y-79625130D01*
X165394535Y-79665500D01*
X165394538Y-79665500D01*
X165601462Y-79665500D01*
X165601465Y-79665500D01*
X165804420Y-79625130D01*
X165995598Y-79545941D01*
X166167655Y-79430977D01*
X166313977Y-79284655D01*
X166428941Y-79112598D01*
X166508130Y-78921420D01*
X166548500Y-78718465D01*
X166548500Y-78511535D01*
X166531934Y-78428253D01*
X166539250Y-78391472D01*
X166545339Y-78384052D01*
X166917857Y-78011535D01*
X168197500Y-78011535D01*
X168197500Y-78218465D01*
X168222362Y-78343455D01*
X168237869Y-78421417D01*
X168237871Y-78421423D01*
X168310509Y-78596786D01*
X168317059Y-78612598D01*
X168338985Y-78645413D01*
X168387796Y-78718465D01*
X168432023Y-78784655D01*
X168578345Y-78930977D01*
X168750402Y-79045941D01*
X168941580Y-79125130D01*
X169144535Y-79165500D01*
X169144538Y-79165500D01*
X169351462Y-79165500D01*
X169351465Y-79165500D01*
X169554420Y-79125130D01*
X169745598Y-79045941D01*
X169917655Y-78930977D01*
X170063977Y-78784655D01*
X170178941Y-78612598D01*
X170258130Y-78421420D01*
X170298500Y-78218465D01*
X170298500Y-78011535D01*
X170258130Y-77808580D01*
X170178941Y-77617402D01*
X170063977Y-77445345D01*
X169917655Y-77299023D01*
X169917654Y-77299022D01*
X169840277Y-77247320D01*
X169819441Y-77216137D01*
X169818500Y-77206578D01*
X169818500Y-76846877D01*
X169832852Y-76812229D01*
X169852358Y-76800275D01*
X169864859Y-76796214D01*
X170028122Y-76713028D01*
X170176360Y-76605326D01*
X170305926Y-76475760D01*
X170413628Y-76327522D01*
X170496814Y-76164259D01*
X170553436Y-75989994D01*
X170582100Y-75809017D01*
X170582100Y-75320983D01*
X170793900Y-75320983D01*
X170793900Y-75809016D01*
X170822563Y-75989991D01*
X170822564Y-75989994D01*
X170879186Y-76164260D01*
X170962368Y-76327516D01*
X170962371Y-76327520D01*
X170962372Y-76327522D01*
X171070074Y-76475760D01*
X171070076Y-76475762D01*
X171070079Y-76475766D01*
X171199633Y-76605320D01*
X171199636Y-76605322D01*
X171199640Y-76605326D01*
X171347878Y-76713028D01*
X171347880Y-76713029D01*
X171347883Y-76713031D01*
X171507816Y-76794520D01*
X171511141Y-76796214D01*
X171685406Y-76852836D01*
X171866383Y-76881500D01*
X171866384Y-76881500D01*
X172049616Y-76881500D01*
X172049617Y-76881500D01*
X172230594Y-76852836D01*
X172404859Y-76796214D01*
X172568122Y-76713028D01*
X172716360Y-76605326D01*
X172845926Y-76475760D01*
X172953628Y-76327522D01*
X173036814Y-76164259D01*
X173093436Y-75989994D01*
X173122100Y-75809017D01*
X173122100Y-75320983D01*
X173093436Y-75140006D01*
X173036814Y-74965741D01*
X173036813Y-74965739D01*
X172953631Y-74802483D01*
X172953629Y-74802480D01*
X172953628Y-74802478D01*
X172845926Y-74654240D01*
X172845922Y-74654236D01*
X172845920Y-74654233D01*
X172716366Y-74524679D01*
X172716362Y-74524676D01*
X172716360Y-74524674D01*
X172568122Y-74416972D01*
X172568120Y-74416971D01*
X172568116Y-74416968D01*
X172404860Y-74333786D01*
X172230594Y-74277164D01*
X172230591Y-74277163D01*
X172091569Y-74255144D01*
X172049617Y-74248500D01*
X171866383Y-74248500D01*
X171832325Y-74253894D01*
X171685408Y-74277163D01*
X171685405Y-74277164D01*
X171511139Y-74333786D01*
X171347883Y-74416968D01*
X171199633Y-74524679D01*
X171070079Y-74654233D01*
X170962368Y-74802483D01*
X170879186Y-74965739D01*
X170822564Y-75140005D01*
X170822563Y-75140008D01*
X170793900Y-75320983D01*
X170582100Y-75320983D01*
X170553436Y-75140006D01*
X170496814Y-74965741D01*
X170496813Y-74965739D01*
X170413631Y-74802483D01*
X170413629Y-74802480D01*
X170413628Y-74802478D01*
X170305926Y-74654240D01*
X170305922Y-74654236D01*
X170305920Y-74654233D01*
X170176366Y-74524679D01*
X170176362Y-74524676D01*
X170176360Y-74524674D01*
X170028122Y-74416972D01*
X170028120Y-74416971D01*
X170028116Y-74416968D01*
X169864860Y-74333786D01*
X169690594Y-74277164D01*
X169690591Y-74277163D01*
X169551569Y-74255144D01*
X169509617Y-74248500D01*
X169326383Y-74248500D01*
X169292325Y-74253894D01*
X169145408Y-74277163D01*
X169145405Y-74277164D01*
X168971139Y-74333786D01*
X168807883Y-74416968D01*
X168659633Y-74524679D01*
X168530079Y-74654233D01*
X168422368Y-74802483D01*
X168339186Y-74965739D01*
X168282564Y-75140005D01*
X168282563Y-75140008D01*
X168253900Y-75320983D01*
X168253900Y-75809016D01*
X168282563Y-75989991D01*
X168282564Y-75989994D01*
X168339186Y-76164260D01*
X168422368Y-76327516D01*
X168422371Y-76327520D01*
X168422372Y-76327522D01*
X168530074Y-76475760D01*
X168530076Y-76475762D01*
X168530079Y-76475766D01*
X168659633Y-76605320D01*
X168659636Y-76605322D01*
X168659640Y-76605326D01*
X168807878Y-76713028D01*
X168861065Y-76740128D01*
X168971132Y-76796210D01*
X168971139Y-76796213D01*
X168971141Y-76796214D01*
X168983641Y-76800275D01*
X169012159Y-76824630D01*
X169017500Y-76846877D01*
X169017500Y-77049555D01*
X169003148Y-77084203D01*
X168978059Y-77097613D01*
X168941588Y-77104867D01*
X168941581Y-77104869D01*
X168750403Y-77184058D01*
X168578345Y-77299022D01*
X168432022Y-77445345D01*
X168317058Y-77617403D01*
X168237871Y-77808576D01*
X168237869Y-77808582D01*
X168222772Y-77884482D01*
X168197500Y-78011535D01*
X166917857Y-78011535D01*
X167198480Y-77730913D01*
X167251206Y-77639588D01*
X167251207Y-77639587D01*
X167257152Y-77617402D01*
X167278499Y-77537730D01*
X167278500Y-77537730D01*
X167278500Y-76846877D01*
X167292852Y-76812229D01*
X167312358Y-76800275D01*
X167324859Y-76796214D01*
X167488122Y-76713028D01*
X167636360Y-76605326D01*
X167765926Y-76475760D01*
X167873628Y-76327522D01*
X167956814Y-76164259D01*
X168013436Y-75989994D01*
X168042100Y-75809017D01*
X168042100Y-75320983D01*
X168013436Y-75140006D01*
X167956814Y-74965741D01*
X167956813Y-74965739D01*
X167873631Y-74802483D01*
X167873629Y-74802480D01*
X167873628Y-74802478D01*
X167765926Y-74654240D01*
X167765922Y-74654236D01*
X167765920Y-74654233D01*
X167636366Y-74524679D01*
X167636362Y-74524676D01*
X167636360Y-74524674D01*
X167488122Y-74416972D01*
X167488120Y-74416971D01*
X167488116Y-74416968D01*
X167324860Y-74333786D01*
X167150594Y-74277164D01*
X167150591Y-74277163D01*
X167011569Y-74255144D01*
X166969617Y-74248500D01*
X166786383Y-74248500D01*
X166752325Y-74253894D01*
X166605408Y-74277163D01*
X166605405Y-74277164D01*
X166431139Y-74333786D01*
X166267883Y-74416968D01*
X166119633Y-74524679D01*
X165990079Y-74654233D01*
X165882368Y-74802483D01*
X165799186Y-74965739D01*
X165742564Y-75140005D01*
X165742563Y-75140008D01*
X165713900Y-75320983D01*
X165713900Y-75809016D01*
X165742563Y-75989991D01*
X165742564Y-75989994D01*
X165799186Y-76164260D01*
X165882368Y-76327516D01*
X165882371Y-76327520D01*
X165882372Y-76327522D01*
X165990074Y-76475760D01*
X165990076Y-76475762D01*
X165990079Y-76475766D01*
X166119633Y-76605320D01*
X166119636Y-76605322D01*
X166119640Y-76605326D01*
X166267878Y-76713028D01*
X166321065Y-76740128D01*
X166431132Y-76796210D01*
X166431139Y-76796213D01*
X166431141Y-76796214D01*
X166443641Y-76800275D01*
X166472159Y-76824630D01*
X166477500Y-76846877D01*
X166477500Y-77298810D01*
X166463148Y-77333458D01*
X166094138Y-77702467D01*
X166059490Y-77716819D01*
X166032269Y-77708561D01*
X165995598Y-77684059D01*
X165995596Y-77684058D01*
X165804423Y-77604871D01*
X165804417Y-77604869D01*
X165722572Y-77588589D01*
X165601465Y-77564500D01*
X165394535Y-77564500D01*
X165293520Y-77584592D01*
X165191582Y-77604869D01*
X165191576Y-77604871D01*
X165000403Y-77684058D01*
X164828345Y-77799022D01*
X164682022Y-77945345D01*
X164567058Y-78117403D01*
X164487871Y-78308576D01*
X164487869Y-78308582D01*
X164472772Y-78384482D01*
X164447500Y-78511535D01*
X162830419Y-78511535D01*
X162834463Y-78496446D01*
X162848499Y-78444060D01*
X162848500Y-78444060D01*
X162848500Y-78285940D01*
X162848499Y-78285939D01*
X162813527Y-78155422D01*
X162807577Y-78133216D01*
X162807576Y-78133215D01*
X162807576Y-78133213D01*
X162728524Y-77996290D01*
X162728521Y-77996287D01*
X162728520Y-77996284D01*
X162616716Y-77884480D01*
X162616713Y-77884478D01*
X162616709Y-77884475D01*
X162479786Y-77805423D01*
X162479782Y-77805422D01*
X162327060Y-77764500D01*
X162327057Y-77764500D01*
X162168943Y-77764500D01*
X162168940Y-77764500D01*
X162016217Y-77805422D01*
X162016213Y-77805423D01*
X161879290Y-77884475D01*
X161879281Y-77884482D01*
X161767482Y-77996281D01*
X161767475Y-77996290D01*
X161688423Y-78133213D01*
X161688422Y-78133217D01*
X161647500Y-78285939D01*
X161647500Y-78343455D01*
X161633148Y-78378103D01*
X161007515Y-79003736D01*
X160951497Y-79100760D01*
X160951496Y-79100764D01*
X160922500Y-79208978D01*
X160922500Y-79830032D01*
X160908148Y-79864680D01*
X160892252Y-79875302D01*
X160750405Y-79934057D01*
X160578345Y-80049022D01*
X160432022Y-80195345D01*
X160317058Y-80367403D01*
X160237871Y-80558576D01*
X160237869Y-80558582D01*
X160228662Y-80604870D01*
X160197500Y-80761535D01*
X158047091Y-80761535D01*
X158167655Y-80680977D01*
X158313977Y-80534655D01*
X158428941Y-80362598D01*
X158508130Y-80171420D01*
X158548500Y-79968465D01*
X158548500Y-79761535D01*
X158508130Y-79558580D01*
X158480439Y-79491729D01*
X158480439Y-79454227D01*
X158491058Y-79438333D01*
X160399541Y-77529852D01*
X160434189Y-77515500D01*
X162800730Y-77515500D01*
X162800730Y-77515499D01*
X162902588Y-77488207D01*
X162993913Y-77435480D01*
X163695077Y-76734314D01*
X163729724Y-76719963D01*
X163751969Y-76725303D01*
X163891141Y-76796214D01*
X164065406Y-76852836D01*
X164246383Y-76881500D01*
X164246384Y-76881500D01*
X164429616Y-76881500D01*
X164429617Y-76881500D01*
X164610594Y-76852836D01*
X164784859Y-76796214D01*
X164948122Y-76713028D01*
X165096360Y-76605326D01*
X165225926Y-76475760D01*
X165333628Y-76327522D01*
X165416814Y-76164259D01*
X165473436Y-75989994D01*
X165502100Y-75809017D01*
X165502100Y-75320983D01*
X165473436Y-75140006D01*
X165416814Y-74965741D01*
X165416813Y-74965739D01*
X165333631Y-74802483D01*
X165333629Y-74802480D01*
X165333628Y-74802478D01*
X165225926Y-74654240D01*
X165225922Y-74654236D01*
X165225920Y-74654233D01*
X165096366Y-74524679D01*
X165096362Y-74524676D01*
X165096360Y-74524674D01*
X164948122Y-74416972D01*
X164948120Y-74416971D01*
X164948116Y-74416968D01*
X164784860Y-74333786D01*
X164610594Y-74277164D01*
X164610591Y-74277163D01*
X164471569Y-74255144D01*
X164429617Y-74248500D01*
X164246383Y-74248500D01*
X164212325Y-74253894D01*
X164065408Y-74277163D01*
X164065405Y-74277164D01*
X163891139Y-74333786D01*
X163727883Y-74416968D01*
X163579633Y-74524679D01*
X163450079Y-74654233D01*
X163342368Y-74802483D01*
X163259186Y-74965739D01*
X163202564Y-75140005D01*
X163202563Y-75140008D01*
X163173900Y-75320983D01*
X163173900Y-75809016D01*
X163202563Y-75989991D01*
X163202565Y-75989998D01*
X163218801Y-76039969D01*
X163215858Y-76077356D01*
X163206847Y-76089758D01*
X162767703Y-76528902D01*
X162733055Y-76543254D01*
X162698407Y-76528902D01*
X162684055Y-76494254D01*
X162693411Y-76465457D01*
X162793628Y-76327522D01*
X162876814Y-76164259D01*
X162933436Y-75989994D01*
X162962100Y-75809017D01*
X162962100Y-75320983D01*
X162933436Y-75140006D01*
X162876814Y-74965741D01*
X162876813Y-74965739D01*
X162793631Y-74802483D01*
X162793629Y-74802480D01*
X162793628Y-74802478D01*
X162685926Y-74654240D01*
X162685922Y-74654236D01*
X162685920Y-74654233D01*
X162556366Y-74524679D01*
X162556362Y-74524676D01*
X162556360Y-74524674D01*
X162408122Y-74416972D01*
X162408120Y-74416971D01*
X162408116Y-74416968D01*
X162244860Y-74333786D01*
X162070594Y-74277164D01*
X162070591Y-74277163D01*
X161931569Y-74255144D01*
X161889617Y-74248500D01*
X161706383Y-74248500D01*
X161672325Y-74253894D01*
X161525408Y-74277163D01*
X161525405Y-74277164D01*
X161351139Y-74333786D01*
X161187883Y-74416968D01*
X161039633Y-74524679D01*
X160910079Y-74654233D01*
X160802368Y-74802483D01*
X160719186Y-74965739D01*
X160662564Y-75140005D01*
X160662563Y-75140008D01*
X160633900Y-75320983D01*
X160633900Y-75809016D01*
X160662563Y-75989991D01*
X160662564Y-75989994D01*
X160719186Y-76164260D01*
X160802368Y-76327516D01*
X160802371Y-76327520D01*
X160802372Y-76327522D01*
X160910074Y-76475760D01*
X160910076Y-76475762D01*
X160910079Y-76475766D01*
X161039634Y-76605321D01*
X161039638Y-76605324D01*
X161039640Y-76605326D01*
X161067900Y-76625858D01*
X161087496Y-76657835D01*
X161078741Y-76694301D01*
X161046764Y-76713897D01*
X161039099Y-76714500D01*
X160195270Y-76714500D01*
X160093412Y-76741792D01*
X160093410Y-76741793D01*
X160002086Y-76794520D01*
X160002085Y-76794521D01*
X157924668Y-78871937D01*
X157890020Y-78886289D01*
X157871269Y-78882559D01*
X157804427Y-78854872D01*
X157804417Y-78854869D01*
X157722572Y-78838589D01*
X157601465Y-78814500D01*
X157394535Y-78814500D01*
X157293520Y-78834592D01*
X157191582Y-78854869D01*
X157191576Y-78854871D01*
X157000403Y-78934058D01*
X156828345Y-79049022D01*
X156682022Y-79195345D01*
X156567058Y-79367403D01*
X156487871Y-79558576D01*
X156487869Y-79558582D01*
X156482969Y-79583217D01*
X156447500Y-79761535D01*
X137191961Y-79761535D01*
X137157577Y-79633217D01*
X137157576Y-79633213D01*
X137078524Y-79496290D01*
X137078521Y-79496287D01*
X137078520Y-79496284D01*
X136966716Y-79384480D01*
X136876568Y-79332433D01*
X136853740Y-79302683D01*
X136858634Y-79265500D01*
X136876566Y-79247567D01*
X136966716Y-79195520D01*
X137078520Y-79083716D01*
X137100329Y-79045941D01*
X137157576Y-78946786D01*
X137157576Y-78946785D01*
X137157577Y-78946784D01*
X137198499Y-78794060D01*
X137198500Y-78794060D01*
X137198500Y-78635940D01*
X137198499Y-78635939D01*
X137165164Y-78511532D01*
X137157577Y-78483216D01*
X137157576Y-78483215D01*
X137157576Y-78483213D01*
X137078524Y-78346290D01*
X137078521Y-78346287D01*
X137078520Y-78346284D01*
X136966716Y-78234480D01*
X136966713Y-78234478D01*
X136966709Y-78234475D01*
X136829786Y-78155423D01*
X136829782Y-78155422D01*
X136677060Y-78114500D01*
X136677057Y-78114500D01*
X136518943Y-78114500D01*
X136518940Y-78114500D01*
X136366217Y-78155422D01*
X136366213Y-78155423D01*
X136229290Y-78234475D01*
X136229281Y-78234482D01*
X136117482Y-78346281D01*
X136117475Y-78346290D01*
X136038423Y-78483213D01*
X136038422Y-78483217D01*
X135997500Y-78635939D01*
X124908307Y-78635939D01*
X124907577Y-78633216D01*
X124907575Y-78633212D01*
X124828524Y-78496290D01*
X124828521Y-78496287D01*
X124828520Y-78496284D01*
X124716716Y-78384480D01*
X124716713Y-78384478D01*
X124716709Y-78384475D01*
X124579786Y-78305423D01*
X124579782Y-78305422D01*
X124427060Y-78264500D01*
X124427057Y-78264500D01*
X124268943Y-78264500D01*
X124268940Y-78264500D01*
X124116217Y-78305422D01*
X124116213Y-78305423D01*
X123979290Y-78384475D01*
X123979281Y-78384482D01*
X123913616Y-78450148D01*
X123878968Y-78464500D01*
X117251902Y-78464500D01*
X117217254Y-78450148D01*
X117206632Y-78434252D01*
X117185490Y-78383213D01*
X117178941Y-78367402D01*
X117063977Y-78195345D01*
X116917655Y-78049023D01*
X116912418Y-78045524D01*
X116806093Y-77974480D01*
X116745598Y-77934059D01*
X116744753Y-77933709D01*
X116554423Y-77854871D01*
X116554417Y-77854869D01*
X116472572Y-77838589D01*
X116351465Y-77814500D01*
X116144535Y-77814500D01*
X116043520Y-77834592D01*
X115941582Y-77854869D01*
X115941576Y-77854871D01*
X115750403Y-77934058D01*
X115578345Y-78049022D01*
X115432022Y-78195345D01*
X115317057Y-78367405D01*
X115289368Y-78434252D01*
X115262849Y-78460770D01*
X115244098Y-78464500D01*
X114017032Y-78464500D01*
X113982384Y-78450148D01*
X113916718Y-78384482D01*
X113916716Y-78384480D01*
X113916713Y-78384478D01*
X113916709Y-78384475D01*
X113779786Y-78305423D01*
X113779782Y-78305422D01*
X113627060Y-78264500D01*
X113627057Y-78264500D01*
X113468943Y-78264500D01*
X113468940Y-78264500D01*
X113316217Y-78305422D01*
X113316213Y-78305423D01*
X113179290Y-78384475D01*
X113179281Y-78384482D01*
X113067482Y-78496281D01*
X113067475Y-78496290D01*
X112988423Y-78633213D01*
X112988422Y-78633217D01*
X112947500Y-78785939D01*
X112947500Y-78944060D01*
X112988422Y-79096782D01*
X112988423Y-79096786D01*
X113067475Y-79233709D01*
X113067478Y-79233713D01*
X113067480Y-79233716D01*
X113179284Y-79345520D01*
X113179287Y-79345521D01*
X113179290Y-79345524D01*
X113316213Y-79424576D01*
X113316215Y-79424576D01*
X113316216Y-79424577D01*
X113397217Y-79446281D01*
X113468939Y-79465499D01*
X113468940Y-79465500D01*
X113468943Y-79465500D01*
X113627060Y-79465500D01*
X113627060Y-79465499D01*
X113779784Y-79424577D01*
X113916716Y-79345520D01*
X113982384Y-79279852D01*
X114017032Y-79265500D01*
X115244098Y-79265500D01*
X115278746Y-79279852D01*
X115289368Y-79295748D01*
X115317057Y-79362594D01*
X115317059Y-79362598D01*
X115391839Y-79474515D01*
X115406388Y-79496290D01*
X115432023Y-79534655D01*
X115578345Y-79680977D01*
X115750402Y-79795941D01*
X115941580Y-79875130D01*
X116144535Y-79915500D01*
X116144538Y-79915500D01*
X116351462Y-79915500D01*
X116351465Y-79915500D01*
X116554420Y-79875130D01*
X116745598Y-79795941D01*
X116917655Y-79680977D01*
X117063977Y-79534655D01*
X117178941Y-79362598D01*
X117198864Y-79314500D01*
X117206632Y-79295748D01*
X117233151Y-79269230D01*
X117251902Y-79265500D01*
X123878968Y-79265500D01*
X123913616Y-79279852D01*
X123939616Y-79305852D01*
X123953968Y-79340500D01*
X123939616Y-79375148D01*
X123904968Y-79389500D01*
X122691980Y-79389500D01*
X122684889Y-79391400D01*
X122670705Y-79395201D01*
X122583763Y-79418496D01*
X122583760Y-79418497D01*
X122486736Y-79474515D01*
X122486736Y-79474516D01*
X115971093Y-85990157D01*
X115949127Y-86002839D01*
X115882815Y-86020607D01*
X115882811Y-86020608D01*
X115768685Y-86086500D01*
X115768684Y-86086501D01*
X113239626Y-88615558D01*
X113217661Y-88628240D01*
X113116215Y-88655423D01*
X113116213Y-88655423D01*
X112979290Y-88734475D01*
X112979281Y-88734482D01*
X112882148Y-88831616D01*
X112847500Y-88845968D01*
X112812852Y-88831616D01*
X112798500Y-88796968D01*
X112798500Y-78484031D01*
X112812852Y-78449383D01*
X113082383Y-78179852D01*
X113117031Y-78165500D01*
X114927060Y-78165500D01*
X114927060Y-78165499D01*
X115079784Y-78124577D01*
X115216716Y-78045520D01*
X115328520Y-77933716D01*
X115378997Y-77846287D01*
X115407576Y-77796786D01*
X115407576Y-77796785D01*
X115407577Y-77796784D01*
X115448499Y-77644060D01*
X115448500Y-77644060D01*
X115448500Y-77485940D01*
X115448499Y-77485939D01*
X115437622Y-77445345D01*
X115407577Y-77333216D01*
X115407576Y-77333215D01*
X115407576Y-77333213D01*
X115328524Y-77196290D01*
X115328521Y-77196286D01*
X115328520Y-77196284D01*
X115216716Y-77084480D01*
X115216713Y-77084478D01*
X115216709Y-77084475D01*
X115079786Y-77005423D01*
X115079782Y-77005422D01*
X114927060Y-76964500D01*
X114927057Y-76964500D01*
X112930070Y-76964500D01*
X112930054Y-76964499D01*
X112927057Y-76964499D01*
X112768943Y-76964499D01*
X112768940Y-76964499D01*
X112616218Y-77005421D01*
X112616212Y-77005423D01*
X112566095Y-77034360D01*
X112479283Y-77084480D01*
X112479283Y-77084481D01*
X111717482Y-77846281D01*
X111717477Y-77846287D01*
X111695429Y-77884479D01*
X111695428Y-77884480D01*
X111638423Y-77983212D01*
X111638422Y-77983216D01*
X111597499Y-78135940D01*
X111498500Y-78135940D01*
X111498500Y-73574500D01*
X111512852Y-73539852D01*
X111547500Y-73525500D01*
X124922648Y-73525500D01*
X124957296Y-73539852D01*
G37*
G04 #@! TD.AperFunction*
G04 #@! TA.AperFunction,Conductor*
G36*
X141669691Y-92433907D02*
G01*
X141705655Y-92483407D01*
X141710500Y-92514000D01*
X141710500Y-97415000D01*
X143360500Y-97415000D01*
X145061500Y-97415000D01*
X145119691Y-97433907D01*
X145155655Y-97483407D01*
X145160500Y-97514000D01*
X145160500Y-98861821D01*
X145148473Y-98898834D01*
X145110932Y-107466434D01*
X145091770Y-107524541D01*
X145042113Y-107560288D01*
X145011933Y-107565000D01*
X143409935Y-107565000D01*
X143351744Y-107546093D01*
X143315780Y-107496593D01*
X143310936Y-107465566D01*
X143348403Y-98915000D01*
X141059500Y-98915000D01*
X141001309Y-98896093D01*
X140965345Y-98846593D01*
X140960500Y-98816000D01*
X140960500Y-92514000D01*
X140979407Y-92455809D01*
X141028907Y-92419845D01*
X141059500Y-92415000D01*
X141611500Y-92415000D01*
X141669691Y-92433907D01*
G37*
G04 #@! TD.AperFunction*
M02*
