M48
; DRILL file {KiCad 9.0.5} date 2025-11-21T19:54:44+0100
; FORMAT={-:-/ absolute / metric / decimal}
; #@! TF.CreationDate,2025-11-21T19:54:44+01:00
; #@! TF.GenerationSoftware,Kicad,Pcbnew,9.0.5
; #@! TF.FileFunction,Plated,1,4,PTH
FMAT,2
METRIC
; #@! TA.AperFunction,Plated,PTH,ViaDrill
T1C0.300
; #@! TA.AperFunction,Plated,PTH,ViaDrill
T2C0.400
; #@! TA.AperFunction,Plated,PTH,ComponentDrill
T3C0.700
; #@! TA.AperFunction,Plated,PTH,ComponentDrill
T4C1.016
; #@! TA.AperFunction,Plated,PTH,ComponentDrill
T5C1.300
; #@! TA.AperFunction,Plated,PTH,ComponentDrill
T6C2.250
; #@! TA.AperFunction,Plated,PTH,ComponentDrill
T7C3.048
%
G90
G05
T1
X113.348Y-89.215
X113.548Y-78.865
X113.748Y-113.465
X113.798Y-119.615
X114.848Y-77.565
X115.198Y-97.415
X115.855Y-89.662
X115.948Y-74.14
X116.748Y-97.465
X117.228Y-93.215
X118.298Y-93.215
X119.298Y-120.617
X119.698Y-90.015
X120.25Y-100.415
X120.25Y-102.215
X120.848Y-96.265
X120.948Y-104.115
X120.948Y-117.39
X120.948Y-119.315
X120.973Y-113.365
X120.998Y-109.865
X120.998Y-111.365
X120.998Y-115.415
X121.598Y-100.415
X121.598Y-102.215
X123.898Y-113.815
X123.948Y-109.115
X123.998Y-106.765
X124.098Y-98.015
X124.198Y-111.465
X124.348Y-78.865
X126.948Y-113.765
X126.948Y-115.165
X127.898Y-108.165
X127.948Y-111.415
X127.998Y-109.063
X127.998Y-110.465
X128.048Y-104.415
X128.048Y-106.765
X130.298Y-87.114
X130.698Y-108.165
X130.748Y-110.465
X131.098Y-89.74
X131.148Y-85.59
X131.248Y-79.815
X131.948Y-87.114
X133.398Y-116.715
X133.948Y-123.515
X134.848Y-92.215
X135.373Y-116.015
X135.525Y-108.115
X135.525Y-110.465
X136.598Y-78.715
X136.598Y-79.865
X136.798Y-115.265
X136.798Y-116.715
X140.098Y-96.24
X140.098Y-97.14
X141.361Y-92.815
X141.361Y-93.715
X141.598Y-101.74
X142.448Y-101.734
X143.248Y-120.79
X143.81Y-107.065
X143.861Y-105.965
X143.91Y-98.365
X144.66Y-106.065
X144.66Y-107.065
X144.761Y-97.815
X144.761Y-98.665
X145.498Y-80.915
X148.198Y-120.165
X148.998Y-80.915
X149.308Y-116.415
X149.773Y-120.201
X150.148Y-94.765
X152.248Y-115.865
X153.598Y-115.865
X153.798Y-77.765
X154.998Y-120.865
X155.248Y-93.115
X155.548Y-77.765
X155.748Y-87.115
X156.248Y-80.615
X156.998Y-120.865
X157.498Y-106.115
X157.648Y-114.015
X157.748Y-93.115
X158.248Y-87.115
X158.998Y-80.615
X159.098Y-109.315
X159.248Y-86.615
X159.498Y-92.365
X159.498Y-119.865
X159.823Y-109.14
X159.998Y-105.865
X160.998Y-93.615
X161.176Y-118.462
X161.298Y-105.865
X161.348Y-102.165
X161.723Y-116.815
X161.798Y-121.265
X162.348Y-115.215
X162.498Y-84.365
X162.898Y-86.365
X163.148Y-119.715
X163.498Y-111.865
X163.498Y-114.865
X163.923Y-106.24
X163.998Y-117.615
X164.348Y-121.315
X166.698Y-81.615
X167.248Y-119.865
X167.748Y-86.963
X167.998Y-115.365
X168.673Y-100.065
X168.848Y-86.963
X170.048Y-121.615
X170.598Y-90.865
X170.648Y-88.865
X172.998Y-121.615
X173.048Y-87.115
X173.748Y-118.965
X173.998Y-80.865
X174.698Y-86.515
X175.248Y-78.615
X175.298Y-77.665
X175.301Y-81.598
X175.648Y-115.89
T2
X125.598Y-93.39
X126.692Y-85.059
X150.348Y-96.565
X150.998Y-97.315
X154.248Y-95.815
X154.623Y-89.74
X154.848Y-83.615
X161.298Y-80.915
X162.248Y-78.365
X169.498Y-92.715
T3
X114.898Y-104.415
X114.898Y-106.415
X114.898Y-108.415
X114.898Y-110.415
X114.898Y-112.415
X114.898Y-114.415
X114.898Y-116.415
X114.898Y-118.415
X116.898Y-104.415
X116.898Y-106.415
X116.898Y-108.415
X116.898Y-110.415
X116.898Y-112.415
X116.898Y-114.415
X116.898Y-116.415
X116.898Y-118.415
T4
X129.794Y-75.565
X132.334Y-75.565
X134.874Y-75.565
X137.414Y-75.565
X138.938Y-123.825
X139.954Y-75.565
X141.478Y-123.825
X142.494Y-75.565
X144.018Y-123.825
X145.034Y-75.565
X146.558Y-123.825
X147.574Y-75.565
X149.098Y-123.825
X150.114Y-75.565
X151.638Y-123.825
X152.654Y-75.565
X154.178Y-123.825
X156.718Y-75.565
X156.718Y-123.825
X159.258Y-75.565
X161.798Y-75.565
X161.798Y-123.825
X164.338Y-75.565
X164.338Y-123.825
X166.878Y-75.565
X166.878Y-123.825
X169.418Y-75.565
X169.418Y-123.825
X171.958Y-75.565
X171.958Y-123.825
X174.498Y-75.565
X174.498Y-123.825
T5
X166.938Y-112.355
X174.498Y-94.715
X174.498Y-102.275
X174.498Y-112.355
T6
X115.898Y-100.915
X115.898Y-121.915
T7
X124.968Y-123.825
X126.238Y-75.565
X177.038Y-90.805
X177.038Y-118.745
M30
