G04 #@! TF.GenerationSoftware,KiCad,Pcbnew,9.0.5*
G04 #@! TF.CreationDate,2025-11-21T19:54:47+01:00*
G04 #@! TF.ProjectId,ShieldArduino_Semaforo,53686965-6c64-4417-9264-75696e6f5f53,rev?*
G04 #@! TF.SameCoordinates,Original*
G04 #@! TF.FileFunction,Copper,L3,Inr*
G04 #@! TF.FilePolarity,Positive*
%FSLAX46Y46*%
G04 Gerber Fmt 4.6, Leading zero omitted, Abs format (unit mm)*
G04 Created by KiCad (PCBNEW 9.0.5) date 2025-11-21 19:54:47*
%MOMM*%
%LPD*%
G01*
G04 APERTURE LIST*
G04 #@! TA.AperFunction,ComponentPad*
%ADD10O,1.727200X2.032000*%
G04 #@! TD*
G04 #@! TA.AperFunction,ComponentPad*
%ADD11C,4.064000*%
G04 #@! TD*
G04 #@! TA.AperFunction,ComponentPad*
%ADD12R,1.150000X1.150000*%
G04 #@! TD*
G04 #@! TA.AperFunction,ComponentPad*
%ADD13C,1.150000*%
G04 #@! TD*
G04 #@! TA.AperFunction,ComponentPad*
%ADD14C,3.750000*%
G04 #@! TD*
G04 #@! TA.AperFunction,ComponentPad*
%ADD15C,1.950000*%
G04 #@! TD*
G04 #@! TA.AperFunction,ComponentPad*
%ADD16R,1.950000X1.950000*%
G04 #@! TD*
G04 #@! TA.AperFunction,ViaPad*
%ADD17C,0.600000*%
G04 #@! TD*
G04 #@! TA.AperFunction,ViaPad*
%ADD18C,0.800000*%
G04 #@! TD*
G04 #@! TA.AperFunction,Conductor*
%ADD19C,0.250000*%
G04 #@! TD*
G04 APERTURE END LIST*
D10*
X138938000Y-123825000D03*
X141478000Y-123825000D03*
X144018000Y-123825000D03*
X146558000Y-123825000D03*
X149098000Y-123825000D03*
X151638000Y-123825000D03*
X154178000Y-123825000D03*
X156718000Y-123825000D03*
X161798000Y-123825000D03*
X164338000Y-123825000D03*
X166878000Y-123825000D03*
X169418000Y-123825000D03*
X171958000Y-123825000D03*
X174498000Y-123825000D03*
X129794000Y-75565000D03*
X132334000Y-75565000D03*
X134874000Y-75565000D03*
X137414000Y-75565000D03*
X139954000Y-75565000D03*
X142494000Y-75565000D03*
X145034000Y-75565000D03*
X147574000Y-75565000D03*
X150114000Y-75565000D03*
X152654000Y-75565000D03*
X156718000Y-75565000D03*
X159258000Y-75565000D03*
X161798000Y-75565000D03*
X164338000Y-75565000D03*
X166878000Y-75565000D03*
X169418000Y-75565000D03*
X171958000Y-75565000D03*
X174498000Y-75565000D03*
D11*
X124968000Y-123825000D03*
X177038000Y-118745000D03*
X126238000Y-75565000D03*
X177038000Y-90805000D03*
D12*
X116898000Y-118415000D03*
D13*
X116898000Y-116415000D03*
X116898000Y-114415000D03*
X116898000Y-112415000D03*
X116898000Y-110415000D03*
X116898000Y-108415000D03*
X116898000Y-106415000D03*
X116898000Y-104415000D03*
X114898000Y-118415000D03*
X114898000Y-116415000D03*
X114898000Y-114415000D03*
X114898000Y-112415000D03*
X114898000Y-110415000D03*
X114898000Y-108415000D03*
X114898000Y-106415000D03*
X114898000Y-104415000D03*
D14*
X115898000Y-121915000D03*
X115898000Y-100915000D03*
D15*
X174498000Y-112355000D03*
D16*
X174498000Y-94715000D03*
D15*
X174498000Y-102275000D03*
X166938000Y-112355000D03*
D17*
X114848000Y-77565000D03*
X167248000Y-119865000D03*
X126948000Y-113765000D03*
X135373000Y-116015000D03*
X115948000Y-74140000D03*
X135525000Y-110465000D03*
X159498000Y-119865000D03*
X162498000Y-84365000D03*
X170648000Y-88865000D03*
X175301217Y-81598496D03*
X149773403Y-120201020D03*
X152248000Y-115865000D03*
X142448000Y-101733595D03*
X120848000Y-96265000D03*
X173748000Y-118965000D03*
X161298000Y-105865000D03*
X113748000Y-113465000D03*
X120250000Y-102215000D03*
X157748000Y-93115000D03*
X120998000Y-109865000D03*
X158248000Y-87115000D03*
X120948000Y-117390000D03*
X127998000Y-109063000D03*
X145498000Y-80915000D03*
X155248000Y-93115000D03*
X173048000Y-87115000D03*
X167998000Y-115365000D03*
X159998000Y-105865000D03*
X175298000Y-77665000D03*
X131948000Y-87114000D03*
X155548000Y-77765000D03*
X128048000Y-106765000D03*
X120998000Y-115415000D03*
X120250000Y-100415000D03*
X120998000Y-111365000D03*
X156998000Y-120865000D03*
X154998000Y-120865000D03*
X160998000Y-93615000D03*
X163498000Y-114865000D03*
X173998000Y-80865000D03*
X159098000Y-109315000D03*
X124098000Y-98015000D03*
X121598000Y-102215000D03*
X121598000Y-100415000D03*
X131148000Y-85590000D03*
X141598000Y-101740000D03*
X120948000Y-104115000D03*
X113798000Y-119615000D03*
X136798000Y-116715000D03*
X130298000Y-87114000D03*
X140098000Y-96240000D03*
X143248000Y-120790000D03*
X168848000Y-86963000D03*
X117228000Y-93215000D03*
X140098000Y-97140000D03*
X170048000Y-121615000D03*
X156248000Y-80615000D03*
X153798000Y-77765000D03*
X167748000Y-86963000D03*
X153598000Y-115865000D03*
X135525000Y-108115000D03*
X119298000Y-120617000D03*
X155748000Y-87115000D03*
X127948000Y-111415000D03*
X115854652Y-89661516D03*
X172998000Y-121615000D03*
X159498000Y-92365000D03*
X128048000Y-104415000D03*
X118298000Y-93215000D03*
X161348000Y-102165000D03*
X148198000Y-120165000D03*
X120948000Y-119315000D03*
X136798000Y-115265000D03*
X148998000Y-80915000D03*
X116748000Y-97465000D03*
X159248000Y-86615000D03*
X163148000Y-119715000D03*
X158998000Y-80615000D03*
X120973000Y-113365000D03*
X115198000Y-97415000D03*
X131098000Y-89740000D03*
X163498000Y-111865000D03*
X133398000Y-116715000D03*
X133948000Y-123515000D03*
X126948000Y-115165000D03*
X161175823Y-118462177D03*
X157498000Y-106115000D03*
X159823000Y-109140000D03*
X113348000Y-89215000D03*
D18*
X163923000Y-106240000D03*
D17*
X162898000Y-86365000D03*
X175248000Y-78615000D03*
X131248000Y-79815000D03*
X170598000Y-90865000D03*
X134848000Y-92215000D03*
X149308000Y-116415000D03*
X175648000Y-115890000D03*
X150148000Y-94765000D03*
X174698000Y-86515000D03*
X161723000Y-116815000D03*
X136598000Y-79865000D03*
X124348000Y-78865000D03*
X113548000Y-78865000D03*
X163998000Y-117615000D03*
X136598000Y-78715000D03*
X130748000Y-110465000D03*
X127998000Y-110465000D03*
X119698000Y-90015000D03*
X154848000Y-83615000D03*
X127898000Y-108165000D03*
X130698000Y-108165000D03*
X123998000Y-106765000D03*
X168673000Y-100065000D03*
X166698000Y-81615000D03*
X157648000Y-114015000D03*
X123948000Y-109115000D03*
X126691750Y-85058750D03*
X164348000Y-121315000D03*
X161798000Y-121265000D03*
X125598000Y-93390000D03*
D18*
X169498000Y-92715000D03*
D17*
X123898000Y-113815000D03*
X154248000Y-95815000D03*
X150998000Y-97315000D03*
X154623000Y-89740000D03*
X124198000Y-111465000D03*
X150348000Y-96565000D03*
X162248000Y-78365000D03*
X161298000Y-80915000D03*
X143860500Y-105965000D03*
X141360500Y-92815000D03*
X144660500Y-107065000D03*
X144760500Y-98665000D03*
X143810500Y-107065000D03*
X144660500Y-106065000D03*
X141360500Y-93715000D03*
X143910500Y-98365000D03*
X144760500Y-97815000D03*
X162348000Y-115215000D03*
D19*
X132448000Y-122015000D02*
X133948000Y-123515000D01*
X133398000Y-116715000D02*
X132448000Y-117665000D01*
X132448000Y-117665000D02*
X132448000Y-122015000D01*
X174498000Y-123825000D02*
X172833000Y-125490000D01*
X131673000Y-125490000D02*
X127198000Y-121015000D01*
X126948000Y-115165000D02*
X126948000Y-120765000D01*
X111973000Y-113340000D02*
X114898000Y-110415000D01*
X127198000Y-121015000D02*
X123098000Y-121015000D01*
X172833000Y-125490000D02*
X131673000Y-125490000D01*
X112948000Y-124990000D02*
X111973000Y-124015000D01*
X119123000Y-124990000D02*
X112948000Y-124990000D01*
X126948000Y-120765000D02*
X127198000Y-121015000D01*
X123098000Y-121015000D02*
X119123000Y-124990000D01*
X111973000Y-124015000D02*
X111973000Y-113340000D01*
X175248000Y-78615000D02*
X170648000Y-78615000D01*
X170648000Y-78615000D02*
X162898000Y-86365000D01*
X164427061Y-117968000D02*
X164227061Y-118168000D01*
X163768939Y-118168000D02*
X163445000Y-117844061D01*
X162623000Y-97140000D02*
X160248000Y-94765000D01*
X162623000Y-112540000D02*
X162623000Y-97140000D01*
X166523000Y-116440000D02*
X166498000Y-116465000D01*
X164307573Y-116615000D02*
X168645489Y-116615000D01*
X162127061Y-117193000D02*
X161952061Y-117368000D01*
X175098000Y-116440000D02*
X170529000Y-116440000D01*
X162127061Y-116437000D02*
X164129572Y-116437000D01*
X175648000Y-115890000D02*
X175098000Y-116440000D01*
X161493939Y-117368000D02*
X161170000Y-117044061D01*
X168645489Y-116615000D02*
X168820489Y-116440000D01*
X164129572Y-116437000D02*
X164307573Y-116615000D01*
X170529000Y-116668573D02*
X169229572Y-117968000D01*
X161952061Y-117368000D02*
X161493939Y-117368000D01*
X161952061Y-116262000D02*
X162127061Y-116437000D01*
X163637939Y-117193000D02*
X162127061Y-117193000D01*
X161170000Y-116585939D02*
X161493939Y-116262000D01*
X168820489Y-116440000D02*
X166523000Y-116440000D01*
X164227061Y-118168000D02*
X163768939Y-118168000D01*
X161493939Y-116262000D02*
X161952061Y-116262000D01*
X170529000Y-116440000D02*
X170529000Y-116668573D01*
X163445000Y-117385939D02*
X163637939Y-117193000D01*
X161170000Y-117044061D02*
X161170000Y-116585939D01*
X163445000Y-117844061D02*
X163445000Y-117385939D01*
X169229572Y-117968000D02*
X164427061Y-117968000D01*
X160248000Y-94765000D02*
X150148000Y-94765000D01*
X166523000Y-116440000D02*
X162623000Y-112540000D01*
X168802061Y-116993000D02*
X169126000Y-116669061D01*
X140734000Y-79865000D02*
X145034000Y-75565000D01*
X151617145Y-78065000D02*
X147534000Y-78065000D01*
X147534000Y-78065000D02*
X145034000Y-75565000D01*
X164151000Y-116993000D02*
X168802061Y-116993000D01*
X163973000Y-116815000D02*
X164151000Y-116993000D01*
X161723000Y-116815000D02*
X163973000Y-116815000D01*
X136598000Y-79865000D02*
X140734000Y-79865000D01*
X169548000Y-95995855D02*
X151617145Y-78065000D01*
X169051530Y-116743530D02*
X169548000Y-116247060D01*
X169548000Y-116247060D02*
X169548000Y-95995855D01*
X147243572Y-77240000D02*
X146348000Y-76344428D01*
X163998000Y-117615000D02*
X164023000Y-117590000D01*
X169073000Y-117590000D02*
X170151000Y-116512000D01*
X164023000Y-117590000D02*
X169073000Y-117590000D01*
X170151000Y-95518000D02*
X151873000Y-77240000D01*
X139648000Y-75565000D02*
X139954000Y-75565000D01*
X141604000Y-73915000D02*
X139954000Y-75565000D01*
X136598000Y-78715000D02*
X136598000Y-78615000D01*
X146348000Y-74715000D02*
X145548000Y-73915000D01*
X145548000Y-73915000D02*
X141604000Y-73915000D01*
X146348000Y-76344428D02*
X146348000Y-74715000D01*
X136598000Y-78615000D02*
X139648000Y-75565000D01*
X151873000Y-77240000D02*
X147243572Y-77240000D01*
X170151000Y-116512000D02*
X170151000Y-95518000D01*
X154548000Y-83615000D02*
X154848000Y-83615000D01*
X130698000Y-107465000D02*
X154548000Y-83615000D01*
X130698000Y-108165000D02*
X130698000Y-107465000D01*
X149198000Y-107265000D02*
X163248000Y-121315000D01*
X155698000Y-84165000D02*
X149198000Y-90665000D01*
X155148000Y-82665000D02*
X155698000Y-83215000D01*
X163248000Y-121315000D02*
X164348000Y-121315000D01*
X126691750Y-85058750D02*
X129085500Y-82665000D01*
X149198000Y-90665000D02*
X149198000Y-107265000D01*
X155698000Y-83215000D02*
X155698000Y-84165000D01*
X129085500Y-82665000D02*
X155148000Y-82665000D01*
X161798000Y-121265000D02*
X159973000Y-121265000D01*
X129298000Y-97090000D02*
X125598000Y-93390000D01*
X129298000Y-111115000D02*
X129298000Y-97090000D01*
X131348000Y-113165000D02*
X129298000Y-111115000D01*
X151873000Y-113165000D02*
X131348000Y-113165000D01*
X159973000Y-121265000D02*
X151873000Y-113165000D01*
G04 #@! TA.AperFunction,Conductor*
G36*
X124957296Y-73539852D02*
G01*
X124971648Y-73574500D01*
X124957296Y-73609148D01*
X124947148Y-73616935D01*
X124939354Y-73621434D01*
X124939339Y-73621444D01*
X124696781Y-73807566D01*
X124696769Y-73807576D01*
X124480576Y-74023769D01*
X124480566Y-74023781D01*
X124294444Y-74266339D01*
X124294434Y-74266354D01*
X124141555Y-74531146D01*
X124024546Y-74813632D01*
X124024544Y-74813638D01*
X123945412Y-75108963D01*
X123945410Y-75108971D01*
X123945410Y-75108975D01*
X123911188Y-75368919D01*
X123905500Y-75412123D01*
X123905500Y-75717876D01*
X123905499Y-75717876D01*
X123916450Y-75801055D01*
X123945410Y-76021025D01*
X123945411Y-76021029D01*
X123945412Y-76021036D01*
X124024544Y-76316361D01*
X124024546Y-76316367D01*
X124141555Y-76598853D01*
X124294434Y-76863645D01*
X124294444Y-76863660D01*
X124480566Y-77106218D01*
X124480576Y-77106230D01*
X124696769Y-77322423D01*
X124696781Y-77322433D01*
X124939339Y-77508555D01*
X124939348Y-77508561D01*
X124939352Y-77508564D01*
X125204148Y-77661445D01*
X125486634Y-77778454D01*
X125486638Y-77778455D01*
X125781963Y-77857587D01*
X125781964Y-77857587D01*
X125781975Y-77857590D01*
X126085120Y-77897500D01*
X126085123Y-77897500D01*
X126390876Y-77897500D01*
X126390880Y-77897500D01*
X126694025Y-77857590D01*
X126989366Y-77778454D01*
X127271852Y-77661445D01*
X127536648Y-77508564D01*
X127566134Y-77485939D01*
X127598778Y-77460889D01*
X127779224Y-77322429D01*
X127995429Y-77106224D01*
X128181564Y-76863648D01*
X128334445Y-76598852D01*
X128451454Y-76316366D01*
X128477832Y-76217919D01*
X128530588Y-76021035D01*
X128530588Y-76021030D01*
X128530590Y-76021025D01*
X128546799Y-75897898D01*
X128565549Y-75865423D01*
X128601774Y-75855716D01*
X128634253Y-75874467D01*
X128643776Y-75896631D01*
X128658563Y-75989992D01*
X128658564Y-75989994D01*
X128715186Y-76164260D01*
X128798368Y-76327516D01*
X128798371Y-76327520D01*
X128798372Y-76327522D01*
X128906074Y-76475760D01*
X128906076Y-76475762D01*
X128906079Y-76475766D01*
X129035633Y-76605320D01*
X129035636Y-76605322D01*
X129035640Y-76605326D01*
X129183878Y-76713028D01*
X129183880Y-76713029D01*
X129183883Y-76713031D01*
X129343881Y-76794553D01*
X129347141Y-76796214D01*
X129521406Y-76852836D01*
X129702383Y-76881500D01*
X129702384Y-76881500D01*
X129885616Y-76881500D01*
X129885617Y-76881500D01*
X130066594Y-76852836D01*
X130240859Y-76796214D01*
X130404122Y-76713028D01*
X130552360Y-76605326D01*
X130681926Y-76475760D01*
X130789628Y-76327522D01*
X130872814Y-76164259D01*
X130929436Y-75989994D01*
X130958100Y-75809017D01*
X130958100Y-75320983D01*
X131169900Y-75320983D01*
X131169900Y-75809016D01*
X131198563Y-75989991D01*
X131198564Y-75989994D01*
X131255186Y-76164260D01*
X131338368Y-76327516D01*
X131338371Y-76327520D01*
X131338372Y-76327522D01*
X131446074Y-76475760D01*
X131446076Y-76475762D01*
X131446079Y-76475766D01*
X131575633Y-76605320D01*
X131575636Y-76605322D01*
X131575640Y-76605326D01*
X131723878Y-76713028D01*
X131723880Y-76713029D01*
X131723883Y-76713031D01*
X131883881Y-76794553D01*
X131887141Y-76796214D01*
X132061406Y-76852836D01*
X132242383Y-76881500D01*
X132242384Y-76881500D01*
X132425616Y-76881500D01*
X132425617Y-76881500D01*
X132606594Y-76852836D01*
X132780859Y-76796214D01*
X132944122Y-76713028D01*
X133092360Y-76605326D01*
X133221926Y-76475760D01*
X133329628Y-76327522D01*
X133412814Y-76164259D01*
X133469436Y-75989994D01*
X133498100Y-75809017D01*
X133498100Y-75320983D01*
X133709900Y-75320983D01*
X133709900Y-75809016D01*
X133738563Y-75989991D01*
X133738564Y-75989994D01*
X133795186Y-76164260D01*
X133878368Y-76327516D01*
X133878371Y-76327520D01*
X133878372Y-76327522D01*
X133986074Y-76475760D01*
X133986076Y-76475762D01*
X133986079Y-76475766D01*
X134115633Y-76605320D01*
X134115636Y-76605322D01*
X134115640Y-76605326D01*
X134263878Y-76713028D01*
X134263880Y-76713029D01*
X134263883Y-76713031D01*
X134423881Y-76794553D01*
X134427141Y-76796214D01*
X134601406Y-76852836D01*
X134782383Y-76881500D01*
X134782384Y-76881500D01*
X134965616Y-76881500D01*
X134965617Y-76881500D01*
X135146594Y-76852836D01*
X135320859Y-76796214D01*
X135484122Y-76713028D01*
X135632360Y-76605326D01*
X135761926Y-76475760D01*
X135869628Y-76327522D01*
X135952814Y-76164259D01*
X136009436Y-75989994D01*
X136038100Y-75809017D01*
X136038100Y-75320983D01*
X136009436Y-75140006D01*
X135952814Y-74965741D01*
X135952813Y-74965739D01*
X135869631Y-74802483D01*
X135869629Y-74802480D01*
X135869628Y-74802478D01*
X135761926Y-74654240D01*
X135761922Y-74654236D01*
X135761920Y-74654233D01*
X135632366Y-74524679D01*
X135632362Y-74524676D01*
X135632360Y-74524674D01*
X135484122Y-74416972D01*
X135484120Y-74416971D01*
X135484116Y-74416968D01*
X135320860Y-74333786D01*
X135146594Y-74277164D01*
X135146591Y-74277163D01*
X135007569Y-74255144D01*
X134965617Y-74248500D01*
X134782383Y-74248500D01*
X134748325Y-74253894D01*
X134601408Y-74277163D01*
X134601405Y-74277164D01*
X134427139Y-74333786D01*
X134263883Y-74416968D01*
X134115633Y-74524679D01*
X133986079Y-74654233D01*
X133878368Y-74802483D01*
X133795186Y-74965739D01*
X133738564Y-75140005D01*
X133738563Y-75140008D01*
X133709900Y-75320983D01*
X133498100Y-75320983D01*
X133469436Y-75140006D01*
X133412814Y-74965741D01*
X133412813Y-74965739D01*
X133329631Y-74802483D01*
X133329629Y-74802480D01*
X133329628Y-74802478D01*
X133221926Y-74654240D01*
X133221922Y-74654236D01*
X133221920Y-74654233D01*
X133092366Y-74524679D01*
X133092362Y-74524676D01*
X133092360Y-74524674D01*
X132944122Y-74416972D01*
X132944120Y-74416971D01*
X132944116Y-74416968D01*
X132780860Y-74333786D01*
X132606594Y-74277164D01*
X132606591Y-74277163D01*
X132467569Y-74255144D01*
X132425617Y-74248500D01*
X132242383Y-74248500D01*
X132208325Y-74253894D01*
X132061408Y-74277163D01*
X132061405Y-74277164D01*
X131887139Y-74333786D01*
X131723883Y-74416968D01*
X131575633Y-74524679D01*
X131446079Y-74654233D01*
X131338368Y-74802483D01*
X131255186Y-74965739D01*
X131198564Y-75140005D01*
X131198563Y-75140008D01*
X131169900Y-75320983D01*
X130958100Y-75320983D01*
X130929436Y-75140006D01*
X130872814Y-74965741D01*
X130872813Y-74965739D01*
X130789631Y-74802483D01*
X130789629Y-74802480D01*
X130789628Y-74802478D01*
X130681926Y-74654240D01*
X130681922Y-74654236D01*
X130681920Y-74654233D01*
X130552366Y-74524679D01*
X130552362Y-74524676D01*
X130552360Y-74524674D01*
X130404122Y-74416972D01*
X130404120Y-74416971D01*
X130404116Y-74416968D01*
X130240860Y-74333786D01*
X130066594Y-74277164D01*
X130066591Y-74277163D01*
X129927569Y-74255144D01*
X129885617Y-74248500D01*
X129702383Y-74248500D01*
X129668325Y-74253894D01*
X129521408Y-74277163D01*
X129521405Y-74277164D01*
X129347139Y-74333786D01*
X129183883Y-74416968D01*
X129035633Y-74524679D01*
X128906079Y-74654233D01*
X128798368Y-74802483D01*
X128715186Y-74965739D01*
X128658564Y-75140005D01*
X128658563Y-75140007D01*
X128643776Y-75233368D01*
X128624180Y-75265344D01*
X128587713Y-75274099D01*
X128555737Y-75254503D01*
X128546800Y-75232102D01*
X128530590Y-75108975D01*
X128530588Y-75108970D01*
X128530588Y-75108964D01*
X128451455Y-74813638D01*
X128451453Y-74813632D01*
X128421767Y-74741962D01*
X128334445Y-74531148D01*
X128289751Y-74453737D01*
X128181565Y-74266354D01*
X128181555Y-74266339D01*
X127995433Y-74023781D01*
X127995423Y-74023769D01*
X127779230Y-73807576D01*
X127779218Y-73807566D01*
X127536660Y-73621444D01*
X127536645Y-73621434D01*
X127528852Y-73616935D01*
X127506022Y-73587182D01*
X127510917Y-73550000D01*
X127540670Y-73527170D01*
X127553352Y-73525500D01*
X141273456Y-73525500D01*
X141308104Y-73539852D01*
X141322456Y-73574500D01*
X141308104Y-73609148D01*
X141263513Y-73653739D01*
X140547002Y-74370249D01*
X140512354Y-74384601D01*
X140490109Y-74379261D01*
X140400859Y-74333786D01*
X140400856Y-74333785D01*
X140400854Y-74333784D01*
X140226594Y-74277164D01*
X140226591Y-74277163D01*
X140087569Y-74255144D01*
X140045617Y-74248500D01*
X139862383Y-74248500D01*
X139828325Y-74253894D01*
X139681408Y-74277163D01*
X139681405Y-74277164D01*
X139507139Y-74333786D01*
X139343883Y-74416968D01*
X139195633Y-74524679D01*
X139066079Y-74654233D01*
X138958368Y-74802483D01*
X138875186Y-74965739D01*
X138818564Y-75140005D01*
X138818563Y-75140008D01*
X138789900Y-75320983D01*
X138789900Y-75801055D01*
X138775548Y-75835703D01*
X138507050Y-76104200D01*
X138472402Y-76118552D01*
X138437754Y-76104200D01*
X138423402Y-76069552D01*
X138427133Y-76050799D01*
X138436722Y-76027649D01*
X138436728Y-76027629D01*
X138477599Y-75822160D01*
X138477600Y-75822155D01*
X138477600Y-75665000D01*
X137913126Y-75665000D01*
X137922000Y-75631880D01*
X137922000Y-75498120D01*
X137913126Y-75465000D01*
X138477600Y-75465000D01*
X138477600Y-75307845D01*
X138477599Y-75307839D01*
X138436728Y-75102370D01*
X138436723Y-75102351D01*
X138356551Y-74908800D01*
X138240152Y-74734595D01*
X138092004Y-74586447D01*
X137917799Y-74470048D01*
X137724248Y-74389876D01*
X137724229Y-74389871D01*
X137518760Y-74349000D01*
X137514000Y-74349000D01*
X137514000Y-75065874D01*
X137480880Y-75057000D01*
X137347120Y-75057000D01*
X137314000Y-75065874D01*
X137314000Y-74349000D01*
X137309239Y-74349000D01*
X137103770Y-74389871D01*
X137103751Y-74389876D01*
X136910200Y-74470048D01*
X136735995Y-74586447D01*
X136587847Y-74734595D01*
X136471448Y-74908800D01*
X136391276Y-75102351D01*
X136391271Y-75102370D01*
X136350400Y-75307839D01*
X136350400Y-75465000D01*
X136914874Y-75465000D01*
X136906000Y-75498120D01*
X136906000Y-75631880D01*
X136914874Y-75665000D01*
X136350400Y-75665000D01*
X136350400Y-75822160D01*
X136391271Y-76027629D01*
X136391276Y-76027648D01*
X136471448Y-76221199D01*
X136587847Y-76395404D01*
X136735995Y-76543552D01*
X136910200Y-76659951D01*
X137103751Y-76740123D01*
X137103770Y-76740128D01*
X137309239Y-76780999D01*
X137309245Y-76781000D01*
X137314000Y-76781000D01*
X137314000Y-76064125D01*
X137347120Y-76073000D01*
X137480880Y-76073000D01*
X137514000Y-76064125D01*
X137514000Y-76781000D01*
X137518755Y-76781000D01*
X137518760Y-76780999D01*
X137724229Y-76740128D01*
X137724240Y-76740125D01*
X137747397Y-76730533D01*
X137784900Y-76730532D01*
X137811420Y-76757050D01*
X137811421Y-76794553D01*
X137800798Y-76810451D01*
X136497912Y-78113338D01*
X136475946Y-78126020D01*
X136366217Y-78155422D01*
X136366213Y-78155423D01*
X136229290Y-78234475D01*
X136229281Y-78234482D01*
X136117482Y-78346281D01*
X136117475Y-78346290D01*
X136038423Y-78483213D01*
X136038422Y-78483217D01*
X135997500Y-78635939D01*
X135997500Y-78794060D01*
X136038422Y-78946782D01*
X136038423Y-78946786D01*
X136117475Y-79083709D01*
X136117478Y-79083713D01*
X136117480Y-79083716D01*
X136229284Y-79195520D01*
X136229287Y-79195521D01*
X136229290Y-79195524D01*
X136319428Y-79247565D01*
X136342258Y-79277318D01*
X136337363Y-79314500D01*
X136319428Y-79332435D01*
X136229290Y-79384475D01*
X136229281Y-79384482D01*
X136117482Y-79496281D01*
X136117475Y-79496290D01*
X136038423Y-79633213D01*
X136038422Y-79633217D01*
X135997500Y-79785939D01*
X135997500Y-79944060D01*
X136038422Y-80096782D01*
X136038423Y-80096786D01*
X136117475Y-80233709D01*
X136117478Y-80233713D01*
X136117480Y-80233716D01*
X136229284Y-80345520D01*
X136229287Y-80345521D01*
X136229290Y-80345524D01*
X136366213Y-80424576D01*
X136366215Y-80424576D01*
X136366216Y-80424577D01*
X136486665Y-80456851D01*
X136518939Y-80465499D01*
X136518940Y-80465500D01*
X136518943Y-80465500D01*
X136677060Y-80465500D01*
X136677060Y-80465499D01*
X136829784Y-80424577D01*
X136966716Y-80345520D01*
X137007384Y-80304852D01*
X137042032Y-80290500D01*
X140790021Y-80290500D01*
X140790021Y-80290499D01*
X140898237Y-80261503D01*
X140995263Y-80205485D01*
X144440997Y-76759748D01*
X144475644Y-76745397D01*
X144497889Y-76750737D01*
X144587141Y-76796214D01*
X144761406Y-76852836D01*
X144942383Y-76881500D01*
X144942384Y-76881500D01*
X145125616Y-76881500D01*
X145125617Y-76881500D01*
X145306594Y-76852836D01*
X145480859Y-76796214D01*
X145570109Y-76750738D01*
X145607496Y-76747796D01*
X145627002Y-76759750D01*
X147272737Y-78405485D01*
X147308249Y-78425988D01*
X147369760Y-78461502D01*
X147369762Y-78461502D01*
X147369763Y-78461503D01*
X147450786Y-78483213D01*
X147477978Y-78490499D01*
X147477979Y-78490500D01*
X147477982Y-78490500D01*
X147590018Y-78490500D01*
X151420601Y-78490500D01*
X151455249Y-78504852D01*
X155106249Y-82155852D01*
X155120601Y-82190500D01*
X155106249Y-82225148D01*
X155071601Y-82239500D01*
X129029479Y-82239500D01*
X128921264Y-82268496D01*
X128921260Y-82268497D01*
X128824236Y-82324515D01*
X128824236Y-82324516D01*
X126704854Y-84443898D01*
X126670206Y-84458250D01*
X126612690Y-84458250D01*
X126459967Y-84499172D01*
X126459963Y-84499173D01*
X126323040Y-84578225D01*
X126323031Y-84578232D01*
X126211232Y-84690031D01*
X126211225Y-84690040D01*
X126132173Y-84826963D01*
X126132172Y-84826967D01*
X126091250Y-84979689D01*
X126091250Y-85137810D01*
X126132172Y-85290532D01*
X126132173Y-85290536D01*
X126211225Y-85427459D01*
X126211228Y-85427463D01*
X126211230Y-85427466D01*
X126323034Y-85539270D01*
X126323037Y-85539271D01*
X126323040Y-85539274D01*
X126459963Y-85618326D01*
X126459965Y-85618326D01*
X126459966Y-85618327D01*
X126580415Y-85650601D01*
X126612689Y-85659249D01*
X126612690Y-85659250D01*
X126612693Y-85659250D01*
X126770810Y-85659250D01*
X126770810Y-85659249D01*
X126923534Y-85618327D01*
X127060466Y-85539270D01*
X127172270Y-85427466D01*
X127251327Y-85290534D01*
X127292249Y-85137810D01*
X127292250Y-85137810D01*
X127292250Y-85080294D01*
X127306602Y-85045646D01*
X129247396Y-83104852D01*
X129282044Y-83090500D01*
X154404968Y-83090500D01*
X154439616Y-83104852D01*
X154453967Y-83139501D01*
X154439615Y-83174149D01*
X154408760Y-83205003D01*
X154386799Y-83217683D01*
X154383763Y-83218496D01*
X154383760Y-83218497D01*
X154286736Y-83274515D01*
X154286736Y-83274516D01*
X130357516Y-107203736D01*
X130357515Y-107203736D01*
X130301497Y-107300760D01*
X130301496Y-107300764D01*
X130272500Y-107408978D01*
X130272500Y-107720968D01*
X130258148Y-107755616D01*
X130217482Y-107796281D01*
X130217475Y-107796290D01*
X130138423Y-107933213D01*
X130138422Y-107933217D01*
X130097500Y-108085939D01*
X130097500Y-108244060D01*
X130138422Y-108396782D01*
X130138423Y-108396786D01*
X130217475Y-108533709D01*
X130217478Y-108533713D01*
X130217480Y-108533716D01*
X130329284Y-108645520D01*
X130329287Y-108645521D01*
X130329290Y-108645524D01*
X130466213Y-108724576D01*
X130466215Y-108724576D01*
X130466216Y-108724577D01*
X130547217Y-108746281D01*
X130618939Y-108765499D01*
X130618940Y-108765500D01*
X130618943Y-108765500D01*
X130777060Y-108765500D01*
X130777060Y-108765499D01*
X130929784Y-108724577D01*
X131023666Y-108670375D01*
X131066709Y-108645524D01*
X131066708Y-108645524D01*
X131066716Y-108645520D01*
X131178520Y-108533716D01*
X131257577Y-108396784D01*
X131298499Y-108244060D01*
X131298500Y-108244060D01*
X131298500Y-108085940D01*
X131298499Y-108085939D01*
X131289851Y-108053665D01*
X131257577Y-107933216D01*
X131257576Y-107933215D01*
X131257576Y-107933213D01*
X131178524Y-107796290D01*
X131178521Y-107796287D01*
X131178520Y-107796284D01*
X131137852Y-107755616D01*
X131123500Y-107720968D01*
X131123500Y-107661543D01*
X131137851Y-107626896D01*
X131778808Y-106985939D01*
X143210000Y-106985939D01*
X143210000Y-107144060D01*
X143250922Y-107296782D01*
X143250923Y-107296786D01*
X143329975Y-107433709D01*
X143329978Y-107433713D01*
X143329980Y-107433716D01*
X143441784Y-107545520D01*
X143441787Y-107545521D01*
X143441790Y-107545524D01*
X143578713Y-107624576D01*
X143578715Y-107624576D01*
X143578716Y-107624577D01*
X143699165Y-107656851D01*
X143731439Y-107665499D01*
X143731440Y-107665500D01*
X143731443Y-107665500D01*
X143889560Y-107665500D01*
X143889560Y-107665499D01*
X144042284Y-107624577D01*
X144179216Y-107545520D01*
X144200852Y-107523884D01*
X144235500Y-107509532D01*
X144270148Y-107523884D01*
X144291784Y-107545520D01*
X144291787Y-107545521D01*
X144291790Y-107545524D01*
X144428713Y-107624576D01*
X144428715Y-107624576D01*
X144428716Y-107624577D01*
X144549165Y-107656851D01*
X144581439Y-107665499D01*
X144581440Y-107665500D01*
X144581443Y-107665500D01*
X144739560Y-107665500D01*
X144739560Y-107665499D01*
X144892284Y-107624577D01*
X145029216Y-107545520D01*
X145141020Y-107433716D01*
X145204031Y-107324577D01*
X145220076Y-107296786D01*
X145220076Y-107296785D01*
X145220077Y-107296784D01*
X145260999Y-107144060D01*
X145261000Y-107144060D01*
X145261000Y-106985940D01*
X145260999Y-106985939D01*
X145231828Y-106877072D01*
X145220077Y-106833216D01*
X145220076Y-106833215D01*
X145220076Y-106833213D01*
X145141024Y-106696290D01*
X145141021Y-106696287D01*
X145141020Y-106696284D01*
X145044384Y-106599648D01*
X145030032Y-106565000D01*
X145044384Y-106530352D01*
X145091027Y-106483709D01*
X145141020Y-106433716D01*
X145198753Y-106333718D01*
X145220076Y-106296786D01*
X145220076Y-106296785D01*
X145220077Y-106296784D01*
X145260999Y-106144060D01*
X145261000Y-106144060D01*
X145261000Y-105985940D01*
X145260999Y-105985939D01*
X145233474Y-105883216D01*
X145220077Y-105833216D01*
X145220076Y-105833215D01*
X145220076Y-105833213D01*
X145141024Y-105696290D01*
X145141021Y-105696287D01*
X145141020Y-105696284D01*
X145029216Y-105584480D01*
X145029213Y-105584478D01*
X145029209Y-105584475D01*
X144892286Y-105505423D01*
X144892282Y-105505422D01*
X144739560Y-105464500D01*
X144739557Y-105464500D01*
X144581443Y-105464500D01*
X144581440Y-105464500D01*
X144428717Y-105505422D01*
X144428713Y-105505423D01*
X144348076Y-105551979D01*
X144310893Y-105556874D01*
X144288928Y-105544192D01*
X144229218Y-105484482D01*
X144229216Y-105484480D01*
X144229213Y-105484478D01*
X144229209Y-105484475D01*
X144092286Y-105405423D01*
X144092282Y-105405422D01*
X143939560Y-105364500D01*
X143939557Y-105364500D01*
X143781443Y-105364500D01*
X143781440Y-105364500D01*
X143628717Y-105405422D01*
X143628713Y-105405423D01*
X143491790Y-105484475D01*
X143491781Y-105484482D01*
X143379982Y-105596281D01*
X143379975Y-105596290D01*
X143300923Y-105733213D01*
X143300922Y-105733217D01*
X143260000Y-105885939D01*
X143260000Y-106044060D01*
X143300922Y-106196782D01*
X143300923Y-106196786D01*
X143379975Y-106333709D01*
X143379978Y-106333713D01*
X143379980Y-106333716D01*
X143491784Y-106445520D01*
X143513627Y-106458131D01*
X143536457Y-106487884D01*
X143531562Y-106525066D01*
X143513627Y-106543001D01*
X143441790Y-106584475D01*
X143441781Y-106584482D01*
X143329982Y-106696281D01*
X143329975Y-106696290D01*
X143250923Y-106833213D01*
X143250922Y-106833217D01*
X143210000Y-106985939D01*
X131778808Y-106985939D01*
X140478808Y-98285939D01*
X143310000Y-98285939D01*
X143310000Y-98444060D01*
X143350922Y-98596782D01*
X143350923Y-98596786D01*
X143429975Y-98733709D01*
X143429978Y-98733713D01*
X143429980Y-98733716D01*
X143541784Y-98845520D01*
X143541787Y-98845521D01*
X143541790Y-98845524D01*
X143678713Y-98924576D01*
X143678715Y-98924576D01*
X143678716Y-98924577D01*
X143799165Y-98956851D01*
X143831439Y-98965499D01*
X143831440Y-98965500D01*
X143831443Y-98965500D01*
X143989560Y-98965500D01*
X143989560Y-98965499D01*
X144142284Y-98924577D01*
X144155861Y-98916737D01*
X144193042Y-98911841D01*
X144222796Y-98934670D01*
X144222797Y-98934672D01*
X144279975Y-99033709D01*
X144279978Y-99033713D01*
X144279980Y-99033716D01*
X144391784Y-99145520D01*
X144391787Y-99145521D01*
X144391790Y-99145524D01*
X144528713Y-99224576D01*
X144528715Y-99224576D01*
X144528716Y-99224577D01*
X144649165Y-99256851D01*
X144681439Y-99265499D01*
X144681440Y-99265500D01*
X144681443Y-99265500D01*
X144839560Y-99265500D01*
X144839560Y-99265499D01*
X144992284Y-99224577D01*
X145129216Y-99145520D01*
X145241020Y-99033716D01*
X145304031Y-98924577D01*
X145320076Y-98896786D01*
X145320076Y-98896785D01*
X145320077Y-98896784D01*
X145360999Y-98744060D01*
X145361000Y-98744060D01*
X145361000Y-98585940D01*
X145360999Y-98585939D01*
X145352351Y-98553665D01*
X145320077Y-98433216D01*
X145320076Y-98433215D01*
X145320076Y-98433213D01*
X145241024Y-98296290D01*
X145241021Y-98296287D01*
X145241020Y-98296284D01*
X145219384Y-98274648D01*
X145205032Y-98240000D01*
X145219384Y-98205352D01*
X145241020Y-98183716D01*
X145320077Y-98046784D01*
X145360999Y-97894060D01*
X145361000Y-97894060D01*
X145361000Y-97735940D01*
X145360999Y-97735939D01*
X145320077Y-97583217D01*
X145320076Y-97583213D01*
X145241024Y-97446290D01*
X145241021Y-97446287D01*
X145241020Y-97446284D01*
X145129216Y-97334480D01*
X145129213Y-97334478D01*
X145129209Y-97334475D01*
X144992286Y-97255423D01*
X144992282Y-97255422D01*
X144839560Y-97214500D01*
X144839557Y-97214500D01*
X144681443Y-97214500D01*
X144681440Y-97214500D01*
X144528717Y-97255422D01*
X144528713Y-97255423D01*
X144391790Y-97334475D01*
X144391781Y-97334482D01*
X144279982Y-97446281D01*
X144279975Y-97446290D01*
X144200923Y-97583213D01*
X144200922Y-97583217D01*
X144160000Y-97735939D01*
X144160000Y-97746311D01*
X144145648Y-97780959D01*
X144111000Y-97795311D01*
X144098318Y-97793641D01*
X143989560Y-97764500D01*
X143989557Y-97764500D01*
X143831443Y-97764500D01*
X143831440Y-97764500D01*
X143678717Y-97805422D01*
X143678713Y-97805423D01*
X143541790Y-97884475D01*
X143541781Y-97884482D01*
X143429982Y-97996281D01*
X143429975Y-97996290D01*
X143350923Y-98133213D01*
X143350922Y-98133217D01*
X143310000Y-98285939D01*
X140478808Y-98285939D01*
X154575670Y-84189076D01*
X154610317Y-84174725D01*
X154622999Y-84176395D01*
X154768939Y-84215499D01*
X154768940Y-84215500D01*
X154927455Y-84215500D01*
X154962103Y-84229852D01*
X154976455Y-84264500D01*
X154962103Y-84299148D01*
X148936737Y-90324515D01*
X148857516Y-90403736D01*
X148857515Y-90403736D01*
X148801497Y-90500760D01*
X148801496Y-90500764D01*
X148772500Y-90608978D01*
X148772500Y-107321021D01*
X148801496Y-107429235D01*
X148801497Y-107429239D01*
X148857515Y-107526263D01*
X161912104Y-120580852D01*
X161926456Y-120615500D01*
X161912104Y-120650148D01*
X161877456Y-120664500D01*
X161718940Y-120664500D01*
X161566217Y-120705422D01*
X161566213Y-120705423D01*
X161429290Y-120784475D01*
X161429281Y-120784482D01*
X161388616Y-120825148D01*
X161353968Y-120839500D01*
X160169544Y-120839500D01*
X160134896Y-120825148D01*
X152134263Y-112824515D01*
X152037239Y-112768497D01*
X152037235Y-112768496D01*
X151929021Y-112739500D01*
X151929018Y-112739500D01*
X131544544Y-112739500D01*
X131509896Y-112725148D01*
X129737852Y-110953104D01*
X129723500Y-110918456D01*
X129723500Y-110385939D01*
X130147500Y-110385939D01*
X130147500Y-110544060D01*
X130188422Y-110696782D01*
X130188423Y-110696786D01*
X130267475Y-110833709D01*
X130267478Y-110833713D01*
X130267480Y-110833716D01*
X130379284Y-110945520D01*
X130379287Y-110945521D01*
X130379290Y-110945524D01*
X130516213Y-111024576D01*
X130516215Y-111024576D01*
X130516216Y-111024577D01*
X130636665Y-111056851D01*
X130668939Y-111065499D01*
X130668940Y-111065500D01*
X130668943Y-111065500D01*
X130827060Y-111065500D01*
X130827060Y-111065499D01*
X130979784Y-111024577D01*
X131116716Y-110945520D01*
X131228520Y-110833716D01*
X131307577Y-110696784D01*
X131348499Y-110544060D01*
X131348500Y-110544060D01*
X131348500Y-110385940D01*
X131348499Y-110385939D01*
X131307577Y-110233217D01*
X131307576Y-110233213D01*
X131228524Y-110096290D01*
X131228521Y-110096287D01*
X131228520Y-110096284D01*
X131116716Y-109984480D01*
X131116713Y-109984478D01*
X131116709Y-109984475D01*
X130979786Y-109905423D01*
X130979782Y-109905422D01*
X130827060Y-109864500D01*
X130827057Y-109864500D01*
X130668943Y-109864500D01*
X130668940Y-109864500D01*
X130516217Y-109905422D01*
X130516213Y-109905423D01*
X130379290Y-109984475D01*
X130379281Y-109984482D01*
X130267482Y-110096281D01*
X130267475Y-110096290D01*
X130188423Y-110233213D01*
X130188422Y-110233217D01*
X130147500Y-110385939D01*
X129723500Y-110385939D01*
X129723500Y-97033980D01*
X129705150Y-96965501D01*
X129705150Y-96965497D01*
X129694503Y-96925762D01*
X129694502Y-96925760D01*
X129641802Y-96834482D01*
X129638485Y-96828737D01*
X126212852Y-93403104D01*
X126198500Y-93368456D01*
X126198500Y-93310940D01*
X126198499Y-93310939D01*
X126164410Y-93183718D01*
X126157577Y-93158216D01*
X126157576Y-93158215D01*
X126157576Y-93158213D01*
X126078524Y-93021290D01*
X126078521Y-93021287D01*
X126078520Y-93021284D01*
X125966716Y-92909480D01*
X125966713Y-92909478D01*
X125966709Y-92909475D01*
X125829786Y-92830423D01*
X125829782Y-92830422D01*
X125677060Y-92789500D01*
X125677057Y-92789500D01*
X125518943Y-92789500D01*
X125518940Y-92789500D01*
X125366217Y-92830422D01*
X125366213Y-92830423D01*
X125229290Y-92909475D01*
X125229281Y-92909482D01*
X125117482Y-93021281D01*
X125117475Y-93021290D01*
X125038423Y-93158213D01*
X125038422Y-93158217D01*
X124997500Y-93310939D01*
X124997500Y-93469060D01*
X125038422Y-93621782D01*
X125038423Y-93621786D01*
X125117475Y-93758709D01*
X125117478Y-93758713D01*
X125117480Y-93758716D01*
X125229284Y-93870520D01*
X125229287Y-93870521D01*
X125229290Y-93870524D01*
X125366213Y-93949576D01*
X125366215Y-93949576D01*
X125366216Y-93949577D01*
X125486665Y-93981851D01*
X125518939Y-93990499D01*
X125518940Y-93990500D01*
X125518943Y-93990500D01*
X125576456Y-93990500D01*
X125611104Y-94004852D01*
X128858148Y-97251896D01*
X128872500Y-97286544D01*
X128872500Y-111171021D01*
X128901496Y-111279235D01*
X128901497Y-111279239D01*
X128957515Y-111376263D01*
X131007515Y-113426263D01*
X131086737Y-113505485D01*
X131105379Y-113516248D01*
X131183760Y-113561502D01*
X131183762Y-113561502D01*
X131183763Y-113561503D01*
X131227201Y-113573142D01*
X131291978Y-113590499D01*
X131291979Y-113590500D01*
X131291982Y-113590500D01*
X151676456Y-113590500D01*
X151711104Y-113604852D01*
X159711737Y-121605485D01*
X159722235Y-121611546D01*
X159808760Y-121661502D01*
X159808762Y-121661502D01*
X159808763Y-121661503D01*
X159891664Y-121683716D01*
X159916978Y-121690499D01*
X159916979Y-121690500D01*
X159916982Y-121690500D01*
X160029019Y-121690500D01*
X161353968Y-121690500D01*
X161388616Y-121704852D01*
X161429284Y-121745520D01*
X161429287Y-121745521D01*
X161429290Y-121745524D01*
X161566213Y-121824576D01*
X161566215Y-121824576D01*
X161566216Y-121824577D01*
X161686665Y-121856851D01*
X161718939Y-121865499D01*
X161718940Y-121865500D01*
X161718943Y-121865500D01*
X161877060Y-121865500D01*
X161877060Y-121865499D01*
X162029784Y-121824577D01*
X162166716Y-121745520D01*
X162278520Y-121633716D01*
X162341779Y-121524148D01*
X162357576Y-121496786D01*
X162357576Y-121496785D01*
X162357577Y-121496784D01*
X162398499Y-121344060D01*
X162398500Y-121344060D01*
X162398500Y-121185544D01*
X162412852Y-121150896D01*
X162447500Y-121136544D01*
X162482148Y-121150896D01*
X162907515Y-121576263D01*
X162986737Y-121655485D01*
X163022249Y-121675988D01*
X163083760Y-121711502D01*
X163083762Y-121711502D01*
X163083763Y-121711503D01*
X163169111Y-121734371D01*
X163191978Y-121740499D01*
X163191979Y-121740500D01*
X163191982Y-121740500D01*
X163903968Y-121740500D01*
X163938616Y-121754852D01*
X163979284Y-121795520D01*
X163979287Y-121795521D01*
X163979290Y-121795524D01*
X164116213Y-121874576D01*
X164116215Y-121874576D01*
X164116216Y-121874577D01*
X164236665Y-121906851D01*
X164268939Y-121915499D01*
X164268940Y-121915500D01*
X164268943Y-121915500D01*
X164427060Y-121915500D01*
X164427060Y-121915499D01*
X164579784Y-121874577D01*
X164716716Y-121795520D01*
X164828520Y-121683716D01*
X164881695Y-121591613D01*
X164907576Y-121546786D01*
X164907576Y-121546785D01*
X164907577Y-121546784D01*
X164948499Y-121394060D01*
X164948500Y-121394060D01*
X164948500Y-121235940D01*
X164948499Y-121235939D01*
X164907577Y-121083217D01*
X164907576Y-121083213D01*
X164828524Y-120946290D01*
X164828521Y-120946287D01*
X164828520Y-120946284D01*
X164716716Y-120834480D01*
X164716713Y-120834478D01*
X164716709Y-120834475D01*
X164579786Y-120755423D01*
X164579782Y-120755422D01*
X164427060Y-120714500D01*
X164427057Y-120714500D01*
X164268943Y-120714500D01*
X164268940Y-120714500D01*
X164116217Y-120755422D01*
X164116213Y-120755423D01*
X163979290Y-120834475D01*
X163979281Y-120834482D01*
X163938616Y-120875148D01*
X163903968Y-120889500D01*
X163444544Y-120889500D01*
X163409896Y-120875148D01*
X161545640Y-119010892D01*
X161531288Y-118976244D01*
X161545640Y-118941596D01*
X161589360Y-118897876D01*
X161656343Y-118830893D01*
X161735400Y-118693961D01*
X161776322Y-118541237D01*
X161776323Y-118541237D01*
X161776323Y-118383117D01*
X161776322Y-118383116D01*
X161767674Y-118350842D01*
X161735400Y-118230393D01*
X161735399Y-118230392D01*
X161735399Y-118230390D01*
X161656347Y-118093467D01*
X161656344Y-118093464D01*
X161656343Y-118093461D01*
X161544539Y-117981657D01*
X161544536Y-117981655D01*
X161544532Y-117981652D01*
X161407609Y-117902600D01*
X161407605Y-117902599D01*
X161254883Y-117861677D01*
X161254880Y-117861677D01*
X161096766Y-117861677D01*
X161096763Y-117861677D01*
X160944040Y-117902599D01*
X160944036Y-117902600D01*
X160807113Y-117981652D01*
X160807104Y-117981659D01*
X160696404Y-118092360D01*
X160661756Y-118106712D01*
X160627108Y-118092360D01*
X156470687Y-113935939D01*
X157047500Y-113935939D01*
X157047500Y-114094060D01*
X157088422Y-114246782D01*
X157088423Y-114246786D01*
X157167475Y-114383709D01*
X157167478Y-114383713D01*
X157167480Y-114383716D01*
X157279284Y-114495520D01*
X157279287Y-114495521D01*
X157279290Y-114495524D01*
X157416213Y-114574576D01*
X157416215Y-114574576D01*
X157416216Y-114574577D01*
X157531331Y-114605422D01*
X157568939Y-114615499D01*
X157568940Y-114615500D01*
X157568943Y-114615500D01*
X157727060Y-114615500D01*
X157727060Y-114615499D01*
X157879784Y-114574577D01*
X158016716Y-114495520D01*
X158128520Y-114383716D01*
X158207577Y-114246784D01*
X158248499Y-114094060D01*
X158248500Y-114094060D01*
X158248500Y-113935940D01*
X158248499Y-113935939D01*
X158239851Y-113903665D01*
X158207577Y-113783216D01*
X158207576Y-113783215D01*
X158207576Y-113783213D01*
X158128524Y-113646290D01*
X158128521Y-113646287D01*
X158128520Y-113646284D01*
X158016716Y-113534480D01*
X158016713Y-113534478D01*
X158016709Y-113534475D01*
X157879786Y-113455423D01*
X157879782Y-113455422D01*
X157727060Y-113414500D01*
X157727057Y-113414500D01*
X157568943Y-113414500D01*
X157568940Y-113414500D01*
X157416217Y-113455422D01*
X157416213Y-113455423D01*
X157279290Y-113534475D01*
X157279281Y-113534482D01*
X157167482Y-113646281D01*
X157167475Y-113646290D01*
X157088423Y-113783213D01*
X157088422Y-113783217D01*
X157047500Y-113935939D01*
X156470687Y-113935939D01*
X151595687Y-109060939D01*
X159222500Y-109060939D01*
X159222500Y-109219060D01*
X159263422Y-109371782D01*
X159263423Y-109371786D01*
X159342475Y-109508709D01*
X159342478Y-109508713D01*
X159342480Y-109508716D01*
X159454284Y-109620520D01*
X159454287Y-109620521D01*
X159454290Y-109620524D01*
X159591213Y-109699576D01*
X159591215Y-109699576D01*
X159591216Y-109699577D01*
X159650638Y-109715499D01*
X159743939Y-109740499D01*
X159743940Y-109740500D01*
X159743943Y-109740500D01*
X159902060Y-109740500D01*
X159902060Y-109740499D01*
X160054784Y-109699577D01*
X160098088Y-109674576D01*
X160191709Y-109620524D01*
X160191708Y-109620524D01*
X160191716Y-109620520D01*
X160303520Y-109508716D01*
X160382577Y-109371784D01*
X160423499Y-109219060D01*
X160423500Y-109219060D01*
X160423500Y-109060940D01*
X160423499Y-109060939D01*
X160382577Y-108908217D01*
X160382576Y-108908213D01*
X160303524Y-108771290D01*
X160303521Y-108771287D01*
X160303520Y-108771284D01*
X160191716Y-108659480D01*
X160191713Y-108659478D01*
X160191709Y-108659475D01*
X160054786Y-108580423D01*
X160054782Y-108580422D01*
X159902060Y-108539500D01*
X159902057Y-108539500D01*
X159743943Y-108539500D01*
X159743940Y-108539500D01*
X159591217Y-108580422D01*
X159591213Y-108580423D01*
X159454290Y-108659475D01*
X159454281Y-108659482D01*
X159342482Y-108771281D01*
X159342475Y-108771290D01*
X159263423Y-108908213D01*
X159263422Y-108908217D01*
X159222500Y-109060939D01*
X151595687Y-109060939D01*
X149637852Y-107103104D01*
X149623500Y-107068456D01*
X149623500Y-106035939D01*
X156897500Y-106035939D01*
X156897500Y-106194060D01*
X156938422Y-106346782D01*
X156938423Y-106346786D01*
X157017475Y-106483709D01*
X157017478Y-106483713D01*
X157017480Y-106483716D01*
X157129284Y-106595520D01*
X157129287Y-106595521D01*
X157129290Y-106595524D01*
X157266213Y-106674576D01*
X157266215Y-106674576D01*
X157266216Y-106674577D01*
X157386665Y-106706851D01*
X157418939Y-106715499D01*
X157418940Y-106715500D01*
X157418943Y-106715500D01*
X157577060Y-106715500D01*
X157577060Y-106715499D01*
X157729784Y-106674577D01*
X157866716Y-106595520D01*
X157978520Y-106483716D01*
X158028995Y-106396290D01*
X158057576Y-106346786D01*
X158057576Y-106346785D01*
X158057577Y-106346784D01*
X158098499Y-106194060D01*
X158098500Y-106194060D01*
X158098500Y-106035940D01*
X158098499Y-106035939D01*
X158064268Y-105908189D01*
X158057577Y-105883216D01*
X158057576Y-105883215D01*
X158057576Y-105883213D01*
X157978524Y-105746290D01*
X157978521Y-105746287D01*
X157978520Y-105746284D01*
X157866716Y-105634480D01*
X157866713Y-105634478D01*
X157866709Y-105634475D01*
X157729786Y-105555423D01*
X157729782Y-105555422D01*
X157577060Y-105514500D01*
X157577057Y-105514500D01*
X157418943Y-105514500D01*
X157418940Y-105514500D01*
X157266217Y-105555422D01*
X157266213Y-105555423D01*
X157129290Y-105634475D01*
X157129281Y-105634482D01*
X157017482Y-105746281D01*
X157017475Y-105746290D01*
X156938423Y-105883213D01*
X156938422Y-105883217D01*
X156897500Y-106035939D01*
X149623500Y-106035939D01*
X149623500Y-96485939D01*
X149747500Y-96485939D01*
X149747500Y-96644060D01*
X149788422Y-96796782D01*
X149788423Y-96796786D01*
X149867475Y-96933709D01*
X149867478Y-96933713D01*
X149867480Y-96933716D01*
X149979284Y-97045520D01*
X149979287Y-97045521D01*
X149979290Y-97045524D01*
X150116213Y-97124576D01*
X150116215Y-97124576D01*
X150116216Y-97124577D01*
X150236665Y-97156851D01*
X150268939Y-97165499D01*
X150268940Y-97165500D01*
X150268943Y-97165500D01*
X150352517Y-97165500D01*
X150387165Y-97179852D01*
X150401517Y-97214500D01*
X150399847Y-97227183D01*
X150397500Y-97235941D01*
X150397500Y-97394060D01*
X150438422Y-97546782D01*
X150438423Y-97546786D01*
X150517475Y-97683709D01*
X150517478Y-97683713D01*
X150517480Y-97683716D01*
X150629284Y-97795520D01*
X150629287Y-97795521D01*
X150629290Y-97795524D01*
X150766213Y-97874576D01*
X150766215Y-97874576D01*
X150766216Y-97874577D01*
X150838928Y-97894060D01*
X150918939Y-97915499D01*
X150918940Y-97915500D01*
X150918943Y-97915500D01*
X151077060Y-97915500D01*
X151077060Y-97915499D01*
X151229784Y-97874577D01*
X151366716Y-97795520D01*
X151478520Y-97683716D01*
X151557577Y-97546784D01*
X151598499Y-97394060D01*
X151598500Y-97394060D01*
X151598500Y-97235940D01*
X151598499Y-97235939D01*
X151579625Y-97165499D01*
X151557577Y-97083216D01*
X151557576Y-97083215D01*
X151557576Y-97083213D01*
X151478524Y-96946290D01*
X151478521Y-96946287D01*
X151478520Y-96946284D01*
X151366716Y-96834480D01*
X151366713Y-96834478D01*
X151366709Y-96834475D01*
X151229786Y-96755423D01*
X151229782Y-96755422D01*
X151077060Y-96714500D01*
X151077057Y-96714500D01*
X150993483Y-96714500D01*
X150958835Y-96700148D01*
X150944483Y-96665500D01*
X150946153Y-96652817D01*
X150948500Y-96644058D01*
X150948500Y-96485940D01*
X150948499Y-96485939D01*
X150929625Y-96415499D01*
X150907577Y-96333216D01*
X150907576Y-96333215D01*
X150907576Y-96333213D01*
X150828524Y-96196290D01*
X150828521Y-96196287D01*
X150828520Y-96196284D01*
X150716716Y-96084480D01*
X150716713Y-96084478D01*
X150716709Y-96084475D01*
X150579786Y-96005423D01*
X150579782Y-96005422D01*
X150427060Y-95964500D01*
X150427057Y-95964500D01*
X150268943Y-95964500D01*
X150268940Y-95964500D01*
X150116217Y-96005422D01*
X150116213Y-96005423D01*
X149979290Y-96084475D01*
X149979281Y-96084482D01*
X149867482Y-96196281D01*
X149867475Y-96196290D01*
X149788423Y-96333213D01*
X149788422Y-96333217D01*
X149747500Y-96485939D01*
X149623500Y-96485939D01*
X149623500Y-95208032D01*
X149637852Y-95173384D01*
X149672500Y-95159032D01*
X149707148Y-95173384D01*
X149779284Y-95245520D01*
X149779287Y-95245521D01*
X149779290Y-95245524D01*
X149916213Y-95324576D01*
X149916215Y-95324576D01*
X149916216Y-95324577D01*
X150025129Y-95353760D01*
X150068939Y-95365499D01*
X150068940Y-95365500D01*
X150068943Y-95365500D01*
X150227060Y-95365500D01*
X150227060Y-95365499D01*
X150379784Y-95324577D01*
X150516716Y-95245520D01*
X150557384Y-95204852D01*
X150592032Y-95190500D01*
X153945795Y-95190500D01*
X153980443Y-95204852D01*
X153994795Y-95239500D01*
X153980443Y-95274148D01*
X153970295Y-95281935D01*
X153879290Y-95334475D01*
X153879281Y-95334482D01*
X153767482Y-95446281D01*
X153767475Y-95446290D01*
X153688423Y-95583213D01*
X153688422Y-95583217D01*
X153647500Y-95735939D01*
X153647500Y-95894060D01*
X153688422Y-96046782D01*
X153688423Y-96046786D01*
X153767475Y-96183709D01*
X153767478Y-96183713D01*
X153767480Y-96183716D01*
X153879284Y-96295520D01*
X153879287Y-96295521D01*
X153879290Y-96295524D01*
X154016213Y-96374576D01*
X154016215Y-96374576D01*
X154016216Y-96374577D01*
X154136665Y-96406851D01*
X154168939Y-96415499D01*
X154168940Y-96415500D01*
X154168943Y-96415500D01*
X154327060Y-96415500D01*
X154327060Y-96415499D01*
X154479784Y-96374577D01*
X154616716Y-96295520D01*
X154728520Y-96183716D01*
X154785812Y-96084482D01*
X154807576Y-96046786D01*
X154807576Y-96046785D01*
X154807577Y-96046784D01*
X154848499Y-95894060D01*
X154848500Y-95894060D01*
X154848500Y-95735940D01*
X154848499Y-95735939D01*
X154807577Y-95583217D01*
X154807576Y-95583213D01*
X154728524Y-95446290D01*
X154728521Y-95446287D01*
X154728520Y-95446284D01*
X154616716Y-95334480D01*
X154616713Y-95334478D01*
X154616709Y-95334475D01*
X154525705Y-95281935D01*
X154502875Y-95252182D01*
X154507770Y-95215000D01*
X154537523Y-95192170D01*
X154550205Y-95190500D01*
X160051456Y-95190500D01*
X160086104Y-95204852D01*
X162183148Y-97301895D01*
X162197500Y-97336543D01*
X162197500Y-112596021D01*
X162226496Y-112704235D01*
X162226497Y-112704239D01*
X162282515Y-112801263D01*
X165587104Y-116105852D01*
X165601456Y-116140500D01*
X165587104Y-116175148D01*
X165552456Y-116189500D01*
X164504116Y-116189500D01*
X164469468Y-116175148D01*
X164390835Y-116096515D01*
X164318082Y-116054511D01*
X164318081Y-116054509D01*
X164293811Y-116040497D01*
X164293808Y-116040496D01*
X164196786Y-116014500D01*
X164185590Y-116011500D01*
X164185589Y-116011500D01*
X162323605Y-116011500D01*
X162288957Y-115997148D01*
X162213324Y-115921515D01*
X162144838Y-115881974D01*
X162122008Y-115852221D01*
X162126903Y-115815039D01*
X162156656Y-115792209D01*
X162182020Y-115792209D01*
X162209637Y-115799609D01*
X162268941Y-115815500D01*
X162268943Y-115815500D01*
X162427060Y-115815500D01*
X162427060Y-115815499D01*
X162579784Y-115774577D01*
X162608329Y-115758097D01*
X162716709Y-115695524D01*
X162716708Y-115695524D01*
X162716716Y-115695520D01*
X162828520Y-115583716D01*
X162907577Y-115446784D01*
X162948499Y-115294060D01*
X162948500Y-115294060D01*
X162948500Y-115135940D01*
X162948499Y-115135939D01*
X162907577Y-114983217D01*
X162907576Y-114983213D01*
X162828524Y-114846290D01*
X162828521Y-114846287D01*
X162828520Y-114846284D01*
X162716716Y-114734480D01*
X162716713Y-114734478D01*
X162716709Y-114734475D01*
X162579786Y-114655423D01*
X162579782Y-114655422D01*
X162427060Y-114614500D01*
X162427057Y-114614500D01*
X162268943Y-114614500D01*
X162268940Y-114614500D01*
X162116217Y-114655422D01*
X162116213Y-114655423D01*
X161979290Y-114734475D01*
X161979281Y-114734482D01*
X161867482Y-114846281D01*
X161867475Y-114846290D01*
X161788423Y-114983213D01*
X161788422Y-114983217D01*
X161747500Y-115135939D01*
X161747500Y-115294060D01*
X161788422Y-115446782D01*
X161788423Y-115446786D01*
X161867475Y-115583709D01*
X161867478Y-115583713D01*
X161867480Y-115583716D01*
X161979284Y-115695520D01*
X162087675Y-115758099D01*
X162110504Y-115787850D01*
X162105610Y-115825033D01*
X162075857Y-115847863D01*
X162050493Y-115847864D01*
X162008080Y-115836500D01*
X162008079Y-115836500D01*
X161549957Y-115836500D01*
X161437921Y-115836500D01*
X161437918Y-115836500D01*
X161329703Y-115865496D01*
X161329699Y-115865497D01*
X161232675Y-115921515D01*
X161232675Y-115921516D01*
X160829516Y-116324675D01*
X160829515Y-116324675D01*
X160773497Y-116421699D01*
X160773496Y-116421703D01*
X160744500Y-116529917D01*
X160744500Y-117100082D01*
X160773496Y-117208296D01*
X160773497Y-117208300D01*
X160811763Y-117274577D01*
X160829515Y-117305324D01*
X161153454Y-117629263D01*
X161232676Y-117708485D01*
X161268188Y-117728988D01*
X161329699Y-117764502D01*
X161329701Y-117764502D01*
X161329702Y-117764503D01*
X161415050Y-117787371D01*
X161437917Y-117793499D01*
X161437918Y-117793500D01*
X161437921Y-117793500D01*
X162008082Y-117793500D01*
X162008082Y-117793499D01*
X162116298Y-117764503D01*
X162213324Y-117708485D01*
X162288957Y-117632852D01*
X162323605Y-117618500D01*
X162970500Y-117618500D01*
X163005148Y-117632852D01*
X163019500Y-117667500D01*
X163019500Y-117900082D01*
X163048496Y-118008296D01*
X163048497Y-118008300D01*
X163097030Y-118092360D01*
X163104515Y-118105324D01*
X163428454Y-118429263D01*
X163507676Y-118508485D01*
X163543188Y-118528988D01*
X163604699Y-118564502D01*
X163604701Y-118564502D01*
X163604702Y-118564503D01*
X163690050Y-118587371D01*
X163712917Y-118593499D01*
X163712918Y-118593500D01*
X163712921Y-118593500D01*
X164283082Y-118593500D01*
X164283082Y-118593499D01*
X164391298Y-118564503D01*
X164488324Y-118508485D01*
X164588957Y-118407852D01*
X164623605Y-118393500D01*
X169285593Y-118393500D01*
X169285593Y-118393499D01*
X169393809Y-118364503D01*
X169490835Y-118308485D01*
X170869485Y-116929836D01*
X170892483Y-116890000D01*
X170922236Y-116867170D01*
X170934919Y-116865500D01*
X175154021Y-116865500D01*
X175154021Y-116865499D01*
X175262237Y-116836503D01*
X175274012Y-116829705D01*
X175275237Y-116828997D01*
X175359263Y-116780485D01*
X175634896Y-116504852D01*
X175669544Y-116490500D01*
X175727060Y-116490500D01*
X175727060Y-116490499D01*
X175879784Y-116449577D01*
X175928066Y-116421702D01*
X176016709Y-116370524D01*
X176016708Y-116370524D01*
X176016716Y-116370520D01*
X176128520Y-116258716D01*
X176188156Y-116155422D01*
X176207576Y-116121786D01*
X176207576Y-116121785D01*
X176207577Y-116121784D01*
X176248499Y-115969060D01*
X176248500Y-115969060D01*
X176248500Y-115810940D01*
X176248499Y-115810939D01*
X176226330Y-115728203D01*
X176207577Y-115658216D01*
X176207576Y-115658215D01*
X176207576Y-115658213D01*
X176128524Y-115521290D01*
X176128521Y-115521287D01*
X176128520Y-115521284D01*
X176016716Y-115409480D01*
X176016713Y-115409478D01*
X176016709Y-115409475D01*
X175879786Y-115330423D01*
X175879782Y-115330422D01*
X175727060Y-115289500D01*
X175727057Y-115289500D01*
X175568943Y-115289500D01*
X175568940Y-115289500D01*
X175416217Y-115330422D01*
X175416213Y-115330423D01*
X175279290Y-115409475D01*
X175279281Y-115409482D01*
X175167482Y-115521281D01*
X175167475Y-115521290D01*
X175088423Y-115658213D01*
X175088422Y-115658217D01*
X175047500Y-115810939D01*
X175047500Y-115868456D01*
X175033148Y-115903104D01*
X174936104Y-116000148D01*
X174901456Y-116014500D01*
X170625500Y-116014500D01*
X170590852Y-116000148D01*
X170576500Y-115965500D01*
X170576500Y-112254616D01*
X173222500Y-112254616D01*
X173222500Y-112455384D01*
X173229761Y-112501227D01*
X173253906Y-112653677D01*
X173253907Y-112653680D01*
X173301859Y-112801263D01*
X173315948Y-112844622D01*
X173407095Y-113023508D01*
X173517391Y-113175317D01*
X173525104Y-113185933D01*
X173525108Y-113185938D01*
X173667062Y-113327892D01*
X173667066Y-113327895D01*
X173667068Y-113327897D01*
X173829492Y-113445905D01*
X174008378Y-113537052D01*
X174199320Y-113599093D01*
X174397616Y-113630500D01*
X174397617Y-113630500D01*
X174598383Y-113630500D01*
X174598384Y-113630500D01*
X174796680Y-113599093D01*
X174987622Y-113537052D01*
X175166508Y-113445905D01*
X175328932Y-113327897D01*
X175328935Y-113327893D01*
X175328938Y-113327892D01*
X175470892Y-113185938D01*
X175470893Y-113185935D01*
X175470897Y-113185932D01*
X175588905Y-113023508D01*
X175680052Y-112844622D01*
X175742093Y-112653680D01*
X175773500Y-112455384D01*
X175773500Y-112254616D01*
X175742093Y-112056320D01*
X175680052Y-111865378D01*
X175588905Y-111686492D01*
X175470897Y-111524068D01*
X175470895Y-111524066D01*
X175470892Y-111524062D01*
X175328938Y-111382108D01*
X175328933Y-111382104D01*
X175320894Y-111376263D01*
X175166508Y-111264095D01*
X174987622Y-111172948D01*
X174987621Y-111172947D01*
X174987620Y-111172947D01*
X174796680Y-111110907D01*
X174796677Y-111110906D01*
X174644350Y-111086780D01*
X174598384Y-111079500D01*
X174397616Y-111079500D01*
X174360299Y-111085410D01*
X174199322Y-111110906D01*
X174199319Y-111110907D01*
X174008379Y-111172947D01*
X173829492Y-111264095D01*
X173667066Y-111382104D01*
X173525104Y-111524066D01*
X173407095Y-111686492D01*
X173315947Y-111865379D01*
X173253907Y-112056319D01*
X173253906Y-112056322D01*
X173222500Y-112254616D01*
X170576500Y-112254616D01*
X170576500Y-102174616D01*
X173222500Y-102174616D01*
X173222500Y-102375383D01*
X173253906Y-102573677D01*
X173253907Y-102573680D01*
X173303965Y-102727744D01*
X173315948Y-102764622D01*
X173407095Y-102943508D01*
X173513891Y-103090500D01*
X173525104Y-103105933D01*
X173525108Y-103105938D01*
X173667062Y-103247892D01*
X173667066Y-103247895D01*
X173667068Y-103247897D01*
X173829492Y-103365905D01*
X174008378Y-103457052D01*
X174199320Y-103519093D01*
X174397616Y-103550500D01*
X174397617Y-103550500D01*
X174598383Y-103550500D01*
X174598384Y-103550500D01*
X174796680Y-103519093D01*
X174987622Y-103457052D01*
X175166508Y-103365905D01*
X175328932Y-103247897D01*
X175328935Y-103247893D01*
X175328938Y-103247892D01*
X175470892Y-103105938D01*
X175470893Y-103105935D01*
X175470897Y-103105932D01*
X175588905Y-102943508D01*
X175680052Y-102764622D01*
X175742093Y-102573680D01*
X175773500Y-102375384D01*
X175773500Y-102174616D01*
X175742093Y-101976320D01*
X175680052Y-101785378D01*
X175588905Y-101606492D01*
X175470897Y-101444068D01*
X175470895Y-101444066D01*
X175470892Y-101444062D01*
X175328938Y-101302108D01*
X175328933Y-101302104D01*
X175328932Y-101302103D01*
X175166508Y-101184095D01*
X174987622Y-101092948D01*
X174987621Y-101092947D01*
X174987620Y-101092947D01*
X174796680Y-101030907D01*
X174796677Y-101030906D01*
X174644350Y-101006780D01*
X174598384Y-100999500D01*
X174397616Y-100999500D01*
X174360299Y-101005410D01*
X174199322Y-101030906D01*
X174199319Y-101030907D01*
X174008379Y-101092947D01*
X173829492Y-101184095D01*
X173667066Y-101302104D01*
X173525104Y-101444066D01*
X173407095Y-101606492D01*
X173315947Y-101785379D01*
X173253907Y-101976319D01*
X173253906Y-101976322D01*
X173222500Y-102174616D01*
X170576500Y-102174616D01*
X170576500Y-95461979D01*
X170576499Y-95461978D01*
X170550648Y-95365500D01*
X170547503Y-95353763D01*
X170547502Y-95353762D01*
X170547502Y-95353760D01*
X170491484Y-95256736D01*
X168929882Y-93695134D01*
X173222500Y-93695134D01*
X173222500Y-95734858D01*
X173222501Y-95734868D01*
X173225415Y-95759992D01*
X173270794Y-95862766D01*
X173350233Y-95942205D01*
X173453006Y-95987584D01*
X173453009Y-95987585D01*
X173478135Y-95990500D01*
X175517864Y-95990499D01*
X175542991Y-95987585D01*
X175645765Y-95942206D01*
X175725206Y-95862765D01*
X175770585Y-95759991D01*
X175773500Y-95734865D01*
X175773499Y-93695136D01*
X175770585Y-93670009D01*
X175725206Y-93567235D01*
X175725205Y-93567234D01*
X175725205Y-93567233D01*
X175645766Y-93487794D01*
X175645767Y-93487794D01*
X175542993Y-93442415D01*
X175530428Y-93440957D01*
X175517865Y-93439500D01*
X175517863Y-93439500D01*
X173478141Y-93439500D01*
X173478131Y-93439501D01*
X173453007Y-93442415D01*
X173350233Y-93487794D01*
X173270794Y-93567233D01*
X173225415Y-93670006D01*
X173222500Y-93695134D01*
X168929882Y-93695134D01*
X167880749Y-92646001D01*
X168797500Y-92646001D01*
X168797500Y-92783998D01*
X168824417Y-92919318D01*
X168824420Y-92919329D01*
X168877223Y-93046807D01*
X168877225Y-93046811D01*
X168908137Y-93093074D01*
X168953883Y-93161539D01*
X169051460Y-93259116D01*
X169097102Y-93289613D01*
X169166189Y-93335775D01*
X169293672Y-93388580D01*
X169293678Y-93388581D01*
X169293681Y-93388582D01*
X169429001Y-93415499D01*
X169429007Y-93415500D01*
X169566993Y-93415500D01*
X169702328Y-93388580D01*
X169829811Y-93335775D01*
X169944542Y-93259114D01*
X170042114Y-93161542D01*
X170118775Y-93046811D01*
X170171580Y-92919328D01*
X170198500Y-92783993D01*
X170198500Y-92646007D01*
X170186110Y-92583718D01*
X170171582Y-92510681D01*
X170171579Y-92510670D01*
X170118775Y-92383189D01*
X170059219Y-92294057D01*
X170042116Y-92268460D01*
X169944539Y-92170883D01*
X169843913Y-92103648D01*
X169829811Y-92094225D01*
X169829808Y-92094223D01*
X169829807Y-92094223D01*
X169702329Y-92041420D01*
X169702318Y-92041417D01*
X169566998Y-92014500D01*
X169566993Y-92014500D01*
X169429007Y-92014500D01*
X169429001Y-92014500D01*
X169293681Y-92041417D01*
X169293670Y-92041420D01*
X169166192Y-92094223D01*
X169051460Y-92170883D01*
X168953883Y-92268460D01*
X168877223Y-92383192D01*
X168824420Y-92510670D01*
X168824417Y-92510681D01*
X168797500Y-92646001D01*
X167880749Y-92646001D01*
X166020687Y-90785939D01*
X169997500Y-90785939D01*
X169997500Y-90944060D01*
X170038422Y-91096782D01*
X170038423Y-91096786D01*
X170117475Y-91233709D01*
X170117478Y-91233713D01*
X170117480Y-91233716D01*
X170229284Y-91345520D01*
X170229287Y-91345521D01*
X170229290Y-91345524D01*
X170366213Y-91424576D01*
X170366215Y-91424576D01*
X170366216Y-91424577D01*
X170486665Y-91456851D01*
X170518939Y-91465499D01*
X170518940Y-91465500D01*
X170518943Y-91465500D01*
X170677060Y-91465500D01*
X170677060Y-91465499D01*
X170829784Y-91424577D01*
X170966716Y-91345520D01*
X171078520Y-91233716D01*
X171157577Y-91096784D01*
X171198499Y-90944060D01*
X171198500Y-90944060D01*
X171198500Y-90785940D01*
X171198499Y-90785939D01*
X171157577Y-90633217D01*
X171157576Y-90633213D01*
X171078524Y-90496290D01*
X171078521Y-90496287D01*
X171078520Y-90496284D01*
X170966716Y-90384480D01*
X170966713Y-90384478D01*
X170966709Y-90384475D01*
X170829786Y-90305423D01*
X170829782Y-90305422D01*
X170677060Y-90264500D01*
X170677057Y-90264500D01*
X170518943Y-90264500D01*
X170518940Y-90264500D01*
X170366217Y-90305422D01*
X170366213Y-90305423D01*
X170229290Y-90384475D01*
X170229281Y-90384482D01*
X170117482Y-90496281D01*
X170117475Y-90496290D01*
X170038423Y-90633213D01*
X170038422Y-90633217D01*
X169997500Y-90785939D01*
X166020687Y-90785939D01*
X161520687Y-86285939D01*
X162297500Y-86285939D01*
X162297500Y-86444060D01*
X162338422Y-86596782D01*
X162338423Y-86596786D01*
X162417475Y-86733709D01*
X162417478Y-86733713D01*
X162417480Y-86733716D01*
X162529284Y-86845520D01*
X162529287Y-86845521D01*
X162529290Y-86845524D01*
X162666213Y-86924576D01*
X162666215Y-86924576D01*
X162666216Y-86924577D01*
X162786665Y-86956851D01*
X162818939Y-86965499D01*
X162818940Y-86965500D01*
X162818943Y-86965500D01*
X162977060Y-86965500D01*
X162977060Y-86965499D01*
X163129784Y-86924577D01*
X163266716Y-86845520D01*
X163378520Y-86733716D01*
X163457577Y-86596784D01*
X163498499Y-86444060D01*
X163498500Y-86444060D01*
X163498500Y-86435939D01*
X174097500Y-86435939D01*
X174097500Y-86594060D01*
X174138422Y-86746782D01*
X174138423Y-86746786D01*
X174217475Y-86883709D01*
X174217478Y-86883713D01*
X174217480Y-86883716D01*
X174329284Y-86995520D01*
X174329287Y-86995521D01*
X174329290Y-86995524D01*
X174466213Y-87074576D01*
X174466215Y-87074576D01*
X174466216Y-87074577D01*
X174586665Y-87106851D01*
X174618939Y-87115499D01*
X174618940Y-87115500D01*
X174618943Y-87115500D01*
X174777060Y-87115500D01*
X174777060Y-87115499D01*
X174929784Y-87074577D01*
X175066716Y-86995520D01*
X175178520Y-86883716D01*
X175257577Y-86746784D01*
X175298499Y-86594060D01*
X175298500Y-86594060D01*
X175298500Y-86435940D01*
X175298499Y-86435939D01*
X175258407Y-86286314D01*
X175257577Y-86283216D01*
X175257576Y-86283215D01*
X175257576Y-86283213D01*
X175178524Y-86146290D01*
X175178521Y-86146287D01*
X175178520Y-86146284D01*
X175066716Y-86034480D01*
X175066713Y-86034478D01*
X175066709Y-86034475D01*
X174929786Y-85955423D01*
X174929782Y-85955422D01*
X174777060Y-85914500D01*
X174777057Y-85914500D01*
X174618943Y-85914500D01*
X174618940Y-85914500D01*
X174466217Y-85955422D01*
X174466213Y-85955423D01*
X174329290Y-86034475D01*
X174329281Y-86034482D01*
X174217482Y-86146281D01*
X174217475Y-86146290D01*
X174138423Y-86283213D01*
X174138422Y-86283217D01*
X174097500Y-86435939D01*
X163498500Y-86435939D01*
X163498500Y-86386544D01*
X163512852Y-86351896D01*
X170809896Y-79054852D01*
X170844544Y-79040500D01*
X174803968Y-79040500D01*
X174838616Y-79054852D01*
X174879284Y-79095520D01*
X174879287Y-79095521D01*
X174879290Y-79095524D01*
X175016213Y-79174576D01*
X175016215Y-79174576D01*
X175016216Y-79174577D01*
X175136665Y-79206851D01*
X175168939Y-79215499D01*
X175168940Y-79215500D01*
X175168943Y-79215500D01*
X175327060Y-79215500D01*
X175327060Y-79215499D01*
X175479784Y-79174577D01*
X175616716Y-79095520D01*
X175728520Y-78983716D01*
X175807577Y-78846784D01*
X175848499Y-78694060D01*
X175848500Y-78694060D01*
X175848500Y-78535940D01*
X175848499Y-78535939D01*
X175813544Y-78405485D01*
X175807577Y-78383216D01*
X175807576Y-78383215D01*
X175807576Y-78383213D01*
X175728524Y-78246290D01*
X175728521Y-78246287D01*
X175728520Y-78246284D01*
X175616716Y-78134480D01*
X175616713Y-78134478D01*
X175616709Y-78134475D01*
X175479786Y-78055423D01*
X175479782Y-78055422D01*
X175327060Y-78014500D01*
X175327057Y-78014500D01*
X175168943Y-78014500D01*
X175168940Y-78014500D01*
X175016217Y-78055422D01*
X175016213Y-78055423D01*
X174879290Y-78134475D01*
X174879281Y-78134482D01*
X174838616Y-78175148D01*
X174803968Y-78189500D01*
X170591979Y-78189500D01*
X170483764Y-78218496D01*
X170483760Y-78218497D01*
X170386736Y-78274515D01*
X170386735Y-78274516D01*
X167310219Y-81351031D01*
X167275571Y-81365383D01*
X167240923Y-81351031D01*
X167233140Y-81340889D01*
X167178520Y-81246284D01*
X167066716Y-81134480D01*
X167066713Y-81134478D01*
X167066709Y-81134475D01*
X166929786Y-81055423D01*
X166929782Y-81055422D01*
X166777060Y-81014500D01*
X166777057Y-81014500D01*
X166618943Y-81014500D01*
X166618940Y-81014500D01*
X166466217Y-81055422D01*
X166466213Y-81055423D01*
X166329290Y-81134475D01*
X166329281Y-81134482D01*
X166217482Y-81246281D01*
X166217475Y-81246290D01*
X166138423Y-81383213D01*
X166138422Y-81383217D01*
X166097500Y-81535939D01*
X166097500Y-81694060D01*
X166138422Y-81846782D01*
X166138423Y-81846786D01*
X166217475Y-81983709D01*
X166217478Y-81983713D01*
X166217480Y-81983716D01*
X166329284Y-82095520D01*
X166423884Y-82150137D01*
X166446713Y-82179888D01*
X166441819Y-82217071D01*
X166434031Y-82227219D01*
X162911104Y-85750148D01*
X162876456Y-85764500D01*
X162818940Y-85764500D01*
X162666217Y-85805422D01*
X162666213Y-85805423D01*
X162529290Y-85884475D01*
X162529281Y-85884482D01*
X162417482Y-85996281D01*
X162417475Y-85996290D01*
X162338423Y-86133213D01*
X162338422Y-86133217D01*
X162297500Y-86285939D01*
X161520687Y-86285939D01*
X156070687Y-80835939D01*
X160697500Y-80835939D01*
X160697500Y-80994060D01*
X160738422Y-81146782D01*
X160738423Y-81146786D01*
X160817475Y-81283709D01*
X160817478Y-81283713D01*
X160817480Y-81283716D01*
X160929284Y-81395520D01*
X160929287Y-81395521D01*
X160929290Y-81395524D01*
X161066213Y-81474576D01*
X161066215Y-81474576D01*
X161066216Y-81474577D01*
X161186665Y-81506851D01*
X161218939Y-81515499D01*
X161218940Y-81515500D01*
X161218943Y-81515500D01*
X161377060Y-81515500D01*
X161377060Y-81515499D01*
X161529784Y-81474577D01*
X161666716Y-81395520D01*
X161778520Y-81283716D01*
X161857577Y-81146784D01*
X161898499Y-80994060D01*
X161898500Y-80994060D01*
X161898500Y-80835940D01*
X161898499Y-80835939D01*
X161857577Y-80683217D01*
X161857576Y-80683213D01*
X161778524Y-80546290D01*
X161778521Y-80546287D01*
X161778520Y-80546284D01*
X161666716Y-80434480D01*
X161666713Y-80434478D01*
X161666709Y-80434475D01*
X161529786Y-80355423D01*
X161529782Y-80355422D01*
X161377060Y-80314500D01*
X161377057Y-80314500D01*
X161218943Y-80314500D01*
X161218940Y-80314500D01*
X161066217Y-80355422D01*
X161066213Y-80355423D01*
X160929290Y-80434475D01*
X160929281Y-80434482D01*
X160817482Y-80546281D01*
X160817475Y-80546290D01*
X160738423Y-80683213D01*
X160738422Y-80683217D01*
X160697500Y-80835939D01*
X156070687Y-80835939D01*
X153520687Y-78285939D01*
X161647500Y-78285939D01*
X161647500Y-78444060D01*
X161688422Y-78596782D01*
X161688423Y-78596786D01*
X161767475Y-78733709D01*
X161767478Y-78733713D01*
X161767480Y-78733716D01*
X161879284Y-78845520D01*
X161879287Y-78845521D01*
X161879290Y-78845524D01*
X162016213Y-78924576D01*
X162016215Y-78924576D01*
X162016216Y-78924577D01*
X162136665Y-78956851D01*
X162168939Y-78965499D01*
X162168940Y-78965500D01*
X162168943Y-78965500D01*
X162327060Y-78965500D01*
X162327060Y-78965499D01*
X162479784Y-78924577D01*
X162616716Y-78845520D01*
X162728520Y-78733716D01*
X162807577Y-78596784D01*
X162848499Y-78444060D01*
X162848500Y-78444060D01*
X162848500Y-78285940D01*
X162848499Y-78285939D01*
X162822658Y-78189500D01*
X162807577Y-78133216D01*
X162807576Y-78133215D01*
X162807576Y-78133213D01*
X162728524Y-77996290D01*
X162728521Y-77996287D01*
X162728520Y-77996284D01*
X162616716Y-77884480D01*
X162616713Y-77884478D01*
X162616709Y-77884475D01*
X162479786Y-77805423D01*
X162479782Y-77805422D01*
X162327060Y-77764500D01*
X162327057Y-77764500D01*
X162168943Y-77764500D01*
X162168940Y-77764500D01*
X162016217Y-77805422D01*
X162016213Y-77805423D01*
X161879290Y-77884475D01*
X161879281Y-77884482D01*
X161767482Y-77996281D01*
X161767475Y-77996290D01*
X161688423Y-78133213D01*
X161688422Y-78133217D01*
X161647500Y-78285939D01*
X153520687Y-78285939D01*
X152134263Y-76899515D01*
X152037239Y-76843497D01*
X152037235Y-76843496D01*
X151929021Y-76814500D01*
X151929018Y-76814500D01*
X150729071Y-76814500D01*
X150694423Y-76800148D01*
X150680071Y-76765500D01*
X150694423Y-76730852D01*
X150706826Y-76721841D01*
X150724116Y-76713031D01*
X150724115Y-76713031D01*
X150724122Y-76713028D01*
X150872360Y-76605326D01*
X151001926Y-76475760D01*
X151109628Y-76327522D01*
X151192814Y-76164259D01*
X151249436Y-75989994D01*
X151278100Y-75809017D01*
X151278100Y-75320983D01*
X151489900Y-75320983D01*
X151489900Y-75809016D01*
X151518563Y-75989991D01*
X151518564Y-75989994D01*
X151575186Y-76164260D01*
X151658368Y-76327516D01*
X151658371Y-76327520D01*
X151658372Y-76327522D01*
X151766074Y-76475760D01*
X151766076Y-76475762D01*
X151766079Y-76475766D01*
X151895633Y-76605320D01*
X151895636Y-76605322D01*
X151895640Y-76605326D01*
X152043878Y-76713028D01*
X152043880Y-76713029D01*
X152043883Y-76713031D01*
X152203881Y-76794553D01*
X152207141Y-76796214D01*
X152381406Y-76852836D01*
X152562383Y-76881500D01*
X152562384Y-76881500D01*
X152745616Y-76881500D01*
X152745617Y-76881500D01*
X152926594Y-76852836D01*
X153100859Y-76796214D01*
X153264122Y-76713028D01*
X153412360Y-76605326D01*
X153541926Y-76475760D01*
X153649628Y-76327522D01*
X153732814Y-76164259D01*
X153789436Y-75989994D01*
X153818100Y-75809017D01*
X153818100Y-75320983D01*
X155553900Y-75320983D01*
X155553900Y-75809016D01*
X155582563Y-75989991D01*
X155582564Y-75989994D01*
X155639186Y-76164260D01*
X155722368Y-76327516D01*
X155722371Y-76327520D01*
X155722372Y-76327522D01*
X155830074Y-76475760D01*
X155830076Y-76475762D01*
X155830079Y-76475766D01*
X155959633Y-76605320D01*
X155959636Y-76605322D01*
X155959640Y-76605326D01*
X156107878Y-76713028D01*
X156107880Y-76713029D01*
X156107883Y-76713031D01*
X156267881Y-76794553D01*
X156271141Y-76796214D01*
X156445406Y-76852836D01*
X156626383Y-76881500D01*
X156626384Y-76881500D01*
X156809616Y-76881500D01*
X156809617Y-76881500D01*
X156990594Y-76852836D01*
X157164859Y-76796214D01*
X157328122Y-76713028D01*
X157476360Y-76605326D01*
X157605926Y-76475760D01*
X157713628Y-76327522D01*
X157796814Y-76164259D01*
X157853436Y-75989994D01*
X157882100Y-75809017D01*
X157882100Y-75320983D01*
X158093900Y-75320983D01*
X158093900Y-75809016D01*
X158122563Y-75989991D01*
X158122564Y-75989994D01*
X158179186Y-76164260D01*
X158262368Y-76327516D01*
X158262371Y-76327520D01*
X158262372Y-76327522D01*
X158370074Y-76475760D01*
X158370076Y-76475762D01*
X158370079Y-76475766D01*
X158499633Y-76605320D01*
X158499636Y-76605322D01*
X158499640Y-76605326D01*
X158647878Y-76713028D01*
X158647880Y-76713029D01*
X158647883Y-76713031D01*
X158807881Y-76794553D01*
X158811141Y-76796214D01*
X158985406Y-76852836D01*
X159166383Y-76881500D01*
X159166384Y-76881500D01*
X159349616Y-76881500D01*
X159349617Y-76881500D01*
X159530594Y-76852836D01*
X159704859Y-76796214D01*
X159868122Y-76713028D01*
X160016360Y-76605326D01*
X160145926Y-76475760D01*
X160253628Y-76327522D01*
X160336814Y-76164259D01*
X160393436Y-75989994D01*
X160422100Y-75809017D01*
X160422100Y-75320983D01*
X160633900Y-75320983D01*
X160633900Y-75809016D01*
X160662563Y-75989991D01*
X160662564Y-75989994D01*
X160719186Y-76164260D01*
X160802368Y-76327516D01*
X160802371Y-76327520D01*
X160802372Y-76327522D01*
X160910074Y-76475760D01*
X160910076Y-76475762D01*
X160910079Y-76475766D01*
X161039633Y-76605320D01*
X161039636Y-76605322D01*
X161039640Y-76605326D01*
X161187878Y-76713028D01*
X161187880Y-76713029D01*
X161187883Y-76713031D01*
X161347881Y-76794553D01*
X161351141Y-76796214D01*
X161525406Y-76852836D01*
X161706383Y-76881500D01*
X161706384Y-76881500D01*
X161889616Y-76881500D01*
X161889617Y-76881500D01*
X162070594Y-76852836D01*
X162244859Y-76796214D01*
X162408122Y-76713028D01*
X162556360Y-76605326D01*
X162685926Y-76475760D01*
X162793628Y-76327522D01*
X162876814Y-76164259D01*
X162933436Y-75989994D01*
X162962100Y-75809017D01*
X162962100Y-75320983D01*
X163173900Y-75320983D01*
X163173900Y-75809016D01*
X163202563Y-75989991D01*
X163202564Y-75989994D01*
X163259186Y-76164260D01*
X163342368Y-76327516D01*
X163342371Y-76327520D01*
X163342372Y-76327522D01*
X163450074Y-76475760D01*
X163450076Y-76475762D01*
X163450079Y-76475766D01*
X163579633Y-76605320D01*
X163579636Y-76605322D01*
X163579640Y-76605326D01*
X163727878Y-76713028D01*
X163727880Y-76713029D01*
X163727883Y-76713031D01*
X163887881Y-76794553D01*
X163891141Y-76796214D01*
X164065406Y-76852836D01*
X164246383Y-76881500D01*
X164246384Y-76881500D01*
X164429616Y-76881500D01*
X164429617Y-76881500D01*
X164610594Y-76852836D01*
X164784859Y-76796214D01*
X164948122Y-76713028D01*
X165096360Y-76605326D01*
X165225926Y-76475760D01*
X165333628Y-76327522D01*
X165416814Y-76164259D01*
X165473436Y-75989994D01*
X165502100Y-75809017D01*
X165502100Y-75320983D01*
X165713900Y-75320983D01*
X165713900Y-75809016D01*
X165742563Y-75989991D01*
X165742564Y-75989994D01*
X165799186Y-76164260D01*
X165882368Y-76327516D01*
X165882371Y-76327520D01*
X165882372Y-76327522D01*
X165990074Y-76475760D01*
X165990076Y-76475762D01*
X165990079Y-76475766D01*
X166119633Y-76605320D01*
X166119636Y-76605322D01*
X166119640Y-76605326D01*
X166267878Y-76713028D01*
X166267880Y-76713029D01*
X166267883Y-76713031D01*
X166427881Y-76794553D01*
X166431141Y-76796214D01*
X166605406Y-76852836D01*
X166786383Y-76881500D01*
X166786384Y-76881500D01*
X166969616Y-76881500D01*
X166969617Y-76881500D01*
X167150594Y-76852836D01*
X167324859Y-76796214D01*
X167488122Y-76713028D01*
X167636360Y-76605326D01*
X167765926Y-76475760D01*
X167873628Y-76327522D01*
X167956814Y-76164259D01*
X168013436Y-75989994D01*
X168042100Y-75809017D01*
X168042100Y-75320983D01*
X168253900Y-75320983D01*
X168253900Y-75809016D01*
X168282563Y-75989991D01*
X168282564Y-75989994D01*
X168339186Y-76164260D01*
X168422368Y-76327516D01*
X168422371Y-76327520D01*
X168422372Y-76327522D01*
X168530074Y-76475760D01*
X168530076Y-76475762D01*
X168530079Y-76475766D01*
X168659633Y-76605320D01*
X168659636Y-76605322D01*
X168659640Y-76605326D01*
X168807878Y-76713028D01*
X168807880Y-76713029D01*
X168807883Y-76713031D01*
X168967881Y-76794553D01*
X168971141Y-76796214D01*
X169145406Y-76852836D01*
X169326383Y-76881500D01*
X169326384Y-76881500D01*
X169509616Y-76881500D01*
X169509617Y-76881500D01*
X169690594Y-76852836D01*
X169864859Y-76796214D01*
X170028122Y-76713028D01*
X170176360Y-76605326D01*
X170305926Y-76475760D01*
X170413628Y-76327522D01*
X170496814Y-76164259D01*
X170553436Y-75989994D01*
X170582100Y-75809017D01*
X170582100Y-75320983D01*
X170793900Y-75320983D01*
X170793900Y-75809016D01*
X170822563Y-75989991D01*
X170822564Y-75989994D01*
X170879186Y-76164260D01*
X170962368Y-76327516D01*
X170962371Y-76327520D01*
X170962372Y-76327522D01*
X171070074Y-76475760D01*
X171070076Y-76475762D01*
X171070079Y-76475766D01*
X171199633Y-76605320D01*
X171199636Y-76605322D01*
X171199640Y-76605326D01*
X171347878Y-76713028D01*
X171347880Y-76713029D01*
X171347883Y-76713031D01*
X171507881Y-76794553D01*
X171511141Y-76796214D01*
X171685406Y-76852836D01*
X171866383Y-76881500D01*
X171866384Y-76881500D01*
X172049616Y-76881500D01*
X172049617Y-76881500D01*
X172230594Y-76852836D01*
X172404859Y-76796214D01*
X172568122Y-76713028D01*
X172716360Y-76605326D01*
X172845926Y-76475760D01*
X172953628Y-76327522D01*
X173036814Y-76164259D01*
X173093436Y-75989994D01*
X173122100Y-75809017D01*
X173122100Y-75320983D01*
X173333900Y-75320983D01*
X173333900Y-75809016D01*
X173362563Y-75989991D01*
X173362564Y-75989994D01*
X173419186Y-76164260D01*
X173502368Y-76327516D01*
X173502371Y-76327520D01*
X173502372Y-76327522D01*
X173610074Y-76475760D01*
X173610076Y-76475762D01*
X173610079Y-76475766D01*
X173739633Y-76605320D01*
X173739636Y-76605322D01*
X173739640Y-76605326D01*
X173887878Y-76713028D01*
X173887880Y-76713029D01*
X173887883Y-76713031D01*
X174047881Y-76794553D01*
X174051141Y-76796214D01*
X174225406Y-76852836D01*
X174406383Y-76881500D01*
X174406384Y-76881500D01*
X174589616Y-76881500D01*
X174589617Y-76881500D01*
X174770594Y-76852836D01*
X174944859Y-76796214D01*
X175108122Y-76713028D01*
X175256360Y-76605326D01*
X175385926Y-76475760D01*
X175493628Y-76327522D01*
X175576814Y-76164259D01*
X175633436Y-75989994D01*
X175662100Y-75809017D01*
X175662100Y-75320983D01*
X175633436Y-75140006D01*
X175576814Y-74965741D01*
X175576813Y-74965739D01*
X175493631Y-74802483D01*
X175493629Y-74802480D01*
X175493628Y-74802478D01*
X175385926Y-74654240D01*
X175385922Y-74654236D01*
X175385920Y-74654233D01*
X175256366Y-74524679D01*
X175256362Y-74524676D01*
X175256360Y-74524674D01*
X175108122Y-74416972D01*
X175108120Y-74416971D01*
X175108116Y-74416968D01*
X174944860Y-74333786D01*
X174770594Y-74277164D01*
X174770591Y-74277163D01*
X174631569Y-74255144D01*
X174589617Y-74248500D01*
X174406383Y-74248500D01*
X174372325Y-74253894D01*
X174225408Y-74277163D01*
X174225405Y-74277164D01*
X174051139Y-74333786D01*
X173887883Y-74416968D01*
X173739633Y-74524679D01*
X173610079Y-74654233D01*
X173502368Y-74802483D01*
X173419186Y-74965739D01*
X173362564Y-75140005D01*
X173362563Y-75140008D01*
X173333900Y-75320983D01*
X173122100Y-75320983D01*
X173093436Y-75140006D01*
X173036814Y-74965741D01*
X173036813Y-74965739D01*
X172953631Y-74802483D01*
X172953629Y-74802480D01*
X172953628Y-74802478D01*
X172845926Y-74654240D01*
X172845922Y-74654236D01*
X172845920Y-74654233D01*
X172716366Y-74524679D01*
X172716362Y-74524676D01*
X172716360Y-74524674D01*
X172568122Y-74416972D01*
X172568120Y-74416971D01*
X172568116Y-74416968D01*
X172404860Y-74333786D01*
X172230594Y-74277164D01*
X172230591Y-74277163D01*
X172091569Y-74255144D01*
X172049617Y-74248500D01*
X171866383Y-74248500D01*
X171832325Y-74253894D01*
X171685408Y-74277163D01*
X171685405Y-74277164D01*
X171511139Y-74333786D01*
X171347883Y-74416968D01*
X171199633Y-74524679D01*
X171070079Y-74654233D01*
X170962368Y-74802483D01*
X170879186Y-74965739D01*
X170822564Y-75140005D01*
X170822563Y-75140008D01*
X170793900Y-75320983D01*
X170582100Y-75320983D01*
X170553436Y-75140006D01*
X170496814Y-74965741D01*
X170496813Y-74965739D01*
X170413631Y-74802483D01*
X170413629Y-74802480D01*
X170413628Y-74802478D01*
X170305926Y-74654240D01*
X170305922Y-74654236D01*
X170305920Y-74654233D01*
X170176366Y-74524679D01*
X170176362Y-74524676D01*
X170176360Y-74524674D01*
X170028122Y-74416972D01*
X170028120Y-74416971D01*
X170028116Y-74416968D01*
X169864860Y-74333786D01*
X169690594Y-74277164D01*
X169690591Y-74277163D01*
X169551569Y-74255144D01*
X169509617Y-74248500D01*
X169326383Y-74248500D01*
X169292325Y-74253894D01*
X169145408Y-74277163D01*
X169145405Y-74277164D01*
X168971139Y-74333786D01*
X168807883Y-74416968D01*
X168659633Y-74524679D01*
X168530079Y-74654233D01*
X168422368Y-74802483D01*
X168339186Y-74965739D01*
X168282564Y-75140005D01*
X168282563Y-75140008D01*
X168253900Y-75320983D01*
X168042100Y-75320983D01*
X168013436Y-75140006D01*
X167956814Y-74965741D01*
X167956813Y-74965739D01*
X167873631Y-74802483D01*
X167873629Y-74802480D01*
X167873628Y-74802478D01*
X167765926Y-74654240D01*
X167765922Y-74654236D01*
X167765920Y-74654233D01*
X167636366Y-74524679D01*
X167636362Y-74524676D01*
X167636360Y-74524674D01*
X167488122Y-74416972D01*
X167488120Y-74416971D01*
X167488116Y-74416968D01*
X167324860Y-74333786D01*
X167150594Y-74277164D01*
X167150591Y-74277163D01*
X167011569Y-74255144D01*
X166969617Y-74248500D01*
X166786383Y-74248500D01*
X166752325Y-74253894D01*
X166605408Y-74277163D01*
X166605405Y-74277164D01*
X166431139Y-74333786D01*
X166267883Y-74416968D01*
X166119633Y-74524679D01*
X165990079Y-74654233D01*
X165882368Y-74802483D01*
X165799186Y-74965739D01*
X165742564Y-75140005D01*
X165742563Y-75140008D01*
X165713900Y-75320983D01*
X165502100Y-75320983D01*
X165473436Y-75140006D01*
X165416814Y-74965741D01*
X165416813Y-74965739D01*
X165333631Y-74802483D01*
X165333629Y-74802480D01*
X165333628Y-74802478D01*
X165225926Y-74654240D01*
X165225922Y-74654236D01*
X165225920Y-74654233D01*
X165096366Y-74524679D01*
X165096362Y-74524676D01*
X165096360Y-74524674D01*
X164948122Y-74416972D01*
X164948120Y-74416971D01*
X164948116Y-74416968D01*
X164784860Y-74333786D01*
X164610594Y-74277164D01*
X164610591Y-74277163D01*
X164471569Y-74255144D01*
X164429617Y-74248500D01*
X164246383Y-74248500D01*
X164212325Y-74253894D01*
X164065408Y-74277163D01*
X164065405Y-74277164D01*
X163891139Y-74333786D01*
X163727883Y-74416968D01*
X163579633Y-74524679D01*
X163450079Y-74654233D01*
X163342368Y-74802483D01*
X163259186Y-74965739D01*
X163202564Y-75140005D01*
X163202563Y-75140008D01*
X163173900Y-75320983D01*
X162962100Y-75320983D01*
X162933436Y-75140006D01*
X162876814Y-74965741D01*
X162876813Y-74965739D01*
X162793631Y-74802483D01*
X162793629Y-74802480D01*
X162793628Y-74802478D01*
X162685926Y-74654240D01*
X162685922Y-74654236D01*
X162685920Y-74654233D01*
X162556366Y-74524679D01*
X162556362Y-74524676D01*
X162556360Y-74524674D01*
X162408122Y-74416972D01*
X162408120Y-74416971D01*
X162408116Y-74416968D01*
X162244860Y-74333786D01*
X162070594Y-74277164D01*
X162070591Y-74277163D01*
X161931569Y-74255144D01*
X161889617Y-74248500D01*
X161706383Y-74248500D01*
X161672325Y-74253894D01*
X161525408Y-74277163D01*
X161525405Y-74277164D01*
X161351139Y-74333786D01*
X161187883Y-74416968D01*
X161039633Y-74524679D01*
X160910079Y-74654233D01*
X160802368Y-74802483D01*
X160719186Y-74965739D01*
X160662564Y-75140005D01*
X160662563Y-75140008D01*
X160633900Y-75320983D01*
X160422100Y-75320983D01*
X160393436Y-75140006D01*
X160336814Y-74965741D01*
X160336813Y-74965739D01*
X160253631Y-74802483D01*
X160253629Y-74802480D01*
X160253628Y-74802478D01*
X160145926Y-74654240D01*
X160145922Y-74654236D01*
X160145920Y-74654233D01*
X160016366Y-74524679D01*
X160016362Y-74524676D01*
X160016360Y-74524674D01*
X159868122Y-74416972D01*
X159868120Y-74416971D01*
X159868116Y-74416968D01*
X159704860Y-74333786D01*
X159530594Y-74277164D01*
X159530591Y-74277163D01*
X159391569Y-74255144D01*
X159349617Y-74248500D01*
X159166383Y-74248500D01*
X159132325Y-74253894D01*
X158985408Y-74277163D01*
X158985405Y-74277164D01*
X158811139Y-74333786D01*
X158647883Y-74416968D01*
X158499633Y-74524679D01*
X158370079Y-74654233D01*
X158262368Y-74802483D01*
X158179186Y-74965739D01*
X158122564Y-75140005D01*
X158122563Y-75140008D01*
X158093900Y-75320983D01*
X157882100Y-75320983D01*
X157853436Y-75140006D01*
X157796814Y-74965741D01*
X157796813Y-74965739D01*
X157713631Y-74802483D01*
X157713629Y-74802480D01*
X157713628Y-74802478D01*
X157605926Y-74654240D01*
X157605922Y-74654236D01*
X157605920Y-74654233D01*
X157476366Y-74524679D01*
X157476362Y-74524676D01*
X157476360Y-74524674D01*
X157328122Y-74416972D01*
X157328120Y-74416971D01*
X157328116Y-74416968D01*
X157164860Y-74333786D01*
X156990594Y-74277164D01*
X156990591Y-74277163D01*
X156851569Y-74255144D01*
X156809617Y-74248500D01*
X156626383Y-74248500D01*
X156592325Y-74253894D01*
X156445408Y-74277163D01*
X156445405Y-74277164D01*
X156271139Y-74333786D01*
X156107883Y-74416968D01*
X155959633Y-74524679D01*
X155830079Y-74654233D01*
X155722368Y-74802483D01*
X155639186Y-74965739D01*
X155582564Y-75140005D01*
X155582563Y-75140008D01*
X155553900Y-75320983D01*
X153818100Y-75320983D01*
X153789436Y-75140006D01*
X153732814Y-74965741D01*
X153732813Y-74965739D01*
X153649631Y-74802483D01*
X153649629Y-74802480D01*
X153649628Y-74802478D01*
X153541926Y-74654240D01*
X153541922Y-74654236D01*
X153541920Y-74654233D01*
X153412366Y-74524679D01*
X153412362Y-74524676D01*
X153412360Y-74524674D01*
X153264122Y-74416972D01*
X153264120Y-74416971D01*
X153264116Y-74416968D01*
X153100860Y-74333786D01*
X152926594Y-74277164D01*
X152926591Y-74277163D01*
X152787569Y-74255144D01*
X152745617Y-74248500D01*
X152562383Y-74248500D01*
X152528325Y-74253894D01*
X152381408Y-74277163D01*
X152381405Y-74277164D01*
X152207139Y-74333786D01*
X152043883Y-74416968D01*
X151895633Y-74524679D01*
X151766079Y-74654233D01*
X151658368Y-74802483D01*
X151575186Y-74965739D01*
X151518564Y-75140005D01*
X151518563Y-75140008D01*
X151489900Y-75320983D01*
X151278100Y-75320983D01*
X151249436Y-75140006D01*
X151192814Y-74965741D01*
X151192813Y-74965739D01*
X151109631Y-74802483D01*
X151109629Y-74802480D01*
X151109628Y-74802478D01*
X151001926Y-74654240D01*
X151001922Y-74654236D01*
X151001920Y-74654233D01*
X150872366Y-74524679D01*
X150872362Y-74524676D01*
X150872360Y-74524674D01*
X150724122Y-74416972D01*
X150724120Y-74416971D01*
X150724116Y-74416968D01*
X150560860Y-74333786D01*
X150386594Y-74277164D01*
X150386591Y-74277163D01*
X150247569Y-74255144D01*
X150205617Y-74248500D01*
X150022383Y-74248500D01*
X149988325Y-74253894D01*
X149841408Y-74277163D01*
X149841405Y-74277164D01*
X149667139Y-74333786D01*
X149503883Y-74416968D01*
X149355633Y-74524679D01*
X149226079Y-74654233D01*
X149118368Y-74802483D01*
X149035186Y-74965739D01*
X148978564Y-75140005D01*
X148978563Y-75140008D01*
X148949900Y-75320983D01*
X148949900Y-75809016D01*
X148978563Y-75989991D01*
X148978564Y-75989994D01*
X149035186Y-76164260D01*
X149118368Y-76327516D01*
X149118371Y-76327520D01*
X149118372Y-76327522D01*
X149226074Y-76475760D01*
X149226076Y-76475762D01*
X149226079Y-76475766D01*
X149355633Y-76605320D01*
X149355636Y-76605322D01*
X149355640Y-76605326D01*
X149503878Y-76713028D01*
X149503880Y-76713029D01*
X149503883Y-76713031D01*
X149521174Y-76721841D01*
X149545531Y-76750358D01*
X149542588Y-76787745D01*
X149514071Y-76812102D01*
X149498929Y-76814500D01*
X148189071Y-76814500D01*
X148154423Y-76800148D01*
X148140071Y-76765500D01*
X148154423Y-76730852D01*
X148166826Y-76721841D01*
X148184116Y-76713031D01*
X148184115Y-76713031D01*
X148184122Y-76713028D01*
X148332360Y-76605326D01*
X148461926Y-76475760D01*
X148569628Y-76327522D01*
X148652814Y-76164259D01*
X148709436Y-75989994D01*
X148738100Y-75809017D01*
X148738100Y-75320983D01*
X148709436Y-75140006D01*
X148652814Y-74965741D01*
X148652813Y-74965739D01*
X148569631Y-74802483D01*
X148569629Y-74802480D01*
X148569628Y-74802478D01*
X148461926Y-74654240D01*
X148461922Y-74654236D01*
X148461920Y-74654233D01*
X148332366Y-74524679D01*
X148332362Y-74524676D01*
X148332360Y-74524674D01*
X148184122Y-74416972D01*
X148184120Y-74416971D01*
X148184116Y-74416968D01*
X148020860Y-74333786D01*
X147846594Y-74277164D01*
X147846591Y-74277163D01*
X147707569Y-74255144D01*
X147665617Y-74248500D01*
X147482383Y-74248500D01*
X147448325Y-74253894D01*
X147301408Y-74277163D01*
X147301405Y-74277164D01*
X147127139Y-74333786D01*
X146963883Y-74416968D01*
X146815636Y-74524677D01*
X146806144Y-74534169D01*
X146771495Y-74548519D01*
X146736847Y-74534166D01*
X146729062Y-74524019D01*
X146688484Y-74453736D01*
X145843896Y-73609148D01*
X145829544Y-73574500D01*
X145843896Y-73539852D01*
X145878544Y-73525500D01*
X175286390Y-73525500D01*
X175321038Y-73539852D01*
X176523148Y-74741962D01*
X176537500Y-74776610D01*
X176537500Y-86044895D01*
X176571607Y-86172184D01*
X176571608Y-86172188D01*
X176637500Y-86286314D01*
X179063148Y-88711962D01*
X179077500Y-88746610D01*
X179077500Y-89489647D01*
X179063148Y-89524295D01*
X179028500Y-89538647D01*
X178993852Y-89524295D01*
X178986066Y-89514149D01*
X178981565Y-89506354D01*
X178981555Y-89506339D01*
X178795433Y-89263781D01*
X178795423Y-89263769D01*
X178579230Y-89047576D01*
X178579218Y-89047566D01*
X178336660Y-88861444D01*
X178336645Y-88861434D01*
X178071852Y-88708555D01*
X178071853Y-88708555D01*
X177789367Y-88591546D01*
X177789361Y-88591544D01*
X177494036Y-88512412D01*
X177494029Y-88512411D01*
X177494025Y-88512410D01*
X177190880Y-88472500D01*
X176885120Y-88472500D01*
X176581975Y-88512410D01*
X176581971Y-88512410D01*
X176581963Y-88512412D01*
X176286638Y-88591544D01*
X176286632Y-88591546D01*
X176004146Y-88708555D01*
X175739354Y-88861434D01*
X175739339Y-88861444D01*
X175496781Y-89047566D01*
X175496769Y-89047576D01*
X175280576Y-89263769D01*
X175280566Y-89263781D01*
X175094444Y-89506339D01*
X175094434Y-89506354D01*
X174941555Y-89771146D01*
X174824546Y-90053632D01*
X174824544Y-90053638D01*
X174745412Y-90348963D01*
X174745410Y-90348971D01*
X174745410Y-90348975D01*
X174707989Y-90633216D01*
X174705500Y-90652123D01*
X174705500Y-90957876D01*
X174705499Y-90957876D01*
X174705500Y-90957880D01*
X174745410Y-91261025D01*
X174745411Y-91261029D01*
X174745412Y-91261036D01*
X174824544Y-91556361D01*
X174824546Y-91556367D01*
X174941555Y-91838853D01*
X175094434Y-92103645D01*
X175094444Y-92103660D01*
X175280566Y-92346218D01*
X175280576Y-92346230D01*
X175496769Y-92562423D01*
X175496781Y-92562433D01*
X175739339Y-92748555D01*
X175739348Y-92748561D01*
X175739352Y-92748564D01*
X176004148Y-92901445D01*
X176286634Y-93018454D01*
X176286638Y-93018455D01*
X176581963Y-93097587D01*
X176581964Y-93097587D01*
X176581975Y-93097590D01*
X176885120Y-93137500D01*
X176885123Y-93137500D01*
X177190876Y-93137500D01*
X177190880Y-93137500D01*
X177494025Y-93097590D01*
X177789366Y-93018454D01*
X178071852Y-92901445D01*
X178336648Y-92748564D01*
X178579224Y-92562429D01*
X178795429Y-92346224D01*
X178956783Y-92135943D01*
X178981555Y-92103660D01*
X178981556Y-92103657D01*
X178981564Y-92103648D01*
X178986064Y-92095852D01*
X179015816Y-92073021D01*
X179052998Y-92077915D01*
X179075830Y-92107667D01*
X179077500Y-92120351D01*
X179077500Y-117429647D01*
X179063148Y-117464295D01*
X179028500Y-117478647D01*
X178993852Y-117464295D01*
X178986066Y-117454149D01*
X178981565Y-117446354D01*
X178981555Y-117446339D01*
X178795433Y-117203781D01*
X178795423Y-117203769D01*
X178579230Y-116987576D01*
X178579218Y-116987566D01*
X178336660Y-116801444D01*
X178336645Y-116801434D01*
X178071852Y-116648555D01*
X178071853Y-116648555D01*
X177789367Y-116531546D01*
X177789361Y-116531544D01*
X177494036Y-116452412D01*
X177494029Y-116452411D01*
X177494025Y-116452410D01*
X177190880Y-116412500D01*
X176885120Y-116412500D01*
X176581975Y-116452410D01*
X176581971Y-116452410D01*
X176581963Y-116452412D01*
X176286638Y-116531544D01*
X176286632Y-116531546D01*
X176004146Y-116648555D01*
X175739354Y-116801434D01*
X175739339Y-116801444D01*
X175496781Y-116987566D01*
X175496769Y-116987576D01*
X175280576Y-117203769D01*
X175280566Y-117203781D01*
X175094444Y-117446339D01*
X175094434Y-117446354D01*
X174941555Y-117711146D01*
X174824546Y-117993632D01*
X174824544Y-117993638D01*
X174745412Y-118288963D01*
X174745410Y-118288971D01*
X174745410Y-118288975D01*
X174712199Y-118541237D01*
X174705500Y-118592123D01*
X174705500Y-118897876D01*
X174705499Y-118897876D01*
X174723535Y-119034868D01*
X174745410Y-119201025D01*
X174745411Y-119201029D01*
X174745412Y-119201036D01*
X174824544Y-119496361D01*
X174824546Y-119496367D01*
X174941555Y-119778853D01*
X175094434Y-120043645D01*
X175094444Y-120043660D01*
X175280566Y-120286218D01*
X175280576Y-120286230D01*
X175496769Y-120502423D01*
X175496781Y-120502433D01*
X175739339Y-120688555D01*
X175739348Y-120688561D01*
X175739352Y-120688564D01*
X176004148Y-120841445D01*
X176286634Y-120958454D01*
X176286638Y-120958455D01*
X176581963Y-121037587D01*
X176581964Y-121037587D01*
X176581975Y-121037590D01*
X176885120Y-121077500D01*
X176885123Y-121077500D01*
X177190876Y-121077500D01*
X177190880Y-121077500D01*
X177494025Y-121037590D01*
X177789366Y-120958454D01*
X178071852Y-120841445D01*
X178336648Y-120688564D01*
X178579224Y-120502429D01*
X178795429Y-120286224D01*
X178981564Y-120043648D01*
X178986064Y-120035852D01*
X179015816Y-120013021D01*
X179052998Y-120017915D01*
X179075830Y-120047667D01*
X179077500Y-120060351D01*
X179077500Y-121057390D01*
X179063148Y-121092038D01*
X176637501Y-123517685D01*
X176637500Y-123517685D01*
X176571608Y-123631811D01*
X176571607Y-123631815D01*
X176537500Y-123759104D01*
X176537500Y-125815500D01*
X176523148Y-125850148D01*
X176488500Y-125864500D01*
X173178544Y-125864500D01*
X173143896Y-125850148D01*
X173129544Y-125815500D01*
X173143896Y-125780852D01*
X173185375Y-125739372D01*
X173904998Y-125019748D01*
X173939645Y-125005397D01*
X173961885Y-125010736D01*
X174051141Y-125056214D01*
X174225406Y-125112836D01*
X174406383Y-125141500D01*
X174406384Y-125141500D01*
X174589616Y-125141500D01*
X174589617Y-125141500D01*
X174770594Y-125112836D01*
X174944859Y-125056214D01*
X175108122Y-124973028D01*
X175256360Y-124865326D01*
X175385926Y-124735760D01*
X175493628Y-124587522D01*
X175576814Y-124424259D01*
X175633436Y-124249994D01*
X175662100Y-124069017D01*
X175662100Y-123580983D01*
X175633436Y-123400006D01*
X175576814Y-123225741D01*
X175576813Y-123225739D01*
X175493631Y-123062483D01*
X175493629Y-123062480D01*
X175493628Y-123062478D01*
X175385926Y-122914240D01*
X175385922Y-122914236D01*
X175385920Y-122914233D01*
X175256366Y-122784679D01*
X175256362Y-122784676D01*
X175256360Y-122784674D01*
X175108122Y-122676972D01*
X175108120Y-122676971D01*
X175108116Y-122676968D01*
X174944860Y-122593786D01*
X174770594Y-122537164D01*
X174770591Y-122537163D01*
X174631569Y-122515144D01*
X174589617Y-122508500D01*
X174406383Y-122508500D01*
X174372325Y-122513894D01*
X174225408Y-122537163D01*
X174225405Y-122537164D01*
X174051139Y-122593786D01*
X173887883Y-122676968D01*
X173739633Y-122784679D01*
X173610079Y-122914233D01*
X173502368Y-123062483D01*
X173419186Y-123225739D01*
X173362564Y-123400005D01*
X173362563Y-123400008D01*
X173338153Y-123554131D01*
X173333900Y-123580983D01*
X173333900Y-124069017D01*
X173334781Y-124074577D01*
X173362563Y-124249991D01*
X173362565Y-124249998D01*
X173379940Y-124303475D01*
X173376997Y-124340862D01*
X173367986Y-124353264D01*
X172671104Y-125050148D01*
X172636456Y-125064500D01*
X172592594Y-125064500D01*
X172557946Y-125050148D01*
X172543594Y-125015500D01*
X172557946Y-124980852D01*
X172566988Y-124973723D01*
X172568107Y-124973035D01*
X172568122Y-124973028D01*
X172716360Y-124865326D01*
X172845926Y-124735760D01*
X172953628Y-124587522D01*
X173036814Y-124424259D01*
X173093436Y-124249994D01*
X173122100Y-124069017D01*
X173122100Y-123580983D01*
X173093436Y-123400006D01*
X173036814Y-123225741D01*
X173036813Y-123225739D01*
X172953631Y-123062483D01*
X172953629Y-123062480D01*
X172953628Y-123062478D01*
X172845926Y-122914240D01*
X172845922Y-122914236D01*
X172845920Y-122914233D01*
X172716366Y-122784679D01*
X172716362Y-122784676D01*
X172716360Y-122784674D01*
X172568122Y-122676972D01*
X172568120Y-122676971D01*
X172568116Y-122676968D01*
X172404860Y-122593786D01*
X172230594Y-122537164D01*
X172230591Y-122537163D01*
X172091569Y-122515144D01*
X172049617Y-122508500D01*
X171866383Y-122508500D01*
X171832325Y-122513894D01*
X171685408Y-122537163D01*
X171685405Y-122537164D01*
X171511139Y-122593786D01*
X171347883Y-122676968D01*
X171199633Y-122784679D01*
X171070079Y-122914233D01*
X170962368Y-123062483D01*
X170879186Y-123225739D01*
X170822564Y-123400005D01*
X170822563Y-123400008D01*
X170798153Y-123554131D01*
X170793900Y-123580983D01*
X170793900Y-124069017D01*
X170794781Y-124074577D01*
X170822563Y-124249991D01*
X170822564Y-124249994D01*
X170879186Y-124424260D01*
X170962368Y-124587516D01*
X170962371Y-124587520D01*
X170962372Y-124587522D01*
X171070074Y-124735760D01*
X171070076Y-124735762D01*
X171070079Y-124735766D01*
X171199633Y-124865320D01*
X171199636Y-124865322D01*
X171199640Y-124865326D01*
X171347878Y-124973028D01*
X171347886Y-124973032D01*
X171349012Y-124973723D01*
X171349208Y-124973993D01*
X171349436Y-124974159D01*
X171349382Y-124974232D01*
X171371053Y-125004065D01*
X171365183Y-125041106D01*
X171334841Y-125063147D01*
X171323406Y-125064500D01*
X170052594Y-125064500D01*
X170017946Y-125050148D01*
X170003594Y-125015500D01*
X170017946Y-124980852D01*
X170026988Y-124973723D01*
X170028107Y-124973035D01*
X170028122Y-124973028D01*
X170176360Y-124865326D01*
X170305926Y-124735760D01*
X170413628Y-124587522D01*
X170496814Y-124424259D01*
X170553436Y-124249994D01*
X170582100Y-124069017D01*
X170582100Y-123580983D01*
X170553436Y-123400006D01*
X170496814Y-123225741D01*
X170496813Y-123225739D01*
X170413631Y-123062483D01*
X170413629Y-123062480D01*
X170413628Y-123062478D01*
X170305926Y-122914240D01*
X170305922Y-122914236D01*
X170305920Y-122914233D01*
X170176366Y-122784679D01*
X170176362Y-122784676D01*
X170176360Y-122784674D01*
X170028122Y-122676972D01*
X170028120Y-122676971D01*
X170028116Y-122676968D01*
X169864860Y-122593786D01*
X169690594Y-122537164D01*
X169690591Y-122537163D01*
X169551569Y-122515144D01*
X169509617Y-122508500D01*
X169326383Y-122508500D01*
X169292325Y-122513894D01*
X169145408Y-122537163D01*
X169145405Y-122537164D01*
X168971139Y-122593786D01*
X168807883Y-122676968D01*
X168659633Y-122784679D01*
X168530079Y-122914233D01*
X168422368Y-123062483D01*
X168339186Y-123225739D01*
X168282564Y-123400005D01*
X168282563Y-123400008D01*
X168258153Y-123554131D01*
X168253900Y-123580983D01*
X168253900Y-124069017D01*
X168254781Y-124074577D01*
X168282563Y-124249991D01*
X168282564Y-124249994D01*
X168339186Y-124424260D01*
X168422368Y-124587516D01*
X168422371Y-124587520D01*
X168422372Y-124587522D01*
X168530074Y-124735760D01*
X168530076Y-124735762D01*
X168530079Y-124735766D01*
X168659633Y-124865320D01*
X168659636Y-124865322D01*
X168659640Y-124865326D01*
X168807878Y-124973028D01*
X168807886Y-124973032D01*
X168809012Y-124973723D01*
X168809208Y-124973993D01*
X168809436Y-124974159D01*
X168809382Y-124974232D01*
X168831053Y-125004065D01*
X168825183Y-125041106D01*
X168794841Y-125063147D01*
X168783406Y-125064500D01*
X167512594Y-125064500D01*
X167477946Y-125050148D01*
X167463594Y-125015500D01*
X167477946Y-124980852D01*
X167486988Y-124973723D01*
X167488107Y-124973035D01*
X167488122Y-124973028D01*
X167636360Y-124865326D01*
X167765926Y-124735760D01*
X167873628Y-124587522D01*
X167956814Y-124424259D01*
X168013436Y-124249994D01*
X168042100Y-124069017D01*
X168042100Y-123580983D01*
X168013436Y-123400006D01*
X167956814Y-123225741D01*
X167956813Y-123225739D01*
X167873631Y-123062483D01*
X167873629Y-123062480D01*
X167873628Y-123062478D01*
X167765926Y-122914240D01*
X167765922Y-122914236D01*
X167765920Y-122914233D01*
X167636366Y-122784679D01*
X167636362Y-122784676D01*
X167636360Y-122784674D01*
X167488122Y-122676972D01*
X167488120Y-122676971D01*
X167488116Y-122676968D01*
X167324860Y-122593786D01*
X167150594Y-122537164D01*
X167150591Y-122537163D01*
X167011569Y-122515144D01*
X166969617Y-122508500D01*
X166786383Y-122508500D01*
X166752325Y-122513894D01*
X166605408Y-122537163D01*
X166605405Y-122537164D01*
X166431139Y-122593786D01*
X166267883Y-122676968D01*
X166119633Y-122784679D01*
X165990079Y-122914233D01*
X165882368Y-123062483D01*
X165799186Y-123225739D01*
X165742564Y-123400005D01*
X165742563Y-123400008D01*
X165718153Y-123554131D01*
X165713900Y-123580983D01*
X165713900Y-124069017D01*
X165714781Y-124074577D01*
X165742563Y-124249991D01*
X165742564Y-124249994D01*
X165799186Y-124424260D01*
X165882368Y-124587516D01*
X165882371Y-124587520D01*
X165882372Y-124587522D01*
X165990074Y-124735760D01*
X165990076Y-124735762D01*
X165990079Y-124735766D01*
X166119633Y-124865320D01*
X166119636Y-124865322D01*
X166119640Y-124865326D01*
X166267878Y-124973028D01*
X166267886Y-124973032D01*
X166269012Y-124973723D01*
X166269208Y-124973993D01*
X166269436Y-124974159D01*
X166269382Y-124974232D01*
X166291053Y-125004065D01*
X166285183Y-125041106D01*
X166254841Y-125063147D01*
X166243406Y-125064500D01*
X164972594Y-125064500D01*
X164937946Y-125050148D01*
X164923594Y-125015500D01*
X164937946Y-124980852D01*
X164946988Y-124973723D01*
X164948107Y-124973035D01*
X164948122Y-124973028D01*
X165096360Y-124865326D01*
X165225926Y-124735760D01*
X165333628Y-124587522D01*
X165416814Y-124424259D01*
X165473436Y-124249994D01*
X165502100Y-124069017D01*
X165502100Y-123580983D01*
X165473436Y-123400006D01*
X165416814Y-123225741D01*
X165416813Y-123225739D01*
X165333631Y-123062483D01*
X165333629Y-123062480D01*
X165333628Y-123062478D01*
X165225926Y-122914240D01*
X165225922Y-122914236D01*
X165225920Y-122914233D01*
X165096366Y-122784679D01*
X165096362Y-122784676D01*
X165096360Y-122784674D01*
X164948122Y-122676972D01*
X164948120Y-122676971D01*
X164948116Y-122676968D01*
X164784860Y-122593786D01*
X164610594Y-122537164D01*
X164610591Y-122537163D01*
X164471569Y-122515144D01*
X164429617Y-122508500D01*
X164246383Y-122508500D01*
X164212325Y-122513894D01*
X164065408Y-122537163D01*
X164065405Y-122537164D01*
X163891139Y-122593786D01*
X163727883Y-122676968D01*
X163579633Y-122784679D01*
X163450079Y-122914233D01*
X163342368Y-123062483D01*
X163259186Y-123225739D01*
X163202564Y-123400005D01*
X163202563Y-123400008D01*
X163178153Y-123554131D01*
X163173900Y-123580983D01*
X163173900Y-124069017D01*
X163174781Y-124074577D01*
X163202563Y-124249991D01*
X163202564Y-124249994D01*
X163259186Y-124424260D01*
X163342368Y-124587516D01*
X163342371Y-124587520D01*
X163342372Y-124587522D01*
X163450074Y-124735760D01*
X163450076Y-124735762D01*
X163450079Y-124735766D01*
X163579633Y-124865320D01*
X163579636Y-124865322D01*
X163579640Y-124865326D01*
X163727878Y-124973028D01*
X163727886Y-124973032D01*
X163729012Y-124973723D01*
X163729208Y-124973993D01*
X163729436Y-124974159D01*
X163729382Y-124974232D01*
X163751053Y-125004065D01*
X163745183Y-125041106D01*
X163714841Y-125063147D01*
X163703406Y-125064500D01*
X162432594Y-125064500D01*
X162397946Y-125050148D01*
X162383594Y-125015500D01*
X162397946Y-124980852D01*
X162406988Y-124973723D01*
X162408107Y-124973035D01*
X162408122Y-124973028D01*
X162556360Y-124865326D01*
X162685926Y-124735760D01*
X162793628Y-124587522D01*
X162876814Y-124424259D01*
X162933436Y-124249994D01*
X162962100Y-124069017D01*
X162962100Y-123580983D01*
X162933436Y-123400006D01*
X162876814Y-123225741D01*
X162876813Y-123225739D01*
X162793631Y-123062483D01*
X162793629Y-123062480D01*
X162793628Y-123062478D01*
X162685926Y-122914240D01*
X162685922Y-122914236D01*
X162685920Y-122914233D01*
X162556366Y-122784679D01*
X162556362Y-122784676D01*
X162556360Y-122784674D01*
X162408122Y-122676972D01*
X162408120Y-122676971D01*
X162408116Y-122676968D01*
X162244860Y-122593786D01*
X162070594Y-122537164D01*
X162070591Y-122537163D01*
X161931569Y-122515144D01*
X161889617Y-122508500D01*
X161706383Y-122508500D01*
X161672325Y-122513894D01*
X161525408Y-122537163D01*
X161525405Y-122537164D01*
X161351139Y-122593786D01*
X161187883Y-122676968D01*
X161039633Y-122784679D01*
X160910079Y-122914233D01*
X160802368Y-123062483D01*
X160719186Y-123225739D01*
X160662564Y-123400005D01*
X160662563Y-123400008D01*
X160638153Y-123554131D01*
X160633900Y-123580983D01*
X160633900Y-124069017D01*
X160634781Y-124074577D01*
X160662563Y-124249991D01*
X160662564Y-124249994D01*
X160719186Y-124424260D01*
X160802368Y-124587516D01*
X160802371Y-124587520D01*
X160802372Y-124587522D01*
X160910074Y-124735760D01*
X160910076Y-124735762D01*
X160910079Y-124735766D01*
X161039633Y-124865320D01*
X161039636Y-124865322D01*
X161039640Y-124865326D01*
X161187878Y-124973028D01*
X161187886Y-124973032D01*
X161189012Y-124973723D01*
X161189208Y-124973993D01*
X161189436Y-124974159D01*
X161189382Y-124974232D01*
X161211053Y-125004065D01*
X161205183Y-125041106D01*
X161174841Y-125063147D01*
X161163406Y-125064500D01*
X157352594Y-125064500D01*
X157317946Y-125050148D01*
X157303594Y-125015500D01*
X157317946Y-124980852D01*
X157326988Y-124973723D01*
X157328107Y-124973035D01*
X157328122Y-124973028D01*
X157476360Y-124865326D01*
X157605926Y-124735760D01*
X157713628Y-124587522D01*
X157796814Y-124424259D01*
X157853436Y-124249994D01*
X157882100Y-124069017D01*
X157882100Y-123580983D01*
X157853436Y-123400006D01*
X157796814Y-123225741D01*
X157796813Y-123225739D01*
X157713631Y-123062483D01*
X157713629Y-123062480D01*
X157713628Y-123062478D01*
X157605926Y-122914240D01*
X157605922Y-122914236D01*
X157605920Y-122914233D01*
X157476366Y-122784679D01*
X157476362Y-122784676D01*
X157476360Y-122784674D01*
X157328122Y-122676972D01*
X157328120Y-122676971D01*
X157328116Y-122676968D01*
X157164860Y-122593786D01*
X156990594Y-122537164D01*
X156990591Y-122537163D01*
X156851569Y-122515144D01*
X156809617Y-122508500D01*
X156626383Y-122508500D01*
X156592325Y-122513894D01*
X156445408Y-122537163D01*
X156445405Y-122537164D01*
X156271139Y-122593786D01*
X156107883Y-122676968D01*
X155959633Y-122784679D01*
X155830079Y-122914233D01*
X155722368Y-123062483D01*
X155639186Y-123225739D01*
X155582564Y-123400005D01*
X155582563Y-123400008D01*
X155558153Y-123554131D01*
X155553900Y-123580983D01*
X155553900Y-124069017D01*
X155554781Y-124074577D01*
X155582563Y-124249991D01*
X155582564Y-124249994D01*
X155639186Y-124424260D01*
X155722368Y-124587516D01*
X155722371Y-124587520D01*
X155722372Y-124587522D01*
X155830074Y-124735760D01*
X155830076Y-124735762D01*
X155830079Y-124735766D01*
X155959633Y-124865320D01*
X155959636Y-124865322D01*
X155959640Y-124865326D01*
X156107878Y-124973028D01*
X156107886Y-124973032D01*
X156109012Y-124973723D01*
X156109208Y-124973993D01*
X156109436Y-124974159D01*
X156109382Y-124974232D01*
X156131053Y-125004065D01*
X156125183Y-125041106D01*
X156094841Y-125063147D01*
X156083406Y-125064500D01*
X154579168Y-125064500D01*
X154544520Y-125050148D01*
X154530168Y-125015500D01*
X154544520Y-124980852D01*
X154560416Y-124970230D01*
X154681801Y-124919950D01*
X154856004Y-124803552D01*
X155004152Y-124655404D01*
X155120551Y-124481199D01*
X155200723Y-124287648D01*
X155200728Y-124287629D01*
X155241599Y-124082160D01*
X155241600Y-124082155D01*
X155241600Y-123925000D01*
X154677126Y-123925000D01*
X154686000Y-123891880D01*
X154686000Y-123758120D01*
X154677126Y-123725000D01*
X155241600Y-123725000D01*
X155241600Y-123567845D01*
X155241599Y-123567839D01*
X155200728Y-123362370D01*
X155200723Y-123362351D01*
X155120551Y-123168800D01*
X155004152Y-122994595D01*
X154856004Y-122846447D01*
X154681799Y-122730048D01*
X154488248Y-122649876D01*
X154488229Y-122649871D01*
X154282760Y-122609000D01*
X154278000Y-122609000D01*
X154278000Y-123325874D01*
X154244880Y-123317000D01*
X154111120Y-123317000D01*
X154078000Y-123325874D01*
X154078000Y-122609000D01*
X154073239Y-122609000D01*
X153867770Y-122649871D01*
X153867751Y-122649876D01*
X153674200Y-122730048D01*
X153499995Y-122846447D01*
X153351847Y-122994595D01*
X153235448Y-123168800D01*
X153155276Y-123362351D01*
X153155271Y-123362370D01*
X153114400Y-123567839D01*
X153114400Y-123725000D01*
X153678874Y-123725000D01*
X153670000Y-123758120D01*
X153670000Y-123891880D01*
X153678874Y-123925000D01*
X153114400Y-123925000D01*
X153114400Y-124082160D01*
X153155271Y-124287629D01*
X153155276Y-124287648D01*
X153235448Y-124481199D01*
X153351847Y-124655404D01*
X153499995Y-124803552D01*
X153674198Y-124919950D01*
X153795584Y-124970230D01*
X153822102Y-124996749D01*
X153822102Y-125034252D01*
X153795583Y-125060770D01*
X153776832Y-125064500D01*
X152039168Y-125064500D01*
X152004520Y-125050148D01*
X151990168Y-125015500D01*
X152004520Y-124980852D01*
X152020416Y-124970230D01*
X152141801Y-124919950D01*
X152316004Y-124803552D01*
X152464152Y-124655404D01*
X152580551Y-124481199D01*
X152660723Y-124287648D01*
X152660728Y-124287629D01*
X152701599Y-124082160D01*
X152701600Y-124082155D01*
X152701600Y-123925000D01*
X152137126Y-123925000D01*
X152146000Y-123891880D01*
X152146000Y-123758120D01*
X152137126Y-123725000D01*
X152701600Y-123725000D01*
X152701600Y-123567845D01*
X152701599Y-123567839D01*
X152660728Y-123362370D01*
X152660723Y-123362351D01*
X152580551Y-123168800D01*
X152464152Y-122994595D01*
X152316004Y-122846447D01*
X152141799Y-122730048D01*
X151948248Y-122649876D01*
X151948229Y-122649871D01*
X151742760Y-122609000D01*
X151738000Y-122609000D01*
X151738000Y-123325874D01*
X151704880Y-123317000D01*
X151571120Y-123317000D01*
X151538000Y-123325874D01*
X151538000Y-122609000D01*
X151533239Y-122609000D01*
X151327770Y-122649871D01*
X151327751Y-122649876D01*
X151134200Y-122730048D01*
X150959995Y-122846447D01*
X150811847Y-122994595D01*
X150695448Y-123168800D01*
X150615276Y-123362351D01*
X150615271Y-123362370D01*
X150574400Y-123567839D01*
X150574400Y-123725000D01*
X151138874Y-123725000D01*
X151130000Y-123758120D01*
X151130000Y-123891880D01*
X151138874Y-123925000D01*
X150574400Y-123925000D01*
X150574400Y-124082160D01*
X150615271Y-124287629D01*
X150615276Y-124287648D01*
X150695448Y-124481199D01*
X150811847Y-124655404D01*
X150959995Y-124803552D01*
X151134198Y-124919950D01*
X151255584Y-124970230D01*
X151282102Y-124996749D01*
X151282102Y-125034252D01*
X151255583Y-125060770D01*
X151236832Y-125064500D01*
X149732594Y-125064500D01*
X149697946Y-125050148D01*
X149683594Y-125015500D01*
X149697946Y-124980852D01*
X149706988Y-124973723D01*
X149708107Y-124973035D01*
X149708122Y-124973028D01*
X149856360Y-124865326D01*
X149985926Y-124735760D01*
X150093628Y-124587522D01*
X150176814Y-124424259D01*
X150233436Y-124249994D01*
X150262100Y-124069017D01*
X150262100Y-123580983D01*
X150233436Y-123400006D01*
X150176814Y-123225741D01*
X150176813Y-123225739D01*
X150093631Y-123062483D01*
X150093629Y-123062480D01*
X150093628Y-123062478D01*
X149985926Y-122914240D01*
X149985922Y-122914236D01*
X149985920Y-122914233D01*
X149856366Y-122784679D01*
X149856362Y-122784676D01*
X149856360Y-122784674D01*
X149708122Y-122676972D01*
X149708120Y-122676971D01*
X149708116Y-122676968D01*
X149544860Y-122593786D01*
X149370594Y-122537164D01*
X149370591Y-122537163D01*
X149231569Y-122515144D01*
X149189617Y-122508500D01*
X149006383Y-122508500D01*
X148972325Y-122513894D01*
X148825408Y-122537163D01*
X148825405Y-122537164D01*
X148651139Y-122593786D01*
X148487883Y-122676968D01*
X148339633Y-122784679D01*
X148210079Y-122914233D01*
X148102368Y-123062483D01*
X148019186Y-123225739D01*
X147962564Y-123400005D01*
X147962563Y-123400008D01*
X147938153Y-123554131D01*
X147933900Y-123580983D01*
X147933900Y-124069017D01*
X147934781Y-124074577D01*
X147962563Y-124249991D01*
X147962564Y-124249994D01*
X148019186Y-124424260D01*
X148102368Y-124587516D01*
X148102371Y-124587520D01*
X148102372Y-124587522D01*
X148210074Y-124735760D01*
X148210076Y-124735762D01*
X148210079Y-124735766D01*
X148339633Y-124865320D01*
X148339636Y-124865322D01*
X148339640Y-124865326D01*
X148487878Y-124973028D01*
X148487886Y-124973032D01*
X148489012Y-124973723D01*
X148489208Y-124973993D01*
X148489436Y-124974159D01*
X148489382Y-124974232D01*
X148511053Y-125004065D01*
X148505183Y-125041106D01*
X148474841Y-125063147D01*
X148463406Y-125064500D01*
X147192594Y-125064500D01*
X147157946Y-125050148D01*
X147143594Y-125015500D01*
X147157946Y-124980852D01*
X147166988Y-124973723D01*
X147168107Y-124973035D01*
X147168122Y-124973028D01*
X147316360Y-124865326D01*
X147445926Y-124735760D01*
X147553628Y-124587522D01*
X147636814Y-124424259D01*
X147693436Y-124249994D01*
X147722100Y-124069017D01*
X147722100Y-123580983D01*
X147693436Y-123400006D01*
X147636814Y-123225741D01*
X147636813Y-123225739D01*
X147553631Y-123062483D01*
X147553629Y-123062480D01*
X147553628Y-123062478D01*
X147445926Y-122914240D01*
X147445922Y-122914236D01*
X147445920Y-122914233D01*
X147316366Y-122784679D01*
X147316362Y-122784676D01*
X147316360Y-122784674D01*
X147168122Y-122676972D01*
X147168120Y-122676971D01*
X147168116Y-122676968D01*
X147004860Y-122593786D01*
X146830594Y-122537164D01*
X146830591Y-122537163D01*
X146691569Y-122515144D01*
X146649617Y-122508500D01*
X146466383Y-122508500D01*
X146432325Y-122513894D01*
X146285408Y-122537163D01*
X146285405Y-122537164D01*
X146111139Y-122593786D01*
X145947883Y-122676968D01*
X145799633Y-122784679D01*
X145670079Y-122914233D01*
X145562368Y-123062483D01*
X145479186Y-123225739D01*
X145422564Y-123400005D01*
X145422563Y-123400008D01*
X145398153Y-123554131D01*
X145393900Y-123580983D01*
X145393900Y-124069017D01*
X145394781Y-124074577D01*
X145422563Y-124249991D01*
X145422564Y-124249994D01*
X145479186Y-124424260D01*
X145562368Y-124587516D01*
X145562371Y-124587520D01*
X145562372Y-124587522D01*
X145670074Y-124735760D01*
X145670076Y-124735762D01*
X145670079Y-124735766D01*
X145799633Y-124865320D01*
X145799636Y-124865322D01*
X145799640Y-124865326D01*
X145947878Y-124973028D01*
X145947886Y-124973032D01*
X145949012Y-124973723D01*
X145949208Y-124973993D01*
X145949436Y-124974159D01*
X145949382Y-124974232D01*
X145971053Y-125004065D01*
X145965183Y-125041106D01*
X145934841Y-125063147D01*
X145923406Y-125064500D01*
X144652594Y-125064500D01*
X144617946Y-125050148D01*
X144603594Y-125015500D01*
X144617946Y-124980852D01*
X144626988Y-124973723D01*
X144628107Y-124973035D01*
X144628122Y-124973028D01*
X144776360Y-124865326D01*
X144905926Y-124735760D01*
X145013628Y-124587522D01*
X145096814Y-124424259D01*
X145153436Y-124249994D01*
X145182100Y-124069017D01*
X145182100Y-123580983D01*
X145153436Y-123400006D01*
X145096814Y-123225741D01*
X145096813Y-123225739D01*
X145013631Y-123062483D01*
X145013629Y-123062480D01*
X145013628Y-123062478D01*
X144905926Y-122914240D01*
X144905922Y-122914236D01*
X144905920Y-122914233D01*
X144776366Y-122784679D01*
X144776362Y-122784676D01*
X144776360Y-122784674D01*
X144628122Y-122676972D01*
X144628120Y-122676971D01*
X144628116Y-122676968D01*
X144464860Y-122593786D01*
X144290594Y-122537164D01*
X144290591Y-122537163D01*
X144151569Y-122515144D01*
X144109617Y-122508500D01*
X143926383Y-122508500D01*
X143892325Y-122513894D01*
X143745408Y-122537163D01*
X143745405Y-122537164D01*
X143571139Y-122593786D01*
X143407883Y-122676968D01*
X143259633Y-122784679D01*
X143130079Y-122914233D01*
X143022368Y-123062483D01*
X142939186Y-123225739D01*
X142882564Y-123400005D01*
X142882563Y-123400008D01*
X142858153Y-123554131D01*
X142853900Y-123580983D01*
X142853900Y-124069017D01*
X142854781Y-124074577D01*
X142882563Y-124249991D01*
X142882564Y-124249994D01*
X142939186Y-124424260D01*
X143022368Y-124587516D01*
X143022371Y-124587520D01*
X143022372Y-124587522D01*
X143130074Y-124735760D01*
X143130076Y-124735762D01*
X143130079Y-124735766D01*
X143259633Y-124865320D01*
X143259636Y-124865322D01*
X143259640Y-124865326D01*
X143407878Y-124973028D01*
X143407886Y-124973032D01*
X143409012Y-124973723D01*
X143409208Y-124973993D01*
X143409436Y-124974159D01*
X143409382Y-124974232D01*
X143431053Y-125004065D01*
X143425183Y-125041106D01*
X143394841Y-125063147D01*
X143383406Y-125064500D01*
X142112594Y-125064500D01*
X142077946Y-125050148D01*
X142063594Y-125015500D01*
X142077946Y-124980852D01*
X142086988Y-124973723D01*
X142088107Y-124973035D01*
X142088122Y-124973028D01*
X142236360Y-124865326D01*
X142365926Y-124735760D01*
X142473628Y-124587522D01*
X142556814Y-124424259D01*
X142613436Y-124249994D01*
X142642100Y-124069017D01*
X142642100Y-123580983D01*
X142613436Y-123400006D01*
X142556814Y-123225741D01*
X142556813Y-123225739D01*
X142473631Y-123062483D01*
X142473629Y-123062480D01*
X142473628Y-123062478D01*
X142365926Y-122914240D01*
X142365922Y-122914236D01*
X142365920Y-122914233D01*
X142236366Y-122784679D01*
X142236362Y-122784676D01*
X142236360Y-122784674D01*
X142088122Y-122676972D01*
X142088120Y-122676971D01*
X142088116Y-122676968D01*
X141924860Y-122593786D01*
X141750594Y-122537164D01*
X141750591Y-122537163D01*
X141611569Y-122515144D01*
X141569617Y-122508500D01*
X141386383Y-122508500D01*
X141352325Y-122513894D01*
X141205408Y-122537163D01*
X141205405Y-122537164D01*
X141031139Y-122593786D01*
X140867883Y-122676968D01*
X140719633Y-122784679D01*
X140590079Y-122914233D01*
X140482368Y-123062483D01*
X140399186Y-123225739D01*
X140342564Y-123400005D01*
X140342563Y-123400008D01*
X140318153Y-123554131D01*
X140313900Y-123580983D01*
X140313900Y-124069017D01*
X140314781Y-124074577D01*
X140342563Y-124249991D01*
X140342564Y-124249994D01*
X140399186Y-124424260D01*
X140482368Y-124587516D01*
X140482371Y-124587520D01*
X140482372Y-124587522D01*
X140590074Y-124735760D01*
X140590076Y-124735762D01*
X140590079Y-124735766D01*
X140719633Y-124865320D01*
X140719636Y-124865322D01*
X140719640Y-124865326D01*
X140867878Y-124973028D01*
X140867886Y-124973032D01*
X140869012Y-124973723D01*
X140869208Y-124973993D01*
X140869436Y-124974159D01*
X140869382Y-124974232D01*
X140891053Y-125004065D01*
X140885183Y-125041106D01*
X140854841Y-125063147D01*
X140843406Y-125064500D01*
X139572594Y-125064500D01*
X139537946Y-125050148D01*
X139523594Y-125015500D01*
X139537946Y-124980852D01*
X139546988Y-124973723D01*
X139548107Y-124973035D01*
X139548122Y-124973028D01*
X139696360Y-124865326D01*
X139825926Y-124735760D01*
X139933628Y-124587522D01*
X140016814Y-124424259D01*
X140073436Y-124249994D01*
X140102100Y-124069017D01*
X140102100Y-123580983D01*
X140073436Y-123400006D01*
X140016814Y-123225741D01*
X140016813Y-123225739D01*
X139933631Y-123062483D01*
X139933629Y-123062480D01*
X139933628Y-123062478D01*
X139825926Y-122914240D01*
X139825922Y-122914236D01*
X139825920Y-122914233D01*
X139696366Y-122784679D01*
X139696362Y-122784676D01*
X139696360Y-122784674D01*
X139548122Y-122676972D01*
X139548120Y-122676971D01*
X139548116Y-122676968D01*
X139384860Y-122593786D01*
X139210594Y-122537164D01*
X139210591Y-122537163D01*
X139071569Y-122515144D01*
X139029617Y-122508500D01*
X138846383Y-122508500D01*
X138812325Y-122513894D01*
X138665408Y-122537163D01*
X138665405Y-122537164D01*
X138491139Y-122593786D01*
X138327883Y-122676968D01*
X138179633Y-122784679D01*
X138050079Y-122914233D01*
X137942368Y-123062483D01*
X137859186Y-123225739D01*
X137802564Y-123400005D01*
X137802563Y-123400008D01*
X137778153Y-123554131D01*
X137773900Y-123580983D01*
X137773900Y-124069017D01*
X137774781Y-124074577D01*
X137802563Y-124249991D01*
X137802564Y-124249994D01*
X137859186Y-124424260D01*
X137942368Y-124587516D01*
X137942371Y-124587520D01*
X137942372Y-124587522D01*
X138050074Y-124735760D01*
X138050076Y-124735762D01*
X138050079Y-124735766D01*
X138179633Y-124865320D01*
X138179636Y-124865322D01*
X138179640Y-124865326D01*
X138327878Y-124973028D01*
X138327886Y-124973032D01*
X138329012Y-124973723D01*
X138329208Y-124973993D01*
X138329436Y-124974159D01*
X138329382Y-124974232D01*
X138351053Y-125004065D01*
X138345183Y-125041106D01*
X138314841Y-125063147D01*
X138303406Y-125064500D01*
X131869544Y-125064500D01*
X131834896Y-125050148D01*
X127387852Y-120603104D01*
X127373500Y-120568456D01*
X127373500Y-117608978D01*
X132022500Y-117608978D01*
X132022500Y-122071021D01*
X132051496Y-122179235D01*
X132051497Y-122179239D01*
X132107515Y-122276263D01*
X133333148Y-123501895D01*
X133347500Y-123536543D01*
X133347500Y-123594060D01*
X133388422Y-123746782D01*
X133388423Y-123746786D01*
X133467475Y-123883709D01*
X133467478Y-123883713D01*
X133467480Y-123883716D01*
X133579284Y-123995520D01*
X133579287Y-123995521D01*
X133579290Y-123995524D01*
X133716213Y-124074576D01*
X133716215Y-124074576D01*
X133716216Y-124074577D01*
X133775638Y-124090499D01*
X133868939Y-124115499D01*
X133868940Y-124115500D01*
X133868943Y-124115500D01*
X134027060Y-124115500D01*
X134027060Y-124115499D01*
X134179784Y-124074577D01*
X134185949Y-124071018D01*
X134316709Y-123995524D01*
X134316708Y-123995524D01*
X134316716Y-123995520D01*
X134428520Y-123883716D01*
X134507577Y-123746784D01*
X134548499Y-123594060D01*
X134548500Y-123594060D01*
X134548500Y-123435940D01*
X134548499Y-123435939D01*
X134526139Y-123352491D01*
X134507577Y-123283216D01*
X134507576Y-123283215D01*
X134507576Y-123283213D01*
X134428524Y-123146290D01*
X134428521Y-123146287D01*
X134428520Y-123146284D01*
X134316716Y-123034480D01*
X134316713Y-123034478D01*
X134316709Y-123034475D01*
X134179786Y-122955423D01*
X134179782Y-122955422D01*
X134027060Y-122914500D01*
X134027057Y-122914500D01*
X133969543Y-122914500D01*
X133934895Y-122900148D01*
X132887852Y-121853104D01*
X132873500Y-121818456D01*
X132873500Y-117861544D01*
X132887852Y-117826896D01*
X133384896Y-117329852D01*
X133419544Y-117315500D01*
X133477060Y-117315500D01*
X133477060Y-117315499D01*
X133629784Y-117274577D01*
X133660482Y-117256854D01*
X133766709Y-117195524D01*
X133766708Y-117195524D01*
X133766716Y-117195520D01*
X133878520Y-117083716D01*
X133941531Y-116974577D01*
X133957576Y-116946786D01*
X133957576Y-116946785D01*
X133957577Y-116946784D01*
X133998499Y-116794060D01*
X133998500Y-116794060D01*
X133998500Y-116635940D01*
X133998499Y-116635939D01*
X133970526Y-116531544D01*
X133957577Y-116483216D01*
X133957576Y-116483215D01*
X133957576Y-116483213D01*
X133884841Y-116357231D01*
X133878524Y-116346290D01*
X133878521Y-116346287D01*
X133878520Y-116346284D01*
X133868175Y-116335939D01*
X148707500Y-116335939D01*
X148707500Y-116494060D01*
X148748422Y-116646782D01*
X148748423Y-116646786D01*
X148827475Y-116783709D01*
X148827478Y-116783713D01*
X148827480Y-116783716D01*
X148939284Y-116895520D01*
X148939287Y-116895521D01*
X148939290Y-116895524D01*
X149076213Y-116974576D01*
X149076215Y-116974576D01*
X149076216Y-116974577D01*
X149126472Y-116988043D01*
X149228939Y-117015499D01*
X149228940Y-117015500D01*
X149228943Y-117015500D01*
X149387060Y-117015500D01*
X149387060Y-117015499D01*
X149539784Y-116974577D01*
X149676716Y-116895520D01*
X149788520Y-116783716D01*
X149853957Y-116670375D01*
X149867576Y-116646786D01*
X149867576Y-116646785D01*
X149867577Y-116646784D01*
X149908499Y-116494060D01*
X149908500Y-116494060D01*
X149908500Y-116335940D01*
X149908499Y-116335939D01*
X149887805Y-116258709D01*
X149867577Y-116183216D01*
X149867576Y-116183215D01*
X149867576Y-116183213D01*
X149788524Y-116046290D01*
X149788521Y-116046287D01*
X149788520Y-116046284D01*
X149676716Y-115934480D01*
X149676713Y-115934478D01*
X149676709Y-115934475D01*
X149539786Y-115855423D01*
X149539782Y-115855422D01*
X149387060Y-115814500D01*
X149387057Y-115814500D01*
X149228943Y-115814500D01*
X149228940Y-115814500D01*
X149076217Y-115855422D01*
X149076213Y-115855423D01*
X148939290Y-115934475D01*
X148939281Y-115934482D01*
X148827482Y-116046281D01*
X148827475Y-116046290D01*
X148748423Y-116183213D01*
X148748422Y-116183217D01*
X148707500Y-116335939D01*
X133868175Y-116335939D01*
X133766716Y-116234480D01*
X133766713Y-116234478D01*
X133766709Y-116234475D01*
X133629786Y-116155423D01*
X133629782Y-116155422D01*
X133477060Y-116114500D01*
X133477057Y-116114500D01*
X133318943Y-116114500D01*
X133318940Y-116114500D01*
X133166217Y-116155422D01*
X133166213Y-116155423D01*
X133029290Y-116234475D01*
X133029281Y-116234482D01*
X132917482Y-116346281D01*
X132917475Y-116346290D01*
X132838423Y-116483213D01*
X132838422Y-116483217D01*
X132797500Y-116635939D01*
X132797500Y-116693456D01*
X132783148Y-116728104D01*
X132107516Y-117403736D01*
X132107515Y-117403736D01*
X132051497Y-117500760D01*
X132051496Y-117500764D01*
X132022500Y-117608978D01*
X127373500Y-117608978D01*
X127373500Y-115609032D01*
X127387852Y-115574384D01*
X127389094Y-115573142D01*
X127428520Y-115533716D01*
X127507577Y-115396784D01*
X127548499Y-115244060D01*
X127548500Y-115244060D01*
X127548500Y-115085940D01*
X127548499Y-115085939D01*
X127520974Y-114983216D01*
X127507577Y-114933216D01*
X127507576Y-114933215D01*
X127507576Y-114933213D01*
X127428524Y-114796290D01*
X127428521Y-114796287D01*
X127428520Y-114796284D01*
X127316716Y-114684480D01*
X127316713Y-114684478D01*
X127316709Y-114684475D01*
X127179786Y-114605423D01*
X127179782Y-114605422D01*
X127027060Y-114564500D01*
X127027057Y-114564500D01*
X126868943Y-114564500D01*
X126868940Y-114564500D01*
X126716217Y-114605422D01*
X126716213Y-114605423D01*
X126579290Y-114684475D01*
X126579281Y-114684482D01*
X126467482Y-114796281D01*
X126467475Y-114796290D01*
X126388423Y-114933213D01*
X126388422Y-114933217D01*
X126347500Y-115085939D01*
X126347500Y-115244060D01*
X126388422Y-115396782D01*
X126388423Y-115396786D01*
X126467475Y-115533709D01*
X126467482Y-115533718D01*
X126508148Y-115574384D01*
X126522500Y-115609032D01*
X126522500Y-120540500D01*
X126508148Y-120575148D01*
X126473500Y-120589500D01*
X123041979Y-120589500D01*
X122933764Y-120618496D01*
X122933760Y-120618497D01*
X122836736Y-120674515D01*
X122836736Y-120674516D01*
X118961104Y-124550148D01*
X118926456Y-124564500D01*
X113144543Y-124564500D01*
X113109895Y-124550148D01*
X112412852Y-123853104D01*
X112398500Y-123818456D01*
X112398500Y-121772410D01*
X113722500Y-121772410D01*
X113722500Y-122057590D01*
X113759723Y-122340330D01*
X113759724Y-122340334D01*
X113759725Y-122340341D01*
X113833530Y-122615785D01*
X113833534Y-122615795D01*
X113942667Y-122879265D01*
X114085255Y-123126233D01*
X114085265Y-123126248D01*
X114258858Y-123352479D01*
X114258868Y-123352491D01*
X114460508Y-123554131D01*
X114460520Y-123554141D01*
X114686751Y-123727734D01*
X114686760Y-123727740D01*
X114686764Y-123727743D01*
X114719744Y-123746784D01*
X114903894Y-123853104D01*
X114933736Y-123870333D01*
X115197208Y-123979467D01*
X115197211Y-123979467D01*
X115197214Y-123979469D01*
X115472658Y-124053274D01*
X115472659Y-124053274D01*
X115472670Y-124053277D01*
X115755410Y-124090500D01*
X115755414Y-124090500D01*
X116040586Y-124090500D01*
X116040590Y-124090500D01*
X116323330Y-124053277D01*
X116598792Y-123979467D01*
X116862264Y-123870333D01*
X117109236Y-123727743D01*
X117335485Y-123554137D01*
X117537137Y-123352485D01*
X117710743Y-123126236D01*
X117853333Y-122879264D01*
X117962467Y-122615792D01*
X117986433Y-122526352D01*
X118036274Y-122340341D01*
X118036273Y-122340341D01*
X118036277Y-122340330D01*
X118073500Y-122057590D01*
X118073500Y-121772410D01*
X118036277Y-121489670D01*
X118036274Y-121489658D01*
X117962469Y-121214214D01*
X117962465Y-121214204D01*
X117908208Y-121083217D01*
X117853333Y-120950736D01*
X117710743Y-120703764D01*
X117710740Y-120703760D01*
X117710734Y-120703751D01*
X117537141Y-120477520D01*
X117537131Y-120477508D01*
X117335491Y-120275868D01*
X117335479Y-120275858D01*
X117109248Y-120102265D01*
X117109233Y-120102255D01*
X116862265Y-119959667D01*
X116598795Y-119850534D01*
X116598785Y-119850530D01*
X116323341Y-119776725D01*
X116323334Y-119776724D01*
X116323330Y-119776723D01*
X116040590Y-119739500D01*
X115755410Y-119739500D01*
X115472670Y-119776723D01*
X115472666Y-119776723D01*
X115472658Y-119776725D01*
X115197214Y-119850530D01*
X115197204Y-119850534D01*
X114933734Y-119959667D01*
X114686766Y-120102255D01*
X114686751Y-120102265D01*
X114460520Y-120275858D01*
X114460508Y-120275868D01*
X114258868Y-120477508D01*
X114258858Y-120477520D01*
X114085265Y-120703751D01*
X114085255Y-120703766D01*
X113942667Y-120950734D01*
X113833534Y-121214204D01*
X113833530Y-121214214D01*
X113759725Y-121489658D01*
X113759723Y-121489666D01*
X113759723Y-121489670D01*
X113722500Y-121772410D01*
X112398500Y-121772410D01*
X112398500Y-118328765D01*
X114022500Y-118328765D01*
X114022500Y-118501234D01*
X114056142Y-118670364D01*
X114056145Y-118670375D01*
X114122140Y-118829701D01*
X114122142Y-118829705D01*
X114217955Y-118973099D01*
X114339901Y-119095045D01*
X114483295Y-119190858D01*
X114642626Y-119256855D01*
X114642632Y-119256856D01*
X114642635Y-119256857D01*
X114811765Y-119290499D01*
X114811768Y-119290499D01*
X114811771Y-119290500D01*
X114811772Y-119290500D01*
X114984228Y-119290500D01*
X114984229Y-119290500D01*
X115153374Y-119256855D01*
X115312705Y-119190858D01*
X115456099Y-119095045D01*
X115578045Y-118973099D01*
X115673858Y-118829705D01*
X115739855Y-118670374D01*
X115773500Y-118501229D01*
X115773500Y-118328771D01*
X115769465Y-118308484D01*
X115739857Y-118159635D01*
X115739854Y-118159624D01*
X115673858Y-118000295D01*
X115578045Y-117856901D01*
X115516278Y-117795134D01*
X116022500Y-117795134D01*
X116022500Y-119034858D01*
X116022501Y-119034868D01*
X116025415Y-119059992D01*
X116070794Y-119162766D01*
X116150233Y-119242205D01*
X116253006Y-119287584D01*
X116253009Y-119287585D01*
X116278135Y-119290500D01*
X117517864Y-119290499D01*
X117542991Y-119287585D01*
X117645765Y-119242206D01*
X117725206Y-119162765D01*
X117770585Y-119059991D01*
X117773500Y-119034865D01*
X117773499Y-117795136D01*
X117770585Y-117770009D01*
X117725206Y-117667235D01*
X117725205Y-117667234D01*
X117725205Y-117667233D01*
X117645766Y-117587794D01*
X117645767Y-117587794D01*
X117542993Y-117542415D01*
X117530428Y-117540957D01*
X117517865Y-117539500D01*
X117517863Y-117539500D01*
X116278141Y-117539500D01*
X116278131Y-117539501D01*
X116253007Y-117542415D01*
X116150233Y-117587794D01*
X116070794Y-117667233D01*
X116025415Y-117770006D01*
X116022500Y-117795134D01*
X115516278Y-117795134D01*
X115456099Y-117734955D01*
X115420469Y-117711148D01*
X115408731Y-117703304D01*
X115312705Y-117639142D01*
X115312702Y-117639140D01*
X115312701Y-117639140D01*
X115153375Y-117573145D01*
X115153364Y-117573142D01*
X114984234Y-117539500D01*
X114984229Y-117539500D01*
X114811771Y-117539500D01*
X114811765Y-117539500D01*
X114642635Y-117573142D01*
X114642624Y-117573145D01*
X114483298Y-117639140D01*
X114339901Y-117734954D01*
X114217954Y-117856901D01*
X114122140Y-118000298D01*
X114056145Y-118159624D01*
X114056142Y-118159635D01*
X114022500Y-118328765D01*
X112398500Y-118328765D01*
X112398500Y-116338663D01*
X114123000Y-116338663D01*
X114123000Y-116491332D01*
X114152780Y-116641047D01*
X114152785Y-116641066D01*
X114211203Y-116782100D01*
X114282609Y-116888967D01*
X114282610Y-116888967D01*
X114590017Y-116581559D01*
X114617930Y-116629905D01*
X114683095Y-116695070D01*
X114731439Y-116722981D01*
X114424031Y-117030388D01*
X114530903Y-117101797D01*
X114530902Y-117101797D01*
X114671933Y-117160214D01*
X114671952Y-117160219D01*
X114821663Y-117189999D01*
X114821669Y-117190000D01*
X114974331Y-117190000D01*
X114974336Y-117189999D01*
X115124047Y-117160219D01*
X115124066Y-117160214D01*
X115265096Y-117101797D01*
X115371967Y-117030388D01*
X115371967Y-117030387D01*
X115064560Y-116722981D01*
X115112905Y-116695070D01*
X115178070Y-116629905D01*
X115205981Y-116581560D01*
X115513387Y-116888967D01*
X115513388Y-116888967D01*
X115584797Y-116782096D01*
X115643214Y-116641066D01*
X115643219Y-116641047D01*
X115673000Y-116491332D01*
X115673000Y-116338670D01*
X115672454Y-116335927D01*
X115672454Y-116335923D01*
X115671030Y-116328765D01*
X116022500Y-116328765D01*
X116022500Y-116501234D01*
X116056142Y-116670364D01*
X116056145Y-116670375D01*
X116110436Y-116801444D01*
X116122142Y-116829705D01*
X116161740Y-116888967D01*
X116200370Y-116946782D01*
X116217955Y-116973099D01*
X116339901Y-117095045D01*
X116483295Y-117190858D01*
X116642626Y-117256855D01*
X116642632Y-117256856D01*
X116642635Y-117256857D01*
X116811765Y-117290499D01*
X116811768Y-117290499D01*
X116811771Y-117290500D01*
X116811772Y-117290500D01*
X116984228Y-117290500D01*
X116984229Y-117290500D01*
X117153374Y-117256855D01*
X117312705Y-117190858D01*
X117456099Y-117095045D01*
X117578045Y-116973099D01*
X117673858Y-116829705D01*
X117739855Y-116670374D01*
X117745689Y-116641047D01*
X117773499Y-116501234D01*
X117773500Y-116501227D01*
X117773500Y-116328772D01*
X117773499Y-116328765D01*
X117739857Y-116159635D01*
X117739854Y-116159624D01*
X117738114Y-116155423D01*
X117673858Y-116000295D01*
X117578045Y-115856901D01*
X117456099Y-115734955D01*
X117312705Y-115639142D01*
X117312702Y-115639140D01*
X117312701Y-115639140D01*
X117153375Y-115573145D01*
X117153364Y-115573142D01*
X116984234Y-115539500D01*
X116984229Y-115539500D01*
X116811771Y-115539500D01*
X116811765Y-115539500D01*
X116642635Y-115573142D01*
X116642624Y-115573145D01*
X116483298Y-115639140D01*
X116339901Y-115734954D01*
X116217954Y-115856901D01*
X116122140Y-116000298D01*
X116056145Y-116159624D01*
X116056142Y-116159635D01*
X116022500Y-116328765D01*
X115671030Y-116328765D01*
X115643219Y-116188952D01*
X115643214Y-116188933D01*
X115584797Y-116047903D01*
X115513388Y-115941031D01*
X115205981Y-116248438D01*
X115178070Y-116200095D01*
X115112905Y-116134930D01*
X115064559Y-116107017D01*
X115371967Y-115799610D01*
X115371967Y-115799609D01*
X115265100Y-115728203D01*
X115124066Y-115669785D01*
X115124047Y-115669780D01*
X114974336Y-115640000D01*
X114821663Y-115640000D01*
X114671952Y-115669780D01*
X114671933Y-115669785D01*
X114530899Y-115728203D01*
X114424031Y-115799610D01*
X114731439Y-116107018D01*
X114683095Y-116134930D01*
X114617930Y-116200095D01*
X114590018Y-116248439D01*
X114282610Y-115941031D01*
X114211203Y-116047899D01*
X114152785Y-116188933D01*
X114152780Y-116188952D01*
X114123000Y-116338663D01*
X112398500Y-116338663D01*
X112398500Y-114328765D01*
X114022500Y-114328765D01*
X114022500Y-114501234D01*
X114056142Y-114670364D01*
X114056145Y-114670375D01*
X114108301Y-114796290D01*
X114122142Y-114829705D01*
X114217955Y-114973099D01*
X114339901Y-115095045D01*
X114483295Y-115190858D01*
X114642626Y-115256855D01*
X114642632Y-115256856D01*
X114642635Y-115256857D01*
X114811765Y-115290499D01*
X114811768Y-115290499D01*
X114811771Y-115290500D01*
X114811772Y-115290500D01*
X114984228Y-115290500D01*
X114984229Y-115290500D01*
X115153374Y-115256855D01*
X115312705Y-115190858D01*
X115456099Y-115095045D01*
X115578045Y-114973099D01*
X115673858Y-114829705D01*
X115739855Y-114670374D01*
X115773500Y-114501229D01*
X115773500Y-114328771D01*
X115773499Y-114328765D01*
X116022500Y-114328765D01*
X116022500Y-114501234D01*
X116056142Y-114670364D01*
X116056145Y-114670375D01*
X116108301Y-114796290D01*
X116122142Y-114829705D01*
X116217955Y-114973099D01*
X116339901Y-115095045D01*
X116483295Y-115190858D01*
X116642626Y-115256855D01*
X116642632Y-115256856D01*
X116642635Y-115256857D01*
X116811765Y-115290499D01*
X116811768Y-115290499D01*
X116811771Y-115290500D01*
X116811772Y-115290500D01*
X116984228Y-115290500D01*
X116984229Y-115290500D01*
X117153374Y-115256855D01*
X117312705Y-115190858D01*
X117456099Y-115095045D01*
X117578045Y-114973099D01*
X117673858Y-114829705D01*
X117739855Y-114670374D01*
X117773500Y-114501229D01*
X117773500Y-114328771D01*
X117766886Y-114295520D01*
X117739857Y-114159635D01*
X117739854Y-114159624D01*
X117673858Y-114000295D01*
X117578045Y-113856901D01*
X117457083Y-113735939D01*
X123297500Y-113735939D01*
X123297500Y-113894060D01*
X123338422Y-114046782D01*
X123338423Y-114046786D01*
X123417475Y-114183709D01*
X123417478Y-114183713D01*
X123417480Y-114183716D01*
X123529284Y-114295520D01*
X123529287Y-114295521D01*
X123529290Y-114295524D01*
X123666213Y-114374576D01*
X123666215Y-114374576D01*
X123666216Y-114374577D01*
X123700331Y-114383718D01*
X123818939Y-114415499D01*
X123818940Y-114415500D01*
X123818943Y-114415500D01*
X123977060Y-114415500D01*
X123977060Y-114415499D01*
X124129784Y-114374577D01*
X124209134Y-114328765D01*
X124266709Y-114295524D01*
X124266708Y-114295524D01*
X124266716Y-114295520D01*
X124378520Y-114183716D01*
X124395218Y-114154792D01*
X124457576Y-114046786D01*
X124457576Y-114046785D01*
X124457577Y-114046784D01*
X124498499Y-113894060D01*
X124498500Y-113894060D01*
X124498500Y-113735940D01*
X124498499Y-113735939D01*
X124489851Y-113703665D01*
X124457577Y-113583216D01*
X124457576Y-113583215D01*
X124457576Y-113583213D01*
X124378524Y-113446290D01*
X124378521Y-113446287D01*
X124378520Y-113446284D01*
X124266716Y-113334480D01*
X124266713Y-113334478D01*
X124266709Y-113334475D01*
X124129786Y-113255423D01*
X124129782Y-113255422D01*
X123977060Y-113214500D01*
X123977057Y-113214500D01*
X123818943Y-113214500D01*
X123818940Y-113214500D01*
X123666217Y-113255422D01*
X123666213Y-113255423D01*
X123529290Y-113334475D01*
X123529281Y-113334482D01*
X123417482Y-113446281D01*
X123417475Y-113446290D01*
X123338423Y-113583213D01*
X123338422Y-113583217D01*
X123297500Y-113735939D01*
X117457083Y-113735939D01*
X117456099Y-113734955D01*
X117312705Y-113639142D01*
X117312702Y-113639140D01*
X117312701Y-113639140D01*
X117153375Y-113573145D01*
X117153364Y-113573142D01*
X116984234Y-113539500D01*
X116984229Y-113539500D01*
X116811771Y-113539500D01*
X116811765Y-113539500D01*
X116642635Y-113573142D01*
X116642624Y-113573145D01*
X116483298Y-113639140D01*
X116339901Y-113734954D01*
X116217954Y-113856901D01*
X116122140Y-114000298D01*
X116056145Y-114159624D01*
X116056142Y-114159635D01*
X116022500Y-114328765D01*
X115773499Y-114328765D01*
X115766886Y-114295520D01*
X115739857Y-114159635D01*
X115739854Y-114159624D01*
X115673858Y-114000295D01*
X115578045Y-113856901D01*
X115456099Y-113734955D01*
X115312705Y-113639142D01*
X115312702Y-113639140D01*
X115312701Y-113639140D01*
X115153375Y-113573145D01*
X115153364Y-113573142D01*
X114984234Y-113539500D01*
X114984229Y-113539500D01*
X114811771Y-113539500D01*
X114811765Y-113539500D01*
X114642635Y-113573142D01*
X114642624Y-113573145D01*
X114483298Y-113639140D01*
X114339901Y-113734954D01*
X114217954Y-113856901D01*
X114122140Y-114000298D01*
X114056145Y-114159624D01*
X114056142Y-114159635D01*
X114022500Y-114328765D01*
X112398500Y-114328765D01*
X112398500Y-113536543D01*
X112412851Y-113501896D01*
X113585981Y-112328765D01*
X114022500Y-112328765D01*
X114022500Y-112501234D01*
X114056142Y-112670364D01*
X114056145Y-112670375D01*
X114110361Y-112801263D01*
X114122142Y-112829705D01*
X114217955Y-112973099D01*
X114339901Y-113095045D01*
X114483295Y-113190858D01*
X114642626Y-113256855D01*
X114642632Y-113256856D01*
X114642635Y-113256857D01*
X114811765Y-113290499D01*
X114811768Y-113290499D01*
X114811771Y-113290500D01*
X114811772Y-113290500D01*
X114984228Y-113290500D01*
X114984229Y-113290500D01*
X115153374Y-113256855D01*
X115312705Y-113190858D01*
X115456099Y-113095045D01*
X115578045Y-112973099D01*
X115673858Y-112829705D01*
X115739855Y-112670374D01*
X115773500Y-112501229D01*
X115773500Y-112328771D01*
X115773499Y-112328765D01*
X116022500Y-112328765D01*
X116022500Y-112501234D01*
X116056142Y-112670364D01*
X116056145Y-112670375D01*
X116110361Y-112801263D01*
X116122142Y-112829705D01*
X116217955Y-112973099D01*
X116339901Y-113095045D01*
X116483295Y-113190858D01*
X116642626Y-113256855D01*
X116642632Y-113256856D01*
X116642635Y-113256857D01*
X116811765Y-113290499D01*
X116811768Y-113290499D01*
X116811771Y-113290500D01*
X116811772Y-113290500D01*
X116984228Y-113290500D01*
X116984229Y-113290500D01*
X117153374Y-113256855D01*
X117312705Y-113190858D01*
X117456099Y-113095045D01*
X117578045Y-112973099D01*
X117673858Y-112829705D01*
X117739855Y-112670374D01*
X117773500Y-112501229D01*
X117773500Y-112328771D01*
X117773499Y-112328765D01*
X117739857Y-112159635D01*
X117739854Y-112159624D01*
X117683916Y-112024577D01*
X117673858Y-112000295D01*
X117578045Y-111856901D01*
X117456099Y-111734955D01*
X117312705Y-111639142D01*
X117312702Y-111639140D01*
X117312701Y-111639140D01*
X117153375Y-111573145D01*
X117153364Y-111573142D01*
X116984234Y-111539500D01*
X116984229Y-111539500D01*
X116811771Y-111539500D01*
X116811765Y-111539500D01*
X116642635Y-111573142D01*
X116642624Y-111573145D01*
X116483298Y-111639140D01*
X116339901Y-111734954D01*
X116217954Y-111856901D01*
X116122140Y-112000298D01*
X116056145Y-112159624D01*
X116056142Y-112159635D01*
X116022500Y-112328765D01*
X115773499Y-112328765D01*
X115739857Y-112159635D01*
X115739854Y-112159624D01*
X115683916Y-112024577D01*
X115673858Y-112000295D01*
X115578045Y-111856901D01*
X115456099Y-111734955D01*
X115312705Y-111639142D01*
X115312702Y-111639140D01*
X115312701Y-111639140D01*
X115153375Y-111573145D01*
X115153364Y-111573142D01*
X114984234Y-111539500D01*
X114984229Y-111539500D01*
X114811771Y-111539500D01*
X114811765Y-111539500D01*
X114642635Y-111573142D01*
X114642624Y-111573145D01*
X114483298Y-111639140D01*
X114339901Y-111734954D01*
X114217954Y-111856901D01*
X114122140Y-112000298D01*
X114056145Y-112159624D01*
X114056142Y-112159635D01*
X114022500Y-112328765D01*
X113585981Y-112328765D01*
X114528807Y-111385939D01*
X123597500Y-111385939D01*
X123597500Y-111544060D01*
X123638422Y-111696782D01*
X123638423Y-111696786D01*
X123717475Y-111833709D01*
X123717478Y-111833713D01*
X123717480Y-111833716D01*
X123829284Y-111945520D01*
X123829287Y-111945521D01*
X123829290Y-111945524D01*
X123966213Y-112024576D01*
X123966215Y-112024576D01*
X123966216Y-112024577D01*
X124084679Y-112056319D01*
X124118939Y-112065499D01*
X124118940Y-112065500D01*
X124118943Y-112065500D01*
X124277060Y-112065500D01*
X124277060Y-112065499D01*
X124429784Y-112024577D01*
X124566716Y-111945520D01*
X124678520Y-111833716D01*
X124757577Y-111696784D01*
X124798499Y-111544060D01*
X124798500Y-111544060D01*
X124798500Y-111385940D01*
X124798499Y-111385939D01*
X124769908Y-111279235D01*
X124757577Y-111233216D01*
X124757576Y-111233215D01*
X124757576Y-111233213D01*
X124678524Y-111096290D01*
X124678521Y-111096287D01*
X124678520Y-111096284D01*
X124566716Y-110984480D01*
X124566713Y-110984478D01*
X124566709Y-110984475D01*
X124429786Y-110905423D01*
X124429782Y-110905422D01*
X124277060Y-110864500D01*
X124277057Y-110864500D01*
X124118943Y-110864500D01*
X124118940Y-110864500D01*
X123966217Y-110905422D01*
X123966213Y-110905423D01*
X123829290Y-110984475D01*
X123829281Y-110984482D01*
X123717482Y-111096281D01*
X123717475Y-111096290D01*
X123638423Y-111233213D01*
X123638422Y-111233217D01*
X123597500Y-111385939D01*
X114528807Y-111385939D01*
X114636841Y-111277905D01*
X114671488Y-111263554D01*
X114681039Y-111264495D01*
X114811771Y-111290500D01*
X114984228Y-111290500D01*
X114984229Y-111290500D01*
X115153374Y-111256855D01*
X115312705Y-111190858D01*
X115456099Y-111095045D01*
X115578045Y-110973099D01*
X115673858Y-110829705D01*
X115739855Y-110670374D01*
X115773500Y-110501229D01*
X115773500Y-110328771D01*
X115773499Y-110328765D01*
X116022500Y-110328765D01*
X116022500Y-110501234D01*
X116056142Y-110670364D01*
X116056145Y-110670375D01*
X116067084Y-110696784D01*
X116122142Y-110829705D01*
X116217955Y-110973099D01*
X116339901Y-111095045D01*
X116483295Y-111190858D01*
X116642626Y-111256855D01*
X116642632Y-111256856D01*
X116642635Y-111256857D01*
X116811765Y-111290499D01*
X116811768Y-111290499D01*
X116811771Y-111290500D01*
X116811772Y-111290500D01*
X116984228Y-111290500D01*
X116984229Y-111290500D01*
X117153374Y-111256855D01*
X117312705Y-111190858D01*
X117456099Y-111095045D01*
X117578045Y-110973099D01*
X117673858Y-110829705D01*
X117739855Y-110670374D01*
X117773500Y-110501229D01*
X117773500Y-110385939D01*
X127397500Y-110385939D01*
X127397500Y-110544060D01*
X127438422Y-110696782D01*
X127438423Y-110696786D01*
X127517475Y-110833709D01*
X127517478Y-110833713D01*
X127517480Y-110833716D01*
X127629284Y-110945520D01*
X127629287Y-110945521D01*
X127629290Y-110945524D01*
X127766213Y-111024576D01*
X127766215Y-111024576D01*
X127766216Y-111024577D01*
X127886665Y-111056851D01*
X127918939Y-111065499D01*
X127918940Y-111065500D01*
X127918943Y-111065500D01*
X128077060Y-111065500D01*
X128077060Y-111065499D01*
X128229784Y-111024577D01*
X128366716Y-110945520D01*
X128478520Y-110833716D01*
X128557577Y-110696784D01*
X128598499Y-110544060D01*
X128598500Y-110544060D01*
X128598500Y-110385940D01*
X128598499Y-110385939D01*
X128557577Y-110233217D01*
X128557576Y-110233213D01*
X128478524Y-110096290D01*
X128478521Y-110096287D01*
X128478520Y-110096284D01*
X128366716Y-109984480D01*
X128366713Y-109984478D01*
X128366709Y-109984475D01*
X128229786Y-109905423D01*
X128229782Y-109905422D01*
X128077060Y-109864500D01*
X128077057Y-109864500D01*
X127918943Y-109864500D01*
X127918940Y-109864500D01*
X127766217Y-109905422D01*
X127766213Y-109905423D01*
X127629290Y-109984475D01*
X127629281Y-109984482D01*
X127517482Y-110096281D01*
X127517475Y-110096290D01*
X127438423Y-110233213D01*
X127438422Y-110233217D01*
X127397500Y-110385939D01*
X117773500Y-110385939D01*
X117773500Y-110328771D01*
X117754493Y-110233216D01*
X117739857Y-110159635D01*
X117739854Y-110159624D01*
X117713618Y-110096284D01*
X117673858Y-110000295D01*
X117578045Y-109856901D01*
X117456099Y-109734955D01*
X117312705Y-109639142D01*
X117312702Y-109639140D01*
X117312701Y-109639140D01*
X117153375Y-109573145D01*
X117153364Y-109573142D01*
X116984234Y-109539500D01*
X116984229Y-109539500D01*
X116811771Y-109539500D01*
X116811765Y-109539500D01*
X116642635Y-109573142D01*
X116642624Y-109573145D01*
X116483298Y-109639140D01*
X116339901Y-109734954D01*
X116217954Y-109856901D01*
X116122140Y-110000298D01*
X116056145Y-110159624D01*
X116056142Y-110159635D01*
X116022500Y-110328765D01*
X115773499Y-110328765D01*
X115754493Y-110233216D01*
X115739857Y-110159635D01*
X115739854Y-110159624D01*
X115713618Y-110096284D01*
X115673858Y-110000295D01*
X115578045Y-109856901D01*
X115456099Y-109734955D01*
X115312705Y-109639142D01*
X115312702Y-109639140D01*
X115312701Y-109639140D01*
X115153375Y-109573145D01*
X115153364Y-109573142D01*
X114984234Y-109539500D01*
X114984229Y-109539500D01*
X114811771Y-109539500D01*
X114811765Y-109539500D01*
X114642635Y-109573142D01*
X114642624Y-109573145D01*
X114483298Y-109639140D01*
X114339901Y-109734954D01*
X114217954Y-109856901D01*
X114122140Y-110000298D01*
X114056145Y-110159624D01*
X114056142Y-110159635D01*
X114022500Y-110328765D01*
X114022500Y-110501234D01*
X114048502Y-110631951D01*
X114041186Y-110668733D01*
X114035092Y-110676158D01*
X111711737Y-112999515D01*
X111632516Y-113078736D01*
X111632515Y-113078736D01*
X111589935Y-113152487D01*
X111560182Y-113175317D01*
X111523000Y-113170422D01*
X111500170Y-113140669D01*
X111498500Y-113127987D01*
X111498500Y-108328765D01*
X114022500Y-108328765D01*
X114022500Y-108501234D01*
X114056142Y-108670364D01*
X114056145Y-108670375D01*
X114122140Y-108829701D01*
X114122142Y-108829705D01*
X114217955Y-108973099D01*
X114339901Y-109095045D01*
X114483295Y-109190858D01*
X114642626Y-109256855D01*
X114642632Y-109256856D01*
X114642635Y-109256857D01*
X114811765Y-109290499D01*
X114811768Y-109290499D01*
X114811771Y-109290500D01*
X114811772Y-109290500D01*
X114984228Y-109290500D01*
X114984229Y-109290500D01*
X115153374Y-109256855D01*
X115312705Y-109190858D01*
X115456099Y-109095045D01*
X115578045Y-108973099D01*
X115673858Y-108829705D01*
X115739855Y-108670374D01*
X115773500Y-108501229D01*
X115773500Y-108328771D01*
X115773499Y-108328765D01*
X116022500Y-108328765D01*
X116022500Y-108501234D01*
X116056142Y-108670364D01*
X116056145Y-108670375D01*
X116122140Y-108829701D01*
X116122142Y-108829705D01*
X116217955Y-108973099D01*
X116339901Y-109095045D01*
X116483295Y-109190858D01*
X116642626Y-109256855D01*
X116642632Y-109256856D01*
X116642635Y-109256857D01*
X116811765Y-109290499D01*
X116811768Y-109290499D01*
X116811771Y-109290500D01*
X116811772Y-109290500D01*
X116984228Y-109290500D01*
X116984229Y-109290500D01*
X117153374Y-109256855D01*
X117312705Y-109190858D01*
X117456099Y-109095045D01*
X117515205Y-109035939D01*
X123347500Y-109035939D01*
X123347500Y-109194060D01*
X123388422Y-109346782D01*
X123388423Y-109346786D01*
X123467475Y-109483709D01*
X123467478Y-109483713D01*
X123467480Y-109483716D01*
X123579284Y-109595520D01*
X123579287Y-109595521D01*
X123579290Y-109595524D01*
X123716213Y-109674576D01*
X123716215Y-109674576D01*
X123716216Y-109674577D01*
X123836665Y-109706851D01*
X123868939Y-109715499D01*
X123868940Y-109715500D01*
X123868943Y-109715500D01*
X124027060Y-109715500D01*
X124027060Y-109715499D01*
X124179784Y-109674577D01*
X124316716Y-109595520D01*
X124428520Y-109483716D01*
X124507577Y-109346784D01*
X124548499Y-109194060D01*
X124548500Y-109194060D01*
X124548500Y-109035940D01*
X124548499Y-109035939D01*
X124507577Y-108883217D01*
X124507576Y-108883213D01*
X124428524Y-108746290D01*
X124428521Y-108746287D01*
X124428520Y-108746284D01*
X124316716Y-108634480D01*
X124316713Y-108634478D01*
X124316709Y-108634475D01*
X124179786Y-108555423D01*
X124179782Y-108555422D01*
X124027060Y-108514500D01*
X124027057Y-108514500D01*
X123868943Y-108514500D01*
X123868940Y-108514500D01*
X123716217Y-108555422D01*
X123716213Y-108555423D01*
X123579290Y-108634475D01*
X123579281Y-108634482D01*
X123467482Y-108746281D01*
X123467475Y-108746290D01*
X123388423Y-108883213D01*
X123388422Y-108883217D01*
X123347500Y-109035939D01*
X117515205Y-109035939D01*
X117578045Y-108973099D01*
X117673858Y-108829705D01*
X117739855Y-108670374D01*
X117773500Y-108501229D01*
X117773500Y-108328771D01*
X117756650Y-108244060D01*
X117739857Y-108159635D01*
X117739854Y-108159624D01*
X117715771Y-108101482D01*
X117709333Y-108085939D01*
X127297500Y-108085939D01*
X127297500Y-108244060D01*
X127338422Y-108396782D01*
X127338423Y-108396786D01*
X127417475Y-108533709D01*
X127417478Y-108533713D01*
X127417480Y-108533716D01*
X127529284Y-108645520D01*
X127529287Y-108645521D01*
X127529290Y-108645524D01*
X127666213Y-108724576D01*
X127666215Y-108724576D01*
X127666216Y-108724577D01*
X127747217Y-108746281D01*
X127818939Y-108765499D01*
X127818940Y-108765500D01*
X127818943Y-108765500D01*
X127977060Y-108765500D01*
X127977060Y-108765499D01*
X128129784Y-108724577D01*
X128223666Y-108670375D01*
X128266709Y-108645524D01*
X128266708Y-108645524D01*
X128266716Y-108645520D01*
X128378520Y-108533716D01*
X128457577Y-108396784D01*
X128498499Y-108244060D01*
X128498500Y-108244060D01*
X128498500Y-108085940D01*
X128498499Y-108085939D01*
X128489851Y-108053665D01*
X128457577Y-107933216D01*
X128457576Y-107933215D01*
X128457576Y-107933213D01*
X128378524Y-107796290D01*
X128378521Y-107796287D01*
X128378520Y-107796284D01*
X128266716Y-107684480D01*
X128266713Y-107684478D01*
X128266709Y-107684475D01*
X128129786Y-107605423D01*
X128129782Y-107605422D01*
X127977060Y-107564500D01*
X127977057Y-107564500D01*
X127818943Y-107564500D01*
X127818940Y-107564500D01*
X127666217Y-107605422D01*
X127666213Y-107605423D01*
X127529290Y-107684475D01*
X127529281Y-107684482D01*
X127417482Y-107796281D01*
X127417475Y-107796290D01*
X127338423Y-107933213D01*
X127338422Y-107933217D01*
X127297500Y-108085939D01*
X117709333Y-108085939D01*
X117673859Y-108000298D01*
X117673858Y-108000295D01*
X117578045Y-107856901D01*
X117456099Y-107734955D01*
X117312705Y-107639142D01*
X117312702Y-107639140D01*
X117312701Y-107639140D01*
X117153375Y-107573145D01*
X117153364Y-107573142D01*
X116984234Y-107539500D01*
X116984229Y-107539500D01*
X116811771Y-107539500D01*
X116811765Y-107539500D01*
X116642635Y-107573142D01*
X116642624Y-107573145D01*
X116483298Y-107639140D01*
X116339901Y-107734954D01*
X116217954Y-107856901D01*
X116122140Y-108000298D01*
X116056145Y-108159624D01*
X116056142Y-108159635D01*
X116022500Y-108328765D01*
X115773499Y-108328765D01*
X115756650Y-108244060D01*
X115739857Y-108159635D01*
X115739854Y-108159624D01*
X115715771Y-108101482D01*
X115673858Y-108000295D01*
X115578045Y-107856901D01*
X115456099Y-107734955D01*
X115312705Y-107639142D01*
X115312702Y-107639140D01*
X115312701Y-107639140D01*
X115153375Y-107573145D01*
X115153364Y-107573142D01*
X114984234Y-107539500D01*
X114984229Y-107539500D01*
X114811771Y-107539500D01*
X114811765Y-107539500D01*
X114642635Y-107573142D01*
X114642624Y-107573145D01*
X114483298Y-107639140D01*
X114339901Y-107734954D01*
X114217954Y-107856901D01*
X114122140Y-108000298D01*
X114056145Y-108159624D01*
X114056142Y-108159635D01*
X114022500Y-108328765D01*
X111498500Y-108328765D01*
X111498500Y-106328765D01*
X114022500Y-106328765D01*
X114022500Y-106501234D01*
X114056142Y-106670364D01*
X114056145Y-106670375D01*
X114103258Y-106784116D01*
X114122142Y-106829705D01*
X114217955Y-106973099D01*
X114339901Y-107095045D01*
X114483295Y-107190858D01*
X114642626Y-107256855D01*
X114642632Y-107256856D01*
X114642635Y-107256857D01*
X114811765Y-107290499D01*
X114811768Y-107290499D01*
X114811771Y-107290500D01*
X114811772Y-107290500D01*
X114984228Y-107290500D01*
X114984229Y-107290500D01*
X115153374Y-107256855D01*
X115312705Y-107190858D01*
X115456099Y-107095045D01*
X115578045Y-106973099D01*
X115673858Y-106829705D01*
X115739855Y-106670374D01*
X115773500Y-106501229D01*
X115773500Y-106328771D01*
X115767138Y-106296786D01*
X115739857Y-106159635D01*
X115739854Y-106159624D01*
X115733406Y-106144057D01*
X115673858Y-106000295D01*
X115578045Y-105856901D01*
X115456099Y-105734955D01*
X115453496Y-105733216D01*
X115339850Y-105657280D01*
X115312705Y-105639142D01*
X115312702Y-105639140D01*
X115312701Y-105639140D01*
X115153375Y-105573145D01*
X115153364Y-105573142D01*
X114984234Y-105539500D01*
X114984229Y-105539500D01*
X114811771Y-105539500D01*
X114811765Y-105539500D01*
X114642635Y-105573142D01*
X114642624Y-105573145D01*
X114483298Y-105639140D01*
X114339901Y-105734954D01*
X114217954Y-105856901D01*
X114122140Y-106000298D01*
X114056145Y-106159624D01*
X114056142Y-106159635D01*
X114022500Y-106328765D01*
X111498500Y-106328765D01*
X111498500Y-104328765D01*
X114022500Y-104328765D01*
X114022500Y-104501234D01*
X114056142Y-104670364D01*
X114056145Y-104670375D01*
X114122140Y-104829701D01*
X114122142Y-104829705D01*
X114217955Y-104973099D01*
X114339901Y-105095045D01*
X114483295Y-105190858D01*
X114642626Y-105256855D01*
X114642632Y-105256856D01*
X114642635Y-105256857D01*
X114811765Y-105290499D01*
X114811768Y-105290499D01*
X114811771Y-105290500D01*
X114811772Y-105290500D01*
X114984228Y-105290500D01*
X114984229Y-105290500D01*
X115153374Y-105256855D01*
X115312705Y-105190858D01*
X115456099Y-105095045D01*
X115578045Y-104973099D01*
X115673858Y-104829705D01*
X115739855Y-104670374D01*
X115773500Y-104501229D01*
X115773500Y-104328771D01*
X115771540Y-104318916D01*
X115922500Y-104318916D01*
X115922500Y-104511083D01*
X115959985Y-104699533D01*
X115959988Y-104699544D01*
X116033522Y-104877072D01*
X116140277Y-105036842D01*
X116276157Y-105172722D01*
X116402071Y-105256855D01*
X116435927Y-105279477D01*
X116613457Y-105353012D01*
X116613463Y-105353013D01*
X116613466Y-105353014D01*
X116683485Y-105366942D01*
X116714668Y-105387777D01*
X116721984Y-105424559D01*
X116701149Y-105455742D01*
X116683485Y-105463058D01*
X116613466Y-105476985D01*
X116613455Y-105476988D01*
X116435927Y-105550522D01*
X116276157Y-105657277D01*
X116140277Y-105793157D01*
X116033522Y-105952927D01*
X115959988Y-106130455D01*
X115959985Y-106130466D01*
X115922500Y-106318916D01*
X115922500Y-106511083D01*
X115959985Y-106699533D01*
X115959988Y-106699544D01*
X116033522Y-106877072D01*
X116140277Y-107036842D01*
X116276157Y-107172722D01*
X116402071Y-107256855D01*
X116435927Y-107279477D01*
X116613457Y-107353012D01*
X116613463Y-107353013D01*
X116613466Y-107353014D01*
X116801916Y-107390499D01*
X116801919Y-107390499D01*
X116801922Y-107390500D01*
X116801923Y-107390500D01*
X116994077Y-107390500D01*
X116994078Y-107390500D01*
X117182543Y-107353012D01*
X117360073Y-107279477D01*
X117519845Y-107172720D01*
X117655720Y-107036845D01*
X117762477Y-106877073D01*
X117836012Y-106699543D01*
X117838718Y-106685939D01*
X123397500Y-106685939D01*
X123397500Y-106844060D01*
X123438422Y-106996782D01*
X123438423Y-106996786D01*
X123517475Y-107133709D01*
X123517478Y-107133713D01*
X123517480Y-107133716D01*
X123629284Y-107245520D01*
X123629287Y-107245521D01*
X123629290Y-107245524D01*
X123766213Y-107324576D01*
X123766215Y-107324576D01*
X123766216Y-107324577D01*
X123872333Y-107353011D01*
X123918939Y-107365499D01*
X123918940Y-107365500D01*
X123918943Y-107365500D01*
X124077060Y-107365500D01*
X124077060Y-107365499D01*
X124229784Y-107324577D01*
X124235949Y-107321018D01*
X124366709Y-107245524D01*
X124366708Y-107245524D01*
X124366716Y-107245520D01*
X124478520Y-107133716D01*
X124557577Y-106996784D01*
X124598499Y-106844060D01*
X124598500Y-106844060D01*
X124598500Y-106685940D01*
X124598499Y-106685939D01*
X124557577Y-106533217D01*
X124557576Y-106533213D01*
X124478524Y-106396290D01*
X124478521Y-106396287D01*
X124478520Y-106396284D01*
X124366716Y-106284480D01*
X124366713Y-106284478D01*
X124366709Y-106284475D01*
X124229786Y-106205423D01*
X124229782Y-106205422D01*
X124077060Y-106164500D01*
X124077057Y-106164500D01*
X123918943Y-106164500D01*
X123918940Y-106164500D01*
X123766217Y-106205422D01*
X123766213Y-106205423D01*
X123629290Y-106284475D01*
X123629281Y-106284482D01*
X123517482Y-106396281D01*
X123517475Y-106396290D01*
X123438423Y-106533213D01*
X123438422Y-106533217D01*
X123397500Y-106685939D01*
X117838718Y-106685939D01*
X117873500Y-106511078D01*
X117873500Y-106318922D01*
X117869097Y-106296786D01*
X117836014Y-106130466D01*
X117836011Y-106130455D01*
X117796861Y-106035939D01*
X117762477Y-105952927D01*
X117732584Y-105908189D01*
X117655722Y-105793157D01*
X117519842Y-105657277D01*
X117360072Y-105550522D01*
X117182543Y-105476988D01*
X117182528Y-105476985D01*
X117112512Y-105463058D01*
X117081331Y-105442223D01*
X117074014Y-105405441D01*
X117094850Y-105374258D01*
X117112511Y-105366942D01*
X117182543Y-105353012D01*
X117360073Y-105279477D01*
X117519845Y-105172720D01*
X117655720Y-105036845D01*
X117762477Y-104877073D01*
X117836012Y-104699543D01*
X117873500Y-104511078D01*
X117873500Y-104318922D01*
X117836012Y-104130457D01*
X117762477Y-103952927D01*
X117698314Y-103856901D01*
X117655722Y-103793157D01*
X117519842Y-103657277D01*
X117360072Y-103550522D01*
X117182544Y-103476988D01*
X117182533Y-103476985D01*
X116994083Y-103439500D01*
X116994078Y-103439500D01*
X116801922Y-103439500D01*
X116801916Y-103439500D01*
X116613466Y-103476985D01*
X116613455Y-103476988D01*
X116435927Y-103550522D01*
X116276157Y-103657277D01*
X116140277Y-103793157D01*
X116033522Y-103952927D01*
X115959988Y-104130455D01*
X115959985Y-104130466D01*
X115922500Y-104318916D01*
X115771540Y-104318916D01*
X115739855Y-104159626D01*
X115673858Y-104000295D01*
X115578045Y-103856901D01*
X115456099Y-103734955D01*
X115312705Y-103639142D01*
X115312702Y-103639140D01*
X115312701Y-103639140D01*
X115153375Y-103573145D01*
X115153364Y-103573142D01*
X114984234Y-103539500D01*
X114984229Y-103539500D01*
X114811771Y-103539500D01*
X114811765Y-103539500D01*
X114642635Y-103573142D01*
X114642624Y-103573145D01*
X114483298Y-103639140D01*
X114339901Y-103734954D01*
X114217954Y-103856901D01*
X114122140Y-104000298D01*
X114056145Y-104159624D01*
X114056142Y-104159635D01*
X114022500Y-104328765D01*
X111498500Y-104328765D01*
X111498500Y-100772410D01*
X113722500Y-100772410D01*
X113722500Y-101057590D01*
X113759723Y-101340330D01*
X113759724Y-101340334D01*
X113759725Y-101340341D01*
X113833530Y-101615785D01*
X113833534Y-101615795D01*
X113942667Y-101879265D01*
X114085255Y-102126233D01*
X114085265Y-102126248D01*
X114258858Y-102352479D01*
X114258868Y-102352491D01*
X114460508Y-102554131D01*
X114460520Y-102554141D01*
X114686751Y-102727734D01*
X114686760Y-102727740D01*
X114686764Y-102727743D01*
X114933736Y-102870333D01*
X115197208Y-102979467D01*
X115197211Y-102979467D01*
X115197214Y-102979469D01*
X115472658Y-103053274D01*
X115472659Y-103053274D01*
X115472670Y-103053277D01*
X115755410Y-103090500D01*
X115755414Y-103090500D01*
X116040586Y-103090500D01*
X116040590Y-103090500D01*
X116323330Y-103053277D01*
X116598792Y-102979467D01*
X116862264Y-102870333D01*
X117109236Y-102727743D01*
X117335485Y-102554137D01*
X117537137Y-102352485D01*
X117710743Y-102126236D01*
X117853333Y-101879264D01*
X117962467Y-101615792D01*
X118036277Y-101340330D01*
X118073500Y-101057590D01*
X118073500Y-100772410D01*
X118036277Y-100489670D01*
X118021284Y-100433716D01*
X117962469Y-100214214D01*
X117962465Y-100214204D01*
X117933410Y-100144060D01*
X117853333Y-99950736D01*
X117710743Y-99703764D01*
X117710740Y-99703760D01*
X117710734Y-99703751D01*
X117537141Y-99477520D01*
X117537131Y-99477508D01*
X117335491Y-99275868D01*
X117335479Y-99275858D01*
X117109248Y-99102265D01*
X117109233Y-99102255D01*
X116862265Y-98959667D01*
X116598795Y-98850534D01*
X116598785Y-98850530D01*
X116323341Y-98776725D01*
X116323334Y-98776724D01*
X116323330Y-98776723D01*
X116040590Y-98739500D01*
X115755410Y-98739500D01*
X115472670Y-98776723D01*
X115472666Y-98776723D01*
X115472658Y-98776725D01*
X115197214Y-98850530D01*
X115197204Y-98850534D01*
X114933734Y-98959667D01*
X114686766Y-99102255D01*
X114686751Y-99102265D01*
X114460520Y-99275858D01*
X114460508Y-99275868D01*
X114258868Y-99477508D01*
X114258858Y-99477520D01*
X114085265Y-99703751D01*
X114085255Y-99703766D01*
X113942667Y-99950734D01*
X113833534Y-100214204D01*
X113833530Y-100214214D01*
X113759725Y-100489658D01*
X113759723Y-100489666D01*
X113759723Y-100489670D01*
X113722500Y-100772410D01*
X111498500Y-100772410D01*
X111498500Y-92135939D01*
X134247500Y-92135939D01*
X134247500Y-92294060D01*
X134288422Y-92446782D01*
X134288423Y-92446786D01*
X134367475Y-92583709D01*
X134367478Y-92583713D01*
X134367480Y-92583716D01*
X134479284Y-92695520D01*
X134479287Y-92695521D01*
X134479290Y-92695524D01*
X134616213Y-92774576D01*
X134616215Y-92774576D01*
X134616216Y-92774577D01*
X134736665Y-92806851D01*
X134768939Y-92815499D01*
X134768940Y-92815500D01*
X134768943Y-92815500D01*
X134927060Y-92815500D01*
X134927060Y-92815499D01*
X135079784Y-92774577D01*
X135146708Y-92735939D01*
X140760000Y-92735939D01*
X140760000Y-92894060D01*
X140800922Y-93046782D01*
X140800923Y-93046786D01*
X140879975Y-93183709D01*
X140879982Y-93183718D01*
X140926616Y-93230352D01*
X140940968Y-93265000D01*
X140926616Y-93299648D01*
X140879982Y-93346281D01*
X140879975Y-93346290D01*
X140800923Y-93483213D01*
X140800922Y-93483217D01*
X140760000Y-93635939D01*
X140760000Y-93794060D01*
X140800922Y-93946782D01*
X140800923Y-93946786D01*
X140879975Y-94083709D01*
X140879978Y-94083713D01*
X140879980Y-94083716D01*
X140991784Y-94195520D01*
X140991787Y-94195521D01*
X140991790Y-94195524D01*
X141128713Y-94274576D01*
X141128715Y-94274576D01*
X141128716Y-94274577D01*
X141249165Y-94306851D01*
X141281439Y-94315499D01*
X141281440Y-94315500D01*
X141281443Y-94315500D01*
X141439560Y-94315500D01*
X141439560Y-94315499D01*
X141592284Y-94274577D01*
X141729216Y-94195520D01*
X141841020Y-94083716D01*
X141894838Y-93990499D01*
X141920076Y-93946786D01*
X141920076Y-93946785D01*
X141920077Y-93946784D01*
X141960999Y-93794060D01*
X141961000Y-93794060D01*
X141961000Y-93635940D01*
X141960999Y-93635939D01*
X141942589Y-93567233D01*
X141920077Y-93483216D01*
X141920076Y-93483215D01*
X141920076Y-93483213D01*
X141841024Y-93346290D01*
X141841021Y-93346287D01*
X141841020Y-93346284D01*
X141794384Y-93299648D01*
X141780032Y-93265000D01*
X141794384Y-93230352D01*
X141841020Y-93183716D01*
X141890746Y-93097587D01*
X141920076Y-93046786D01*
X141920076Y-93046785D01*
X141920077Y-93046784D01*
X141960999Y-92894060D01*
X141961000Y-92894060D01*
X141961000Y-92735940D01*
X141960999Y-92735939D01*
X141936900Y-92646001D01*
X141920077Y-92583216D01*
X141920076Y-92583215D01*
X141920076Y-92583213D01*
X141841024Y-92446290D01*
X141841021Y-92446287D01*
X141841020Y-92446284D01*
X141729216Y-92334480D01*
X141729213Y-92334478D01*
X141729209Y-92334475D01*
X141592286Y-92255423D01*
X141592282Y-92255422D01*
X141439560Y-92214500D01*
X141439557Y-92214500D01*
X141281443Y-92214500D01*
X141281440Y-92214500D01*
X141128717Y-92255422D01*
X141128713Y-92255423D01*
X140991790Y-92334475D01*
X140991781Y-92334482D01*
X140879982Y-92446281D01*
X140879975Y-92446290D01*
X140800923Y-92583213D01*
X140800922Y-92583217D01*
X140760000Y-92735939D01*
X135146708Y-92735939D01*
X135216716Y-92695520D01*
X135328520Y-92583716D01*
X135407577Y-92446784D01*
X135448499Y-92294060D01*
X135448500Y-92294060D01*
X135448500Y-92135940D01*
X135448499Y-92135939D01*
X135423172Y-92041417D01*
X135407577Y-91983216D01*
X135407576Y-91983215D01*
X135407576Y-91983213D01*
X135328524Y-91846290D01*
X135328521Y-91846287D01*
X135328520Y-91846284D01*
X135216716Y-91734480D01*
X135216713Y-91734478D01*
X135216709Y-91734475D01*
X135079786Y-91655423D01*
X135079782Y-91655422D01*
X134927060Y-91614500D01*
X134927057Y-91614500D01*
X134768943Y-91614500D01*
X134768940Y-91614500D01*
X134616217Y-91655422D01*
X134616213Y-91655423D01*
X134479290Y-91734475D01*
X134479281Y-91734482D01*
X134367482Y-91846281D01*
X134367475Y-91846290D01*
X134288423Y-91983213D01*
X134288422Y-91983217D01*
X134247500Y-92135939D01*
X111498500Y-92135939D01*
X111498500Y-89935939D01*
X119097500Y-89935939D01*
X119097500Y-90094060D01*
X119138422Y-90246782D01*
X119138423Y-90246786D01*
X119217475Y-90383709D01*
X119217478Y-90383713D01*
X119217480Y-90383716D01*
X119329284Y-90495520D01*
X119329287Y-90495521D01*
X119329290Y-90495524D01*
X119466213Y-90574576D01*
X119466215Y-90574576D01*
X119466216Y-90574577D01*
X119586665Y-90606851D01*
X119618939Y-90615499D01*
X119618940Y-90615500D01*
X119618943Y-90615500D01*
X119777060Y-90615500D01*
X119777060Y-90615499D01*
X119929784Y-90574577D01*
X120066716Y-90495520D01*
X120178520Y-90383716D01*
X120257577Y-90246784D01*
X120298499Y-90094060D01*
X120298500Y-90094060D01*
X120298500Y-89935940D01*
X120298499Y-89935939D01*
X120267181Y-89819060D01*
X120257577Y-89783216D01*
X120257576Y-89783215D01*
X120257576Y-89783213D01*
X120178524Y-89646290D01*
X120178521Y-89646287D01*
X120178520Y-89646284D01*
X120066716Y-89534480D01*
X120066713Y-89534478D01*
X120066709Y-89534475D01*
X119929786Y-89455423D01*
X119929782Y-89455422D01*
X119777060Y-89414500D01*
X119777057Y-89414500D01*
X119618943Y-89414500D01*
X119618940Y-89414500D01*
X119466217Y-89455422D01*
X119466213Y-89455423D01*
X119329290Y-89534475D01*
X119329281Y-89534482D01*
X119217482Y-89646281D01*
X119217475Y-89646290D01*
X119138423Y-89783213D01*
X119138422Y-89783217D01*
X119097500Y-89935939D01*
X111498500Y-89935939D01*
X111498500Y-89135939D01*
X112747500Y-89135939D01*
X112747500Y-89294060D01*
X112788422Y-89446782D01*
X112788423Y-89446786D01*
X112867475Y-89583709D01*
X112867478Y-89583713D01*
X112867480Y-89583716D01*
X112979284Y-89695520D01*
X112979287Y-89695521D01*
X112979290Y-89695524D01*
X113116213Y-89774576D01*
X113116215Y-89774576D01*
X113116216Y-89774577D01*
X113236665Y-89806851D01*
X113268939Y-89815499D01*
X113268940Y-89815500D01*
X113268943Y-89815500D01*
X113427060Y-89815500D01*
X113427060Y-89815499D01*
X113579784Y-89774577D01*
X113585724Y-89771148D01*
X113716709Y-89695524D01*
X113716708Y-89695524D01*
X113716716Y-89695520D01*
X113828520Y-89583716D01*
X113907577Y-89446784D01*
X113948499Y-89294060D01*
X113948500Y-89294060D01*
X113948500Y-89135940D01*
X113948499Y-89135939D01*
X113907577Y-88983217D01*
X113907576Y-88983213D01*
X113828524Y-88846290D01*
X113828521Y-88846287D01*
X113828520Y-88846284D01*
X113716716Y-88734480D01*
X113716713Y-88734478D01*
X113716709Y-88734475D01*
X113579786Y-88655423D01*
X113579782Y-88655422D01*
X113427060Y-88614500D01*
X113427057Y-88614500D01*
X113268943Y-88614500D01*
X113268940Y-88614500D01*
X113116217Y-88655422D01*
X113116213Y-88655423D01*
X112979290Y-88734475D01*
X112979281Y-88734482D01*
X112867482Y-88846281D01*
X112867475Y-88846290D01*
X112788423Y-88983213D01*
X112788422Y-88983217D01*
X112747500Y-89135939D01*
X111498500Y-89135939D01*
X111498500Y-79735939D01*
X130647500Y-79735939D01*
X130647500Y-79894060D01*
X130688422Y-80046782D01*
X130688423Y-80046786D01*
X130767475Y-80183709D01*
X130767478Y-80183713D01*
X130767480Y-80183716D01*
X130879284Y-80295520D01*
X130879287Y-80295521D01*
X130879290Y-80295524D01*
X131016213Y-80374576D01*
X131016215Y-80374576D01*
X131016216Y-80374577D01*
X131136665Y-80406851D01*
X131168939Y-80415499D01*
X131168940Y-80415500D01*
X131168943Y-80415500D01*
X131327060Y-80415500D01*
X131327060Y-80415499D01*
X131479784Y-80374577D01*
X131616716Y-80295520D01*
X131728520Y-80183716D01*
X131807577Y-80046784D01*
X131848499Y-79894060D01*
X131848500Y-79894060D01*
X131848500Y-79735940D01*
X131848499Y-79735939D01*
X131820974Y-79633216D01*
X131807577Y-79583216D01*
X131807576Y-79583215D01*
X131807576Y-79583213D01*
X131728524Y-79446290D01*
X131728521Y-79446287D01*
X131728520Y-79446284D01*
X131616716Y-79334480D01*
X131616713Y-79334478D01*
X131616709Y-79334475D01*
X131479786Y-79255423D01*
X131479782Y-79255422D01*
X131327060Y-79214500D01*
X131327057Y-79214500D01*
X131168943Y-79214500D01*
X131168940Y-79214500D01*
X131016217Y-79255422D01*
X131016213Y-79255423D01*
X130879290Y-79334475D01*
X130879281Y-79334482D01*
X130767482Y-79446281D01*
X130767475Y-79446290D01*
X130688423Y-79583213D01*
X130688422Y-79583217D01*
X130647500Y-79735939D01*
X111498500Y-79735939D01*
X111498500Y-78785939D01*
X112947500Y-78785939D01*
X112947500Y-78944060D01*
X112988422Y-79096782D01*
X112988423Y-79096786D01*
X113067475Y-79233709D01*
X113067478Y-79233713D01*
X113067480Y-79233716D01*
X113179284Y-79345520D01*
X113179287Y-79345521D01*
X113179290Y-79345524D01*
X113316213Y-79424576D01*
X113316215Y-79424576D01*
X113316216Y-79424577D01*
X113397217Y-79446281D01*
X113468939Y-79465499D01*
X113468940Y-79465500D01*
X113468943Y-79465500D01*
X113627060Y-79465500D01*
X113627060Y-79465499D01*
X113779784Y-79424577D01*
X113916716Y-79345520D01*
X114028520Y-79233716D01*
X114107577Y-79096784D01*
X114148499Y-78944060D01*
X114148500Y-78944060D01*
X114148500Y-78785940D01*
X114148499Y-78785939D01*
X123747500Y-78785939D01*
X123747500Y-78944060D01*
X123788422Y-79096782D01*
X123788423Y-79096786D01*
X123867475Y-79233709D01*
X123867478Y-79233713D01*
X123867480Y-79233716D01*
X123979284Y-79345520D01*
X123979287Y-79345521D01*
X123979290Y-79345524D01*
X124116213Y-79424576D01*
X124116215Y-79424576D01*
X124116216Y-79424577D01*
X124197217Y-79446281D01*
X124268939Y-79465499D01*
X124268940Y-79465500D01*
X124268943Y-79465500D01*
X124427060Y-79465500D01*
X124427060Y-79465499D01*
X124579784Y-79424577D01*
X124716716Y-79345520D01*
X124828520Y-79233716D01*
X124907577Y-79096784D01*
X124948499Y-78944060D01*
X124948500Y-78944060D01*
X124948500Y-78785940D01*
X124948499Y-78785939D01*
X124908468Y-78636542D01*
X124907577Y-78633216D01*
X124907576Y-78633215D01*
X124907576Y-78633213D01*
X124828524Y-78496290D01*
X124828521Y-78496287D01*
X124828520Y-78496284D01*
X124716716Y-78384480D01*
X124716713Y-78384478D01*
X124716709Y-78384475D01*
X124579786Y-78305423D01*
X124579782Y-78305422D01*
X124427060Y-78264500D01*
X124427057Y-78264500D01*
X124268943Y-78264500D01*
X124268940Y-78264500D01*
X124116217Y-78305422D01*
X124116213Y-78305423D01*
X123979290Y-78384475D01*
X123979281Y-78384482D01*
X123867482Y-78496281D01*
X123867475Y-78496290D01*
X123788423Y-78633213D01*
X123788422Y-78633217D01*
X123747500Y-78785939D01*
X114148499Y-78785939D01*
X114108468Y-78636542D01*
X114107577Y-78633216D01*
X114107576Y-78633215D01*
X114107576Y-78633213D01*
X114028524Y-78496290D01*
X114028521Y-78496287D01*
X114028520Y-78496284D01*
X113916716Y-78384480D01*
X113916713Y-78384478D01*
X113916709Y-78384475D01*
X113779786Y-78305423D01*
X113779782Y-78305422D01*
X113627060Y-78264500D01*
X113627057Y-78264500D01*
X113468943Y-78264500D01*
X113468940Y-78264500D01*
X113316217Y-78305422D01*
X113316213Y-78305423D01*
X113179290Y-78384475D01*
X113179281Y-78384482D01*
X113067482Y-78496281D01*
X113067475Y-78496290D01*
X112988423Y-78633213D01*
X112988422Y-78633217D01*
X112947500Y-78785939D01*
X111498500Y-78785939D01*
X111498500Y-77485939D01*
X114247500Y-77485939D01*
X114247500Y-77644060D01*
X114288422Y-77796782D01*
X114288423Y-77796786D01*
X114367475Y-77933709D01*
X114367478Y-77933713D01*
X114367480Y-77933716D01*
X114479284Y-78045520D01*
X114479287Y-78045521D01*
X114479290Y-78045524D01*
X114616213Y-78124576D01*
X114616215Y-78124576D01*
X114616216Y-78124577D01*
X114731331Y-78155422D01*
X114768939Y-78165499D01*
X114768940Y-78165500D01*
X114768943Y-78165500D01*
X114927060Y-78165500D01*
X114927060Y-78165499D01*
X115079784Y-78124577D01*
X115216716Y-78045520D01*
X115328520Y-77933716D01*
X115407577Y-77796784D01*
X115448499Y-77644060D01*
X115448500Y-77644060D01*
X115448500Y-77485940D01*
X115448499Y-77485939D01*
X115407577Y-77333217D01*
X115407576Y-77333213D01*
X115328524Y-77196290D01*
X115328521Y-77196287D01*
X115328520Y-77196284D01*
X115216716Y-77084480D01*
X115216713Y-77084478D01*
X115216709Y-77084475D01*
X115079786Y-77005423D01*
X115079782Y-77005422D01*
X114927060Y-76964500D01*
X114927057Y-76964500D01*
X114768943Y-76964500D01*
X114768940Y-76964500D01*
X114616217Y-77005422D01*
X114616213Y-77005423D01*
X114479290Y-77084475D01*
X114479281Y-77084482D01*
X114367482Y-77196281D01*
X114367475Y-77196290D01*
X114288423Y-77333213D01*
X114288422Y-77333217D01*
X114247500Y-77485939D01*
X111498500Y-77485939D01*
X111498500Y-73574500D01*
X111512852Y-73539852D01*
X111547500Y-73525500D01*
X124922648Y-73525500D01*
X124957296Y-73539852D01*
G37*
G04 #@! TD.AperFunction*
G04 #@! TA.AperFunction,Conductor*
G36*
X156207148Y-83256750D02*
G01*
X169108148Y-96157750D01*
X169122500Y-96192398D01*
X169122500Y-99547105D01*
X169108148Y-99581753D01*
X169073500Y-99596105D01*
X169043672Y-99585980D01*
X169041716Y-99584479D01*
X168904786Y-99505423D01*
X168904782Y-99505422D01*
X168752060Y-99464500D01*
X168752057Y-99464500D01*
X168593943Y-99464500D01*
X168593940Y-99464500D01*
X168441217Y-99505422D01*
X168441213Y-99505423D01*
X168304290Y-99584475D01*
X168304281Y-99584482D01*
X168192482Y-99696281D01*
X168192475Y-99696290D01*
X168113423Y-99833213D01*
X168113422Y-99833217D01*
X168072500Y-99985939D01*
X168072500Y-100144060D01*
X168113422Y-100296782D01*
X168113423Y-100296786D01*
X168192475Y-100433709D01*
X168192478Y-100433713D01*
X168192480Y-100433716D01*
X168304284Y-100545520D01*
X168304287Y-100545521D01*
X168304290Y-100545524D01*
X168441213Y-100624576D01*
X168441215Y-100624576D01*
X168441216Y-100624577D01*
X168561665Y-100656851D01*
X168593939Y-100665499D01*
X168593940Y-100665500D01*
X168593943Y-100665500D01*
X168752060Y-100665500D01*
X168752060Y-100665499D01*
X168904784Y-100624577D01*
X169041716Y-100545520D01*
X169041718Y-100545517D01*
X169043667Y-100544023D01*
X169079891Y-100534313D01*
X169112371Y-100553061D01*
X169122500Y-100582894D01*
X169122500Y-116038170D01*
X169108148Y-116072818D01*
X169073500Y-116087170D01*
X169049000Y-116080605D01*
X168984728Y-116043497D01*
X168984724Y-116043496D01*
X168876510Y-116014500D01*
X168876507Y-116014500D01*
X166719544Y-116014500D01*
X166684896Y-116000148D01*
X163062852Y-112378104D01*
X163048500Y-112343456D01*
X163048500Y-112254616D01*
X165662500Y-112254616D01*
X165662500Y-112455384D01*
X165669761Y-112501227D01*
X165693906Y-112653677D01*
X165693907Y-112653680D01*
X165741859Y-112801263D01*
X165755948Y-112844622D01*
X165847095Y-113023508D01*
X165957391Y-113175317D01*
X165965104Y-113185933D01*
X165965108Y-113185938D01*
X166107062Y-113327892D01*
X166107066Y-113327895D01*
X166107068Y-113327897D01*
X166269492Y-113445905D01*
X166448378Y-113537052D01*
X166639320Y-113599093D01*
X166837616Y-113630500D01*
X166837617Y-113630500D01*
X167038383Y-113630500D01*
X167038384Y-113630500D01*
X167236680Y-113599093D01*
X167427622Y-113537052D01*
X167606508Y-113445905D01*
X167768932Y-113327897D01*
X167768935Y-113327893D01*
X167768938Y-113327892D01*
X167910892Y-113185938D01*
X167910893Y-113185935D01*
X167910897Y-113185932D01*
X168028905Y-113023508D01*
X168120052Y-112844622D01*
X168182093Y-112653680D01*
X168213500Y-112455384D01*
X168213500Y-112254616D01*
X168182093Y-112056320D01*
X168120052Y-111865378D01*
X168028905Y-111686492D01*
X167910897Y-111524068D01*
X167910895Y-111524066D01*
X167910892Y-111524062D01*
X167768938Y-111382108D01*
X167768933Y-111382104D01*
X167760894Y-111376263D01*
X167606508Y-111264095D01*
X167427622Y-111172948D01*
X167427621Y-111172947D01*
X167427620Y-111172947D01*
X167236680Y-111110907D01*
X167236677Y-111110906D01*
X167084350Y-111086780D01*
X167038384Y-111079500D01*
X166837616Y-111079500D01*
X166800299Y-111085410D01*
X166639322Y-111110906D01*
X166639319Y-111110907D01*
X166448379Y-111172947D01*
X166269492Y-111264095D01*
X166107066Y-111382104D01*
X165965104Y-111524066D01*
X165847095Y-111686492D01*
X165755947Y-111865379D01*
X165693907Y-112056319D01*
X165693906Y-112056322D01*
X165662500Y-112254616D01*
X163048500Y-112254616D01*
X163048500Y-106171001D01*
X163222500Y-106171001D01*
X163222500Y-106308998D01*
X163249417Y-106444318D01*
X163249420Y-106444329D01*
X163302223Y-106571807D01*
X163302225Y-106571811D01*
X163310692Y-106584482D01*
X163378883Y-106686539D01*
X163476460Y-106784116D01*
X163522102Y-106814613D01*
X163591189Y-106860775D01*
X163718672Y-106913580D01*
X163718678Y-106913581D01*
X163718681Y-106913582D01*
X163854001Y-106940499D01*
X163854007Y-106940500D01*
X163991993Y-106940500D01*
X164127328Y-106913580D01*
X164254811Y-106860775D01*
X164369542Y-106784114D01*
X164467114Y-106686542D01*
X164543775Y-106571811D01*
X164596580Y-106444328D01*
X164623500Y-106308993D01*
X164623500Y-106171007D01*
X164615434Y-106130455D01*
X164596582Y-106035681D01*
X164596579Y-106035670D01*
X164543775Y-105908189D01*
X164493678Y-105833213D01*
X164467116Y-105793460D01*
X164369539Y-105695883D01*
X164301074Y-105650137D01*
X164254811Y-105619225D01*
X164254808Y-105619223D01*
X164254807Y-105619223D01*
X164127329Y-105566420D01*
X164127318Y-105566417D01*
X163991998Y-105539500D01*
X163991993Y-105539500D01*
X163854007Y-105539500D01*
X163854001Y-105539500D01*
X163718681Y-105566417D01*
X163718670Y-105566420D01*
X163591192Y-105619223D01*
X163476460Y-105695883D01*
X163378883Y-105793460D01*
X163302223Y-105908192D01*
X163249420Y-106035670D01*
X163249417Y-106035681D01*
X163222500Y-106171001D01*
X163048500Y-106171001D01*
X163048500Y-97083980D01*
X163035102Y-97033982D01*
X163035102Y-97033981D01*
X163019503Y-96975764D01*
X163019503Y-96975763D01*
X162990635Y-96925763D01*
X162963485Y-96878737D01*
X162884263Y-96799515D01*
X162882557Y-96797809D01*
X162882546Y-96797799D01*
X160509263Y-94424515D01*
X160412239Y-94368497D01*
X160412235Y-94368496D01*
X160304021Y-94339500D01*
X160304018Y-94339500D01*
X150592032Y-94339500D01*
X150557384Y-94325148D01*
X150516718Y-94284482D01*
X150516716Y-94284480D01*
X150516713Y-94284478D01*
X150516709Y-94284475D01*
X150379786Y-94205423D01*
X150379782Y-94205422D01*
X150227060Y-94164500D01*
X150227057Y-94164500D01*
X150068943Y-94164500D01*
X150068940Y-94164500D01*
X149916217Y-94205422D01*
X149916213Y-94205423D01*
X149779290Y-94284475D01*
X149779281Y-94284482D01*
X149707148Y-94356616D01*
X149672500Y-94370968D01*
X149637852Y-94356616D01*
X149623500Y-94321968D01*
X149623500Y-90861544D01*
X149637852Y-90826896D01*
X150803809Y-89660939D01*
X154022500Y-89660939D01*
X154022500Y-89819060D01*
X154063422Y-89971782D01*
X154063423Y-89971786D01*
X154142475Y-90108709D01*
X154142478Y-90108713D01*
X154142480Y-90108716D01*
X154254284Y-90220520D01*
X154254287Y-90220521D01*
X154254290Y-90220524D01*
X154391213Y-90299576D01*
X154391215Y-90299576D01*
X154391216Y-90299577D01*
X154413034Y-90305423D01*
X154543939Y-90340499D01*
X154543940Y-90340500D01*
X154543943Y-90340500D01*
X154702060Y-90340500D01*
X154702060Y-90340499D01*
X154854784Y-90299577D01*
X154946229Y-90246782D01*
X154991709Y-90220524D01*
X154991708Y-90220524D01*
X154991716Y-90220520D01*
X155103520Y-90108716D01*
X155135321Y-90053634D01*
X155182576Y-89971786D01*
X155182576Y-89971785D01*
X155182577Y-89971784D01*
X155223499Y-89819060D01*
X155223500Y-89819060D01*
X155223500Y-89660940D01*
X155223499Y-89660939D01*
X155186885Y-89524295D01*
X155182577Y-89508216D01*
X155182576Y-89508215D01*
X155182576Y-89508213D01*
X155103524Y-89371290D01*
X155103521Y-89371287D01*
X155103520Y-89371284D01*
X154991716Y-89259480D01*
X154991713Y-89259478D01*
X154991709Y-89259475D01*
X154854786Y-89180423D01*
X154854782Y-89180422D01*
X154702060Y-89139500D01*
X154702057Y-89139500D01*
X154543943Y-89139500D01*
X154543940Y-89139500D01*
X154391217Y-89180422D01*
X154391213Y-89180423D01*
X154254290Y-89259475D01*
X154254281Y-89259482D01*
X154142482Y-89371281D01*
X154142475Y-89371290D01*
X154063423Y-89508213D01*
X154063422Y-89508217D01*
X154022500Y-89660939D01*
X150803809Y-89660939D01*
X156038484Y-84426264D01*
X156038485Y-84426263D01*
X156094503Y-84329237D01*
X156111849Y-84264500D01*
X156123500Y-84221021D01*
X156123500Y-83291398D01*
X156137852Y-83256750D01*
X156172500Y-83242398D01*
X156207148Y-83256750D01*
G37*
G04 #@! TD.AperFunction*
M02*
